<?xml version="1.0" encoding="utf-8" standalone="no"?>
<!DOCTYPE svg PUBLIC "-//W3C//DTD SVG 1.1//EN"
  "http://www.w3.org/Graphics/SVG/1.1/DTD/svg11.dtd">
<svg xmlns:xlink="http://www.w3.org/1999/xlink" width="460.8pt" height="345.6pt" viewBox="0 0 460.8 345.6" xmlns="http://www.w3.org/2000/svg" version="1.1">
 <metadata>
  <rdf:RDF xmlns:dc="http://purl.org/dc/elements/1.1/" xmlns:cc="http://creativecommons.org/ns#" xmlns:rdf="http://www.w3.org/1999/02/22-rdf-syntax-ns#">
   <cc:Work>
    <dc:type rdf:resource="http://purl.org/dc/dcmitype/StillImage"/>
    <dc:date>2024-03-09T17:10:28.638692</dc:date>
    <dc:format>image/svg+xml</dc:format>
    <dc:creator>
     <cc:Agent>
      <dc:title>Matplotlib v3.8.0, https://matplotlib.org/</dc:title>
     </cc:Agent>
    </dc:creator>
   </cc:Work>
  </rdf:RDF>
 </metadata>
 <defs>
  <style type="text/css">*{stroke-linejoin: round; stroke-linecap: butt}</style>
 </defs>
 <g id="figure_1">
  <g id="patch_1">
   <path d="M 0 345.6 
L 460.8 345.6 
L 460.8 0 
L 0 0 
z
" style="fill: #ffffff"/>
  </g>
  <g id="axes_1">
   <g id="patch_2">
    <path d="M 57.6 307.584 
L 414.72 307.584 
L 414.72 41.472 
L 57.6 41.472 
z
" style="fill: #ffffff"/>
   </g>
   <g id="matplotlib.axis_1">
    <g id="xtick_1">
     <g id="line2d_1">
      <path d="M 123.719757 307.584 
L 123.719757 41.472 
" clip-path="url(#pb2847e6f6c)" style="fill: none; stroke: #b0b0b0; stroke-width: 0.8; stroke-linecap: square"/>
     </g>
     <g id="line2d_2">
      <defs>
       <path id="m42312aa819" d="M 0 0 
L 0 3.5 
" style="stroke: #000000; stroke-width: 0.8"/>
      </defs>
      <g>
       <use xlink:href="#m42312aa819" x="123.719757" y="307.584" style="stroke: #000000; stroke-width: 0.8"/>
      </g>
     </g>
     <g id="text_1">
      <!-- $\mathdefault{10^{1}}$ -->
      <g transform="translate(114.919757 322.182437) scale(0.1 -0.1)">
       <defs>
        <path id="DejaVuSans-31" d="M 794 531 
L 1825 531 
L 1825 4091 
L 703 3866 
L 703 4441 
L 1819 4666 
L 2450 4666 
L 2450 531 
L 3481 531 
L 3481 0 
L 794 0 
L 794 531 
z
" transform="scale(0.015625)"/>
        <path id="DejaVuSans-30" d="M 2034 4250 
Q 1547 4250 1301 3770 
Q 1056 3291 1056 2328 
Q 1056 1369 1301 889 
Q 1547 409 2034 409 
Q 2525 409 2770 889 
Q 3016 1369 3016 2328 
Q 3016 3291 2770 3770 
Q 2525 4250 2034 4250 
z
M 2034 4750 
Q 2819 4750 3233 4129 
Q 3647 3509 3647 2328 
Q 3647 1150 3233 529 
Q 2819 -91 2034 -91 
Q 1250 -91 836 529 
Q 422 1150 422 2328 
Q 422 3509 836 4129 
Q 1250 4750 2034 4750 
z
" transform="scale(0.015625)"/>
       </defs>
       <use xlink:href="#DejaVuSans-31" transform="translate(0 0.684375)"/>
       <use xlink:href="#DejaVuSans-30" transform="translate(63.623047 0.684375)"/>
       <use xlink:href="#DejaVuSans-31" transform="translate(128.203125 38.965625) scale(0.7)"/>
      </g>
     </g>
    </g>
    <g id="xtick_2">
     <g id="line2d_3">
      <path d="M 289.440883 307.584 
L 289.440883 41.472 
" clip-path="url(#pb2847e6f6c)" style="fill: none; stroke: #b0b0b0; stroke-width: 0.8; stroke-linecap: square"/>
     </g>
     <g id="line2d_4">
      <g>
       <use xlink:href="#m42312aa819" x="289.440883" y="307.584" style="stroke: #000000; stroke-width: 0.8"/>
      </g>
     </g>
     <g id="text_2">
      <!-- $\mathdefault{10^{2}}$ -->
      <g transform="translate(280.640883 322.182437) scale(0.1 -0.1)">
       <defs>
        <path id="DejaVuSans-32" d="M 1228 531 
L 3431 531 
L 3431 0 
L 469 0 
L 469 531 
Q 828 903 1448 1529 
Q 2069 2156 2228 2338 
Q 2531 2678 2651 2914 
Q 2772 3150 2772 3378 
Q 2772 3750 2511 3984 
Q 2250 4219 1831 4219 
Q 1534 4219 1204 4116 
Q 875 4013 500 3803 
L 500 4441 
Q 881 4594 1212 4672 
Q 1544 4750 1819 4750 
Q 2544 4750 2975 4387 
Q 3406 4025 3406 3419 
Q 3406 3131 3298 2873 
Q 3191 2616 2906 2266 
Q 2828 2175 2409 1742 
Q 1991 1309 1228 531 
z
" transform="scale(0.015625)"/>
       </defs>
       <use xlink:href="#DejaVuSans-31" transform="translate(0 0.765625)"/>
       <use xlink:href="#DejaVuSans-30" transform="translate(63.623047 0.765625)"/>
       <use xlink:href="#DejaVuSans-32" transform="translate(128.203125 39.046875) scale(0.7)"/>
      </g>
     </g>
    </g>
    <g id="xtick_3">
     <g id="line2d_5">
      <path d="M 57.772691 307.584 
L 57.772691 41.472 
" clip-path="url(#pb2847e6f6c)" style="fill: none; stroke-dasharray: 0.8,1.32; stroke-dashoffset: 0; stroke: #b0b0b0; stroke-width: 0.8"/>
     </g>
     <g id="line2d_6">
      <defs>
       <path id="m4317bb8b2b" d="M 0 0 
L 0 2 
" style="stroke: #000000; stroke-width: 0.6"/>
      </defs>
      <g>
       <use xlink:href="#m4317bb8b2b" x="57.772691" y="307.584" style="stroke: #000000; stroke-width: 0.6"/>
      </g>
     </g>
    </g>
    <g id="xtick_4">
     <g id="line2d_7">
      <path d="M 73.832727 307.584 
L 73.832727 41.472 
" clip-path="url(#pb2847e6f6c)" style="fill: none; stroke-dasharray: 0.8,1.32; stroke-dashoffset: 0; stroke: #b0b0b0; stroke-width: 0.8"/>
     </g>
     <g id="line2d_8">
      <g>
       <use xlink:href="#m4317bb8b2b" x="73.832727" y="307.584" style="stroke: #000000; stroke-width: 0.6"/>
      </g>
     </g>
    </g>
    <g id="xtick_5">
     <g id="line2d_9">
      <path d="M 86.954733 307.584 
L 86.954733 41.472 
" clip-path="url(#pb2847e6f6c)" style="fill: none; stroke-dasharray: 0.8,1.32; stroke-dashoffset: 0; stroke: #b0b0b0; stroke-width: 0.8"/>
     </g>
     <g id="line2d_10">
      <g>
       <use xlink:href="#m4317bb8b2b" x="86.954733" y="307.584" style="stroke: #000000; stroke-width: 0.6"/>
      </g>
     </g>
    </g>
    <g id="xtick_6">
     <g id="line2d_11">
      <path d="M 98.04923 307.584 
L 98.04923 41.472 
" clip-path="url(#pb2847e6f6c)" style="fill: none; stroke-dasharray: 0.8,1.32; stroke-dashoffset: 0; stroke: #b0b0b0; stroke-width: 0.8"/>
     </g>
     <g id="line2d_12">
      <g>
       <use xlink:href="#m4317bb8b2b" x="98.04923" y="307.584" style="stroke: #000000; stroke-width: 0.6"/>
      </g>
     </g>
    </g>
    <g id="xtick_7">
     <g id="line2d_13">
      <path d="M 107.659721 307.584 
L 107.659721 41.472 
" clip-path="url(#pb2847e6f6c)" style="fill: none; stroke-dasharray: 0.8,1.32; stroke-dashoffset: 0; stroke: #b0b0b0; stroke-width: 0.8"/>
     </g>
     <g id="line2d_14">
      <g>
       <use xlink:href="#m4317bb8b2b" x="107.659721" y="307.584" style="stroke: #000000; stroke-width: 0.6"/>
      </g>
     </g>
    </g>
    <g id="xtick_8">
     <g id="line2d_15">
      <path d="M 116.136774 307.584 
L 116.136774 41.472 
" clip-path="url(#pb2847e6f6c)" style="fill: none; stroke-dasharray: 0.8,1.32; stroke-dashoffset: 0; stroke: #b0b0b0; stroke-width: 0.8"/>
     </g>
     <g id="line2d_16">
      <g>
       <use xlink:href="#m4317bb8b2b" x="116.136774" y="307.584" style="stroke: #000000; stroke-width: 0.6"/>
      </g>
     </g>
    </g>
    <g id="xtick_9">
     <g id="line2d_17">
      <path d="M 173.606787 307.584 
L 173.606787 41.472 
" clip-path="url(#pb2847e6f6c)" style="fill: none; stroke-dasharray: 0.8,1.32; stroke-dashoffset: 0; stroke: #b0b0b0; stroke-width: 0.8"/>
     </g>
     <g id="line2d_18">
      <g>
       <use xlink:href="#m4317bb8b2b" x="173.606787" y="307.584" style="stroke: #000000; stroke-width: 0.6"/>
      </g>
     </g>
    </g>
    <g id="xtick_10">
     <g id="line2d_19">
      <path d="M 202.788829 307.584 
L 202.788829 41.472 
" clip-path="url(#pb2847e6f6c)" style="fill: none; stroke-dasharray: 0.8,1.32; stroke-dashoffset: 0; stroke: #b0b0b0; stroke-width: 0.8"/>
     </g>
     <g id="line2d_20">
      <g>
       <use xlink:href="#m4317bb8b2b" x="202.788829" y="307.584" style="stroke: #000000; stroke-width: 0.6"/>
      </g>
     </g>
    </g>
    <g id="xtick_11">
     <g id="line2d_21">
      <path d="M 223.493817 307.584 
L 223.493817 41.472 
" clip-path="url(#pb2847e6f6c)" style="fill: none; stroke-dasharray: 0.8,1.32; stroke-dashoffset: 0; stroke: #b0b0b0; stroke-width: 0.8"/>
     </g>
     <g id="line2d_22">
      <g>
       <use xlink:href="#m4317bb8b2b" x="223.493817" y="307.584" style="stroke: #000000; stroke-width: 0.6"/>
      </g>
     </g>
    </g>
    <g id="xtick_12">
     <g id="line2d_23">
      <path d="M 239.553853 307.584 
L 239.553853 41.472 
" clip-path="url(#pb2847e6f6c)" style="fill: none; stroke-dasharray: 0.8,1.32; stroke-dashoffset: 0; stroke: #b0b0b0; stroke-width: 0.8"/>
     </g>
     <g id="line2d_24">
      <g>
       <use xlink:href="#m4317bb8b2b" x="239.553853" y="307.584" style="stroke: #000000; stroke-width: 0.6"/>
      </g>
     </g>
    </g>
    <g id="xtick_13">
     <g id="line2d_25">
      <path d="M 252.675859 307.584 
L 252.675859 41.472 
" clip-path="url(#pb2847e6f6c)" style="fill: none; stroke-dasharray: 0.8,1.32; stroke-dashoffset: 0; stroke: #b0b0b0; stroke-width: 0.8"/>
     </g>
     <g id="line2d_26">
      <g>
       <use xlink:href="#m4317bb8b2b" x="252.675859" y="307.584" style="stroke: #000000; stroke-width: 0.6"/>
      </g>
     </g>
    </g>
    <g id="xtick_14">
     <g id="line2d_27">
      <path d="M 263.770356 307.584 
L 263.770356 41.472 
" clip-path="url(#pb2847e6f6c)" style="fill: none; stroke-dasharray: 0.8,1.32; stroke-dashoffset: 0; stroke: #b0b0b0; stroke-width: 0.8"/>
     </g>
     <g id="line2d_28">
      <g>
       <use xlink:href="#m4317bb8b2b" x="263.770356" y="307.584" style="stroke: #000000; stroke-width: 0.6"/>
      </g>
     </g>
    </g>
    <g id="xtick_15">
     <g id="line2d_29">
      <path d="M 273.380847 307.584 
L 273.380847 41.472 
" clip-path="url(#pb2847e6f6c)" style="fill: none; stroke-dasharray: 0.8,1.32; stroke-dashoffset: 0; stroke: #b0b0b0; stroke-width: 0.8"/>
     </g>
     <g id="line2d_30">
      <g>
       <use xlink:href="#m4317bb8b2b" x="273.380847" y="307.584" style="stroke: #000000; stroke-width: 0.6"/>
      </g>
     </g>
    </g>
    <g id="xtick_16">
     <g id="line2d_31">
      <path d="M 281.8579 307.584 
L 281.8579 41.472 
" clip-path="url(#pb2847e6f6c)" style="fill: none; stroke-dasharray: 0.8,1.32; stroke-dashoffset: 0; stroke: #b0b0b0; stroke-width: 0.8"/>
     </g>
     <g id="line2d_32">
      <g>
       <use xlink:href="#m4317bb8b2b" x="281.8579" y="307.584" style="stroke: #000000; stroke-width: 0.6"/>
      </g>
     </g>
    </g>
    <g id="xtick_17">
     <g id="line2d_33">
      <path d="M 339.327913 307.584 
L 339.327913 41.472 
" clip-path="url(#pb2847e6f6c)" style="fill: none; stroke-dasharray: 0.8,1.32; stroke-dashoffset: 0; stroke: #b0b0b0; stroke-width: 0.8"/>
     </g>
     <g id="line2d_34">
      <g>
       <use xlink:href="#m4317bb8b2b" x="339.327913" y="307.584" style="stroke: #000000; stroke-width: 0.6"/>
      </g>
     </g>
    </g>
    <g id="xtick_18">
     <g id="line2d_35">
      <path d="M 368.509955 307.584 
L 368.509955 41.472 
" clip-path="url(#pb2847e6f6c)" style="fill: none; stroke-dasharray: 0.8,1.32; stroke-dashoffset: 0; stroke: #b0b0b0; stroke-width: 0.8"/>
     </g>
     <g id="line2d_36">
      <g>
       <use xlink:href="#m4317bb8b2b" x="368.509955" y="307.584" style="stroke: #000000; stroke-width: 0.6"/>
      </g>
     </g>
    </g>
    <g id="xtick_19">
     <g id="line2d_37">
      <path d="M 389.214943 307.584 
L 389.214943 41.472 
" clip-path="url(#pb2847e6f6c)" style="fill: none; stroke-dasharray: 0.8,1.32; stroke-dashoffset: 0; stroke: #b0b0b0; stroke-width: 0.8"/>
     </g>
     <g id="line2d_38">
      <g>
       <use xlink:href="#m4317bb8b2b" x="389.214943" y="307.584" style="stroke: #000000; stroke-width: 0.6"/>
      </g>
     </g>
    </g>
    <g id="xtick_20">
     <g id="line2d_39">
      <path d="M 405.274979 307.584 
L 405.274979 41.472 
" clip-path="url(#pb2847e6f6c)" style="fill: none; stroke-dasharray: 0.8,1.32; stroke-dashoffset: 0; stroke: #b0b0b0; stroke-width: 0.8"/>
     </g>
     <g id="line2d_40">
      <g>
       <use xlink:href="#m4317bb8b2b" x="405.274979" y="307.584" style="stroke: #000000; stroke-width: 0.6"/>
      </g>
     </g>
    </g>
    <g id="text_3">
     <!-- size -->
     <g transform="translate(226.465469 335.860562) scale(0.1 -0.1)">
      <defs>
       <path id="DejaVuSans-73" d="M 2834 3397 
L 2834 2853 
Q 2591 2978 2328 3040 
Q 2066 3103 1784 3103 
Q 1356 3103 1142 2972 
Q 928 2841 928 2578 
Q 928 2378 1081 2264 
Q 1234 2150 1697 2047 
L 1894 2003 
Q 2506 1872 2764 1633 
Q 3022 1394 3022 966 
Q 3022 478 2636 193 
Q 2250 -91 1575 -91 
Q 1294 -91 989 -36 
Q 684 19 347 128 
L 347 722 
Q 666 556 975 473 
Q 1284 391 1588 391 
Q 1994 391 2212 530 
Q 2431 669 2431 922 
Q 2431 1156 2273 1281 
Q 2116 1406 1581 1522 
L 1381 1569 
Q 847 1681 609 1914 
Q 372 2147 372 2553 
Q 372 3047 722 3315 
Q 1072 3584 1716 3584 
Q 2034 3584 2315 3537 
Q 2597 3491 2834 3397 
z
" transform="scale(0.015625)"/>
       <path id="DejaVuSans-69" d="M 603 3500 
L 1178 3500 
L 1178 0 
L 603 0 
L 603 3500 
z
M 603 4863 
L 1178 4863 
L 1178 4134 
L 603 4134 
L 603 4863 
z
" transform="scale(0.015625)"/>
       <path id="DejaVuSans-7a" d="M 353 3500 
L 3084 3500 
L 3084 2975 
L 922 459 
L 3084 459 
L 3084 0 
L 275 0 
L 275 525 
L 2438 3041 
L 353 3041 
L 353 3500 
z
" transform="scale(0.015625)"/>
       <path id="DejaVuSans-65" d="M 3597 1894 
L 3597 1613 
L 953 1613 
Q 991 1019 1311 708 
Q 1631 397 2203 397 
Q 2534 397 2845 478 
Q 3156 559 3463 722 
L 3463 178 
Q 3153 47 2828 -22 
Q 2503 -91 2169 -91 
Q 1331 -91 842 396 
Q 353 884 353 1716 
Q 353 2575 817 3079 
Q 1281 3584 2069 3584 
Q 2775 3584 3186 3129 
Q 3597 2675 3597 1894 
z
M 3022 2063 
Q 3016 2534 2758 2815 
Q 2500 3097 2075 3097 
Q 1594 3097 1305 2825 
Q 1016 2553 972 2059 
L 3022 2063 
z
" transform="scale(0.015625)"/>
      </defs>
      <use xlink:href="#DejaVuSans-73"/>
      <use xlink:href="#DejaVuSans-69" x="52.099609"/>
      <use xlink:href="#DejaVuSans-7a" x="79.882812"/>
      <use xlink:href="#DejaVuSans-65" x="132.373047"/>
     </g>
    </g>
   </g>
   <g id="matplotlib.axis_2">
    <g id="ytick_1">
     <g id="line2d_41">
      <path d="M 57.6 299.477106 
L 414.72 299.477106 
" clip-path="url(#pb2847e6f6c)" style="fill: none; stroke: #b0b0b0; stroke-width: 0.8; stroke-linecap: square"/>
     </g>
     <g id="line2d_42">
      <defs>
       <path id="mf084b9f2ad" d="M 0 0 
L -3.5 0 
" style="stroke: #000000; stroke-width: 0.8"/>
      </defs>
      <g>
       <use xlink:href="#mf084b9f2ad" x="57.6" y="299.477106" style="stroke: #000000; stroke-width: 0.8"/>
      </g>
     </g>
     <g id="text_4">
      <!-- $\mathdefault{10^{-7}}$ -->
      <g transform="translate(27.1 303.276325) scale(0.1 -0.1)">
       <defs>
        <path id="DejaVuSans-2212" d="M 678 2272 
L 4684 2272 
L 4684 1741 
L 678 1741 
L 678 2272 
z
" transform="scale(0.015625)"/>
        <path id="DejaVuSans-37" d="M 525 4666 
L 3525 4666 
L 3525 4397 
L 1831 0 
L 1172 0 
L 2766 4134 
L 525 4134 
L 525 4666 
z
" transform="scale(0.015625)"/>
       </defs>
       <use xlink:href="#DejaVuSans-31" transform="translate(0 0.684375)"/>
       <use xlink:href="#DejaVuSans-30" transform="translate(63.623047 0.684375)"/>
       <use xlink:href="#DejaVuSans-2212" transform="translate(128.203125 38.965625) scale(0.7)"/>
       <use xlink:href="#DejaVuSans-37" transform="translate(186.855469 38.965625) scale(0.7)"/>
      </g>
     </g>
    </g>
    <g id="ytick_2">
     <g id="line2d_43">
      <path d="M 57.6 258.314116 
L 414.72 258.314116 
" clip-path="url(#pb2847e6f6c)" style="fill: none; stroke: #b0b0b0; stroke-width: 0.8; stroke-linecap: square"/>
     </g>
     <g id="line2d_44">
      <g>
       <use xlink:href="#mf084b9f2ad" x="57.6" y="258.314116" style="stroke: #000000; stroke-width: 0.8"/>
      </g>
     </g>
     <g id="text_5">
      <!-- $\mathdefault{10^{-6}}$ -->
      <g transform="translate(27.1 262.113335) scale(0.1 -0.1)">
       <defs>
        <path id="DejaVuSans-36" d="M 2113 2584 
Q 1688 2584 1439 2293 
Q 1191 2003 1191 1497 
Q 1191 994 1439 701 
Q 1688 409 2113 409 
Q 2538 409 2786 701 
Q 3034 994 3034 1497 
Q 3034 2003 2786 2293 
Q 2538 2584 2113 2584 
z
M 3366 4563 
L 3366 3988 
Q 3128 4100 2886 4159 
Q 2644 4219 2406 4219 
Q 1781 4219 1451 3797 
Q 1122 3375 1075 2522 
Q 1259 2794 1537 2939 
Q 1816 3084 2150 3084 
Q 2853 3084 3261 2657 
Q 3669 2231 3669 1497 
Q 3669 778 3244 343 
Q 2819 -91 2113 -91 
Q 1303 -91 875 529 
Q 447 1150 447 2328 
Q 447 3434 972 4092 
Q 1497 4750 2381 4750 
Q 2619 4750 2861 4703 
Q 3103 4656 3366 4563 
z
" transform="scale(0.015625)"/>
       </defs>
       <use xlink:href="#DejaVuSans-31" transform="translate(0 0.765625)"/>
       <use xlink:href="#DejaVuSans-30" transform="translate(63.623047 0.765625)"/>
       <use xlink:href="#DejaVuSans-2212" transform="translate(128.203125 39.046875) scale(0.7)"/>
       <use xlink:href="#DejaVuSans-36" transform="translate(186.855469 39.046875) scale(0.7)"/>
      </g>
     </g>
    </g>
    <g id="ytick_3">
     <g id="line2d_45">
      <path d="M 57.6 217.151127 
L 414.72 217.151127 
" clip-path="url(#pb2847e6f6c)" style="fill: none; stroke: #b0b0b0; stroke-width: 0.8; stroke-linecap: square"/>
     </g>
     <g id="line2d_46">
      <g>
       <use xlink:href="#mf084b9f2ad" x="57.6" y="217.151127" style="stroke: #000000; stroke-width: 0.8"/>
      </g>
     </g>
     <g id="text_6">
      <!-- $\mathdefault{10^{-5}}$ -->
      <g transform="translate(27.1 220.950346) scale(0.1 -0.1)">
       <defs>
        <path id="DejaVuSans-35" d="M 691 4666 
L 3169 4666 
L 3169 4134 
L 1269 4134 
L 1269 2991 
Q 1406 3038 1543 3061 
Q 1681 3084 1819 3084 
Q 2600 3084 3056 2656 
Q 3513 2228 3513 1497 
Q 3513 744 3044 326 
Q 2575 -91 1722 -91 
Q 1428 -91 1123 -41 
Q 819 9 494 109 
L 494 744 
Q 775 591 1075 516 
Q 1375 441 1709 441 
Q 2250 441 2565 725 
Q 2881 1009 2881 1497 
Q 2881 1984 2565 2268 
Q 2250 2553 1709 2553 
Q 1456 2553 1204 2497 
Q 953 2441 691 2322 
L 691 4666 
z
" transform="scale(0.015625)"/>
       </defs>
       <use xlink:href="#DejaVuSans-31" transform="translate(0 0.684375)"/>
       <use xlink:href="#DejaVuSans-30" transform="translate(63.623047 0.684375)"/>
       <use xlink:href="#DejaVuSans-2212" transform="translate(128.203125 38.965625) scale(0.7)"/>
       <use xlink:href="#DejaVuSans-35" transform="translate(186.855469 38.965625) scale(0.7)"/>
      </g>
     </g>
    </g>
    <g id="ytick_4">
     <g id="line2d_47">
      <path d="M 57.6 175.988138 
L 414.72 175.988138 
" clip-path="url(#pb2847e6f6c)" style="fill: none; stroke: #b0b0b0; stroke-width: 0.8; stroke-linecap: square"/>
     </g>
     <g id="line2d_48">
      <g>
       <use xlink:href="#mf084b9f2ad" x="57.6" y="175.988138" style="stroke: #000000; stroke-width: 0.8"/>
      </g>
     </g>
     <g id="text_7">
      <!-- $\mathdefault{10^{-4}}$ -->
      <g transform="translate(27.1 179.787356) scale(0.1 -0.1)">
       <defs>
        <path id="DejaVuSans-34" d="M 2419 4116 
L 825 1625 
L 2419 1625 
L 2419 4116 
z
M 2253 4666 
L 3047 4666 
L 3047 1625 
L 3713 1625 
L 3713 1100 
L 3047 1100 
L 3047 0 
L 2419 0 
L 2419 1100 
L 313 1100 
L 313 1709 
L 2253 4666 
z
" transform="scale(0.015625)"/>
       </defs>
       <use xlink:href="#DejaVuSans-31" transform="translate(0 0.684375)"/>
       <use xlink:href="#DejaVuSans-30" transform="translate(63.623047 0.684375)"/>
       <use xlink:href="#DejaVuSans-2212" transform="translate(128.203125 38.965625) scale(0.7)"/>
       <use xlink:href="#DejaVuSans-34" transform="translate(186.855469 38.965625) scale(0.7)"/>
      </g>
     </g>
    </g>
    <g id="ytick_5">
     <g id="line2d_49">
      <path d="M 57.6 134.825148 
L 414.72 134.825148 
" clip-path="url(#pb2847e6f6c)" style="fill: none; stroke: #b0b0b0; stroke-width: 0.8; stroke-linecap: square"/>
     </g>
     <g id="line2d_50">
      <g>
       <use xlink:href="#mf084b9f2ad" x="57.6" y="134.825148" style="stroke: #000000; stroke-width: 0.8"/>
      </g>
     </g>
     <g id="text_8">
      <!-- $\mathdefault{10^{-3}}$ -->
      <g transform="translate(27.1 138.624367) scale(0.1 -0.1)">
       <defs>
        <path id="DejaVuSans-33" d="M 2597 2516 
Q 3050 2419 3304 2112 
Q 3559 1806 3559 1356 
Q 3559 666 3084 287 
Q 2609 -91 1734 -91 
Q 1441 -91 1130 -33 
Q 819 25 488 141 
L 488 750 
Q 750 597 1062 519 
Q 1375 441 1716 441 
Q 2309 441 2620 675 
Q 2931 909 2931 1356 
Q 2931 1769 2642 2001 
Q 2353 2234 1838 2234 
L 1294 2234 
L 1294 2753 
L 1863 2753 
Q 2328 2753 2575 2939 
Q 2822 3125 2822 3475 
Q 2822 3834 2567 4026 
Q 2313 4219 1838 4219 
Q 1578 4219 1281 4162 
Q 984 4106 628 3988 
L 628 4550 
Q 988 4650 1302 4700 
Q 1616 4750 1894 4750 
Q 2613 4750 3031 4423 
Q 3450 4097 3450 3541 
Q 3450 3153 3228 2886 
Q 3006 2619 2597 2516 
z
" transform="scale(0.015625)"/>
       </defs>
       <use xlink:href="#DejaVuSans-31" transform="translate(0 0.765625)"/>
       <use xlink:href="#DejaVuSans-30" transform="translate(63.623047 0.765625)"/>
       <use xlink:href="#DejaVuSans-2212" transform="translate(128.203125 39.046875) scale(0.7)"/>
       <use xlink:href="#DejaVuSans-33" transform="translate(186.855469 39.046875) scale(0.7)"/>
      </g>
     </g>
    </g>
    <g id="ytick_6">
     <g id="line2d_51">
      <path d="M 57.6 93.662159 
L 414.72 93.662159 
" clip-path="url(#pb2847e6f6c)" style="fill: none; stroke: #b0b0b0; stroke-width: 0.8; stroke-linecap: square"/>
     </g>
     <g id="line2d_52">
      <g>
       <use xlink:href="#mf084b9f2ad" x="57.6" y="93.662159" style="stroke: #000000; stroke-width: 0.8"/>
      </g>
     </g>
     <g id="text_9">
      <!-- $\mathdefault{10^{-2}}$ -->
      <g transform="translate(27.1 97.461378) scale(0.1 -0.1)">
       <use xlink:href="#DejaVuSans-31" transform="translate(0 0.765625)"/>
       <use xlink:href="#DejaVuSans-30" transform="translate(63.623047 0.765625)"/>
       <use xlink:href="#DejaVuSans-2212" transform="translate(128.203125 39.046875) scale(0.7)"/>
       <use xlink:href="#DejaVuSans-32" transform="translate(186.855469 39.046875) scale(0.7)"/>
      </g>
     </g>
    </g>
    <g id="ytick_7">
     <g id="line2d_53">
      <path d="M 57.6 52.49917 
L 414.72 52.49917 
" clip-path="url(#pb2847e6f6c)" style="fill: none; stroke: #b0b0b0; stroke-width: 0.8; stroke-linecap: square"/>
     </g>
     <g id="line2d_54">
      <g>
       <use xlink:href="#mf084b9f2ad" x="57.6" y="52.49917" style="stroke: #000000; stroke-width: 0.8"/>
      </g>
     </g>
     <g id="text_10">
      <!-- $\mathdefault{10^{-1}}$ -->
      <g transform="translate(27.1 56.298388) scale(0.1 -0.1)">
       <use xlink:href="#DejaVuSans-31" transform="translate(0 0.684375)"/>
       <use xlink:href="#DejaVuSans-30" transform="translate(63.623047 0.684375)"/>
       <use xlink:href="#DejaVuSans-2212" transform="translate(128.203125 38.965625) scale(0.7)"/>
       <use xlink:href="#DejaVuSans-31" transform="translate(186.855469 38.965625) scale(0.7)"/>
      </g>
     </g>
    </g>
    <g id="ytick_8">
     <g id="line2d_55">
      <path d="M 57.6 305.853334 
L 414.72 305.853334 
" clip-path="url(#pb2847e6f6c)" style="fill: none; stroke-dasharray: 0.8,1.32; stroke-dashoffset: 0; stroke: #b0b0b0; stroke-width: 0.8"/>
     </g>
     <g id="line2d_56">
      <defs>
       <path id="m1a36591b26" d="M 0 0 
L -2 0 
" style="stroke: #000000; stroke-width: 0.6"/>
      </defs>
      <g>
       <use xlink:href="#m1a36591b26" x="57.6" y="305.853334" style="stroke: #000000; stroke-width: 0.6"/>
      </g>
     </g>
    </g>
    <g id="ytick_9">
     <g id="line2d_57">
      <path d="M 57.6 303.466212 
L 414.72 303.466212 
" clip-path="url(#pb2847e6f6c)" style="fill: none; stroke-dasharray: 0.8,1.32; stroke-dashoffset: 0; stroke: #b0b0b0; stroke-width: 0.8"/>
     </g>
     <g id="line2d_58">
      <g>
       <use xlink:href="#m1a36591b26" x="57.6" y="303.466212" style="stroke: #000000; stroke-width: 0.6"/>
      </g>
     </g>
    </g>
    <g id="ytick_10">
     <g id="line2d_59">
      <path d="M 57.6 301.360621 
L 414.72 301.360621 
" clip-path="url(#pb2847e6f6c)" style="fill: none; stroke-dasharray: 0.8,1.32; stroke-dashoffset: 0; stroke: #b0b0b0; stroke-width: 0.8"/>
     </g>
     <g id="line2d_60">
      <g>
       <use xlink:href="#m1a36591b26" x="57.6" y="301.360621" style="stroke: #000000; stroke-width: 0.6"/>
      </g>
     </g>
    </g>
    <g id="ytick_11">
     <g id="line2d_61">
      <path d="M 57.6 287.085811 
L 414.72 287.085811 
" clip-path="url(#pb2847e6f6c)" style="fill: none; stroke-dasharray: 0.8,1.32; stroke-dashoffset: 0; stroke: #b0b0b0; stroke-width: 0.8"/>
     </g>
     <g id="line2d_62">
      <g>
       <use xlink:href="#m1a36591b26" x="57.6" y="287.085811" style="stroke: #000000; stroke-width: 0.6"/>
      </g>
     </g>
    </g>
    <g id="ytick_12">
     <g id="line2d_63">
      <path d="M 57.6 279.837369 
L 414.72 279.837369 
" clip-path="url(#pb2847e6f6c)" style="fill: none; stroke-dasharray: 0.8,1.32; stroke-dashoffset: 0; stroke: #b0b0b0; stroke-width: 0.8"/>
     </g>
     <g id="line2d_64">
      <g>
       <use xlink:href="#m1a36591b26" x="57.6" y="279.837369" style="stroke: #000000; stroke-width: 0.6"/>
      </g>
     </g>
    </g>
    <g id="ytick_13">
     <g id="line2d_65">
      <path d="M 57.6 274.694517 
L 414.72 274.694517 
" clip-path="url(#pb2847e6f6c)" style="fill: none; stroke-dasharray: 0.8,1.32; stroke-dashoffset: 0; stroke: #b0b0b0; stroke-width: 0.8"/>
     </g>
     <g id="line2d_66">
      <g>
       <use xlink:href="#m1a36591b26" x="57.6" y="274.694517" style="stroke: #000000; stroke-width: 0.6"/>
      </g>
     </g>
    </g>
    <g id="ytick_14">
     <g id="line2d_67">
      <path d="M 57.6 270.705411 
L 414.72 270.705411 
" clip-path="url(#pb2847e6f6c)" style="fill: none; stroke-dasharray: 0.8,1.32; stroke-dashoffset: 0; stroke: #b0b0b0; stroke-width: 0.8"/>
     </g>
     <g id="line2d_68">
      <g>
       <use xlink:href="#m1a36591b26" x="57.6" y="270.705411" style="stroke: #000000; stroke-width: 0.6"/>
      </g>
     </g>
    </g>
    <g id="ytick_15">
     <g id="line2d_69">
      <path d="M 57.6 267.446074 
L 414.72 267.446074 
" clip-path="url(#pb2847e6f6c)" style="fill: none; stroke-dasharray: 0.8,1.32; stroke-dashoffset: 0; stroke: #b0b0b0; stroke-width: 0.8"/>
     </g>
     <g id="line2d_70">
      <g>
       <use xlink:href="#m1a36591b26" x="57.6" y="267.446074" style="stroke: #000000; stroke-width: 0.6"/>
      </g>
     </g>
    </g>
    <g id="ytick_16">
     <g id="line2d_71">
      <path d="M 57.6 264.690344 
L 414.72 264.690344 
" clip-path="url(#pb2847e6f6c)" style="fill: none; stroke-dasharray: 0.8,1.32; stroke-dashoffset: 0; stroke: #b0b0b0; stroke-width: 0.8"/>
     </g>
     <g id="line2d_72">
      <g>
       <use xlink:href="#m1a36591b26" x="57.6" y="264.690344" style="stroke: #000000; stroke-width: 0.6"/>
      </g>
     </g>
    </g>
    <g id="ytick_17">
     <g id="line2d_73">
      <path d="M 57.6 262.303222 
L 414.72 262.303222 
" clip-path="url(#pb2847e6f6c)" style="fill: none; stroke-dasharray: 0.8,1.32; stroke-dashoffset: 0; stroke: #b0b0b0; stroke-width: 0.8"/>
     </g>
     <g id="line2d_74">
      <g>
       <use xlink:href="#m1a36591b26" x="57.6" y="262.303222" style="stroke: #000000; stroke-width: 0.6"/>
      </g>
     </g>
    </g>
    <g id="ytick_18">
     <g id="line2d_75">
      <path d="M 57.6 260.197632 
L 414.72 260.197632 
" clip-path="url(#pb2847e6f6c)" style="fill: none; stroke-dasharray: 0.8,1.32; stroke-dashoffset: 0; stroke: #b0b0b0; stroke-width: 0.8"/>
     </g>
     <g id="line2d_76">
      <g>
       <use xlink:href="#m1a36591b26" x="57.6" y="260.197632" style="stroke: #000000; stroke-width: 0.6"/>
      </g>
     </g>
    </g>
    <g id="ytick_19">
     <g id="line2d_77">
      <path d="M 57.6 245.922822 
L 414.72 245.922822 
" clip-path="url(#pb2847e6f6c)" style="fill: none; stroke-dasharray: 0.8,1.32; stroke-dashoffset: 0; stroke: #b0b0b0; stroke-width: 0.8"/>
     </g>
     <g id="line2d_78">
      <g>
       <use xlink:href="#m1a36591b26" x="57.6" y="245.922822" style="stroke: #000000; stroke-width: 0.6"/>
      </g>
     </g>
    </g>
    <g id="ytick_20">
     <g id="line2d_79">
      <path d="M 57.6 238.674379 
L 414.72 238.674379 
" clip-path="url(#pb2847e6f6c)" style="fill: none; stroke-dasharray: 0.8,1.32; stroke-dashoffset: 0; stroke: #b0b0b0; stroke-width: 0.8"/>
     </g>
     <g id="line2d_80">
      <g>
       <use xlink:href="#m1a36591b26" x="57.6" y="238.674379" style="stroke: #000000; stroke-width: 0.6"/>
      </g>
     </g>
    </g>
    <g id="ytick_21">
     <g id="line2d_81">
      <path d="M 57.6 233.531527 
L 414.72 233.531527 
" clip-path="url(#pb2847e6f6c)" style="fill: none; stroke-dasharray: 0.8,1.32; stroke-dashoffset: 0; stroke: #b0b0b0; stroke-width: 0.8"/>
     </g>
     <g id="line2d_82">
      <g>
       <use xlink:href="#m1a36591b26" x="57.6" y="233.531527" style="stroke: #000000; stroke-width: 0.6"/>
      </g>
     </g>
    </g>
    <g id="ytick_22">
     <g id="line2d_83">
      <path d="M 57.6 229.542422 
L 414.72 229.542422 
" clip-path="url(#pb2847e6f6c)" style="fill: none; stroke-dasharray: 0.8,1.32; stroke-dashoffset: 0; stroke: #b0b0b0; stroke-width: 0.8"/>
     </g>
     <g id="line2d_84">
      <g>
       <use xlink:href="#m1a36591b26" x="57.6" y="229.542422" style="stroke: #000000; stroke-width: 0.6"/>
      </g>
     </g>
    </g>
    <g id="ytick_23">
     <g id="line2d_85">
      <path d="M 57.6 226.283085 
L 414.72 226.283085 
" clip-path="url(#pb2847e6f6c)" style="fill: none; stroke-dasharray: 0.8,1.32; stroke-dashoffset: 0; stroke: #b0b0b0; stroke-width: 0.8"/>
     </g>
     <g id="line2d_86">
      <g>
       <use xlink:href="#m1a36591b26" x="57.6" y="226.283085" style="stroke: #000000; stroke-width: 0.6"/>
      </g>
     </g>
    </g>
    <g id="ytick_24">
     <g id="line2d_87">
      <path d="M 57.6 223.527355 
L 414.72 223.527355 
" clip-path="url(#pb2847e6f6c)" style="fill: none; stroke-dasharray: 0.8,1.32; stroke-dashoffset: 0; stroke: #b0b0b0; stroke-width: 0.8"/>
     </g>
     <g id="line2d_88">
      <g>
       <use xlink:href="#m1a36591b26" x="57.6" y="223.527355" style="stroke: #000000; stroke-width: 0.6"/>
      </g>
     </g>
    </g>
    <g id="ytick_25">
     <g id="line2d_89">
      <path d="M 57.6 221.140233 
L 414.72 221.140233 
" clip-path="url(#pb2847e6f6c)" style="fill: none; stroke-dasharray: 0.8,1.32; stroke-dashoffset: 0; stroke: #b0b0b0; stroke-width: 0.8"/>
     </g>
     <g id="line2d_90">
      <g>
       <use xlink:href="#m1a36591b26" x="57.6" y="221.140233" style="stroke: #000000; stroke-width: 0.6"/>
      </g>
     </g>
    </g>
    <g id="ytick_26">
     <g id="line2d_91">
      <path d="M 57.6 219.034642 
L 414.72 219.034642 
" clip-path="url(#pb2847e6f6c)" style="fill: none; stroke-dasharray: 0.8,1.32; stroke-dashoffset: 0; stroke: #b0b0b0; stroke-width: 0.8"/>
     </g>
     <g id="line2d_92">
      <g>
       <use xlink:href="#m1a36591b26" x="57.6" y="219.034642" style="stroke: #000000; stroke-width: 0.6"/>
      </g>
     </g>
    </g>
    <g id="ytick_27">
     <g id="line2d_93">
      <path d="M 57.6 204.759833 
L 414.72 204.759833 
" clip-path="url(#pb2847e6f6c)" style="fill: none; stroke-dasharray: 0.8,1.32; stroke-dashoffset: 0; stroke: #b0b0b0; stroke-width: 0.8"/>
     </g>
     <g id="line2d_94">
      <g>
       <use xlink:href="#m1a36591b26" x="57.6" y="204.759833" style="stroke: #000000; stroke-width: 0.6"/>
      </g>
     </g>
    </g>
    <g id="ytick_28">
     <g id="line2d_95">
      <path d="M 57.6 197.51139 
L 414.72 197.51139 
" clip-path="url(#pb2847e6f6c)" style="fill: none; stroke-dasharray: 0.8,1.32; stroke-dashoffset: 0; stroke: #b0b0b0; stroke-width: 0.8"/>
     </g>
     <g id="line2d_96">
      <g>
       <use xlink:href="#m1a36591b26" x="57.6" y="197.51139" style="stroke: #000000; stroke-width: 0.6"/>
      </g>
     </g>
    </g>
    <g id="ytick_29">
     <g id="line2d_97">
      <path d="M 57.6 192.368538 
L 414.72 192.368538 
" clip-path="url(#pb2847e6f6c)" style="fill: none; stroke-dasharray: 0.8,1.32; stroke-dashoffset: 0; stroke: #b0b0b0; stroke-width: 0.8"/>
     </g>
     <g id="line2d_98">
      <g>
       <use xlink:href="#m1a36591b26" x="57.6" y="192.368538" style="stroke: #000000; stroke-width: 0.6"/>
      </g>
     </g>
    </g>
    <g id="ytick_30">
     <g id="line2d_99">
      <path d="M 57.6 188.379432 
L 414.72 188.379432 
" clip-path="url(#pb2847e6f6c)" style="fill: none; stroke-dasharray: 0.8,1.32; stroke-dashoffset: 0; stroke: #b0b0b0; stroke-width: 0.8"/>
     </g>
     <g id="line2d_100">
      <g>
       <use xlink:href="#m1a36591b26" x="57.6" y="188.379432" style="stroke: #000000; stroke-width: 0.6"/>
      </g>
     </g>
    </g>
    <g id="ytick_31">
     <g id="line2d_101">
      <path d="M 57.6 185.120095 
L 414.72 185.120095 
" clip-path="url(#pb2847e6f6c)" style="fill: none; stroke-dasharray: 0.8,1.32; stroke-dashoffset: 0; stroke: #b0b0b0; stroke-width: 0.8"/>
     </g>
     <g id="line2d_102">
      <g>
       <use xlink:href="#m1a36591b26" x="57.6" y="185.120095" style="stroke: #000000; stroke-width: 0.6"/>
      </g>
     </g>
    </g>
    <g id="ytick_32">
     <g id="line2d_103">
      <path d="M 57.6 182.364365 
L 414.72 182.364365 
" clip-path="url(#pb2847e6f6c)" style="fill: none; stroke-dasharray: 0.8,1.32; stroke-dashoffset: 0; stroke: #b0b0b0; stroke-width: 0.8"/>
     </g>
     <g id="line2d_104">
      <g>
       <use xlink:href="#m1a36591b26" x="57.6" y="182.364365" style="stroke: #000000; stroke-width: 0.6"/>
      </g>
     </g>
    </g>
    <g id="ytick_33">
     <g id="line2d_105">
      <path d="M 57.6 179.977244 
L 414.72 179.977244 
" clip-path="url(#pb2847e6f6c)" style="fill: none; stroke-dasharray: 0.8,1.32; stroke-dashoffset: 0; stroke: #b0b0b0; stroke-width: 0.8"/>
     </g>
     <g id="line2d_106">
      <g>
       <use xlink:href="#m1a36591b26" x="57.6" y="179.977244" style="stroke: #000000; stroke-width: 0.6"/>
      </g>
     </g>
    </g>
    <g id="ytick_34">
     <g id="line2d_107">
      <path d="M 57.6 177.871653 
L 414.72 177.871653 
" clip-path="url(#pb2847e6f6c)" style="fill: none; stroke-dasharray: 0.8,1.32; stroke-dashoffset: 0; stroke: #b0b0b0; stroke-width: 0.8"/>
     </g>
     <g id="line2d_108">
      <g>
       <use xlink:href="#m1a36591b26" x="57.6" y="177.871653" style="stroke: #000000; stroke-width: 0.6"/>
      </g>
     </g>
    </g>
    <g id="ytick_35">
     <g id="line2d_109">
      <path d="M 57.6 163.596843 
L 414.72 163.596843 
" clip-path="url(#pb2847e6f6c)" style="fill: none; stroke-dasharray: 0.8,1.32; stroke-dashoffset: 0; stroke: #b0b0b0; stroke-width: 0.8"/>
     </g>
     <g id="line2d_110">
      <g>
       <use xlink:href="#m1a36591b26" x="57.6" y="163.596843" style="stroke: #000000; stroke-width: 0.6"/>
      </g>
     </g>
    </g>
    <g id="ytick_36">
     <g id="line2d_111">
      <path d="M 57.6 156.348401 
L 414.72 156.348401 
" clip-path="url(#pb2847e6f6c)" style="fill: none; stroke-dasharray: 0.8,1.32; stroke-dashoffset: 0; stroke: #b0b0b0; stroke-width: 0.8"/>
     </g>
     <g id="line2d_112">
      <g>
       <use xlink:href="#m1a36591b26" x="57.6" y="156.348401" style="stroke: #000000; stroke-width: 0.6"/>
      </g>
     </g>
    </g>
    <g id="ytick_37">
     <g id="line2d_113">
      <path d="M 57.6 151.205549 
L 414.72 151.205549 
" clip-path="url(#pb2847e6f6c)" style="fill: none; stroke-dasharray: 0.8,1.32; stroke-dashoffset: 0; stroke: #b0b0b0; stroke-width: 0.8"/>
     </g>
     <g id="line2d_114">
      <g>
       <use xlink:href="#m1a36591b26" x="57.6" y="151.205549" style="stroke: #000000; stroke-width: 0.6"/>
      </g>
     </g>
    </g>
    <g id="ytick_38">
     <g id="line2d_115">
      <path d="M 57.6 147.216443 
L 414.72 147.216443 
" clip-path="url(#pb2847e6f6c)" style="fill: none; stroke-dasharray: 0.8,1.32; stroke-dashoffset: 0; stroke: #b0b0b0; stroke-width: 0.8"/>
     </g>
     <g id="line2d_116">
      <g>
       <use xlink:href="#m1a36591b26" x="57.6" y="147.216443" style="stroke: #000000; stroke-width: 0.6"/>
      </g>
     </g>
    </g>
    <g id="ytick_39">
     <g id="line2d_117">
      <path d="M 57.6 143.957106 
L 414.72 143.957106 
" clip-path="url(#pb2847e6f6c)" style="fill: none; stroke-dasharray: 0.8,1.32; stroke-dashoffset: 0; stroke: #b0b0b0; stroke-width: 0.8"/>
     </g>
     <g id="line2d_118">
      <g>
       <use xlink:href="#m1a36591b26" x="57.6" y="143.957106" style="stroke: #000000; stroke-width: 0.6"/>
      </g>
     </g>
    </g>
    <g id="ytick_40">
     <g id="line2d_119">
      <path d="M 57.6 141.201376 
L 414.72 141.201376 
" clip-path="url(#pb2847e6f6c)" style="fill: none; stroke-dasharray: 0.8,1.32; stroke-dashoffset: 0; stroke: #b0b0b0; stroke-width: 0.8"/>
     </g>
     <g id="line2d_120">
      <g>
       <use xlink:href="#m1a36591b26" x="57.6" y="141.201376" style="stroke: #000000; stroke-width: 0.6"/>
      </g>
     </g>
    </g>
    <g id="ytick_41">
     <g id="line2d_121">
      <path d="M 57.6 138.814254 
L 414.72 138.814254 
" clip-path="url(#pb2847e6f6c)" style="fill: none; stroke-dasharray: 0.8,1.32; stroke-dashoffset: 0; stroke: #b0b0b0; stroke-width: 0.8"/>
     </g>
     <g id="line2d_122">
      <g>
       <use xlink:href="#m1a36591b26" x="57.6" y="138.814254" style="stroke: #000000; stroke-width: 0.6"/>
      </g>
     </g>
    </g>
    <g id="ytick_42">
     <g id="line2d_123">
      <path d="M 57.6 136.708663 
L 414.72 136.708663 
" clip-path="url(#pb2847e6f6c)" style="fill: none; stroke-dasharray: 0.8,1.32; stroke-dashoffset: 0; stroke: #b0b0b0; stroke-width: 0.8"/>
     </g>
     <g id="line2d_124">
      <g>
       <use xlink:href="#m1a36591b26" x="57.6" y="136.708663" style="stroke: #000000; stroke-width: 0.6"/>
      </g>
     </g>
    </g>
    <g id="ytick_43">
     <g id="line2d_125">
      <path d="M 57.6 122.433854 
L 414.72 122.433854 
" clip-path="url(#pb2847e6f6c)" style="fill: none; stroke-dasharray: 0.8,1.32; stroke-dashoffset: 0; stroke: #b0b0b0; stroke-width: 0.8"/>
     </g>
     <g id="line2d_126">
      <g>
       <use xlink:href="#m1a36591b26" x="57.6" y="122.433854" style="stroke: #000000; stroke-width: 0.6"/>
      </g>
     </g>
    </g>
    <g id="ytick_44">
     <g id="line2d_127">
      <path d="M 57.6 115.185411 
L 414.72 115.185411 
" clip-path="url(#pb2847e6f6c)" style="fill: none; stroke-dasharray: 0.8,1.32; stroke-dashoffset: 0; stroke: #b0b0b0; stroke-width: 0.8"/>
     </g>
     <g id="line2d_128">
      <g>
       <use xlink:href="#m1a36591b26" x="57.6" y="115.185411" style="stroke: #000000; stroke-width: 0.6"/>
      </g>
     </g>
    </g>
    <g id="ytick_45">
     <g id="line2d_129">
      <path d="M 57.6 110.042559 
L 414.72 110.042559 
" clip-path="url(#pb2847e6f6c)" style="fill: none; stroke-dasharray: 0.8,1.32; stroke-dashoffset: 0; stroke: #b0b0b0; stroke-width: 0.8"/>
     </g>
     <g id="line2d_130">
      <g>
       <use xlink:href="#m1a36591b26" x="57.6" y="110.042559" style="stroke: #000000; stroke-width: 0.6"/>
      </g>
     </g>
    </g>
    <g id="ytick_46">
     <g id="line2d_131">
      <path d="M 57.6 106.053454 
L 414.72 106.053454 
" clip-path="url(#pb2847e6f6c)" style="fill: none; stroke-dasharray: 0.8,1.32; stroke-dashoffset: 0; stroke: #b0b0b0; stroke-width: 0.8"/>
     </g>
     <g id="line2d_132">
      <g>
       <use xlink:href="#m1a36591b26" x="57.6" y="106.053454" style="stroke: #000000; stroke-width: 0.6"/>
      </g>
     </g>
    </g>
    <g id="ytick_47">
     <g id="line2d_133">
      <path d="M 57.6 102.794117 
L 414.72 102.794117 
" clip-path="url(#pb2847e6f6c)" style="fill: none; stroke-dasharray: 0.8,1.32; stroke-dashoffset: 0; stroke: #b0b0b0; stroke-width: 0.8"/>
     </g>
     <g id="line2d_134">
      <g>
       <use xlink:href="#m1a36591b26" x="57.6" y="102.794117" style="stroke: #000000; stroke-width: 0.6"/>
      </g>
     </g>
    </g>
    <g id="ytick_48">
     <g id="line2d_135">
      <path d="M 57.6 100.038387 
L 414.72 100.038387 
" clip-path="url(#pb2847e6f6c)" style="fill: none; stroke-dasharray: 0.8,1.32; stroke-dashoffset: 0; stroke: #b0b0b0; stroke-width: 0.8"/>
     </g>
     <g id="line2d_136">
      <g>
       <use xlink:href="#m1a36591b26" x="57.6" y="100.038387" style="stroke: #000000; stroke-width: 0.6"/>
      </g>
     </g>
    </g>
    <g id="ytick_49">
     <g id="line2d_137">
      <path d="M 57.6 97.651265 
L 414.72 97.651265 
" clip-path="url(#pb2847e6f6c)" style="fill: none; stroke-dasharray: 0.8,1.32; stroke-dashoffset: 0; stroke: #b0b0b0; stroke-width: 0.8"/>
     </g>
     <g id="line2d_138">
      <g>
       <use xlink:href="#m1a36591b26" x="57.6" y="97.651265" style="stroke: #000000; stroke-width: 0.6"/>
      </g>
     </g>
    </g>
    <g id="ytick_50">
     <g id="line2d_139">
      <path d="M 57.6 95.545674 
L 414.72 95.545674 
" clip-path="url(#pb2847e6f6c)" style="fill: none; stroke-dasharray: 0.8,1.32; stroke-dashoffset: 0; stroke: #b0b0b0; stroke-width: 0.8"/>
     </g>
     <g id="line2d_140">
      <g>
       <use xlink:href="#m1a36591b26" x="57.6" y="95.545674" style="stroke: #000000; stroke-width: 0.6"/>
      </g>
     </g>
    </g>
    <g id="ytick_51">
     <g id="line2d_141">
      <path d="M 57.6 81.270864 
L 414.72 81.270864 
" clip-path="url(#pb2847e6f6c)" style="fill: none; stroke-dasharray: 0.8,1.32; stroke-dashoffset: 0; stroke: #b0b0b0; stroke-width: 0.8"/>
     </g>
     <g id="line2d_142">
      <g>
       <use xlink:href="#m1a36591b26" x="57.6" y="81.270864" style="stroke: #000000; stroke-width: 0.6"/>
      </g>
     </g>
    </g>
    <g id="ytick_52">
     <g id="line2d_143">
      <path d="M 57.6 74.022422 
L 414.72 74.022422 
" clip-path="url(#pb2847e6f6c)" style="fill: none; stroke-dasharray: 0.8,1.32; stroke-dashoffset: 0; stroke: #b0b0b0; stroke-width: 0.8"/>
     </g>
     <g id="line2d_144">
      <g>
       <use xlink:href="#m1a36591b26" x="57.6" y="74.022422" style="stroke: #000000; stroke-width: 0.6"/>
      </g>
     </g>
    </g>
    <g id="ytick_53">
     <g id="line2d_145">
      <path d="M 57.6 68.87957 
L 414.72 68.87957 
" clip-path="url(#pb2847e6f6c)" style="fill: none; stroke-dasharray: 0.8,1.32; stroke-dashoffset: 0; stroke: #b0b0b0; stroke-width: 0.8"/>
     </g>
     <g id="line2d_146">
      <g>
       <use xlink:href="#m1a36591b26" x="57.6" y="68.87957" style="stroke: #000000; stroke-width: 0.6"/>
      </g>
     </g>
    </g>
    <g id="ytick_54">
     <g id="line2d_147">
      <path d="M 57.6 64.890464 
L 414.72 64.890464 
" clip-path="url(#pb2847e6f6c)" style="fill: none; stroke-dasharray: 0.8,1.32; stroke-dashoffset: 0; stroke: #b0b0b0; stroke-width: 0.8"/>
     </g>
     <g id="line2d_148">
      <g>
       <use xlink:href="#m1a36591b26" x="57.6" y="64.890464" style="stroke: #000000; stroke-width: 0.6"/>
      </g>
     </g>
    </g>
    <g id="ytick_55">
     <g id="line2d_149">
      <path d="M 57.6 61.631127 
L 414.72 61.631127 
" clip-path="url(#pb2847e6f6c)" style="fill: none; stroke-dasharray: 0.8,1.32; stroke-dashoffset: 0; stroke: #b0b0b0; stroke-width: 0.8"/>
     </g>
     <g id="line2d_150">
      <g>
       <use xlink:href="#m1a36591b26" x="57.6" y="61.631127" style="stroke: #000000; stroke-width: 0.6"/>
      </g>
     </g>
    </g>
    <g id="ytick_56">
     <g id="line2d_151">
      <path d="M 57.6 58.875397 
L 414.72 58.875397 
" clip-path="url(#pb2847e6f6c)" style="fill: none; stroke-dasharray: 0.8,1.32; stroke-dashoffset: 0; stroke: #b0b0b0; stroke-width: 0.8"/>
     </g>
     <g id="line2d_152">
      <g>
       <use xlink:href="#m1a36591b26" x="57.6" y="58.875397" style="stroke: #000000; stroke-width: 0.6"/>
      </g>
     </g>
    </g>
    <g id="ytick_57">
     <g id="line2d_153">
      <path d="M 57.6 56.488275 
L 414.72 56.488275 
" clip-path="url(#pb2847e6f6c)" style="fill: none; stroke-dasharray: 0.8,1.32; stroke-dashoffset: 0; stroke: #b0b0b0; stroke-width: 0.8"/>
     </g>
     <g id="line2d_154">
      <g>
       <use xlink:href="#m1a36591b26" x="57.6" y="56.488275" style="stroke: #000000; stroke-width: 0.6"/>
      </g>
     </g>
    </g>
    <g id="ytick_58">
     <g id="line2d_155">
      <path d="M 57.6 54.382685 
L 414.72 54.382685 
" clip-path="url(#pb2847e6f6c)" style="fill: none; stroke-dasharray: 0.8,1.32; stroke-dashoffset: 0; stroke: #b0b0b0; stroke-width: 0.8"/>
     </g>
     <g id="line2d_156">
      <g>
       <use xlink:href="#m1a36591b26" x="57.6" y="54.382685" style="stroke: #000000; stroke-width: 0.6"/>
      </g>
     </g>
    </g>
    <g id="text_11">
     <!-- execution time [s] -->
     <g transform="translate(21.020312 219.872531) rotate(-90) scale(0.1 -0.1)">
      <defs>
       <path id="DejaVuSans-78" d="M 3513 3500 
L 2247 1797 
L 3578 0 
L 2900 0 
L 1881 1375 
L 863 0 
L 184 0 
L 1544 1831 
L 300 3500 
L 978 3500 
L 1906 2253 
L 2834 3500 
L 3513 3500 
z
" transform="scale(0.015625)"/>
       <path id="DejaVuSans-63" d="M 3122 3366 
L 3122 2828 
Q 2878 2963 2633 3030 
Q 2388 3097 2138 3097 
Q 1578 3097 1268 2742 
Q 959 2388 959 1747 
Q 959 1106 1268 751 
Q 1578 397 2138 397 
Q 2388 397 2633 464 
Q 2878 531 3122 666 
L 3122 134 
Q 2881 22 2623 -34 
Q 2366 -91 2075 -91 
Q 1284 -91 818 406 
Q 353 903 353 1747 
Q 353 2603 823 3093 
Q 1294 3584 2113 3584 
Q 2378 3584 2631 3529 
Q 2884 3475 3122 3366 
z
" transform="scale(0.015625)"/>
       <path id="DejaVuSans-75" d="M 544 1381 
L 544 3500 
L 1119 3500 
L 1119 1403 
Q 1119 906 1312 657 
Q 1506 409 1894 409 
Q 2359 409 2629 706 
Q 2900 1003 2900 1516 
L 2900 3500 
L 3475 3500 
L 3475 0 
L 2900 0 
L 2900 538 
Q 2691 219 2414 64 
Q 2138 -91 1772 -91 
Q 1169 -91 856 284 
Q 544 659 544 1381 
z
M 1991 3584 
L 1991 3584 
z
" transform="scale(0.015625)"/>
       <path id="DejaVuSans-74" d="M 1172 4494 
L 1172 3500 
L 2356 3500 
L 2356 3053 
L 1172 3053 
L 1172 1153 
Q 1172 725 1289 603 
Q 1406 481 1766 481 
L 2356 481 
L 2356 0 
L 1766 0 
Q 1100 0 847 248 
Q 594 497 594 1153 
L 594 3053 
L 172 3053 
L 172 3500 
L 594 3500 
L 594 4494 
L 1172 4494 
z
" transform="scale(0.015625)"/>
       <path id="DejaVuSans-6f" d="M 1959 3097 
Q 1497 3097 1228 2736 
Q 959 2375 959 1747 
Q 959 1119 1226 758 
Q 1494 397 1959 397 
Q 2419 397 2687 759 
Q 2956 1122 2956 1747 
Q 2956 2369 2687 2733 
Q 2419 3097 1959 3097 
z
M 1959 3584 
Q 2709 3584 3137 3096 
Q 3566 2609 3566 1747 
Q 3566 888 3137 398 
Q 2709 -91 1959 -91 
Q 1206 -91 779 398 
Q 353 888 353 1747 
Q 353 2609 779 3096 
Q 1206 3584 1959 3584 
z
" transform="scale(0.015625)"/>
       <path id="DejaVuSans-6e" d="M 3513 2113 
L 3513 0 
L 2938 0 
L 2938 2094 
Q 2938 2591 2744 2837 
Q 2550 3084 2163 3084 
Q 1697 3084 1428 2787 
Q 1159 2491 1159 1978 
L 1159 0 
L 581 0 
L 581 3500 
L 1159 3500 
L 1159 2956 
Q 1366 3272 1645 3428 
Q 1925 3584 2291 3584 
Q 2894 3584 3203 3211 
Q 3513 2838 3513 2113 
z
" transform="scale(0.015625)"/>
       <path id="DejaVuSans-20" transform="scale(0.015625)"/>
       <path id="DejaVuSans-6d" d="M 3328 2828 
Q 3544 3216 3844 3400 
Q 4144 3584 4550 3584 
Q 5097 3584 5394 3201 
Q 5691 2819 5691 2113 
L 5691 0 
L 5113 0 
L 5113 2094 
Q 5113 2597 4934 2840 
Q 4756 3084 4391 3084 
Q 3944 3084 3684 2787 
Q 3425 2491 3425 1978 
L 3425 0 
L 2847 0 
L 2847 2094 
Q 2847 2600 2669 2842 
Q 2491 3084 2119 3084 
Q 1678 3084 1418 2786 
Q 1159 2488 1159 1978 
L 1159 0 
L 581 0 
L 581 3500 
L 1159 3500 
L 1159 2956 
Q 1356 3278 1631 3431 
Q 1906 3584 2284 3584 
Q 2666 3584 2933 3390 
Q 3200 3197 3328 2828 
z
" transform="scale(0.015625)"/>
       <path id="DejaVuSans-5b" d="M 550 4863 
L 1875 4863 
L 1875 4416 
L 1125 4416 
L 1125 -397 
L 1875 -397 
L 1875 -844 
L 550 -844 
L 550 4863 
z
" transform="scale(0.015625)"/>
       <path id="DejaVuSans-5d" d="M 1947 4863 
L 1947 -844 
L 622 -844 
L 622 -397 
L 1369 -397 
L 1369 4416 
L 622 4416 
L 622 4863 
L 1947 4863 
z
" transform="scale(0.015625)"/>
      </defs>
      <use xlink:href="#DejaVuSans-65"/>
      <use xlink:href="#DejaVuSans-78" x="59.773438"/>
      <use xlink:href="#DejaVuSans-65" x="115.828125"/>
      <use xlink:href="#DejaVuSans-63" x="177.351562"/>
      <use xlink:href="#DejaVuSans-75" x="232.332031"/>
      <use xlink:href="#DejaVuSans-74" x="295.710938"/>
      <use xlink:href="#DejaVuSans-69" x="334.919922"/>
      <use xlink:href="#DejaVuSans-6f" x="362.703125"/>
      <use xlink:href="#DejaVuSans-6e" x="423.884766"/>
      <use xlink:href="#DejaVuSans-20" x="487.263672"/>
      <use xlink:href="#DejaVuSans-74" x="519.050781"/>
      <use xlink:href="#DejaVuSans-69" x="558.259766"/>
      <use xlink:href="#DejaVuSans-6d" x="586.042969"/>
      <use xlink:href="#DejaVuSans-65" x="683.455078"/>
      <use xlink:href="#DejaVuSans-20" x="744.978516"/>
      <use xlink:href="#DejaVuSans-5b" x="776.765625"/>
      <use xlink:href="#DejaVuSans-73" x="815.779297"/>
      <use xlink:href="#DejaVuSans-5d" x="867.878906"/>
     </g>
    </g>
   </g>
   <g id="line2d_157">
    <path d="M 73.832727 180.771994 
L 73.832727 197.998873 
L 73.832727 199.640025 
L 73.832727 199.939424 
L 86.954733 199.796868 
L 86.954733 200.455308 
L 86.954733 199.437985 
L 86.954733 199.238229 
L 98.04923 198.815354 
L 98.04923 198.548988 
L 98.04923 198.490345 
L 107.659721 197.409971 
L 107.659721 197.687851 
L 116.136774 196.812924 
L 116.136774 197.190511 
L 123.719757 195.600892 
L 123.719757 195.613395 
L 130.5794 194.003996 
L 130.5794 194.928267 
L 136.841762 194.210545 
L 136.841762 195.157869 
L 142.602578 193.687682 
L 142.602578 193.168747 
L 147.93626 192.717542 
L 152.901799 192.941788 
L 152.901799 192.685817 
L 157.54675 191.329821 
L 161.910012 190.797904 
L 166.023804 190.060557 
L 169.915118 188.875467 
L 173.606787 188.137824 
L 177.118301 187.756038 
L 180.466429 187.390011 
L 183.665701 186.801155 
L 186.728792 185.607359 
L 189.666823 185.557627 
L 192.489608 184.977251 
L 195.205846 184.508752 
L 200.348874 183.702665 
L 202.788829 183.02378 
L 207.43378 181.675588 
L 209.648471 181.123603 
L 213.883326 180.528981 
L 215.910834 180.528981 
L 219.802148 179.818993 
L 223.493817 178.919003 
L 227.005331 177.941111 
L 230.353459 177.080145 
L 233.552731 175.771185 
L 236.615822 174.888776 
L 240.979083 173.081351 
L 243.74757 172.414805 
L 247.710319 171.215524 
L 250.235904 171.177329 
L 253.865502 166.727397 
L 257.32081 164.073603 
L 260.617804 160.794693 
L 263.770356 160.52633 
L 267.769816 159.436891 
L 270.629998 158.363385 
L 274.274917 156.568444 
L 277.744108 155.584817 
L 281.053738 154.679022 
L 284.217842 148.781843 
L 287.986859 145.725357 
L 290.866113 143.3504 
L 294.310396 144.309654 
L 297.597349 142.593583 
L 301.35325 141.272762 
L 304.340059 139.744999 
L 307.767934 138.986957 
L 311.039942 137.607592 
L 314.678279 136.580543 
L 318.141507 134.802055 
L 321.445709 133.492886 
L 324.604852 132.219404 
L 328.053261 130.156392 
L 331.343972 127.490683 
L 334.874631 126.126757 
L 338.240158 124.610816 
L 341.455312 121.831094 
L 344.866935 118.366457 
L 348.124132 117.043321 
L 351.544601 105.306543 
L 354.80986 100.47411 
L 358.210734 98.476551 
L 361.722248 101.877594 
L 365.070376 99.698957 
L 368.269648 97.158742 
L 371.792624 97.535358 
L 374.932077 97.70726 
L 378.359952 69.380023 
L 381.831604 59.148831 
L 385.143474 57.722423 
L 388.491602 66.568091 
L 391.86451 81.879208 
L 395.086399 67.09974 
L 398.487273 64.479114 
" clip-path="url(#pb2847e6f6c)" style="fill: none; stroke: #1f77b4; stroke-width: 1.5; stroke-linecap: square"/>
   </g>
   <g id="line2d_158">
    <path d="M 73.832727 189.752279 
L 73.832727 210.389965 
L 73.832727 212.031124 
L 73.832727 211.969031 
L 86.954733 212.314833 
L 86.954733 212.79727 
L 86.954733 212.570283 
L 86.954733 212.505836 
L 98.04923 212.505863 
L 98.04923 212.797297 
L 98.04923 212.570793 
L 107.659721 209.365399 
L 107.659721 209.392009 
L 116.136774 209.124175 
L 116.136774 211.906247 
L 123.719757 211.26637 
L 123.719757 211.446917 
L 130.5794 210.504631 
L 130.5794 210.911071 
L 136.841762 210.079975 
L 136.841762 210.678069 
L 142.602578 210.079578 
L 142.602578 210.219734 
L 147.93626 210.332907 
L 152.901799 210.304434 
L 152.901799 209.828959 
L 157.54675 208.913556 
L 161.910012 208.575846 
L 166.023804 208.550037 
L 169.915118 207.943171 
L 173.606787 207.573547 
L 177.118301 207.092554 
L 180.466429 206.786942 
L 183.665701 206.327034 
L 186.728792 205.790056 
L 189.666823 205.701906 
L 192.489608 205.354487 
L 195.205846 205.01369 
L 200.348874 204.391496 
L 202.788829 196.653547 
L 207.43378 195.940748 
L 209.648471 195.414977 
L 213.883326 201.020356 
L 215.910834 200.570223 
L 219.802148 199.345558 
L 223.493817 198.726058 
L 227.005331 197.927572 
L 230.353459 198.098969 
L 233.552731 197.136367 
L 236.615822 195.789138 
L 240.979083 194.677849 
L 243.74757 193.845059 
L 247.710319 193.676287 
L 250.235904 167.911081 
L 253.865502 161.070766 
L 257.32081 159.764692 
L 260.617804 168.45159 
L 263.770356 173.234097 
L 267.769816 171.716395 
L 270.629998 170.669443 
L 274.274917 171.308116 
L 277.744108 170.644723 
L 281.053738 169.753732 
L 284.217842 168.66857 
L 287.986859 167.057676 
L 290.866113 166.22144 
L 294.310396 164.91819 
L 297.597349 164.005372 
L 301.35325 162.98548 
L 304.340059 161.123278 
L 307.767934 159.139285 
L 311.039942 157.336048 
L 314.678279 156.592328 
L 318.141507 155.239924 
L 321.445709 154.094828 
L 324.604852 152.536988 
L 328.053261 122.434676 
L 331.343972 121.936426 
L 334.874631 121.627254 
L 338.240158 145.478954 
L 341.455312 144.262302 
L 344.866935 141.490151 
L 348.124132 136.782768 
L 351.544601 133.994701 
L 354.80986 129.863297 
L 358.210734 128.299503 
L 361.722248 126.364204 
L 365.070376 127.29079 
L 368.269648 125.71554 
L 371.792624 123.574619 
L 374.932077 111.669741 
L 378.359952 111.286757 
L 381.831604 110.927983 
L 385.143474 107.514779 
L 388.491602 99.615327 
L 391.86451 93.183318 
L 395.086399 97.430591 
L 398.487273 97.805429 
" clip-path="url(#pb2847e6f6c)" style="fill: none; stroke: #ff7f0e; stroke-width: 1.5; stroke-linecap: square"/>
   </g>
   <g id="line2d_159">
    <path d="M 73.832727 295.488 
L 73.832727 295.488 
L 73.832727 295.488 
L 73.832727 295.488 
L 86.954733 285.70999 
L 86.954733 285.70999 
L 86.954733 285.70999 
L 86.954733 285.70999 
L 98.04923 277.4428 
L 98.04923 277.4428 
L 98.04923 277.4428 
L 107.659721 270.281434 
L 107.659721 270.281434 
L 116.136774 263.964662 
L 116.136774 263.964662 
L 123.719757 258.314116 
L 123.719757 258.314116 
L 130.5794 253.202576 
L 130.5794 253.202576 
L 136.841762 248.536106 
L 136.841762 248.536106 
L 142.602578 244.243369 
L 142.602578 244.243369 
L 147.93626 240.268916 
L 152.901799 236.568789 
L 152.901799 236.568789 
L 157.54675 233.10755 
L 161.910012 229.856217 
L 166.023804 226.790778 
L 169.915118 223.891122 
L 173.606787 221.140233 
L 177.118301 218.523588 
L 180.466429 216.028693 
L 183.665701 213.644719 
L 186.728792 211.362223 
L 189.666823 209.172915 
L 192.489608 207.069486 
L 195.205846 205.04545 
L 200.348874 201.213065 
L 202.788829 199.394905 
L 207.43378 195.933667 
L 209.648471 194.283365 
L 213.883326 191.127715 
L 215.910834 189.616895 
L 219.802148 186.717238 
L 223.493817 183.966349 
L 227.005331 181.349705 
L 230.353459 178.854809 
L 233.552731 176.470836 
L 236.615822 174.188339 
L 240.979083 170.937006 
L 243.74757 168.874037 
L 247.710319 165.921149 
L 250.235904 164.039181 
L 253.865502 161.334546 
L 257.32081 158.759783 
L 260.617804 156.302992 
L 263.770356 153.953832 
L 267.769816 150.973588 
L 270.629998 148.842292 
L 274.274917 146.126239 
L 277.744108 143.541132 
L 281.053738 141.074924 
L 284.217842 138.717157 
L 287.986859 135.908631 
L 290.866113 133.763122 
L 294.310396 131.196576 
L 297.597349 128.747266 
L 301.35325 125.948513 
L 304.340059 123.722859 
L 307.767934 121.168539 
L 311.039942 118.730366 
L 314.678279 116.019218 
L 318.141507 113.438555 
L 321.445709 110.976391 
L 324.604852 108.62232 
L 328.053261 106.052699 
L 331.343972 103.600588 
L 334.874631 100.969678 
L 338.240158 98.461818 
L 341.455312 96.066009 
L 344.866935 93.5238 
L 348.124132 91.096663 
L 351.544601 88.547862 
L 354.80986 86.114717 
L 358.210734 83.580518 
L 361.722248 80.963873 
L 365.070376 78.468978 
L 368.269648 76.085004 
L 371.792624 73.459819 
L 374.932077 71.12042 
L 378.359952 68.5661 
L 381.831604 65.979159 
L 385.143474 63.511282 
L 388.491602 61.016387 
L 391.86451 58.503027 
L 395.086399 56.102199 
L 398.487273 53.568 
" clip-path="url(#pb2847e6f6c)" style="fill: none; stroke-dasharray: 5.55,2.4; stroke-dashoffset: 0; stroke: #2ca02c; stroke-width: 1.5"/>
   </g>
   <g id="patch_3">
    <path d="M 57.6 307.584 
L 57.6 41.472 
" style="fill: none; stroke: #000000; stroke-width: 0.8; stroke-linejoin: miter; stroke-linecap: square"/>
   </g>
   <g id="patch_4">
    <path d="M 414.72 307.584 
L 414.72 41.472 
" style="fill: none; stroke: #000000; stroke-width: 0.8; stroke-linejoin: miter; stroke-linecap: square"/>
   </g>
   <g id="patch_5">
    <path d="M 57.6 307.584 
L 414.72 307.584 
" style="fill: none; stroke: #000000; stroke-width: 0.8; stroke-linejoin: miter; stroke-linecap: square"/>
   </g>
   <g id="patch_6">
    <path d="M 57.6 41.472 
L 414.72 41.472 
" style="fill: none; stroke: #000000; stroke-width: 0.8; stroke-linejoin: miter; stroke-linecap: square"/>
   </g>
   <g id="text_12">
    <!-- Complexity comparison of LU vs Cholesky factorization -->
    <g transform="translate(71.38125 35.472) scale(0.12 -0.12)">
     <defs>
      <path id="DejaVuSans-43" d="M 4122 4306 
L 4122 3641 
Q 3803 3938 3442 4084 
Q 3081 4231 2675 4231 
Q 1875 4231 1450 3742 
Q 1025 3253 1025 2328 
Q 1025 1406 1450 917 
Q 1875 428 2675 428 
Q 3081 428 3442 575 
Q 3803 722 4122 1019 
L 4122 359 
Q 3791 134 3420 21 
Q 3050 -91 2638 -91 
Q 1578 -91 968 557 
Q 359 1206 359 2328 
Q 359 3453 968 4101 
Q 1578 4750 2638 4750 
Q 3056 4750 3426 4639 
Q 3797 4528 4122 4306 
z
" transform="scale(0.015625)"/>
      <path id="DejaVuSans-70" d="M 1159 525 
L 1159 -1331 
L 581 -1331 
L 581 3500 
L 1159 3500 
L 1159 2969 
Q 1341 3281 1617 3432 
Q 1894 3584 2278 3584 
Q 2916 3584 3314 3078 
Q 3713 2572 3713 1747 
Q 3713 922 3314 415 
Q 2916 -91 2278 -91 
Q 1894 -91 1617 61 
Q 1341 213 1159 525 
z
M 3116 1747 
Q 3116 2381 2855 2742 
Q 2594 3103 2138 3103 
Q 1681 3103 1420 2742 
Q 1159 2381 1159 1747 
Q 1159 1113 1420 752 
Q 1681 391 2138 391 
Q 2594 391 2855 752 
Q 3116 1113 3116 1747 
z
" transform="scale(0.015625)"/>
      <path id="DejaVuSans-6c" d="M 603 4863 
L 1178 4863 
L 1178 0 
L 603 0 
L 603 4863 
z
" transform="scale(0.015625)"/>
      <path id="DejaVuSans-79" d="M 2059 -325 
Q 1816 -950 1584 -1140 
Q 1353 -1331 966 -1331 
L 506 -1331 
L 506 -850 
L 844 -850 
Q 1081 -850 1212 -737 
Q 1344 -625 1503 -206 
L 1606 56 
L 191 3500 
L 800 3500 
L 1894 763 
L 2988 3500 
L 3597 3500 
L 2059 -325 
z
" transform="scale(0.015625)"/>
      <path id="DejaVuSans-61" d="M 2194 1759 
Q 1497 1759 1228 1600 
Q 959 1441 959 1056 
Q 959 750 1161 570 
Q 1363 391 1709 391 
Q 2188 391 2477 730 
Q 2766 1069 2766 1631 
L 2766 1759 
L 2194 1759 
z
M 3341 1997 
L 3341 0 
L 2766 0 
L 2766 531 
Q 2569 213 2275 61 
Q 1981 -91 1556 -91 
Q 1019 -91 701 211 
Q 384 513 384 1019 
Q 384 1609 779 1909 
Q 1175 2209 1959 2209 
L 2766 2209 
L 2766 2266 
Q 2766 2663 2505 2880 
Q 2244 3097 1772 3097 
Q 1472 3097 1187 3025 
Q 903 2953 641 2809 
L 641 3341 
Q 956 3463 1253 3523 
Q 1550 3584 1831 3584 
Q 2591 3584 2966 3190 
Q 3341 2797 3341 1997 
z
" transform="scale(0.015625)"/>
      <path id="DejaVuSans-72" d="M 2631 2963 
Q 2534 3019 2420 3045 
Q 2306 3072 2169 3072 
Q 1681 3072 1420 2755 
Q 1159 2438 1159 1844 
L 1159 0 
L 581 0 
L 581 3500 
L 1159 3500 
L 1159 2956 
Q 1341 3275 1631 3429 
Q 1922 3584 2338 3584 
Q 2397 3584 2469 3576 
Q 2541 3569 2628 3553 
L 2631 2963 
z
" transform="scale(0.015625)"/>
      <path id="DejaVuSans-66" d="M 2375 4863 
L 2375 4384 
L 1825 4384 
Q 1516 4384 1395 4259 
Q 1275 4134 1275 3809 
L 1275 3500 
L 2222 3500 
L 2222 3053 
L 1275 3053 
L 1275 0 
L 697 0 
L 697 3053 
L 147 3053 
L 147 3500 
L 697 3500 
L 697 3744 
Q 697 4328 969 4595 
Q 1241 4863 1831 4863 
L 2375 4863 
z
" transform="scale(0.015625)"/>
      <path id="DejaVuSans-4c" d="M 628 4666 
L 1259 4666 
L 1259 531 
L 3531 531 
L 3531 0 
L 628 0 
L 628 4666 
z
" transform="scale(0.015625)"/>
      <path id="DejaVuSans-55" d="M 556 4666 
L 1191 4666 
L 1191 1831 
Q 1191 1081 1462 751 
Q 1734 422 2344 422 
Q 2950 422 3222 751 
Q 3494 1081 3494 1831 
L 3494 4666 
L 4128 4666 
L 4128 1753 
Q 4128 841 3676 375 
Q 3225 -91 2344 -91 
Q 1459 -91 1007 375 
Q 556 841 556 1753 
L 556 4666 
z
" transform="scale(0.015625)"/>
      <path id="DejaVuSans-76" d="M 191 3500 
L 800 3500 
L 1894 563 
L 2988 3500 
L 3597 3500 
L 2284 0 
L 1503 0 
L 191 3500 
z
" transform="scale(0.015625)"/>
      <path id="DejaVuSans-68" d="M 3513 2113 
L 3513 0 
L 2938 0 
L 2938 2094 
Q 2938 2591 2744 2837 
Q 2550 3084 2163 3084 
Q 1697 3084 1428 2787 
Q 1159 2491 1159 1978 
L 1159 0 
L 581 0 
L 581 4863 
L 1159 4863 
L 1159 2956 
Q 1366 3272 1645 3428 
Q 1925 3584 2291 3584 
Q 2894 3584 3203 3211 
Q 3513 2838 3513 2113 
z
" transform="scale(0.015625)"/>
      <path id="DejaVuSans-6b" d="M 581 4863 
L 1159 4863 
L 1159 1991 
L 2875 3500 
L 3609 3500 
L 1753 1863 
L 3688 0 
L 2938 0 
L 1159 1709 
L 1159 0 
L 581 0 
L 581 4863 
z
" transform="scale(0.015625)"/>
     </defs>
     <use xlink:href="#DejaVuSans-43"/>
     <use xlink:href="#DejaVuSans-6f" x="69.824219"/>
     <use xlink:href="#DejaVuSans-6d" x="131.005859"/>
     <use xlink:href="#DejaVuSans-70" x="228.417969"/>
     <use xlink:href="#DejaVuSans-6c" x="291.894531"/>
     <use xlink:href="#DejaVuSans-65" x="319.677734"/>
     <use xlink:href="#DejaVuSans-78" x="379.451172"/>
     <use xlink:href="#DejaVuSans-69" x="438.630859"/>
     <use xlink:href="#DejaVuSans-74" x="466.414062"/>
     <use xlink:href="#DejaVuSans-79" x="505.623047"/>
     <use xlink:href="#DejaVuSans-20" x="564.802734"/>
     <use xlink:href="#DejaVuSans-63" x="596.589844"/>
     <use xlink:href="#DejaVuSans-6f" x="651.570312"/>
     <use xlink:href="#DejaVuSans-6d" x="712.751953"/>
     <use xlink:href="#DejaVuSans-70" x="810.164062"/>
     <use xlink:href="#DejaVuSans-61" x="873.640625"/>
     <use xlink:href="#DejaVuSans-72" x="934.919922"/>
     <use xlink:href="#DejaVuSans-69" x="976.033203"/>
     <use xlink:href="#DejaVuSans-73" x="1003.816406"/>
     <use xlink:href="#DejaVuSans-6f" x="1055.916016"/>
     <use xlink:href="#DejaVuSans-6e" x="1117.097656"/>
     <use xlink:href="#DejaVuSans-20" x="1180.476562"/>
     <use xlink:href="#DejaVuSans-6f" x="1212.263672"/>
     <use xlink:href="#DejaVuSans-66" x="1273.445312"/>
     <use xlink:href="#DejaVuSans-20" x="1308.650391"/>
     <use xlink:href="#DejaVuSans-4c" x="1340.4375"/>
     <use xlink:href="#DejaVuSans-55" x="1391.150391"/>
     <use xlink:href="#DejaVuSans-20" x="1464.34375"/>
     <use xlink:href="#DejaVuSans-76" x="1496.130859"/>
     <use xlink:href="#DejaVuSans-73" x="1555.310547"/>
     <use xlink:href="#DejaVuSans-20" x="1607.410156"/>
     <use xlink:href="#DejaVuSans-43" x="1639.197266"/>
     <use xlink:href="#DejaVuSans-68" x="1709.021484"/>
     <use xlink:href="#DejaVuSans-6f" x="1772.400391"/>
     <use xlink:href="#DejaVuSans-6c" x="1833.582031"/>
     <use xlink:href="#DejaVuSans-65" x="1861.365234"/>
     <use xlink:href="#DejaVuSans-73" x="1922.888672"/>
     <use xlink:href="#DejaVuSans-6b" x="1974.988281"/>
     <use xlink:href="#DejaVuSans-79" x="2029.273438"/>
     <use xlink:href="#DejaVuSans-20" x="2088.453125"/>
     <use xlink:href="#DejaVuSans-66" x="2120.240234"/>
     <use xlink:href="#DejaVuSans-61" x="2155.445312"/>
     <use xlink:href="#DejaVuSans-63" x="2216.724609"/>
     <use xlink:href="#DejaVuSans-74" x="2271.705078"/>
     <use xlink:href="#DejaVuSans-6f" x="2310.914062"/>
     <use xlink:href="#DejaVuSans-72" x="2372.095703"/>
     <use xlink:href="#DejaVuSans-69" x="2413.208984"/>
     <use xlink:href="#DejaVuSans-7a" x="2440.992188"/>
     <use xlink:href="#DejaVuSans-61" x="2493.482422"/>
     <use xlink:href="#DejaVuSans-74" x="2554.761719"/>
     <use xlink:href="#DejaVuSans-69" x="2593.970703"/>
     <use xlink:href="#DejaVuSans-6f" x="2621.753906"/>
     <use xlink:href="#DejaVuSans-6e" x="2682.935547"/>
    </g>
   </g>
   <g id="legend_1">
    <g id="patch_7">
     <path d="M 64.6 94.32825 
L 142.8 94.32825 
Q 144.8 94.32825 144.8 92.32825 
L 144.8 48.472 
Q 144.8 46.472 142.8 46.472 
L 64.6 46.472 
Q 62.6 46.472 62.6 48.472 
L 62.6 92.32825 
Q 62.6 94.32825 64.6 94.32825 
z
" style="fill: #ffffff; opacity: 0.8; stroke: #cccccc; stroke-linejoin: miter"/>
    </g>
    <g id="line2d_160">
     <path d="M 66.6 54.570437 
L 76.6 54.570437 
L 86.6 54.570437 
" style="fill: none; stroke: #1f77b4; stroke-width: 1.5; stroke-linecap: square"/>
    </g>
    <g id="text_13">
     <!-- LU -->
     <g transform="translate(94.6 58.070437) scale(0.1 -0.1)">
      <use xlink:href="#DejaVuSans-4c"/>
      <use xlink:href="#DejaVuSans-55" x="50.712891"/>
     </g>
    </g>
    <g id="line2d_161">
     <path d="M 66.6 69.248562 
L 76.6 69.248562 
L 86.6 69.248562 
" style="fill: none; stroke: #ff7f0e; stroke-width: 1.5; stroke-linecap: square"/>
    </g>
    <g id="text_14">
     <!-- Cholesky -->
     <g transform="translate(94.6 72.748562) scale(0.1 -0.1)">
      <use xlink:href="#DejaVuSans-43"/>
      <use xlink:href="#DejaVuSans-68" x="69.824219"/>
      <use xlink:href="#DejaVuSans-6f" x="133.203125"/>
      <use xlink:href="#DejaVuSans-6c" x="194.384766"/>
      <use xlink:href="#DejaVuSans-65" x="222.167969"/>
      <use xlink:href="#DejaVuSans-73" x="283.691406"/>
      <use xlink:href="#DejaVuSans-6b" x="335.791016"/>
      <use xlink:href="#DejaVuSans-79" x="390.076172"/>
     </g>
    </g>
    <g id="line2d_162">
     <path d="M 66.6 84.748562 
L 76.6 84.748562 
L 86.6 84.748562 
" style="fill: none; stroke-dasharray: 5.55,2.4; stroke-dashoffset: 0; stroke: #2ca02c; stroke-width: 1.5"/>
    </g>
    <g id="text_15">
     <!-- $\mathcal{O}(2m^3/3)$ -->
     <g transform="translate(94.6 88.248562) scale(0.1 -0.1)">
      <defs>
       <path id="STIXNonUnicode-Italic-e23b" d="M 2304 4237 
L 2342 4090 
Q 1773 3923 1350 3158 
Q 928 2394 928 1472 
Q 928 838 1216 515 
Q 1504 192 1984 192 
Q 2349 192 2739 435 
Q 3130 678 3430 1101 
Q 3968 1862 3968 2944 
Q 3968 3398 3744 3660 
Q 3520 3923 3219 3923 
Q 2918 3923 2691 3728 
Q 2464 3533 2464 3232 
Q 2464 2995 2694 2995 
Q 2714 2995 2784 3011 
Q 2854 3027 2918 3027 
Q 3104 3027 3104 2816 
Q 3104 2637 2944 2496 
Q 2784 2355 2592 2355 
Q 2323 2355 2179 2534 
Q 2035 2714 2035 2995 
Q 2035 3475 2505 3878 
Q 2976 4282 3571 4282 
Q 4096 4282 4381 3882 
Q 4666 3482 4666 2938 
Q 4666 2400 4422 1837 
Q 4179 1274 3808 877 
Q 2931 -64 1754 -64 
Q 1101 -64 672 304 
Q 243 672 243 1363 
Q 243 1933 435 2457 
Q 627 2982 931 3347 
Q 1235 3712 1596 3949 
Q 1958 4186 2304 4237 
z
" transform="scale(0.015625)"/>
       <path id="DejaVuSans-28" d="M 1984 4856 
Q 1566 4138 1362 3434 
Q 1159 2731 1159 2009 
Q 1159 1288 1364 580 
Q 1569 -128 1984 -844 
L 1484 -844 
Q 1016 -109 783 600 
Q 550 1309 550 2009 
Q 550 2706 781 3412 
Q 1013 4119 1484 4856 
L 1984 4856 
z
" transform="scale(0.015625)"/>
       <path id="DejaVuSans-Oblique-6d" d="M 5747 2113 
L 5338 0 
L 4763 0 
L 5166 2094 
Q 5191 2228 5203 2325 
Q 5216 2422 5216 2491 
Q 5216 2772 5059 2928 
Q 4903 3084 4622 3084 
Q 4203 3084 3875 2770 
Q 3547 2456 3450 1953 
L 3066 0 
L 2491 0 
L 2900 2094 
Q 2925 2209 2937 2307 
Q 2950 2406 2950 2484 
Q 2950 2769 2794 2926 
Q 2638 3084 2363 3084 
Q 1938 3084 1609 2770 
Q 1281 2456 1184 1953 
L 800 0 
L 225 0 
L 909 3500 
L 1484 3500 
L 1375 2956 
Q 1609 3263 1923 3423 
Q 2238 3584 2597 3584 
Q 2978 3584 3223 3384 
Q 3469 3184 3519 2828 
Q 3781 3197 4126 3390 
Q 4472 3584 4856 3584 
Q 5306 3584 5551 3325 
Q 5797 3066 5797 2591 
Q 5797 2488 5784 2364 
Q 5772 2241 5747 2113 
z
" transform="scale(0.015625)"/>
       <path id="DejaVuSans-2f" d="M 1625 4666 
L 2156 4666 
L 531 -594 
L 0 -594 
L 1625 4666 
z
" transform="scale(0.015625)"/>
       <path id="DejaVuSans-29" d="M 513 4856 
L 1013 4856 
Q 1481 4119 1714 3412 
Q 1947 2706 1947 2009 
Q 1947 1309 1714 600 
Q 1481 -109 1013 -844 
L 513 -844 
Q 928 -128 1133 580 
Q 1338 1288 1338 2009 
Q 1338 2731 1133 3434 
Q 928 4138 513 4856 
z
" transform="scale(0.015625)"/>
      </defs>
      <use xlink:href="#STIXNonUnicode-Italic-e23b" transform="translate(0 0.765625)"/>
      <use xlink:href="#DejaVuSans-28" transform="translate(73.699982 0.765625)"/>
      <use xlink:href="#DejaVuSans-32" transform="translate(112.713654 0.765625)"/>
      <use xlink:href="#DejaVuSans-Oblique-6d" transform="translate(176.3367 0.765625)"/>
      <use xlink:href="#DejaVuSans-33" transform="translate(278.398706 39.046875) scale(0.7)"/>
      <use xlink:href="#DejaVuSans-2f" transform="translate(325.669213 0.765625)"/>
      <use xlink:href="#DejaVuSans-33" transform="translate(359.36062 0.765625)"/>
      <use xlink:href="#DejaVuSans-29" transform="translate(422.983667 0.765625)"/>
     </g>
    </g>
   </g>
  </g>
 </g>
 <defs>
  <clipPath id="pb2847e6f6c">
   <rect x="57.6" y="41.472" width="357.12" height="266.112"/>
  </clipPath>
 </defs>
</svg>
