<?xml version="1.0" encoding="utf-8" standalone="no"?>
<!DOCTYPE svg PUBLIC "-//W3C//DTD SVG 1.1//EN"
  "http://www.w3.org/Graphics/SVG/1.1/DTD/svg11.dtd">
<svg xmlns:xlink="http://www.w3.org/1999/xlink" width="460.8pt" height="345.6pt" viewBox="0 0 460.8 345.6" xmlns="http://www.w3.org/2000/svg" version="1.1">
 <metadata>
  <rdf:RDF xmlns:dc="http://purl.org/dc/elements/1.1/" xmlns:cc="http://creativecommons.org/ns#" xmlns:rdf="http://www.w3.org/1999/02/22-rdf-syntax-ns#">
   <cc:Work>
    <dc:type rdf:resource="http://purl.org/dc/dcmitype/StillImage"/>
    <dc:date>2024-03-11T10:46:04.076463</dc:date>
    <dc:format>image/svg+xml</dc:format>
    <dc:creator>
     <cc:Agent>
      <dc:title>Matplotlib v3.8.0, https://matplotlib.org/</dc:title>
     </cc:Agent>
    </dc:creator>
   </cc:Work>
  </rdf:RDF>
 </metadata>
 <defs>
  <style type="text/css">*{stroke-linejoin: round; stroke-linecap: butt}</style>
 </defs>
 <g id="figure_1">
  <g id="patch_1">
   <path d="M 0 345.6 
L 460.8 345.6 
L 460.8 0 
L 0 0 
z
" style="fill: #ffffff"/>
  </g>
  <g id="axes_1">
   <g id="patch_2">
    <path d="M 57.6 307.584 
L 414.72 307.584 
L 414.72 41.472 
L 57.6 41.472 
z
" style="fill: #ffffff"/>
   </g>
   <g id="matplotlib.axis_1">
    <g id="xtick_1">
     <g id="line2d_1">
      <path d="M 104.049562 307.584 
L 104.049562 41.472 
" clip-path="url(#pbaf2ac5d52)" style="fill: none; stroke: #b0b0b0; stroke-width: 0.8; stroke-linecap: square"/>
     </g>
     <g id="line2d_2">
      <defs>
       <path id="mf8f6ebe98f" d="M 0 0 
L 0 3.5 
" style="stroke: #000000; stroke-width: 0.8"/>
      </defs>
      <g>
       <use xlink:href="#mf8f6ebe98f" x="104.049562" y="307.584" style="stroke: #000000; stroke-width: 0.8"/>
      </g>
     </g>
     <g id="text_1">
      <!-- $\mathdefault{10^{1}}$ -->
      <g transform="translate(95.249562 322.182437) scale(0.1 -0.1)">
       <defs>
        <path id="DejaVuSans-31" d="M 794 531 
L 1825 531 
L 1825 4091 
L 703 3866 
L 703 4441 
L 1819 4666 
L 2450 4666 
L 2450 531 
L 3481 531 
L 3481 0 
L 794 0 
L 794 531 
z
" transform="scale(0.015625)"/>
        <path id="DejaVuSans-30" d="M 2034 4250 
Q 1547 4250 1301 3770 
Q 1056 3291 1056 2328 
Q 1056 1369 1301 889 
Q 1547 409 2034 409 
Q 2525 409 2770 889 
Q 3016 1369 3016 2328 
Q 3016 3291 2770 3770 
Q 2525 4250 2034 4250 
z
M 2034 4750 
Q 2819 4750 3233 4129 
Q 3647 3509 3647 2328 
Q 3647 1150 3233 529 
Q 2819 -91 2034 -91 
Q 1250 -91 836 529 
Q 422 1150 422 2328 
Q 422 3509 836 4129 
Q 1250 4750 2034 4750 
z
" transform="scale(0.015625)"/>
       </defs>
       <use xlink:href="#DejaVuSans-31" transform="translate(0 0.684375)"/>
       <use xlink:href="#DejaVuSans-30" transform="translate(63.623047 0.684375)"/>
       <use xlink:href="#DejaVuSans-31" transform="translate(128.203125 38.965625) scale(0.7)"/>
      </g>
     </g>
    </g>
    <g id="xtick_2">
     <g id="line2d_3">
      <path d="M 204.427716 307.584 
L 204.427716 41.472 
" clip-path="url(#pbaf2ac5d52)" style="fill: none; stroke: #b0b0b0; stroke-width: 0.8; stroke-linecap: square"/>
     </g>
     <g id="line2d_4">
      <g>
       <use xlink:href="#mf8f6ebe98f" x="204.427716" y="307.584" style="stroke: #000000; stroke-width: 0.8"/>
      </g>
     </g>
     <g id="text_2">
      <!-- $\mathdefault{10^{2}}$ -->
      <g transform="translate(195.627716 322.182437) scale(0.1 -0.1)">
       <defs>
        <path id="DejaVuSans-32" d="M 1228 531 
L 3431 531 
L 3431 0 
L 469 0 
L 469 531 
Q 828 903 1448 1529 
Q 2069 2156 2228 2338 
Q 2531 2678 2651 2914 
Q 2772 3150 2772 3378 
Q 2772 3750 2511 3984 
Q 2250 4219 1831 4219 
Q 1534 4219 1204 4116 
Q 875 4013 500 3803 
L 500 4441 
Q 881 4594 1212 4672 
Q 1544 4750 1819 4750 
Q 2544 4750 2975 4387 
Q 3406 4025 3406 3419 
Q 3406 3131 3298 2873 
Q 3191 2616 2906 2266 
Q 2828 2175 2409 1742 
Q 1991 1309 1228 531 
z
" transform="scale(0.015625)"/>
       </defs>
       <use xlink:href="#DejaVuSans-31" transform="translate(0 0.765625)"/>
       <use xlink:href="#DejaVuSans-30" transform="translate(63.623047 0.765625)"/>
       <use xlink:href="#DejaVuSans-32" transform="translate(128.203125 39.046875) scale(0.7)"/>
      </g>
     </g>
    </g>
    <g id="xtick_3">
     <g id="line2d_5">
      <path d="M 304.80587 307.584 
L 304.80587 41.472 
" clip-path="url(#pbaf2ac5d52)" style="fill: none; stroke: #b0b0b0; stroke-width: 0.8; stroke-linecap: square"/>
     </g>
     <g id="line2d_6">
      <g>
       <use xlink:href="#mf8f6ebe98f" x="304.80587" y="307.584" style="stroke: #000000; stroke-width: 0.8"/>
      </g>
     </g>
     <g id="text_3">
      <!-- $\mathdefault{10^{3}}$ -->
      <g transform="translate(296.00587 322.182437) scale(0.1 -0.1)">
       <defs>
        <path id="DejaVuSans-33" d="M 2597 2516 
Q 3050 2419 3304 2112 
Q 3559 1806 3559 1356 
Q 3559 666 3084 287 
Q 2609 -91 1734 -91 
Q 1441 -91 1130 -33 
Q 819 25 488 141 
L 488 750 
Q 750 597 1062 519 
Q 1375 441 1716 441 
Q 2309 441 2620 675 
Q 2931 909 2931 1356 
Q 2931 1769 2642 2001 
Q 2353 2234 1838 2234 
L 1294 2234 
L 1294 2753 
L 1863 2753 
Q 2328 2753 2575 2939 
Q 2822 3125 2822 3475 
Q 2822 3834 2567 4026 
Q 2313 4219 1838 4219 
Q 1578 4219 1281 4162 
Q 984 4106 628 3988 
L 628 4550 
Q 988 4650 1302 4700 
Q 1616 4750 1894 4750 
Q 2613 4750 3031 4423 
Q 3450 4097 3450 3541 
Q 3450 3153 3228 2886 
Q 3006 2619 2597 2516 
z
" transform="scale(0.015625)"/>
       </defs>
       <use xlink:href="#DejaVuSans-31" transform="translate(0 0.765625)"/>
       <use xlink:href="#DejaVuSans-30" transform="translate(63.623047 0.765625)"/>
       <use xlink:href="#DejaVuSans-33" transform="translate(128.203125 39.046875) scale(0.7)"/>
      </g>
     </g>
    </g>
    <g id="xtick_4">
     <g id="line2d_7">
      <path d="M 405.184024 307.584 
L 405.184024 41.472 
" clip-path="url(#pbaf2ac5d52)" style="fill: none; stroke: #b0b0b0; stroke-width: 0.8; stroke-linecap: square"/>
     </g>
     <g id="line2d_8">
      <g>
       <use xlink:href="#mf8f6ebe98f" x="405.184024" y="307.584" style="stroke: #000000; stroke-width: 0.8"/>
      </g>
     </g>
     <g id="text_4">
      <!-- $\mathdefault{10^{4}}$ -->
      <g transform="translate(396.384024 322.182437) scale(0.1 -0.1)">
       <defs>
        <path id="DejaVuSans-34" d="M 2419 4116 
L 825 1625 
L 2419 1625 
L 2419 4116 
z
M 2253 4666 
L 3047 4666 
L 3047 1625 
L 3713 1625 
L 3713 1100 
L 3047 1100 
L 3047 0 
L 2419 0 
L 2419 1100 
L 313 1100 
L 313 1709 
L 2253 4666 
z
" transform="scale(0.015625)"/>
       </defs>
       <use xlink:href="#DejaVuSans-31" transform="translate(0 0.684375)"/>
       <use xlink:href="#DejaVuSans-30" transform="translate(63.623047 0.684375)"/>
       <use xlink:href="#DejaVuSans-34" transform="translate(128.203125 38.965625) scale(0.7)"/>
      </g>
     </g>
    </g>
    <g id="xtick_5">
     <g id="line2d_9">
      <path d="M 64.105079 307.584 
L 64.105079 41.472 
" clip-path="url(#pbaf2ac5d52)" style="fill: none; stroke-dasharray: 0.8,1.32; stroke-dashoffset: 0; stroke: #b0b0b0; stroke-width: 0.8"/>
     </g>
     <g id="line2d_10">
      <defs>
       <path id="m37966b1cd7" d="M 0 0 
L 0 2 
" style="stroke: #000000; stroke-width: 0.6"/>
      </defs>
      <g>
       <use xlink:href="#m37966b1cd7" x="64.105079" y="307.584" style="stroke: #000000; stroke-width: 0.6"/>
      </g>
     </g>
    </g>
    <g id="xtick_6">
     <g id="line2d_11">
      <path d="M 73.832727 307.584 
L 73.832727 41.472 
" clip-path="url(#pbaf2ac5d52)" style="fill: none; stroke-dasharray: 0.8,1.32; stroke-dashoffset: 0; stroke: #b0b0b0; stroke-width: 0.8"/>
     </g>
     <g id="line2d_12">
      <g>
       <use xlink:href="#m37966b1cd7" x="73.832727" y="307.584" style="stroke: #000000; stroke-width: 0.6"/>
      </g>
     </g>
    </g>
    <g id="xtick_7">
     <g id="line2d_13">
      <path d="M 81.780795 307.584 
L 81.780795 41.472 
" clip-path="url(#pbaf2ac5d52)" style="fill: none; stroke-dasharray: 0.8,1.32; stroke-dashoffset: 0; stroke: #b0b0b0; stroke-width: 0.8"/>
     </g>
     <g id="line2d_14">
      <g>
       <use xlink:href="#m37966b1cd7" x="81.780795" y="307.584" style="stroke: #000000; stroke-width: 0.6"/>
      </g>
     </g>
    </g>
    <g id="xtick_8">
     <g id="line2d_15">
      <path d="M 88.50079 307.584 
L 88.50079 41.472 
" clip-path="url(#pbaf2ac5d52)" style="fill: none; stroke-dasharray: 0.8,1.32; stroke-dashoffset: 0; stroke: #b0b0b0; stroke-width: 0.8"/>
     </g>
     <g id="line2d_16">
      <g>
       <use xlink:href="#m37966b1cd7" x="88.50079" y="307.584" style="stroke: #000000; stroke-width: 0.6"/>
      </g>
     </g>
    </g>
    <g id="xtick_9">
     <g id="line2d_17">
      <path d="M 94.321914 307.584 
L 94.321914 41.472 
" clip-path="url(#pbaf2ac5d52)" style="fill: none; stroke-dasharray: 0.8,1.32; stroke-dashoffset: 0; stroke: #b0b0b0; stroke-width: 0.8"/>
     </g>
     <g id="line2d_18">
      <g>
       <use xlink:href="#m37966b1cd7" x="94.321914" y="307.584" style="stroke: #000000; stroke-width: 0.6"/>
      </g>
     </g>
    </g>
    <g id="xtick_10">
     <g id="line2d_19">
      <path d="M 99.45651 307.584 
L 99.45651 41.472 
" clip-path="url(#pbaf2ac5d52)" style="fill: none; stroke-dasharray: 0.8,1.32; stroke-dashoffset: 0; stroke: #b0b0b0; stroke-width: 0.8"/>
     </g>
     <g id="line2d_20">
      <g>
       <use xlink:href="#m37966b1cd7" x="99.45651" y="307.584" style="stroke: #000000; stroke-width: 0.6"/>
      </g>
     </g>
    </g>
    <g id="xtick_11">
     <g id="line2d_21">
      <path d="M 134.266398 307.584 
L 134.266398 41.472 
" clip-path="url(#pbaf2ac5d52)" style="fill: none; stroke-dasharray: 0.8,1.32; stroke-dashoffset: 0; stroke: #b0b0b0; stroke-width: 0.8"/>
     </g>
     <g id="line2d_22">
      <g>
       <use xlink:href="#m37966b1cd7" x="134.266398" y="307.584" style="stroke: #000000; stroke-width: 0.6"/>
      </g>
     </g>
    </g>
    <g id="xtick_12">
     <g id="line2d_23">
      <path d="M 151.942113 307.584 
L 151.942113 41.472 
" clip-path="url(#pbaf2ac5d52)" style="fill: none; stroke-dasharray: 0.8,1.32; stroke-dashoffset: 0; stroke: #b0b0b0; stroke-width: 0.8"/>
     </g>
     <g id="line2d_24">
      <g>
       <use xlink:href="#m37966b1cd7" x="151.942113" y="307.584" style="stroke: #000000; stroke-width: 0.6"/>
      </g>
     </g>
    </g>
    <g id="xtick_13">
     <g id="line2d_25">
      <path d="M 164.483233 307.584 
L 164.483233 41.472 
" clip-path="url(#pbaf2ac5d52)" style="fill: none; stroke-dasharray: 0.8,1.32; stroke-dashoffset: 0; stroke: #b0b0b0; stroke-width: 0.8"/>
     </g>
     <g id="line2d_26">
      <g>
       <use xlink:href="#m37966b1cd7" x="164.483233" y="307.584" style="stroke: #000000; stroke-width: 0.6"/>
      </g>
     </g>
    </g>
    <g id="xtick_14">
     <g id="line2d_27">
      <path d="M 174.210881 307.584 
L 174.210881 41.472 
" clip-path="url(#pbaf2ac5d52)" style="fill: none; stroke-dasharray: 0.8,1.32; stroke-dashoffset: 0; stroke: #b0b0b0; stroke-width: 0.8"/>
     </g>
     <g id="line2d_28">
      <g>
       <use xlink:href="#m37966b1cd7" x="174.210881" y="307.584" style="stroke: #000000; stroke-width: 0.6"/>
      </g>
     </g>
    </g>
    <g id="xtick_15">
     <g id="line2d_29">
      <path d="M 182.158948 307.584 
L 182.158948 41.472 
" clip-path="url(#pbaf2ac5d52)" style="fill: none; stroke-dasharray: 0.8,1.32; stroke-dashoffset: 0; stroke: #b0b0b0; stroke-width: 0.8"/>
     </g>
     <g id="line2d_30">
      <g>
       <use xlink:href="#m37966b1cd7" x="182.158948" y="307.584" style="stroke: #000000; stroke-width: 0.6"/>
      </g>
     </g>
    </g>
    <g id="xtick_16">
     <g id="line2d_31">
      <path d="M 188.878944 307.584 
L 188.878944 41.472 
" clip-path="url(#pbaf2ac5d52)" style="fill: none; stroke-dasharray: 0.8,1.32; stroke-dashoffset: 0; stroke: #b0b0b0; stroke-width: 0.8"/>
     </g>
     <g id="line2d_32">
      <g>
       <use xlink:href="#m37966b1cd7" x="188.878944" y="307.584" style="stroke: #000000; stroke-width: 0.6"/>
      </g>
     </g>
    </g>
    <g id="xtick_17">
     <g id="line2d_33">
      <path d="M 194.700068 307.584 
L 194.700068 41.472 
" clip-path="url(#pbaf2ac5d52)" style="fill: none; stroke-dasharray: 0.8,1.32; stroke-dashoffset: 0; stroke: #b0b0b0; stroke-width: 0.8"/>
     </g>
     <g id="line2d_34">
      <g>
       <use xlink:href="#m37966b1cd7" x="194.700068" y="307.584" style="stroke: #000000; stroke-width: 0.6"/>
      </g>
     </g>
    </g>
    <g id="xtick_18">
     <g id="line2d_35">
      <path d="M 199.834664 307.584 
L 199.834664 41.472 
" clip-path="url(#pbaf2ac5d52)" style="fill: none; stroke-dasharray: 0.8,1.32; stroke-dashoffset: 0; stroke: #b0b0b0; stroke-width: 0.8"/>
     </g>
     <g id="line2d_36">
      <g>
       <use xlink:href="#m37966b1cd7" x="199.834664" y="307.584" style="stroke: #000000; stroke-width: 0.6"/>
      </g>
     </g>
    </g>
    <g id="xtick_19">
     <g id="line2d_37">
      <path d="M 234.644552 307.584 
L 234.644552 41.472 
" clip-path="url(#pbaf2ac5d52)" style="fill: none; stroke-dasharray: 0.8,1.32; stroke-dashoffset: 0; stroke: #b0b0b0; stroke-width: 0.8"/>
     </g>
     <g id="line2d_38">
      <g>
       <use xlink:href="#m37966b1cd7" x="234.644552" y="307.584" style="stroke: #000000; stroke-width: 0.6"/>
      </g>
     </g>
    </g>
    <g id="xtick_20">
     <g id="line2d_39">
      <path d="M 252.320267 307.584 
L 252.320267 41.472 
" clip-path="url(#pbaf2ac5d52)" style="fill: none; stroke-dasharray: 0.8,1.32; stroke-dashoffset: 0; stroke: #b0b0b0; stroke-width: 0.8"/>
     </g>
     <g id="line2d_40">
      <g>
       <use xlink:href="#m37966b1cd7" x="252.320267" y="307.584" style="stroke: #000000; stroke-width: 0.6"/>
      </g>
     </g>
    </g>
    <g id="xtick_21">
     <g id="line2d_41">
      <path d="M 264.861387 307.584 
L 264.861387 41.472 
" clip-path="url(#pbaf2ac5d52)" style="fill: none; stroke-dasharray: 0.8,1.32; stroke-dashoffset: 0; stroke: #b0b0b0; stroke-width: 0.8"/>
     </g>
     <g id="line2d_42">
      <g>
       <use xlink:href="#m37966b1cd7" x="264.861387" y="307.584" style="stroke: #000000; stroke-width: 0.6"/>
      </g>
     </g>
    </g>
    <g id="xtick_22">
     <g id="line2d_43">
      <path d="M 274.589035 307.584 
L 274.589035 41.472 
" clip-path="url(#pbaf2ac5d52)" style="fill: none; stroke-dasharray: 0.8,1.32; stroke-dashoffset: 0; stroke: #b0b0b0; stroke-width: 0.8"/>
     </g>
     <g id="line2d_44">
      <g>
       <use xlink:href="#m37966b1cd7" x="274.589035" y="307.584" style="stroke: #000000; stroke-width: 0.6"/>
      </g>
     </g>
    </g>
    <g id="xtick_23">
     <g id="line2d_45">
      <path d="M 282.537102 307.584 
L 282.537102 41.472 
" clip-path="url(#pbaf2ac5d52)" style="fill: none; stroke-dasharray: 0.8,1.32; stroke-dashoffset: 0; stroke: #b0b0b0; stroke-width: 0.8"/>
     </g>
     <g id="line2d_46">
      <g>
       <use xlink:href="#m37966b1cd7" x="282.537102" y="307.584" style="stroke: #000000; stroke-width: 0.6"/>
      </g>
     </g>
    </g>
    <g id="xtick_24">
     <g id="line2d_47">
      <path d="M 289.257097 307.584 
L 289.257097 41.472 
" clip-path="url(#pbaf2ac5d52)" style="fill: none; stroke-dasharray: 0.8,1.32; stroke-dashoffset: 0; stroke: #b0b0b0; stroke-width: 0.8"/>
     </g>
     <g id="line2d_48">
      <g>
       <use xlink:href="#m37966b1cd7" x="289.257097" y="307.584" style="stroke: #000000; stroke-width: 0.6"/>
      </g>
     </g>
    </g>
    <g id="xtick_25">
     <g id="line2d_49">
      <path d="M 295.078222 307.584 
L 295.078222 41.472 
" clip-path="url(#pbaf2ac5d52)" style="fill: none; stroke-dasharray: 0.8,1.32; stroke-dashoffset: 0; stroke: #b0b0b0; stroke-width: 0.8"/>
     </g>
     <g id="line2d_50">
      <g>
       <use xlink:href="#m37966b1cd7" x="295.078222" y="307.584" style="stroke: #000000; stroke-width: 0.6"/>
      </g>
     </g>
    </g>
    <g id="xtick_26">
     <g id="line2d_51">
      <path d="M 300.212818 307.584 
L 300.212818 41.472 
" clip-path="url(#pbaf2ac5d52)" style="fill: none; stroke-dasharray: 0.8,1.32; stroke-dashoffset: 0; stroke: #b0b0b0; stroke-width: 0.8"/>
     </g>
     <g id="line2d_52">
      <g>
       <use xlink:href="#m37966b1cd7" x="300.212818" y="307.584" style="stroke: #000000; stroke-width: 0.6"/>
      </g>
     </g>
    </g>
    <g id="xtick_27">
     <g id="line2d_53">
      <path d="M 335.022705 307.584 
L 335.022705 41.472 
" clip-path="url(#pbaf2ac5d52)" style="fill: none; stroke-dasharray: 0.8,1.32; stroke-dashoffset: 0; stroke: #b0b0b0; stroke-width: 0.8"/>
     </g>
     <g id="line2d_54">
      <g>
       <use xlink:href="#m37966b1cd7" x="335.022705" y="307.584" style="stroke: #000000; stroke-width: 0.6"/>
      </g>
     </g>
    </g>
    <g id="xtick_28">
     <g id="line2d_55">
      <path d="M 352.698421 307.584 
L 352.698421 41.472 
" clip-path="url(#pbaf2ac5d52)" style="fill: none; stroke-dasharray: 0.8,1.32; stroke-dashoffset: 0; stroke: #b0b0b0; stroke-width: 0.8"/>
     </g>
     <g id="line2d_56">
      <g>
       <use xlink:href="#m37966b1cd7" x="352.698421" y="307.584" style="stroke: #000000; stroke-width: 0.6"/>
      </g>
     </g>
    </g>
    <g id="xtick_29">
     <g id="line2d_57">
      <path d="M 365.239541 307.584 
L 365.239541 41.472 
" clip-path="url(#pbaf2ac5d52)" style="fill: none; stroke-dasharray: 0.8,1.32; stroke-dashoffset: 0; stroke: #b0b0b0; stroke-width: 0.8"/>
     </g>
     <g id="line2d_58">
      <g>
       <use xlink:href="#m37966b1cd7" x="365.239541" y="307.584" style="stroke: #000000; stroke-width: 0.6"/>
      </g>
     </g>
    </g>
    <g id="xtick_30">
     <g id="line2d_59">
      <path d="M 374.967189 307.584 
L 374.967189 41.472 
" clip-path="url(#pbaf2ac5d52)" style="fill: none; stroke-dasharray: 0.8,1.32; stroke-dashoffset: 0; stroke: #b0b0b0; stroke-width: 0.8"/>
     </g>
     <g id="line2d_60">
      <g>
       <use xlink:href="#m37966b1cd7" x="374.967189" y="307.584" style="stroke: #000000; stroke-width: 0.6"/>
      </g>
     </g>
    </g>
    <g id="xtick_31">
     <g id="line2d_61">
      <path d="M 382.915256 307.584 
L 382.915256 41.472 
" clip-path="url(#pbaf2ac5d52)" style="fill: none; stroke-dasharray: 0.8,1.32; stroke-dashoffset: 0; stroke: #b0b0b0; stroke-width: 0.8"/>
     </g>
     <g id="line2d_62">
      <g>
       <use xlink:href="#m37966b1cd7" x="382.915256" y="307.584" style="stroke: #000000; stroke-width: 0.6"/>
      </g>
     </g>
    </g>
    <g id="xtick_32">
     <g id="line2d_63">
      <path d="M 389.635251 307.584 
L 389.635251 41.472 
" clip-path="url(#pbaf2ac5d52)" style="fill: none; stroke-dasharray: 0.8,1.32; stroke-dashoffset: 0; stroke: #b0b0b0; stroke-width: 0.8"/>
     </g>
     <g id="line2d_64">
      <g>
       <use xlink:href="#m37966b1cd7" x="389.635251" y="307.584" style="stroke: #000000; stroke-width: 0.6"/>
      </g>
     </g>
    </g>
    <g id="xtick_33">
     <g id="line2d_65">
      <path d="M 395.456376 307.584 
L 395.456376 41.472 
" clip-path="url(#pbaf2ac5d52)" style="fill: none; stroke-dasharray: 0.8,1.32; stroke-dashoffset: 0; stroke: #b0b0b0; stroke-width: 0.8"/>
     </g>
     <g id="line2d_66">
      <g>
       <use xlink:href="#m37966b1cd7" x="395.456376" y="307.584" style="stroke: #000000; stroke-width: 0.6"/>
      </g>
     </g>
    </g>
    <g id="xtick_34">
     <g id="line2d_67">
      <path d="M 400.590972 307.584 
L 400.590972 41.472 
" clip-path="url(#pbaf2ac5d52)" style="fill: none; stroke-dasharray: 0.8,1.32; stroke-dashoffset: 0; stroke: #b0b0b0; stroke-width: 0.8"/>
     </g>
     <g id="line2d_68">
      <g>
       <use xlink:href="#m37966b1cd7" x="400.590972" y="307.584" style="stroke: #000000; stroke-width: 0.6"/>
      </g>
     </g>
    </g>
    <g id="text_5">
     <!-- matrix size -->
     <g transform="translate(208.577969 335.860562) scale(0.1 -0.1)">
      <defs>
       <path id="DejaVuSans-6d" d="M 3328 2828 
Q 3544 3216 3844 3400 
Q 4144 3584 4550 3584 
Q 5097 3584 5394 3201 
Q 5691 2819 5691 2113 
L 5691 0 
L 5113 0 
L 5113 2094 
Q 5113 2597 4934 2840 
Q 4756 3084 4391 3084 
Q 3944 3084 3684 2787 
Q 3425 2491 3425 1978 
L 3425 0 
L 2847 0 
L 2847 2094 
Q 2847 2600 2669 2842 
Q 2491 3084 2119 3084 
Q 1678 3084 1418 2786 
Q 1159 2488 1159 1978 
L 1159 0 
L 581 0 
L 581 3500 
L 1159 3500 
L 1159 2956 
Q 1356 3278 1631 3431 
Q 1906 3584 2284 3584 
Q 2666 3584 2933 3390 
Q 3200 3197 3328 2828 
z
" transform="scale(0.015625)"/>
       <path id="DejaVuSans-61" d="M 2194 1759 
Q 1497 1759 1228 1600 
Q 959 1441 959 1056 
Q 959 750 1161 570 
Q 1363 391 1709 391 
Q 2188 391 2477 730 
Q 2766 1069 2766 1631 
L 2766 1759 
L 2194 1759 
z
M 3341 1997 
L 3341 0 
L 2766 0 
L 2766 531 
Q 2569 213 2275 61 
Q 1981 -91 1556 -91 
Q 1019 -91 701 211 
Q 384 513 384 1019 
Q 384 1609 779 1909 
Q 1175 2209 1959 2209 
L 2766 2209 
L 2766 2266 
Q 2766 2663 2505 2880 
Q 2244 3097 1772 3097 
Q 1472 3097 1187 3025 
Q 903 2953 641 2809 
L 641 3341 
Q 956 3463 1253 3523 
Q 1550 3584 1831 3584 
Q 2591 3584 2966 3190 
Q 3341 2797 3341 1997 
z
" transform="scale(0.015625)"/>
       <path id="DejaVuSans-74" d="M 1172 4494 
L 1172 3500 
L 2356 3500 
L 2356 3053 
L 1172 3053 
L 1172 1153 
Q 1172 725 1289 603 
Q 1406 481 1766 481 
L 2356 481 
L 2356 0 
L 1766 0 
Q 1100 0 847 248 
Q 594 497 594 1153 
L 594 3053 
L 172 3053 
L 172 3500 
L 594 3500 
L 594 4494 
L 1172 4494 
z
" transform="scale(0.015625)"/>
       <path id="DejaVuSans-72" d="M 2631 2963 
Q 2534 3019 2420 3045 
Q 2306 3072 2169 3072 
Q 1681 3072 1420 2755 
Q 1159 2438 1159 1844 
L 1159 0 
L 581 0 
L 581 3500 
L 1159 3500 
L 1159 2956 
Q 1341 3275 1631 3429 
Q 1922 3584 2338 3584 
Q 2397 3584 2469 3576 
Q 2541 3569 2628 3553 
L 2631 2963 
z
" transform="scale(0.015625)"/>
       <path id="DejaVuSans-69" d="M 603 3500 
L 1178 3500 
L 1178 0 
L 603 0 
L 603 3500 
z
M 603 4863 
L 1178 4863 
L 1178 4134 
L 603 4134 
L 603 4863 
z
" transform="scale(0.015625)"/>
       <path id="DejaVuSans-78" d="M 3513 3500 
L 2247 1797 
L 3578 0 
L 2900 0 
L 1881 1375 
L 863 0 
L 184 0 
L 1544 1831 
L 300 3500 
L 978 3500 
L 1906 2253 
L 2834 3500 
L 3513 3500 
z
" transform="scale(0.015625)"/>
       <path id="DejaVuSans-20" transform="scale(0.015625)"/>
       <path id="DejaVuSans-73" d="M 2834 3397 
L 2834 2853 
Q 2591 2978 2328 3040 
Q 2066 3103 1784 3103 
Q 1356 3103 1142 2972 
Q 928 2841 928 2578 
Q 928 2378 1081 2264 
Q 1234 2150 1697 2047 
L 1894 2003 
Q 2506 1872 2764 1633 
Q 3022 1394 3022 966 
Q 3022 478 2636 193 
Q 2250 -91 1575 -91 
Q 1294 -91 989 -36 
Q 684 19 347 128 
L 347 722 
Q 666 556 975 473 
Q 1284 391 1588 391 
Q 1994 391 2212 530 
Q 2431 669 2431 922 
Q 2431 1156 2273 1281 
Q 2116 1406 1581 1522 
L 1381 1569 
Q 847 1681 609 1914 
Q 372 2147 372 2553 
Q 372 3047 722 3315 
Q 1072 3584 1716 3584 
Q 2034 3584 2315 3537 
Q 2597 3491 2834 3397 
z
" transform="scale(0.015625)"/>
       <path id="DejaVuSans-7a" d="M 353 3500 
L 3084 3500 
L 3084 2975 
L 922 459 
L 3084 459 
L 3084 0 
L 275 0 
L 275 525 
L 2438 3041 
L 353 3041 
L 353 3500 
z
" transform="scale(0.015625)"/>
       <path id="DejaVuSans-65" d="M 3597 1894 
L 3597 1613 
L 953 1613 
Q 991 1019 1311 708 
Q 1631 397 2203 397 
Q 2534 397 2845 478 
Q 3156 559 3463 722 
L 3463 178 
Q 3153 47 2828 -22 
Q 2503 -91 2169 -91 
Q 1331 -91 842 396 
Q 353 884 353 1716 
Q 353 2575 817 3079 
Q 1281 3584 2069 3584 
Q 2775 3584 3186 3129 
Q 3597 2675 3597 1894 
z
M 3022 2063 
Q 3016 2534 2758 2815 
Q 2500 3097 2075 3097 
Q 1594 3097 1305 2825 
Q 1016 2553 972 2059 
L 3022 2063 
z
" transform="scale(0.015625)"/>
      </defs>
      <use xlink:href="#DejaVuSans-6d"/>
      <use xlink:href="#DejaVuSans-61" x="97.412109"/>
      <use xlink:href="#DejaVuSans-74" x="158.691406"/>
      <use xlink:href="#DejaVuSans-72" x="197.900391"/>
      <use xlink:href="#DejaVuSans-69" x="239.013672"/>
      <use xlink:href="#DejaVuSans-78" x="266.796875"/>
      <use xlink:href="#DejaVuSans-20" x="325.976562"/>
      <use xlink:href="#DejaVuSans-73" x="357.763672"/>
      <use xlink:href="#DejaVuSans-69" x="409.863281"/>
      <use xlink:href="#DejaVuSans-7a" x="437.646484"/>
      <use xlink:href="#DejaVuSans-65" x="490.136719"/>
     </g>
    </g>
   </g>
   <g id="matplotlib.axis_2">
    <g id="ytick_1">
     <g id="line2d_69">
      <path d="M 57.6 272.971584 
L 414.72 272.971584 
" clip-path="url(#pbaf2ac5d52)" style="fill: none; stroke: #b0b0b0; stroke-width: 0.8; stroke-linecap: square"/>
     </g>
     <g id="line2d_70">
      <defs>
       <path id="mf601895c16" d="M 0 0 
L -3.5 0 
" style="stroke: #000000; stroke-width: 0.8"/>
      </defs>
      <g>
       <use xlink:href="#mf601895c16" x="57.6" y="272.971584" style="stroke: #000000; stroke-width: 0.8"/>
      </g>
     </g>
     <g id="text_6">
      <!-- $\mathdefault{10^{-6}}$ -->
      <g transform="translate(27.1 276.770803) scale(0.1 -0.1)">
       <defs>
        <path id="DejaVuSans-2212" d="M 678 2272 
L 4684 2272 
L 4684 1741 
L 678 1741 
L 678 2272 
z
" transform="scale(0.015625)"/>
        <path id="DejaVuSans-36" d="M 2113 2584 
Q 1688 2584 1439 2293 
Q 1191 2003 1191 1497 
Q 1191 994 1439 701 
Q 1688 409 2113 409 
Q 2538 409 2786 701 
Q 3034 994 3034 1497 
Q 3034 2003 2786 2293 
Q 2538 2584 2113 2584 
z
M 3366 4563 
L 3366 3988 
Q 3128 4100 2886 4159 
Q 2644 4219 2406 4219 
Q 1781 4219 1451 3797 
Q 1122 3375 1075 2522 
Q 1259 2794 1537 2939 
Q 1816 3084 2150 3084 
Q 2853 3084 3261 2657 
Q 3669 2231 3669 1497 
Q 3669 778 3244 343 
Q 2819 -91 2113 -91 
Q 1303 -91 875 529 
Q 447 1150 447 2328 
Q 447 3434 972 4092 
Q 1497 4750 2381 4750 
Q 2619 4750 2861 4703 
Q 3103 4656 3366 4563 
z
" transform="scale(0.015625)"/>
       </defs>
       <use xlink:href="#DejaVuSans-31" transform="translate(0 0.765625)"/>
       <use xlink:href="#DejaVuSans-30" transform="translate(63.623047 0.765625)"/>
       <use xlink:href="#DejaVuSans-2212" transform="translate(128.203125 39.046875) scale(0.7)"/>
       <use xlink:href="#DejaVuSans-36" transform="translate(186.855469 39.046875) scale(0.7)"/>
      </g>
     </g>
    </g>
    <g id="ytick_2">
     <g id="line2d_71">
      <path d="M 57.6 223.106308 
L 414.72 223.106308 
" clip-path="url(#pbaf2ac5d52)" style="fill: none; stroke: #b0b0b0; stroke-width: 0.8; stroke-linecap: square"/>
     </g>
     <g id="line2d_72">
      <g>
       <use xlink:href="#mf601895c16" x="57.6" y="223.106308" style="stroke: #000000; stroke-width: 0.8"/>
      </g>
     </g>
     <g id="text_7">
      <!-- $\mathdefault{10^{-4}}$ -->
      <g transform="translate(27.1 226.905526) scale(0.1 -0.1)">
       <use xlink:href="#DejaVuSans-31" transform="translate(0 0.684375)"/>
       <use xlink:href="#DejaVuSans-30" transform="translate(63.623047 0.684375)"/>
       <use xlink:href="#DejaVuSans-2212" transform="translate(128.203125 38.965625) scale(0.7)"/>
       <use xlink:href="#DejaVuSans-34" transform="translate(186.855469 38.965625) scale(0.7)"/>
      </g>
     </g>
    </g>
    <g id="ytick_3">
     <g id="line2d_73">
      <path d="M 57.6 173.241031 
L 414.72 173.241031 
" clip-path="url(#pbaf2ac5d52)" style="fill: none; stroke: #b0b0b0; stroke-width: 0.8; stroke-linecap: square"/>
     </g>
     <g id="line2d_74">
      <g>
       <use xlink:href="#mf601895c16" x="57.6" y="173.241031" style="stroke: #000000; stroke-width: 0.8"/>
      </g>
     </g>
     <g id="text_8">
      <!-- $\mathdefault{10^{-2}}$ -->
      <g transform="translate(27.1 177.04025) scale(0.1 -0.1)">
       <use xlink:href="#DejaVuSans-31" transform="translate(0 0.765625)"/>
       <use xlink:href="#DejaVuSans-30" transform="translate(63.623047 0.765625)"/>
       <use xlink:href="#DejaVuSans-2212" transform="translate(128.203125 39.046875) scale(0.7)"/>
       <use xlink:href="#DejaVuSans-32" transform="translate(186.855469 39.046875) scale(0.7)"/>
      </g>
     </g>
    </g>
    <g id="ytick_4">
     <g id="line2d_75">
      <path d="M 57.6 123.375755 
L 414.72 123.375755 
" clip-path="url(#pbaf2ac5d52)" style="fill: none; stroke: #b0b0b0; stroke-width: 0.8; stroke-linecap: square"/>
     </g>
     <g id="line2d_76">
      <g>
       <use xlink:href="#mf601895c16" x="57.6" y="123.375755" style="stroke: #000000; stroke-width: 0.8"/>
      </g>
     </g>
     <g id="text_9">
      <!-- $\mathdefault{10^{0}}$ -->
      <g transform="translate(33 127.174974) scale(0.1 -0.1)">
       <use xlink:href="#DejaVuSans-31" transform="translate(0 0.765625)"/>
       <use xlink:href="#DejaVuSans-30" transform="translate(63.623047 0.765625)"/>
       <use xlink:href="#DejaVuSans-30" transform="translate(128.203125 39.046875) scale(0.7)"/>
      </g>
     </g>
    </g>
    <g id="ytick_5">
     <g id="line2d_77">
      <path d="M 57.6 73.510478 
L 414.72 73.510478 
" clip-path="url(#pbaf2ac5d52)" style="fill: none; stroke: #b0b0b0; stroke-width: 0.8; stroke-linecap: square"/>
     </g>
     <g id="line2d_78">
      <g>
       <use xlink:href="#mf601895c16" x="57.6" y="73.510478" style="stroke: #000000; stroke-width: 0.8"/>
      </g>
     </g>
     <g id="text_10">
      <!-- $\mathdefault{10^{2}}$ -->
      <g transform="translate(33 77.309697) scale(0.1 -0.1)">
       <use xlink:href="#DejaVuSans-31" transform="translate(0 0.765625)"/>
       <use xlink:href="#DejaVuSans-30" transform="translate(63.623047 0.765625)"/>
       <use xlink:href="#DejaVuSans-32" transform="translate(128.203125 39.046875) scale(0.7)"/>
      </g>
     </g>
    </g>
    <g id="text_11">
     <!-- execution time [s] -->
     <g transform="translate(21.020312 219.872531) rotate(-90) scale(0.1 -0.1)">
      <defs>
       <path id="DejaVuSans-63" d="M 3122 3366 
L 3122 2828 
Q 2878 2963 2633 3030 
Q 2388 3097 2138 3097 
Q 1578 3097 1268 2742 
Q 959 2388 959 1747 
Q 959 1106 1268 751 
Q 1578 397 2138 397 
Q 2388 397 2633 464 
Q 2878 531 3122 666 
L 3122 134 
Q 2881 22 2623 -34 
Q 2366 -91 2075 -91 
Q 1284 -91 818 406 
Q 353 903 353 1747 
Q 353 2603 823 3093 
Q 1294 3584 2113 3584 
Q 2378 3584 2631 3529 
Q 2884 3475 3122 3366 
z
" transform="scale(0.015625)"/>
       <path id="DejaVuSans-75" d="M 544 1381 
L 544 3500 
L 1119 3500 
L 1119 1403 
Q 1119 906 1312 657 
Q 1506 409 1894 409 
Q 2359 409 2629 706 
Q 2900 1003 2900 1516 
L 2900 3500 
L 3475 3500 
L 3475 0 
L 2900 0 
L 2900 538 
Q 2691 219 2414 64 
Q 2138 -91 1772 -91 
Q 1169 -91 856 284 
Q 544 659 544 1381 
z
M 1991 3584 
L 1991 3584 
z
" transform="scale(0.015625)"/>
       <path id="DejaVuSans-6f" d="M 1959 3097 
Q 1497 3097 1228 2736 
Q 959 2375 959 1747 
Q 959 1119 1226 758 
Q 1494 397 1959 397 
Q 2419 397 2687 759 
Q 2956 1122 2956 1747 
Q 2956 2369 2687 2733 
Q 2419 3097 1959 3097 
z
M 1959 3584 
Q 2709 3584 3137 3096 
Q 3566 2609 3566 1747 
Q 3566 888 3137 398 
Q 2709 -91 1959 -91 
Q 1206 -91 779 398 
Q 353 888 353 1747 
Q 353 2609 779 3096 
Q 1206 3584 1959 3584 
z
" transform="scale(0.015625)"/>
       <path id="DejaVuSans-6e" d="M 3513 2113 
L 3513 0 
L 2938 0 
L 2938 2094 
Q 2938 2591 2744 2837 
Q 2550 3084 2163 3084 
Q 1697 3084 1428 2787 
Q 1159 2491 1159 1978 
L 1159 0 
L 581 0 
L 581 3500 
L 1159 3500 
L 1159 2956 
Q 1366 3272 1645 3428 
Q 1925 3584 2291 3584 
Q 2894 3584 3203 3211 
Q 3513 2838 3513 2113 
z
" transform="scale(0.015625)"/>
       <path id="DejaVuSans-5b" d="M 550 4863 
L 1875 4863 
L 1875 4416 
L 1125 4416 
L 1125 -397 
L 1875 -397 
L 1875 -844 
L 550 -844 
L 550 4863 
z
" transform="scale(0.015625)"/>
       <path id="DejaVuSans-5d" d="M 1947 4863 
L 1947 -844 
L 622 -844 
L 622 -397 
L 1369 -397 
L 1369 4416 
L 622 4416 
L 622 4863 
L 1947 4863 
z
" transform="scale(0.015625)"/>
      </defs>
      <use xlink:href="#DejaVuSans-65"/>
      <use xlink:href="#DejaVuSans-78" x="59.773438"/>
      <use xlink:href="#DejaVuSans-65" x="115.828125"/>
      <use xlink:href="#DejaVuSans-63" x="177.351562"/>
      <use xlink:href="#DejaVuSans-75" x="232.332031"/>
      <use xlink:href="#DejaVuSans-74" x="295.710938"/>
      <use xlink:href="#DejaVuSans-69" x="334.919922"/>
      <use xlink:href="#DejaVuSans-6f" x="362.703125"/>
      <use xlink:href="#DejaVuSans-6e" x="423.884766"/>
      <use xlink:href="#DejaVuSans-20" x="487.263672"/>
      <use xlink:href="#DejaVuSans-74" x="519.050781"/>
      <use xlink:href="#DejaVuSans-69" x="558.259766"/>
      <use xlink:href="#DejaVuSans-6d" x="586.042969"/>
      <use xlink:href="#DejaVuSans-65" x="683.455078"/>
      <use xlink:href="#DejaVuSans-20" x="744.978516"/>
      <use xlink:href="#DejaVuSans-5b" x="776.765625"/>
      <use xlink:href="#DejaVuSans-73" x="815.779297"/>
      <use xlink:href="#DejaVuSans-5d" x="867.878906"/>
     </g>
    </g>
   </g>
   <g id="line2d_79">
    <path d="M 73.832727 133.013091 
L 73.832727 247.606968 
L 73.832727 252.367284 
L 81.780795 253.067675 
L 81.780795 253.187268 
L 88.50079 252.480963 
L 88.50079 253.187268 
L 94.321914 252.595751 
L 99.45651 251.605048 
L 99.45651 253.30994 
L 104.049562 252.595751 
L 108.204484 250.506734 
L 111.99763 251.606538 
L 115.486986 250.317928 
L 118.717625 249.596765 
L 121.725278 249.772049 
L 127.1816 248.129179 
L 129.673345 249.169009 
L 132.030334 248.128099 
L 136.39334 247.10977 
L 140.359135 245.501302 
L 143.994046 244.099576 
L 147.349061 242.720006 
L 150.46422 241.251399 
L 153.371542 239.850547 
L 157.398435 237.788369 
L 159.890181 230.580204 
L 163.379537 234.455351 
L 166.610176 232.66963 
L 170.57597 230.475125 
L 174.210881 228.026068 
L 177.565896 226.049904 
L 180.681055 224.011406 
L 183.588377 221.498639 
L 187.61527 218.63412 
L 190.708317 210.779104 
L 194.151713 208.078864 
L 197.342918 206.177551 
L 200.792805 203.941819 
L 203.989585 201.53719 
L 207.377206 198.930949 
L 210.89789 196.186098 
L 214.155365 193.801521 
L 217.510379 191.486884 
L 220.925153 188.98673 
L 224.368548 186.466824 
L 227.559754 184.111259 
L 231.009641 181.389541 
L 234.426036 179.077797 
L 237.797275 176.590732 
L 241.114726 173.972143 
L 244.3722 171.775365 
L 247.727215 164.080181 
L 251.141988 162.467104 
L 254.44721 164.642046 
L 257.904617 162.11075 
L 261.226476 152.094206 
L 264.533202 152.190127 
L 267.912612 151.048014 
L 271.237508 147.904308 
L 274.589035 149.80631 
L 277.94405 145.679483 
L 281.284112 146.229445 
L 284.664045 143.872825 
L 287.993424 142.492432 
L 291.38404 140.639789 
L 294.695099 138.352615 
L 298.078609 135.932808 
L 301.40724 133.210013 
L 304.762255 130.609378 
L 308.120502 127.915924 
L 311.463544 125.406281 
L 314.811629 123.080533 
L 318.146104 120.714935 
L 321.482091 120.394704 
L 324.829396 118.474553 
L 328.19359 116.016805 
L 331.529716 113.699 
L 334.891728 111.15296 
" clip-path="url(#pbaf2ac5d52)" style="fill: none; stroke: #1f77b4; stroke-width: 1.5; stroke-linecap: square"/>
   </g>
   <g id="line2d_80">
    <path d="M 73.832727 222.711336 
L 73.832727 235.503722 
L 73.832727 236.647298 
L 81.780795 236.173541 
L 81.780795 236.29218 
L 88.50079 235.687523 
L 88.50079 235.44061 
L 94.321914 235.076733 
L 99.45651 234.820838 
L 99.45651 234.455351 
L 104.049562 233.813226 
L 108.204484 233.4928 
L 111.99763 233.323082 
L 115.486986 233.067141 
L 118.717625 232.590741 
L 121.725278 232.180881 
L 127.1816 231.785971 
L 129.673345 230.39077 
L 132.030334 229.725092 
L 136.39334 229.141819 
L 140.359135 228.906667 
L 143.994046 228.44707 
L 147.349061 227.809868 
L 150.46422 226.18643 
L 153.371542 225.373456 
L 157.398435 224.733852 
L 159.890181 225.17027 
L 163.379537 224.359512 
L 166.610176 223.666125 
L 170.57597 222.927364 
L 174.210881 222.24513 
L 177.565896 221.38185 
L 180.681055 220.228756 
L 183.588377 217.307742 
L 187.61527 214.72227 
L 190.708317 212.413732 
L 194.151713 211.71642 
L 197.342918 210.448291 
L 200.792805 207.685863 
L 203.989585 205.82901 
L 207.377206 204.522217 
L 210.89789 204.309114 
L 214.155365 203.532657 
L 217.510379 202.48996 
L 220.925153 200.147672 
L 224.368548 184.036399 
L 227.559754 183.440894 
L 231.009641 182.797978 
L 234.426036 193.365338 
L 237.797275 193.266671 
L 241.114726 182.360771 
L 244.3722 175.133458 
L 247.727215 174.510904 
L 251.141988 162.173021 
L 254.44721 162.79428 
L 257.904617 160.001025 
L 261.226476 167.965359 
L 264.533202 168.527058 
L 267.912612 172.625514 
L 271.237508 174.601107 
L 274.589035 173.485324 
L 277.94405 173.094422 
L 281.284112 171.716375 
L 284.664045 160.206179 
L 287.993424 159.689797 
L 291.38404 153.660984 
L 294.695099 157.392 
L 298.078609 156.72681 
L 301.40724 162.533 
L 304.762255 161.046689 
L 308.120502 159.325158 
L 311.463544 158.10162 
L 314.811629 156.953166 
L 318.146104 155.552499 
L 321.482091 153.957638 
L 324.829396 151.901902 
L 328.19359 150.353679 
L 331.529716 147.564765 
L 334.891728 145.499898 
L 338.236215 143.596255 
L 341.58673 142.401536 
L 344.924381 140.909497 
L 348.282612 139.17327 
L 351.624522 137.502733 
L 354.97733 135.858931 
L 358.321107 134.176881 
L 361.66382 132.570782 
L 365.010071 131.270569 
L 368.36184 129.731736 
L 371.709715 128.022975 
L 375.054289 125.866158 
L 378.402858 123.331676 
L 381.751904 120.993891 
L 385.097521 117.950463 
L 388.44844 115.178979 
L 391.79184 111.520903 
L 395.13917 109.936346 
L 398.487273 108.315458 
" clip-path="url(#pbaf2ac5d52)" style="fill: none; stroke: #ff7f0e; stroke-width: 1.5; stroke-linecap: square"/>
   </g>
   <g id="line2d_81">
    <path d="M 73.832727 232.180886 
L 73.832727 243.257668 
L 73.832727 244.012868 
L 81.780795 243.978072 
L 81.780795 243.96073 
L 88.50079 243.891854 
L 88.50079 242.415808 
L 94.321914 242.400994 
L 99.45651 242.193276 
L 99.45651 243.454154 
L 104.049562 243.144991 
L 108.204484 242.922651 
L 111.99763 242.938419 
L 115.486986 242.828779 
L 118.717625 242.658796 
L 121.725278 242.476108 
L 127.1816 242.17858 
L 129.673345 241.846128 
L 132.030334 241.332271 
L 136.39334 240.971915 
L 140.359135 240.560032 
L 143.994046 240.38453 
L 147.349061 240.005847 
L 150.46422 237.235218 
L 153.371542 236.455395 
L 157.398435 235.61532 
L 159.890181 236.603388 
L 163.379537 236.064647 
L 166.610176 235.472113 
L 170.57597 234.761475 
L 174.210881 233.881059 
L 177.565896 233.28421 
L 180.681055 219.094086 
L 183.588377 217.72592 
L 187.61527 216.629939 
L 190.708317 223.650251 
L 194.151713 223.631708 
L 197.342918 222.600165 
L 200.792805 221.399101 
L 203.989585 220.318057 
L 207.377206 219.283741 
L 210.89789 217.905339 
L 214.155365 216.410437 
L 217.510379 215.210773 
L 220.925153 212.707843 
L 224.368548 211.449425 
L 227.559754 207.870691 
L 231.009641 206.172292 
L 234.426036 205.559419 
L 237.797275 206.535545 
L 241.114726 197.347281 
L 244.3722 193.090894 
L 247.727215 191.612124 
L 251.141988 193.966059 
L 254.44721 192.034048 
L 257.904617 191.857899 
L 261.226476 189.492159 
L 264.533202 190.271454 
L 267.912612 188.027852 
L 271.237508 187.291843 
L 274.589035 185.52553 
L 277.94405 183.302383 
L 281.284112 181.841189 
L 284.664045 180.719328 
L 287.993424 179.378359 
L 291.38404 175.550951 
L 294.695099 174.079511 
L 298.078609 172.531648 
L 301.40724 172.433528 
L 304.762255 171.044285 
L 308.120502 169.218135 
L 311.463544 167.227658 
L 314.811629 165.606083 
L 318.146104 163.965977 
L 321.482091 162.307853 
L 324.829396 160.94142 
L 328.19359 159.722384 
L 331.529716 158.179345 
L 334.891728 156.201737 
L 338.236215 154.565102 
L 341.58673 152.790007 
L 344.924381 151.15052 
L 348.282612 149.467974 
L 351.624522 147.860056 
L 354.97733 146.171998 
L 358.321107 144.301258 
L 361.66382 142.469121 
L 365.010071 140.890758 
L 368.36184 139.091611 
L 371.709715 137.25151 
L 375.054289 134.982579 
L 378.402858 132.92774 
L 381.751904 130.73458 
L 385.097521 128.261546 
L 388.44844 125.798004 
L 391.79184 122.096233 
L 395.13917 119.800241 
L 398.487273 117.302399 
" clip-path="url(#pbaf2ac5d52)" style="fill: none; stroke: #2ca02c; stroke-width: 1.5; stroke-linecap: square"/>
   </g>
   <g id="line2d_82">
    <path d="M 73.832727 295.488 
L 73.832727 295.488 
L 73.832727 295.488 
L 81.780795 289.565408 
L 81.780795 289.565408 
L 88.50079 284.557928 
L 88.50079 284.557928 
L 94.321914 280.220251 
L 99.45651 276.394149 
L 99.45651 276.394149 
L 104.049562 272.971584 
L 108.204484 269.875498 
L 111.99763 267.048992 
L 115.486986 264.448859 
L 118.717625 262.041512 
L 121.725278 259.800325 
L 127.1816 255.734485 
L 129.673345 253.877733 
L 132.030334 252.121396 
L 136.39334 248.870253 
L 140.359135 245.915096 
L 143.994046 243.206501 
L 147.349061 240.706474 
L 150.46422 238.385178 
L 153.371542 236.218754 
L 157.398435 233.218069 
L 159.890181 231.361317 
L 163.379537 228.761184 
L 166.610176 226.353837 
L 170.57597 223.39868 
L 174.210881 220.690085 
L 177.565896 218.190058 
L 180.681055 215.868762 
L 183.588377 213.702338 
L 187.61527 210.701653 
L 190.708317 208.396834 
L 194.151713 205.83095 
L 197.342918 203.452987 
L 200.792805 200.882264 
L 203.989585 198.500148 
L 207.377206 195.975824 
L 210.89789 193.352346 
L 214.155365 190.925003 
L 217.510379 188.424975 
L 220.925153 185.880419 
L 224.368548 183.314534 
L 227.559754 180.936571 
L 231.009641 178.365848 
L 234.426036 175.820083 
L 237.797275 173.307966 
L 241.114726 170.83593 
L 244.3722 168.408587 
L 247.727215 165.908559 
L 251.141988 163.364003 
L 254.44721 160.901079 
L 257.904617 158.324753 
L 261.226476 155.849433 
L 264.533202 153.385388 
L 267.912612 150.867183 
L 271.237508 148.389599 
L 274.589035 145.892171 
L 277.94405 143.392143 
L 281.284112 140.903258 
L 284.664045 138.384663 
L 287.993424 135.903739 
L 291.38404 133.377183 
L 294.695099 130.90991 
L 298.078609 128.38865 
L 301.40724 125.908283 
L 304.762255 123.408255 
L 308.120502 120.90582 
L 311.463544 118.414714 
L 314.811629 115.919851 
L 318.146104 113.435129 
L 321.482091 110.94928 
L 324.829396 108.454998 
L 328.19359 105.948132 
L 331.529716 103.462179 
L 334.891728 100.956938 
L 338.236215 98.464756 
L 341.58673 95.968082 
L 344.924381 93.480994 
L 348.282612 90.97857 
L 351.624522 88.488308 
L 354.97733 85.989925 
L 358.321107 83.498272 
L 361.66382 81.007412 
L 365.010071 78.513915 
L 368.36184 76.016307 
L 371.709715 73.5216 
L 375.054289 71.029352 
L 378.402858 68.534128 
L 381.751904 66.038549 
L 385.097521 63.545525 
L 388.44844 61.048549 
L 391.79184 58.557178 
L 395.13917 56.062876 
L 398.487273 53.568 
" clip-path="url(#pbaf2ac5d52)" style="fill: none; stroke-dasharray: 5.55,2.4; stroke-dashoffset: 0; stroke: #d62728; stroke-width: 1.5"/>
   </g>
   <g id="patch_3">
    <path d="M 57.6 307.584 
L 57.6 41.472 
" style="fill: none; stroke: #000000; stroke-width: 0.8; stroke-linejoin: miter; stroke-linecap: square"/>
   </g>
   <g id="patch_4">
    <path d="M 414.72 307.584 
L 414.72 41.472 
" style="fill: none; stroke: #000000; stroke-width: 0.8; stroke-linejoin: miter; stroke-linecap: square"/>
   </g>
   <g id="patch_5">
    <path d="M 57.6 307.584 
L 414.72 307.584 
" style="fill: none; stroke: #000000; stroke-width: 0.8; stroke-linejoin: miter; stroke-linecap: square"/>
   </g>
   <g id="patch_6">
    <path d="M 57.6 41.472 
L 414.72 41.472 
" style="fill: none; stroke: #000000; stroke-width: 0.8; stroke-linejoin: miter; stroke-linecap: square"/>
   </g>
   <g id="text_12">
    <!-- Complexity comparison of LU vs Cholesky factorization -->
    <g transform="translate(71.38125 35.472) scale(0.12 -0.12)">
     <defs>
      <path id="DejaVuSans-43" d="M 4122 4306 
L 4122 3641 
Q 3803 3938 3442 4084 
Q 3081 4231 2675 4231 
Q 1875 4231 1450 3742 
Q 1025 3253 1025 2328 
Q 1025 1406 1450 917 
Q 1875 428 2675 428 
Q 3081 428 3442 575 
Q 3803 722 4122 1019 
L 4122 359 
Q 3791 134 3420 21 
Q 3050 -91 2638 -91 
Q 1578 -91 968 557 
Q 359 1206 359 2328 
Q 359 3453 968 4101 
Q 1578 4750 2638 4750 
Q 3056 4750 3426 4639 
Q 3797 4528 4122 4306 
z
" transform="scale(0.015625)"/>
      <path id="DejaVuSans-70" d="M 1159 525 
L 1159 -1331 
L 581 -1331 
L 581 3500 
L 1159 3500 
L 1159 2969 
Q 1341 3281 1617 3432 
Q 1894 3584 2278 3584 
Q 2916 3584 3314 3078 
Q 3713 2572 3713 1747 
Q 3713 922 3314 415 
Q 2916 -91 2278 -91 
Q 1894 -91 1617 61 
Q 1341 213 1159 525 
z
M 3116 1747 
Q 3116 2381 2855 2742 
Q 2594 3103 2138 3103 
Q 1681 3103 1420 2742 
Q 1159 2381 1159 1747 
Q 1159 1113 1420 752 
Q 1681 391 2138 391 
Q 2594 391 2855 752 
Q 3116 1113 3116 1747 
z
" transform="scale(0.015625)"/>
      <path id="DejaVuSans-6c" d="M 603 4863 
L 1178 4863 
L 1178 0 
L 603 0 
L 603 4863 
z
" transform="scale(0.015625)"/>
      <path id="DejaVuSans-79" d="M 2059 -325 
Q 1816 -950 1584 -1140 
Q 1353 -1331 966 -1331 
L 506 -1331 
L 506 -850 
L 844 -850 
Q 1081 -850 1212 -737 
Q 1344 -625 1503 -206 
L 1606 56 
L 191 3500 
L 800 3500 
L 1894 763 
L 2988 3500 
L 3597 3500 
L 2059 -325 
z
" transform="scale(0.015625)"/>
      <path id="DejaVuSans-66" d="M 2375 4863 
L 2375 4384 
L 1825 4384 
Q 1516 4384 1395 4259 
Q 1275 4134 1275 3809 
L 1275 3500 
L 2222 3500 
L 2222 3053 
L 1275 3053 
L 1275 0 
L 697 0 
L 697 3053 
L 147 3053 
L 147 3500 
L 697 3500 
L 697 3744 
Q 697 4328 969 4595 
Q 1241 4863 1831 4863 
L 2375 4863 
z
" transform="scale(0.015625)"/>
      <path id="DejaVuSans-4c" d="M 628 4666 
L 1259 4666 
L 1259 531 
L 3531 531 
L 3531 0 
L 628 0 
L 628 4666 
z
" transform="scale(0.015625)"/>
      <path id="DejaVuSans-55" d="M 556 4666 
L 1191 4666 
L 1191 1831 
Q 1191 1081 1462 751 
Q 1734 422 2344 422 
Q 2950 422 3222 751 
Q 3494 1081 3494 1831 
L 3494 4666 
L 4128 4666 
L 4128 1753 
Q 4128 841 3676 375 
Q 3225 -91 2344 -91 
Q 1459 -91 1007 375 
Q 556 841 556 1753 
L 556 4666 
z
" transform="scale(0.015625)"/>
      <path id="DejaVuSans-76" d="M 191 3500 
L 800 3500 
L 1894 563 
L 2988 3500 
L 3597 3500 
L 2284 0 
L 1503 0 
L 191 3500 
z
" transform="scale(0.015625)"/>
      <path id="DejaVuSans-68" d="M 3513 2113 
L 3513 0 
L 2938 0 
L 2938 2094 
Q 2938 2591 2744 2837 
Q 2550 3084 2163 3084 
Q 1697 3084 1428 2787 
Q 1159 2491 1159 1978 
L 1159 0 
L 581 0 
L 581 4863 
L 1159 4863 
L 1159 2956 
Q 1366 3272 1645 3428 
Q 1925 3584 2291 3584 
Q 2894 3584 3203 3211 
Q 3513 2838 3513 2113 
z
" transform="scale(0.015625)"/>
      <path id="DejaVuSans-6b" d="M 581 4863 
L 1159 4863 
L 1159 1991 
L 2875 3500 
L 3609 3500 
L 1753 1863 
L 3688 0 
L 2938 0 
L 1159 1709 
L 1159 0 
L 581 0 
L 581 4863 
z
" transform="scale(0.015625)"/>
     </defs>
     <use xlink:href="#DejaVuSans-43"/>
     <use xlink:href="#DejaVuSans-6f" x="69.824219"/>
     <use xlink:href="#DejaVuSans-6d" x="131.005859"/>
     <use xlink:href="#DejaVuSans-70" x="228.417969"/>
     <use xlink:href="#DejaVuSans-6c" x="291.894531"/>
     <use xlink:href="#DejaVuSans-65" x="319.677734"/>
     <use xlink:href="#DejaVuSans-78" x="379.451172"/>
     <use xlink:href="#DejaVuSans-69" x="438.630859"/>
     <use xlink:href="#DejaVuSans-74" x="466.414062"/>
     <use xlink:href="#DejaVuSans-79" x="505.623047"/>
     <use xlink:href="#DejaVuSans-20" x="564.802734"/>
     <use xlink:href="#DejaVuSans-63" x="596.589844"/>
     <use xlink:href="#DejaVuSans-6f" x="651.570312"/>
     <use xlink:href="#DejaVuSans-6d" x="712.751953"/>
     <use xlink:href="#DejaVuSans-70" x="810.164062"/>
     <use xlink:href="#DejaVuSans-61" x="873.640625"/>
     <use xlink:href="#DejaVuSans-72" x="934.919922"/>
     <use xlink:href="#DejaVuSans-69" x="976.033203"/>
     <use xlink:href="#DejaVuSans-73" x="1003.816406"/>
     <use xlink:href="#DejaVuSans-6f" x="1055.916016"/>
     <use xlink:href="#DejaVuSans-6e" x="1117.097656"/>
     <use xlink:href="#DejaVuSans-20" x="1180.476562"/>
     <use xlink:href="#DejaVuSans-6f" x="1212.263672"/>
     <use xlink:href="#DejaVuSans-66" x="1273.445312"/>
     <use xlink:href="#DejaVuSans-20" x="1308.650391"/>
     <use xlink:href="#DejaVuSans-4c" x="1340.4375"/>
     <use xlink:href="#DejaVuSans-55" x="1391.150391"/>
     <use xlink:href="#DejaVuSans-20" x="1464.34375"/>
     <use xlink:href="#DejaVuSans-76" x="1496.130859"/>
     <use xlink:href="#DejaVuSans-73" x="1555.310547"/>
     <use xlink:href="#DejaVuSans-20" x="1607.410156"/>
     <use xlink:href="#DejaVuSans-43" x="1639.197266"/>
     <use xlink:href="#DejaVuSans-68" x="1709.021484"/>
     <use xlink:href="#DejaVuSans-6f" x="1772.400391"/>
     <use xlink:href="#DejaVuSans-6c" x="1833.582031"/>
     <use xlink:href="#DejaVuSans-65" x="1861.365234"/>
     <use xlink:href="#DejaVuSans-73" x="1922.888672"/>
     <use xlink:href="#DejaVuSans-6b" x="1974.988281"/>
     <use xlink:href="#DejaVuSans-79" x="2029.273438"/>
     <use xlink:href="#DejaVuSans-20" x="2088.453125"/>
     <use xlink:href="#DejaVuSans-66" x="2120.240234"/>
     <use xlink:href="#DejaVuSans-61" x="2155.445312"/>
     <use xlink:href="#DejaVuSans-63" x="2216.724609"/>
     <use xlink:href="#DejaVuSans-74" x="2271.705078"/>
     <use xlink:href="#DejaVuSans-6f" x="2310.914062"/>
     <use xlink:href="#DejaVuSans-72" x="2372.095703"/>
     <use xlink:href="#DejaVuSans-69" x="2413.208984"/>
     <use xlink:href="#DejaVuSans-7a" x="2440.992188"/>
     <use xlink:href="#DejaVuSans-61" x="2493.482422"/>
     <use xlink:href="#DejaVuSans-74" x="2554.761719"/>
     <use xlink:href="#DejaVuSans-69" x="2593.970703"/>
     <use xlink:href="#DejaVuSans-6f" x="2621.753906"/>
     <use xlink:href="#DejaVuSans-6e" x="2682.935547"/>
    </g>
   </g>
   <g id="legend_1">
    <g id="patch_7">
     <path d="M 64.6 109.006375 
L 179.320312 109.006375 
Q 181.320312 109.006375 181.320312 107.006375 
L 181.320312 48.472 
Q 181.320312 46.472 179.320312 46.472 
L 64.6 46.472 
Q 62.6 46.472 62.6 48.472 
L 62.6 107.006375 
Q 62.6 109.006375 64.6 109.006375 
z
" style="fill: #ffffff; opacity: 0.8; stroke: #cccccc; stroke-linejoin: miter"/>
    </g>
    <g id="line2d_83">
     <path d="M 66.6 54.570438 
L 76.6 54.570438 
L 86.6 54.570438 
" style="fill: none; stroke: #1f77b4; stroke-width: 1.5; stroke-linecap: square"/>
    </g>
    <g id="text_13">
     <!-- LU (no pivotage) -->
     <g transform="translate(94.6 58.070438) scale(0.1 -0.1)">
      <defs>
       <path id="DejaVuSans-28" d="M 1984 4856 
Q 1566 4138 1362 3434 
Q 1159 2731 1159 2009 
Q 1159 1288 1364 580 
Q 1569 -128 1984 -844 
L 1484 -844 
Q 1016 -109 783 600 
Q 550 1309 550 2009 
Q 550 2706 781 3412 
Q 1013 4119 1484 4856 
L 1984 4856 
z
" transform="scale(0.015625)"/>
       <path id="DejaVuSans-67" d="M 2906 1791 
Q 2906 2416 2648 2759 
Q 2391 3103 1925 3103 
Q 1463 3103 1205 2759 
Q 947 2416 947 1791 
Q 947 1169 1205 825 
Q 1463 481 1925 481 
Q 2391 481 2648 825 
Q 2906 1169 2906 1791 
z
M 3481 434 
Q 3481 -459 3084 -895 
Q 2688 -1331 1869 -1331 
Q 1566 -1331 1297 -1286 
Q 1028 -1241 775 -1147 
L 775 -588 
Q 1028 -725 1275 -790 
Q 1522 -856 1778 -856 
Q 2344 -856 2625 -561 
Q 2906 -266 2906 331 
L 2906 616 
Q 2728 306 2450 153 
Q 2172 0 1784 0 
Q 1141 0 747 490 
Q 353 981 353 1791 
Q 353 2603 747 3093 
Q 1141 3584 1784 3584 
Q 2172 3584 2450 3431 
Q 2728 3278 2906 2969 
L 2906 3500 
L 3481 3500 
L 3481 434 
z
" transform="scale(0.015625)"/>
       <path id="DejaVuSans-29" d="M 513 4856 
L 1013 4856 
Q 1481 4119 1714 3412 
Q 1947 2706 1947 2009 
Q 1947 1309 1714 600 
Q 1481 -109 1013 -844 
L 513 -844 
Q 928 -128 1133 580 
Q 1338 1288 1338 2009 
Q 1338 2731 1133 3434 
Q 928 4138 513 4856 
z
" transform="scale(0.015625)"/>
      </defs>
      <use xlink:href="#DejaVuSans-4c"/>
      <use xlink:href="#DejaVuSans-55" x="50.712891"/>
      <use xlink:href="#DejaVuSans-20" x="123.90625"/>
      <use xlink:href="#DejaVuSans-28" x="155.693359"/>
      <use xlink:href="#DejaVuSans-6e" x="194.707031"/>
      <use xlink:href="#DejaVuSans-6f" x="258.085938"/>
      <use xlink:href="#DejaVuSans-20" x="319.267578"/>
      <use xlink:href="#DejaVuSans-70" x="351.054688"/>
      <use xlink:href="#DejaVuSans-69" x="414.53125"/>
      <use xlink:href="#DejaVuSans-76" x="442.314453"/>
      <use xlink:href="#DejaVuSans-6f" x="501.494141"/>
      <use xlink:href="#DejaVuSans-74" x="562.675781"/>
      <use xlink:href="#DejaVuSans-61" x="601.884766"/>
      <use xlink:href="#DejaVuSans-67" x="663.164062"/>
      <use xlink:href="#DejaVuSans-65" x="726.640625"/>
      <use xlink:href="#DejaVuSans-29" x="788.164062"/>
     </g>
    </g>
    <g id="line2d_84">
     <path d="M 66.6 69.248563 
L 76.6 69.248563 
L 86.6 69.248563 
" style="fill: none; stroke: #ff7f0e; stroke-width: 1.5; stroke-linecap: square"/>
    </g>
    <g id="text_14">
     <!-- LU -->
     <g transform="translate(94.6 72.748563) scale(0.1 -0.1)">
      <use xlink:href="#DejaVuSans-4c"/>
      <use xlink:href="#DejaVuSans-55" x="50.712891"/>
     </g>
    </g>
    <g id="line2d_85">
     <path d="M 66.6 83.926688 
L 76.6 83.926688 
L 86.6 83.926688 
" style="fill: none; stroke: #2ca02c; stroke-width: 1.5; stroke-linecap: square"/>
    </g>
    <g id="text_15">
     <!-- Cholesky -->
     <g transform="translate(94.6 87.426688) scale(0.1 -0.1)">
      <use xlink:href="#DejaVuSans-43"/>
      <use xlink:href="#DejaVuSans-68" x="69.824219"/>
      <use xlink:href="#DejaVuSans-6f" x="133.203125"/>
      <use xlink:href="#DejaVuSans-6c" x="194.384766"/>
      <use xlink:href="#DejaVuSans-65" x="222.167969"/>
      <use xlink:href="#DejaVuSans-73" x="283.691406"/>
      <use xlink:href="#DejaVuSans-6b" x="335.791016"/>
      <use xlink:href="#DejaVuSans-79" x="390.076172"/>
     </g>
    </g>
    <g id="line2d_86">
     <path d="M 66.6 99.426688 
L 76.6 99.426688 
L 86.6 99.426688 
" style="fill: none; stroke-dasharray: 5.55,2.4; stroke-dashoffset: 0; stroke: #d62728; stroke-width: 1.5"/>
    </g>
    <g id="text_16">
     <!-- $\mathcal{O}(2m^3/3)$ -->
     <g transform="translate(94.6 102.926688) scale(0.1 -0.1)">
      <defs>
       <path id="STIXNonUnicode-Italic-e23b" d="M 2304 4237 
L 2342 4090 
Q 1773 3923 1350 3158 
Q 928 2394 928 1472 
Q 928 838 1216 515 
Q 1504 192 1984 192 
Q 2349 192 2739 435 
Q 3130 678 3430 1101 
Q 3968 1862 3968 2944 
Q 3968 3398 3744 3660 
Q 3520 3923 3219 3923 
Q 2918 3923 2691 3728 
Q 2464 3533 2464 3232 
Q 2464 2995 2694 2995 
Q 2714 2995 2784 3011 
Q 2854 3027 2918 3027 
Q 3104 3027 3104 2816 
Q 3104 2637 2944 2496 
Q 2784 2355 2592 2355 
Q 2323 2355 2179 2534 
Q 2035 2714 2035 2995 
Q 2035 3475 2505 3878 
Q 2976 4282 3571 4282 
Q 4096 4282 4381 3882 
Q 4666 3482 4666 2938 
Q 4666 2400 4422 1837 
Q 4179 1274 3808 877 
Q 2931 -64 1754 -64 
Q 1101 -64 672 304 
Q 243 672 243 1363 
Q 243 1933 435 2457 
Q 627 2982 931 3347 
Q 1235 3712 1596 3949 
Q 1958 4186 2304 4237 
z
" transform="scale(0.015625)"/>
       <path id="DejaVuSans-Oblique-6d" d="M 5747 2113 
L 5338 0 
L 4763 0 
L 5166 2094 
Q 5191 2228 5203 2325 
Q 5216 2422 5216 2491 
Q 5216 2772 5059 2928 
Q 4903 3084 4622 3084 
Q 4203 3084 3875 2770 
Q 3547 2456 3450 1953 
L 3066 0 
L 2491 0 
L 2900 2094 
Q 2925 2209 2937 2307 
Q 2950 2406 2950 2484 
Q 2950 2769 2794 2926 
Q 2638 3084 2363 3084 
Q 1938 3084 1609 2770 
Q 1281 2456 1184 1953 
L 800 0 
L 225 0 
L 909 3500 
L 1484 3500 
L 1375 2956 
Q 1609 3263 1923 3423 
Q 2238 3584 2597 3584 
Q 2978 3584 3223 3384 
Q 3469 3184 3519 2828 
Q 3781 3197 4126 3390 
Q 4472 3584 4856 3584 
Q 5306 3584 5551 3325 
Q 5797 3066 5797 2591 
Q 5797 2488 5784 2364 
Q 5772 2241 5747 2113 
z
" transform="scale(0.015625)"/>
       <path id="DejaVuSans-2f" d="M 1625 4666 
L 2156 4666 
L 531 -594 
L 0 -594 
L 1625 4666 
z
" transform="scale(0.015625)"/>
      </defs>
      <use xlink:href="#STIXNonUnicode-Italic-e23b" transform="translate(0 0.765625)"/>
      <use xlink:href="#DejaVuSans-28" transform="translate(73.699982 0.765625)"/>
      <use xlink:href="#DejaVuSans-32" transform="translate(112.713654 0.765625)"/>
      <use xlink:href="#DejaVuSans-Oblique-6d" transform="translate(176.3367 0.765625)"/>
      <use xlink:href="#DejaVuSans-33" transform="translate(278.398706 39.046875) scale(0.7)"/>
      <use xlink:href="#DejaVuSans-2f" transform="translate(325.669213 0.765625)"/>
      <use xlink:href="#DejaVuSans-33" transform="translate(359.36062 0.765625)"/>
      <use xlink:href="#DejaVuSans-29" transform="translate(422.983667 0.765625)"/>
     </g>
    </g>
   </g>
  </g>
 </g>
 <defs>
  <clipPath id="pbaf2ac5d52">
   <rect x="57.6" y="41.472" width="357.12" height="266.112"/>
  </clipPath>
 </defs>
</svg>
