<?xml version="1.0" encoding="utf-8" standalone="no"?>
<!DOCTYPE svg PUBLIC "-//W3C//DTD SVG 1.1//EN"
  "http://www.w3.org/Graphics/SVG/1.1/DTD/svg11.dtd">
<svg xmlns:xlink="http://www.w3.org/1999/xlink" width="460.8pt" height="345.6pt" viewBox="0 0 460.8 345.6" xmlns="http://www.w3.org/2000/svg" version="1.1">
 <metadata>
  <rdf:RDF xmlns:dc="http://purl.org/dc/elements/1.1/" xmlns:cc="http://creativecommons.org/ns#" xmlns:rdf="http://www.w3.org/1999/02/22-rdf-syntax-ns#">
   <cc:Work>
    <dc:type rdf:resource="http://purl.org/dc/dcmitype/StillImage"/>
    <dc:date>2024-03-10T11:39:15.671257</dc:date>
    <dc:format>image/svg+xml</dc:format>
    <dc:creator>
     <cc:Agent>
      <dc:title>Matplotlib v3.8.0, https://matplotlib.org/</dc:title>
     </cc:Agent>
    </dc:creator>
   </cc:Work>
  </rdf:RDF>
 </metadata>
 <defs>
  <style type="text/css">*{stroke-linejoin: round; stroke-linecap: butt}</style>
 </defs>
 <g id="figure_1">
  <g id="patch_1">
   <path d="M 0 345.6 
L 460.8 345.6 
L 460.8 0 
L 0 0 
z
" style="fill: #ffffff"/>
  </g>
  <g id="axes_1">
   <g id="patch_2">
    <path d="M 57.6 307.584 
L 414.72 307.584 
L 414.72 41.472 
L 57.6 41.472 
z
" style="fill: #ffffff"/>
   </g>
   <g id="matplotlib.axis_1">
    <g id="xtick_1">
     <g id="line2d_1">
      <path d="M 103.438867 307.584 
L 103.438867 41.472 
" clip-path="url(#pe7a8fe7232)" style="fill: none; stroke: #b0b0b0; stroke-width: 0.8; stroke-linecap: square"/>
     </g>
     <g id="line2d_2">
      <defs>
       <path id="meb18fc382b" d="M 0 0 
L 0 3.5 
" style="stroke: #000000; stroke-width: 0.8"/>
      </defs>
      <g>
       <use xlink:href="#meb18fc382b" x="103.438867" y="307.584" style="stroke: #000000; stroke-width: 0.8"/>
      </g>
     </g>
     <g id="text_1">
      <!-- $\mathdefault{10^{1}}$ -->
      <g transform="translate(94.638867 322.182437) scale(0.1 -0.1)">
       <defs>
        <path id="DejaVuSans-31" d="M 794 531 
L 1825 531 
L 1825 4091 
L 703 3866 
L 703 4441 
L 1819 4666 
L 2450 4666 
L 2450 531 
L 3481 531 
L 3481 0 
L 794 0 
L 794 531 
z
" transform="scale(0.015625)"/>
        <path id="DejaVuSans-30" d="M 2034 4250 
Q 1547 4250 1301 3770 
Q 1056 3291 1056 2328 
Q 1056 1369 1301 889 
Q 1547 409 2034 409 
Q 2525 409 2770 889 
Q 3016 1369 3016 2328 
Q 3016 3291 2770 3770 
Q 2525 4250 2034 4250 
z
M 2034 4750 
Q 2819 4750 3233 4129 
Q 3647 3509 3647 2328 
Q 3647 1150 3233 529 
Q 2819 -91 2034 -91 
Q 1250 -91 836 529 
Q 422 1150 422 2328 
Q 422 3509 836 4129 
Q 1250 4750 2034 4750 
z
" transform="scale(0.015625)"/>
       </defs>
       <use xlink:href="#DejaVuSans-31" transform="translate(0 0.684375)"/>
       <use xlink:href="#DejaVuSans-30" transform="translate(63.623047 0.684375)"/>
       <use xlink:href="#DejaVuSans-31" transform="translate(128.203125 38.965625) scale(0.7)"/>
      </g>
     </g>
    </g>
    <g id="xtick_2">
     <g id="line2d_3">
      <path d="M 201.788336 307.584 
L 201.788336 41.472 
" clip-path="url(#pe7a8fe7232)" style="fill: none; stroke: #b0b0b0; stroke-width: 0.8; stroke-linecap: square"/>
     </g>
     <g id="line2d_4">
      <g>
       <use xlink:href="#meb18fc382b" x="201.788336" y="307.584" style="stroke: #000000; stroke-width: 0.8"/>
      </g>
     </g>
     <g id="text_2">
      <!-- $\mathdefault{10^{2}}$ -->
      <g transform="translate(192.988336 322.182437) scale(0.1 -0.1)">
       <defs>
        <path id="DejaVuSans-32" d="M 1228 531 
L 3431 531 
L 3431 0 
L 469 0 
L 469 531 
Q 828 903 1448 1529 
Q 2069 2156 2228 2338 
Q 2531 2678 2651 2914 
Q 2772 3150 2772 3378 
Q 2772 3750 2511 3984 
Q 2250 4219 1831 4219 
Q 1534 4219 1204 4116 
Q 875 4013 500 3803 
L 500 4441 
Q 881 4594 1212 4672 
Q 1544 4750 1819 4750 
Q 2544 4750 2975 4387 
Q 3406 4025 3406 3419 
Q 3406 3131 3298 2873 
Q 3191 2616 2906 2266 
Q 2828 2175 2409 1742 
Q 1991 1309 1228 531 
z
" transform="scale(0.015625)"/>
       </defs>
       <use xlink:href="#DejaVuSans-31" transform="translate(0 0.765625)"/>
       <use xlink:href="#DejaVuSans-30" transform="translate(63.623047 0.765625)"/>
       <use xlink:href="#DejaVuSans-32" transform="translate(128.203125 39.046875) scale(0.7)"/>
      </g>
     </g>
    </g>
    <g id="xtick_3">
     <g id="line2d_5">
      <path d="M 300.137804 307.584 
L 300.137804 41.472 
" clip-path="url(#pe7a8fe7232)" style="fill: none; stroke: #b0b0b0; stroke-width: 0.8; stroke-linecap: square"/>
     </g>
     <g id="line2d_6">
      <g>
       <use xlink:href="#meb18fc382b" x="300.137804" y="307.584" style="stroke: #000000; stroke-width: 0.8"/>
      </g>
     </g>
     <g id="text_3">
      <!-- $\mathdefault{10^{3}}$ -->
      <g transform="translate(291.337804 322.182437) scale(0.1 -0.1)">
       <defs>
        <path id="DejaVuSans-33" d="M 2597 2516 
Q 3050 2419 3304 2112 
Q 3559 1806 3559 1356 
Q 3559 666 3084 287 
Q 2609 -91 1734 -91 
Q 1441 -91 1130 -33 
Q 819 25 488 141 
L 488 750 
Q 750 597 1062 519 
Q 1375 441 1716 441 
Q 2309 441 2620 675 
Q 2931 909 2931 1356 
Q 2931 1769 2642 2001 
Q 2353 2234 1838 2234 
L 1294 2234 
L 1294 2753 
L 1863 2753 
Q 2328 2753 2575 2939 
Q 2822 3125 2822 3475 
Q 2822 3834 2567 4026 
Q 2313 4219 1838 4219 
Q 1578 4219 1281 4162 
Q 984 4106 628 3988 
L 628 4550 
Q 988 4650 1302 4700 
Q 1616 4750 1894 4750 
Q 2613 4750 3031 4423 
Q 3450 4097 3450 3541 
Q 3450 3153 3228 2886 
Q 3006 2619 2597 2516 
z
" transform="scale(0.015625)"/>
       </defs>
       <use xlink:href="#DejaVuSans-31" transform="translate(0 0.765625)"/>
       <use xlink:href="#DejaVuSans-30" transform="translate(63.623047 0.765625)"/>
       <use xlink:href="#DejaVuSans-33" transform="translate(128.203125 39.046875) scale(0.7)"/>
      </g>
     </g>
    </g>
    <g id="xtick_4">
     <g id="line2d_7">
      <path d="M 398.487273 307.584 
L 398.487273 41.472 
" clip-path="url(#pe7a8fe7232)" style="fill: none; stroke: #b0b0b0; stroke-width: 0.8; stroke-linecap: square"/>
     </g>
     <g id="line2d_8">
      <g>
       <use xlink:href="#meb18fc382b" x="398.487273" y="307.584" style="stroke: #000000; stroke-width: 0.8"/>
      </g>
     </g>
     <g id="text_4">
      <!-- $\mathdefault{10^{4}}$ -->
      <g transform="translate(389.687273 322.182437) scale(0.1 -0.1)">
       <defs>
        <path id="DejaVuSans-34" d="M 2419 4116 
L 825 1625 
L 2419 1625 
L 2419 4116 
z
M 2253 4666 
L 3047 4666 
L 3047 1625 
L 3713 1625 
L 3713 1100 
L 3047 1100 
L 3047 0 
L 2419 0 
L 2419 1100 
L 313 1100 
L 313 1709 
L 2253 4666 
z
" transform="scale(0.015625)"/>
       </defs>
       <use xlink:href="#DejaVuSans-31" transform="translate(0 0.684375)"/>
       <use xlink:href="#DejaVuSans-30" transform="translate(63.623047 0.684375)"/>
       <use xlink:href="#DejaVuSans-34" transform="translate(128.203125 38.965625) scale(0.7)"/>
      </g>
     </g>
    </g>
    <g id="xtick_5">
     <g id="line2d_9">
      <path d="M 64.301679 307.584 
L 64.301679 41.472 
" clip-path="url(#pe7a8fe7232)" style="fill: none; stroke-dasharray: 0.8,1.32; stroke-dashoffset: 0; stroke: #b0b0b0; stroke-width: 0.8"/>
     </g>
     <g id="line2d_10">
      <defs>
       <path id="m03c6dc392f" d="M 0 0 
L 0 2 
" style="stroke: #000000; stroke-width: 0.6"/>
      </defs>
      <g>
       <use xlink:href="#m03c6dc392f" x="64.301679" y="307.584" style="stroke: #000000; stroke-width: 0.6"/>
      </g>
     </g>
    </g>
    <g id="xtick_6">
     <g id="line2d_11">
      <path d="M 73.832727 307.584 
L 73.832727 41.472 
" clip-path="url(#pe7a8fe7232)" style="fill: none; stroke-dasharray: 0.8,1.32; stroke-dashoffset: 0; stroke: #b0b0b0; stroke-width: 0.8"/>
     </g>
     <g id="line2d_12">
      <g>
       <use xlink:href="#m03c6dc392f" x="73.832727" y="307.584" style="stroke: #000000; stroke-width: 0.6"/>
      </g>
     </g>
    </g>
    <g id="xtick_7">
     <g id="line2d_13">
      <path d="M 81.620161 307.584 
L 81.620161 41.472 
" clip-path="url(#pe7a8fe7232)" style="fill: none; stroke-dasharray: 0.8,1.32; stroke-dashoffset: 0; stroke: #b0b0b0; stroke-width: 0.8"/>
     </g>
     <g id="line2d_14">
      <g>
       <use xlink:href="#m03c6dc392f" x="81.620161" y="307.584" style="stroke: #000000; stroke-width: 0.6"/>
      </g>
     </g>
    </g>
    <g id="xtick_8">
     <g id="line2d_15">
      <path d="M 88.204342 307.584 
L 88.204342 41.472 
" clip-path="url(#pe7a8fe7232)" style="fill: none; stroke-dasharray: 0.8,1.32; stroke-dashoffset: 0; stroke: #b0b0b0; stroke-width: 0.8"/>
     </g>
     <g id="line2d_16">
      <g>
       <use xlink:href="#m03c6dc392f" x="88.204342" y="307.584" style="stroke: #000000; stroke-width: 0.6"/>
      </g>
     </g>
    </g>
    <g id="xtick_9">
     <g id="line2d_17">
      <path d="M 93.907819 307.584 
L 93.907819 41.472 
" clip-path="url(#pe7a8fe7232)" style="fill: none; stroke-dasharray: 0.8,1.32; stroke-dashoffset: 0; stroke: #b0b0b0; stroke-width: 0.8"/>
     </g>
     <g id="line2d_18">
      <g>
       <use xlink:href="#m03c6dc392f" x="93.907819" y="307.584" style="stroke: #000000; stroke-width: 0.6"/>
      </g>
     </g>
    </g>
    <g id="xtick_10">
     <g id="line2d_19">
      <path d="M 98.938642 307.584 
L 98.938642 41.472 
" clip-path="url(#pe7a8fe7232)" style="fill: none; stroke-dasharray: 0.8,1.32; stroke-dashoffset: 0; stroke: #b0b0b0; stroke-width: 0.8"/>
     </g>
     <g id="line2d_20">
      <g>
       <use xlink:href="#m03c6dc392f" x="98.938642" y="307.584" style="stroke: #000000; stroke-width: 0.6"/>
      </g>
     </g>
    </g>
    <g id="xtick_11">
     <g id="line2d_21">
      <path d="M 133.045007 307.584 
L 133.045007 41.472 
" clip-path="url(#pe7a8fe7232)" style="fill: none; stroke-dasharray: 0.8,1.32; stroke-dashoffset: 0; stroke: #b0b0b0; stroke-width: 0.8"/>
     </g>
     <g id="line2d_22">
      <g>
       <use xlink:href="#m03c6dc392f" x="133.045007" y="307.584" style="stroke: #000000; stroke-width: 0.6"/>
      </g>
     </g>
    </g>
    <g id="xtick_12">
     <g id="line2d_23">
      <path d="M 150.363489 307.584 
L 150.363489 41.472 
" clip-path="url(#pe7a8fe7232)" style="fill: none; stroke-dasharray: 0.8,1.32; stroke-dashoffset: 0; stroke: #b0b0b0; stroke-width: 0.8"/>
     </g>
     <g id="line2d_24">
      <g>
       <use xlink:href="#m03c6dc392f" x="150.363489" y="307.584" style="stroke: #000000; stroke-width: 0.6"/>
      </g>
     </g>
    </g>
    <g id="xtick_13">
     <g id="line2d_25">
      <path d="M 162.651147 307.584 
L 162.651147 41.472 
" clip-path="url(#pe7a8fe7232)" style="fill: none; stroke-dasharray: 0.8,1.32; stroke-dashoffset: 0; stroke: #b0b0b0; stroke-width: 0.8"/>
     </g>
     <g id="line2d_26">
      <g>
       <use xlink:href="#m03c6dc392f" x="162.651147" y="307.584" style="stroke: #000000; stroke-width: 0.6"/>
      </g>
     </g>
    </g>
    <g id="xtick_14">
     <g id="line2d_27">
      <path d="M 172.182196 307.584 
L 172.182196 41.472 
" clip-path="url(#pe7a8fe7232)" style="fill: none; stroke-dasharray: 0.8,1.32; stroke-dashoffset: 0; stroke: #b0b0b0; stroke-width: 0.8"/>
     </g>
     <g id="line2d_28">
      <g>
       <use xlink:href="#m03c6dc392f" x="172.182196" y="307.584" style="stroke: #000000; stroke-width: 0.6"/>
      </g>
     </g>
    </g>
    <g id="xtick_15">
     <g id="line2d_29">
      <path d="M 179.969629 307.584 
L 179.969629 41.472 
" clip-path="url(#pe7a8fe7232)" style="fill: none; stroke-dasharray: 0.8,1.32; stroke-dashoffset: 0; stroke: #b0b0b0; stroke-width: 0.8"/>
     </g>
     <g id="line2d_30">
      <g>
       <use xlink:href="#m03c6dc392f" x="179.969629" y="307.584" style="stroke: #000000; stroke-width: 0.6"/>
      </g>
     </g>
    </g>
    <g id="xtick_16">
     <g id="line2d_31">
      <path d="M 186.55381 307.584 
L 186.55381 41.472 
" clip-path="url(#pe7a8fe7232)" style="fill: none; stroke-dasharray: 0.8,1.32; stroke-dashoffset: 0; stroke: #b0b0b0; stroke-width: 0.8"/>
     </g>
     <g id="line2d_32">
      <g>
       <use xlink:href="#m03c6dc392f" x="186.55381" y="307.584" style="stroke: #000000; stroke-width: 0.6"/>
      </g>
     </g>
    </g>
    <g id="xtick_17">
     <g id="line2d_33">
      <path d="M 192.257288 307.584 
L 192.257288 41.472 
" clip-path="url(#pe7a8fe7232)" style="fill: none; stroke-dasharray: 0.8,1.32; stroke-dashoffset: 0; stroke: #b0b0b0; stroke-width: 0.8"/>
     </g>
     <g id="line2d_34">
      <g>
       <use xlink:href="#m03c6dc392f" x="192.257288" y="307.584" style="stroke: #000000; stroke-width: 0.6"/>
      </g>
     </g>
    </g>
    <g id="xtick_18">
     <g id="line2d_35">
      <path d="M 197.288111 307.584 
L 197.288111 41.472 
" clip-path="url(#pe7a8fe7232)" style="fill: none; stroke-dasharray: 0.8,1.32; stroke-dashoffset: 0; stroke: #b0b0b0; stroke-width: 0.8"/>
     </g>
     <g id="line2d_36">
      <g>
       <use xlink:href="#m03c6dc392f" x="197.288111" y="307.584" style="stroke: #000000; stroke-width: 0.6"/>
      </g>
     </g>
    </g>
    <g id="xtick_19">
     <g id="line2d_37">
      <path d="M 231.394476 307.584 
L 231.394476 41.472 
" clip-path="url(#pe7a8fe7232)" style="fill: none; stroke-dasharray: 0.8,1.32; stroke-dashoffset: 0; stroke: #b0b0b0; stroke-width: 0.8"/>
     </g>
     <g id="line2d_38">
      <g>
       <use xlink:href="#m03c6dc392f" x="231.394476" y="307.584" style="stroke: #000000; stroke-width: 0.6"/>
      </g>
     </g>
    </g>
    <g id="xtick_20">
     <g id="line2d_39">
      <path d="M 248.712958 307.584 
L 248.712958 41.472 
" clip-path="url(#pe7a8fe7232)" style="fill: none; stroke-dasharray: 0.8,1.32; stroke-dashoffset: 0; stroke: #b0b0b0; stroke-width: 0.8"/>
     </g>
     <g id="line2d_40">
      <g>
       <use xlink:href="#m03c6dc392f" x="248.712958" y="307.584" style="stroke: #000000; stroke-width: 0.6"/>
      </g>
     </g>
    </g>
    <g id="xtick_21">
     <g id="line2d_41">
      <path d="M 261.000616 307.584 
L 261.000616 41.472 
" clip-path="url(#pe7a8fe7232)" style="fill: none; stroke-dasharray: 0.8,1.32; stroke-dashoffset: 0; stroke: #b0b0b0; stroke-width: 0.8"/>
     </g>
     <g id="line2d_42">
      <g>
       <use xlink:href="#m03c6dc392f" x="261.000616" y="307.584" style="stroke: #000000; stroke-width: 0.6"/>
      </g>
     </g>
    </g>
    <g id="xtick_22">
     <g id="line2d_43">
      <path d="M 270.531664 307.584 
L 270.531664 41.472 
" clip-path="url(#pe7a8fe7232)" style="fill: none; stroke-dasharray: 0.8,1.32; stroke-dashoffset: 0; stroke: #b0b0b0; stroke-width: 0.8"/>
     </g>
     <g id="line2d_44">
      <g>
       <use xlink:href="#m03c6dc392f" x="270.531664" y="307.584" style="stroke: #000000; stroke-width: 0.6"/>
      </g>
     </g>
    </g>
    <g id="xtick_23">
     <g id="line2d_45">
      <path d="M 278.319098 307.584 
L 278.319098 41.472 
" clip-path="url(#pe7a8fe7232)" style="fill: none; stroke-dasharray: 0.8,1.32; stroke-dashoffset: 0; stroke: #b0b0b0; stroke-width: 0.8"/>
     </g>
     <g id="line2d_46">
      <g>
       <use xlink:href="#m03c6dc392f" x="278.319098" y="307.584" style="stroke: #000000; stroke-width: 0.6"/>
      </g>
     </g>
    </g>
    <g id="xtick_24">
     <g id="line2d_47">
      <path d="M 284.903279 307.584 
L 284.903279 41.472 
" clip-path="url(#pe7a8fe7232)" style="fill: none; stroke-dasharray: 0.8,1.32; stroke-dashoffset: 0; stroke: #b0b0b0; stroke-width: 0.8"/>
     </g>
     <g id="line2d_48">
      <g>
       <use xlink:href="#m03c6dc392f" x="284.903279" y="307.584" style="stroke: #000000; stroke-width: 0.6"/>
      </g>
     </g>
    </g>
    <g id="xtick_25">
     <g id="line2d_49">
      <path d="M 290.606756 307.584 
L 290.606756 41.472 
" clip-path="url(#pe7a8fe7232)" style="fill: none; stroke-dasharray: 0.8,1.32; stroke-dashoffset: 0; stroke: #b0b0b0; stroke-width: 0.8"/>
     </g>
     <g id="line2d_50">
      <g>
       <use xlink:href="#m03c6dc392f" x="290.606756" y="307.584" style="stroke: #000000; stroke-width: 0.6"/>
      </g>
     </g>
    </g>
    <g id="xtick_26">
     <g id="line2d_51">
      <path d="M 295.637579 307.584 
L 295.637579 41.472 
" clip-path="url(#pe7a8fe7232)" style="fill: none; stroke-dasharray: 0.8,1.32; stroke-dashoffset: 0; stroke: #b0b0b0; stroke-width: 0.8"/>
     </g>
     <g id="line2d_52">
      <g>
       <use xlink:href="#m03c6dc392f" x="295.637579" y="307.584" style="stroke: #000000; stroke-width: 0.6"/>
      </g>
     </g>
    </g>
    <g id="xtick_27">
     <g id="line2d_53">
      <path d="M 329.743944 307.584 
L 329.743944 41.472 
" clip-path="url(#pe7a8fe7232)" style="fill: none; stroke-dasharray: 0.8,1.32; stroke-dashoffset: 0; stroke: #b0b0b0; stroke-width: 0.8"/>
     </g>
     <g id="line2d_54">
      <g>
       <use xlink:href="#m03c6dc392f" x="329.743944" y="307.584" style="stroke: #000000; stroke-width: 0.6"/>
      </g>
     </g>
    </g>
    <g id="xtick_28">
     <g id="line2d_55">
      <path d="M 347.062426 307.584 
L 347.062426 41.472 
" clip-path="url(#pe7a8fe7232)" style="fill: none; stroke-dasharray: 0.8,1.32; stroke-dashoffset: 0; stroke: #b0b0b0; stroke-width: 0.8"/>
     </g>
     <g id="line2d_56">
      <g>
       <use xlink:href="#m03c6dc392f" x="347.062426" y="307.584" style="stroke: #000000; stroke-width: 0.6"/>
      </g>
     </g>
    </g>
    <g id="xtick_29">
     <g id="line2d_57">
      <path d="M 359.350084 307.584 
L 359.350084 41.472 
" clip-path="url(#pe7a8fe7232)" style="fill: none; stroke-dasharray: 0.8,1.32; stroke-dashoffset: 0; stroke: #b0b0b0; stroke-width: 0.8"/>
     </g>
     <g id="line2d_58">
      <g>
       <use xlink:href="#m03c6dc392f" x="359.350084" y="307.584" style="stroke: #000000; stroke-width: 0.6"/>
      </g>
     </g>
    </g>
    <g id="xtick_30">
     <g id="line2d_59">
      <path d="M 368.881133 307.584 
L 368.881133 41.472 
" clip-path="url(#pe7a8fe7232)" style="fill: none; stroke-dasharray: 0.8,1.32; stroke-dashoffset: 0; stroke: #b0b0b0; stroke-width: 0.8"/>
     </g>
     <g id="line2d_60">
      <g>
       <use xlink:href="#m03c6dc392f" x="368.881133" y="307.584" style="stroke: #000000; stroke-width: 0.6"/>
      </g>
     </g>
    </g>
    <g id="xtick_31">
     <g id="line2d_61">
      <path d="M 376.668566 307.584 
L 376.668566 41.472 
" clip-path="url(#pe7a8fe7232)" style="fill: none; stroke-dasharray: 0.8,1.32; stroke-dashoffset: 0; stroke: #b0b0b0; stroke-width: 0.8"/>
     </g>
     <g id="line2d_62">
      <g>
       <use xlink:href="#m03c6dc392f" x="376.668566" y="307.584" style="stroke: #000000; stroke-width: 0.6"/>
      </g>
     </g>
    </g>
    <g id="xtick_32">
     <g id="line2d_63">
      <path d="M 383.252747 307.584 
L 383.252747 41.472 
" clip-path="url(#pe7a8fe7232)" style="fill: none; stroke-dasharray: 0.8,1.32; stroke-dashoffset: 0; stroke: #b0b0b0; stroke-width: 0.8"/>
     </g>
     <g id="line2d_64">
      <g>
       <use xlink:href="#m03c6dc392f" x="383.252747" y="307.584" style="stroke: #000000; stroke-width: 0.6"/>
      </g>
     </g>
    </g>
    <g id="xtick_33">
     <g id="line2d_65">
      <path d="M 388.956224 307.584 
L 388.956224 41.472 
" clip-path="url(#pe7a8fe7232)" style="fill: none; stroke-dasharray: 0.8,1.32; stroke-dashoffset: 0; stroke: #b0b0b0; stroke-width: 0.8"/>
     </g>
     <g id="line2d_66">
      <g>
       <use xlink:href="#m03c6dc392f" x="388.956224" y="307.584" style="stroke: #000000; stroke-width: 0.6"/>
      </g>
     </g>
    </g>
    <g id="xtick_34">
     <g id="line2d_67">
      <path d="M 393.987048 307.584 
L 393.987048 41.472 
" clip-path="url(#pe7a8fe7232)" style="fill: none; stroke-dasharray: 0.8,1.32; stroke-dashoffset: 0; stroke: #b0b0b0; stroke-width: 0.8"/>
     </g>
     <g id="line2d_68">
      <g>
       <use xlink:href="#m03c6dc392f" x="393.987048" y="307.584" style="stroke: #000000; stroke-width: 0.6"/>
      </g>
     </g>
    </g>
    <g id="text_5">
     <!-- matrix size -->
     <g transform="translate(208.577969 335.860562) scale(0.1 -0.1)">
      <defs>
       <path id="DejaVuSans-6d" d="M 3328 2828 
Q 3544 3216 3844 3400 
Q 4144 3584 4550 3584 
Q 5097 3584 5394 3201 
Q 5691 2819 5691 2113 
L 5691 0 
L 5113 0 
L 5113 2094 
Q 5113 2597 4934 2840 
Q 4756 3084 4391 3084 
Q 3944 3084 3684 2787 
Q 3425 2491 3425 1978 
L 3425 0 
L 2847 0 
L 2847 2094 
Q 2847 2600 2669 2842 
Q 2491 3084 2119 3084 
Q 1678 3084 1418 2786 
Q 1159 2488 1159 1978 
L 1159 0 
L 581 0 
L 581 3500 
L 1159 3500 
L 1159 2956 
Q 1356 3278 1631 3431 
Q 1906 3584 2284 3584 
Q 2666 3584 2933 3390 
Q 3200 3197 3328 2828 
z
" transform="scale(0.015625)"/>
       <path id="DejaVuSans-61" d="M 2194 1759 
Q 1497 1759 1228 1600 
Q 959 1441 959 1056 
Q 959 750 1161 570 
Q 1363 391 1709 391 
Q 2188 391 2477 730 
Q 2766 1069 2766 1631 
L 2766 1759 
L 2194 1759 
z
M 3341 1997 
L 3341 0 
L 2766 0 
L 2766 531 
Q 2569 213 2275 61 
Q 1981 -91 1556 -91 
Q 1019 -91 701 211 
Q 384 513 384 1019 
Q 384 1609 779 1909 
Q 1175 2209 1959 2209 
L 2766 2209 
L 2766 2266 
Q 2766 2663 2505 2880 
Q 2244 3097 1772 3097 
Q 1472 3097 1187 3025 
Q 903 2953 641 2809 
L 641 3341 
Q 956 3463 1253 3523 
Q 1550 3584 1831 3584 
Q 2591 3584 2966 3190 
Q 3341 2797 3341 1997 
z
" transform="scale(0.015625)"/>
       <path id="DejaVuSans-74" d="M 1172 4494 
L 1172 3500 
L 2356 3500 
L 2356 3053 
L 1172 3053 
L 1172 1153 
Q 1172 725 1289 603 
Q 1406 481 1766 481 
L 2356 481 
L 2356 0 
L 1766 0 
Q 1100 0 847 248 
Q 594 497 594 1153 
L 594 3053 
L 172 3053 
L 172 3500 
L 594 3500 
L 594 4494 
L 1172 4494 
z
" transform="scale(0.015625)"/>
       <path id="DejaVuSans-72" d="M 2631 2963 
Q 2534 3019 2420 3045 
Q 2306 3072 2169 3072 
Q 1681 3072 1420 2755 
Q 1159 2438 1159 1844 
L 1159 0 
L 581 0 
L 581 3500 
L 1159 3500 
L 1159 2956 
Q 1341 3275 1631 3429 
Q 1922 3584 2338 3584 
Q 2397 3584 2469 3576 
Q 2541 3569 2628 3553 
L 2631 2963 
z
" transform="scale(0.015625)"/>
       <path id="DejaVuSans-69" d="M 603 3500 
L 1178 3500 
L 1178 0 
L 603 0 
L 603 3500 
z
M 603 4863 
L 1178 4863 
L 1178 4134 
L 603 4134 
L 603 4863 
z
" transform="scale(0.015625)"/>
       <path id="DejaVuSans-78" d="M 3513 3500 
L 2247 1797 
L 3578 0 
L 2900 0 
L 1881 1375 
L 863 0 
L 184 0 
L 1544 1831 
L 300 3500 
L 978 3500 
L 1906 2253 
L 2834 3500 
L 3513 3500 
z
" transform="scale(0.015625)"/>
       <path id="DejaVuSans-20" transform="scale(0.015625)"/>
       <path id="DejaVuSans-73" d="M 2834 3397 
L 2834 2853 
Q 2591 2978 2328 3040 
Q 2066 3103 1784 3103 
Q 1356 3103 1142 2972 
Q 928 2841 928 2578 
Q 928 2378 1081 2264 
Q 1234 2150 1697 2047 
L 1894 2003 
Q 2506 1872 2764 1633 
Q 3022 1394 3022 966 
Q 3022 478 2636 193 
Q 2250 -91 1575 -91 
Q 1294 -91 989 -36 
Q 684 19 347 128 
L 347 722 
Q 666 556 975 473 
Q 1284 391 1588 391 
Q 1994 391 2212 530 
Q 2431 669 2431 922 
Q 2431 1156 2273 1281 
Q 2116 1406 1581 1522 
L 1381 1569 
Q 847 1681 609 1914 
Q 372 2147 372 2553 
Q 372 3047 722 3315 
Q 1072 3584 1716 3584 
Q 2034 3584 2315 3537 
Q 2597 3491 2834 3397 
z
" transform="scale(0.015625)"/>
       <path id="DejaVuSans-7a" d="M 353 3500 
L 3084 3500 
L 3084 2975 
L 922 459 
L 3084 459 
L 3084 0 
L 275 0 
L 275 525 
L 2438 3041 
L 353 3041 
L 353 3500 
z
" transform="scale(0.015625)"/>
       <path id="DejaVuSans-65" d="M 3597 1894 
L 3597 1613 
L 953 1613 
Q 991 1019 1311 708 
Q 1631 397 2203 397 
Q 2534 397 2845 478 
Q 3156 559 3463 722 
L 3463 178 
Q 3153 47 2828 -22 
Q 2503 -91 2169 -91 
Q 1331 -91 842 396 
Q 353 884 353 1716 
Q 353 2575 817 3079 
Q 1281 3584 2069 3584 
Q 2775 3584 3186 3129 
Q 3597 2675 3597 1894 
z
M 3022 2063 
Q 3016 2534 2758 2815 
Q 2500 3097 2075 3097 
Q 1594 3097 1305 2825 
Q 1016 2553 972 2059 
L 3022 2063 
z
" transform="scale(0.015625)"/>
      </defs>
      <use xlink:href="#DejaVuSans-6d"/>
      <use xlink:href="#DejaVuSans-61" x="97.412109"/>
      <use xlink:href="#DejaVuSans-74" x="158.691406"/>
      <use xlink:href="#DejaVuSans-72" x="197.900391"/>
      <use xlink:href="#DejaVuSans-69" x="239.013672"/>
      <use xlink:href="#DejaVuSans-78" x="266.796875"/>
      <use xlink:href="#DejaVuSans-20" x="325.976562"/>
      <use xlink:href="#DejaVuSans-73" x="357.763672"/>
      <use xlink:href="#DejaVuSans-69" x="409.863281"/>
      <use xlink:href="#DejaVuSans-7a" x="437.646484"/>
      <use xlink:href="#DejaVuSans-65" x="490.136719"/>
     </g>
    </g>
   </g>
   <g id="matplotlib.axis_2">
    <g id="ytick_1">
     <g id="line2d_69">
      <path d="M 57.6 272.971584 
L 414.72 272.971584 
" clip-path="url(#pe7a8fe7232)" style="fill: none; stroke: #b0b0b0; stroke-width: 0.8; stroke-linecap: square"/>
     </g>
     <g id="line2d_70">
      <defs>
       <path id="m07c1ba26ac" d="M 0 0 
L -3.5 0 
" style="stroke: #000000; stroke-width: 0.8"/>
      </defs>
      <g>
       <use xlink:href="#m07c1ba26ac" x="57.6" y="272.971584" style="stroke: #000000; stroke-width: 0.8"/>
      </g>
     </g>
     <g id="text_6">
      <!-- $\mathdefault{10^{-6}}$ -->
      <g transform="translate(27.1 276.770803) scale(0.1 -0.1)">
       <defs>
        <path id="DejaVuSans-2212" d="M 678 2272 
L 4684 2272 
L 4684 1741 
L 678 1741 
L 678 2272 
z
" transform="scale(0.015625)"/>
        <path id="DejaVuSans-36" d="M 2113 2584 
Q 1688 2584 1439 2293 
Q 1191 2003 1191 1497 
Q 1191 994 1439 701 
Q 1688 409 2113 409 
Q 2538 409 2786 701 
Q 3034 994 3034 1497 
Q 3034 2003 2786 2293 
Q 2538 2584 2113 2584 
z
M 3366 4563 
L 3366 3988 
Q 3128 4100 2886 4159 
Q 2644 4219 2406 4219 
Q 1781 4219 1451 3797 
Q 1122 3375 1075 2522 
Q 1259 2794 1537 2939 
Q 1816 3084 2150 3084 
Q 2853 3084 3261 2657 
Q 3669 2231 3669 1497 
Q 3669 778 3244 343 
Q 2819 -91 2113 -91 
Q 1303 -91 875 529 
Q 447 1150 447 2328 
Q 447 3434 972 4092 
Q 1497 4750 2381 4750 
Q 2619 4750 2861 4703 
Q 3103 4656 3366 4563 
z
" transform="scale(0.015625)"/>
       </defs>
       <use xlink:href="#DejaVuSans-31" transform="translate(0 0.765625)"/>
       <use xlink:href="#DejaVuSans-30" transform="translate(63.623047 0.765625)"/>
       <use xlink:href="#DejaVuSans-2212" transform="translate(128.203125 39.046875) scale(0.7)"/>
       <use xlink:href="#DejaVuSans-36" transform="translate(186.855469 39.046875) scale(0.7)"/>
      </g>
     </g>
    </g>
    <g id="ytick_2">
     <g id="line2d_71">
      <path d="M 57.6 223.106308 
L 414.72 223.106308 
" clip-path="url(#pe7a8fe7232)" style="fill: none; stroke: #b0b0b0; stroke-width: 0.8; stroke-linecap: square"/>
     </g>
     <g id="line2d_72">
      <g>
       <use xlink:href="#m07c1ba26ac" x="57.6" y="223.106308" style="stroke: #000000; stroke-width: 0.8"/>
      </g>
     </g>
     <g id="text_7">
      <!-- $\mathdefault{10^{-4}}$ -->
      <g transform="translate(27.1 226.905526) scale(0.1 -0.1)">
       <use xlink:href="#DejaVuSans-31" transform="translate(0 0.684375)"/>
       <use xlink:href="#DejaVuSans-30" transform="translate(63.623047 0.684375)"/>
       <use xlink:href="#DejaVuSans-2212" transform="translate(128.203125 38.965625) scale(0.7)"/>
       <use xlink:href="#DejaVuSans-34" transform="translate(186.855469 38.965625) scale(0.7)"/>
      </g>
     </g>
    </g>
    <g id="ytick_3">
     <g id="line2d_73">
      <path d="M 57.6 173.241031 
L 414.72 173.241031 
" clip-path="url(#pe7a8fe7232)" style="fill: none; stroke: #b0b0b0; stroke-width: 0.8; stroke-linecap: square"/>
     </g>
     <g id="line2d_74">
      <g>
       <use xlink:href="#m07c1ba26ac" x="57.6" y="173.241031" style="stroke: #000000; stroke-width: 0.8"/>
      </g>
     </g>
     <g id="text_8">
      <!-- $\mathdefault{10^{-2}}$ -->
      <g transform="translate(27.1 177.04025) scale(0.1 -0.1)">
       <use xlink:href="#DejaVuSans-31" transform="translate(0 0.765625)"/>
       <use xlink:href="#DejaVuSans-30" transform="translate(63.623047 0.765625)"/>
       <use xlink:href="#DejaVuSans-2212" transform="translate(128.203125 39.046875) scale(0.7)"/>
       <use xlink:href="#DejaVuSans-32" transform="translate(186.855469 39.046875) scale(0.7)"/>
      </g>
     </g>
    </g>
    <g id="ytick_4">
     <g id="line2d_75">
      <path d="M 57.6 123.375755 
L 414.72 123.375755 
" clip-path="url(#pe7a8fe7232)" style="fill: none; stroke: #b0b0b0; stroke-width: 0.8; stroke-linecap: square"/>
     </g>
     <g id="line2d_76">
      <g>
       <use xlink:href="#m07c1ba26ac" x="57.6" y="123.375755" style="stroke: #000000; stroke-width: 0.8"/>
      </g>
     </g>
     <g id="text_9">
      <!-- $\mathdefault{10^{0}}$ -->
      <g transform="translate(33 127.174974) scale(0.1 -0.1)">
       <use xlink:href="#DejaVuSans-31" transform="translate(0 0.765625)"/>
       <use xlink:href="#DejaVuSans-30" transform="translate(63.623047 0.765625)"/>
       <use xlink:href="#DejaVuSans-30" transform="translate(128.203125 39.046875) scale(0.7)"/>
      </g>
     </g>
    </g>
    <g id="ytick_5">
     <g id="line2d_77">
      <path d="M 57.6 73.510478 
L 414.72 73.510478 
" clip-path="url(#pe7a8fe7232)" style="fill: none; stroke: #b0b0b0; stroke-width: 0.8; stroke-linecap: square"/>
     </g>
     <g id="line2d_78">
      <g>
       <use xlink:href="#m07c1ba26ac" x="57.6" y="73.510478" style="stroke: #000000; stroke-width: 0.8"/>
      </g>
     </g>
     <g id="text_10">
      <!-- $\mathdefault{10^{2}}$ -->
      <g transform="translate(33 77.309697) scale(0.1 -0.1)">
       <use xlink:href="#DejaVuSans-31" transform="translate(0 0.765625)"/>
       <use xlink:href="#DejaVuSans-30" transform="translate(63.623047 0.765625)"/>
       <use xlink:href="#DejaVuSans-32" transform="translate(128.203125 39.046875) scale(0.7)"/>
      </g>
     </g>
    </g>
    <g id="text_11">
     <!-- execution time [s] -->
     <g transform="translate(21.020312 219.872531) rotate(-90) scale(0.1 -0.1)">
      <defs>
       <path id="DejaVuSans-63" d="M 3122 3366 
L 3122 2828 
Q 2878 2963 2633 3030 
Q 2388 3097 2138 3097 
Q 1578 3097 1268 2742 
Q 959 2388 959 1747 
Q 959 1106 1268 751 
Q 1578 397 2138 397 
Q 2388 397 2633 464 
Q 2878 531 3122 666 
L 3122 134 
Q 2881 22 2623 -34 
Q 2366 -91 2075 -91 
Q 1284 -91 818 406 
Q 353 903 353 1747 
Q 353 2603 823 3093 
Q 1294 3584 2113 3584 
Q 2378 3584 2631 3529 
Q 2884 3475 3122 3366 
z
" transform="scale(0.015625)"/>
       <path id="DejaVuSans-75" d="M 544 1381 
L 544 3500 
L 1119 3500 
L 1119 1403 
Q 1119 906 1312 657 
Q 1506 409 1894 409 
Q 2359 409 2629 706 
Q 2900 1003 2900 1516 
L 2900 3500 
L 3475 3500 
L 3475 0 
L 2900 0 
L 2900 538 
Q 2691 219 2414 64 
Q 2138 -91 1772 -91 
Q 1169 -91 856 284 
Q 544 659 544 1381 
z
M 1991 3584 
L 1991 3584 
z
" transform="scale(0.015625)"/>
       <path id="DejaVuSans-6f" d="M 1959 3097 
Q 1497 3097 1228 2736 
Q 959 2375 959 1747 
Q 959 1119 1226 758 
Q 1494 397 1959 397 
Q 2419 397 2687 759 
Q 2956 1122 2956 1747 
Q 2956 2369 2687 2733 
Q 2419 3097 1959 3097 
z
M 1959 3584 
Q 2709 3584 3137 3096 
Q 3566 2609 3566 1747 
Q 3566 888 3137 398 
Q 2709 -91 1959 -91 
Q 1206 -91 779 398 
Q 353 888 353 1747 
Q 353 2609 779 3096 
Q 1206 3584 1959 3584 
z
" transform="scale(0.015625)"/>
       <path id="DejaVuSans-6e" d="M 3513 2113 
L 3513 0 
L 2938 0 
L 2938 2094 
Q 2938 2591 2744 2837 
Q 2550 3084 2163 3084 
Q 1697 3084 1428 2787 
Q 1159 2491 1159 1978 
L 1159 0 
L 581 0 
L 581 3500 
L 1159 3500 
L 1159 2956 
Q 1366 3272 1645 3428 
Q 1925 3584 2291 3584 
Q 2894 3584 3203 3211 
Q 3513 2838 3513 2113 
z
" transform="scale(0.015625)"/>
       <path id="DejaVuSans-5b" d="M 550 4863 
L 1875 4863 
L 1875 4416 
L 1125 4416 
L 1125 -397 
L 1875 -397 
L 1875 -844 
L 550 -844 
L 550 4863 
z
" transform="scale(0.015625)"/>
       <path id="DejaVuSans-5d" d="M 1947 4863 
L 1947 -844 
L 622 -844 
L 622 -397 
L 1369 -397 
L 1369 4416 
L 622 4416 
L 622 4863 
L 1947 4863 
z
" transform="scale(0.015625)"/>
      </defs>
      <use xlink:href="#DejaVuSans-65"/>
      <use xlink:href="#DejaVuSans-78" x="59.773438"/>
      <use xlink:href="#DejaVuSans-65" x="115.828125"/>
      <use xlink:href="#DejaVuSans-63" x="177.351562"/>
      <use xlink:href="#DejaVuSans-75" x="232.332031"/>
      <use xlink:href="#DejaVuSans-74" x="295.710938"/>
      <use xlink:href="#DejaVuSans-69" x="334.919922"/>
      <use xlink:href="#DejaVuSans-6f" x="362.703125"/>
      <use xlink:href="#DejaVuSans-6e" x="423.884766"/>
      <use xlink:href="#DejaVuSans-20" x="487.263672"/>
      <use xlink:href="#DejaVuSans-74" x="519.050781"/>
      <use xlink:href="#DejaVuSans-69" x="558.259766"/>
      <use xlink:href="#DejaVuSans-6d" x="586.042969"/>
      <use xlink:href="#DejaVuSans-65" x="683.455078"/>
      <use xlink:href="#DejaVuSans-20" x="744.978516"/>
      <use xlink:href="#DejaVuSans-5b" x="776.765625"/>
      <use xlink:href="#DejaVuSans-73" x="815.779297"/>
      <use xlink:href="#DejaVuSans-5d" x="867.878906"/>
     </g>
    </g>
   </g>
   <g id="line2d_79">
    <path d="M 73.832727 138.882268 
L 73.832727 253.187268 
L 73.832727 256.928529 
L 81.620161 257.455538 
L 81.620161 258.59905 
L 88.204342 257.099763 
L 88.204342 258.598883 
L 93.907819 256.260693 
L 98.938642 255.943639 
L 98.938642 257.458245 
L 103.438867 257.278778 
L 107.509816 256.102133 
L 111.226301 255.943639 
L 114.645135 255.186519 
L 117.810482 254.342441 
L 120.757349 255.943769 
L 126.103396 253.94288 
L 128.544783 254.207572 
L 130.854136 251.925767 
L 135.128964 251.294919 
L 139.014608 250.506654 
L 142.576056 249.002046 
L 145.863264 248.051981 
L 148.915465 247.110754 
L 151.764029 245.381999 
L 155.709536 243.193337 
L 158.150923 241.579109 
L 161.569757 239.957829 
L 164.735104 238.025388 
L 168.620748 235.784505 
L 172.182196 229.15507 
L 175.469404 231.329334 
L 178.521605 229.504412 
L 181.370169 227.480125 
L 185.315676 224.637551 
L 188.346212 216.650758 
L 191.720015 214.068335 
L 194.846725 211.18889 
L 198.226888 209.306891 
L 201.35906 207.077076 
L 204.678215 203.99995 
L 208.127745 201.570257 
L 211.319384 198.406943 
L 214.606593 196.165993 
L 217.952352 193.810629 
L 221.326155 191.057906 
L 224.452865 188.823198 
L 227.833028 186.066212 
L 231.180377 183.75182 
L 234.483482 181.272061 
L 237.733885 178.635281 
L 240.925524 176.400154 
L 244.212733 173.893393 
L 247.558492 172.069024 
L 250.796914 169.441143 
L 254.184446 167.171851 
L 257.439168 164.495357 
L 260.679064 156.662632 
L 263.990174 152.284248 
L 267.247872 155.037819 
L 270.531664 148.424245 
L 273.818873 147.714704 
L 277.091431 147.690726 
L 280.403054 145.620163 
L 283.665145 144.294652 
L 286.987235 143.154695 
L 290.231376 141.327129 
L 293.546504 139.588467 
L 296.807862 136.733424 
L 300.09507 133.606145 
L 303.385446 130.10351 
L 306.660924 128.216362 
L 309.941342 125.736578 
L 313.208426 122.972318 
L 316.476992 119.881172 
L 319.756646 118.244776 
L 323.052848 115.709985 
L 326.32155 113.691587 
L 329.615614 111.264368 
L 329.646529 346.6 
" clip-path="url(#pe7a8fe7232)" style="fill: none; stroke: #1f77b4; stroke-width: 1.5; stroke-linecap: square"/>
   </g>
   <g id="line2d_80">
    <path d="M 73.832727 229.146233 
L 73.832727 240.322232 
L 73.832727 241.413809 
L 81.620161 241.224034 
L 81.620161 241.345703 
L 88.204342 240.958589 
L 88.204342 240.597734 
L 93.907819 240.322407 
L 98.938642 240.150866 
L 98.938642 239.898268 
L 103.438867 239.229908 
L 107.509816 238.791857 
L 111.226301 238.045597 
L 114.645135 237.768634 
L 117.810482 237.385041 
L 120.757349 237.291136 
L 126.103396 236.717993 
L 128.544783 235.727865 
L 130.854136 235.299804 
L 135.128964 234.888023 
L 139.014608 234.3266 
L 142.576056 233.705291 
L 145.863264 233.175086 
L 148.915465 231.089664 
L 151.764029 230.50004 
L 155.709536 229.865346 
L 158.150923 230.7934 
L 161.569757 229.936118 
L 164.735104 229.097858 
L 168.620748 228.271072 
L 172.182196 227.491588 
L 175.469404 226.690438 
L 178.521605 225.571001 
L 181.370169 222.319919 
L 185.315676 219.884503 
L 188.346212 217.616063 
L 191.720015 216.828604 
L 194.846725 215.618373 
L 198.226888 212.31557 
L 201.35906 207.518475 
L 204.678215 206.32481 
L 208.127745 206.165449 
L 211.319384 207.138052 
L 214.606593 205.976217 
L 217.952352 204.848326 
L 221.326155 203.644476 
L 224.452865 202.272103 
L 227.833028 200.8403 
L 231.180377 199.413856 
L 234.483482 198.472303 
L 237.733885 196.122727 
L 240.925524 194.307766 
L 244.212733 192.556039 
L 247.558492 191.149493 
L 250.796914 189.808237 
L 254.184446 166.994831 
L 257.439168 163.044128 
L 260.679064 158.587749 
L 263.990174 161.993273 
L 267.247872 164.754529 
L 270.531664 172.000289 
L 273.818873 175.480536 
L 277.091431 174.160791 
L 280.403054 171.889607 
L 283.665145 170.382687 
L 286.987235 164.715653 
L 290.231376 164.370782 
L 293.546504 163.255634 
L 296.807862 156.243212 
L 300.09507 155.45165 
L 303.385446 154.431295 
L 306.660924 151.399266 
L 309.941342 139.59373 
L 313.208426 139.150886 
L 316.476992 136.870585 
L 319.756646 143.36622 
L 323.052848 142.545113 
L 326.32155 146.728177 
L 329.615614 144.691072 
L 332.892508 142.925002 
L 336.175307 142.094344 
L 339.445502 140.717978 
L 342.735862 139.110463 
L 346.010231 137.440971 
L 349.295278 135.723493 
L 352.571475 133.705483 
L 355.846631 132.174127 
L 359.125252 130.970778 
L 362.40928 129.701759 
L 365.689493 128.001597 
L 368.966473 125.837973 
L 372.247366 123.842383 
L 375.528726 119.511958 
L 378.806726 116.22417 
L 382.089922 113.600267 
L 385.36575 111.180375 
L 388.64543 109.116322 
L 391.925866 107.673368 
" clip-path="url(#pe7a8fe7232)" style="fill: none; stroke: #ff7f0e; stroke-width: 1.5; stroke-linecap: square"/>
   </g>
   <g id="line2d_81">
    <path d="M 73.832727 239.118493 
L 73.832727 248.05196 
L 73.832727 249.167773 
L 81.620161 249.252632 
L 81.620161 249.224396 
L 88.204342 249.001977 
L 88.204342 247.368216 
L 93.907819 247.391998 
L 98.938642 247.226667 
L 98.938642 248.49039 
L 103.438867 248.230856 
L 107.509816 248.205545 
L 111.226301 248.205161 
L 114.645135 248.027398 
L 117.810482 247.510978 
L 120.757349 247.273978 
L 126.103396 247.018721 
L 128.544783 246.746907 
L 130.854136 246.159004 
L 135.128964 245.886959 
L 139.014608 245.581223 
L 142.576056 245.500987 
L 145.863264 245.30322 
L 148.915465 242.386001 
L 151.764029 241.318698 
L 155.709536 240.434305 
L 158.150923 241.704846 
L 161.569757 241.52359 
L 164.735104 240.906177 
L 168.620748 239.969489 
L 172.182196 239.140841 
L 175.469404 238.632166 
L 178.521605 220.608361 
L 181.370169 219.177984 
L 185.315676 217.925631 
L 188.346212 225.794914 
L 191.720015 226.485337 
L 194.846725 226.519817 
L 198.226888 225.695166 
L 201.35906 224.030575 
L 204.678215 222.957225 
L 208.127745 221.561828 
L 211.319384 219.929575 
L 214.606593 218.615842 
L 217.952352 217.377351 
L 221.326155 216.748451 
L 224.452865 215.170737 
L 227.833028 213.641417 
L 231.180377 209.942612 
L 234.483482 209.068496 
L 237.733885 207.050153 
L 240.925524 205.53154 
L 244.212733 202.88035 
L 247.558492 199.493292 
L 250.796914 197.631733 
L 254.184446 196.883698 
L 257.439168 195.883022 
L 260.679064 194.066517 
L 263.990174 191.444965 
L 267.247872 166.486589 
L 270.531664 166.242002 
L 273.818873 165.919513 
L 277.091431 183.771334 
L 280.403054 182.404762 
L 283.665145 179.482788 
L 286.987235 178.35784 
L 290.231376 176.706319 
L 293.546504 175.78645 
L 296.807862 174.297661 
L 300.09507 172.004763 
L 303.385446 170.563341 
L 306.660924 168.160521 
L 309.941342 167.000353 
L 313.208426 164.563302 
L 316.476992 162.007859 
L 319.756646 160.477748 
L 323.052848 159.360086 
L 326.32155 158.302606 
L 329.615614 156.246107 
L 332.892508 154.596814 
L 336.175307 152.79812 
L 339.445502 151.199158 
L 342.735862 149.485952 
L 346.010231 147.960307 
L 349.295278 142.56356 
L 352.571475 141.176342 
L 355.846631 139.708933 
L 359.125252 140.779638 
L 362.40928 138.933022 
L 365.689493 137.094387 
L 368.966473 134.847596 
L 372.247366 132.786395 
L 375.528726 130.589259 
L 378.806726 128.02533 
L 382.089922 125.526415 
L 385.36575 121.937477 
L 388.64543 119.84979 
L 391.925866 117.479571 
" clip-path="url(#pe7a8fe7232)" style="fill: none; stroke: #2ca02c; stroke-width: 1.5; stroke-linecap: square"/>
   </g>
   <g id="line2d_82">
    <path d="M 73.832727 295.488 
L 73.832727 295.488 
L 73.832727 295.488 
L 81.620161 289.565408 
L 81.620161 289.565408 
L 88.204342 284.557928 
L 88.204342 284.557928 
L 93.907819 280.220251 
L 98.938642 276.394149 
L 98.938642 276.394149 
L 103.438867 272.971584 
L 107.509816 269.875498 
L 111.226301 267.048992 
L 114.645135 264.448859 
L 117.810482 262.041512 
L 120.757349 259.800325 
L 126.103396 255.734485 
L 128.544783 253.877733 
L 130.854136 252.121396 
L 135.128964 248.870253 
L 139.014608 245.915096 
L 142.576056 243.206501 
L 145.863264 240.706474 
L 148.915465 238.385178 
L 151.764029 236.218754 
L 155.709536 233.218069 
L 158.150923 231.361317 
L 161.569757 228.761184 
L 164.735104 226.353837 
L 168.620748 223.39868 
L 172.182196 220.690085 
L 175.469404 218.190058 
L 178.521605 215.868762 
L 181.370169 213.702338 
L 185.315676 210.701653 
L 188.346212 208.396834 
L 191.720015 205.83095 
L 194.846725 203.452987 
L 198.226888 200.882264 
L 201.35906 198.500148 
L 204.678215 195.975824 
L 208.127745 193.352346 
L 211.319384 190.925003 
L 214.606593 188.424975 
L 217.952352 185.880419 
L 221.326155 183.314534 
L 224.452865 180.936571 
L 227.833028 178.365848 
L 231.180377 175.820083 
L 234.483482 173.307966 
L 237.733885 170.83593 
L 240.925524 168.408587 
L 244.212733 165.908559 
L 247.558492 163.364003 
L 250.796914 160.901079 
L 254.184446 158.324753 
L 257.439168 155.849433 
L 260.679064 153.385388 
L 263.990174 150.867183 
L 267.247872 148.389599 
L 270.531664 145.892171 
L 273.818873 143.392143 
L 277.091431 140.903258 
L 280.403054 138.384663 
L 283.665145 135.903739 
L 286.987235 133.377183 
L 290.231376 130.90991 
L 293.546504 128.38865 
L 296.807862 125.908283 
L 300.09507 123.408255 
L 303.385446 120.90582 
L 306.660924 118.414714 
L 309.941342 115.919851 
L 313.208426 113.435129 
L 316.476992 110.94928 
L 319.756646 108.454998 
L 323.052848 105.948132 
L 326.32155 103.462179 
L 329.615614 100.956938 
L 332.892508 98.464756 
L 336.175307 95.968082 
L 339.445502 93.480994 
L 342.735862 90.97857 
L 346.010231 88.488308 
L 349.295278 85.989925 
L 352.571475 83.498272 
L 355.846631 81.007412 
L 359.125252 78.513915 
L 362.40928 76.016307 
L 365.689493 73.5216 
L 368.966473 71.029352 
L 372.247366 68.534128 
L 375.528726 66.038549 
L 378.806726 63.545525 
L 382.089922 61.048549 
L 385.36575 58.557178 
L 388.64543 56.062876 
L 391.925866 53.568 
" clip-path="url(#pe7a8fe7232)" style="fill: none; stroke-dasharray: 5.55,2.4; stroke-dashoffset: 0; stroke: #d62728; stroke-width: 1.5"/>
   </g>
   <g id="patch_3">
    <path d="M 57.6 307.584 
L 57.6 41.472 
" style="fill: none; stroke: #000000; stroke-width: 0.8; stroke-linejoin: miter; stroke-linecap: square"/>
   </g>
   <g id="patch_4">
    <path d="M 414.72 307.584 
L 414.72 41.472 
" style="fill: none; stroke: #000000; stroke-width: 0.8; stroke-linejoin: miter; stroke-linecap: square"/>
   </g>
   <g id="patch_5">
    <path d="M 57.6 307.584 
L 414.72 307.584 
" style="fill: none; stroke: #000000; stroke-width: 0.8; stroke-linejoin: miter; stroke-linecap: square"/>
   </g>
   <g id="patch_6">
    <path d="M 57.6 41.472 
L 414.72 41.472 
" style="fill: none; stroke: #000000; stroke-width: 0.8; stroke-linejoin: miter; stroke-linecap: square"/>
   </g>
   <g id="text_12">
    <!-- Complexity comparison of LU vs Cholesky factorization -->
    <g transform="translate(71.38125 35.472) scale(0.12 -0.12)">
     <defs>
      <path id="DejaVuSans-43" d="M 4122 4306 
L 4122 3641 
Q 3803 3938 3442 4084 
Q 3081 4231 2675 4231 
Q 1875 4231 1450 3742 
Q 1025 3253 1025 2328 
Q 1025 1406 1450 917 
Q 1875 428 2675 428 
Q 3081 428 3442 575 
Q 3803 722 4122 1019 
L 4122 359 
Q 3791 134 3420 21 
Q 3050 -91 2638 -91 
Q 1578 -91 968 557 
Q 359 1206 359 2328 
Q 359 3453 968 4101 
Q 1578 4750 2638 4750 
Q 3056 4750 3426 4639 
Q 3797 4528 4122 4306 
z
" transform="scale(0.015625)"/>
      <path id="DejaVuSans-70" d="M 1159 525 
L 1159 -1331 
L 581 -1331 
L 581 3500 
L 1159 3500 
L 1159 2969 
Q 1341 3281 1617 3432 
Q 1894 3584 2278 3584 
Q 2916 3584 3314 3078 
Q 3713 2572 3713 1747 
Q 3713 922 3314 415 
Q 2916 -91 2278 -91 
Q 1894 -91 1617 61 
Q 1341 213 1159 525 
z
M 3116 1747 
Q 3116 2381 2855 2742 
Q 2594 3103 2138 3103 
Q 1681 3103 1420 2742 
Q 1159 2381 1159 1747 
Q 1159 1113 1420 752 
Q 1681 391 2138 391 
Q 2594 391 2855 752 
Q 3116 1113 3116 1747 
z
" transform="scale(0.015625)"/>
      <path id="DejaVuSans-6c" d="M 603 4863 
L 1178 4863 
L 1178 0 
L 603 0 
L 603 4863 
z
" transform="scale(0.015625)"/>
      <path id="DejaVuSans-79" d="M 2059 -325 
Q 1816 -950 1584 -1140 
Q 1353 -1331 966 -1331 
L 506 -1331 
L 506 -850 
L 844 -850 
Q 1081 -850 1212 -737 
Q 1344 -625 1503 -206 
L 1606 56 
L 191 3500 
L 800 3500 
L 1894 763 
L 2988 3500 
L 3597 3500 
L 2059 -325 
z
" transform="scale(0.015625)"/>
      <path id="DejaVuSans-66" d="M 2375 4863 
L 2375 4384 
L 1825 4384 
Q 1516 4384 1395 4259 
Q 1275 4134 1275 3809 
L 1275 3500 
L 2222 3500 
L 2222 3053 
L 1275 3053 
L 1275 0 
L 697 0 
L 697 3053 
L 147 3053 
L 147 3500 
L 697 3500 
L 697 3744 
Q 697 4328 969 4595 
Q 1241 4863 1831 4863 
L 2375 4863 
z
" transform="scale(0.015625)"/>
      <path id="DejaVuSans-4c" d="M 628 4666 
L 1259 4666 
L 1259 531 
L 3531 531 
L 3531 0 
L 628 0 
L 628 4666 
z
" transform="scale(0.015625)"/>
      <path id="DejaVuSans-55" d="M 556 4666 
L 1191 4666 
L 1191 1831 
Q 1191 1081 1462 751 
Q 1734 422 2344 422 
Q 2950 422 3222 751 
Q 3494 1081 3494 1831 
L 3494 4666 
L 4128 4666 
L 4128 1753 
Q 4128 841 3676 375 
Q 3225 -91 2344 -91 
Q 1459 -91 1007 375 
Q 556 841 556 1753 
L 556 4666 
z
" transform="scale(0.015625)"/>
      <path id="DejaVuSans-76" d="M 191 3500 
L 800 3500 
L 1894 563 
L 2988 3500 
L 3597 3500 
L 2284 0 
L 1503 0 
L 191 3500 
z
" transform="scale(0.015625)"/>
      <path id="DejaVuSans-68" d="M 3513 2113 
L 3513 0 
L 2938 0 
L 2938 2094 
Q 2938 2591 2744 2837 
Q 2550 3084 2163 3084 
Q 1697 3084 1428 2787 
Q 1159 2491 1159 1978 
L 1159 0 
L 581 0 
L 581 4863 
L 1159 4863 
L 1159 2956 
Q 1366 3272 1645 3428 
Q 1925 3584 2291 3584 
Q 2894 3584 3203 3211 
Q 3513 2838 3513 2113 
z
" transform="scale(0.015625)"/>
      <path id="DejaVuSans-6b" d="M 581 4863 
L 1159 4863 
L 1159 1991 
L 2875 3500 
L 3609 3500 
L 1753 1863 
L 3688 0 
L 2938 0 
L 1159 1709 
L 1159 0 
L 581 0 
L 581 4863 
z
" transform="scale(0.015625)"/>
     </defs>
     <use xlink:href="#DejaVuSans-43"/>
     <use xlink:href="#DejaVuSans-6f" x="69.824219"/>
     <use xlink:href="#DejaVuSans-6d" x="131.005859"/>
     <use xlink:href="#DejaVuSans-70" x="228.417969"/>
     <use xlink:href="#DejaVuSans-6c" x="291.894531"/>
     <use xlink:href="#DejaVuSans-65" x="319.677734"/>
     <use xlink:href="#DejaVuSans-78" x="379.451172"/>
     <use xlink:href="#DejaVuSans-69" x="438.630859"/>
     <use xlink:href="#DejaVuSans-74" x="466.414062"/>
     <use xlink:href="#DejaVuSans-79" x="505.623047"/>
     <use xlink:href="#DejaVuSans-20" x="564.802734"/>
     <use xlink:href="#DejaVuSans-63" x="596.589844"/>
     <use xlink:href="#DejaVuSans-6f" x="651.570312"/>
     <use xlink:href="#DejaVuSans-6d" x="712.751953"/>
     <use xlink:href="#DejaVuSans-70" x="810.164062"/>
     <use xlink:href="#DejaVuSans-61" x="873.640625"/>
     <use xlink:href="#DejaVuSans-72" x="934.919922"/>
     <use xlink:href="#DejaVuSans-69" x="976.033203"/>
     <use xlink:href="#DejaVuSans-73" x="1003.816406"/>
     <use xlink:href="#DejaVuSans-6f" x="1055.916016"/>
     <use xlink:href="#DejaVuSans-6e" x="1117.097656"/>
     <use xlink:href="#DejaVuSans-20" x="1180.476562"/>
     <use xlink:href="#DejaVuSans-6f" x="1212.263672"/>
     <use xlink:href="#DejaVuSans-66" x="1273.445312"/>
     <use xlink:href="#DejaVuSans-20" x="1308.650391"/>
     <use xlink:href="#DejaVuSans-4c" x="1340.4375"/>
     <use xlink:href="#DejaVuSans-55" x="1391.150391"/>
     <use xlink:href="#DejaVuSans-20" x="1464.34375"/>
     <use xlink:href="#DejaVuSans-76" x="1496.130859"/>
     <use xlink:href="#DejaVuSans-73" x="1555.310547"/>
     <use xlink:href="#DejaVuSans-20" x="1607.410156"/>
     <use xlink:href="#DejaVuSans-43" x="1639.197266"/>
     <use xlink:href="#DejaVuSans-68" x="1709.021484"/>
     <use xlink:href="#DejaVuSans-6f" x="1772.400391"/>
     <use xlink:href="#DejaVuSans-6c" x="1833.582031"/>
     <use xlink:href="#DejaVuSans-65" x="1861.365234"/>
     <use xlink:href="#DejaVuSans-73" x="1922.888672"/>
     <use xlink:href="#DejaVuSans-6b" x="1974.988281"/>
     <use xlink:href="#DejaVuSans-79" x="2029.273438"/>
     <use xlink:href="#DejaVuSans-20" x="2088.453125"/>
     <use xlink:href="#DejaVuSans-66" x="2120.240234"/>
     <use xlink:href="#DejaVuSans-61" x="2155.445312"/>
     <use xlink:href="#DejaVuSans-63" x="2216.724609"/>
     <use xlink:href="#DejaVuSans-74" x="2271.705078"/>
     <use xlink:href="#DejaVuSans-6f" x="2310.914062"/>
     <use xlink:href="#DejaVuSans-72" x="2372.095703"/>
     <use xlink:href="#DejaVuSans-69" x="2413.208984"/>
     <use xlink:href="#DejaVuSans-7a" x="2440.992188"/>
     <use xlink:href="#DejaVuSans-61" x="2493.482422"/>
     <use xlink:href="#DejaVuSans-74" x="2554.761719"/>
     <use xlink:href="#DejaVuSans-69" x="2593.970703"/>
     <use xlink:href="#DejaVuSans-6f" x="2621.753906"/>
     <use xlink:href="#DejaVuSans-6e" x="2682.935547"/>
    </g>
   </g>
   <g id="legend_1">
    <g id="patch_7">
     <path d="M 64.6 109.006375 
L 179.320312 109.006375 
Q 181.320312 109.006375 181.320312 107.006375 
L 181.320312 48.472 
Q 181.320312 46.472 179.320312 46.472 
L 64.6 46.472 
Q 62.6 46.472 62.6 48.472 
L 62.6 107.006375 
Q 62.6 109.006375 64.6 109.006375 
z
" style="fill: #ffffff; opacity: 0.8; stroke: #cccccc; stroke-linejoin: miter"/>
    </g>
    <g id="line2d_83">
     <path d="M 66.6 54.570438 
L 76.6 54.570438 
L 86.6 54.570438 
" style="fill: none; stroke: #1f77b4; stroke-width: 1.5; stroke-linecap: square"/>
    </g>
    <g id="text_13">
     <!-- LU (no pivotage) -->
     <g transform="translate(94.6 58.070438) scale(0.1 -0.1)">
      <defs>
       <path id="DejaVuSans-28" d="M 1984 4856 
Q 1566 4138 1362 3434 
Q 1159 2731 1159 2009 
Q 1159 1288 1364 580 
Q 1569 -128 1984 -844 
L 1484 -844 
Q 1016 -109 783 600 
Q 550 1309 550 2009 
Q 550 2706 781 3412 
Q 1013 4119 1484 4856 
L 1984 4856 
z
" transform="scale(0.015625)"/>
       <path id="DejaVuSans-67" d="M 2906 1791 
Q 2906 2416 2648 2759 
Q 2391 3103 1925 3103 
Q 1463 3103 1205 2759 
Q 947 2416 947 1791 
Q 947 1169 1205 825 
Q 1463 481 1925 481 
Q 2391 481 2648 825 
Q 2906 1169 2906 1791 
z
M 3481 434 
Q 3481 -459 3084 -895 
Q 2688 -1331 1869 -1331 
Q 1566 -1331 1297 -1286 
Q 1028 -1241 775 -1147 
L 775 -588 
Q 1028 -725 1275 -790 
Q 1522 -856 1778 -856 
Q 2344 -856 2625 -561 
Q 2906 -266 2906 331 
L 2906 616 
Q 2728 306 2450 153 
Q 2172 0 1784 0 
Q 1141 0 747 490 
Q 353 981 353 1791 
Q 353 2603 747 3093 
Q 1141 3584 1784 3584 
Q 2172 3584 2450 3431 
Q 2728 3278 2906 2969 
L 2906 3500 
L 3481 3500 
L 3481 434 
z
" transform="scale(0.015625)"/>
       <path id="DejaVuSans-29" d="M 513 4856 
L 1013 4856 
Q 1481 4119 1714 3412 
Q 1947 2706 1947 2009 
Q 1947 1309 1714 600 
Q 1481 -109 1013 -844 
L 513 -844 
Q 928 -128 1133 580 
Q 1338 1288 1338 2009 
Q 1338 2731 1133 3434 
Q 928 4138 513 4856 
z
" transform="scale(0.015625)"/>
      </defs>
      <use xlink:href="#DejaVuSans-4c"/>
      <use xlink:href="#DejaVuSans-55" x="50.712891"/>
      <use xlink:href="#DejaVuSans-20" x="123.90625"/>
      <use xlink:href="#DejaVuSans-28" x="155.693359"/>
      <use xlink:href="#DejaVuSans-6e" x="194.707031"/>
      <use xlink:href="#DejaVuSans-6f" x="258.085938"/>
      <use xlink:href="#DejaVuSans-20" x="319.267578"/>
      <use xlink:href="#DejaVuSans-70" x="351.054688"/>
      <use xlink:href="#DejaVuSans-69" x="414.53125"/>
      <use xlink:href="#DejaVuSans-76" x="442.314453"/>
      <use xlink:href="#DejaVuSans-6f" x="501.494141"/>
      <use xlink:href="#DejaVuSans-74" x="562.675781"/>
      <use xlink:href="#DejaVuSans-61" x="601.884766"/>
      <use xlink:href="#DejaVuSans-67" x="663.164062"/>
      <use xlink:href="#DejaVuSans-65" x="726.640625"/>
      <use xlink:href="#DejaVuSans-29" x="788.164062"/>
     </g>
    </g>
    <g id="line2d_84">
     <path d="M 66.6 69.248563 
L 76.6 69.248563 
L 86.6 69.248563 
" style="fill: none; stroke: #ff7f0e; stroke-width: 1.5; stroke-linecap: square"/>
    </g>
    <g id="text_14">
     <!-- LU -->
     <g transform="translate(94.6 72.748563) scale(0.1 -0.1)">
      <use xlink:href="#DejaVuSans-4c"/>
      <use xlink:href="#DejaVuSans-55" x="50.712891"/>
     </g>
    </g>
    <g id="line2d_85">
     <path d="M 66.6 83.926688 
L 76.6 83.926688 
L 86.6 83.926688 
" style="fill: none; stroke: #2ca02c; stroke-width: 1.5; stroke-linecap: square"/>
    </g>
    <g id="text_15">
     <!-- Cholesky -->
     <g transform="translate(94.6 87.426688) scale(0.1 -0.1)">
      <use xlink:href="#DejaVuSans-43"/>
      <use xlink:href="#DejaVuSans-68" x="69.824219"/>
      <use xlink:href="#DejaVuSans-6f" x="133.203125"/>
      <use xlink:href="#DejaVuSans-6c" x="194.384766"/>
      <use xlink:href="#DejaVuSans-65" x="222.167969"/>
      <use xlink:href="#DejaVuSans-73" x="283.691406"/>
      <use xlink:href="#DejaVuSans-6b" x="335.791016"/>
      <use xlink:href="#DejaVuSans-79" x="390.076172"/>
     </g>
    </g>
    <g id="line2d_86">
     <path d="M 66.6 99.426688 
L 76.6 99.426688 
L 86.6 99.426688 
" style="fill: none; stroke-dasharray: 5.55,2.4; stroke-dashoffset: 0; stroke: #d62728; stroke-width: 1.5"/>
    </g>
    <g id="text_16">
     <!-- $\mathcal{O}(2m^3/3)$ -->
     <g transform="translate(94.6 102.926688) scale(0.1 -0.1)">
      <defs>
       <path id="STIXNonUnicode-Italic-e23b" d="M 2304 4237 
L 2342 4090 
Q 1773 3923 1350 3158 
Q 928 2394 928 1472 
Q 928 838 1216 515 
Q 1504 192 1984 192 
Q 2349 192 2739 435 
Q 3130 678 3430 1101 
Q 3968 1862 3968 2944 
Q 3968 3398 3744 3660 
Q 3520 3923 3219 3923 
Q 2918 3923 2691 3728 
Q 2464 3533 2464 3232 
Q 2464 2995 2694 2995 
Q 2714 2995 2784 3011 
Q 2854 3027 2918 3027 
Q 3104 3027 3104 2816 
Q 3104 2637 2944 2496 
Q 2784 2355 2592 2355 
Q 2323 2355 2179 2534 
Q 2035 2714 2035 2995 
Q 2035 3475 2505 3878 
Q 2976 4282 3571 4282 
Q 4096 4282 4381 3882 
Q 4666 3482 4666 2938 
Q 4666 2400 4422 1837 
Q 4179 1274 3808 877 
Q 2931 -64 1754 -64 
Q 1101 -64 672 304 
Q 243 672 243 1363 
Q 243 1933 435 2457 
Q 627 2982 931 3347 
Q 1235 3712 1596 3949 
Q 1958 4186 2304 4237 
z
" transform="scale(0.015625)"/>
       <path id="DejaVuSans-Oblique-6d" d="M 5747 2113 
L 5338 0 
L 4763 0 
L 5166 2094 
Q 5191 2228 5203 2325 
Q 5216 2422 5216 2491 
Q 5216 2772 5059 2928 
Q 4903 3084 4622 3084 
Q 4203 3084 3875 2770 
Q 3547 2456 3450 1953 
L 3066 0 
L 2491 0 
L 2900 2094 
Q 2925 2209 2937 2307 
Q 2950 2406 2950 2484 
Q 2950 2769 2794 2926 
Q 2638 3084 2363 3084 
Q 1938 3084 1609 2770 
Q 1281 2456 1184 1953 
L 800 0 
L 225 0 
L 909 3500 
L 1484 3500 
L 1375 2956 
Q 1609 3263 1923 3423 
Q 2238 3584 2597 3584 
Q 2978 3584 3223 3384 
Q 3469 3184 3519 2828 
Q 3781 3197 4126 3390 
Q 4472 3584 4856 3584 
Q 5306 3584 5551 3325 
Q 5797 3066 5797 2591 
Q 5797 2488 5784 2364 
Q 5772 2241 5747 2113 
z
" transform="scale(0.015625)"/>
       <path id="DejaVuSans-2f" d="M 1625 4666 
L 2156 4666 
L 531 -594 
L 0 -594 
L 1625 4666 
z
" transform="scale(0.015625)"/>
      </defs>
      <use xlink:href="#STIXNonUnicode-Italic-e23b" transform="translate(0 0.765625)"/>
      <use xlink:href="#DejaVuSans-28" transform="translate(73.699982 0.765625)"/>
      <use xlink:href="#DejaVuSans-32" transform="translate(112.713654 0.765625)"/>
      <use xlink:href="#DejaVuSans-Oblique-6d" transform="translate(176.3367 0.765625)"/>
      <use xlink:href="#DejaVuSans-33" transform="translate(278.398706 39.046875) scale(0.7)"/>
      <use xlink:href="#DejaVuSans-2f" transform="translate(325.669213 0.765625)"/>
      <use xlink:href="#DejaVuSans-33" transform="translate(359.36062 0.765625)"/>
      <use xlink:href="#DejaVuSans-29" transform="translate(422.983667 0.765625)"/>
     </g>
    </g>
   </g>
  </g>
 </g>
 <defs>
  <clipPath id="pe7a8fe7232">
   <rect x="57.6" y="41.472" width="357.12" height="266.112"/>
  </clipPath>
 </defs>
</svg>
