<?xml version="1.0" encoding="utf-8" standalone="no"?>
<!DOCTYPE svg PUBLIC "-//W3C//DTD SVG 1.1//EN"
  "http://www.w3.org/Graphics/SVG/1.1/DTD/svg11.dtd">
<svg xmlns:xlink="http://www.w3.org/1999/xlink" width="460.8pt" height="345.6pt" viewBox="0 0 460.8 345.6" xmlns="http://www.w3.org/2000/svg" version="1.1">
 <metadata>
  <rdf:RDF xmlns:dc="http://purl.org/dc/elements/1.1/" xmlns:cc="http://creativecommons.org/ns#" xmlns:rdf="http://www.w3.org/1999/02/22-rdf-syntax-ns#">
   <cc:Work>
    <dc:type rdf:resource="http://purl.org/dc/dcmitype/StillImage"/>
    <dc:date>2024-03-10T10:37:19.365847</dc:date>
    <dc:format>image/svg+xml</dc:format>
    <dc:creator>
     <cc:Agent>
      <dc:title>Matplotlib v3.8.0, https://matplotlib.org/</dc:title>
     </cc:Agent>
    </dc:creator>
   </cc:Work>
  </rdf:RDF>
 </metadata>
 <defs>
  <style type="text/css">*{stroke-linejoin: round; stroke-linecap: butt}</style>
 </defs>
 <g id="figure_1">
  <g id="patch_1">
   <path d="M 0 345.6 
L 460.8 345.6 
L 460.8 0 
L 0 0 
z
" style="fill: #ffffff"/>
  </g>
  <g id="axes_1">
   <g id="patch_2">
    <path d="M 57.6 307.584 
L 414.72 307.584 
L 414.72 41.472 
L 57.6 41.472 
z
" style="fill: #ffffff"/>
   </g>
   <g id="matplotlib.axis_1">
    <g id="xtick_1">
     <g id="line2d_1">
      <path d="M 104.714392 307.584 
L 104.714392 41.472 
" clip-path="url(#p806c4876a9)" style="fill: none; stroke: #b0b0b0; stroke-width: 0.8; stroke-linecap: square"/>
     </g>
     <g id="line2d_2">
      <defs>
       <path id="m6d4d21adb1" d="M 0 0 
L 0 3.5 
" style="stroke: #000000; stroke-width: 0.8"/>
      </defs>
      <g>
       <use xlink:href="#m6d4d21adb1" x="104.714392" y="307.584" style="stroke: #000000; stroke-width: 0.8"/>
      </g>
     </g>
     <g id="text_1">
      <!-- $\mathdefault{10^{-11}}$ -->
      <g transform="translate(90.764392 322.182437) scale(0.1 -0.1)">
       <defs>
        <path id="DejaVuSans-31" d="M 794 531 
L 1825 531 
L 1825 4091 
L 703 3866 
L 703 4441 
L 1819 4666 
L 2450 4666 
L 2450 531 
L 3481 531 
L 3481 0 
L 794 0 
L 794 531 
z
" transform="scale(0.015625)"/>
        <path id="DejaVuSans-30" d="M 2034 4250 
Q 1547 4250 1301 3770 
Q 1056 3291 1056 2328 
Q 1056 1369 1301 889 
Q 1547 409 2034 409 
Q 2525 409 2770 889 
Q 3016 1369 3016 2328 
Q 3016 3291 2770 3770 
Q 2525 4250 2034 4250 
z
M 2034 4750 
Q 2819 4750 3233 4129 
Q 3647 3509 3647 2328 
Q 3647 1150 3233 529 
Q 2819 -91 2034 -91 
Q 1250 -91 836 529 
Q 422 1150 422 2328 
Q 422 3509 836 4129 
Q 1250 4750 2034 4750 
z
" transform="scale(0.015625)"/>
        <path id="DejaVuSans-2212" d="M 678 2272 
L 4684 2272 
L 4684 1741 
L 678 1741 
L 678 2272 
z
" transform="scale(0.015625)"/>
       </defs>
       <use xlink:href="#DejaVuSans-31" transform="translate(0 0.684375)"/>
       <use xlink:href="#DejaVuSans-30" transform="translate(63.623047 0.684375)"/>
       <use xlink:href="#DejaVuSans-2212" transform="translate(128.203125 38.965625) scale(0.7)"/>
       <use xlink:href="#DejaVuSans-31" transform="translate(186.855469 38.965625) scale(0.7)"/>
       <use xlink:href="#DejaVuSans-31" transform="translate(231.391602 38.965625) scale(0.7)"/>
      </g>
     </g>
    </g>
    <g id="xtick_2">
     <g id="line2d_3">
      <path d="M 157.645198 307.584 
L 157.645198 41.472 
" clip-path="url(#p806c4876a9)" style="fill: none; stroke: #b0b0b0; stroke-width: 0.8; stroke-linecap: square"/>
     </g>
     <g id="line2d_4">
      <g>
       <use xlink:href="#m6d4d21adb1" x="157.645198" y="307.584" style="stroke: #000000; stroke-width: 0.8"/>
      </g>
     </g>
     <g id="text_2">
      <!-- $\mathdefault{10^{-9}}$ -->
      <g transform="translate(145.895198 322.182437) scale(0.1 -0.1)">
       <defs>
        <path id="DejaVuSans-39" d="M 703 97 
L 703 672 
Q 941 559 1184 500 
Q 1428 441 1663 441 
Q 2288 441 2617 861 
Q 2947 1281 2994 2138 
Q 2813 1869 2534 1725 
Q 2256 1581 1919 1581 
Q 1219 1581 811 2004 
Q 403 2428 403 3163 
Q 403 3881 828 4315 
Q 1253 4750 1959 4750 
Q 2769 4750 3195 4129 
Q 3622 3509 3622 2328 
Q 3622 1225 3098 567 
Q 2575 -91 1691 -91 
Q 1453 -91 1209 -44 
Q 966 3 703 97 
z
M 1959 2075 
Q 2384 2075 2632 2365 
Q 2881 2656 2881 3163 
Q 2881 3666 2632 3958 
Q 2384 4250 1959 4250 
Q 1534 4250 1286 3958 
Q 1038 3666 1038 3163 
Q 1038 2656 1286 2365 
Q 1534 2075 1959 2075 
z
" transform="scale(0.015625)"/>
       </defs>
       <use xlink:href="#DejaVuSans-31" transform="translate(0 0.765625)"/>
       <use xlink:href="#DejaVuSans-30" transform="translate(63.623047 0.765625)"/>
       <use xlink:href="#DejaVuSans-2212" transform="translate(128.203125 39.046875) scale(0.7)"/>
       <use xlink:href="#DejaVuSans-39" transform="translate(186.855469 39.046875) scale(0.7)"/>
      </g>
     </g>
    </g>
    <g id="xtick_3">
     <g id="line2d_5">
      <path d="M 210.576004 307.584 
L 210.576004 41.472 
" clip-path="url(#p806c4876a9)" style="fill: none; stroke: #b0b0b0; stroke-width: 0.8; stroke-linecap: square"/>
     </g>
     <g id="line2d_6">
      <g>
       <use xlink:href="#m6d4d21adb1" x="210.576004" y="307.584" style="stroke: #000000; stroke-width: 0.8"/>
      </g>
     </g>
     <g id="text_3">
      <!-- $\mathdefault{10^{-7}}$ -->
      <g transform="translate(198.826004 322.182437) scale(0.1 -0.1)">
       <defs>
        <path id="DejaVuSans-37" d="M 525 4666 
L 3525 4666 
L 3525 4397 
L 1831 0 
L 1172 0 
L 2766 4134 
L 525 4134 
L 525 4666 
z
" transform="scale(0.015625)"/>
       </defs>
       <use xlink:href="#DejaVuSans-31" transform="translate(0 0.684375)"/>
       <use xlink:href="#DejaVuSans-30" transform="translate(63.623047 0.684375)"/>
       <use xlink:href="#DejaVuSans-2212" transform="translate(128.203125 38.965625) scale(0.7)"/>
       <use xlink:href="#DejaVuSans-37" transform="translate(186.855469 38.965625) scale(0.7)"/>
      </g>
     </g>
    </g>
    <g id="xtick_4">
     <g id="line2d_7">
      <path d="M 263.50681 307.584 
L 263.50681 41.472 
" clip-path="url(#p806c4876a9)" style="fill: none; stroke: #b0b0b0; stroke-width: 0.8; stroke-linecap: square"/>
     </g>
     <g id="line2d_8">
      <g>
       <use xlink:href="#m6d4d21adb1" x="263.50681" y="307.584" style="stroke: #000000; stroke-width: 0.8"/>
      </g>
     </g>
     <g id="text_4">
      <!-- $\mathdefault{10^{-5}}$ -->
      <g transform="translate(251.75681 322.182437) scale(0.1 -0.1)">
       <defs>
        <path id="DejaVuSans-35" d="M 691 4666 
L 3169 4666 
L 3169 4134 
L 1269 4134 
L 1269 2991 
Q 1406 3038 1543 3061 
Q 1681 3084 1819 3084 
Q 2600 3084 3056 2656 
Q 3513 2228 3513 1497 
Q 3513 744 3044 326 
Q 2575 -91 1722 -91 
Q 1428 -91 1123 -41 
Q 819 9 494 109 
L 494 744 
Q 775 591 1075 516 
Q 1375 441 1709 441 
Q 2250 441 2565 725 
Q 2881 1009 2881 1497 
Q 2881 1984 2565 2268 
Q 2250 2553 1709 2553 
Q 1456 2553 1204 2497 
Q 953 2441 691 2322 
L 691 4666 
z
" transform="scale(0.015625)"/>
       </defs>
       <use xlink:href="#DejaVuSans-31" transform="translate(0 0.684375)"/>
       <use xlink:href="#DejaVuSans-30" transform="translate(63.623047 0.684375)"/>
       <use xlink:href="#DejaVuSans-2212" transform="translate(128.203125 38.965625) scale(0.7)"/>
       <use xlink:href="#DejaVuSans-35" transform="translate(186.855469 38.965625) scale(0.7)"/>
      </g>
     </g>
    </g>
    <g id="xtick_5">
     <g id="line2d_9">
      <path d="M 316.437616 307.584 
L 316.437616 41.472 
" clip-path="url(#p806c4876a9)" style="fill: none; stroke: #b0b0b0; stroke-width: 0.8; stroke-linecap: square"/>
     </g>
     <g id="line2d_10">
      <g>
       <use xlink:href="#m6d4d21adb1" x="316.437616" y="307.584" style="stroke: #000000; stroke-width: 0.8"/>
      </g>
     </g>
     <g id="text_5">
      <!-- $\mathdefault{10^{-3}}$ -->
      <g transform="translate(304.687616 322.182437) scale(0.1 -0.1)">
       <defs>
        <path id="DejaVuSans-33" d="M 2597 2516 
Q 3050 2419 3304 2112 
Q 3559 1806 3559 1356 
Q 3559 666 3084 287 
Q 2609 -91 1734 -91 
Q 1441 -91 1130 -33 
Q 819 25 488 141 
L 488 750 
Q 750 597 1062 519 
Q 1375 441 1716 441 
Q 2309 441 2620 675 
Q 2931 909 2931 1356 
Q 2931 1769 2642 2001 
Q 2353 2234 1838 2234 
L 1294 2234 
L 1294 2753 
L 1863 2753 
Q 2328 2753 2575 2939 
Q 2822 3125 2822 3475 
Q 2822 3834 2567 4026 
Q 2313 4219 1838 4219 
Q 1578 4219 1281 4162 
Q 984 4106 628 3988 
L 628 4550 
Q 988 4650 1302 4700 
Q 1616 4750 1894 4750 
Q 2613 4750 3031 4423 
Q 3450 4097 3450 3541 
Q 3450 3153 3228 2886 
Q 3006 2619 2597 2516 
z
" transform="scale(0.015625)"/>
       </defs>
       <use xlink:href="#DejaVuSans-31" transform="translate(0 0.765625)"/>
       <use xlink:href="#DejaVuSans-30" transform="translate(63.623047 0.765625)"/>
       <use xlink:href="#DejaVuSans-2212" transform="translate(128.203125 39.046875) scale(0.7)"/>
       <use xlink:href="#DejaVuSans-33" transform="translate(186.855469 39.046875) scale(0.7)"/>
      </g>
     </g>
    </g>
    <g id="xtick_6">
     <g id="line2d_11">
      <path d="M 369.368422 307.584 
L 369.368422 41.472 
" clip-path="url(#p806c4876a9)" style="fill: none; stroke: #b0b0b0; stroke-width: 0.8; stroke-linecap: square"/>
     </g>
     <g id="line2d_12">
      <g>
       <use xlink:href="#m6d4d21adb1" x="369.368422" y="307.584" style="stroke: #000000; stroke-width: 0.8"/>
      </g>
     </g>
     <g id="text_6">
      <!-- $\mathdefault{10^{-1}}$ -->
      <g transform="translate(357.618422 322.182437) scale(0.1 -0.1)">
       <use xlink:href="#DejaVuSans-31" transform="translate(0 0.684375)"/>
       <use xlink:href="#DejaVuSans-30" transform="translate(63.623047 0.684375)"/>
       <use xlink:href="#DejaVuSans-2212" transform="translate(128.203125 38.965625) scale(0.7)"/>
       <use xlink:href="#DejaVuSans-31" transform="translate(186.855469 38.965625) scale(0.7)"/>
      </g>
     </g>
    </g>
    <g id="text_7">
     <!-- ||$\delta$A||/||A|| -->
     <g transform="translate(211.06 335.962125) scale(0.1 -0.1)">
      <defs>
       <path id="DejaVuSans-7c" d="M 1344 4891 
L 1344 -1509 
L 813 -1509 
L 813 4891 
L 1344 4891 
z
" transform="scale(0.015625)"/>
       <path id="DejaVuSans-Oblique-3b4" d="M 3472 4053 
Q 3197 4272 2450 4272 
Q 1659 4272 1588 3906 
Q 1531 3619 2328 3469 
Q 2953 3353 3253 3003 
Q 3616 2581 3447 1716 
Q 3284 888 2763 400 
Q 2238 -91 1488 -91 
Q 741 -91 406 400 
Q 72 888 241 1747 
Q 363 2384 891 2900 
Q 1097 3100 1353 3213 
Q 913 3459 1000 3900 
Q 1166 4750 2544 4750 
Q 3234 4750 3566 4531 
L 3472 4053 
z
M 1753 3056 
Q 1525 2966 1306 2738 
Q 969 2384 847 1747 
Q 722 1113 919 756 
Q 1119 397 1584 397 
Q 2044 397 2381 759 
Q 2722 1122 2838 1716 
Q 2956 2338 2731 2638 
Q 2491 2959 2103 2994 
Q 1906 3013 1753 3056 
z
" transform="scale(0.015625)"/>
       <path id="DejaVuSans-41" d="M 2188 4044 
L 1331 1722 
L 3047 1722 
L 2188 4044 
z
M 1831 4666 
L 2547 4666 
L 4325 0 
L 3669 0 
L 3244 1197 
L 1141 1197 
L 716 0 
L 50 0 
L 1831 4666 
z
" transform="scale(0.015625)"/>
       <path id="DejaVuSans-2f" d="M 1625 4666 
L 2156 4666 
L 531 -594 
L 0 -594 
L 1625 4666 
z
" transform="scale(0.015625)"/>
      </defs>
      <use xlink:href="#DejaVuSans-7c" transform="translate(0 0.578125)"/>
      <use xlink:href="#DejaVuSans-7c" transform="translate(33.691406 0.578125)"/>
      <use xlink:href="#DejaVuSans-Oblique-3b4" transform="translate(67.382812 0.578125)"/>
      <use xlink:href="#DejaVuSans-41" transform="translate(128.564453 0.578125)"/>
      <use xlink:href="#DejaVuSans-7c" transform="translate(196.972656 0.578125)"/>
      <use xlink:href="#DejaVuSans-7c" transform="translate(230.664062 0.578125)"/>
      <use xlink:href="#DejaVuSans-2f" transform="translate(264.355469 0.578125)"/>
      <use xlink:href="#DejaVuSans-7c" transform="translate(298.046875 0.578125)"/>
      <use xlink:href="#DejaVuSans-7c" transform="translate(331.738281 0.578125)"/>
      <use xlink:href="#DejaVuSans-41" transform="translate(365.429688 0.578125)"/>
      <use xlink:href="#DejaVuSans-7c" transform="translate(433.837891 0.578125)"/>
      <use xlink:href="#DejaVuSans-7c" transform="translate(467.529297 0.578125)"/>
     </g>
    </g>
   </g>
   <g id="matplotlib.axis_2">
    <g id="ytick_1">
     <g id="line2d_13">
      <path d="M 57.6 286.920418 
L 414.72 286.920418 
" clip-path="url(#p806c4876a9)" style="fill: none; stroke: #b0b0b0; stroke-width: 0.8; stroke-linecap: square"/>
     </g>
     <g id="line2d_14">
      <defs>
       <path id="m5ef9884d56" d="M 0 0 
L -3.5 0 
" style="stroke: #000000; stroke-width: 0.8"/>
      </defs>
      <g>
       <use xlink:href="#m5ef9884d56" x="57.6" y="286.920418" style="stroke: #000000; stroke-width: 0.8"/>
      </g>
     </g>
     <g id="text_8">
      <!-- $\mathdefault{10^{-12}}$ -->
      <g transform="translate(22.7 290.719636) scale(0.1 -0.1)">
       <defs>
        <path id="DejaVuSans-32" d="M 1228 531 
L 3431 531 
L 3431 0 
L 469 0 
L 469 531 
Q 828 903 1448 1529 
Q 2069 2156 2228 2338 
Q 2531 2678 2651 2914 
Q 2772 3150 2772 3378 
Q 2772 3750 2511 3984 
Q 2250 4219 1831 4219 
Q 1534 4219 1204 4116 
Q 875 4013 500 3803 
L 500 4441 
Q 881 4594 1212 4672 
Q 1544 4750 1819 4750 
Q 2544 4750 2975 4387 
Q 3406 4025 3406 3419 
Q 3406 3131 3298 2873 
Q 3191 2616 2906 2266 
Q 2828 2175 2409 1742 
Q 1991 1309 1228 531 
z
" transform="scale(0.015625)"/>
       </defs>
       <use xlink:href="#DejaVuSans-31" transform="translate(0 0.765625)"/>
       <use xlink:href="#DejaVuSans-30" transform="translate(63.623047 0.765625)"/>
       <use xlink:href="#DejaVuSans-2212" transform="translate(128.203125 39.046875) scale(0.7)"/>
       <use xlink:href="#DejaVuSans-31" transform="translate(186.855469 39.046875) scale(0.7)"/>
       <use xlink:href="#DejaVuSans-32" transform="translate(231.391602 39.046875) scale(0.7)"/>
      </g>
     </g>
    </g>
    <g id="ytick_2">
     <g id="line2d_15">
      <path d="M 57.6 249.084765 
L 414.72 249.084765 
" clip-path="url(#p806c4876a9)" style="fill: none; stroke: #b0b0b0; stroke-width: 0.8; stroke-linecap: square"/>
     </g>
     <g id="line2d_16">
      <g>
       <use xlink:href="#m5ef9884d56" x="57.6" y="249.084765" style="stroke: #000000; stroke-width: 0.8"/>
      </g>
     </g>
     <g id="text_9">
      <!-- $\mathdefault{10^{-10}}$ -->
      <g transform="translate(22.7 252.883984) scale(0.1 -0.1)">
       <use xlink:href="#DejaVuSans-31" transform="translate(0 0.765625)"/>
       <use xlink:href="#DejaVuSans-30" transform="translate(63.623047 0.765625)"/>
       <use xlink:href="#DejaVuSans-2212" transform="translate(128.203125 39.046875) scale(0.7)"/>
       <use xlink:href="#DejaVuSans-31" transform="translate(186.855469 39.046875) scale(0.7)"/>
       <use xlink:href="#DejaVuSans-30" transform="translate(231.391602 39.046875) scale(0.7)"/>
      </g>
     </g>
    </g>
    <g id="ytick_3">
     <g id="line2d_17">
      <path d="M 57.6 211.249112 
L 414.72 211.249112 
" clip-path="url(#p806c4876a9)" style="fill: none; stroke: #b0b0b0; stroke-width: 0.8; stroke-linecap: square"/>
     </g>
     <g id="line2d_18">
      <g>
       <use xlink:href="#m5ef9884d56" x="57.6" y="211.249112" style="stroke: #000000; stroke-width: 0.8"/>
      </g>
     </g>
     <g id="text_10">
      <!-- $\mathdefault{10^{-8}}$ -->
      <g transform="translate(27.1 215.048331) scale(0.1 -0.1)">
       <defs>
        <path id="DejaVuSans-38" d="M 2034 2216 
Q 1584 2216 1326 1975 
Q 1069 1734 1069 1313 
Q 1069 891 1326 650 
Q 1584 409 2034 409 
Q 2484 409 2743 651 
Q 3003 894 3003 1313 
Q 3003 1734 2745 1975 
Q 2488 2216 2034 2216 
z
M 1403 2484 
Q 997 2584 770 2862 
Q 544 3141 544 3541 
Q 544 4100 942 4425 
Q 1341 4750 2034 4750 
Q 2731 4750 3128 4425 
Q 3525 4100 3525 3541 
Q 3525 3141 3298 2862 
Q 3072 2584 2669 2484 
Q 3125 2378 3379 2068 
Q 3634 1759 3634 1313 
Q 3634 634 3220 271 
Q 2806 -91 2034 -91 
Q 1263 -91 848 271 
Q 434 634 434 1313 
Q 434 1759 690 2068 
Q 947 2378 1403 2484 
z
M 1172 3481 
Q 1172 3119 1398 2916 
Q 1625 2713 2034 2713 
Q 2441 2713 2670 2916 
Q 2900 3119 2900 3481 
Q 2900 3844 2670 4047 
Q 2441 4250 2034 4250 
Q 1625 4250 1398 4047 
Q 1172 3844 1172 3481 
z
" transform="scale(0.015625)"/>
       </defs>
       <use xlink:href="#DejaVuSans-31" transform="translate(0 0.765625)"/>
       <use xlink:href="#DejaVuSans-30" transform="translate(63.623047 0.765625)"/>
       <use xlink:href="#DejaVuSans-2212" transform="translate(128.203125 39.046875) scale(0.7)"/>
       <use xlink:href="#DejaVuSans-38" transform="translate(186.855469 39.046875) scale(0.7)"/>
      </g>
     </g>
    </g>
    <g id="ytick_4">
     <g id="line2d_19">
      <path d="M 57.6 173.41346 
L 414.72 173.41346 
" clip-path="url(#p806c4876a9)" style="fill: none; stroke: #b0b0b0; stroke-width: 0.8; stroke-linecap: square"/>
     </g>
     <g id="line2d_20">
      <g>
       <use xlink:href="#m5ef9884d56" x="57.6" y="173.41346" style="stroke: #000000; stroke-width: 0.8"/>
      </g>
     </g>
     <g id="text_11">
      <!-- $\mathdefault{10^{-6}}$ -->
      <g transform="translate(27.1 177.212678) scale(0.1 -0.1)">
       <defs>
        <path id="DejaVuSans-36" d="M 2113 2584 
Q 1688 2584 1439 2293 
Q 1191 2003 1191 1497 
Q 1191 994 1439 701 
Q 1688 409 2113 409 
Q 2538 409 2786 701 
Q 3034 994 3034 1497 
Q 3034 2003 2786 2293 
Q 2538 2584 2113 2584 
z
M 3366 4563 
L 3366 3988 
Q 3128 4100 2886 4159 
Q 2644 4219 2406 4219 
Q 1781 4219 1451 3797 
Q 1122 3375 1075 2522 
Q 1259 2794 1537 2939 
Q 1816 3084 2150 3084 
Q 2853 3084 3261 2657 
Q 3669 2231 3669 1497 
Q 3669 778 3244 343 
Q 2819 -91 2113 -91 
Q 1303 -91 875 529 
Q 447 1150 447 2328 
Q 447 3434 972 4092 
Q 1497 4750 2381 4750 
Q 2619 4750 2861 4703 
Q 3103 4656 3366 4563 
z
" transform="scale(0.015625)"/>
       </defs>
       <use xlink:href="#DejaVuSans-31" transform="translate(0 0.765625)"/>
       <use xlink:href="#DejaVuSans-30" transform="translate(63.623047 0.765625)"/>
       <use xlink:href="#DejaVuSans-2212" transform="translate(128.203125 39.046875) scale(0.7)"/>
       <use xlink:href="#DejaVuSans-36" transform="translate(186.855469 39.046875) scale(0.7)"/>
      </g>
     </g>
    </g>
    <g id="ytick_5">
     <g id="line2d_21">
      <path d="M 57.6 135.577807 
L 414.72 135.577807 
" clip-path="url(#p806c4876a9)" style="fill: none; stroke: #b0b0b0; stroke-width: 0.8; stroke-linecap: square"/>
     </g>
     <g id="line2d_22">
      <g>
       <use xlink:href="#m5ef9884d56" x="57.6" y="135.577807" style="stroke: #000000; stroke-width: 0.8"/>
      </g>
     </g>
     <g id="text_12">
      <!-- $\mathdefault{10^{-4}}$ -->
      <g transform="translate(27.1 139.377026) scale(0.1 -0.1)">
       <defs>
        <path id="DejaVuSans-34" d="M 2419 4116 
L 825 1625 
L 2419 1625 
L 2419 4116 
z
M 2253 4666 
L 3047 4666 
L 3047 1625 
L 3713 1625 
L 3713 1100 
L 3047 1100 
L 3047 0 
L 2419 0 
L 2419 1100 
L 313 1100 
L 313 1709 
L 2253 4666 
z
" transform="scale(0.015625)"/>
       </defs>
       <use xlink:href="#DejaVuSans-31" transform="translate(0 0.684375)"/>
       <use xlink:href="#DejaVuSans-30" transform="translate(63.623047 0.684375)"/>
       <use xlink:href="#DejaVuSans-2212" transform="translate(128.203125 38.965625) scale(0.7)"/>
       <use xlink:href="#DejaVuSans-34" transform="translate(186.855469 38.965625) scale(0.7)"/>
      </g>
     </g>
    </g>
    <g id="ytick_6">
     <g id="line2d_23">
      <path d="M 57.6 97.742154 
L 414.72 97.742154 
" clip-path="url(#p806c4876a9)" style="fill: none; stroke: #b0b0b0; stroke-width: 0.8; stroke-linecap: square"/>
     </g>
     <g id="line2d_24">
      <g>
       <use xlink:href="#m5ef9884d56" x="57.6" y="97.742154" style="stroke: #000000; stroke-width: 0.8"/>
      </g>
     </g>
     <g id="text_13">
      <!-- $\mathdefault{10^{-2}}$ -->
      <g transform="translate(27.1 101.541373) scale(0.1 -0.1)">
       <use xlink:href="#DejaVuSans-31" transform="translate(0 0.765625)"/>
       <use xlink:href="#DejaVuSans-30" transform="translate(63.623047 0.765625)"/>
       <use xlink:href="#DejaVuSans-2212" transform="translate(128.203125 39.046875) scale(0.7)"/>
       <use xlink:href="#DejaVuSans-32" transform="translate(186.855469 39.046875) scale(0.7)"/>
      </g>
     </g>
    </g>
    <g id="ytick_7">
     <g id="line2d_25">
      <path d="M 57.6 59.906502 
L 414.72 59.906502 
" clip-path="url(#p806c4876a9)" style="fill: none; stroke: #b0b0b0; stroke-width: 0.8; stroke-linecap: square"/>
     </g>
     <g id="line2d_26">
      <g>
       <use xlink:href="#m5ef9884d56" x="57.6" y="59.906502" style="stroke: #000000; stroke-width: 0.8"/>
      </g>
     </g>
     <g id="text_14">
      <!-- $\mathdefault{10^{0}}$ -->
      <g transform="translate(33 63.70572) scale(0.1 -0.1)">
       <use xlink:href="#DejaVuSans-31" transform="translate(0 0.765625)"/>
       <use xlink:href="#DejaVuSans-30" transform="translate(63.623047 0.765625)"/>
       <use xlink:href="#DejaVuSans-30" transform="translate(128.203125 39.046875) scale(0.7)"/>
      </g>
     </g>
    </g>
    <g id="text_15">
     <!-- ||$\delta$x||/||x|| -->
     <g transform="translate(16.3 198.678) rotate(-90) scale(0.1 -0.1)">
      <defs>
       <path id="DejaVuSans-78" d="M 3513 3500 
L 2247 1797 
L 3578 0 
L 2900 0 
L 1881 1375 
L 863 0 
L 184 0 
L 1544 1831 
L 300 3500 
L 978 3500 
L 1906 2253 
L 2834 3500 
L 3513 3500 
z
" transform="scale(0.015625)"/>
      </defs>
      <use xlink:href="#DejaVuSans-7c" transform="translate(0 0.578125)"/>
      <use xlink:href="#DejaVuSans-7c" transform="translate(33.691406 0.578125)"/>
      <use xlink:href="#DejaVuSans-Oblique-3b4" transform="translate(67.382812 0.578125)"/>
      <use xlink:href="#DejaVuSans-78" transform="translate(128.564453 0.578125)"/>
      <use xlink:href="#DejaVuSans-7c" transform="translate(187.744141 0.578125)"/>
      <use xlink:href="#DejaVuSans-7c" transform="translate(221.435547 0.578125)"/>
      <use xlink:href="#DejaVuSans-2f" transform="translate(255.126953 0.578125)"/>
      <use xlink:href="#DejaVuSans-7c" transform="translate(288.818359 0.578125)"/>
      <use xlink:href="#DejaVuSans-7c" transform="translate(322.509766 0.578125)"/>
      <use xlink:href="#DejaVuSans-78" transform="translate(356.201172 0.578125)"/>
      <use xlink:href="#DejaVuSans-7c" transform="translate(415.380859 0.578125)"/>
      <use xlink:href="#DejaVuSans-7c" transform="translate(449.072266 0.578125)"/>
     </g>
    </g>
   </g>
   <g id="line2d_27">
    <path d="M 73.832727 290.640862 
L 76.44794 289.484391 
L 76.707344 286.805201 
L 77.805228 287.255581 
L 78.992624 287.332882 
L 80.126812 285.775389 
L 80.496877 284.848135 
L 80.674328 287.395498 
L 81.126187 289.126425 
L 81.403969 285.836481 
L 82.178801 285.239614 
L 82.270699 281.181719 
L 82.550553 295.488 
L 82.80076 284.026423 
L 82.811375 285.244306 
L 83.420702 286.297165 
L 84.055127 285.491914 
L 84.303652 287.431057 
L 84.517237 283.279293 
L 84.582319 286.97395 
L 84.587658 281.861653 
L 84.7395 279.985186 
L 84.739733 283.968815 
L 85.132062 282.599215 
L 85.552499 283.359301 
L 85.579541 279.513617 
L 85.671809 285.79464 
L 86.092961 284.925055 
L 86.118405 282.417722 
L 86.428794 283.069024 
L 86.502305 286.88368 
L 86.816658 281.622198 
L 86.995209 282.15152 
L 87.019114 295.319549 
L 88.428724 281.506967 
L 89.100615 281.361879 
L 90.611896 285.550709 
L 91.065895 277.955666 
L 91.546642 278.221317 
L 91.629202 279.991563 
L 92.116694 276.715 
L 92.552158 277.115454 
L 92.632278 277.026231 
L 92.709717 276.40813 
L 93.071149 285.759968 
L 93.243692 275.417975 
L 93.785256 283.13668 
L 94.165867 275.592196 
L 94.482694 276.070162 
L 94.633164 276.602459 
L 95.202324 275.064621 
L 95.293514 284.608619 
L 95.49703 272.390551 
L 96.61953 280.729588 
L 96.834351 274.108239 
L 96.855783 276.908471 
L 97.199999 280.798352 
L 97.250001 272.895892 
L 97.252478 275.715702 
L 97.368628 276.197667 
L 97.517066 273.402312 
L 98.002009 270.955457 
L 98.438022 272.803565 
L 99.068596 274.520235 
L 99.105397 284.43126 
L 100.254893 270.13081 
L 101.357297 269.636231 
L 101.485577 271.540329 
L 102.053342 271.651511 
L 102.444617 271.194646 
L 102.545368 270.345468 
L 102.646889 274.159609 
L 102.784022 269.788982 
L 102.849687 270.788689 
L 103.101764 270.873325 
L 103.823315 271.962993 
L 104.281738 275.978375 
L 104.499638 264.753405 
L 105.078766 269.92989 
L 105.509055 272.731601 
L 105.734683 268.116902 
L 106.209832 273.50407 
L 106.493385 267.591064 
L 107.00537 267.822134 
L 107.14766 266.623018 
L 107.238141 280.665721 
L 107.358614 264.86178 
L 107.432565 266.442998 
L 107.48387 271.025247 
L 107.486251 264.73327 
L 109.131488 269.33871 
L 109.339045 263.880086 
L 109.76178 265.469282 
L 109.967167 264.262302 
L 110.836768 267.980543 
L 111.158802 271.317905 
L 111.516531 265.199691 
L 111.944035 265.157372 
L 112.383783 261.625539 
L 112.729711 263.617405 
L 113.150883 263.509013 
L 113.393194 261.292105 
L 114.044467 265.382859 
L 114.464199 260.380931 
L 115.017359 261.131026 
L 115.070089 263.29529 
L 115.34001 260.821439 
L 115.411215 258.759522 
L 115.591499 260.359619 
L 116.963807 264.137365 
L 117.410684 266.627697 
L 118.000278 260.459361 
L 118.128843 260.562142 
L 118.150788 258.432388 
L 118.264465 262.574191 
L 118.592754 258.412337 
L 118.919642 257.947352 
L 118.951349 257.142708 
L 119.841623 256.793156 
L 120.427787 259.32449 
L 120.817744 259.306544 
L 120.882573 258.315387 
L 121.129334 256.81528 
L 121.308814 262.805912 
L 121.323891 258.39363 
L 121.634689 256.609085 
L 121.894256 257.494428 
L 122.005661 256.080021 
L 122.099618 258.217029 
L 122.397923 255.227098 
L 122.544966 262.492703 
L 122.665783 261.112567 
L 123.191798 271.184387 
L 124.311696 253.813537 
L 124.824495 254.653367 
L 125.178184 252.894312 
L 125.250348 264.331572 
L 126.555848 250.269038 
L 126.838997 256.132444 
L 127.114712 272.647767 
L 127.115406 252.25772 
L 128.043904 248.953211 
L 128.277493 256.914742 
L 128.332983 255.93844 
L 128.57478 257.680857 
L 128.981645 250.691062 
L 129.190388 249.747589 
L 129.663848 249.462118 
L 129.917185 251.415168 
L 130.174628 258.557454 
L 130.206393 265.637052 
L 130.219367 250.380641 
L 130.35578 253.366495 
L 131.055357 250.754144 
L 131.264256 250.768608 
L 132.305935 249.587424 
L 132.323763 250.385862 
L 132.361982 248.646076 
L 133.163199 246.400051 
L 133.418203 253.491237 
L 134.244131 260.049752 
L 134.719329 248.550429 
L 135.160744 248.313562 
L 135.262624 247.239159 
L 135.985474 247.572727 
L 136.223895 245.055286 
L 136.237192 247.554876 
L 136.492455 245.978086 
L 136.618859 247.142366 
L 137.157216 247.358304 
L 137.552474 247.070253 
L 137.855068 245.231564 
L 138.01511 241.188884 
L 138.045317 245.810586 
L 138.646542 243.517008 
L 139.222663 243.193346 
L 139.342146 246.400258 
L 139.791336 242.852979 
L 139.803717 244.216724 
L 139.960175 246.14722 
L 140.127568 245.439959 
L 140.852592 246.43125 
L 141.608033 246.520629 
L 141.724537 251.566587 
L 141.774521 243.547179 
L 141.97451 240.860491 
L 142.477956 248.493733 
L 143.111254 240.974019 
L 143.625662 241.323699 
L 144.759379 239.536466 
L 144.987916 238.197656 
L 145.416585 240.516267 
L 145.571434 238.579212 
L 145.837506 240.780528 
L 146.673624 238.657002 
L 146.845581 243.503987 
L 147.390821 238.664185 
L 147.461611 239.793135 
L 147.474673 236.62072 
L 147.956688 239.67235 
L 148.32818 238.41842 
L 149.170699 240.919372 
L 149.87614 237.709185 
L 150.013747 236.064865 
L 150.312431 237.293648 
L 150.48895 236.854659 
L 151.121655 246.868301 
L 151.638199 236.087333 
L 152.076877 231.385364 
L 152.286302 235.422605 
L 152.580149 233.616865 
L 153.125905 242.709526 
L 153.191873 236.720749 
L 153.435581 234.925332 
L 153.92933 235.160668 
L 154.317258 235.581614 
L 154.470712 233.223677 
L 154.723522 233.798016 
L 154.738774 240.085532 
L 154.799273 232.931663 
L 154.854367 233.167331 
L 154.8879 230.951649 
L 155.578985 236.085149 
L 156.060677 233.308186 
L 156.640612 237.799786 
L 156.91576 230.832379 
L 157.472677 235.785207 
L 158.358585 226.437164 
L 158.418377 237.414075 
L 158.68872 229.660843 
L 159.243385 231.676767 
L 159.38833 242.040737 
L 159.840795 231.280222 
L 160.120749 228.971871 
L 160.1338 239.957087 
L 160.401983 231.981937 
L 161.063153 228.098815 
L 161.417538 228.633073 
L 161.871615 235.853409 
L 161.91901 227.532032 
L 162.829214 227.271773 
L 162.840259 229.823614 
L 162.980188 223.156364 
L 163.109779 226.975742 
L 163.38019 226.374546 
L 163.471792 227.761433 
L 163.860256 227.886589 
L 163.923673 229.387418 
L 164.028152 226.986363 
L 164.266322 224.435286 
L 165.486443 223.052613 
L 166.140045 230.287961 
L 166.317076 222.990036 
L 167.326652 224.499629 
L 167.354416 222.498882 
L 167.405204 224.096779 
L 167.74022 230.089573 
L 167.915052 224.302866 
L 168.120958 226.14222 
L 168.301341 223.820306 
L 168.305038 229.322156 
L 168.323322 225.652752 
L 169.33449 220.925487 
L 169.523748 225.065262 
L 169.996841 222.196732 
L 170.142582 226.572177 
L 171.50159 220.862898 
L 171.746754 221.032613 
L 171.989969 221.022674 
L 172.624732 225.336395 
L 172.757419 218.188021 
L 172.815617 228.52336 
L 173.034488 219.772682 
L 173.718479 221.079259 
L 173.849928 218.626007 
L 174.427951 224.38261 
L 175.810727 218.186853 
L 176.110164 222.51095 
L 176.424844 219.161209 
L 176.432095 222.175835 
L 176.584986 216.530543 
L 177.541865 214.612826 
L 177.548071 215.685143 
L 177.808762 218.952522 
L 177.928104 217.431548 
L 178.026503 223.907728 
L 178.539786 218.73844 
L 178.793911 219.596049 
L 179.048578 218.847821 
L 179.20507 215.089203 
L 179.614537 212.348895 
L 180.145844 215.641089 
L 180.935866 213.575006 
L 181.08649 216.441789 
L 181.105553 218.953346 
L 181.551073 214.446863 
L 182.112322 217.786906 
L 182.303567 223.879827 
L 182.574942 213.603218 
L 182.824325 213.102593 
L 182.852054 211.135151 
L 183.362142 214.845343 
L 183.422745 214.045622 
L 184.046395 210.189576 
L 184.081313 211.946227 
L 185.051317 213.285418 
L 185.051461 211.183295 
L 185.86825 211.546068 
L 185.918167 208.637972 
L 186.21695 210.018833 
L 186.608569 213.307604 
L 186.915071 209.409004 
L 187.07578 208.93114 
L 187.078164 212.957751 
L 187.152757 208.497581 
L 187.70331 213.703389 
L 187.725928 210.067346 
L 189.214213 219.234464 
L 189.416642 208.761452 
L 190.075011 211.048275 
L 190.518112 205.802042 
L 190.850725 207.176469 
L 191.068704 211.665835 
L 191.696998 208.244087 
L 191.734821 207.416393 
L 192.099212 205.967051 
L 192.214795 207.162098 
L 193.117915 204.850425 
L 193.149775 205.045501 
L 193.412537 210.21773 
L 193.441669 203.214661 
L 193.921321 209.477911 
L 194.031006 202.997725 
L 194.227565 208.568592 
L 194.777208 205.966003 
L 194.817638 214.62141 
L 195.125758 204.985854 
L 195.764332 205.533903 
L 196.843747 202.815817 
L 197.054245 202.691986 
L 197.223868 206.330276 
L 197.25723 204.041604 
L 197.516214 199.464829 
L 198.189213 212.516559 
L 199.222527 200.733027 
L 199.655721 204.101112 
L 200.443782 199.978364 
L 200.604166 200.416573 
L 201.501867 198.989273 
L 202.240575 201.406838 
L 203.0242 195.155309 
L 203.036421 202.063907 
L 203.594954 196.27702 
L 204.059397 197.159938 
L 204.085177 201.580753 
L 204.109164 197.672428 
L 204.913378 200.985455 
L 205.198504 203.971506 
L 205.284837 196.852919 
L 205.413547 200.684624 
L 205.650235 194.117708 
L 205.653378 199.612236 
L 205.709361 196.355915 
L 205.843782 193.973901 
L 206.432059 195.769344 
L 206.466273 201.778161 
L 206.890846 195.39675 
L 207.111448 196.270566 
L 207.359636 193.310296 
L 207.38334 196.248009 
L 207.685744 194.871228 
L 207.948405 194.672675 
L 208.123459 197.518495 
L 208.180162 196.255774 
L 209.117932 200.835012 
L 209.346716 195.425785 
L 210.54246 198.784679 
L 210.995851 191.991445 
L 211.080478 195.153482 
L 212.03643 190.934697 
L 212.083656 197.949255 
L 212.224284 188.656497 
L 212.289294 192.222668 
L 212.325235 191.971929 
L 212.573591 190.669943 
L 212.587313 189.955979 
L 212.850188 192.4035 
L 213.298327 191.66014 
L 213.44985 190.194276 
L 214.236435 191.891829 
L 214.907017 190.272779 
L 215.945856 188.948502 
L 216.156401 190.568121 
L 216.270827 192.608137 
L 216.697333 191.080003 
L 216.705441 190.420847 
L 217.095155 187.411147 
L 217.108019 189.451577 
L 217.502843 188.353845 
L 218.150631 194.246553 
L 218.170705 184.148416 
L 218.230249 187.352024 
L 218.579672 190.797087 
L 219.327173 193.680803 
L 219.507229 189.231373 
L 219.524559 184.300828 
L 219.780798 185.842952 
L 219.781527 188.962746 
L 221.072919 187.334218 
L 221.260707 186.137541 
L 221.57888 185.78113 
L 222.561953 185.210729 
L 222.613112 183.014069 
L 223.230376 181.66386 
L 223.379783 184.890326 
L 223.93661 181.712387 
L 223.963473 184.734376 
L 224.15558 180.077279 
L 224.303176 181.770331 
L 224.802035 181.013939 
L 224.952177 182.084759 
L 225.306639 181.373341 
L 225.467308 185.973377 
L 226.044223 182.367912 
L 226.151494 191.735323 
L 226.458244 185.5466 
L 227.021484 181.061833 
L 227.356599 182.846919 
L 227.489799 177.610567 
L 227.83984 180.174356 
L 227.970317 179.771264 
L 228.022782 179.034738 
L 228.281006 183.917074 
L 228.489036 181.249268 
L 229.175647 180.432427 
L 230.426203 180.003969 
L 231.848134 176.645088 
L 231.95557 177.035538 
L 231.994011 178.718772 
L 232.491361 181.773466 
L 233.37178 179.060348 
L 233.840615 177.056633 
L 233.912709 175.020647 
L 233.926541 177.555729 
L 234.001014 183.373221 
L 234.112429 172.831026 
L 234.204001 177.766788 
L 234.358407 172.668721 
L 235.490356 176.319529 
L 235.803245 173.291228 
L 236.175056 171.396941 
L 236.280516 177.476587 
L 236.287166 175.772136 
L 236.428451 173.865926 
L 236.748824 175.066813 
L 237.071048 179.257899 
L 237.881231 174.866176 
L 238.120006 175.259274 
L 238.174849 172.597062 
L 238.44141 176.408418 
L 238.508929 171.369833 
L 238.711666 172.529094 
L 239.192105 172.433855 
L 239.75065 176.913346 
L 239.93864 171.625529 
L 240.018735 181.414744 
L 240.210864 171.192222 
L 240.440959 172.654918 
L 240.718477 169.939466 
L 241.144414 171.689374 
L 241.635067 166.794324 
L 241.735394 168.25995 
L 242.397514 175.358189 
L 242.614789 169.651237 
L 243.012096 172.430473 
L 243.286854 170.772316 
L 243.556249 172.591131 
L 244.471094 167.542028 
L 244.872972 168.060081 
L 245.066769 168.005979 
L 245.074117 170.554261 
L 245.82713 170.765248 
L 246.046176 164.526733 
L 246.299034 169.860845 
L 246.715567 166.718857 
L 247.007372 166.72425 
L 247.263428 169.719173 
L 248.077665 169.190011 
L 248.338786 163.908846 
L 249.540829 161.722502 
L 249.916398 165.995022 
L 249.993066 165.26309 
L 250.671148 163.196477 
L 250.787299 168.594092 
L 250.977327 162.311312 
L 251.181316 165.097624 
L 251.653454 159.97128 
L 252.284313 172.332243 
L 252.626927 163.510722 
L 253.062289 163.759505 
L 253.154804 166.020632 
L 253.222843 162.191643 
L 253.337451 167.57906 
L 254.222778 163.492377 
L 254.429849 165.391587 
L 254.879462 161.71925 
L 254.92732 161.771324 
L 255.199606 160.763348 
L 255.209151 162.10538 
L 255.224128 160.638611 
L 255.764157 161.415128 
L 256.028417 160.404191 
L 256.408928 169.42957 
L 256.541616 161.883379 
L 256.695705 161.000575 
L 256.968677 161.527644 
L 257.084265 160.261498 
L 257.208311 157.392144 
L 257.660776 159.870871 
L 257.838467 156.645263 
L 258.035657 155.677641 
L 258.171525 182.454285 
L 258.758395 156.107631 
L 259.23998 160.565661 
L 259.692105 157.980208 
L 260.15776 154.030929 
L 260.502603 155.725309 
L 260.814757 158.528086 
L 261.214872 171.590588 
L 261.307323 163.614456 
L 261.66231 162.222592 
L 261.759588 159.142458 
L 261.797403 153.657526 
L 261.836955 156.236204 
L 263.406739 162.539787 
L 264.304978 160.471335 
L 265.132187 162.442973 
L 265.359005 154.232026 
L 265.449338 160.386667 
L 265.641726 157.230974 
L 265.664438 160.619375 
L 265.792706 160.762491 
L 266.289247 153.583752 
L 267.108315 152.560249 
L 267.163302 151.987067 
L 267.546513 152.496974 
L 268.760122 155.37813 
L 268.980692 153.429944 
L 269.194183 159.089679 
L 269.96634 153.428299 
L 270.072684 150.656262 
L 270.144204 154.68861 
L 270.370024 149.158941 
L 270.651553 151.678626 
L 270.755402 148.353696 
L 271.00779 150.71902 
L 271.622592 147.791558 
L 271.633202 155.79281 
L 271.894187 150.007922 
L 271.958363 154.790886 
L 272.017895 147.96833 
L 272.03609 151.253485 
L 272.340186 148.37634 
L 272.443768 149.178099 
L 272.484697 149.077179 
L 273.566123 153.521106 
L 273.698763 147.300453 
L 273.761547 152.626344 
L 274.068604 148.041985 
L 275.354972 145.280122 
L 275.464101 147.078886 
L 276.630354 143.681505 
L 276.839353 147.27178 
L 277.012121 146.477175 
L 277.460457 143.094207 
L 277.634063 151.865287 
L 277.720023 141.99731 
L 277.846624 146.3473 
L 278.044422 145.253901 
L 278.161454 146.509956 
L 278.66695 143.07281 
L 279.716791 152.132669 
L 280.219739 164.741072 
L 280.398858 142.785378 
L 280.805201 142.437647 
L 280.85992 144.323532 
L 282.057952 141.576705 
L 282.156839 151.868776 
L 282.52712 140.680587 
L 283.127903 146.141003 
L 283.704902 144.172479 
L 283.935968 137.168549 
L 283.964882 138.768036 
L 284.158464 148.914527 
L 284.195376 140.227287 
L 284.433323 147.02475 
L 284.47385 143.797471 
L 284.727319 140.898562 
L 285.143523 139.987744 
L 285.409271 143.014224 
L 285.720133 144.950869 
L 285.884078 139.081739 
L 286.397537 139.475593 
L 287.215682 137.386245 
L 287.565773 139.306253 
L 287.666559 138.192099 
L 287.729943 139.640558 
L 288.155231 137.529226 
L 288.726474 139.894191 
L 289.308175 134.472346 
L 289.638072 142.005244 
L 290.36081 136.048412 
L 290.522982 132.929586 
L 290.78662 135.345294 
L 290.789501 132.088446 
L 291.448824 139.94134 
L 291.813695 135.682619 
L 292.286734 133.825606 
L 292.509985 135.475125 
L 292.725065 134.312501 
L 292.970043 134.990222 
L 293.8498 134.815481 
L 294.217391 137.0219 
L 294.60721 129.716 
L 294.672176 134.578253 
L 295.612694 130.621431 
L 295.815523 131.67453 
L 296.137592 134.200566 
L 296.487836 134.731044 
L 296.880855 129.184192 
L 296.920709 131.106851 
L 297.246322 131.752768 
L 298.185824 127.925417 
L 298.1924 130.81464 
L 298.282099 128.022066 
L 298.615896 130.417815 
L 299.047449 129.696469 
L 299.695168 130.071967 
L 299.70657 125.399322 
L 300.15226 127.685794 
L 300.689787 127.392237 
L 301.548511 129.677438 
L 302.528851 129.792764 
L 302.595564 126.895639 
L 303.009708 130.333447 
L 303.034786 135.366004 
L 303.315044 129.573575 
L 303.570625 128.511427 
L 303.791434 125.788412 
L 303.990935 126.337899 
L 304.024533 127.499961 
L 304.650684 129.86888 
L 305.13163 125.144484 
L 305.21577 122.184239 
L 305.419037 125.851729 
L 305.638362 125.213459 
L 306.013139 127.329998 
L 306.040396 122.391573 
L 306.206984 127.396248 
L 306.594899 125.170406 
L 307.108786 124.321803 
L 307.953682 129.730901 
L 308.190002 120.855021 
L 308.465592 125.540595 
L 308.536179 123.870217 
L 309.007774 124.397031 
L 309.187521 125.453098 
L 310.040694 120.476185 
L 310.571394 120.140224 
L 310.652248 122.933725 
L 310.844636 124.169221 
L 311.096376 122.453453 
L 311.177465 119.783297 
L 311.217628 121.476497 
L 311.310666 124.496487 
L 312.227251 121.972023 
L 312.426042 126.505624 
L 313.163304 118.052387 
L 313.344324 123.061362 
L 313.381101 121.002521 
L 314.04553 118.451688 
L 314.128174 118.325566 
L 314.810889 118.826839 
L 315.490382 117.706561 
L 315.781174 131.338441 
L 315.901943 123.613495 
L 315.907571 124.299085 
L 316.52697 117.135447 
L 317.133929 127.575992 
L 317.27246 116.616342 
L 317.478659 116.302194 
L 317.609833 116.580048 
L 319.462313 111.692381 
L 319.597745 111.764441 
L 319.621154 121.796093 
L 320.748597 114.982001 
L 320.81658 110.465624 
L 320.866758 111.878965 
L 321.02408 112.511158 
L 321.062798 115.437538 
L 321.168911 115.397088 
L 321.410187 112.715196 
L 321.647779 114.477015 
L 322.069246 111.671857 
L 322.570252 115.05525 
L 322.741064 110.88986 
L 323.050296 111.207568 
L 323.37452 112.776321 
L 323.620183 112.176196 
L 323.726898 112.512954 
L 324.077956 111.007345 
L 324.769453 113.587637 
L 325.574013 114.406728 
L 325.629855 110.972736 
L 326.452446 110.155413 
L 326.833958 110.396634 
L 326.887161 117.672718 
L 327.173097 107.822896 
L 327.315119 111.304471 
L 328.180222 107.832903 
L 328.650203 108.744975 
L 329.072647 114.128054 
L 329.126149 113.121145 
L 329.156073 108.489226 
L 329.460304 111.768556 
L 329.807598 111.878957 
L 330.250611 108.019286 
L 330.609041 118.727969 
L 330.865652 114.687786 
L 330.878862 106.95158 
L 331.202924 109.801348 
L 331.594385 104.651383 
L 332.30854 113.262854 
L 332.573175 109.161414 
L 333.636028 104.049582 
L 334.335843 104.366633 
L 334.455973 103.406283 
L 335.651866 103.211124 
L 336.4307 106.319979 
L 336.710771 103.15579 
L 337.431914 102.611913 
L 337.480455 101.295749 
L 337.526229 104.045036 
L 338.711404 102.683927 
L 338.849944 101.742197 
L 339.370698 102.55624 
L 339.427406 103.942337 
L 339.891948 101.241838 
L 339.924368 109.346635 
L 340.144612 100.713312 
L 340.631434 97.999237 
L 340.67627 99.721878 
L 341.016547 103.246598 
L 341.044475 100.23497 
L 341.373996 97.469324 
L 341.821659 100.758425 
L 342.615292 98.678192 
L 342.87917 99.761773 
L 342.897633 97.97062 
L 343.355434 97.34115 
L 343.56802 98.617017 
L 343.839058 103.160987 
L 343.972268 97.984129 
L 344.676823 95.500029 
L 345.155343 114.288936 
L 345.531765 97.411006 
L 345.812092 97.366599 
L 346.456915 96.494567 
L 347.201742 96.951733 
L 347.479811 95.769689 
L 347.815139 97.752499 
L 348.722605 95.073604 
L 348.737247 94.516063 
L 348.758326 95.303003 
L 348.869336 98.631513 
L 349.490199 95.015408 
L 350.115233 93.028671 
L 350.82739 93.731732 
L 350.838717 95.578078 
L 350.951348 92.770243 
L 351.381439 91.938646 
L 351.730421 93.312187 
L 351.840111 94.345536 
L 351.906022 94.14622 
L 352.095897 90.638402 
L 352.574087 89.781204 
L 352.978215 91.396184 
L 353.884745 91.445586 
L 353.959604 91.614192 
L 353.963325 91.19179 
L 354.203971 91.24758 
L 354.81359 91.57457 
L 354.819154 95.934073 
L 354.968608 92.737964 
L 355.701371 92.040522 
L 355.724106 90.327022 
L 356.356762 92.182212 
L 356.646741 86.204087 
L 356.809496 91.872788 
L 357.402778 87.618229 
L 357.556388 91.78742 
L 357.734602 86.468069 
L 357.773642 90.59339 
L 357.910574 88.526685 
L 358.940108 87.610715 
L 358.951968 90.069205 
L 359.024401 89.188047 
L 359.376113 88.450597 
L 360.076569 91.064993 
L 360.096506 84.977108 
L 360.980566 86.586747 
L 361.060139 85.861747 
L 361.398762 88.049659 
L 361.519598 85.508767 
L 362.026595 84.495142 
L 363.106 88.102137 
L 363.463522 85.44575 
L 363.913795 84.573525 
L 364.169068 88.718836 
L 364.706835 88.657305 
L 364.835065 80.172382 
L 365.855444 81.526816 
L 365.930974 85.693245 
L 366.136626 85.730574 
L 366.492409 81.241396 
L 366.793043 83.592305 
L 367.272662 85.702219 
L 367.458306 82.109859 
L 367.818476 80.396092 
L 367.947926 80.647285 
L 368.642761 83.915642 
L 369.151866 82.470239 
L 369.278998 79.707618 
L 369.821121 81.66135 
L 370.109411 78.674719 
L 370.197948 79.782847 
L 370.839928 79.787819 
L 370.857985 82.178584 
L 371.890155 79.683906 
L 372.051532 82.770014 
L 372.467186 77.554473 
L 372.47101 80.075279 
L 373.29177 74.202052 
L 373.568605 77.797625 
L 373.576809 81.96087 
L 373.779251 76.697029 
L 373.826789 79.612616 
L 374.118522 79.2547 
L 374.423547 75.612665 
L 374.825115 78.625493 
L 374.898387 75.002302 
L 375.290531 75.919226 
L 375.601418 74.649549 
L 375.86192 76.977171 
L 376.888978 83.761303 
L 377.365897 71.83084 
L 377.590124 77.934367 
L 378.05964 81.049657 
L 378.352387 73.104385 
L 378.354001 75.068848 
L 378.359521 77.41743 
L 378.396528 71.800378 
L 378.634339 77.853589 
L 379.153097 74.607226 
L 379.196472 75.309595 
L 379.503438 75.580231 
L 379.691601 73.455951 
L 380.871867 74.197282 
L 381.455428 73.629593 
L 381.502221 77.061026 
L 381.556039 73.041718 
L 381.686037 75.244735 
L 382.056352 72.837763 
L 382.501066 73.389591 
L 383.909502 73.299283 
L 385.035471 69.257752 
L 385.285697 72.813202 
L 385.326538 71.470998 
L 385.559541 71.488413 
L 386.725352 65.264246 
L 386.859655 72.985383 
L 386.946436 71.879533 
L 387.073286 70.809098 
L 387.261176 70.910378 
L 387.931631 67.948759 
L 388.306664 71.390477 
L 389.174809 73.746088 
L 389.185811 69.590286 
L 389.445992 70.27331 
L 389.831374 67.910089 
L 389.969446 62.686326 
L 390.015947 68.812008 
L 390.237152 69.424074 
L 390.422142 67.183774 
L 390.677649 69.727507 
L 390.706222 66.482498 
L 390.77878 68.315574 
L 390.914461 74.028632 
L 391.176979 67.800092 
L 391.473838 65.84667 
L 393.384275 66.077946 
L 393.452702 67.411509 
L 393.501929 63.157056 
L 394.035161 66.986773 
L 395.1774 66.500803 
L 397.071555 67.167151 
L 397.897425 64.333616 
L 398.487273 66.410511 
L 398.487273 66.410511 
" clip-path="url(#p806c4876a9)" style="fill: none; stroke: #1f77b4; stroke-width: 1.5; stroke-linecap: square"/>
   </g>
   <g id="line2d_28">
    <path d="M 73.832727 285.63544 
L 398.487273 53.568 
L 398.487273 53.568 
" clip-path="url(#p806c4876a9)" style="fill: none; stroke: #ff7f0e; stroke-width: 1.5; stroke-linecap: square"/>
   </g>
   <g id="patch_3">
    <path d="M 57.6 307.584 
L 57.6 41.472 
" style="fill: none; stroke: #000000; stroke-width: 0.8; stroke-linejoin: miter; stroke-linecap: square"/>
   </g>
   <g id="patch_4">
    <path d="M 414.72 307.584 
L 414.72 41.472 
" style="fill: none; stroke: #000000; stroke-width: 0.8; stroke-linejoin: miter; stroke-linecap: square"/>
   </g>
   <g id="patch_5">
    <path d="M 57.6 307.584 
L 414.72 307.584 
" style="fill: none; stroke: #000000; stroke-width: 0.8; stroke-linejoin: miter; stroke-linecap: square"/>
   </g>
   <g id="patch_6">
    <path d="M 57.6 41.472 
L 414.72 41.472 
" style="fill: none; stroke: #000000; stroke-width: 0.8; stroke-linejoin: miter; stroke-linecap: square"/>
   </g>
   <g id="text_16">
    <!-- Perturbation when A is disturbed (m = 2) -->
    <g transform="translate(112.648125 35.472) scale(0.12 -0.12)">
     <defs>
      <path id="DejaVuSans-50" d="M 1259 4147 
L 1259 2394 
L 2053 2394 
Q 2494 2394 2734 2622 
Q 2975 2850 2975 3272 
Q 2975 3691 2734 3919 
Q 2494 4147 2053 4147 
L 1259 4147 
z
M 628 4666 
L 2053 4666 
Q 2838 4666 3239 4311 
Q 3641 3956 3641 3272 
Q 3641 2581 3239 2228 
Q 2838 1875 2053 1875 
L 1259 1875 
L 1259 0 
L 628 0 
L 628 4666 
z
" transform="scale(0.015625)"/>
      <path id="DejaVuSans-65" d="M 3597 1894 
L 3597 1613 
L 953 1613 
Q 991 1019 1311 708 
Q 1631 397 2203 397 
Q 2534 397 2845 478 
Q 3156 559 3463 722 
L 3463 178 
Q 3153 47 2828 -22 
Q 2503 -91 2169 -91 
Q 1331 -91 842 396 
Q 353 884 353 1716 
Q 353 2575 817 3079 
Q 1281 3584 2069 3584 
Q 2775 3584 3186 3129 
Q 3597 2675 3597 1894 
z
M 3022 2063 
Q 3016 2534 2758 2815 
Q 2500 3097 2075 3097 
Q 1594 3097 1305 2825 
Q 1016 2553 972 2059 
L 3022 2063 
z
" transform="scale(0.015625)"/>
      <path id="DejaVuSans-72" d="M 2631 2963 
Q 2534 3019 2420 3045 
Q 2306 3072 2169 3072 
Q 1681 3072 1420 2755 
Q 1159 2438 1159 1844 
L 1159 0 
L 581 0 
L 581 3500 
L 1159 3500 
L 1159 2956 
Q 1341 3275 1631 3429 
Q 1922 3584 2338 3584 
Q 2397 3584 2469 3576 
Q 2541 3569 2628 3553 
L 2631 2963 
z
" transform="scale(0.015625)"/>
      <path id="DejaVuSans-74" d="M 1172 4494 
L 1172 3500 
L 2356 3500 
L 2356 3053 
L 1172 3053 
L 1172 1153 
Q 1172 725 1289 603 
Q 1406 481 1766 481 
L 2356 481 
L 2356 0 
L 1766 0 
Q 1100 0 847 248 
Q 594 497 594 1153 
L 594 3053 
L 172 3053 
L 172 3500 
L 594 3500 
L 594 4494 
L 1172 4494 
z
" transform="scale(0.015625)"/>
      <path id="DejaVuSans-75" d="M 544 1381 
L 544 3500 
L 1119 3500 
L 1119 1403 
Q 1119 906 1312 657 
Q 1506 409 1894 409 
Q 2359 409 2629 706 
Q 2900 1003 2900 1516 
L 2900 3500 
L 3475 3500 
L 3475 0 
L 2900 0 
L 2900 538 
Q 2691 219 2414 64 
Q 2138 -91 1772 -91 
Q 1169 -91 856 284 
Q 544 659 544 1381 
z
M 1991 3584 
L 1991 3584 
z
" transform="scale(0.015625)"/>
      <path id="DejaVuSans-62" d="M 3116 1747 
Q 3116 2381 2855 2742 
Q 2594 3103 2138 3103 
Q 1681 3103 1420 2742 
Q 1159 2381 1159 1747 
Q 1159 1113 1420 752 
Q 1681 391 2138 391 
Q 2594 391 2855 752 
Q 3116 1113 3116 1747 
z
M 1159 2969 
Q 1341 3281 1617 3432 
Q 1894 3584 2278 3584 
Q 2916 3584 3314 3078 
Q 3713 2572 3713 1747 
Q 3713 922 3314 415 
Q 2916 -91 2278 -91 
Q 1894 -91 1617 61 
Q 1341 213 1159 525 
L 1159 0 
L 581 0 
L 581 4863 
L 1159 4863 
L 1159 2969 
z
" transform="scale(0.015625)"/>
      <path id="DejaVuSans-61" d="M 2194 1759 
Q 1497 1759 1228 1600 
Q 959 1441 959 1056 
Q 959 750 1161 570 
Q 1363 391 1709 391 
Q 2188 391 2477 730 
Q 2766 1069 2766 1631 
L 2766 1759 
L 2194 1759 
z
M 3341 1997 
L 3341 0 
L 2766 0 
L 2766 531 
Q 2569 213 2275 61 
Q 1981 -91 1556 -91 
Q 1019 -91 701 211 
Q 384 513 384 1019 
Q 384 1609 779 1909 
Q 1175 2209 1959 2209 
L 2766 2209 
L 2766 2266 
Q 2766 2663 2505 2880 
Q 2244 3097 1772 3097 
Q 1472 3097 1187 3025 
Q 903 2953 641 2809 
L 641 3341 
Q 956 3463 1253 3523 
Q 1550 3584 1831 3584 
Q 2591 3584 2966 3190 
Q 3341 2797 3341 1997 
z
" transform="scale(0.015625)"/>
      <path id="DejaVuSans-69" d="M 603 3500 
L 1178 3500 
L 1178 0 
L 603 0 
L 603 3500 
z
M 603 4863 
L 1178 4863 
L 1178 4134 
L 603 4134 
L 603 4863 
z
" transform="scale(0.015625)"/>
      <path id="DejaVuSans-6f" d="M 1959 3097 
Q 1497 3097 1228 2736 
Q 959 2375 959 1747 
Q 959 1119 1226 758 
Q 1494 397 1959 397 
Q 2419 397 2687 759 
Q 2956 1122 2956 1747 
Q 2956 2369 2687 2733 
Q 2419 3097 1959 3097 
z
M 1959 3584 
Q 2709 3584 3137 3096 
Q 3566 2609 3566 1747 
Q 3566 888 3137 398 
Q 2709 -91 1959 -91 
Q 1206 -91 779 398 
Q 353 888 353 1747 
Q 353 2609 779 3096 
Q 1206 3584 1959 3584 
z
" transform="scale(0.015625)"/>
      <path id="DejaVuSans-6e" d="M 3513 2113 
L 3513 0 
L 2938 0 
L 2938 2094 
Q 2938 2591 2744 2837 
Q 2550 3084 2163 3084 
Q 1697 3084 1428 2787 
Q 1159 2491 1159 1978 
L 1159 0 
L 581 0 
L 581 3500 
L 1159 3500 
L 1159 2956 
Q 1366 3272 1645 3428 
Q 1925 3584 2291 3584 
Q 2894 3584 3203 3211 
Q 3513 2838 3513 2113 
z
" transform="scale(0.015625)"/>
      <path id="DejaVuSans-20" transform="scale(0.015625)"/>
      <path id="DejaVuSans-77" d="M 269 3500 
L 844 3500 
L 1563 769 
L 2278 3500 
L 2956 3500 
L 3675 769 
L 4391 3500 
L 4966 3500 
L 4050 0 
L 3372 0 
L 2619 2869 
L 1863 0 
L 1184 0 
L 269 3500 
z
" transform="scale(0.015625)"/>
      <path id="DejaVuSans-68" d="M 3513 2113 
L 3513 0 
L 2938 0 
L 2938 2094 
Q 2938 2591 2744 2837 
Q 2550 3084 2163 3084 
Q 1697 3084 1428 2787 
Q 1159 2491 1159 1978 
L 1159 0 
L 581 0 
L 581 4863 
L 1159 4863 
L 1159 2956 
Q 1366 3272 1645 3428 
Q 1925 3584 2291 3584 
Q 2894 3584 3203 3211 
Q 3513 2838 3513 2113 
z
" transform="scale(0.015625)"/>
      <path id="DejaVuSans-73" d="M 2834 3397 
L 2834 2853 
Q 2591 2978 2328 3040 
Q 2066 3103 1784 3103 
Q 1356 3103 1142 2972 
Q 928 2841 928 2578 
Q 928 2378 1081 2264 
Q 1234 2150 1697 2047 
L 1894 2003 
Q 2506 1872 2764 1633 
Q 3022 1394 3022 966 
Q 3022 478 2636 193 
Q 2250 -91 1575 -91 
Q 1294 -91 989 -36 
Q 684 19 347 128 
L 347 722 
Q 666 556 975 473 
Q 1284 391 1588 391 
Q 1994 391 2212 530 
Q 2431 669 2431 922 
Q 2431 1156 2273 1281 
Q 2116 1406 1581 1522 
L 1381 1569 
Q 847 1681 609 1914 
Q 372 2147 372 2553 
Q 372 3047 722 3315 
Q 1072 3584 1716 3584 
Q 2034 3584 2315 3537 
Q 2597 3491 2834 3397 
z
" transform="scale(0.015625)"/>
      <path id="DejaVuSans-64" d="M 2906 2969 
L 2906 4863 
L 3481 4863 
L 3481 0 
L 2906 0 
L 2906 525 
Q 2725 213 2448 61 
Q 2172 -91 1784 -91 
Q 1150 -91 751 415 
Q 353 922 353 1747 
Q 353 2572 751 3078 
Q 1150 3584 1784 3584 
Q 2172 3584 2448 3432 
Q 2725 3281 2906 2969 
z
M 947 1747 
Q 947 1113 1208 752 
Q 1469 391 1925 391 
Q 2381 391 2643 752 
Q 2906 1113 2906 1747 
Q 2906 2381 2643 2742 
Q 2381 3103 1925 3103 
Q 1469 3103 1208 2742 
Q 947 2381 947 1747 
z
" transform="scale(0.015625)"/>
      <path id="DejaVuSans-28" d="M 1984 4856 
Q 1566 4138 1362 3434 
Q 1159 2731 1159 2009 
Q 1159 1288 1364 580 
Q 1569 -128 1984 -844 
L 1484 -844 
Q 1016 -109 783 600 
Q 550 1309 550 2009 
Q 550 2706 781 3412 
Q 1013 4119 1484 4856 
L 1984 4856 
z
" transform="scale(0.015625)"/>
      <path id="DejaVuSans-6d" d="M 3328 2828 
Q 3544 3216 3844 3400 
Q 4144 3584 4550 3584 
Q 5097 3584 5394 3201 
Q 5691 2819 5691 2113 
L 5691 0 
L 5113 0 
L 5113 2094 
Q 5113 2597 4934 2840 
Q 4756 3084 4391 3084 
Q 3944 3084 3684 2787 
Q 3425 2491 3425 1978 
L 3425 0 
L 2847 0 
L 2847 2094 
Q 2847 2600 2669 2842 
Q 2491 3084 2119 3084 
Q 1678 3084 1418 2786 
Q 1159 2488 1159 1978 
L 1159 0 
L 581 0 
L 581 3500 
L 1159 3500 
L 1159 2956 
Q 1356 3278 1631 3431 
Q 1906 3584 2284 3584 
Q 2666 3584 2933 3390 
Q 3200 3197 3328 2828 
z
" transform="scale(0.015625)"/>
      <path id="DejaVuSans-3d" d="M 678 2906 
L 4684 2906 
L 4684 2381 
L 678 2381 
L 678 2906 
z
M 678 1631 
L 4684 1631 
L 4684 1100 
L 678 1100 
L 678 1631 
z
" transform="scale(0.015625)"/>
      <path id="DejaVuSans-29" d="M 513 4856 
L 1013 4856 
Q 1481 4119 1714 3412 
Q 1947 2706 1947 2009 
Q 1947 1309 1714 600 
Q 1481 -109 1013 -844 
L 513 -844 
Q 928 -128 1133 580 
Q 1338 1288 1338 2009 
Q 1338 2731 1133 3434 
Q 928 4138 513 4856 
z
" transform="scale(0.015625)"/>
     </defs>
     <use xlink:href="#DejaVuSans-50"/>
     <use xlink:href="#DejaVuSans-65" x="56.677734"/>
     <use xlink:href="#DejaVuSans-72" x="118.201172"/>
     <use xlink:href="#DejaVuSans-74" x="159.314453"/>
     <use xlink:href="#DejaVuSans-75" x="198.523438"/>
     <use xlink:href="#DejaVuSans-72" x="261.902344"/>
     <use xlink:href="#DejaVuSans-62" x="303.015625"/>
     <use xlink:href="#DejaVuSans-61" x="366.492188"/>
     <use xlink:href="#DejaVuSans-74" x="427.771484"/>
     <use xlink:href="#DejaVuSans-69" x="466.980469"/>
     <use xlink:href="#DejaVuSans-6f" x="494.763672"/>
     <use xlink:href="#DejaVuSans-6e" x="555.945312"/>
     <use xlink:href="#DejaVuSans-20" x="619.324219"/>
     <use xlink:href="#DejaVuSans-77" x="651.111328"/>
     <use xlink:href="#DejaVuSans-68" x="732.898438"/>
     <use xlink:href="#DejaVuSans-65" x="796.277344"/>
     <use xlink:href="#DejaVuSans-6e" x="857.800781"/>
     <use xlink:href="#DejaVuSans-20" x="921.179688"/>
     <use xlink:href="#DejaVuSans-41" x="952.966797"/>
     <use xlink:href="#DejaVuSans-20" x="1021.375"/>
     <use xlink:href="#DejaVuSans-69" x="1053.162109"/>
     <use xlink:href="#DejaVuSans-73" x="1080.945312"/>
     <use xlink:href="#DejaVuSans-20" x="1133.044922"/>
     <use xlink:href="#DejaVuSans-64" x="1164.832031"/>
     <use xlink:href="#DejaVuSans-69" x="1228.308594"/>
     <use xlink:href="#DejaVuSans-73" x="1256.091797"/>
     <use xlink:href="#DejaVuSans-74" x="1308.191406"/>
     <use xlink:href="#DejaVuSans-75" x="1347.400391"/>
     <use xlink:href="#DejaVuSans-72" x="1410.779297"/>
     <use xlink:href="#DejaVuSans-62" x="1451.892578"/>
     <use xlink:href="#DejaVuSans-65" x="1515.369141"/>
     <use xlink:href="#DejaVuSans-64" x="1576.892578"/>
     <use xlink:href="#DejaVuSans-20" x="1640.369141"/>
     <use xlink:href="#DejaVuSans-28" x="1672.15625"/>
     <use xlink:href="#DejaVuSans-6d" x="1711.169922"/>
     <use xlink:href="#DejaVuSans-20" x="1808.582031"/>
     <use xlink:href="#DejaVuSans-3d" x="1840.369141"/>
     <use xlink:href="#DejaVuSans-20" x="1924.158203"/>
     <use xlink:href="#DejaVuSans-32" x="1955.945312"/>
     <use xlink:href="#DejaVuSans-29" x="2019.568359"/>
    </g>
   </g>
   <g id="legend_1">
    <g id="patch_7">
     <path d="M 64.6 79.250125 
L 303.5 79.250125 
Q 305.5 79.250125 305.5 77.250125 
L 305.5 48.472 
Q 305.5 46.472 303.5 46.472 
L 64.6 46.472 
Q 62.6 46.472 62.6 48.472 
L 62.6 77.250125 
Q 62.6 79.250125 64.6 79.250125 
z
" style="fill: #ffffff; opacity: 0.8; stroke: #cccccc; stroke-linejoin: miter"/>
    </g>
    <g id="line2d_29">
     <path d="M 66.6 54.570437 
L 76.6 54.570437 
L 86.6 54.570437 
" style="fill: none; stroke: #1f77b4; stroke-width: 1.5; stroke-linecap: square"/>
    </g>
    <g id="text_17">
     <!-- relative solution perturbation -->
     <g transform="translate(94.6 58.070437) scale(0.1 -0.1)">
      <defs>
       <path id="DejaVuSans-6c" d="M 603 4863 
L 1178 4863 
L 1178 0 
L 603 0 
L 603 4863 
z
" transform="scale(0.015625)"/>
       <path id="DejaVuSans-76" d="M 191 3500 
L 800 3500 
L 1894 563 
L 2988 3500 
L 3597 3500 
L 2284 0 
L 1503 0 
L 191 3500 
z
" transform="scale(0.015625)"/>
       <path id="DejaVuSans-70" d="M 1159 525 
L 1159 -1331 
L 581 -1331 
L 581 3500 
L 1159 3500 
L 1159 2969 
Q 1341 3281 1617 3432 
Q 1894 3584 2278 3584 
Q 2916 3584 3314 3078 
Q 3713 2572 3713 1747 
Q 3713 922 3314 415 
Q 2916 -91 2278 -91 
Q 1894 -91 1617 61 
Q 1341 213 1159 525 
z
M 3116 1747 
Q 3116 2381 2855 2742 
Q 2594 3103 2138 3103 
Q 1681 3103 1420 2742 
Q 1159 2381 1159 1747 
Q 1159 1113 1420 752 
Q 1681 391 2138 391 
Q 2594 391 2855 752 
Q 3116 1113 3116 1747 
z
" transform="scale(0.015625)"/>
      </defs>
      <use xlink:href="#DejaVuSans-72"/>
      <use xlink:href="#DejaVuSans-65" x="38.863281"/>
      <use xlink:href="#DejaVuSans-6c" x="100.386719"/>
      <use xlink:href="#DejaVuSans-61" x="128.169922"/>
      <use xlink:href="#DejaVuSans-74" x="189.449219"/>
      <use xlink:href="#DejaVuSans-69" x="228.658203"/>
      <use xlink:href="#DejaVuSans-76" x="256.441406"/>
      <use xlink:href="#DejaVuSans-65" x="315.621094"/>
      <use xlink:href="#DejaVuSans-20" x="377.144531"/>
      <use xlink:href="#DejaVuSans-73" x="408.931641"/>
      <use xlink:href="#DejaVuSans-6f" x="461.03125"/>
      <use xlink:href="#DejaVuSans-6c" x="522.212891"/>
      <use xlink:href="#DejaVuSans-75" x="549.996094"/>
      <use xlink:href="#DejaVuSans-74" x="613.375"/>
      <use xlink:href="#DejaVuSans-69" x="652.583984"/>
      <use xlink:href="#DejaVuSans-6f" x="680.367188"/>
      <use xlink:href="#DejaVuSans-6e" x="741.548828"/>
      <use xlink:href="#DejaVuSans-20" x="804.927734"/>
      <use xlink:href="#DejaVuSans-70" x="836.714844"/>
      <use xlink:href="#DejaVuSans-65" x="900.191406"/>
      <use xlink:href="#DejaVuSans-72" x="961.714844"/>
      <use xlink:href="#DejaVuSans-74" x="1002.828125"/>
      <use xlink:href="#DejaVuSans-75" x="1042.037109"/>
      <use xlink:href="#DejaVuSans-72" x="1105.416016"/>
      <use xlink:href="#DejaVuSans-62" x="1146.529297"/>
      <use xlink:href="#DejaVuSans-61" x="1210.005859"/>
      <use xlink:href="#DejaVuSans-74" x="1271.285156"/>
      <use xlink:href="#DejaVuSans-69" x="1310.494141"/>
      <use xlink:href="#DejaVuSans-6f" x="1338.277344"/>
      <use xlink:href="#DejaVuSans-6e" x="1399.458984"/>
     </g>
    </g>
    <g id="line2d_30">
     <path d="M 66.6 69.350125 
L 76.6 69.350125 
L 86.6 69.350125 
" style="fill: none; stroke: #ff7f0e; stroke-width: 1.5; stroke-linecap: square"/>
    </g>
    <g id="text_18">
     <!-- perturbation upper bound ($\kappa_A$*||$\delta$A||/||A||) -->
     <g transform="translate(94.6 72.850125) scale(0.1 -0.1)">
      <defs>
       <path id="DejaVuSans-Oblique-3ba" d="M 938 3500 
L 1531 3500 
L 1247 2047 
L 3041 3500 
L 3741 3500 
L 2106 2181 
L 3275 0 
L 2572 0 
L 1628 1806 
L 1122 1403 
L 850 0 
L 256 0 
L 938 3500 
z
" transform="scale(0.015625)"/>
       <path id="DejaVuSans-Oblique-41" d="M 2356 4666 
L 3072 4666 
L 3938 0 
L 3278 0 
L 3084 1197 
L 984 1197 
L 325 0 
L -341 0 
L 2356 4666 
z
M 2584 4044 
L 1275 1722 
L 2988 1722 
L 2584 4044 
z
" transform="scale(0.015625)"/>
       <path id="DejaVuSans-2a" d="M 3009 3897 
L 1888 3291 
L 3009 2681 
L 2828 2375 
L 1778 3009 
L 1778 1831 
L 1422 1831 
L 1422 3009 
L 372 2375 
L 191 2681 
L 1313 3291 
L 191 3897 
L 372 4206 
L 1422 3572 
L 1422 4750 
L 1778 4750 
L 1778 3572 
L 2828 4206 
L 3009 3897 
z
" transform="scale(0.015625)"/>
      </defs>
      <use xlink:href="#DejaVuSans-70" transform="translate(0 0.578125)"/>
      <use xlink:href="#DejaVuSans-65" transform="translate(63.476562 0.578125)"/>
      <use xlink:href="#DejaVuSans-72" transform="translate(125 0.578125)"/>
      <use xlink:href="#DejaVuSans-74" transform="translate(166.113281 0.578125)"/>
      <use xlink:href="#DejaVuSans-75" transform="translate(205.322266 0.578125)"/>
      <use xlink:href="#DejaVuSans-72" transform="translate(268.701172 0.578125)"/>
      <use xlink:href="#DejaVuSans-62" transform="translate(309.814453 0.578125)"/>
      <use xlink:href="#DejaVuSans-61" transform="translate(373.291016 0.578125)"/>
      <use xlink:href="#DejaVuSans-74" transform="translate(434.570312 0.578125)"/>
      <use xlink:href="#DejaVuSans-69" transform="translate(473.779297 0.578125)"/>
      <use xlink:href="#DejaVuSans-6f" transform="translate(501.5625 0.578125)"/>
      <use xlink:href="#DejaVuSans-6e" transform="translate(562.744141 0.578125)"/>
      <use xlink:href="#DejaVuSans-20" transform="translate(626.123047 0.578125)"/>
      <use xlink:href="#DejaVuSans-75" transform="translate(657.910156 0.578125)"/>
      <use xlink:href="#DejaVuSans-70" transform="translate(721.289062 0.578125)"/>
      <use xlink:href="#DejaVuSans-70" transform="translate(784.765625 0.578125)"/>
      <use xlink:href="#DejaVuSans-65" transform="translate(848.242188 0.578125)"/>
      <use xlink:href="#DejaVuSans-72" transform="translate(909.765625 0.578125)"/>
      <use xlink:href="#DejaVuSans-20" transform="translate(950.878906 0.578125)"/>
      <use xlink:href="#DejaVuSans-62" transform="translate(982.666016 0.578125)"/>
      <use xlink:href="#DejaVuSans-6f" transform="translate(1046.142578 0.578125)"/>
      <use xlink:href="#DejaVuSans-75" transform="translate(1107.324219 0.578125)"/>
      <use xlink:href="#DejaVuSans-6e" transform="translate(1170.703125 0.578125)"/>
      <use xlink:href="#DejaVuSans-64" transform="translate(1234.082031 0.578125)"/>
      <use xlink:href="#DejaVuSans-20" transform="translate(1297.558594 0.578125)"/>
      <use xlink:href="#DejaVuSans-28" transform="translate(1329.345703 0.578125)"/>
      <use xlink:href="#DejaVuSans-Oblique-3ba" transform="translate(1368.359375 0.578125)"/>
      <use xlink:href="#DejaVuSans-Oblique-41" transform="translate(1427.294922 -15.828125) scale(0.7)"/>
      <use xlink:href="#DejaVuSans-2a" transform="translate(1477.915039 0.578125)"/>
      <use xlink:href="#DejaVuSans-7c" transform="translate(1527.915039 0.578125)"/>
      <use xlink:href="#DejaVuSans-7c" transform="translate(1561.606445 0.578125)"/>
      <use xlink:href="#DejaVuSans-Oblique-3b4" transform="translate(1595.297852 0.578125)"/>
      <use xlink:href="#DejaVuSans-41" transform="translate(1656.479492 0.578125)"/>
      <use xlink:href="#DejaVuSans-7c" transform="translate(1724.887695 0.578125)"/>
      <use xlink:href="#DejaVuSans-7c" transform="translate(1758.579102 0.578125)"/>
      <use xlink:href="#DejaVuSans-2f" transform="translate(1792.270508 0.578125)"/>
      <use xlink:href="#DejaVuSans-7c" transform="translate(1825.961914 0.578125)"/>
      <use xlink:href="#DejaVuSans-7c" transform="translate(1859.65332 0.578125)"/>
      <use xlink:href="#DejaVuSans-41" transform="translate(1893.344727 0.578125)"/>
      <use xlink:href="#DejaVuSans-7c" transform="translate(1961.75293 0.578125)"/>
      <use xlink:href="#DejaVuSans-7c" transform="translate(1995.444336 0.578125)"/>
      <use xlink:href="#DejaVuSans-29" transform="translate(2029.135742 0.578125)"/>
     </g>
    </g>
   </g>
  </g>
 </g>
 <defs>
  <clipPath id="p806c4876a9">
   <rect x="57.6" y="41.472" width="357.12" height="266.112"/>
  </clipPath>
 </defs>
</svg>
