<?xml version="1.0" encoding="utf-8" standalone="no"?>
<!DOCTYPE svg PUBLIC "-//W3C//DTD SVG 1.1//EN"
  "http://www.w3.org/Graphics/SVG/1.1/DTD/svg11.dtd">
<svg xmlns:xlink="http://www.w3.org/1999/xlink" width="460.8pt" height="345.6pt" viewBox="0 0 460.8 345.6" xmlns="http://www.w3.org/2000/svg" version="1.1">
 <metadata>
  <rdf:RDF xmlns:dc="http://purl.org/dc/elements/1.1/" xmlns:cc="http://creativecommons.org/ns#" xmlns:rdf="http://www.w3.org/1999/02/22-rdf-syntax-ns#">
   <cc:Work>
    <dc:type rdf:resource="http://purl.org/dc/dcmitype/StillImage"/>
    <dc:date>2024-03-09T17:04:01.392462</dc:date>
    <dc:format>image/svg+xml</dc:format>
    <dc:creator>
     <cc:Agent>
      <dc:title>Matplotlib v3.8.0, https://matplotlib.org/</dc:title>
     </cc:Agent>
    </dc:creator>
   </cc:Work>
  </rdf:RDF>
 </metadata>
 <defs>
  <style type="text/css">*{stroke-linejoin: round; stroke-linecap: butt}</style>
 </defs>
 <g id="figure_1">
  <g id="patch_1">
   <path d="M 0 345.6 
L 460.8 345.6 
L 460.8 0 
L 0 0 
z
" style="fill: #ffffff"/>
  </g>
  <g id="axes_1">
   <g id="patch_2">
    <path d="M 57.6 307.584 
L 414.72 307.584 
L 414.72 41.472 
L 57.6 41.472 
z
" style="fill: #ffffff"/>
   </g>
   <g id="matplotlib.axis_1">
    <g id="xtick_1">
     <g id="line2d_1">
      <path d="M 101.323042 307.584 
L 101.323042 41.472 
" clip-path="url(#pc23c0ca74f)" style="fill: none; stroke: #b0b0b0; stroke-width: 0.8; stroke-linecap: square"/>
     </g>
     <g id="line2d_2">
      <defs>
       <path id="mc12d7b1a4f" d="M 0 0 
L 0 3.5 
" style="stroke: #000000; stroke-width: 0.8"/>
      </defs>
      <g>
       <use xlink:href="#mc12d7b1a4f" x="101.323042" y="307.584" style="stroke: #000000; stroke-width: 0.8"/>
      </g>
     </g>
     <g id="text_1">
      <!-- $\mathdefault{10^{-11}}$ -->
      <g transform="translate(87.373042 322.182437) scale(0.1 -0.1)">
       <defs>
        <path id="DejaVuSans-31" d="M 794 531 
L 1825 531 
L 1825 4091 
L 703 3866 
L 703 4441 
L 1819 4666 
L 2450 4666 
L 2450 531 
L 3481 531 
L 3481 0 
L 794 0 
L 794 531 
z
" transform="scale(0.015625)"/>
        <path id="DejaVuSans-30" d="M 2034 4250 
Q 1547 4250 1301 3770 
Q 1056 3291 1056 2328 
Q 1056 1369 1301 889 
Q 1547 409 2034 409 
Q 2525 409 2770 889 
Q 3016 1369 3016 2328 
Q 3016 3291 2770 3770 
Q 2525 4250 2034 4250 
z
M 2034 4750 
Q 2819 4750 3233 4129 
Q 3647 3509 3647 2328 
Q 3647 1150 3233 529 
Q 2819 -91 2034 -91 
Q 1250 -91 836 529 
Q 422 1150 422 2328 
Q 422 3509 836 4129 
Q 1250 4750 2034 4750 
z
" transform="scale(0.015625)"/>
        <path id="DejaVuSans-2212" d="M 678 2272 
L 4684 2272 
L 4684 1741 
L 678 1741 
L 678 2272 
z
" transform="scale(0.015625)"/>
       </defs>
       <use xlink:href="#DejaVuSans-31" transform="translate(0 0.684375)"/>
       <use xlink:href="#DejaVuSans-30" transform="translate(63.623047 0.684375)"/>
       <use xlink:href="#DejaVuSans-2212" transform="translate(128.203125 38.965625) scale(0.7)"/>
       <use xlink:href="#DejaVuSans-31" transform="translate(186.855469 38.965625) scale(0.7)"/>
       <use xlink:href="#DejaVuSans-31" transform="translate(231.391602 38.965625) scale(0.7)"/>
      </g>
     </g>
    </g>
    <g id="xtick_2">
     <g id="line2d_3">
      <path d="M 155.107167 307.584 
L 155.107167 41.472 
" clip-path="url(#pc23c0ca74f)" style="fill: none; stroke: #b0b0b0; stroke-width: 0.8; stroke-linecap: square"/>
     </g>
     <g id="line2d_4">
      <g>
       <use xlink:href="#mc12d7b1a4f" x="155.107167" y="307.584" style="stroke: #000000; stroke-width: 0.8"/>
      </g>
     </g>
     <g id="text_2">
      <!-- $\mathdefault{10^{-9}}$ -->
      <g transform="translate(143.357167 322.182437) scale(0.1 -0.1)">
       <defs>
        <path id="DejaVuSans-39" d="M 703 97 
L 703 672 
Q 941 559 1184 500 
Q 1428 441 1663 441 
Q 2288 441 2617 861 
Q 2947 1281 2994 2138 
Q 2813 1869 2534 1725 
Q 2256 1581 1919 1581 
Q 1219 1581 811 2004 
Q 403 2428 403 3163 
Q 403 3881 828 4315 
Q 1253 4750 1959 4750 
Q 2769 4750 3195 4129 
Q 3622 3509 3622 2328 
Q 3622 1225 3098 567 
Q 2575 -91 1691 -91 
Q 1453 -91 1209 -44 
Q 966 3 703 97 
z
M 1959 2075 
Q 2384 2075 2632 2365 
Q 2881 2656 2881 3163 
Q 2881 3666 2632 3958 
Q 2384 4250 1959 4250 
Q 1534 4250 1286 3958 
Q 1038 3666 1038 3163 
Q 1038 2656 1286 2365 
Q 1534 2075 1959 2075 
z
" transform="scale(0.015625)"/>
       </defs>
       <use xlink:href="#DejaVuSans-31" transform="translate(0 0.765625)"/>
       <use xlink:href="#DejaVuSans-30" transform="translate(63.623047 0.765625)"/>
       <use xlink:href="#DejaVuSans-2212" transform="translate(128.203125 39.046875) scale(0.7)"/>
       <use xlink:href="#DejaVuSans-39" transform="translate(186.855469 39.046875) scale(0.7)"/>
      </g>
     </g>
    </g>
    <g id="xtick_3">
     <g id="line2d_5">
      <path d="M 208.891292 307.584 
L 208.891292 41.472 
" clip-path="url(#pc23c0ca74f)" style="fill: none; stroke: #b0b0b0; stroke-width: 0.8; stroke-linecap: square"/>
     </g>
     <g id="line2d_6">
      <g>
       <use xlink:href="#mc12d7b1a4f" x="208.891292" y="307.584" style="stroke: #000000; stroke-width: 0.8"/>
      </g>
     </g>
     <g id="text_3">
      <!-- $\mathdefault{10^{-7}}$ -->
      <g transform="translate(197.141292 322.182437) scale(0.1 -0.1)">
       <defs>
        <path id="DejaVuSans-37" d="M 525 4666 
L 3525 4666 
L 3525 4397 
L 1831 0 
L 1172 0 
L 2766 4134 
L 525 4134 
L 525 4666 
z
" transform="scale(0.015625)"/>
       </defs>
       <use xlink:href="#DejaVuSans-31" transform="translate(0 0.684375)"/>
       <use xlink:href="#DejaVuSans-30" transform="translate(63.623047 0.684375)"/>
       <use xlink:href="#DejaVuSans-2212" transform="translate(128.203125 38.965625) scale(0.7)"/>
       <use xlink:href="#DejaVuSans-37" transform="translate(186.855469 38.965625) scale(0.7)"/>
      </g>
     </g>
    </g>
    <g id="xtick_4">
     <g id="line2d_7">
      <path d="M 262.675417 307.584 
L 262.675417 41.472 
" clip-path="url(#pc23c0ca74f)" style="fill: none; stroke: #b0b0b0; stroke-width: 0.8; stroke-linecap: square"/>
     </g>
     <g id="line2d_8">
      <g>
       <use xlink:href="#mc12d7b1a4f" x="262.675417" y="307.584" style="stroke: #000000; stroke-width: 0.8"/>
      </g>
     </g>
     <g id="text_4">
      <!-- $\mathdefault{10^{-5}}$ -->
      <g transform="translate(250.925417 322.182437) scale(0.1 -0.1)">
       <defs>
        <path id="DejaVuSans-35" d="M 691 4666 
L 3169 4666 
L 3169 4134 
L 1269 4134 
L 1269 2991 
Q 1406 3038 1543 3061 
Q 1681 3084 1819 3084 
Q 2600 3084 3056 2656 
Q 3513 2228 3513 1497 
Q 3513 744 3044 326 
Q 2575 -91 1722 -91 
Q 1428 -91 1123 -41 
Q 819 9 494 109 
L 494 744 
Q 775 591 1075 516 
Q 1375 441 1709 441 
Q 2250 441 2565 725 
Q 2881 1009 2881 1497 
Q 2881 1984 2565 2268 
Q 2250 2553 1709 2553 
Q 1456 2553 1204 2497 
Q 953 2441 691 2322 
L 691 4666 
z
" transform="scale(0.015625)"/>
       </defs>
       <use xlink:href="#DejaVuSans-31" transform="translate(0 0.684375)"/>
       <use xlink:href="#DejaVuSans-30" transform="translate(63.623047 0.684375)"/>
       <use xlink:href="#DejaVuSans-2212" transform="translate(128.203125 38.965625) scale(0.7)"/>
       <use xlink:href="#DejaVuSans-35" transform="translate(186.855469 38.965625) scale(0.7)"/>
      </g>
     </g>
    </g>
    <g id="xtick_5">
     <g id="line2d_9">
      <path d="M 316.459543 307.584 
L 316.459543 41.472 
" clip-path="url(#pc23c0ca74f)" style="fill: none; stroke: #b0b0b0; stroke-width: 0.8; stroke-linecap: square"/>
     </g>
     <g id="line2d_10">
      <g>
       <use xlink:href="#mc12d7b1a4f" x="316.459543" y="307.584" style="stroke: #000000; stroke-width: 0.8"/>
      </g>
     </g>
     <g id="text_5">
      <!-- $\mathdefault{10^{-3}}$ -->
      <g transform="translate(304.709543 322.182437) scale(0.1 -0.1)">
       <defs>
        <path id="DejaVuSans-33" d="M 2597 2516 
Q 3050 2419 3304 2112 
Q 3559 1806 3559 1356 
Q 3559 666 3084 287 
Q 2609 -91 1734 -91 
Q 1441 -91 1130 -33 
Q 819 25 488 141 
L 488 750 
Q 750 597 1062 519 
Q 1375 441 1716 441 
Q 2309 441 2620 675 
Q 2931 909 2931 1356 
Q 2931 1769 2642 2001 
Q 2353 2234 1838 2234 
L 1294 2234 
L 1294 2753 
L 1863 2753 
Q 2328 2753 2575 2939 
Q 2822 3125 2822 3475 
Q 2822 3834 2567 4026 
Q 2313 4219 1838 4219 
Q 1578 4219 1281 4162 
Q 984 4106 628 3988 
L 628 4550 
Q 988 4650 1302 4700 
Q 1616 4750 1894 4750 
Q 2613 4750 3031 4423 
Q 3450 4097 3450 3541 
Q 3450 3153 3228 2886 
Q 3006 2619 2597 2516 
z
" transform="scale(0.015625)"/>
       </defs>
       <use xlink:href="#DejaVuSans-31" transform="translate(0 0.765625)"/>
       <use xlink:href="#DejaVuSans-30" transform="translate(63.623047 0.765625)"/>
       <use xlink:href="#DejaVuSans-2212" transform="translate(128.203125 39.046875) scale(0.7)"/>
       <use xlink:href="#DejaVuSans-33" transform="translate(186.855469 39.046875) scale(0.7)"/>
      </g>
     </g>
    </g>
    <g id="xtick_6">
     <g id="line2d_11">
      <path d="M 370.243668 307.584 
L 370.243668 41.472 
" clip-path="url(#pc23c0ca74f)" style="fill: none; stroke: #b0b0b0; stroke-width: 0.8; stroke-linecap: square"/>
     </g>
     <g id="line2d_12">
      <g>
       <use xlink:href="#mc12d7b1a4f" x="370.243668" y="307.584" style="stroke: #000000; stroke-width: 0.8"/>
      </g>
     </g>
     <g id="text_6">
      <!-- $\mathdefault{10^{-1}}$ -->
      <g transform="translate(358.493668 322.182437) scale(0.1 -0.1)">
       <use xlink:href="#DejaVuSans-31" transform="translate(0 0.684375)"/>
       <use xlink:href="#DejaVuSans-30" transform="translate(63.623047 0.684375)"/>
       <use xlink:href="#DejaVuSans-2212" transform="translate(128.203125 38.965625) scale(0.7)"/>
       <use xlink:href="#DejaVuSans-31" transform="translate(186.855469 38.965625) scale(0.7)"/>
      </g>
     </g>
    </g>
    <g id="text_7">
     <!-- ||$\delta$b||/||b|| -->
     <g transform="translate(211.56 335.962125) scale(0.1 -0.1)">
      <defs>
       <path id="DejaVuSans-7c" d="M 1344 4891 
L 1344 -1509 
L 813 -1509 
L 813 4891 
L 1344 4891 
z
" transform="scale(0.015625)"/>
       <path id="DejaVuSans-Oblique-3b4" d="M 3472 4053 
Q 3197 4272 2450 4272 
Q 1659 4272 1588 3906 
Q 1531 3619 2328 3469 
Q 2953 3353 3253 3003 
Q 3616 2581 3447 1716 
Q 3284 888 2763 400 
Q 2238 -91 1488 -91 
Q 741 -91 406 400 
Q 72 888 241 1747 
Q 363 2384 891 2900 
Q 1097 3100 1353 3213 
Q 913 3459 1000 3900 
Q 1166 4750 2544 4750 
Q 3234 4750 3566 4531 
L 3472 4053 
z
M 1753 3056 
Q 1525 2966 1306 2738 
Q 969 2384 847 1747 
Q 722 1113 919 756 
Q 1119 397 1584 397 
Q 2044 397 2381 759 
Q 2722 1122 2838 1716 
Q 2956 2338 2731 2638 
Q 2491 2959 2103 2994 
Q 1906 3013 1753 3056 
z
" transform="scale(0.015625)"/>
       <path id="DejaVuSans-62" d="M 3116 1747 
Q 3116 2381 2855 2742 
Q 2594 3103 2138 3103 
Q 1681 3103 1420 2742 
Q 1159 2381 1159 1747 
Q 1159 1113 1420 752 
Q 1681 391 2138 391 
Q 2594 391 2855 752 
Q 3116 1113 3116 1747 
z
M 1159 2969 
Q 1341 3281 1617 3432 
Q 1894 3584 2278 3584 
Q 2916 3584 3314 3078 
Q 3713 2572 3713 1747 
Q 3713 922 3314 415 
Q 2916 -91 2278 -91 
Q 1894 -91 1617 61 
Q 1341 213 1159 525 
L 1159 0 
L 581 0 
L 581 4863 
L 1159 4863 
L 1159 2969 
z
" transform="scale(0.015625)"/>
       <path id="DejaVuSans-2f" d="M 1625 4666 
L 2156 4666 
L 531 -594 
L 0 -594 
L 1625 4666 
z
" transform="scale(0.015625)"/>
      </defs>
      <use xlink:href="#DejaVuSans-7c" transform="translate(0 0.578125)"/>
      <use xlink:href="#DejaVuSans-7c" transform="translate(33.691406 0.578125)"/>
      <use xlink:href="#DejaVuSans-Oblique-3b4" transform="translate(67.382812 0.578125)"/>
      <use xlink:href="#DejaVuSans-62" transform="translate(128.564453 0.578125)"/>
      <use xlink:href="#DejaVuSans-7c" transform="translate(192.041016 0.578125)"/>
      <use xlink:href="#DejaVuSans-7c" transform="translate(225.732422 0.578125)"/>
      <use xlink:href="#DejaVuSans-2f" transform="translate(259.423828 0.578125)"/>
      <use xlink:href="#DejaVuSans-7c" transform="translate(293.115234 0.578125)"/>
      <use xlink:href="#DejaVuSans-7c" transform="translate(326.806641 0.578125)"/>
      <use xlink:href="#DejaVuSans-62" transform="translate(360.498047 0.578125)"/>
      <use xlink:href="#DejaVuSans-7c" transform="translate(423.974609 0.578125)"/>
      <use xlink:href="#DejaVuSans-7c" transform="translate(457.666016 0.578125)"/>
     </g>
    </g>
   </g>
   <g id="matplotlib.axis_2">
    <g id="ytick_1">
     <g id="line2d_13">
      <path d="M 57.6 269.322859 
L 414.72 269.322859 
" clip-path="url(#pc23c0ca74f)" style="fill: none; stroke: #b0b0b0; stroke-width: 0.8; stroke-linecap: square"/>
     </g>
     <g id="line2d_14">
      <defs>
       <path id="m25965b6441" d="M 0 0 
L -3.5 0 
" style="stroke: #000000; stroke-width: 0.8"/>
      </defs>
      <g>
       <use xlink:href="#m25965b6441" x="57.6" y="269.322859" style="stroke: #000000; stroke-width: 0.8"/>
      </g>
     </g>
     <g id="text_8">
      <!-- $\mathdefault{10^{-10}}$ -->
      <g transform="translate(22.7 273.122078) scale(0.1 -0.1)">
       <use xlink:href="#DejaVuSans-31" transform="translate(0 0.765625)"/>
       <use xlink:href="#DejaVuSans-30" transform="translate(63.623047 0.765625)"/>
       <use xlink:href="#DejaVuSans-2212" transform="translate(128.203125 39.046875) scale(0.7)"/>
       <use xlink:href="#DejaVuSans-31" transform="translate(186.855469 39.046875) scale(0.7)"/>
       <use xlink:href="#DejaVuSans-30" transform="translate(231.391602 39.046875) scale(0.7)"/>
      </g>
     </g>
    </g>
    <g id="ytick_2">
     <g id="line2d_15">
      <path d="M 57.6 230.959832 
L 414.72 230.959832 
" clip-path="url(#pc23c0ca74f)" style="fill: none; stroke: #b0b0b0; stroke-width: 0.8; stroke-linecap: square"/>
     </g>
     <g id="line2d_16">
      <g>
       <use xlink:href="#m25965b6441" x="57.6" y="230.959832" style="stroke: #000000; stroke-width: 0.8"/>
      </g>
     </g>
     <g id="text_9">
      <!-- $\mathdefault{10^{-8}}$ -->
      <g transform="translate(27.1 234.759051) scale(0.1 -0.1)">
       <defs>
        <path id="DejaVuSans-38" d="M 2034 2216 
Q 1584 2216 1326 1975 
Q 1069 1734 1069 1313 
Q 1069 891 1326 650 
Q 1584 409 2034 409 
Q 2484 409 2743 651 
Q 3003 894 3003 1313 
Q 3003 1734 2745 1975 
Q 2488 2216 2034 2216 
z
M 1403 2484 
Q 997 2584 770 2862 
Q 544 3141 544 3541 
Q 544 4100 942 4425 
Q 1341 4750 2034 4750 
Q 2731 4750 3128 4425 
Q 3525 4100 3525 3541 
Q 3525 3141 3298 2862 
Q 3072 2584 2669 2484 
Q 3125 2378 3379 2068 
Q 3634 1759 3634 1313 
Q 3634 634 3220 271 
Q 2806 -91 2034 -91 
Q 1263 -91 848 271 
Q 434 634 434 1313 
Q 434 1759 690 2068 
Q 947 2378 1403 2484 
z
M 1172 3481 
Q 1172 3119 1398 2916 
Q 1625 2713 2034 2713 
Q 2441 2713 2670 2916 
Q 2900 3119 2900 3481 
Q 2900 3844 2670 4047 
Q 2441 4250 2034 4250 
Q 1625 4250 1398 4047 
Q 1172 3844 1172 3481 
z
" transform="scale(0.015625)"/>
       </defs>
       <use xlink:href="#DejaVuSans-31" transform="translate(0 0.765625)"/>
       <use xlink:href="#DejaVuSans-30" transform="translate(63.623047 0.765625)"/>
       <use xlink:href="#DejaVuSans-2212" transform="translate(128.203125 39.046875) scale(0.7)"/>
       <use xlink:href="#DejaVuSans-38" transform="translate(186.855469 39.046875) scale(0.7)"/>
      </g>
     </g>
    </g>
    <g id="ytick_3">
     <g id="line2d_17">
      <path d="M 57.6 192.596805 
L 414.72 192.596805 
" clip-path="url(#pc23c0ca74f)" style="fill: none; stroke: #b0b0b0; stroke-width: 0.8; stroke-linecap: square"/>
     </g>
     <g id="line2d_18">
      <g>
       <use xlink:href="#m25965b6441" x="57.6" y="192.596805" style="stroke: #000000; stroke-width: 0.8"/>
      </g>
     </g>
     <g id="text_10">
      <!-- $\mathdefault{10^{-6}}$ -->
      <g transform="translate(27.1 196.396024) scale(0.1 -0.1)">
       <defs>
        <path id="DejaVuSans-36" d="M 2113 2584 
Q 1688 2584 1439 2293 
Q 1191 2003 1191 1497 
Q 1191 994 1439 701 
Q 1688 409 2113 409 
Q 2538 409 2786 701 
Q 3034 994 3034 1497 
Q 3034 2003 2786 2293 
Q 2538 2584 2113 2584 
z
M 3366 4563 
L 3366 3988 
Q 3128 4100 2886 4159 
Q 2644 4219 2406 4219 
Q 1781 4219 1451 3797 
Q 1122 3375 1075 2522 
Q 1259 2794 1537 2939 
Q 1816 3084 2150 3084 
Q 2853 3084 3261 2657 
Q 3669 2231 3669 1497 
Q 3669 778 3244 343 
Q 2819 -91 2113 -91 
Q 1303 -91 875 529 
Q 447 1150 447 2328 
Q 447 3434 972 4092 
Q 1497 4750 2381 4750 
Q 2619 4750 2861 4703 
Q 3103 4656 3366 4563 
z
" transform="scale(0.015625)"/>
       </defs>
       <use xlink:href="#DejaVuSans-31" transform="translate(0 0.765625)"/>
       <use xlink:href="#DejaVuSans-30" transform="translate(63.623047 0.765625)"/>
       <use xlink:href="#DejaVuSans-2212" transform="translate(128.203125 39.046875) scale(0.7)"/>
       <use xlink:href="#DejaVuSans-36" transform="translate(186.855469 39.046875) scale(0.7)"/>
      </g>
     </g>
    </g>
    <g id="ytick_4">
     <g id="line2d_19">
      <path d="M 57.6 154.233778 
L 414.72 154.233778 
" clip-path="url(#pc23c0ca74f)" style="fill: none; stroke: #b0b0b0; stroke-width: 0.8; stroke-linecap: square"/>
     </g>
     <g id="line2d_20">
      <g>
       <use xlink:href="#m25965b6441" x="57.6" y="154.233778" style="stroke: #000000; stroke-width: 0.8"/>
      </g>
     </g>
     <g id="text_11">
      <!-- $\mathdefault{10^{-4}}$ -->
      <g transform="translate(27.1 158.032996) scale(0.1 -0.1)">
       <defs>
        <path id="DejaVuSans-34" d="M 2419 4116 
L 825 1625 
L 2419 1625 
L 2419 4116 
z
M 2253 4666 
L 3047 4666 
L 3047 1625 
L 3713 1625 
L 3713 1100 
L 3047 1100 
L 3047 0 
L 2419 0 
L 2419 1100 
L 313 1100 
L 313 1709 
L 2253 4666 
z
" transform="scale(0.015625)"/>
       </defs>
       <use xlink:href="#DejaVuSans-31" transform="translate(0 0.684375)"/>
       <use xlink:href="#DejaVuSans-30" transform="translate(63.623047 0.684375)"/>
       <use xlink:href="#DejaVuSans-2212" transform="translate(128.203125 38.965625) scale(0.7)"/>
       <use xlink:href="#DejaVuSans-34" transform="translate(186.855469 38.965625) scale(0.7)"/>
      </g>
     </g>
    </g>
    <g id="ytick_5">
     <g id="line2d_21">
      <path d="M 57.6 115.870751 
L 414.72 115.870751 
" clip-path="url(#pc23c0ca74f)" style="fill: none; stroke: #b0b0b0; stroke-width: 0.8; stroke-linecap: square"/>
     </g>
     <g id="line2d_22">
      <g>
       <use xlink:href="#m25965b6441" x="57.6" y="115.870751" style="stroke: #000000; stroke-width: 0.8"/>
      </g>
     </g>
     <g id="text_12">
      <!-- $\mathdefault{10^{-2}}$ -->
      <g transform="translate(27.1 119.669969) scale(0.1 -0.1)">
       <defs>
        <path id="DejaVuSans-32" d="M 1228 531 
L 3431 531 
L 3431 0 
L 469 0 
L 469 531 
Q 828 903 1448 1529 
Q 2069 2156 2228 2338 
Q 2531 2678 2651 2914 
Q 2772 3150 2772 3378 
Q 2772 3750 2511 3984 
Q 2250 4219 1831 4219 
Q 1534 4219 1204 4116 
Q 875 4013 500 3803 
L 500 4441 
Q 881 4594 1212 4672 
Q 1544 4750 1819 4750 
Q 2544 4750 2975 4387 
Q 3406 4025 3406 3419 
Q 3406 3131 3298 2873 
Q 3191 2616 2906 2266 
Q 2828 2175 2409 1742 
Q 1991 1309 1228 531 
z
" transform="scale(0.015625)"/>
       </defs>
       <use xlink:href="#DejaVuSans-31" transform="translate(0 0.765625)"/>
       <use xlink:href="#DejaVuSans-30" transform="translate(63.623047 0.765625)"/>
       <use xlink:href="#DejaVuSans-2212" transform="translate(128.203125 39.046875) scale(0.7)"/>
       <use xlink:href="#DejaVuSans-32" transform="translate(186.855469 39.046875) scale(0.7)"/>
      </g>
     </g>
    </g>
    <g id="ytick_6">
     <g id="line2d_23">
      <path d="M 57.6 77.507724 
L 414.72 77.507724 
" clip-path="url(#pc23c0ca74f)" style="fill: none; stroke: #b0b0b0; stroke-width: 0.8; stroke-linecap: square"/>
     </g>
     <g id="line2d_24">
      <g>
       <use xlink:href="#m25965b6441" x="57.6" y="77.507724" style="stroke: #000000; stroke-width: 0.8"/>
      </g>
     </g>
     <g id="text_13">
      <!-- $\mathdefault{10^{0}}$ -->
      <g transform="translate(33 81.306942) scale(0.1 -0.1)">
       <use xlink:href="#DejaVuSans-31" transform="translate(0 0.765625)"/>
       <use xlink:href="#DejaVuSans-30" transform="translate(63.623047 0.765625)"/>
       <use xlink:href="#DejaVuSans-30" transform="translate(128.203125 39.046875) scale(0.7)"/>
      </g>
     </g>
    </g>
    <g id="text_14">
     <!-- ||$\delta$x||/||x|| -->
     <g transform="translate(16.3 198.678) rotate(-90) scale(0.1 -0.1)">
      <defs>
       <path id="DejaVuSans-78" d="M 3513 3500 
L 2247 1797 
L 3578 0 
L 2900 0 
L 1881 1375 
L 863 0 
L 184 0 
L 1544 1831 
L 300 3500 
L 978 3500 
L 1906 2253 
L 2834 3500 
L 3513 3500 
z
" transform="scale(0.015625)"/>
      </defs>
      <use xlink:href="#DejaVuSans-7c" transform="translate(0 0.578125)"/>
      <use xlink:href="#DejaVuSans-7c" transform="translate(33.691406 0.578125)"/>
      <use xlink:href="#DejaVuSans-Oblique-3b4" transform="translate(67.382812 0.578125)"/>
      <use xlink:href="#DejaVuSans-78" transform="translate(128.564453 0.578125)"/>
      <use xlink:href="#DejaVuSans-7c" transform="translate(187.744141 0.578125)"/>
      <use xlink:href="#DejaVuSans-7c" transform="translate(221.435547 0.578125)"/>
      <use xlink:href="#DejaVuSans-2f" transform="translate(255.126953 0.578125)"/>
      <use xlink:href="#DejaVuSans-7c" transform="translate(288.818359 0.578125)"/>
      <use xlink:href="#DejaVuSans-7c" transform="translate(322.509766 0.578125)"/>
      <use xlink:href="#DejaVuSans-78" transform="translate(356.201172 0.578125)"/>
      <use xlink:href="#DejaVuSans-7c" transform="translate(415.380859 0.578125)"/>
      <use xlink:href="#DejaVuSans-7c" transform="translate(449.072266 0.578125)"/>
     </g>
    </g>
   </g>
   <g id="line2d_25">
    <path d="M 73.832727 278.281594 
L 75.309031 277.734802 
L 75.394413 278.034315 
L 75.859726 278.365546 
L 76.346184 278.310826 
L 76.568691 277.944959 
L 76.637129 277.990892 
L 76.73976 278.551275 
L 77.055925 278.105472 
L 77.339646 278.488868 
L 78.43313 278.553532 
L 78.816708 277.950933 
L 79.055602 278.455814 
L 79.175024 278.164273 
L 79.497422 278.048647 
L 79.517671 278.328925 
L 80.981414 278.379548 
L 81.199916 278.101178 
L 81.201917 278.627786 
L 81.288043 277.992491 
L 81.70873 277.89764 
L 82.091619 278.403905 
L 82.171165 278.10774 
L 82.580483 278.414049 
L 83.001976 278.403397 
L 83.210614 277.581579 
L 83.653657 279.083369 
L 83.875969 277.541036 
L 84.164581 279.263674 
L 85.097245 277.536875 
L 85.611857 277.889273 
L 85.934618 279.326929 
L 86.195662 277.481709 
L 86.378276 278.865944 
L 86.551836 278.728188 
L 86.665183 279.032963 
L 86.671721 278.774814 
L 87.344418 278.552511 
L 87.461142 278.715187 
L 88.037748 278.133174 
L 88.596954 278.165088 
L 88.834273 277.986228 
L 89.266337 278.255839 
L 89.281961 277.97554 
L 89.427398 278.974257 
L 89.679779 277.696031 
L 90.317187 279.879953 
L 90.879948 279.067936 
L 91.032951 279.115161 
L 91.238846 279.708722 
L 91.344346 277.857059 
L 91.392552 279.839763 
L 92.036355 278.953364 
L 92.257711 277.820938 
L 93.290217 276.853806 
L 93.474682 279.114172 
L 94.174133 278.562772 
L 94.291204 278.113371 
L 94.644925 277.447196 
L 94.74416 276.623753 
L 95.427925 277.537818 
L 95.516245 279.290318 
L 95.573865 278.433147 
L 95.691752 277.446845 
L 96.253193 278.748269 
L 96.623845 277.678499 
L 97.699071 278.681031 
L 97.940658 280.148612 
L 97.974972 282.374943 
L 97.977345 277.833854 
L 98.695002 276.290012 
L 99.252351 279.873129 
L 99.442612 277.472306 
L 99.970747 277.884492 
L 100.215283 277.32544 
L 100.248757 276.599917 
L 100.678747 278.784602 
L 101.886546 278.06525 
L 102.045129 275.651312 
L 102.068304 278.543276 
L 102.698565 283.384165 
L 103.055808 275.148895 
L 103.292456 282.829009 
L 103.921316 275.394925 
L 104.304302 290.89016 
L 104.600599 278.220813 
L 105.522968 275.900842 
L 105.551404 275.95604 
L 106.016837 286.437321 
L 106.024391 295.488 
L 106.241887 279.520215 
L 106.614168 277.298246 
L 106.679338 278.979889 
L 106.974972 275.124513 
L 107.94437 277.602854 
L 108.241727 285.334193 
L 108.27308 272.935373 
L 108.365341 279.531649 
L 108.466328 278.943882 
L 109.651606 278.817486 
L 109.811347 277.558729 
L 110.412741 279.158937 
L 110.491052 282.424041 
L 111.01525 276.040455 
L 111.401669 277.920527 
L 111.636219 274.847384 
L 111.682997 279.670985 
L 112.26484 293.399901 
L 112.674609 279.522798 
L 113.59916 282.275462 
L 113.68111 272.938976 
L 113.867347 274.06774 
L 113.983292 282.838034 
L 114.014686 277.688603 
L 114.151355 273.618548 
L 114.52091 288.148829 
L 114.678072 285.455672 
L 114.782019 274.072459 
L 115.554871 286.678557 
L 115.717802 281.834013 
L 116.50254 278.392672 
L 116.812711 275.615405 
L 116.996691 270.351342 
L 117.211064 285.10083 
L 117.753648 287.286105 
L 118.265366 269.579495 
L 118.70101 272.601458 
L 118.847378 272.238067 
L 119.057757 275.191655 
L 119.103021 282.564551 
L 120.209672 285.596415 
L 120.518098 276.373426 
L 120.593838 276.974782 
L 121.122594 271.445498 
L 121.231384 278.080171 
L 122.116327 278.517161 
L 122.14773 267.499468 
L 122.539541 270.235129 
L 122.96679 276.486739 
L 123.112339 272.822522 
L 123.653227 271.370264 
L 123.756257 271.626736 
L 124.303144 277.989318 
L 124.936961 264.378143 
L 124.957974 278.239712 
L 124.997938 273.957541 
L 125.468233 274.575906 
L 125.510706 269.228777 
L 125.692125 273.757761 
L 126.730133 280.80586 
L 126.877055 278.120696 
L 127.061106 278.235014 
L 127.415971 273.252736 
L 128.491654 276.695714 
L 128.877943 275.309166 
L 128.934598 273.173224 
L 129.201713 269.96038 
L 129.696323 266.643388 
L 129.863305 268.281936 
L 130.073517 264.062063 
L 130.869519 267.828881 
L 130.923924 266.881095 
L 131.463632 270.275997 
L 131.535693 259.076057 
L 132.591978 271.808471 
L 132.718541 277.367142 
L 132.729326 264.938733 
L 132.870626 272.239901 
L 133.032188 271.672588 
L 133.097588 263.659967 
L 133.431098 271.931383 
L 133.524554 271.839307 
L 134.031248 276.265548 
L 134.488071 275.984265 
L 134.858949 273.314075 
L 135.389371 261.972931 
L 135.629043 272.127138 
L 135.934895 275.229163 
L 136.074964 271.062755 
L 136.76237 270.017306 
L 137.080722 258.814336 
L 137.352595 270.263562 
L 137.519095 269.550137 
L 137.749323 259.820643 
L 138.392268 260.651669 
L 138.522531 274.580452 
L 138.901688 263.580893 
L 139.387335 270.94889 
L 139.845881 266.996288 
L 140.057393 258.320005 
L 140.117312 267.812615 
L 140.71405 258.792244 
L 140.803191 271.066784 
L 141.007446 260.537211 
L 142.135007 272.045983 
L 142.291197 268.23471 
L 142.533268 270.773323 
L 142.554753 264.32985 
L 142.570909 268.254644 
L 142.718395 263.605305 
L 143.494019 260.94012 
L 143.740525 268.451832 
L 144.098027 265.77682 
L 144.655118 253.271962 
L 144.656641 261.720343 
L 144.812715 255.135409 
L 144.991346 264.203583 
L 145.497809 261.933384 
L 145.70436 266.893243 
L 146.204483 269.15771 
L 146.461279 261.179028 
L 146.823335 263.343244 
L 147.513444 262.574684 
L 147.854967 253.007833 
L 148.028919 270.192485 
L 148.161405 264.419905 
L 148.864822 268.424374 
L 149.129403 266.203214 
L 149.511778 250.308775 
L 149.829917 253.817709 
L 149.873819 249.194684 
L 151.035281 263.808142 
L 151.219943 262.089396 
L 151.24357 264.364007 
L 151.257953 253.596565 
L 151.685739 261.258017 
L 152.008636 248.815677 
L 152.264543 256.724139 
L 152.819173 259.000404 
L 152.874614 252.928253 
L 153.395129 254.756803 
L 153.595436 258.121804 
L 154.071346 254.757476 
L 154.202633 258.112727 
L 154.971718 245.950927 
L 155.047465 257.931542 
L 155.211501 256.636368 
L 155.647544 256.791704 
L 155.755212 252.949082 
L 156.652443 254.943059 
L 156.866075 262.926878 
L 157.164802 244.760895 
L 157.318774 254.821003 
L 157.326179 252.320193 
L 158.614479 251.264826 
L 158.729718 251.748141 
L 159.226761 250.950297 
L 159.365014 244.505218 
L 159.923684 258.007036 
L 160.055438 250.976041 
L 160.571914 248.590292 
L 160.777918 252.347906 
L 160.853595 255.772809 
L 161.12929 252.805651 
L 161.753431 248.478091 
L 161.94153 255.56078 
L 162.412049 254.981369 
L 162.623124 245.517796 
L 162.789707 258.350152 
L 164.02075 241.195117 
L 164.499387 251.709015 
L 164.681633 240.415832 
L 165.452898 245.679438 
L 165.851345 247.233955 
L 165.933898 254.470074 
L 166.983144 250.140077 
L 167.063508 247.150406 
L 167.467983 249.181498 
L 167.663392 254.246896 
L 167.780049 239.347487 
L 168.113502 246.952501 
L 168.174934 241.092779 
L 168.932088 243.339664 
L 169.202132 244.489519 
L 169.300594 239.602575 
L 169.705863 235.932145 
L 169.823526 239.091701 
L 170.065918 240.836232 
L 170.492808 246.967645 
L 170.774428 248.701647 
L 171.890069 242.123348 
L 172.180519 235.527439 
L 172.22327 230.260336 
L 172.542542 234.922306 
L 172.576534 241.722786 
L 172.785399 239.327365 
L 172.788572 251.279404 
L 173.921241 249.552735 
L 174.643758 249.617968 
L 174.728694 235.320952 
L 174.81293 243.594588 
L 175.063503 237.885525 
L 175.253052 246.183056 
L 175.567789 235.591395 
L 176.068663 243.664828 
L 176.304093 234.565625 
L 176.767642 232.16067 
L 177.640982 244.066581 
L 177.926489 235.787157 
L 177.959187 240.820011 
L 178.17668 233.713891 
L 178.68774 242.706608 
L 178.715702 238.350028 
L 179.079588 244.473126 
L 179.942853 229.305067 
L 180.081796 235.61913 
L 180.287595 234.732469 
L 180.597719 226.791465 
L 180.766491 237.164321 
L 181.403449 240.558291 
L 181.509128 233.972296 
L 182.249979 235.809912 
L 182.258637 228.356479 
L 182.281497 239.883666 
L 183.072965 235.515117 
L 183.142486 227.230839 
L 183.319065 236.527982 
L 183.460634 236.978211 
L 183.988473 240.42429 
L 184.414923 229.994524 
L 185.038662 228.806602 
L 185.241516 223.699557 
L 185.822429 229.593142 
L 186.01034 234.665359 
L 186.053095 223.298757 
L 186.670072 239.677153 
L 186.699336 227.121191 
L 186.999738 232.308807 
L 187.516474 236.628115 
L 187.70552 225.969959 
L 187.902682 229.79835 
L 188.330218 230.429141 
L 189.38929 224.076437 
L 189.52164 230.541879 
L 190.069484 233.20197 
L 190.284129 234.80575 
L 190.680944 231.457158 
L 190.712294 225.536156 
L 190.924769 233.003412 
L 191.185776 225.987939 
L 192.088277 230.412836 
L 192.323056 233.978937 
L 192.335583 224.160279 
L 192.921454 230.832076 
L 193.039667 224.614743 
L 193.351673 228.227447 
L 193.382452 222.369513 
L 194.801089 231.564614 
L 195.072649 224.435568 
L 195.149657 231.095573 
L 195.228313 217.032275 
L 195.65483 226.016508 
L 195.92891 220.956857 
L 196.848002 228.486799 
L 197.296619 219.414275 
L 197.418351 227.799994 
L 197.724095 224.011503 
L 197.979999 218.112222 
L 198.122877 231.082614 
L 199.123648 216.351373 
L 199.313219 222.952934 
L 199.553117 218.44553 
L 200.030599 228.482932 
L 200.770741 217.388778 
L 200.888563 227.796682 
L 201.259889 225.946011 
L 201.377614 223.198725 
L 201.625058 223.828042 
L 202.095693 222.085241 
L 202.551827 223.94932 
L 203.546027 217.799305 
L 204.142955 215.634967 
L 204.476559 218.879369 
L 204.520454 225.407351 
L 205.37542 214.565631 
L 205.376382 220.046816 
L 205.776501 215.244473 
L 205.795876 222.898612 
L 206.066851 215.203042 
L 206.461195 220.383686 
L 207.485181 224.935801 
L 208.08791 215.784256 
L 208.259992 218.344949 
L 208.449379 210.21171 
L 208.468661 221.544325 
L 208.611609 215.369292 
L 209.027418 222.72349 
L 209.420419 207.204879 
L 209.888593 212.050568 
L 210.048081 208.997571 
L 211.003375 222.881905 
L 211.590594 220.101004 
L 212.091179 210.595166 
L 212.202637 211.28308 
L 212.724929 207.713412 
L 212.969266 213.445744 
L 212.976698 209.59771 
L 213.339367 207.110266 
L 213.802288 219.717919 
L 214.499676 215.786791 
L 214.704443 208.949692 
L 214.707911 212.321817 
L 214.852634 209.375941 
L 215.522458 206.834605 
L 215.78728 214.832838 
L 216.498871 217.625286 
L 216.808332 201.984872 
L 216.857387 214.540967 
L 216.952666 213.401461 
L 217.229583 207.395824 
L 217.843541 216.42705 
L 218.683073 200.441676 
L 218.834695 211.081335 
L 219.115459 213.840862 
L 219.141522 204.912757 
L 219.394248 211.524371 
L 219.481296 204.307709 
L 220.419693 199.426601 
L 220.895464 213.905916 
L 221.047955 200.329596 
L 221.605764 203.086784 
L 221.774082 208.929999 
L 222.474273 206.388429 
L 222.745223 209.942792 
L 223.034168 201.810743 
L 223.034431 208.18191 
L 223.468912 205.464763 
L 223.735835 208.144944 
L 223.87165 206.753388 
L 224.641474 202.485323 
L 225.011631 199.443515 
L 225.017042 217.121466 
L 225.190904 197.683362 
L 225.763165 209.129544 
L 226.004507 198.812756 
L 226.77116 201.910616 
L 226.946188 210.085149 
L 227.090394 196.036187 
L 227.532397 202.828581 
L 228.348593 198.91426 
L 228.804682 205.600479 
L 228.933826 202.187847 
L 229.091855 206.714778 
L 229.131707 199.198571 
L 229.585236 207.625865 
L 229.652509 199.146146 
L 229.925558 195.270492 
L 230.93265 203.653424 
L 231.012521 199.484168 
L 231.029769 204.655576 
L 231.199774 196.606513 
L 231.826743 203.969711 
L 231.952777 203.640077 
L 231.961052 200.789523 
L 232.766427 200.688795 
L 232.985702 193.307183 
L 233.244028 208.18766 
L 233.389659 193.572577 
L 233.71371 195.347232 
L 234.866367 207.295376 
L 234.929285 187.915676 
L 234.962178 191.407307 
L 235.175877 192.720991 
L 235.568402 199.045676 
L 236.102498 193.998858 
L 236.354726 194.077775 
L 236.703012 199.474818 
L 237.43808 200.566285 
L 237.508032 189.375419 
L 237.615125 196.748607 
L 237.971722 194.37239 
L 238.030097 193.157541 
L 238.771463 191.942248 
L 238.826141 193.497803 
L 239.23228 199.970812 
L 239.524395 187.460257 
L 239.875406 189.94161 
L 240.704792 189.888118 
L 240.986097 184.885839 
L 241.0216 193.929507 
L 241.402366 185.562386 
L 241.42058 197.796028 
L 241.803837 199.249033 
L 242.299177 184.100987 
L 242.382286 192.989363 
L 243.424026 186.250745 
L 243.451892 186.684977 
L 243.474613 192.632611 
L 244.323869 181.98294 
L 245.297977 188.843281 
L 245.450572 198.098091 
L 245.466492 193.342847 
L 245.680627 194.842033 
L 245.913044 190.8412 
L 246.252542 195.587315 
L 246.58473 185.235249 
L 246.595193 192.368904 
L 247.46283 190.75831 
L 247.749739 195.057768 
L 247.867901 185.236854 
L 248.139938 190.880036 
L 249.251355 192.398509 
L 249.347239 185.505571 
L 249.533231 182.57132 
L 249.749652 189.159799 
L 249.787337 187.891169 
L 250.26596 187.05421 
L 250.271051 185.185982 
L 250.680674 180.194342 
L 250.956137 185.703731 
L 251.29629 183.384228 
L 251.421721 190.881768 
L 252.351389 189.5762 
L 252.782757 178.4293 
L 253.575876 189.524358 
L 253.621838 179.788341 
L 253.721157 188.458034 
L 253.919569 178.562986 
L 254.283691 186.704396 
L 254.603399 185.900953 
L 255.095024 185.630541 
L 255.235277 180.492205 
L 256.10289 183.040421 
L 256.544406 183.054018 
L 256.963352 188.911071 
L 257.151065 181.692026 
L 257.536334 175.725953 
L 257.936107 175.709151 
L 257.961418 178.363123 
L 258.150891 177.28357 
L 258.583374 180.841429 
L 259.227343 188.464997 
L 259.378267 178.669339 
L 259.566691 180.869903 
L 260.141236 178.196105 
L 261.399214 170.42032 
L 261.405902 186.236078 
L 262.097194 183.18409 
L 262.557622 182.991923 
L 262.590621 176.169917 
L 262.623675 178.817807 
L 262.767029 174.087508 
L 262.785415 179.455392 
L 263.849336 175.154199 
L 264.026336 174.944748 
L 264.081137 169.379587 
L 264.424814 177.295039 
L 264.817067 178.230217 
L 264.821875 170.625094 
L 265.685621 182.722749 
L 266.091065 172.85105 
L 266.539802 176.174051 
L 266.5797 167.319281 
L 267.009105 176.987517 
L 267.389134 172.497908 
L 267.649684 177.566546 
L 267.776778 170.711335 
L 267.798536 166.699335 
L 268.385535 174.16235 
L 269.654382 170.71265 
L 269.896552 176.62292 
L 270.048649 173.89044 
L 270.801824 173.62149 
L 271.278695 173.299075 
L 271.500929 170.759771 
L 271.691205 167.14256 
L 271.801388 174.727032 
L 272.506538 179.063109 
L 272.860756 168.135275 
L 272.908777 175.216021 
L 273.368431 164.511218 
L 273.531083 175.483197 
L 273.566829 174.422803 
L 274.482227 163.871529 
L 274.788229 169.276924 
L 275.186161 167.056249 
L 275.43676 170.100692 
L 275.437739 166.779198 
L 275.830766 166.652169 
L 275.900272 170.081348 
L 276.287046 164.80612 
L 276.63159 162.878462 
L 277.17937 162.164332 
L 278.037204 172.696534 
L 278.138531 171.483897 
L 278.28365 167.919333 
L 278.411179 170.774113 
L 278.455209 167.290219 
L 278.587052 174.025686 
L 279.165852 169.123461 
L 279.634862 157.234882 
L 279.659273 169.291268 
L 279.70915 161.702975 
L 280.296662 161.422119 
L 280.656871 165.543425 
L 281.524053 167.871369 
L 281.850228 173.311819 
L 282.232808 164.825891 
L 282.318822 157.630364 
L 282.793434 160.904816 
L 282.888312 168.96835 
L 283.585935 171.244987 
L 284.228674 170.165187 
L 284.28986 157.918076 
L 284.848178 161.212184 
L 284.850086 154.261446 
L 285.246573 156.186887 
L 285.298947 167.881279 
L 285.499759 158.934002 
L 286.204086 159.113714 
L 286.361133 161.790586 
L 287.070835 156.491379 
L 287.130051 164.424698 
L 287.839088 154.584585 
L 288.083901 166.489007 
L 288.465109 147.717937 
L 288.55358 155.304282 
L 289.298201 154.971642 
L 289.304533 157.773815 
L 289.58718 148.6055 
L 289.810616 158.610102 
L 290.561459 161.493443 
L 290.722726 152.091162 
L 290.825235 157.749101 
L 291.061298 148.266929 
L 291.844804 159.688093 
L 291.892411 155.768327 
L 292.207769 162.684931 
L 293.005502 152.318751 
L 293.130757 153.395027 
L 293.311251 164.39806 
L 293.457501 157.703153 
L 294.172549 150.907677 
L 294.684353 144.385578 
L 294.876989 161.751262 
L 295.251046 153.529376 
L 295.649938 149.60498 
L 295.811536 149.751268 
L 296.483127 152.396968 
L 296.585251 155.471754 
L 296.834862 154.652932 
L 296.893968 150.214852 
L 297.235063 156.365756 
L 297.508862 144.751818 
L 297.581697 150.294588 
L 298.831739 151.294723 
L 298.859492 146.749495 
L 299.009519 155.809531 
L 299.323594 152.461727 
L 299.363789 158.840497 
L 299.998168 152.958964 
L 300.584428 151.481151 
L 301.058663 155.682371 
L 301.110505 144.576077 
L 301.270793 144.539873 
L 301.993796 150.08951 
L 302.559357 155.788803 
L 302.631894 149.857099 
L 303.126186 147.605909 
L 303.514415 146.375631 
L 303.666709 150.666116 
L 303.842404 138.850189 
L 304.696338 153.578141 
L 304.737181 141.998129 
L 305.255107 143.437172 
L 305.450519 140.688401 
L 305.511008 142.771026 
L 305.657251 140.450553 
L 306.165411 154.811536 
L 306.249716 140.623988 
L 306.364063 142.914479 
L 306.744085 143.417748 
L 307.016246 139.617081 
L 307.613162 140.446581 
L 308.140187 136.51403 
L 308.673046 140.257575 
L 308.71671 153.348674 
L 308.995169 141.095449 
L 309.528911 149.944882 
L 309.579879 144.310532 
L 309.616033 144.872095 
L 310.354314 144.038348 
L 310.478881 139.39791 
L 310.792566 145.452775 
L 311.327049 148.379955 
L 311.569218 138.818352 
L 312.012577 146.725469 
L 312.602811 142.047849 
L 312.677258 142.641366 
L 312.825961 135.051678 
L 312.960149 147.425221 
L 313.734602 133.759386 
L 314.036592 144.361067 
L 314.520886 132.636346 
L 314.761272 137.370792 
L 315.726576 138.482077 
L 316.248355 137.845101 
L 316.710392 143.940368 
L 316.813469 129.609624 
L 317.493264 136.359479 
L 317.840972 133.7317 
L 318.150794 130.194964 
L 318.482667 141.860718 
L 318.577168 130.851287 
L 318.651548 141.7067 
L 318.975927 132.750625 
L 319.491743 130.349089 
L 319.595283 145.289766 
L 319.776071 138.031956 
L 320.236633 141.941083 
L 320.824571 136.09846 
L 320.989925 130.49626 
L 321.53697 129.635242 
L 322.052696 130.04868 
L 322.231804 142.720867 
L 322.594201 129.629209 
L 322.791068 142.271568 
L 323.759347 128.194035 
L 324.058837 133.528069 
L 324.212505 139.62062 
L 324.323684 126.928664 
L 325.069702 139.437115 
L 325.708512 129.408766 
L 325.82533 132.661373 
L 326.087073 130.299305 
L 326.281091 140.866563 
L 327.199776 129.361792 
L 327.200657 137.543698 
L 327.323189 129.38903 
L 327.782851 136.870013 
L 327.81292 124.451381 
L 327.947754 127.837077 
L 328.081733 139.302338 
L 328.950491 140.342648 
L 328.992362 127.093668 
L 329.845573 120.130998 
L 330.096893 136.999139 
L 330.60127 131.64075 
L 330.826673 119.942371 
L 330.982798 129.80782 
L 331.151852 128.535357 
L 331.377537 128.453483 
L 331.64049 124.685799 
L 331.721067 126.866635 
L 332.640867 125.858449 
L 333.34544 118.080517 
L 333.354849 128.404443 
L 333.477202 126.655491 
L 333.750391 125.035828 
L 333.95613 128.804407 
L 334.021267 134.284925 
L 334.566942 117.050204 
L 334.724129 116.759652 
L 335.038424 126.7288 
L 335.281227 113.059604 
L 335.768271 119.419338 
L 336.304001 119.516311 
L 336.755112 124.625816 
L 337.236496 131.655064 
L 337.610794 119.63486 
L 337.93085 123.013802 
L 338.062084 133.995142 
L 338.113529 132.581865 
L 338.920421 117.250375 
L 339.042488 121.259322 
L 339.107958 131.694548 
L 339.875993 118.916248 
L 340.081666 120.19921 
L 340.260325 123.579634 
L 341.023426 119.985138 
L 341.666007 122.951128 
L 341.727355 122.92111 
L 341.75884 127.865162 
L 342.172403 115.795957 
L 342.302049 126.894076 
L 343.697567 123.910705 
L 343.953649 122.457409 
L 344.089663 127.263517 
L 344.83962 124.374074 
L 344.888563 126.242914 
L 345.085355 123.632377 
L 345.243418 111.393721 
L 346.106875 116.972961 
L 346.201218 125.832903 
L 346.62668 124.212489 
L 346.89347 122.125368 
L 346.98602 123.850263 
L 347.346414 126.503106 
L 347.56223 118.050621 
L 347.765689 115.507186 
L 348.01857 107.050543 
L 348.499351 117.050936 
L 349.398324 111.204408 
L 349.727551 121.916141 
L 349.869318 114.429398 
L 350.269023 118.438294 
L 350.454224 118.038653 
L 350.892482 113.797474 
L 350.90492 114.88517 
L 351.148743 107.017869 
L 351.153834 109.454254 
L 351.862015 103.94168 
L 352.060909 116.324787 
L 352.229768 109.543127 
L 353.174893 111.413504 
L 353.181848 105.746194 
L 353.215612 107.58945 
L 353.324579 117.989522 
L 353.652357 105.316646 
L 354.099792 107.336489 
L 355.673565 110.904994 
L 355.744498 112.07446 
L 355.879319 108.999098 
L 355.88869 116.701004 
L 356.798319 101.958401 
L 357.114737 115.115209 
L 357.243588 104.555203 
L 357.645762 114.14274 
L 357.81233 104.014815 
L 358.118944 119.239275 
L 358.586757 114.570103 
L 358.662241 101.060955 
L 359.107398 102.701943 
L 359.624022 114.971304 
L 359.814837 108.733082 
L 360.76566 110.03914 
L 360.940702 100.399772 
L 361.019931 104.392384 
L 361.178581 102.307227 
L 361.459897 101.992898 
L 361.712766 108.101967 
L 362.230423 99.539417 
L 363.36039 101.183787 
L 363.545107 107.654366 
L 363.860167 101.080551 
L 363.934764 96.666959 
L 364.254692 109.612551 
L 364.483166 109.768675 
L 364.588229 111.117611 
L 365.743988 99.477236 
L 365.859498 111.336676 
L 366.281411 101.329242 
L 366.316604 97.645758 
L 366.951245 112.813984 
L 367.339489 110.442936 
L 367.359883 92.315554 
L 367.699834 106.606983 
L 368.376887 97.174879 
L 368.571197 97.512337 
L 368.929432 94.456774 
L 369.000578 96.246413 
L 369.368515 97.108068 
L 369.55969 103.495307 
L 369.800242 102.008073 
L 370.564087 104.962217 
L 371.080123 91.624452 
L 371.351555 108.321331 
L 371.497156 102.669172 
L 371.646896 104.084122 
L 371.852199 99.47535 
L 372.148968 101.489755 
L 372.760591 100.209444 
L 373.302199 98.17856 
L 374.251567 92.350895 
L 374.409997 106.014966 
L 374.459642 103.201285 
L 375.079324 95.869762 
L 375.163364 101.356947 
L 375.207332 88.686921 
L 375.624113 100.064785 
L 375.690506 106.386899 
L 376.684951 88.788216 
L 377.423594 96.033541 
L 377.490763 103.684109 
L 377.735496 88.566579 
L 377.887285 97.941847 
L 378.11569 102.870194 
L 378.79851 88.540642 
L 378.912665 100.445954 
L 379.190042 101.622107 
L 379.658748 90.110151 
L 380.049779 100.692505 
L 380.304748 83.899689 
L 380.463529 96.302278 
L 380.596145 97.020414 
L 381.452438 97.450221 
L 382.266605 96.77436 
L 382.328542 98.002773 
L 382.951766 100.292879 
L 383.268573 91.801854 
L 383.322443 92.977877 
L 383.582715 88.852234 
L 383.691753 99.482599 
L 384.048463 96.843399 
L 384.230992 80.354693 
L 384.375405 92.645635 
L 384.402479 84.239996 
L 385.280323 91.464272 
L 385.446322 91.193819 
L 385.613365 88.005658 
L 386.002022 83.537019 
L 386.097904 85.996371 
L 386.721365 90.475075 
L 387.477369 84.844696 
L 387.676037 82.10339 
L 387.732282 85.440608 
L 388.134208 94.360578 
L 388.920153 90.827885 
L 388.961366 83.414348 
L 389.203741 90.273486 
L 389.216526 84.845404 
L 389.672016 87.601951 
L 389.981406 79.040624 
L 390.410544 93.638956 
L 390.715426 90.308944 
L 390.797965 87.161326 
L 391.105896 84.735719 
L 391.409978 76.652176 
L 391.960043 86.766838 
L 392.48833 84.034216 
L 392.882033 85.056944 
L 393.233651 79.36311 
L 393.560853 83.322394 
L 393.708548 83.727865 
L 393.744497 77.409403 
L 394.273543 80.536209 
L 394.514747 90.768392 
L 394.611306 77.720614 
L 394.904043 89.201548 
L 395.220719 85.28886 
L 395.335039 86.356556 
L 395.396651 84.45831 
L 395.934576 80.11304 
L 396.623897 87.954084 
L 396.82851 87.73637 
L 397.212167 83.14115 
L 398.487273 87.732552 
L 398.487273 87.732552 
" clip-path="url(#pc23c0ca74f)" style="fill: none; stroke: #1f77b4; stroke-width: 1.5; stroke-linecap: square"/>
   </g>
   <g id="line2d_26">
    <path d="M 73.832727 285.136908 
L 398.487273 53.568 
L 398.487273 53.568 
" clip-path="url(#pc23c0ca74f)" style="fill: none; stroke: #ff7f0e; stroke-width: 1.5; stroke-linecap: square"/>
   </g>
   <g id="patch_3">
    <path d="M 57.6 307.584 
L 57.6 41.472 
" style="fill: none; stroke: #000000; stroke-width: 0.8; stroke-linejoin: miter; stroke-linecap: square"/>
   </g>
   <g id="patch_4">
    <path d="M 414.72 307.584 
L 414.72 41.472 
" style="fill: none; stroke: #000000; stroke-width: 0.8; stroke-linejoin: miter; stroke-linecap: square"/>
   </g>
   <g id="patch_5">
    <path d="M 57.6 307.584 
L 414.72 307.584 
" style="fill: none; stroke: #000000; stroke-width: 0.8; stroke-linejoin: miter; stroke-linecap: square"/>
   </g>
   <g id="patch_6">
    <path d="M 57.6 41.472 
L 414.72 41.472 
" style="fill: none; stroke: #000000; stroke-width: 0.8; stroke-linejoin: miter; stroke-linecap: square"/>
   </g>
   <g id="text_15">
    <!-- Conditioning number experiment -->
    <g transform="translate(136.555313 35.472) scale(0.12 -0.12)">
     <defs>
      <path id="DejaVuSans-43" d="M 4122 4306 
L 4122 3641 
Q 3803 3938 3442 4084 
Q 3081 4231 2675 4231 
Q 1875 4231 1450 3742 
Q 1025 3253 1025 2328 
Q 1025 1406 1450 917 
Q 1875 428 2675 428 
Q 3081 428 3442 575 
Q 3803 722 4122 1019 
L 4122 359 
Q 3791 134 3420 21 
Q 3050 -91 2638 -91 
Q 1578 -91 968 557 
Q 359 1206 359 2328 
Q 359 3453 968 4101 
Q 1578 4750 2638 4750 
Q 3056 4750 3426 4639 
Q 3797 4528 4122 4306 
z
" transform="scale(0.015625)"/>
      <path id="DejaVuSans-6f" d="M 1959 3097 
Q 1497 3097 1228 2736 
Q 959 2375 959 1747 
Q 959 1119 1226 758 
Q 1494 397 1959 397 
Q 2419 397 2687 759 
Q 2956 1122 2956 1747 
Q 2956 2369 2687 2733 
Q 2419 3097 1959 3097 
z
M 1959 3584 
Q 2709 3584 3137 3096 
Q 3566 2609 3566 1747 
Q 3566 888 3137 398 
Q 2709 -91 1959 -91 
Q 1206 -91 779 398 
Q 353 888 353 1747 
Q 353 2609 779 3096 
Q 1206 3584 1959 3584 
z
" transform="scale(0.015625)"/>
      <path id="DejaVuSans-6e" d="M 3513 2113 
L 3513 0 
L 2938 0 
L 2938 2094 
Q 2938 2591 2744 2837 
Q 2550 3084 2163 3084 
Q 1697 3084 1428 2787 
Q 1159 2491 1159 1978 
L 1159 0 
L 581 0 
L 581 3500 
L 1159 3500 
L 1159 2956 
Q 1366 3272 1645 3428 
Q 1925 3584 2291 3584 
Q 2894 3584 3203 3211 
Q 3513 2838 3513 2113 
z
" transform="scale(0.015625)"/>
      <path id="DejaVuSans-64" d="M 2906 2969 
L 2906 4863 
L 3481 4863 
L 3481 0 
L 2906 0 
L 2906 525 
Q 2725 213 2448 61 
Q 2172 -91 1784 -91 
Q 1150 -91 751 415 
Q 353 922 353 1747 
Q 353 2572 751 3078 
Q 1150 3584 1784 3584 
Q 2172 3584 2448 3432 
Q 2725 3281 2906 2969 
z
M 947 1747 
Q 947 1113 1208 752 
Q 1469 391 1925 391 
Q 2381 391 2643 752 
Q 2906 1113 2906 1747 
Q 2906 2381 2643 2742 
Q 2381 3103 1925 3103 
Q 1469 3103 1208 2742 
Q 947 2381 947 1747 
z
" transform="scale(0.015625)"/>
      <path id="DejaVuSans-69" d="M 603 3500 
L 1178 3500 
L 1178 0 
L 603 0 
L 603 3500 
z
M 603 4863 
L 1178 4863 
L 1178 4134 
L 603 4134 
L 603 4863 
z
" transform="scale(0.015625)"/>
      <path id="DejaVuSans-74" d="M 1172 4494 
L 1172 3500 
L 2356 3500 
L 2356 3053 
L 1172 3053 
L 1172 1153 
Q 1172 725 1289 603 
Q 1406 481 1766 481 
L 2356 481 
L 2356 0 
L 1766 0 
Q 1100 0 847 248 
Q 594 497 594 1153 
L 594 3053 
L 172 3053 
L 172 3500 
L 594 3500 
L 594 4494 
L 1172 4494 
z
" transform="scale(0.015625)"/>
      <path id="DejaVuSans-67" d="M 2906 1791 
Q 2906 2416 2648 2759 
Q 2391 3103 1925 3103 
Q 1463 3103 1205 2759 
Q 947 2416 947 1791 
Q 947 1169 1205 825 
Q 1463 481 1925 481 
Q 2391 481 2648 825 
Q 2906 1169 2906 1791 
z
M 3481 434 
Q 3481 -459 3084 -895 
Q 2688 -1331 1869 -1331 
Q 1566 -1331 1297 -1286 
Q 1028 -1241 775 -1147 
L 775 -588 
Q 1028 -725 1275 -790 
Q 1522 -856 1778 -856 
Q 2344 -856 2625 -561 
Q 2906 -266 2906 331 
L 2906 616 
Q 2728 306 2450 153 
Q 2172 0 1784 0 
Q 1141 0 747 490 
Q 353 981 353 1791 
Q 353 2603 747 3093 
Q 1141 3584 1784 3584 
Q 2172 3584 2450 3431 
Q 2728 3278 2906 2969 
L 2906 3500 
L 3481 3500 
L 3481 434 
z
" transform="scale(0.015625)"/>
      <path id="DejaVuSans-20" transform="scale(0.015625)"/>
      <path id="DejaVuSans-75" d="M 544 1381 
L 544 3500 
L 1119 3500 
L 1119 1403 
Q 1119 906 1312 657 
Q 1506 409 1894 409 
Q 2359 409 2629 706 
Q 2900 1003 2900 1516 
L 2900 3500 
L 3475 3500 
L 3475 0 
L 2900 0 
L 2900 538 
Q 2691 219 2414 64 
Q 2138 -91 1772 -91 
Q 1169 -91 856 284 
Q 544 659 544 1381 
z
M 1991 3584 
L 1991 3584 
z
" transform="scale(0.015625)"/>
      <path id="DejaVuSans-6d" d="M 3328 2828 
Q 3544 3216 3844 3400 
Q 4144 3584 4550 3584 
Q 5097 3584 5394 3201 
Q 5691 2819 5691 2113 
L 5691 0 
L 5113 0 
L 5113 2094 
Q 5113 2597 4934 2840 
Q 4756 3084 4391 3084 
Q 3944 3084 3684 2787 
Q 3425 2491 3425 1978 
L 3425 0 
L 2847 0 
L 2847 2094 
Q 2847 2600 2669 2842 
Q 2491 3084 2119 3084 
Q 1678 3084 1418 2786 
Q 1159 2488 1159 1978 
L 1159 0 
L 581 0 
L 581 3500 
L 1159 3500 
L 1159 2956 
Q 1356 3278 1631 3431 
Q 1906 3584 2284 3584 
Q 2666 3584 2933 3390 
Q 3200 3197 3328 2828 
z
" transform="scale(0.015625)"/>
      <path id="DejaVuSans-65" d="M 3597 1894 
L 3597 1613 
L 953 1613 
Q 991 1019 1311 708 
Q 1631 397 2203 397 
Q 2534 397 2845 478 
Q 3156 559 3463 722 
L 3463 178 
Q 3153 47 2828 -22 
Q 2503 -91 2169 -91 
Q 1331 -91 842 396 
Q 353 884 353 1716 
Q 353 2575 817 3079 
Q 1281 3584 2069 3584 
Q 2775 3584 3186 3129 
Q 3597 2675 3597 1894 
z
M 3022 2063 
Q 3016 2534 2758 2815 
Q 2500 3097 2075 3097 
Q 1594 3097 1305 2825 
Q 1016 2553 972 2059 
L 3022 2063 
z
" transform="scale(0.015625)"/>
      <path id="DejaVuSans-72" d="M 2631 2963 
Q 2534 3019 2420 3045 
Q 2306 3072 2169 3072 
Q 1681 3072 1420 2755 
Q 1159 2438 1159 1844 
L 1159 0 
L 581 0 
L 581 3500 
L 1159 3500 
L 1159 2956 
Q 1341 3275 1631 3429 
Q 1922 3584 2338 3584 
Q 2397 3584 2469 3576 
Q 2541 3569 2628 3553 
L 2631 2963 
z
" transform="scale(0.015625)"/>
      <path id="DejaVuSans-70" d="M 1159 525 
L 1159 -1331 
L 581 -1331 
L 581 3500 
L 1159 3500 
L 1159 2969 
Q 1341 3281 1617 3432 
Q 1894 3584 2278 3584 
Q 2916 3584 3314 3078 
Q 3713 2572 3713 1747 
Q 3713 922 3314 415 
Q 2916 -91 2278 -91 
Q 1894 -91 1617 61 
Q 1341 213 1159 525 
z
M 3116 1747 
Q 3116 2381 2855 2742 
Q 2594 3103 2138 3103 
Q 1681 3103 1420 2742 
Q 1159 2381 1159 1747 
Q 1159 1113 1420 752 
Q 1681 391 2138 391 
Q 2594 391 2855 752 
Q 3116 1113 3116 1747 
z
" transform="scale(0.015625)"/>
     </defs>
     <use xlink:href="#DejaVuSans-43"/>
     <use xlink:href="#DejaVuSans-6f" x="69.824219"/>
     <use xlink:href="#DejaVuSans-6e" x="131.005859"/>
     <use xlink:href="#DejaVuSans-64" x="194.384766"/>
     <use xlink:href="#DejaVuSans-69" x="257.861328"/>
     <use xlink:href="#DejaVuSans-74" x="285.644531"/>
     <use xlink:href="#DejaVuSans-69" x="324.853516"/>
     <use xlink:href="#DejaVuSans-6f" x="352.636719"/>
     <use xlink:href="#DejaVuSans-6e" x="413.818359"/>
     <use xlink:href="#DejaVuSans-69" x="477.197266"/>
     <use xlink:href="#DejaVuSans-6e" x="504.980469"/>
     <use xlink:href="#DejaVuSans-67" x="568.359375"/>
     <use xlink:href="#DejaVuSans-20" x="631.835938"/>
     <use xlink:href="#DejaVuSans-6e" x="663.623047"/>
     <use xlink:href="#DejaVuSans-75" x="727.001953"/>
     <use xlink:href="#DejaVuSans-6d" x="790.380859"/>
     <use xlink:href="#DejaVuSans-62" x="887.792969"/>
     <use xlink:href="#DejaVuSans-65" x="951.269531"/>
     <use xlink:href="#DejaVuSans-72" x="1012.792969"/>
     <use xlink:href="#DejaVuSans-20" x="1053.90625"/>
     <use xlink:href="#DejaVuSans-65" x="1085.693359"/>
     <use xlink:href="#DejaVuSans-78" x="1145.466797"/>
     <use xlink:href="#DejaVuSans-70" x="1204.646484"/>
     <use xlink:href="#DejaVuSans-65" x="1268.123047"/>
     <use xlink:href="#DejaVuSans-72" x="1329.646484"/>
     <use xlink:href="#DejaVuSans-69" x="1370.759766"/>
     <use xlink:href="#DejaVuSans-6d" x="1398.542969"/>
     <use xlink:href="#DejaVuSans-65" x="1495.955078"/>
     <use xlink:href="#DejaVuSans-6e" x="1557.478516"/>
     <use xlink:href="#DejaVuSans-74" x="1620.857422"/>
    </g>
   </g>
   <g id="legend_1">
    <g id="patch_7">
     <path d="M 64.6 79.250125 
L 302.1 79.250125 
Q 304.1 79.250125 304.1 77.250125 
L 304.1 48.472 
Q 304.1 46.472 302.1 46.472 
L 64.6 46.472 
Q 62.6 46.472 62.6 48.472 
L 62.6 77.250125 
Q 62.6 79.250125 64.6 79.250125 
z
" style="fill: #ffffff; opacity: 0.8; stroke: #cccccc; stroke-linejoin: miter"/>
    </g>
    <g id="line2d_27">
     <path d="M 66.6 54.570437 
L 76.6 54.570437 
L 86.6 54.570437 
" style="fill: none; stroke: #1f77b4; stroke-width: 1.5; stroke-linecap: square"/>
    </g>
    <g id="text_16">
     <!-- relative solution perturbation -->
     <g transform="translate(94.6 58.070437) scale(0.1 -0.1)">
      <defs>
       <path id="DejaVuSans-6c" d="M 603 4863 
L 1178 4863 
L 1178 0 
L 603 0 
L 603 4863 
z
" transform="scale(0.015625)"/>
       <path id="DejaVuSans-61" d="M 2194 1759 
Q 1497 1759 1228 1600 
Q 959 1441 959 1056 
Q 959 750 1161 570 
Q 1363 391 1709 391 
Q 2188 391 2477 730 
Q 2766 1069 2766 1631 
L 2766 1759 
L 2194 1759 
z
M 3341 1997 
L 3341 0 
L 2766 0 
L 2766 531 
Q 2569 213 2275 61 
Q 1981 -91 1556 -91 
Q 1019 -91 701 211 
Q 384 513 384 1019 
Q 384 1609 779 1909 
Q 1175 2209 1959 2209 
L 2766 2209 
L 2766 2266 
Q 2766 2663 2505 2880 
Q 2244 3097 1772 3097 
Q 1472 3097 1187 3025 
Q 903 2953 641 2809 
L 641 3341 
Q 956 3463 1253 3523 
Q 1550 3584 1831 3584 
Q 2591 3584 2966 3190 
Q 3341 2797 3341 1997 
z
" transform="scale(0.015625)"/>
       <path id="DejaVuSans-76" d="M 191 3500 
L 800 3500 
L 1894 563 
L 2988 3500 
L 3597 3500 
L 2284 0 
L 1503 0 
L 191 3500 
z
" transform="scale(0.015625)"/>
       <path id="DejaVuSans-73" d="M 2834 3397 
L 2834 2853 
Q 2591 2978 2328 3040 
Q 2066 3103 1784 3103 
Q 1356 3103 1142 2972 
Q 928 2841 928 2578 
Q 928 2378 1081 2264 
Q 1234 2150 1697 2047 
L 1894 2003 
Q 2506 1872 2764 1633 
Q 3022 1394 3022 966 
Q 3022 478 2636 193 
Q 2250 -91 1575 -91 
Q 1294 -91 989 -36 
Q 684 19 347 128 
L 347 722 
Q 666 556 975 473 
Q 1284 391 1588 391 
Q 1994 391 2212 530 
Q 2431 669 2431 922 
Q 2431 1156 2273 1281 
Q 2116 1406 1581 1522 
L 1381 1569 
Q 847 1681 609 1914 
Q 372 2147 372 2553 
Q 372 3047 722 3315 
Q 1072 3584 1716 3584 
Q 2034 3584 2315 3537 
Q 2597 3491 2834 3397 
z
" transform="scale(0.015625)"/>
      </defs>
      <use xlink:href="#DejaVuSans-72"/>
      <use xlink:href="#DejaVuSans-65" x="38.863281"/>
      <use xlink:href="#DejaVuSans-6c" x="100.386719"/>
      <use xlink:href="#DejaVuSans-61" x="128.169922"/>
      <use xlink:href="#DejaVuSans-74" x="189.449219"/>
      <use xlink:href="#DejaVuSans-69" x="228.658203"/>
      <use xlink:href="#DejaVuSans-76" x="256.441406"/>
      <use xlink:href="#DejaVuSans-65" x="315.621094"/>
      <use xlink:href="#DejaVuSans-20" x="377.144531"/>
      <use xlink:href="#DejaVuSans-73" x="408.931641"/>
      <use xlink:href="#DejaVuSans-6f" x="461.03125"/>
      <use xlink:href="#DejaVuSans-6c" x="522.212891"/>
      <use xlink:href="#DejaVuSans-75" x="549.996094"/>
      <use xlink:href="#DejaVuSans-74" x="613.375"/>
      <use xlink:href="#DejaVuSans-69" x="652.583984"/>
      <use xlink:href="#DejaVuSans-6f" x="680.367188"/>
      <use xlink:href="#DejaVuSans-6e" x="741.548828"/>
      <use xlink:href="#DejaVuSans-20" x="804.927734"/>
      <use xlink:href="#DejaVuSans-70" x="836.714844"/>
      <use xlink:href="#DejaVuSans-65" x="900.191406"/>
      <use xlink:href="#DejaVuSans-72" x="961.714844"/>
      <use xlink:href="#DejaVuSans-74" x="1002.828125"/>
      <use xlink:href="#DejaVuSans-75" x="1042.037109"/>
      <use xlink:href="#DejaVuSans-72" x="1105.416016"/>
      <use xlink:href="#DejaVuSans-62" x="1146.529297"/>
      <use xlink:href="#DejaVuSans-61" x="1210.005859"/>
      <use xlink:href="#DejaVuSans-74" x="1271.285156"/>
      <use xlink:href="#DejaVuSans-69" x="1310.494141"/>
      <use xlink:href="#DejaVuSans-6f" x="1338.277344"/>
      <use xlink:href="#DejaVuSans-6e" x="1399.458984"/>
     </g>
    </g>
    <g id="line2d_28">
     <path d="M 66.6 69.350125 
L 76.6 69.350125 
L 86.6 69.350125 
" style="fill: none; stroke: #ff7f0e; stroke-width: 1.5; stroke-linecap: square"/>
    </g>
    <g id="text_17">
     <!-- perturbation upper bound ($\kappa_b$*||$\delta$b||/||b||) -->
     <g transform="translate(94.6 72.850125) scale(0.1 -0.1)">
      <defs>
       <path id="DejaVuSans-28" d="M 1984 4856 
Q 1566 4138 1362 3434 
Q 1159 2731 1159 2009 
Q 1159 1288 1364 580 
Q 1569 -128 1984 -844 
L 1484 -844 
Q 1016 -109 783 600 
Q 550 1309 550 2009 
Q 550 2706 781 3412 
Q 1013 4119 1484 4856 
L 1984 4856 
z
" transform="scale(0.015625)"/>
       <path id="DejaVuSans-Oblique-3ba" d="M 938 3500 
L 1531 3500 
L 1247 2047 
L 3041 3500 
L 3741 3500 
L 2106 2181 
L 3275 0 
L 2572 0 
L 1628 1806 
L 1122 1403 
L 850 0 
L 256 0 
L 938 3500 
z
" transform="scale(0.015625)"/>
       <path id="DejaVuSans-Oblique-62" d="M 3169 2138 
Q 3169 2591 2961 2847 
Q 2753 3103 2388 3103 
Q 2122 3103 1889 2973 
Q 1656 2844 1484 2597 
Q 1303 2338 1198 1995 
Q 1094 1653 1094 1313 
Q 1094 881 1298 636 
Q 1503 391 1863 391 
Q 2134 391 2365 517 
Q 2597 644 2772 891 
Q 2950 1147 3059 1487 
Q 3169 1828 3169 2138 
z
M 1381 2969 
Q 1594 3256 1914 3420 
Q 2234 3584 2584 3584 
Q 3122 3584 3439 3221 
Q 3756 2859 3756 2241 
Q 3756 1734 3570 1259 
Q 3384 784 3041 416 
Q 2816 172 2522 40 
Q 2228 -91 1906 -91 
Q 1566 -91 1316 65 
Q 1066 222 909 531 
L 806 0 
L 231 0 
L 1178 4863 
L 1753 4863 
L 1381 2969 
z
" transform="scale(0.015625)"/>
       <path id="DejaVuSans-2a" d="M 3009 3897 
L 1888 3291 
L 3009 2681 
L 2828 2375 
L 1778 3009 
L 1778 1831 
L 1422 1831 
L 1422 3009 
L 372 2375 
L 191 2681 
L 1313 3291 
L 191 3897 
L 372 4206 
L 1422 3572 
L 1422 4750 
L 1778 4750 
L 1778 3572 
L 2828 4206 
L 3009 3897 
z
" transform="scale(0.015625)"/>
       <path id="DejaVuSans-29" d="M 513 4856 
L 1013 4856 
Q 1481 4119 1714 3412 
Q 1947 2706 1947 2009 
Q 1947 1309 1714 600 
Q 1481 -109 1013 -844 
L 513 -844 
Q 928 -128 1133 580 
Q 1338 1288 1338 2009 
Q 1338 2731 1133 3434 
Q 928 4138 513 4856 
z
" transform="scale(0.015625)"/>
      </defs>
      <use xlink:href="#DejaVuSans-70" transform="translate(0 0.578125)"/>
      <use xlink:href="#DejaVuSans-65" transform="translate(63.476562 0.578125)"/>
      <use xlink:href="#DejaVuSans-72" transform="translate(125 0.578125)"/>
      <use xlink:href="#DejaVuSans-74" transform="translate(166.113281 0.578125)"/>
      <use xlink:href="#DejaVuSans-75" transform="translate(205.322266 0.578125)"/>
      <use xlink:href="#DejaVuSans-72" transform="translate(268.701172 0.578125)"/>
      <use xlink:href="#DejaVuSans-62" transform="translate(309.814453 0.578125)"/>
      <use xlink:href="#DejaVuSans-61" transform="translate(373.291016 0.578125)"/>
      <use xlink:href="#DejaVuSans-74" transform="translate(434.570312 0.578125)"/>
      <use xlink:href="#DejaVuSans-69" transform="translate(473.779297 0.578125)"/>
      <use xlink:href="#DejaVuSans-6f" transform="translate(501.5625 0.578125)"/>
      <use xlink:href="#DejaVuSans-6e" transform="translate(562.744141 0.578125)"/>
      <use xlink:href="#DejaVuSans-20" transform="translate(626.123047 0.578125)"/>
      <use xlink:href="#DejaVuSans-75" transform="translate(657.910156 0.578125)"/>
      <use xlink:href="#DejaVuSans-70" transform="translate(721.289062 0.578125)"/>
      <use xlink:href="#DejaVuSans-70" transform="translate(784.765625 0.578125)"/>
      <use xlink:href="#DejaVuSans-65" transform="translate(848.242188 0.578125)"/>
      <use xlink:href="#DejaVuSans-72" transform="translate(909.765625 0.578125)"/>
      <use xlink:href="#DejaVuSans-20" transform="translate(950.878906 0.578125)"/>
      <use xlink:href="#DejaVuSans-62" transform="translate(982.666016 0.578125)"/>
      <use xlink:href="#DejaVuSans-6f" transform="translate(1046.142578 0.578125)"/>
      <use xlink:href="#DejaVuSans-75" transform="translate(1107.324219 0.578125)"/>
      <use xlink:href="#DejaVuSans-6e" transform="translate(1170.703125 0.578125)"/>
      <use xlink:href="#DejaVuSans-64" transform="translate(1234.082031 0.578125)"/>
      <use xlink:href="#DejaVuSans-20" transform="translate(1297.558594 0.578125)"/>
      <use xlink:href="#DejaVuSans-28" transform="translate(1329.345703 0.578125)"/>
      <use xlink:href="#DejaVuSans-Oblique-3ba" transform="translate(1368.359375 0.578125)"/>
      <use xlink:href="#DejaVuSans-Oblique-62" transform="translate(1427.294922 -15.828125) scale(0.7)"/>
      <use xlink:href="#DejaVuSans-2a" transform="translate(1474.462891 0.578125)"/>
      <use xlink:href="#DejaVuSans-7c" transform="translate(1524.462891 0.578125)"/>
      <use xlink:href="#DejaVuSans-7c" transform="translate(1558.154297 0.578125)"/>
      <use xlink:href="#DejaVuSans-Oblique-3b4" transform="translate(1591.845703 0.578125)"/>
      <use xlink:href="#DejaVuSans-62" transform="translate(1653.027344 0.578125)"/>
      <use xlink:href="#DejaVuSans-7c" transform="translate(1716.503906 0.578125)"/>
      <use xlink:href="#DejaVuSans-7c" transform="translate(1750.195312 0.578125)"/>
      <use xlink:href="#DejaVuSans-2f" transform="translate(1783.886719 0.578125)"/>
      <use xlink:href="#DejaVuSans-7c" transform="translate(1817.578125 0.578125)"/>
      <use xlink:href="#DejaVuSans-7c" transform="translate(1851.269531 0.578125)"/>
      <use xlink:href="#DejaVuSans-62" transform="translate(1884.960938 0.578125)"/>
      <use xlink:href="#DejaVuSans-7c" transform="translate(1948.4375 0.578125)"/>
      <use xlink:href="#DejaVuSans-7c" transform="translate(1982.128906 0.578125)"/>
      <use xlink:href="#DejaVuSans-29" transform="translate(2015.820312 0.578125)"/>
     </g>
    </g>
   </g>
  </g>
 </g>
 <defs>
  <clipPath id="pc23c0ca74f">
   <rect x="57.6" y="41.472" width="357.12" height="266.112"/>
  </clipPath>
 </defs>
</svg>
