<?xml version="1.0" encoding="utf-8" standalone="no"?>
<!DOCTYPE svg PUBLIC "-//W3C//DTD SVG 1.1//EN"
  "http://www.w3.org/Graphics/SVG/1.1/DTD/svg11.dtd">
<svg xmlns:xlink="http://www.w3.org/1999/xlink" width="460.8pt" height="345.6pt" viewBox="0 0 460.8 345.6" xmlns="http://www.w3.org/2000/svg" version="1.1">
 <metadata>
  <rdf:RDF xmlns:dc="http://purl.org/dc/elements/1.1/" xmlns:cc="http://creativecommons.org/ns#" xmlns:rdf="http://www.w3.org/1999/02/22-rdf-syntax-ns#">
   <cc:Work>
    <dc:type rdf:resource="http://purl.org/dc/dcmitype/StillImage"/>
    <dc:date>2024-03-09T17:04:01.264044</dc:date>
    <dc:format>image/svg+xml</dc:format>
    <dc:creator>
     <cc:Agent>
      <dc:title>Matplotlib v3.8.0, https://matplotlib.org/</dc:title>
     </cc:Agent>
    </dc:creator>
   </cc:Work>
  </rdf:RDF>
 </metadata>
 <defs>
  <style type="text/css">*{stroke-linejoin: round; stroke-linecap: butt}</style>
 </defs>
 <g id="figure_1">
  <g id="patch_1">
   <path d="M 0 345.6 
L 460.8 345.6 
L 460.8 0 
L 0 0 
z
" style="fill: #ffffff"/>
  </g>
  <g id="axes_1">
   <g id="patch_2">
    <path d="M 57.6 307.584 
L 414.72 307.584 
L 414.72 41.472 
L 57.6 41.472 
z
" style="fill: #ffffff"/>
   </g>
   <g id="matplotlib.axis_1">
    <g id="xtick_1">
     <g id="line2d_1">
      <path d="M 100.937197 307.584 
L 100.937197 41.472 
" clip-path="url(#p692e113f64)" style="fill: none; stroke: #b0b0b0; stroke-width: 0.8; stroke-linecap: square"/>
     </g>
     <g id="line2d_2">
      <defs>
       <path id="md3e8b98f3b" d="M 0 0 
L 0 3.5 
" style="stroke: #000000; stroke-width: 0.8"/>
      </defs>
      <g>
       <use xlink:href="#md3e8b98f3b" x="100.937197" y="307.584" style="stroke: #000000; stroke-width: 0.8"/>
      </g>
     </g>
     <g id="text_1">
      <!-- $\mathdefault{10^{-11}}$ -->
      <g transform="translate(86.987197 322.182437) scale(0.1 -0.1)">
       <defs>
        <path id="DejaVuSans-31" d="M 794 531 
L 1825 531 
L 1825 4091 
L 703 3866 
L 703 4441 
L 1819 4666 
L 2450 4666 
L 2450 531 
L 3481 531 
L 3481 0 
L 794 0 
L 794 531 
z
" transform="scale(0.015625)"/>
        <path id="DejaVuSans-30" d="M 2034 4250 
Q 1547 4250 1301 3770 
Q 1056 3291 1056 2328 
Q 1056 1369 1301 889 
Q 1547 409 2034 409 
Q 2525 409 2770 889 
Q 3016 1369 3016 2328 
Q 3016 3291 2770 3770 
Q 2525 4250 2034 4250 
z
M 2034 4750 
Q 2819 4750 3233 4129 
Q 3647 3509 3647 2328 
Q 3647 1150 3233 529 
Q 2819 -91 2034 -91 
Q 1250 -91 836 529 
Q 422 1150 422 2328 
Q 422 3509 836 4129 
Q 1250 4750 2034 4750 
z
" transform="scale(0.015625)"/>
        <path id="DejaVuSans-2212" d="M 678 2272 
L 4684 2272 
L 4684 1741 
L 678 1741 
L 678 2272 
z
" transform="scale(0.015625)"/>
       </defs>
       <use xlink:href="#DejaVuSans-31" transform="translate(0 0.684375)"/>
       <use xlink:href="#DejaVuSans-30" transform="translate(63.623047 0.684375)"/>
       <use xlink:href="#DejaVuSans-2212" transform="translate(128.203125 38.965625) scale(0.7)"/>
       <use xlink:href="#DejaVuSans-31" transform="translate(186.855469 38.965625) scale(0.7)"/>
       <use xlink:href="#DejaVuSans-31" transform="translate(231.391602 38.965625) scale(0.7)"/>
      </g>
     </g>
    </g>
    <g id="xtick_2">
     <g id="line2d_3">
      <path d="M 155.03327 307.584 
L 155.03327 41.472 
" clip-path="url(#p692e113f64)" style="fill: none; stroke: #b0b0b0; stroke-width: 0.8; stroke-linecap: square"/>
     </g>
     <g id="line2d_4">
      <g>
       <use xlink:href="#md3e8b98f3b" x="155.03327" y="307.584" style="stroke: #000000; stroke-width: 0.8"/>
      </g>
     </g>
     <g id="text_2">
      <!-- $\mathdefault{10^{-9}}$ -->
      <g transform="translate(143.28327 322.182437) scale(0.1 -0.1)">
       <defs>
        <path id="DejaVuSans-39" d="M 703 97 
L 703 672 
Q 941 559 1184 500 
Q 1428 441 1663 441 
Q 2288 441 2617 861 
Q 2947 1281 2994 2138 
Q 2813 1869 2534 1725 
Q 2256 1581 1919 1581 
Q 1219 1581 811 2004 
Q 403 2428 403 3163 
Q 403 3881 828 4315 
Q 1253 4750 1959 4750 
Q 2769 4750 3195 4129 
Q 3622 3509 3622 2328 
Q 3622 1225 3098 567 
Q 2575 -91 1691 -91 
Q 1453 -91 1209 -44 
Q 966 3 703 97 
z
M 1959 2075 
Q 2384 2075 2632 2365 
Q 2881 2656 2881 3163 
Q 2881 3666 2632 3958 
Q 2384 4250 1959 4250 
Q 1534 4250 1286 3958 
Q 1038 3666 1038 3163 
Q 1038 2656 1286 2365 
Q 1534 2075 1959 2075 
z
" transform="scale(0.015625)"/>
       </defs>
       <use xlink:href="#DejaVuSans-31" transform="translate(0 0.765625)"/>
       <use xlink:href="#DejaVuSans-30" transform="translate(63.623047 0.765625)"/>
       <use xlink:href="#DejaVuSans-2212" transform="translate(128.203125 39.046875) scale(0.7)"/>
       <use xlink:href="#DejaVuSans-39" transform="translate(186.855469 39.046875) scale(0.7)"/>
      </g>
     </g>
    </g>
    <g id="xtick_3">
     <g id="line2d_5">
      <path d="M 209.129343 307.584 
L 209.129343 41.472 
" clip-path="url(#p692e113f64)" style="fill: none; stroke: #b0b0b0; stroke-width: 0.8; stroke-linecap: square"/>
     </g>
     <g id="line2d_6">
      <g>
       <use xlink:href="#md3e8b98f3b" x="209.129343" y="307.584" style="stroke: #000000; stroke-width: 0.8"/>
      </g>
     </g>
     <g id="text_3">
      <!-- $\mathdefault{10^{-7}}$ -->
      <g transform="translate(197.379343 322.182437) scale(0.1 -0.1)">
       <defs>
        <path id="DejaVuSans-37" d="M 525 4666 
L 3525 4666 
L 3525 4397 
L 1831 0 
L 1172 0 
L 2766 4134 
L 525 4134 
L 525 4666 
z
" transform="scale(0.015625)"/>
       </defs>
       <use xlink:href="#DejaVuSans-31" transform="translate(0 0.684375)"/>
       <use xlink:href="#DejaVuSans-30" transform="translate(63.623047 0.684375)"/>
       <use xlink:href="#DejaVuSans-2212" transform="translate(128.203125 38.965625) scale(0.7)"/>
       <use xlink:href="#DejaVuSans-37" transform="translate(186.855469 38.965625) scale(0.7)"/>
      </g>
     </g>
    </g>
    <g id="xtick_4">
     <g id="line2d_7">
      <path d="M 263.225417 307.584 
L 263.225417 41.472 
" clip-path="url(#p692e113f64)" style="fill: none; stroke: #b0b0b0; stroke-width: 0.8; stroke-linecap: square"/>
     </g>
     <g id="line2d_8">
      <g>
       <use xlink:href="#md3e8b98f3b" x="263.225417" y="307.584" style="stroke: #000000; stroke-width: 0.8"/>
      </g>
     </g>
     <g id="text_4">
      <!-- $\mathdefault{10^{-5}}$ -->
      <g transform="translate(251.475417 322.182437) scale(0.1 -0.1)">
       <defs>
        <path id="DejaVuSans-35" d="M 691 4666 
L 3169 4666 
L 3169 4134 
L 1269 4134 
L 1269 2991 
Q 1406 3038 1543 3061 
Q 1681 3084 1819 3084 
Q 2600 3084 3056 2656 
Q 3513 2228 3513 1497 
Q 3513 744 3044 326 
Q 2575 -91 1722 -91 
Q 1428 -91 1123 -41 
Q 819 9 494 109 
L 494 744 
Q 775 591 1075 516 
Q 1375 441 1709 441 
Q 2250 441 2565 725 
Q 2881 1009 2881 1497 
Q 2881 1984 2565 2268 
Q 2250 2553 1709 2553 
Q 1456 2553 1204 2497 
Q 953 2441 691 2322 
L 691 4666 
z
" transform="scale(0.015625)"/>
       </defs>
       <use xlink:href="#DejaVuSans-31" transform="translate(0 0.684375)"/>
       <use xlink:href="#DejaVuSans-30" transform="translate(63.623047 0.684375)"/>
       <use xlink:href="#DejaVuSans-2212" transform="translate(128.203125 38.965625) scale(0.7)"/>
       <use xlink:href="#DejaVuSans-35" transform="translate(186.855469 38.965625) scale(0.7)"/>
      </g>
     </g>
    </g>
    <g id="xtick_5">
     <g id="line2d_9">
      <path d="M 317.32149 307.584 
L 317.32149 41.472 
" clip-path="url(#p692e113f64)" style="fill: none; stroke: #b0b0b0; stroke-width: 0.8; stroke-linecap: square"/>
     </g>
     <g id="line2d_10">
      <g>
       <use xlink:href="#md3e8b98f3b" x="317.32149" y="307.584" style="stroke: #000000; stroke-width: 0.8"/>
      </g>
     </g>
     <g id="text_5">
      <!-- $\mathdefault{10^{-3}}$ -->
      <g transform="translate(305.57149 322.182437) scale(0.1 -0.1)">
       <defs>
        <path id="DejaVuSans-33" d="M 2597 2516 
Q 3050 2419 3304 2112 
Q 3559 1806 3559 1356 
Q 3559 666 3084 287 
Q 2609 -91 1734 -91 
Q 1441 -91 1130 -33 
Q 819 25 488 141 
L 488 750 
Q 750 597 1062 519 
Q 1375 441 1716 441 
Q 2309 441 2620 675 
Q 2931 909 2931 1356 
Q 2931 1769 2642 2001 
Q 2353 2234 1838 2234 
L 1294 2234 
L 1294 2753 
L 1863 2753 
Q 2328 2753 2575 2939 
Q 2822 3125 2822 3475 
Q 2822 3834 2567 4026 
Q 2313 4219 1838 4219 
Q 1578 4219 1281 4162 
Q 984 4106 628 3988 
L 628 4550 
Q 988 4650 1302 4700 
Q 1616 4750 1894 4750 
Q 2613 4750 3031 4423 
Q 3450 4097 3450 3541 
Q 3450 3153 3228 2886 
Q 3006 2619 2597 2516 
z
" transform="scale(0.015625)"/>
       </defs>
       <use xlink:href="#DejaVuSans-31" transform="translate(0 0.765625)"/>
       <use xlink:href="#DejaVuSans-30" transform="translate(63.623047 0.765625)"/>
       <use xlink:href="#DejaVuSans-2212" transform="translate(128.203125 39.046875) scale(0.7)"/>
       <use xlink:href="#DejaVuSans-33" transform="translate(186.855469 39.046875) scale(0.7)"/>
      </g>
     </g>
    </g>
    <g id="xtick_6">
     <g id="line2d_11">
      <path d="M 371.417564 307.584 
L 371.417564 41.472 
" clip-path="url(#p692e113f64)" style="fill: none; stroke: #b0b0b0; stroke-width: 0.8; stroke-linecap: square"/>
     </g>
     <g id="line2d_12">
      <g>
       <use xlink:href="#md3e8b98f3b" x="371.417564" y="307.584" style="stroke: #000000; stroke-width: 0.8"/>
      </g>
     </g>
     <g id="text_6">
      <!-- $\mathdefault{10^{-1}}$ -->
      <g transform="translate(359.667564 322.182437) scale(0.1 -0.1)">
       <use xlink:href="#DejaVuSans-31" transform="translate(0 0.684375)"/>
       <use xlink:href="#DejaVuSans-30" transform="translate(63.623047 0.684375)"/>
       <use xlink:href="#DejaVuSans-2212" transform="translate(128.203125 38.965625) scale(0.7)"/>
       <use xlink:href="#DejaVuSans-31" transform="translate(186.855469 38.965625) scale(0.7)"/>
      </g>
     </g>
    </g>
    <g id="text_7">
     <!-- ||$\delta$A||/||A|| -->
     <g transform="translate(211.06 335.962125) scale(0.1 -0.1)">
      <defs>
       <path id="DejaVuSans-7c" d="M 1344 4891 
L 1344 -1509 
L 813 -1509 
L 813 4891 
L 1344 4891 
z
" transform="scale(0.015625)"/>
       <path id="DejaVuSans-Oblique-3b4" d="M 3472 4053 
Q 3197 4272 2450 4272 
Q 1659 4272 1588 3906 
Q 1531 3619 2328 3469 
Q 2953 3353 3253 3003 
Q 3616 2581 3447 1716 
Q 3284 888 2763 400 
Q 2238 -91 1488 -91 
Q 741 -91 406 400 
Q 72 888 241 1747 
Q 363 2384 891 2900 
Q 1097 3100 1353 3213 
Q 913 3459 1000 3900 
Q 1166 4750 2544 4750 
Q 3234 4750 3566 4531 
L 3472 4053 
z
M 1753 3056 
Q 1525 2966 1306 2738 
Q 969 2384 847 1747 
Q 722 1113 919 756 
Q 1119 397 1584 397 
Q 2044 397 2381 759 
Q 2722 1122 2838 1716 
Q 2956 2338 2731 2638 
Q 2491 2959 2103 2994 
Q 1906 3013 1753 3056 
z
" transform="scale(0.015625)"/>
       <path id="DejaVuSans-41" d="M 2188 4044 
L 1331 1722 
L 3047 1722 
L 2188 4044 
z
M 1831 4666 
L 2547 4666 
L 4325 0 
L 3669 0 
L 3244 1197 
L 1141 1197 
L 716 0 
L 50 0 
L 1831 4666 
z
" transform="scale(0.015625)"/>
       <path id="DejaVuSans-2f" d="M 1625 4666 
L 2156 4666 
L 531 -594 
L 0 -594 
L 1625 4666 
z
" transform="scale(0.015625)"/>
      </defs>
      <use xlink:href="#DejaVuSans-7c" transform="translate(0 0.578125)"/>
      <use xlink:href="#DejaVuSans-7c" transform="translate(33.691406 0.578125)"/>
      <use xlink:href="#DejaVuSans-Oblique-3b4" transform="translate(67.382812 0.578125)"/>
      <use xlink:href="#DejaVuSans-41" transform="translate(128.564453 0.578125)"/>
      <use xlink:href="#DejaVuSans-7c" transform="translate(196.972656 0.578125)"/>
      <use xlink:href="#DejaVuSans-7c" transform="translate(230.664062 0.578125)"/>
      <use xlink:href="#DejaVuSans-2f" transform="translate(264.355469 0.578125)"/>
      <use xlink:href="#DejaVuSans-7c" transform="translate(298.046875 0.578125)"/>
      <use xlink:href="#DejaVuSans-7c" transform="translate(331.738281 0.578125)"/>
      <use xlink:href="#DejaVuSans-41" transform="translate(365.429688 0.578125)"/>
      <use xlink:href="#DejaVuSans-7c" transform="translate(433.837891 0.578125)"/>
      <use xlink:href="#DejaVuSans-7c" transform="translate(467.529297 0.578125)"/>
     </g>
    </g>
   </g>
   <g id="matplotlib.axis_2">
    <g id="ytick_1">
     <g id="line2d_13">
      <path d="M 57.6 278.862694 
L 414.72 278.862694 
" clip-path="url(#p692e113f64)" style="fill: none; stroke: #b0b0b0; stroke-width: 0.8; stroke-linecap: square"/>
     </g>
     <g id="line2d_14">
      <defs>
       <path id="m1ab18971bf" d="M 0 0 
L -3.5 0 
" style="stroke: #000000; stroke-width: 0.8"/>
      </defs>
      <g>
       <use xlink:href="#m1ab18971bf" x="57.6" y="278.862694" style="stroke: #000000; stroke-width: 0.8"/>
      </g>
     </g>
     <g id="text_8">
      <!-- $\mathdefault{10^{-10}}$ -->
      <g transform="translate(22.7 282.661913) scale(0.1 -0.1)">
       <use xlink:href="#DejaVuSans-31" transform="translate(0 0.765625)"/>
       <use xlink:href="#DejaVuSans-30" transform="translate(63.623047 0.765625)"/>
       <use xlink:href="#DejaVuSans-2212" transform="translate(128.203125 39.046875) scale(0.7)"/>
       <use xlink:href="#DejaVuSans-31" transform="translate(186.855469 39.046875) scale(0.7)"/>
       <use xlink:href="#DejaVuSans-30" transform="translate(231.391602 39.046875) scale(0.7)"/>
      </g>
     </g>
    </g>
    <g id="ytick_2">
     <g id="line2d_15">
      <path d="M 57.6 245.392682 
L 414.72 245.392682 
" clip-path="url(#p692e113f64)" style="fill: none; stroke: #b0b0b0; stroke-width: 0.8; stroke-linecap: square"/>
     </g>
     <g id="line2d_16">
      <g>
       <use xlink:href="#m1ab18971bf" x="57.6" y="245.392682" style="stroke: #000000; stroke-width: 0.8"/>
      </g>
     </g>
     <g id="text_9">
      <!-- $\mathdefault{10^{-8}}$ -->
      <g transform="translate(27.1 249.191901) scale(0.1 -0.1)">
       <defs>
        <path id="DejaVuSans-38" d="M 2034 2216 
Q 1584 2216 1326 1975 
Q 1069 1734 1069 1313 
Q 1069 891 1326 650 
Q 1584 409 2034 409 
Q 2484 409 2743 651 
Q 3003 894 3003 1313 
Q 3003 1734 2745 1975 
Q 2488 2216 2034 2216 
z
M 1403 2484 
Q 997 2584 770 2862 
Q 544 3141 544 3541 
Q 544 4100 942 4425 
Q 1341 4750 2034 4750 
Q 2731 4750 3128 4425 
Q 3525 4100 3525 3541 
Q 3525 3141 3298 2862 
Q 3072 2584 2669 2484 
Q 3125 2378 3379 2068 
Q 3634 1759 3634 1313 
Q 3634 634 3220 271 
Q 2806 -91 2034 -91 
Q 1263 -91 848 271 
Q 434 634 434 1313 
Q 434 1759 690 2068 
Q 947 2378 1403 2484 
z
M 1172 3481 
Q 1172 3119 1398 2916 
Q 1625 2713 2034 2713 
Q 2441 2713 2670 2916 
Q 2900 3119 2900 3481 
Q 2900 3844 2670 4047 
Q 2441 4250 2034 4250 
Q 1625 4250 1398 4047 
Q 1172 3844 1172 3481 
z
" transform="scale(0.015625)"/>
       </defs>
       <use xlink:href="#DejaVuSans-31" transform="translate(0 0.765625)"/>
       <use xlink:href="#DejaVuSans-30" transform="translate(63.623047 0.765625)"/>
       <use xlink:href="#DejaVuSans-2212" transform="translate(128.203125 39.046875) scale(0.7)"/>
       <use xlink:href="#DejaVuSans-38" transform="translate(186.855469 39.046875) scale(0.7)"/>
      </g>
     </g>
    </g>
    <g id="ytick_3">
     <g id="line2d_17">
      <path d="M 57.6 211.922671 
L 414.72 211.922671 
" clip-path="url(#p692e113f64)" style="fill: none; stroke: #b0b0b0; stroke-width: 0.8; stroke-linecap: square"/>
     </g>
     <g id="line2d_18">
      <g>
       <use xlink:href="#m1ab18971bf" x="57.6" y="211.922671" style="stroke: #000000; stroke-width: 0.8"/>
      </g>
     </g>
     <g id="text_10">
      <!-- $\mathdefault{10^{-6}}$ -->
      <g transform="translate(27.1 215.72189) scale(0.1 -0.1)">
       <defs>
        <path id="DejaVuSans-36" d="M 2113 2584 
Q 1688 2584 1439 2293 
Q 1191 2003 1191 1497 
Q 1191 994 1439 701 
Q 1688 409 2113 409 
Q 2538 409 2786 701 
Q 3034 994 3034 1497 
Q 3034 2003 2786 2293 
Q 2538 2584 2113 2584 
z
M 3366 4563 
L 3366 3988 
Q 3128 4100 2886 4159 
Q 2644 4219 2406 4219 
Q 1781 4219 1451 3797 
Q 1122 3375 1075 2522 
Q 1259 2794 1537 2939 
Q 1816 3084 2150 3084 
Q 2853 3084 3261 2657 
Q 3669 2231 3669 1497 
Q 3669 778 3244 343 
Q 2819 -91 2113 -91 
Q 1303 -91 875 529 
Q 447 1150 447 2328 
Q 447 3434 972 4092 
Q 1497 4750 2381 4750 
Q 2619 4750 2861 4703 
Q 3103 4656 3366 4563 
z
" transform="scale(0.015625)"/>
       </defs>
       <use xlink:href="#DejaVuSans-31" transform="translate(0 0.765625)"/>
       <use xlink:href="#DejaVuSans-30" transform="translate(63.623047 0.765625)"/>
       <use xlink:href="#DejaVuSans-2212" transform="translate(128.203125 39.046875) scale(0.7)"/>
       <use xlink:href="#DejaVuSans-36" transform="translate(186.855469 39.046875) scale(0.7)"/>
      </g>
     </g>
    </g>
    <g id="ytick_4">
     <g id="line2d_19">
      <path d="M 57.6 178.452659 
L 414.72 178.452659 
" clip-path="url(#p692e113f64)" style="fill: none; stroke: #b0b0b0; stroke-width: 0.8; stroke-linecap: square"/>
     </g>
     <g id="line2d_20">
      <g>
       <use xlink:href="#m1ab18971bf" x="57.6" y="178.452659" style="stroke: #000000; stroke-width: 0.8"/>
      </g>
     </g>
     <g id="text_11">
      <!-- $\mathdefault{10^{-4}}$ -->
      <g transform="translate(27.1 182.251878) scale(0.1 -0.1)">
       <defs>
        <path id="DejaVuSans-34" d="M 2419 4116 
L 825 1625 
L 2419 1625 
L 2419 4116 
z
M 2253 4666 
L 3047 4666 
L 3047 1625 
L 3713 1625 
L 3713 1100 
L 3047 1100 
L 3047 0 
L 2419 0 
L 2419 1100 
L 313 1100 
L 313 1709 
L 2253 4666 
z
" transform="scale(0.015625)"/>
       </defs>
       <use xlink:href="#DejaVuSans-31" transform="translate(0 0.684375)"/>
       <use xlink:href="#DejaVuSans-30" transform="translate(63.623047 0.684375)"/>
       <use xlink:href="#DejaVuSans-2212" transform="translate(128.203125 38.965625) scale(0.7)"/>
       <use xlink:href="#DejaVuSans-34" transform="translate(186.855469 38.965625) scale(0.7)"/>
      </g>
     </g>
    </g>
    <g id="ytick_5">
     <g id="line2d_21">
      <path d="M 57.6 144.982647 
L 414.72 144.982647 
" clip-path="url(#p692e113f64)" style="fill: none; stroke: #b0b0b0; stroke-width: 0.8; stroke-linecap: square"/>
     </g>
     <g id="line2d_22">
      <g>
       <use xlink:href="#m1ab18971bf" x="57.6" y="144.982647" style="stroke: #000000; stroke-width: 0.8"/>
      </g>
     </g>
     <g id="text_12">
      <!-- $\mathdefault{10^{-2}}$ -->
      <g transform="translate(27.1 148.781866) scale(0.1 -0.1)">
       <defs>
        <path id="DejaVuSans-32" d="M 1228 531 
L 3431 531 
L 3431 0 
L 469 0 
L 469 531 
Q 828 903 1448 1529 
Q 2069 2156 2228 2338 
Q 2531 2678 2651 2914 
Q 2772 3150 2772 3378 
Q 2772 3750 2511 3984 
Q 2250 4219 1831 4219 
Q 1534 4219 1204 4116 
Q 875 4013 500 3803 
L 500 4441 
Q 881 4594 1212 4672 
Q 1544 4750 1819 4750 
Q 2544 4750 2975 4387 
Q 3406 4025 3406 3419 
Q 3406 3131 3298 2873 
Q 3191 2616 2906 2266 
Q 2828 2175 2409 1742 
Q 1991 1309 1228 531 
z
" transform="scale(0.015625)"/>
       </defs>
       <use xlink:href="#DejaVuSans-31" transform="translate(0 0.765625)"/>
       <use xlink:href="#DejaVuSans-30" transform="translate(63.623047 0.765625)"/>
       <use xlink:href="#DejaVuSans-2212" transform="translate(128.203125 39.046875) scale(0.7)"/>
       <use xlink:href="#DejaVuSans-32" transform="translate(186.855469 39.046875) scale(0.7)"/>
      </g>
     </g>
    </g>
    <g id="ytick_6">
     <g id="line2d_23">
      <path d="M 57.6 111.512636 
L 414.72 111.512636 
" clip-path="url(#p692e113f64)" style="fill: none; stroke: #b0b0b0; stroke-width: 0.8; stroke-linecap: square"/>
     </g>
     <g id="line2d_24">
      <g>
       <use xlink:href="#m1ab18971bf" x="57.6" y="111.512636" style="stroke: #000000; stroke-width: 0.8"/>
      </g>
     </g>
     <g id="text_13">
      <!-- $\mathdefault{10^{0}}$ -->
      <g transform="translate(33 115.311855) scale(0.1 -0.1)">
       <use xlink:href="#DejaVuSans-31" transform="translate(0 0.765625)"/>
       <use xlink:href="#DejaVuSans-30" transform="translate(63.623047 0.765625)"/>
       <use xlink:href="#DejaVuSans-30" transform="translate(128.203125 39.046875) scale(0.7)"/>
      </g>
     </g>
    </g>
    <g id="ytick_7">
     <g id="line2d_25">
      <path d="M 57.6 78.042624 
L 414.72 78.042624 
" clip-path="url(#p692e113f64)" style="fill: none; stroke: #b0b0b0; stroke-width: 0.8; stroke-linecap: square"/>
     </g>
     <g id="line2d_26">
      <g>
       <use xlink:href="#m1ab18971bf" x="57.6" y="78.042624" style="stroke: #000000; stroke-width: 0.8"/>
      </g>
     </g>
     <g id="text_14">
      <!-- $\mathdefault{10^{2}}$ -->
      <g transform="translate(33 81.841843) scale(0.1 -0.1)">
       <use xlink:href="#DejaVuSans-31" transform="translate(0 0.765625)"/>
       <use xlink:href="#DejaVuSans-30" transform="translate(63.623047 0.765625)"/>
       <use xlink:href="#DejaVuSans-32" transform="translate(128.203125 39.046875) scale(0.7)"/>
      </g>
     </g>
    </g>
    <g id="ytick_8">
     <g id="line2d_27">
      <path d="M 57.6 44.572612 
L 414.72 44.572612 
" clip-path="url(#p692e113f64)" style="fill: none; stroke: #b0b0b0; stroke-width: 0.8; stroke-linecap: square"/>
     </g>
     <g id="line2d_28">
      <g>
       <use xlink:href="#m1ab18971bf" x="57.6" y="44.572612" style="stroke: #000000; stroke-width: 0.8"/>
      </g>
     </g>
     <g id="text_15">
      <!-- $\mathdefault{10^{4}}$ -->
      <g transform="translate(33 48.371831) scale(0.1 -0.1)">
       <use xlink:href="#DejaVuSans-31" transform="translate(0 0.684375)"/>
       <use xlink:href="#DejaVuSans-30" transform="translate(63.623047 0.684375)"/>
       <use xlink:href="#DejaVuSans-34" transform="translate(128.203125 38.965625) scale(0.7)"/>
      </g>
     </g>
    </g>
    <g id="text_16">
     <!-- ||$\delta$x||/||x|| -->
     <g transform="translate(16.3 198.678) rotate(-90) scale(0.1 -0.1)">
      <defs>
       <path id="DejaVuSans-78" d="M 3513 3500 
L 2247 1797 
L 3578 0 
L 2900 0 
L 1881 1375 
L 863 0 
L 184 0 
L 1544 1831 
L 300 3500 
L 978 3500 
L 1906 2253 
L 2834 3500 
L 3513 3500 
z
" transform="scale(0.015625)"/>
      </defs>
      <use xlink:href="#DejaVuSans-7c" transform="translate(0 0.578125)"/>
      <use xlink:href="#DejaVuSans-7c" transform="translate(33.691406 0.578125)"/>
      <use xlink:href="#DejaVuSans-Oblique-3b4" transform="translate(67.382812 0.578125)"/>
      <use xlink:href="#DejaVuSans-78" transform="translate(128.564453 0.578125)"/>
      <use xlink:href="#DejaVuSans-7c" transform="translate(187.744141 0.578125)"/>
      <use xlink:href="#DejaVuSans-7c" transform="translate(221.435547 0.578125)"/>
      <use xlink:href="#DejaVuSans-2f" transform="translate(255.126953 0.578125)"/>
      <use xlink:href="#DejaVuSans-7c" transform="translate(288.818359 0.578125)"/>
      <use xlink:href="#DejaVuSans-7c" transform="translate(322.509766 0.578125)"/>
      <use xlink:href="#DejaVuSans-78" transform="translate(356.201172 0.578125)"/>
      <use xlink:href="#DejaVuSans-7c" transform="translate(415.380859 0.578125)"/>
      <use xlink:href="#DejaVuSans-7c" transform="translate(449.072266 0.578125)"/>
     </g>
    </g>
   </g>
   <g id="line2d_29">
    <path d="M 73.832727 287.905552 
L 74.260321 287.340721 
L 74.473248 284.286938 
L 74.837038 288.194161 
L 75.545072 282.20551 
L 75.837176 295.119573 
L 76.145218 291.16974 
L 76.411002 295.384292 
L 76.838497 282.247953 
L 77.509098 287.544052 
L 77.78432 295.488 
L 78.02874 286.779011 
L 78.301173 291.268147 
L 78.783299 285.948462 
L 79.093258 285.463746 
L 79.283093 280.542648 
L 80.118998 292.17882 
L 80.286556 285.973641 
L 80.629292 291.385946 
L 81.015777 285.267708 
L 81.293814 290.528314 
L 81.57623 290.349556 
L 82.042089 281.609802 
L 82.569943 290.771993 
L 82.793047 286.381117 
L 83.325961 293.509102 
L 83.630688 282.865662 
L 83.995788 283.445966 
L 84.215213 289.348828 
L 84.57369 293.883479 
L 84.804679 278.928447 
L 85.230609 293.261414 
L 85.533645 288.909915 
L 85.874449 280.970614 
L 86.092681 289.674739 
L 86.513151 289.480503 
L 86.86969 288.490918 
L 87.150113 293.194732 
L 87.668393 280.17115 
L 87.88357 290.224296 
L 88.252102 277.559613 
L 88.520119 278.903981 
L 88.876912 286.418965 
L 89.114718 283.633297 
L 89.508848 275.537204 
L 89.81157 284.473488 
L 90.155849 276.643008 
L 90.508492 280.097109 
L 90.827695 277.461746 
L 91.126037 283.453648 
L 91.348859 277.789996 
L 91.72168 282.383537 
L 92.023067 273.978676 
L 92.376996 284.458192 
L 92.678797 283.846077 
L 93.089821 277.577262 
L 93.398155 287.206468 
L 93.695515 273.379468 
L 94.014141 277.771004 
L 94.364974 286.490314 
L 94.731509 276.512388 
L 94.970122 282.220964 
L 95.28841 282.955454 
L 96.099404 270.394201 
L 96.355913 272.43738 
L 96.567607 284.491165 
L 96.882144 282.358063 
L 97.254519 282.185851 
L 97.559076 280.978102 
L 97.953157 274.982215 
L 98.242126 277.213038 
L 98.580716 285.989641 
L 99.302674 278.77891 
L 99.498696 283.07229 
L 99.899587 266.617643 
L 100.163601 278.527045 
L 100.424902 271.959144 
L 100.875329 275.351845 
L 101.053787 282.262391 
L 101.480594 273.943967 
L 101.697944 275.780337 
L 102.080704 277.241488 
L 102.507216 272.099025 
L 103.086401 280.441301 
L 103.428701 281.208151 
L 103.66379 268.756114 
L 104.122931 276.696659 
L 104.464181 276.806648 
L 104.761083 273.176602 
L 105.062999 271.487223 
L 105.384782 271.968279 
L 105.743739 263.49284 
L 105.905428 274.626818 
L 106.361855 269.176767 
L 106.669388 269.433053 
L 106.959716 276.675831 
L 107.281797 269.372244 
L 107.617777 274.069368 
L 108.081055 276.987972 
L 108.422474 280.026238 
L 108.57444 270.020779 
L 108.980707 275.054162 
L 109.314452 276.670447 
L 109.594629 273.811828 
L 109.844076 266.719688 
L 110.24949 265.713913 
L 110.458347 272.862245 
L 111.005894 268.33932 
L 111.253063 268.603481 
L 111.523946 265.44061 
L 111.811424 265.438028 
L 112.197711 269.213244 
L 112.503925 267.483776 
L 112.791682 275.748606 
L 113.039727 264.411512 
L 113.50922 266.992153 
L 113.866662 271.407893 
L 114.45853 265.831619 
L 114.838154 268.956316 
L 115.06881 276.750444 
L 115.443386 267.743226 
L 115.728644 273.313164 
L 116.046418 268.131098 
L 116.576668 269.028566 
L 116.824198 260.199745 
L 116.999531 265.924259 
L 117.449418 264.469292 
L 117.603634 260.727334 
L 118.010606 267.763738 
L 118.3777 266.511665 
L 118.682777 268.627516 
L 119.113007 267.556607 
L 119.388254 260.348644 
L 119.724913 259.829942 
L 120.217617 272.107889 
L 120.608495 263.648162 
L 121.002467 258.618529 
L 121.583 271.568934 
L 121.926527 267.007548 
L 122.268732 259.46914 
L 122.62022 255.867367 
L 122.891325 271.698337 
L 123.209063 262.251858 
L 123.591882 263.494075 
L 123.938866 267.462281 
L 124.183483 261.720368 
L 124.566564 258.986897 
L 124.888209 272.851807 
L 125.248229 261.142818 
L 125.457135 267.01893 
L 125.875122 258.22788 
L 126.185564 267.44499 
L 126.383999 258.656005 
L 126.830124 257.801174 
L 127.138982 260.668333 
L 127.581629 266.000501 
L 127.77518 265.595091 
L 128.116616 254.024226 
L 128.477063 256.070323 
L 128.732784 251.153081 
L 129.164781 259.532251 
L 129.514266 252.938542 
L 129.801158 264.129005 
L 130.003323 261.026197 
L 130.470515 263.234339 
L 130.628041 258.123027 
L 131.726092 250.724587 
L 132.192377 262.149891 
L 132.445666 263.217835 
L 133.028193 255.128675 
L 133.372114 260.647807 
L 133.671656 260.952528 
L 133.968949 259.70504 
L 134.329799 253.507167 
L 134.732727 255.97817 
L 134.824993 252.449151 
L 135.326318 254.225374 
L 135.660211 254.276403 
L 136.397627 250.88232 
L 136.450724 259.263047 
L 136.851671 248.661833 
L 137.14388 245.278942 
L 137.560477 259.525391 
L 137.845812 252.336053 
L 138.11071 253.687186 
L 138.505996 257.485424 
L 138.841593 256.857957 
L 139.217102 250.463263 
L 139.423458 258.998254 
L 139.836244 246.829292 
L 140.169347 254.384709 
L 140.466261 256.114093 
L 140.809765 251.361726 
L 141.012862 256.397379 
L 141.810668 245.93066 
L 142.094894 245.792306 
L 142.236027 248.772547 
L 142.777673 255.083028 
L 143.363972 242.619464 
L 143.742034 245.090973 
L 143.98027 254.2873 
L 144.644496 243.033157 
L 145.000551 253.279193 
L 145.398622 250.07431 
L 145.759115 248.457674 
L 146.002887 257.639645 
L 146.354274 256.025591 
L 146.684874 251.079368 
L 146.985008 254.994518 
L 147.326741 245.638239 
L 147.529873 252.275381 
L 148.025891 247.32097 
L 148.300408 254.118914 
L 148.900562 245.141583 
L 149.228832 253.991478 
L 149.468954 256.538659 
L 150.323937 243.439953 
L 150.585069 251.086251 
L 150.774089 242.70838 
L 151.171958 246.525693 
L 151.560831 242.27716 
L 151.774999 246.748618 
L 152.241466 245.123694 
L 152.4463 240.830143 
L 152.822023 247.102 
L 153.164188 250.386959 
L 153.535596 243.315107 
L 153.754991 251.432861 
L 154.182091 242.532983 
L 154.359583 235.967317 
L 154.876137 250.638084 
L 155.075596 243.691496 
L 155.304473 242.51046 
L 155.754051 237.202774 
L 156.186945 247.105908 
L 156.370436 238.237132 
L 157.036442 245.963557 
L 157.297343 242.911694 
L 157.802916 246.934529 
L 158.035214 243.032512 
L 158.468331 241.30347 
L 158.785637 242.189826 
L 159.080261 246.559819 
L 159.295117 247.044876 
L 159.723211 238.859504 
L 159.978886 236.623812 
L 160.236082 240.233707 
L 160.626107 247.67005 
L 161.02741 235.528146 
L 161.353715 234.907837 
L 161.709247 245.347866 
L 161.903741 244.813454 
L 162.261036 237.945869 
L 162.49057 244.119894 
L 162.812253 241.944708 
L 163.100489 242.73237 
L 163.952974 233.914167 
L 164.165108 241.422341 
L 164.469551 233.635874 
L 164.661986 236.472087 
L 165.103514 236.69596 
L 165.373403 245.193621 
L 166.144859 228.677728 
L 166.442647 241.328035 
L 166.86517 232.597562 
L 167.102852 234.470926 
L 167.403693 238.619267 
L 167.803804 235.781401 
L 168.014668 236.389987 
L 168.414985 241.175733 
L 168.602494 231.723993 
L 169.097485 241.322187 
L 169.281539 234.506761 
L 169.716512 237.474287 
L 169.997237 233.65811 
L 170.728484 240.655961 
L 171.078217 229.792985 
L 171.320407 236.93928 
L 171.732184 233.915145 
L 171.930431 235.157879 
L 172.289651 232.875106 
L 172.742822 239.035184 
L 173.011534 231.624645 
L 173.309385 228.189133 
L 173.649103 230.146317 
L 173.964766 228.005715 
L 174.219528 240.102297 
L 174.81002 229.243572 
L 175.191272 238.533964 
L 175.49333 227.499977 
L 175.881774 226.359129 
L 176.19303 228.747872 
L 176.505507 239.694083 
L 176.890609 222.732021 
L 177.151715 235.957161 
L 177.458169 236.632755 
L 177.88735 228.106181 
L 178.138154 231.623086 
L 178.479058 224.299416 
L 178.836875 225.28478 
L 179.125112 224.121676 
L 179.490235 225.050744 
L 179.716374 224.645272 
L 180.050731 230.077616 
L 180.41503 226.919148 
L 180.609774 227.265125 
L 181.044499 227.259688 
L 181.455278 223.909231 
L 181.611285 230.529394 
L 181.987464 232.077373 
L 182.315946 233.917952 
L 182.768623 216.312749 
L 183.086806 227.01497 
L 183.689067 222.330066 
L 184.097161 223.224263 
L 184.367573 222.692355 
L 184.684634 226.863633 
L 185.043072 217.418728 
L 185.32994 223.783953 
L 185.798656 217.686578 
L 185.996352 231.657592 
L 186.587334 224.787688 
L 187.295646 219.470498 
L 187.487801 229.631413 
L 187.985903 228.881866 
L 188.165847 221.272493 
L 188.64519 218.103831 
L 188.876754 230.317961 
L 189.218293 222.138247 
L 189.780257 215.705013 
L 190.082059 230.123533 
L 190.434133 227.480534 
L 190.823798 219.95569 
L 191.202396 221.38763 
L 191.521829 221.976048 
L 191.807993 221.731531 
L 192.133839 228.909022 
L 192.724543 210.977734 
L 193.055247 220.556052 
L 193.385437 213.48811 
L 193.670923 219.041622 
L 194.176244 222.272937 
L 194.371906 216.313802 
L 194.815141 223.253446 
L 195.079964 220.20975 
L 195.266365 224.193292 
L 195.694732 218.230779 
L 196.042707 215.832818 
L 196.287473 209.545249 
L 196.724897 217.16878 
L 196.91902 211.90669 
L 197.280467 214.430281 
L 197.624795 211.690715 
L 198.123523 221.636719 
L 198.407933 214.956483 
L 198.534485 215.712324 
L 198.929186 216.973186 
L 199.33259 221.565746 
L 199.60193 210.177729 
L 199.889749 213.835838 
L 200.360327 212.877764 
L 200.588993 212.839406 
L 200.812574 215.23174 
L 201.266462 217.635857 
L 201.576949 209.566044 
L 201.849581 214.580699 
L 202.18829 206.863716 
L 203.233679 216.799523 
L 203.434015 213.621855 
L 203.774013 212.380726 
L 204.197787 205.754855 
L 204.538931 208.326975 
L 204.780151 206.803417 
L 205.176629 214.092219 
L 205.373971 205.115715 
L 205.809169 206.908688 
L 206.108507 204.874165 
L 206.388591 208.154466 
L 206.748143 217.555831 
L 207.080795 216.763897 
L 207.447291 216.720549 
L 207.737814 207.434941 
L 208.331577 219.248605 
L 208.721651 206.901903 
L 209.127412 207.901271 
L 209.526151 203.434696 
L 209.648659 212.66965 
L 210.010115 216.062547 
L 210.362176 211.867608 
L 210.65871 215.286474 
L 210.91642 207.88329 
L 211.419188 205.55835 
L 211.513944 211.040153 
L 212.035068 208.099237 
L 212.263244 204.473032 
L 212.656537 210.656711 
L 212.872886 209.53194 
L 213.171123 197.776343 
L 213.672189 204.1185 
L 213.812627 211.283108 
L 214.149139 209.086183 
L 214.601476 207.770722 
L 215.253834 212.452724 
L 215.934556 199.614846 
L 216.086852 212.970206 
L 216.512297 207.265969 
L 216.793881 210.324113 
L 216.991734 201.774117 
L 217.441933 202.618056 
L 217.656974 200.94046 
L 218.120221 202.356971 
L 218.428107 198.367884 
L 218.717363 203.836046 
L 219.078969 208.32836 
L 219.722189 201.545536 
L 219.917774 205.519193 
L 220.602803 213.736296 
L 220.999061 200.208035 
L 221.338396 197.040777 
L 221.544438 204.82426 
L 221.981147 202.813628 
L 222.191918 195.240419 
L 222.724005 205.805202 
L 223.287637 203.707267 
L 223.686806 208.297371 
L 223.935378 198.378911 
L 224.36768 198.667768 
L 224.534659 205.594538 
L 224.917398 203.457935 
L 225.229325 199.91185 
L 225.560521 198.771189 
L 225.904933 200.796831 
L 226.217799 200.573799 
L 226.878167 192.841334 
L 227.188066 202.183396 
L 227.673178 196.488444 
L 227.818727 192.673598 
L 228.192492 202.056371 
L 228.489707 198.820219 
L 228.717562 204.315622 
L 229.434658 193.821131 
L 229.867964 197.754382 
L 230.139262 195.771801 
L 230.481371 198.545133 
L 230.737239 202.22564 
L 231.242221 198.322065 
L 231.402098 192.029116 
L 231.841989 197.077376 
L 232.067196 196.525044 
L 232.344792 192.843903 
L 232.711212 201.635787 
L 233.057196 196.894187 
L 233.355519 197.453241 
L 233.746632 199.325971 
L 233.963597 192.057557 
L 234.290034 191.043152 
L 234.730668 195.333505 
L 235.027339 188.625085 
L 235.448049 186.192037 
L 235.910182 198.70009 
L 236.251904 194.437491 
L 236.637301 199.385155 
L 237.008684 198.274579 
L 237.298806 201.991154 
L 237.815392 190.323498 
L 238.274763 189.664139 
L 238.587225 190.300048 
L 239.057972 187.109567 
L 239.265967 198.068564 
L 239.901375 195.138849 
L 240.105597 185.308936 
L 240.51498 191.447285 
L 240.86038 185.405235 
L 241.293761 189.814436 
L 241.61733 189.407411 
L 241.763751 188.499413 
L 242.196705 189.589153 
L 242.520355 192.231782 
L 242.748166 190.761968 
L 243.127099 186.653743 
L 243.387649 185.3979 
L 243.741024 191.993152 
L 244.16878 189.790908 
L 244.369964 191.680532 
L 244.772655 183.751301 
L 245.012903 192.255308 
L 245.36041 181.743399 
L 245.714294 193.06656 
L 245.991341 182.107406 
L 246.36993 189.415965 
L 246.759799 183.898035 
L 246.980086 187.531679 
L 247.362508 191.088478 
L 247.583061 181.717905 
L 248.302301 190.896976 
L 248.599855 196.330758 
L 249.324317 185.633008 
L 249.664208 187.564828 
L 249.92536 178.44023 
L 250.264091 183.956129 
L 250.605391 187.221305 
L 250.937517 179.797373 
L 251.312263 190.356357 
L 251.5933 188.147463 
L 251.928634 189.458764 
L 252.25373 183.925186 
L 252.53189 172.399243 
L 252.953857 189.375734 
L 253.211412 182.999645 
L 253.58143 177.288299 
L 253.922311 184.889265 
L 254.169509 176.010044 
L 254.458619 182.653055 
L 254.76272 182.796416 
L 255.100976 175.865646 
L 255.330474 184.726581 
L 255.813069 184.833772 
L 256.087022 176.463323 
L 256.473691 180.217188 
L 256.812269 177.006615 
L 257.136056 175.805734 
L 257.481345 173.932942 
L 257.77046 173.494331 
L 258.081908 178.36648 
L 258.374442 179.297979 
L 258.785823 176.816338 
L 259.011926 180.444029 
L 259.359486 174.928056 
L 259.678678 174.178444 
L 260.022291 181.207796 
L 260.36608 171.714149 
L 260.648174 170.014167 
L 261.066354 184.955598 
L 261.418389 179.584535 
L 261.780338 179.837184 
L 261.820748 169.504369 
L 262.321457 174.391165 
L 262.720517 174.22328 
L 262.984808 183.486267 
L 263.288115 177.053062 
L 263.715653 173.327348 
L 263.902096 169.36582 
L 264.169156 173.951306 
L 264.432011 182.223094 
L 264.957919 185.07737 
L 265.26953 178.16554 
L 265.570354 180.097466 
L 265.862382 176.021575 
L 266.208126 177.028674 
L 266.468817 178.919764 
L 266.854419 170.38543 
L 267.122644 167.581667 
L 267.484302 174.543382 
L 268.099689 166.421399 
L 268.400159 172.995155 
L 268.681878 176.136365 
L 269.192687 171.582122 
L 269.4811 177.809269 
L 269.786927 172.07691 
L 270.296812 176.988117 
L 270.481804 172.632997 
L 270.786567 172.150426 
L 271.077594 176.099305 
L 271.322647 165.405906 
L 271.643025 171.22049 
L 272.140998 163.144823 
L 272.371277 167.955438 
L 272.670101 164.361052 
L 273.315012 175.430984 
L 273.67934 164.61608 
L 274.006224 172.742201 
L 274.469807 171.503086 
L 274.608789 167.160475 
L 274.892917 164.936234 
L 275.315673 169.42878 
L 275.705656 170.244115 
L 275.97251 174.586758 
L 276.270867 170.446181 
L 276.604586 172.627653 
L 276.868582 172.273237 
L 277.239767 170.230108 
L 277.523554 167.870802 
L 277.939217 168.734476 
L 278.218019 177.244588 
L 278.587368 162.443504 
L 278.931466 165.526379 
L 279.305338 161.972569 
L 279.826612 172.465886 
L 280.160977 165.705015 
L 280.601151 160.530125 
L 280.942353 163.582552 
L 281.146123 161.764237 
L 281.587415 165.806926 
L 281.791692 159.677372 
L 282.089401 158.092323 
L 282.349778 162.2375 
L 282.699329 162.44082 
L 283.084025 167.982519 
L 283.38332 165.453256 
L 283.779964 160.612637 
L 284.170631 161.270734 
L 284.359284 156.624642 
L 284.779724 168.807413 
L 285.113387 158.226542 
L 285.349667 166.698575 
L 285.753406 157.670517 
L 285.95044 169.404437 
L 286.424735 168.09158 
L 286.77336 154.150783 
L 287.067319 155.536567 
L 287.396887 159.191935 
L 287.633736 165.222987 
L 287.96748 164.600929 
L 288.310743 158.21449 
L 288.578404 157.911194 
L 289.025789 155.018324 
L 289.22106 152.589421 
L 289.60394 166.398307 
L 289.862379 154.270787 
L 290.172629 157.411174 
L 290.690935 151.70492 
L 291.021393 154.49267 
L 291.30587 163.116209 
L 291.485656 158.786496 
L 292.020853 154.15472 
L 292.161257 157.503366 
L 292.595138 155.827063 
L 292.86665 163.762677 
L 293.591874 152.339602 
L 293.73769 156.739706 
L 294.41151 161.324598 
L 294.770033 159.418356 
L 295.095866 154.75237 
L 295.435051 147.980469 
L 295.779449 159.179145 
L 296.154736 154.79842 
L 296.417795 154.564239 
L 296.66351 161.600188 
L 297.173525 155.148121 
L 297.384696 156.042782 
L 297.81084 148.142541 
L 298.119082 148.763319 
L 298.326063 153.711507 
L 299.02716 150.727325 
L 299.255352 161.328144 
L 299.524645 151.376952 
L 299.961523 159.780754 
L 300.328618 159.547637 
L 300.673071 146.985303 
L 301.018295 151.893841 
L 301.100429 156.928248 
L 301.652135 151.039274 
L 301.867774 155.119502 
L 302.222019 151.731212 
L 302.522454 155.387665 
L 302.860278 148.331854 
L 303.105113 157.005562 
L 303.635326 149.328649 
L 303.872878 147.671885 
L 304.269677 149.397941 
L 304.527944 147.042187 
L 304.847187 143.044949 
L 305.502596 152.374586 
L 305.753947 148.719511 
L 306.278302 146.017427 
L 306.464346 150.557496 
L 306.787925 154.871236 
L 307.149586 148.820232 
L 307.58872 154.8386 
L 308.089503 147.954581 
L 308.41184 153.711469 
L 308.727148 147.903369 
L 308.995462 151.342232 
L 309.386425 139.855335 
L 309.759571 148.048581 
L 310.102833 150.02667 
L 310.373823 138.616089 
L 310.69322 146.677987 
L 311.068858 141.725623 
L 311.401271 147.388103 
L 311.628192 144.049378 
L 311.988623 149.744702 
L 312.310786 151.315671 
L 312.580994 142.314975 
L 313.009218 140.91045 
L 313.289344 151.480167 
L 313.721725 143.569722 
L 313.975796 144.521343 
L 314.296966 144.785277 
L 314.608617 147.404453 
L 314.841392 138.938564 
L 315.586389 147.375773 
L 315.880174 138.778073 
L 316.229769 140.016425 
L 316.631644 140.360399 
L 316.950621 146.995074 
L 317.320287 146.757396 
L 317.561587 138.99893 
L 317.971678 138.810381 
L 318.20339 146.422955 
L 318.530999 142.527623 
L 318.88995 144.668808 
L 319.173003 139.101832 
L 319.516696 140.08635 
L 320.083137 143.547461 
L 320.501165 140.814728 
L 320.885897 142.413311 
L 321.073739 147.380586 
L 321.449353 141.14223 
L 321.633134 136.159712 
L 322.1071 142.635392 
L 322.432414 134.969137 
L 322.744578 144.819632 
L 323.103718 134.095386 
L 323.372992 133.199039 
L 323.697735 130.339427 
L 323.938512 146.226033 
L 324.326949 136.257571 
L 324.718024 139.987316 
L 325.11528 139.57487 
L 325.322612 138.798416 
L 325.72784 133.01896 
L 326.053302 136.373422 
L 326.321767 142.057994 
L 326.770365 131.679489 
L 327.251416 130.26925 
L 327.623601 131.607699 
L 328.003674 129.704312 
L 328.315824 134.280184 
L 328.517558 133.626901 
L 328.851385 131.987174 
L 329.06997 128.928425 
L 329.840414 133.518315 
L 330.110499 128.806477 
L 330.49182 130.678255 
L 330.984692 136.28581 
L 331.112022 136.181579 
L 331.546669 139.885639 
L 331.907685 138.101781 
L 332.089341 127.70125 
L 332.371838 132.517521 
L 332.828568 137.191474 
L 333.153436 128.882566 
L 333.516351 127.94844 
L 333.858248 139.386491 
L 334.084477 136.651008 
L 334.334957 137.781349 
L 334.753863 127.531999 
L 335.181475 131.023603 
L 335.448362 129.276245 
L 335.699076 139.285146 
L 336.093833 140.714988 
L 336.405007 124.511745 
L 336.736133 130.467145 
L 337.002221 131.465188 
L 337.347338 133.319639 
L 337.612154 123.801473 
L 338.126838 130.242443 
L 338.407162 136.790761 
L 338.608441 137.196532 
L 338.957683 122.344702 
L 339.288024 129.966883 
L 339.72389 134.725598 
L 340.021677 121.879379 
L 340.296678 132.38589 
L 340.558375 127.179877 
L 340.83661 129.824665 
L 341.098307 127.206395 
L 341.582198 120.807603 
L 341.859681 126.209763 
L 342.287631 122.307546 
L 342.567862 124.230341 
L 342.884748 125.499193 
L 343.145362 119.938122 
L 343.881354 133.192513 
L 344.155446 116.384629 
L 344.49953 125.982423 
L 345.13275 120.516101 
L 345.810763 128.900022 
L 346.055143 127.63003 
L 346.569522 123.736695 
L 346.80607 120.555724 
L 347.163303 129.092605 
L 347.33763 126.122658 
L 347.773814 121.488951 
L 348.111386 124.921376 
L 348.460768 122.068504 
L 348.630865 119.514871 
L 349.04948 124.011745 
L 349.402118 125.622734 
L 349.717323 125.74761 
L 350.024024 121.939191 
L 350.24052 129.847092 
L 350.641642 120.126869 
L 350.864956 129.832864 
L 351.33977 106.465048 
L 351.511867 120.343093 
L 352.024082 118.122151 
L 352.218454 122.39678 
L 352.608993 113.171271 
L 352.936434 122.170711 
L 353.305938 118.764089 
L 353.619485 127.054848 
L 353.910274 121.260895 
L 354.1014 122.378869 
L 354.541341 124.117944 
L 354.890381 120.312302 
L 355.21335 124.346801 
L 355.594732 119.943236 
L 355.763659 126.717122 
L 356.140974 124.467607 
L 356.62377 110.453773 
L 356.847153 117.825196 
L 357.070152 98.15689 
L 357.458806 123.553374 
L 357.797018 101.252956 
L 358.162085 115.308156 
L 358.538438 105.358226 
L 358.782056 125.993534 
L 359.186308 117.337339 
L 359.430482 105.219598 
L 359.679747 107.842349 
L 360.033917 124.795993 
L 360.267917 121.947254 
L 360.68161 102.829882 
L 361.04191 100.30726 
L 361.470631 119.564145 
L 361.65875 114.513743 
L 362.130924 106.328176 
L 362.341062 109.781732 
L 362.709598 113.27561 
L 363.064439 109.240458 
L 363.360776 101.819451 
L 363.686904 121.47806 
L 364.206179 116.467196 
L 364.700107 105.300691 
L 365.027409 117.424203 
L 365.158248 114.570177 
L 365.620933 115.98875 
L 366.142264 116.401788 
L 366.357807 112.813817 
L 366.530102 101.662932 
L 366.916977 114.776194 
L 367.15957 117.193456 
L 367.557622 88.831743 
L 367.830608 120.998378 
L 368.218963 112.74034 
L 368.880145 116.727267 
L 369.285941 105.082574 
L 369.649791 104.824482 
L 369.830149 117.149539 
L 370.211196 105.867665 
L 370.383442 115.466248 
L 370.771545 116.375012 
L 371.542874 114.358861 
L 371.789872 89.184207 
L 372.169129 110.687934 
L 372.42001 108.058438 
L 372.853955 111.847104 
L 373.097057 98.698158 
L 373.454539 92.935434 
L 373.703629 106.947015 
L 374.036693 113.73535 
L 374.401141 112.048991 
L 374.730076 116.096367 
L 375.01825 94.932369 
L 375.356568 114.48888 
L 375.64107 102.929443 
L 375.932412 108.900572 
L 376.403473 111.395742 
L 376.711023 101.294792 
L 377.034947 111.895059 
L 377.31978 117.059762 
L 378.310404 109.376014 
L 378.634851 104.274554 
L 378.832264 110.735865 
L 379.235126 108.363661 
L 379.468274 96.947087 
L 379.968683 109.461341 
L 380.172095 109.811024 
L 380.629943 111.284022 
L 380.855402 110.048892 
L 381.396884 110.690171 
L 381.491503 99.384394 
L 381.923228 109.887588 
L 382.213443 102.928698 
L 382.501153 110.328183 
L 382.787585 108.114727 
L 383.133369 111.726249 
L 383.492285 107.635094 
L 383.715549 101.891451 
L 384.135969 110.308436 
L 384.433902 109.433677 
L 384.803689 92.587688 
L 385.046076 110.369807 
L 385.436026 110.162101 
L 385.902712 112.258738 
L 386.408984 100.28168 
L 386.805738 110.588254 
L 387.000556 108.03373 
L 387.421514 112.467525 
L 387.682373 107.905253 
L 387.999484 112.280052 
L 388.433967 106.449454 
L 388.628473 110.515409 
L 388.9928 111.554652 
L 389.20364 72.990431 
L 389.71635 109.8975 
L 390.095034 107.057007 
L 390.355613 109.179053 
L 390.967814 105.348579 
L 391.401617 111.211855 
L 392.101184 108.489304 
L 392.211607 111.019036 
L 392.548214 110.798073 
L 392.877441 110.299123 
L 393.332652 104.918577 
L 393.585451 109.636185 
L 393.892816 110.749971 
L 394.28899 104.950641 
L 394.526463 106.453148 
L 394.898935 98.098383 
L 395.1901 106.303523 
L 395.508695 107.330036 
L 395.856831 96.097254 
L 396.176986 110.677666 
L 396.49031 111.049929 
L 396.839843 111.171017 
L 397.18214 89.841873 
L 397.479532 108.385052 
L 397.787078 111.233842 
L 397.995967 110.649157 
L 398.487273 111.522852 
L 398.487273 111.522852 
" clip-path="url(#p692e113f64)" style="fill: none; stroke: #1f77b4; stroke-width: 1.5; stroke-linecap: square"/>
   </g>
   <g id="line2d_30">
    <path d="M 73.832727 254.436395 
L 398.487273 53.568 
L 398.487273 53.568 
" clip-path="url(#p692e113f64)" style="fill: none; stroke: #ff7f0e; stroke-width: 1.5; stroke-linecap: square"/>
   </g>
   <g id="patch_3">
    <path d="M 57.6 307.584 
L 57.6 41.472 
" style="fill: none; stroke: #000000; stroke-width: 0.8; stroke-linejoin: miter; stroke-linecap: square"/>
   </g>
   <g id="patch_4">
    <path d="M 414.72 307.584 
L 414.72 41.472 
" style="fill: none; stroke: #000000; stroke-width: 0.8; stroke-linejoin: miter; stroke-linecap: square"/>
   </g>
   <g id="patch_5">
    <path d="M 57.6 307.584 
L 414.72 307.584 
" style="fill: none; stroke: #000000; stroke-width: 0.8; stroke-linejoin: miter; stroke-linecap: square"/>
   </g>
   <g id="patch_6">
    <path d="M 57.6 41.472 
L 414.72 41.472 
" style="fill: none; stroke: #000000; stroke-width: 0.8; stroke-linejoin: miter; stroke-linecap: square"/>
   </g>
   <g id="text_17">
    <!-- Conditioning number experiment -->
    <g transform="translate(136.555313 35.472) scale(0.12 -0.12)">
     <defs>
      <path id="DejaVuSans-43" d="M 4122 4306 
L 4122 3641 
Q 3803 3938 3442 4084 
Q 3081 4231 2675 4231 
Q 1875 4231 1450 3742 
Q 1025 3253 1025 2328 
Q 1025 1406 1450 917 
Q 1875 428 2675 428 
Q 3081 428 3442 575 
Q 3803 722 4122 1019 
L 4122 359 
Q 3791 134 3420 21 
Q 3050 -91 2638 -91 
Q 1578 -91 968 557 
Q 359 1206 359 2328 
Q 359 3453 968 4101 
Q 1578 4750 2638 4750 
Q 3056 4750 3426 4639 
Q 3797 4528 4122 4306 
z
" transform="scale(0.015625)"/>
      <path id="DejaVuSans-6f" d="M 1959 3097 
Q 1497 3097 1228 2736 
Q 959 2375 959 1747 
Q 959 1119 1226 758 
Q 1494 397 1959 397 
Q 2419 397 2687 759 
Q 2956 1122 2956 1747 
Q 2956 2369 2687 2733 
Q 2419 3097 1959 3097 
z
M 1959 3584 
Q 2709 3584 3137 3096 
Q 3566 2609 3566 1747 
Q 3566 888 3137 398 
Q 2709 -91 1959 -91 
Q 1206 -91 779 398 
Q 353 888 353 1747 
Q 353 2609 779 3096 
Q 1206 3584 1959 3584 
z
" transform="scale(0.015625)"/>
      <path id="DejaVuSans-6e" d="M 3513 2113 
L 3513 0 
L 2938 0 
L 2938 2094 
Q 2938 2591 2744 2837 
Q 2550 3084 2163 3084 
Q 1697 3084 1428 2787 
Q 1159 2491 1159 1978 
L 1159 0 
L 581 0 
L 581 3500 
L 1159 3500 
L 1159 2956 
Q 1366 3272 1645 3428 
Q 1925 3584 2291 3584 
Q 2894 3584 3203 3211 
Q 3513 2838 3513 2113 
z
" transform="scale(0.015625)"/>
      <path id="DejaVuSans-64" d="M 2906 2969 
L 2906 4863 
L 3481 4863 
L 3481 0 
L 2906 0 
L 2906 525 
Q 2725 213 2448 61 
Q 2172 -91 1784 -91 
Q 1150 -91 751 415 
Q 353 922 353 1747 
Q 353 2572 751 3078 
Q 1150 3584 1784 3584 
Q 2172 3584 2448 3432 
Q 2725 3281 2906 2969 
z
M 947 1747 
Q 947 1113 1208 752 
Q 1469 391 1925 391 
Q 2381 391 2643 752 
Q 2906 1113 2906 1747 
Q 2906 2381 2643 2742 
Q 2381 3103 1925 3103 
Q 1469 3103 1208 2742 
Q 947 2381 947 1747 
z
" transform="scale(0.015625)"/>
      <path id="DejaVuSans-69" d="M 603 3500 
L 1178 3500 
L 1178 0 
L 603 0 
L 603 3500 
z
M 603 4863 
L 1178 4863 
L 1178 4134 
L 603 4134 
L 603 4863 
z
" transform="scale(0.015625)"/>
      <path id="DejaVuSans-74" d="M 1172 4494 
L 1172 3500 
L 2356 3500 
L 2356 3053 
L 1172 3053 
L 1172 1153 
Q 1172 725 1289 603 
Q 1406 481 1766 481 
L 2356 481 
L 2356 0 
L 1766 0 
Q 1100 0 847 248 
Q 594 497 594 1153 
L 594 3053 
L 172 3053 
L 172 3500 
L 594 3500 
L 594 4494 
L 1172 4494 
z
" transform="scale(0.015625)"/>
      <path id="DejaVuSans-67" d="M 2906 1791 
Q 2906 2416 2648 2759 
Q 2391 3103 1925 3103 
Q 1463 3103 1205 2759 
Q 947 2416 947 1791 
Q 947 1169 1205 825 
Q 1463 481 1925 481 
Q 2391 481 2648 825 
Q 2906 1169 2906 1791 
z
M 3481 434 
Q 3481 -459 3084 -895 
Q 2688 -1331 1869 -1331 
Q 1566 -1331 1297 -1286 
Q 1028 -1241 775 -1147 
L 775 -588 
Q 1028 -725 1275 -790 
Q 1522 -856 1778 -856 
Q 2344 -856 2625 -561 
Q 2906 -266 2906 331 
L 2906 616 
Q 2728 306 2450 153 
Q 2172 0 1784 0 
Q 1141 0 747 490 
Q 353 981 353 1791 
Q 353 2603 747 3093 
Q 1141 3584 1784 3584 
Q 2172 3584 2450 3431 
Q 2728 3278 2906 2969 
L 2906 3500 
L 3481 3500 
L 3481 434 
z
" transform="scale(0.015625)"/>
      <path id="DejaVuSans-20" transform="scale(0.015625)"/>
      <path id="DejaVuSans-75" d="M 544 1381 
L 544 3500 
L 1119 3500 
L 1119 1403 
Q 1119 906 1312 657 
Q 1506 409 1894 409 
Q 2359 409 2629 706 
Q 2900 1003 2900 1516 
L 2900 3500 
L 3475 3500 
L 3475 0 
L 2900 0 
L 2900 538 
Q 2691 219 2414 64 
Q 2138 -91 1772 -91 
Q 1169 -91 856 284 
Q 544 659 544 1381 
z
M 1991 3584 
L 1991 3584 
z
" transform="scale(0.015625)"/>
      <path id="DejaVuSans-6d" d="M 3328 2828 
Q 3544 3216 3844 3400 
Q 4144 3584 4550 3584 
Q 5097 3584 5394 3201 
Q 5691 2819 5691 2113 
L 5691 0 
L 5113 0 
L 5113 2094 
Q 5113 2597 4934 2840 
Q 4756 3084 4391 3084 
Q 3944 3084 3684 2787 
Q 3425 2491 3425 1978 
L 3425 0 
L 2847 0 
L 2847 2094 
Q 2847 2600 2669 2842 
Q 2491 3084 2119 3084 
Q 1678 3084 1418 2786 
Q 1159 2488 1159 1978 
L 1159 0 
L 581 0 
L 581 3500 
L 1159 3500 
L 1159 2956 
Q 1356 3278 1631 3431 
Q 1906 3584 2284 3584 
Q 2666 3584 2933 3390 
Q 3200 3197 3328 2828 
z
" transform="scale(0.015625)"/>
      <path id="DejaVuSans-62" d="M 3116 1747 
Q 3116 2381 2855 2742 
Q 2594 3103 2138 3103 
Q 1681 3103 1420 2742 
Q 1159 2381 1159 1747 
Q 1159 1113 1420 752 
Q 1681 391 2138 391 
Q 2594 391 2855 752 
Q 3116 1113 3116 1747 
z
M 1159 2969 
Q 1341 3281 1617 3432 
Q 1894 3584 2278 3584 
Q 2916 3584 3314 3078 
Q 3713 2572 3713 1747 
Q 3713 922 3314 415 
Q 2916 -91 2278 -91 
Q 1894 -91 1617 61 
Q 1341 213 1159 525 
L 1159 0 
L 581 0 
L 581 4863 
L 1159 4863 
L 1159 2969 
z
" transform="scale(0.015625)"/>
      <path id="DejaVuSans-65" d="M 3597 1894 
L 3597 1613 
L 953 1613 
Q 991 1019 1311 708 
Q 1631 397 2203 397 
Q 2534 397 2845 478 
Q 3156 559 3463 722 
L 3463 178 
Q 3153 47 2828 -22 
Q 2503 -91 2169 -91 
Q 1331 -91 842 396 
Q 353 884 353 1716 
Q 353 2575 817 3079 
Q 1281 3584 2069 3584 
Q 2775 3584 3186 3129 
Q 3597 2675 3597 1894 
z
M 3022 2063 
Q 3016 2534 2758 2815 
Q 2500 3097 2075 3097 
Q 1594 3097 1305 2825 
Q 1016 2553 972 2059 
L 3022 2063 
z
" transform="scale(0.015625)"/>
      <path id="DejaVuSans-72" d="M 2631 2963 
Q 2534 3019 2420 3045 
Q 2306 3072 2169 3072 
Q 1681 3072 1420 2755 
Q 1159 2438 1159 1844 
L 1159 0 
L 581 0 
L 581 3500 
L 1159 3500 
L 1159 2956 
Q 1341 3275 1631 3429 
Q 1922 3584 2338 3584 
Q 2397 3584 2469 3576 
Q 2541 3569 2628 3553 
L 2631 2963 
z
" transform="scale(0.015625)"/>
      <path id="DejaVuSans-70" d="M 1159 525 
L 1159 -1331 
L 581 -1331 
L 581 3500 
L 1159 3500 
L 1159 2969 
Q 1341 3281 1617 3432 
Q 1894 3584 2278 3584 
Q 2916 3584 3314 3078 
Q 3713 2572 3713 1747 
Q 3713 922 3314 415 
Q 2916 -91 2278 -91 
Q 1894 -91 1617 61 
Q 1341 213 1159 525 
z
M 3116 1747 
Q 3116 2381 2855 2742 
Q 2594 3103 2138 3103 
Q 1681 3103 1420 2742 
Q 1159 2381 1159 1747 
Q 1159 1113 1420 752 
Q 1681 391 2138 391 
Q 2594 391 2855 752 
Q 3116 1113 3116 1747 
z
" transform="scale(0.015625)"/>
     </defs>
     <use xlink:href="#DejaVuSans-43"/>
     <use xlink:href="#DejaVuSans-6f" x="69.824219"/>
     <use xlink:href="#DejaVuSans-6e" x="131.005859"/>
     <use xlink:href="#DejaVuSans-64" x="194.384766"/>
     <use xlink:href="#DejaVuSans-69" x="257.861328"/>
     <use xlink:href="#DejaVuSans-74" x="285.644531"/>
     <use xlink:href="#DejaVuSans-69" x="324.853516"/>
     <use xlink:href="#DejaVuSans-6f" x="352.636719"/>
     <use xlink:href="#DejaVuSans-6e" x="413.818359"/>
     <use xlink:href="#DejaVuSans-69" x="477.197266"/>
     <use xlink:href="#DejaVuSans-6e" x="504.980469"/>
     <use xlink:href="#DejaVuSans-67" x="568.359375"/>
     <use xlink:href="#DejaVuSans-20" x="631.835938"/>
     <use xlink:href="#DejaVuSans-6e" x="663.623047"/>
     <use xlink:href="#DejaVuSans-75" x="727.001953"/>
     <use xlink:href="#DejaVuSans-6d" x="790.380859"/>
     <use xlink:href="#DejaVuSans-62" x="887.792969"/>
     <use xlink:href="#DejaVuSans-65" x="951.269531"/>
     <use xlink:href="#DejaVuSans-72" x="1012.792969"/>
     <use xlink:href="#DejaVuSans-20" x="1053.90625"/>
     <use xlink:href="#DejaVuSans-65" x="1085.693359"/>
     <use xlink:href="#DejaVuSans-78" x="1145.466797"/>
     <use xlink:href="#DejaVuSans-70" x="1204.646484"/>
     <use xlink:href="#DejaVuSans-65" x="1268.123047"/>
     <use xlink:href="#DejaVuSans-72" x="1329.646484"/>
     <use xlink:href="#DejaVuSans-69" x="1370.759766"/>
     <use xlink:href="#DejaVuSans-6d" x="1398.542969"/>
     <use xlink:href="#DejaVuSans-65" x="1495.955078"/>
     <use xlink:href="#DejaVuSans-6e" x="1557.478516"/>
     <use xlink:href="#DejaVuSans-74" x="1620.857422"/>
    </g>
   </g>
   <g id="legend_1">
    <g id="patch_7">
     <path d="M 64.6 79.250125 
L 303.5 79.250125 
Q 305.5 79.250125 305.5 77.250125 
L 305.5 48.472 
Q 305.5 46.472 303.5 46.472 
L 64.6 46.472 
Q 62.6 46.472 62.6 48.472 
L 62.6 77.250125 
Q 62.6 79.250125 64.6 79.250125 
z
" style="fill: #ffffff; opacity: 0.8; stroke: #cccccc; stroke-linejoin: miter"/>
    </g>
    <g id="line2d_31">
     <path d="M 66.6 54.570437 
L 76.6 54.570437 
L 86.6 54.570437 
" style="fill: none; stroke: #1f77b4; stroke-width: 1.5; stroke-linecap: square"/>
    </g>
    <g id="text_18">
     <!-- relative solution perturbation -->
     <g transform="translate(94.6 58.070437) scale(0.1 -0.1)">
      <defs>
       <path id="DejaVuSans-6c" d="M 603 4863 
L 1178 4863 
L 1178 0 
L 603 0 
L 603 4863 
z
" transform="scale(0.015625)"/>
       <path id="DejaVuSans-61" d="M 2194 1759 
Q 1497 1759 1228 1600 
Q 959 1441 959 1056 
Q 959 750 1161 570 
Q 1363 391 1709 391 
Q 2188 391 2477 730 
Q 2766 1069 2766 1631 
L 2766 1759 
L 2194 1759 
z
M 3341 1997 
L 3341 0 
L 2766 0 
L 2766 531 
Q 2569 213 2275 61 
Q 1981 -91 1556 -91 
Q 1019 -91 701 211 
Q 384 513 384 1019 
Q 384 1609 779 1909 
Q 1175 2209 1959 2209 
L 2766 2209 
L 2766 2266 
Q 2766 2663 2505 2880 
Q 2244 3097 1772 3097 
Q 1472 3097 1187 3025 
Q 903 2953 641 2809 
L 641 3341 
Q 956 3463 1253 3523 
Q 1550 3584 1831 3584 
Q 2591 3584 2966 3190 
Q 3341 2797 3341 1997 
z
" transform="scale(0.015625)"/>
       <path id="DejaVuSans-76" d="M 191 3500 
L 800 3500 
L 1894 563 
L 2988 3500 
L 3597 3500 
L 2284 0 
L 1503 0 
L 191 3500 
z
" transform="scale(0.015625)"/>
       <path id="DejaVuSans-73" d="M 2834 3397 
L 2834 2853 
Q 2591 2978 2328 3040 
Q 2066 3103 1784 3103 
Q 1356 3103 1142 2972 
Q 928 2841 928 2578 
Q 928 2378 1081 2264 
Q 1234 2150 1697 2047 
L 1894 2003 
Q 2506 1872 2764 1633 
Q 3022 1394 3022 966 
Q 3022 478 2636 193 
Q 2250 -91 1575 -91 
Q 1294 -91 989 -36 
Q 684 19 347 128 
L 347 722 
Q 666 556 975 473 
Q 1284 391 1588 391 
Q 1994 391 2212 530 
Q 2431 669 2431 922 
Q 2431 1156 2273 1281 
Q 2116 1406 1581 1522 
L 1381 1569 
Q 847 1681 609 1914 
Q 372 2147 372 2553 
Q 372 3047 722 3315 
Q 1072 3584 1716 3584 
Q 2034 3584 2315 3537 
Q 2597 3491 2834 3397 
z
" transform="scale(0.015625)"/>
      </defs>
      <use xlink:href="#DejaVuSans-72"/>
      <use xlink:href="#DejaVuSans-65" x="38.863281"/>
      <use xlink:href="#DejaVuSans-6c" x="100.386719"/>
      <use xlink:href="#DejaVuSans-61" x="128.169922"/>
      <use xlink:href="#DejaVuSans-74" x="189.449219"/>
      <use xlink:href="#DejaVuSans-69" x="228.658203"/>
      <use xlink:href="#DejaVuSans-76" x="256.441406"/>
      <use xlink:href="#DejaVuSans-65" x="315.621094"/>
      <use xlink:href="#DejaVuSans-20" x="377.144531"/>
      <use xlink:href="#DejaVuSans-73" x="408.931641"/>
      <use xlink:href="#DejaVuSans-6f" x="461.03125"/>
      <use xlink:href="#DejaVuSans-6c" x="522.212891"/>
      <use xlink:href="#DejaVuSans-75" x="549.996094"/>
      <use xlink:href="#DejaVuSans-74" x="613.375"/>
      <use xlink:href="#DejaVuSans-69" x="652.583984"/>
      <use xlink:href="#DejaVuSans-6f" x="680.367188"/>
      <use xlink:href="#DejaVuSans-6e" x="741.548828"/>
      <use xlink:href="#DejaVuSans-20" x="804.927734"/>
      <use xlink:href="#DejaVuSans-70" x="836.714844"/>
      <use xlink:href="#DejaVuSans-65" x="900.191406"/>
      <use xlink:href="#DejaVuSans-72" x="961.714844"/>
      <use xlink:href="#DejaVuSans-74" x="1002.828125"/>
      <use xlink:href="#DejaVuSans-75" x="1042.037109"/>
      <use xlink:href="#DejaVuSans-72" x="1105.416016"/>
      <use xlink:href="#DejaVuSans-62" x="1146.529297"/>
      <use xlink:href="#DejaVuSans-61" x="1210.005859"/>
      <use xlink:href="#DejaVuSans-74" x="1271.285156"/>
      <use xlink:href="#DejaVuSans-69" x="1310.494141"/>
      <use xlink:href="#DejaVuSans-6f" x="1338.277344"/>
      <use xlink:href="#DejaVuSans-6e" x="1399.458984"/>
     </g>
    </g>
    <g id="line2d_32">
     <path d="M 66.6 69.350125 
L 76.6 69.350125 
L 86.6 69.350125 
" style="fill: none; stroke: #ff7f0e; stroke-width: 1.5; stroke-linecap: square"/>
    </g>
    <g id="text_19">
     <!-- perturbation upper bound ($\kappa_A$*||$\delta$A||/||A||) -->
     <g transform="translate(94.6 72.850125) scale(0.1 -0.1)">
      <defs>
       <path id="DejaVuSans-28" d="M 1984 4856 
Q 1566 4138 1362 3434 
Q 1159 2731 1159 2009 
Q 1159 1288 1364 580 
Q 1569 -128 1984 -844 
L 1484 -844 
Q 1016 -109 783 600 
Q 550 1309 550 2009 
Q 550 2706 781 3412 
Q 1013 4119 1484 4856 
L 1984 4856 
z
" transform="scale(0.015625)"/>
       <path id="DejaVuSans-Oblique-3ba" d="M 938 3500 
L 1531 3500 
L 1247 2047 
L 3041 3500 
L 3741 3500 
L 2106 2181 
L 3275 0 
L 2572 0 
L 1628 1806 
L 1122 1403 
L 850 0 
L 256 0 
L 938 3500 
z
" transform="scale(0.015625)"/>
       <path id="DejaVuSans-Oblique-41" d="M 2356 4666 
L 3072 4666 
L 3938 0 
L 3278 0 
L 3084 1197 
L 984 1197 
L 325 0 
L -341 0 
L 2356 4666 
z
M 2584 4044 
L 1275 1722 
L 2988 1722 
L 2584 4044 
z
" transform="scale(0.015625)"/>
       <path id="DejaVuSans-2a" d="M 3009 3897 
L 1888 3291 
L 3009 2681 
L 2828 2375 
L 1778 3009 
L 1778 1831 
L 1422 1831 
L 1422 3009 
L 372 2375 
L 191 2681 
L 1313 3291 
L 191 3897 
L 372 4206 
L 1422 3572 
L 1422 4750 
L 1778 4750 
L 1778 3572 
L 2828 4206 
L 3009 3897 
z
" transform="scale(0.015625)"/>
       <path id="DejaVuSans-29" d="M 513 4856 
L 1013 4856 
Q 1481 4119 1714 3412 
Q 1947 2706 1947 2009 
Q 1947 1309 1714 600 
Q 1481 -109 1013 -844 
L 513 -844 
Q 928 -128 1133 580 
Q 1338 1288 1338 2009 
Q 1338 2731 1133 3434 
Q 928 4138 513 4856 
z
" transform="scale(0.015625)"/>
      </defs>
      <use xlink:href="#DejaVuSans-70" transform="translate(0 0.578125)"/>
      <use xlink:href="#DejaVuSans-65" transform="translate(63.476562 0.578125)"/>
      <use xlink:href="#DejaVuSans-72" transform="translate(125 0.578125)"/>
      <use xlink:href="#DejaVuSans-74" transform="translate(166.113281 0.578125)"/>
      <use xlink:href="#DejaVuSans-75" transform="translate(205.322266 0.578125)"/>
      <use xlink:href="#DejaVuSans-72" transform="translate(268.701172 0.578125)"/>
      <use xlink:href="#DejaVuSans-62" transform="translate(309.814453 0.578125)"/>
      <use xlink:href="#DejaVuSans-61" transform="translate(373.291016 0.578125)"/>
      <use xlink:href="#DejaVuSans-74" transform="translate(434.570312 0.578125)"/>
      <use xlink:href="#DejaVuSans-69" transform="translate(473.779297 0.578125)"/>
      <use xlink:href="#DejaVuSans-6f" transform="translate(501.5625 0.578125)"/>
      <use xlink:href="#DejaVuSans-6e" transform="translate(562.744141 0.578125)"/>
      <use xlink:href="#DejaVuSans-20" transform="translate(626.123047 0.578125)"/>
      <use xlink:href="#DejaVuSans-75" transform="translate(657.910156 0.578125)"/>
      <use xlink:href="#DejaVuSans-70" transform="translate(721.289062 0.578125)"/>
      <use xlink:href="#DejaVuSans-70" transform="translate(784.765625 0.578125)"/>
      <use xlink:href="#DejaVuSans-65" transform="translate(848.242188 0.578125)"/>
      <use xlink:href="#DejaVuSans-72" transform="translate(909.765625 0.578125)"/>
      <use xlink:href="#DejaVuSans-20" transform="translate(950.878906 0.578125)"/>
      <use xlink:href="#DejaVuSans-62" transform="translate(982.666016 0.578125)"/>
      <use xlink:href="#DejaVuSans-6f" transform="translate(1046.142578 0.578125)"/>
      <use xlink:href="#DejaVuSans-75" transform="translate(1107.324219 0.578125)"/>
      <use xlink:href="#DejaVuSans-6e" transform="translate(1170.703125 0.578125)"/>
      <use xlink:href="#DejaVuSans-64" transform="translate(1234.082031 0.578125)"/>
      <use xlink:href="#DejaVuSans-20" transform="translate(1297.558594 0.578125)"/>
      <use xlink:href="#DejaVuSans-28" transform="translate(1329.345703 0.578125)"/>
      <use xlink:href="#DejaVuSans-Oblique-3ba" transform="translate(1368.359375 0.578125)"/>
      <use xlink:href="#DejaVuSans-Oblique-41" transform="translate(1427.294922 -15.828125) scale(0.7)"/>
      <use xlink:href="#DejaVuSans-2a" transform="translate(1477.915039 0.578125)"/>
      <use xlink:href="#DejaVuSans-7c" transform="translate(1527.915039 0.578125)"/>
      <use xlink:href="#DejaVuSans-7c" transform="translate(1561.606445 0.578125)"/>
      <use xlink:href="#DejaVuSans-Oblique-3b4" transform="translate(1595.297852 0.578125)"/>
      <use xlink:href="#DejaVuSans-41" transform="translate(1656.479492 0.578125)"/>
      <use xlink:href="#DejaVuSans-7c" transform="translate(1724.887695 0.578125)"/>
      <use xlink:href="#DejaVuSans-7c" transform="translate(1758.579102 0.578125)"/>
      <use xlink:href="#DejaVuSans-2f" transform="translate(1792.270508 0.578125)"/>
      <use xlink:href="#DejaVuSans-7c" transform="translate(1825.961914 0.578125)"/>
      <use xlink:href="#DejaVuSans-7c" transform="translate(1859.65332 0.578125)"/>
      <use xlink:href="#DejaVuSans-41" transform="translate(1893.344727 0.578125)"/>
      <use xlink:href="#DejaVuSans-7c" transform="translate(1961.75293 0.578125)"/>
      <use xlink:href="#DejaVuSans-7c" transform="translate(1995.444336 0.578125)"/>
      <use xlink:href="#DejaVuSans-29" transform="translate(2029.135742 0.578125)"/>
     </g>
    </g>
   </g>
  </g>
 </g>
 <defs>
  <clipPath id="p692e113f64">
   <rect x="57.6" y="41.472" width="357.12" height="266.112"/>
  </clipPath>
 </defs>
</svg>
