<?xml version="1.0" encoding="utf-8" standalone="no"?>
<!DOCTYPE svg PUBLIC "-//W3C//DTD SVG 1.1//EN"
  "http://www.w3.org/Graphics/SVG/1.1/DTD/svg11.dtd">
<svg xmlns:xlink="http://www.w3.org/1999/xlink" width="460.8pt" height="345.6pt" viewBox="0 0 460.8 345.6" xmlns="http://www.w3.org/2000/svg" version="1.1">
 <metadata>
  <rdf:RDF xmlns:dc="http://purl.org/dc/elements/1.1/" xmlns:cc="http://creativecommons.org/ns#" xmlns:rdf="http://www.w3.org/1999/02/22-rdf-syntax-ns#">
   <cc:Work>
    <dc:type rdf:resource="http://purl.org/dc/dcmitype/StillImage"/>
    <dc:date>2024-03-11T11:02:55.984004</dc:date>
    <dc:format>image/svg+xml</dc:format>
    <dc:creator>
     <cc:Agent>
      <dc:title>Matplotlib v3.8.0, https://matplotlib.org/</dc:title>
     </cc:Agent>
    </dc:creator>
   </cc:Work>
  </rdf:RDF>
 </metadata>
 <defs>
  <style type="text/css">*{stroke-linejoin: round; stroke-linecap: butt}</style>
 </defs>
 <g id="figure_1">
  <g id="patch_1">
   <path d="M 0 345.6 
L 460.8 345.6 
L 460.8 0 
L 0 0 
z
" style="fill: #ffffff"/>
  </g>
  <g id="axes_1">
   <g id="patch_2">
    <path d="M 57.6 307.584 
L 414.72 307.584 
L 414.72 41.472 
L 57.6 41.472 
z
" style="fill: #ffffff"/>
   </g>
   <g id="matplotlib.axis_1">
    <g id="xtick_1">
     <g id="line2d_1">
      <path d="M 100.983308 307.584 
L 100.983308 41.472 
" clip-path="url(#pb799535599)" style="fill: none; stroke: #b0b0b0; stroke-width: 0.8; stroke-linecap: square"/>
     </g>
     <g id="line2d_2">
      <defs>
       <path id="m47c874aa42" d="M 0 0 
L 0 3.5 
" style="stroke: #000000; stroke-width: 0.8"/>
      </defs>
      <g>
       <use xlink:href="#m47c874aa42" x="100.983308" y="307.584" style="stroke: #000000; stroke-width: 0.8"/>
      </g>
     </g>
     <g id="text_1">
      <!-- $\mathdefault{10^{-11}}$ -->
      <g transform="translate(87.033308 322.182437) scale(0.1 -0.1)">
       <defs>
        <path id="DejaVuSans-31" d="M 794 531 
L 1825 531 
L 1825 4091 
L 703 3866 
L 703 4441 
L 1819 4666 
L 2450 4666 
L 2450 531 
L 3481 531 
L 3481 0 
L 794 0 
L 794 531 
z
" transform="scale(0.015625)"/>
        <path id="DejaVuSans-30" d="M 2034 4250 
Q 1547 4250 1301 3770 
Q 1056 3291 1056 2328 
Q 1056 1369 1301 889 
Q 1547 409 2034 409 
Q 2525 409 2770 889 
Q 3016 1369 3016 2328 
Q 3016 3291 2770 3770 
Q 2525 4250 2034 4250 
z
M 2034 4750 
Q 2819 4750 3233 4129 
Q 3647 3509 3647 2328 
Q 3647 1150 3233 529 
Q 2819 -91 2034 -91 
Q 1250 -91 836 529 
Q 422 1150 422 2328 
Q 422 3509 836 4129 
Q 1250 4750 2034 4750 
z
" transform="scale(0.015625)"/>
        <path id="DejaVuSans-2212" d="M 678 2272 
L 4684 2272 
L 4684 1741 
L 678 1741 
L 678 2272 
z
" transform="scale(0.015625)"/>
       </defs>
       <use xlink:href="#DejaVuSans-31" transform="translate(0 0.684375)"/>
       <use xlink:href="#DejaVuSans-30" transform="translate(63.623047 0.684375)"/>
       <use xlink:href="#DejaVuSans-2212" transform="translate(128.203125 38.965625) scale(0.7)"/>
       <use xlink:href="#DejaVuSans-31" transform="translate(186.855469 38.965625) scale(0.7)"/>
       <use xlink:href="#DejaVuSans-31" transform="translate(231.391602 38.965625) scale(0.7)"/>
      </g>
     </g>
    </g>
    <g id="xtick_2">
     <g id="line2d_3">
      <path d="M 153.990786 307.584 
L 153.990786 41.472 
" clip-path="url(#pb799535599)" style="fill: none; stroke: #b0b0b0; stroke-width: 0.8; stroke-linecap: square"/>
     </g>
     <g id="line2d_4">
      <g>
       <use xlink:href="#m47c874aa42" x="153.990786" y="307.584" style="stroke: #000000; stroke-width: 0.8"/>
      </g>
     </g>
     <g id="text_2">
      <!-- $\mathdefault{10^{-9}}$ -->
      <g transform="translate(142.240786 322.182437) scale(0.1 -0.1)">
       <defs>
        <path id="DejaVuSans-39" d="M 703 97 
L 703 672 
Q 941 559 1184 500 
Q 1428 441 1663 441 
Q 2288 441 2617 861 
Q 2947 1281 2994 2138 
Q 2813 1869 2534 1725 
Q 2256 1581 1919 1581 
Q 1219 1581 811 2004 
Q 403 2428 403 3163 
Q 403 3881 828 4315 
Q 1253 4750 1959 4750 
Q 2769 4750 3195 4129 
Q 3622 3509 3622 2328 
Q 3622 1225 3098 567 
Q 2575 -91 1691 -91 
Q 1453 -91 1209 -44 
Q 966 3 703 97 
z
M 1959 2075 
Q 2384 2075 2632 2365 
Q 2881 2656 2881 3163 
Q 2881 3666 2632 3958 
Q 2384 4250 1959 4250 
Q 1534 4250 1286 3958 
Q 1038 3666 1038 3163 
Q 1038 2656 1286 2365 
Q 1534 2075 1959 2075 
z
" transform="scale(0.015625)"/>
       </defs>
       <use xlink:href="#DejaVuSans-31" transform="translate(0 0.765625)"/>
       <use xlink:href="#DejaVuSans-30" transform="translate(63.623047 0.765625)"/>
       <use xlink:href="#DejaVuSans-2212" transform="translate(128.203125 39.046875) scale(0.7)"/>
       <use xlink:href="#DejaVuSans-39" transform="translate(186.855469 39.046875) scale(0.7)"/>
      </g>
     </g>
    </g>
    <g id="xtick_3">
     <g id="line2d_5">
      <path d="M 206.998264 307.584 
L 206.998264 41.472 
" clip-path="url(#pb799535599)" style="fill: none; stroke: #b0b0b0; stroke-width: 0.8; stroke-linecap: square"/>
     </g>
     <g id="line2d_6">
      <g>
       <use xlink:href="#m47c874aa42" x="206.998264" y="307.584" style="stroke: #000000; stroke-width: 0.8"/>
      </g>
     </g>
     <g id="text_3">
      <!-- $\mathdefault{10^{-7}}$ -->
      <g transform="translate(195.248264 322.182437) scale(0.1 -0.1)">
       <defs>
        <path id="DejaVuSans-37" d="M 525 4666 
L 3525 4666 
L 3525 4397 
L 1831 0 
L 1172 0 
L 2766 4134 
L 525 4134 
L 525 4666 
z
" transform="scale(0.015625)"/>
       </defs>
       <use xlink:href="#DejaVuSans-31" transform="translate(0 0.684375)"/>
       <use xlink:href="#DejaVuSans-30" transform="translate(63.623047 0.684375)"/>
       <use xlink:href="#DejaVuSans-2212" transform="translate(128.203125 38.965625) scale(0.7)"/>
       <use xlink:href="#DejaVuSans-37" transform="translate(186.855469 38.965625) scale(0.7)"/>
      </g>
     </g>
    </g>
    <g id="xtick_4">
     <g id="line2d_7">
      <path d="M 260.005741 307.584 
L 260.005741 41.472 
" clip-path="url(#pb799535599)" style="fill: none; stroke: #b0b0b0; stroke-width: 0.8; stroke-linecap: square"/>
     </g>
     <g id="line2d_8">
      <g>
       <use xlink:href="#m47c874aa42" x="260.005741" y="307.584" style="stroke: #000000; stroke-width: 0.8"/>
      </g>
     </g>
     <g id="text_4">
      <!-- $\mathdefault{10^{-5}}$ -->
      <g transform="translate(248.255741 322.182437) scale(0.1 -0.1)">
       <defs>
        <path id="DejaVuSans-35" d="M 691 4666 
L 3169 4666 
L 3169 4134 
L 1269 4134 
L 1269 2991 
Q 1406 3038 1543 3061 
Q 1681 3084 1819 3084 
Q 2600 3084 3056 2656 
Q 3513 2228 3513 1497 
Q 3513 744 3044 326 
Q 2575 -91 1722 -91 
Q 1428 -91 1123 -41 
Q 819 9 494 109 
L 494 744 
Q 775 591 1075 516 
Q 1375 441 1709 441 
Q 2250 441 2565 725 
Q 2881 1009 2881 1497 
Q 2881 1984 2565 2268 
Q 2250 2553 1709 2553 
Q 1456 2553 1204 2497 
Q 953 2441 691 2322 
L 691 4666 
z
" transform="scale(0.015625)"/>
       </defs>
       <use xlink:href="#DejaVuSans-31" transform="translate(0 0.684375)"/>
       <use xlink:href="#DejaVuSans-30" transform="translate(63.623047 0.684375)"/>
       <use xlink:href="#DejaVuSans-2212" transform="translate(128.203125 38.965625) scale(0.7)"/>
       <use xlink:href="#DejaVuSans-35" transform="translate(186.855469 38.965625) scale(0.7)"/>
      </g>
     </g>
    </g>
    <g id="xtick_5">
     <g id="line2d_9">
      <path d="M 313.013219 307.584 
L 313.013219 41.472 
" clip-path="url(#pb799535599)" style="fill: none; stroke: #b0b0b0; stroke-width: 0.8; stroke-linecap: square"/>
     </g>
     <g id="line2d_10">
      <g>
       <use xlink:href="#m47c874aa42" x="313.013219" y="307.584" style="stroke: #000000; stroke-width: 0.8"/>
      </g>
     </g>
     <g id="text_5">
      <!-- $\mathdefault{10^{-3}}$ -->
      <g transform="translate(301.263219 322.182437) scale(0.1 -0.1)">
       <defs>
        <path id="DejaVuSans-33" d="M 2597 2516 
Q 3050 2419 3304 2112 
Q 3559 1806 3559 1356 
Q 3559 666 3084 287 
Q 2609 -91 1734 -91 
Q 1441 -91 1130 -33 
Q 819 25 488 141 
L 488 750 
Q 750 597 1062 519 
Q 1375 441 1716 441 
Q 2309 441 2620 675 
Q 2931 909 2931 1356 
Q 2931 1769 2642 2001 
Q 2353 2234 1838 2234 
L 1294 2234 
L 1294 2753 
L 1863 2753 
Q 2328 2753 2575 2939 
Q 2822 3125 2822 3475 
Q 2822 3834 2567 4026 
Q 2313 4219 1838 4219 
Q 1578 4219 1281 4162 
Q 984 4106 628 3988 
L 628 4550 
Q 988 4650 1302 4700 
Q 1616 4750 1894 4750 
Q 2613 4750 3031 4423 
Q 3450 4097 3450 3541 
Q 3450 3153 3228 2886 
Q 3006 2619 2597 2516 
z
" transform="scale(0.015625)"/>
       </defs>
       <use xlink:href="#DejaVuSans-31" transform="translate(0 0.765625)"/>
       <use xlink:href="#DejaVuSans-30" transform="translate(63.623047 0.765625)"/>
       <use xlink:href="#DejaVuSans-2212" transform="translate(128.203125 39.046875) scale(0.7)"/>
       <use xlink:href="#DejaVuSans-33" transform="translate(186.855469 39.046875) scale(0.7)"/>
      </g>
     </g>
    </g>
    <g id="xtick_6">
     <g id="line2d_11">
      <path d="M 366.020697 307.584 
L 366.020697 41.472 
" clip-path="url(#pb799535599)" style="fill: none; stroke: #b0b0b0; stroke-width: 0.8; stroke-linecap: square"/>
     </g>
     <g id="line2d_12">
      <g>
       <use xlink:href="#m47c874aa42" x="366.020697" y="307.584" style="stroke: #000000; stroke-width: 0.8"/>
      </g>
     </g>
     <g id="text_6">
      <!-- $\mathdefault{10^{-1}}$ -->
      <g transform="translate(354.270697 322.182437) scale(0.1 -0.1)">
       <use xlink:href="#DejaVuSans-31" transform="translate(0 0.684375)"/>
       <use xlink:href="#DejaVuSans-30" transform="translate(63.623047 0.684375)"/>
       <use xlink:href="#DejaVuSans-2212" transform="translate(128.203125 38.965625) scale(0.7)"/>
       <use xlink:href="#DejaVuSans-31" transform="translate(186.855469 38.965625) scale(0.7)"/>
      </g>
     </g>
    </g>
    <g id="text_7">
     <!-- ||$\delta$A||/||A|| -->
     <g transform="translate(211.06 335.962125) scale(0.1 -0.1)">
      <defs>
       <path id="DejaVuSans-7c" d="M 1344 4891 
L 1344 -1509 
L 813 -1509 
L 813 4891 
L 1344 4891 
z
" transform="scale(0.015625)"/>
       <path id="DejaVuSans-Oblique-3b4" d="M 3472 4053 
Q 3197 4272 2450 4272 
Q 1659 4272 1588 3906 
Q 1531 3619 2328 3469 
Q 2953 3353 3253 3003 
Q 3616 2581 3447 1716 
Q 3284 888 2763 400 
Q 2238 -91 1488 -91 
Q 741 -91 406 400 
Q 72 888 241 1747 
Q 363 2384 891 2900 
Q 1097 3100 1353 3213 
Q 913 3459 1000 3900 
Q 1166 4750 2544 4750 
Q 3234 4750 3566 4531 
L 3472 4053 
z
M 1753 3056 
Q 1525 2966 1306 2738 
Q 969 2384 847 1747 
Q 722 1113 919 756 
Q 1119 397 1584 397 
Q 2044 397 2381 759 
Q 2722 1122 2838 1716 
Q 2956 2338 2731 2638 
Q 2491 2959 2103 2994 
Q 1906 3013 1753 3056 
z
" transform="scale(0.015625)"/>
       <path id="DejaVuSans-41" d="M 2188 4044 
L 1331 1722 
L 3047 1722 
L 2188 4044 
z
M 1831 4666 
L 2547 4666 
L 4325 0 
L 3669 0 
L 3244 1197 
L 1141 1197 
L 716 0 
L 50 0 
L 1831 4666 
z
" transform="scale(0.015625)"/>
       <path id="DejaVuSans-2f" d="M 1625 4666 
L 2156 4666 
L 531 -594 
L 0 -594 
L 1625 4666 
z
" transform="scale(0.015625)"/>
      </defs>
      <use xlink:href="#DejaVuSans-7c" transform="translate(0 0.578125)"/>
      <use xlink:href="#DejaVuSans-7c" transform="translate(33.691406 0.578125)"/>
      <use xlink:href="#DejaVuSans-Oblique-3b4" transform="translate(67.382812 0.578125)"/>
      <use xlink:href="#DejaVuSans-41" transform="translate(128.564453 0.578125)"/>
      <use xlink:href="#DejaVuSans-7c" transform="translate(196.972656 0.578125)"/>
      <use xlink:href="#DejaVuSans-7c" transform="translate(230.664062 0.578125)"/>
      <use xlink:href="#DejaVuSans-2f" transform="translate(264.355469 0.578125)"/>
      <use xlink:href="#DejaVuSans-7c" transform="translate(298.046875 0.578125)"/>
      <use xlink:href="#DejaVuSans-7c" transform="translate(331.738281 0.578125)"/>
      <use xlink:href="#DejaVuSans-41" transform="translate(365.429688 0.578125)"/>
      <use xlink:href="#DejaVuSans-7c" transform="translate(433.837891 0.578125)"/>
      <use xlink:href="#DejaVuSans-7c" transform="translate(467.529297 0.578125)"/>
     </g>
    </g>
   </g>
   <g id="matplotlib.axis_2">
    <g id="ytick_1">
     <g id="line2d_13">
      <path d="M 57.6 284.24484 
L 414.72 284.24484 
" clip-path="url(#pb799535599)" style="fill: none; stroke: #b0b0b0; stroke-width: 0.8; stroke-linecap: square"/>
     </g>
     <g id="line2d_14">
      <defs>
       <path id="m0ab281dd28" d="M 0 0 
L -3.5 0 
" style="stroke: #000000; stroke-width: 0.8"/>
      </defs>
      <g>
       <use xlink:href="#m0ab281dd28" x="57.6" y="284.24484" style="stroke: #000000; stroke-width: 0.8"/>
      </g>
     </g>
     <g id="text_8">
      <!-- $\mathdefault{10^{-12}}$ -->
      <g transform="translate(22.7 288.044059) scale(0.1 -0.1)">
       <defs>
        <path id="DejaVuSans-32" d="M 1228 531 
L 3431 531 
L 3431 0 
L 469 0 
L 469 531 
Q 828 903 1448 1529 
Q 2069 2156 2228 2338 
Q 2531 2678 2651 2914 
Q 2772 3150 2772 3378 
Q 2772 3750 2511 3984 
Q 2250 4219 1831 4219 
Q 1534 4219 1204 4116 
Q 875 4013 500 3803 
L 500 4441 
Q 881 4594 1212 4672 
Q 1544 4750 1819 4750 
Q 2544 4750 2975 4387 
Q 3406 4025 3406 3419 
Q 3406 3131 3298 2873 
Q 3191 2616 2906 2266 
Q 2828 2175 2409 1742 
Q 1991 1309 1228 531 
z
" transform="scale(0.015625)"/>
       </defs>
       <use xlink:href="#DejaVuSans-31" transform="translate(0 0.765625)"/>
       <use xlink:href="#DejaVuSans-30" transform="translate(63.623047 0.765625)"/>
       <use xlink:href="#DejaVuSans-2212" transform="translate(128.203125 39.046875) scale(0.7)"/>
       <use xlink:href="#DejaVuSans-31" transform="translate(186.855469 39.046875) scale(0.7)"/>
       <use xlink:href="#DejaVuSans-32" transform="translate(231.391602 39.046875) scale(0.7)"/>
      </g>
     </g>
    </g>
    <g id="ytick_2">
     <g id="line2d_15">
      <path d="M 57.6 251.515764 
L 414.72 251.515764 
" clip-path="url(#pb799535599)" style="fill: none; stroke: #b0b0b0; stroke-width: 0.8; stroke-linecap: square"/>
     </g>
     <g id="line2d_16">
      <g>
       <use xlink:href="#m0ab281dd28" x="57.6" y="251.515764" style="stroke: #000000; stroke-width: 0.8"/>
      </g>
     </g>
     <g id="text_9">
      <!-- $\mathdefault{10^{-10}}$ -->
      <g transform="translate(22.7 255.314982) scale(0.1 -0.1)">
       <use xlink:href="#DejaVuSans-31" transform="translate(0 0.765625)"/>
       <use xlink:href="#DejaVuSans-30" transform="translate(63.623047 0.765625)"/>
       <use xlink:href="#DejaVuSans-2212" transform="translate(128.203125 39.046875) scale(0.7)"/>
       <use xlink:href="#DejaVuSans-31" transform="translate(186.855469 39.046875) scale(0.7)"/>
       <use xlink:href="#DejaVuSans-30" transform="translate(231.391602 39.046875) scale(0.7)"/>
      </g>
     </g>
    </g>
    <g id="ytick_3">
     <g id="line2d_17">
      <path d="M 57.6 218.786687 
L 414.72 218.786687 
" clip-path="url(#pb799535599)" style="fill: none; stroke: #b0b0b0; stroke-width: 0.8; stroke-linecap: square"/>
     </g>
     <g id="line2d_18">
      <g>
       <use xlink:href="#m0ab281dd28" x="57.6" y="218.786687" style="stroke: #000000; stroke-width: 0.8"/>
      </g>
     </g>
     <g id="text_10">
      <!-- $\mathdefault{10^{-8}}$ -->
      <g transform="translate(27.1 222.585906) scale(0.1 -0.1)">
       <defs>
        <path id="DejaVuSans-38" d="M 2034 2216 
Q 1584 2216 1326 1975 
Q 1069 1734 1069 1313 
Q 1069 891 1326 650 
Q 1584 409 2034 409 
Q 2484 409 2743 651 
Q 3003 894 3003 1313 
Q 3003 1734 2745 1975 
Q 2488 2216 2034 2216 
z
M 1403 2484 
Q 997 2584 770 2862 
Q 544 3141 544 3541 
Q 544 4100 942 4425 
Q 1341 4750 2034 4750 
Q 2731 4750 3128 4425 
Q 3525 4100 3525 3541 
Q 3525 3141 3298 2862 
Q 3072 2584 2669 2484 
Q 3125 2378 3379 2068 
Q 3634 1759 3634 1313 
Q 3634 634 3220 271 
Q 2806 -91 2034 -91 
Q 1263 -91 848 271 
Q 434 634 434 1313 
Q 434 1759 690 2068 
Q 947 2378 1403 2484 
z
M 1172 3481 
Q 1172 3119 1398 2916 
Q 1625 2713 2034 2713 
Q 2441 2713 2670 2916 
Q 2900 3119 2900 3481 
Q 2900 3844 2670 4047 
Q 2441 4250 2034 4250 
Q 1625 4250 1398 4047 
Q 1172 3844 1172 3481 
z
" transform="scale(0.015625)"/>
       </defs>
       <use xlink:href="#DejaVuSans-31" transform="translate(0 0.765625)"/>
       <use xlink:href="#DejaVuSans-30" transform="translate(63.623047 0.765625)"/>
       <use xlink:href="#DejaVuSans-2212" transform="translate(128.203125 39.046875) scale(0.7)"/>
       <use xlink:href="#DejaVuSans-38" transform="translate(186.855469 39.046875) scale(0.7)"/>
      </g>
     </g>
    </g>
    <g id="ytick_4">
     <g id="line2d_19">
      <path d="M 57.6 186.05761 
L 414.72 186.05761 
" clip-path="url(#pb799535599)" style="fill: none; stroke: #b0b0b0; stroke-width: 0.8; stroke-linecap: square"/>
     </g>
     <g id="line2d_20">
      <g>
       <use xlink:href="#m0ab281dd28" x="57.6" y="186.05761" style="stroke: #000000; stroke-width: 0.8"/>
      </g>
     </g>
     <g id="text_11">
      <!-- $\mathdefault{10^{-6}}$ -->
      <g transform="translate(27.1 189.856829) scale(0.1 -0.1)">
       <defs>
        <path id="DejaVuSans-36" d="M 2113 2584 
Q 1688 2584 1439 2293 
Q 1191 2003 1191 1497 
Q 1191 994 1439 701 
Q 1688 409 2113 409 
Q 2538 409 2786 701 
Q 3034 994 3034 1497 
Q 3034 2003 2786 2293 
Q 2538 2584 2113 2584 
z
M 3366 4563 
L 3366 3988 
Q 3128 4100 2886 4159 
Q 2644 4219 2406 4219 
Q 1781 4219 1451 3797 
Q 1122 3375 1075 2522 
Q 1259 2794 1537 2939 
Q 1816 3084 2150 3084 
Q 2853 3084 3261 2657 
Q 3669 2231 3669 1497 
Q 3669 778 3244 343 
Q 2819 -91 2113 -91 
Q 1303 -91 875 529 
Q 447 1150 447 2328 
Q 447 3434 972 4092 
Q 1497 4750 2381 4750 
Q 2619 4750 2861 4703 
Q 3103 4656 3366 4563 
z
" transform="scale(0.015625)"/>
       </defs>
       <use xlink:href="#DejaVuSans-31" transform="translate(0 0.765625)"/>
       <use xlink:href="#DejaVuSans-30" transform="translate(63.623047 0.765625)"/>
       <use xlink:href="#DejaVuSans-2212" transform="translate(128.203125 39.046875) scale(0.7)"/>
       <use xlink:href="#DejaVuSans-36" transform="translate(186.855469 39.046875) scale(0.7)"/>
      </g>
     </g>
    </g>
    <g id="ytick_5">
     <g id="line2d_21">
      <path d="M 57.6 153.328533 
L 414.72 153.328533 
" clip-path="url(#pb799535599)" style="fill: none; stroke: #b0b0b0; stroke-width: 0.8; stroke-linecap: square"/>
     </g>
     <g id="line2d_22">
      <g>
       <use xlink:href="#m0ab281dd28" x="57.6" y="153.328533" style="stroke: #000000; stroke-width: 0.8"/>
      </g>
     </g>
     <g id="text_12">
      <!-- $\mathdefault{10^{-4}}$ -->
      <g transform="translate(27.1 157.127752) scale(0.1 -0.1)">
       <defs>
        <path id="DejaVuSans-34" d="M 2419 4116 
L 825 1625 
L 2419 1625 
L 2419 4116 
z
M 2253 4666 
L 3047 4666 
L 3047 1625 
L 3713 1625 
L 3713 1100 
L 3047 1100 
L 3047 0 
L 2419 0 
L 2419 1100 
L 313 1100 
L 313 1709 
L 2253 4666 
z
" transform="scale(0.015625)"/>
       </defs>
       <use xlink:href="#DejaVuSans-31" transform="translate(0 0.684375)"/>
       <use xlink:href="#DejaVuSans-30" transform="translate(63.623047 0.684375)"/>
       <use xlink:href="#DejaVuSans-2212" transform="translate(128.203125 38.965625) scale(0.7)"/>
       <use xlink:href="#DejaVuSans-34" transform="translate(186.855469 38.965625) scale(0.7)"/>
      </g>
     </g>
    </g>
    <g id="ytick_6">
     <g id="line2d_23">
      <path d="M 57.6 120.599457 
L 414.72 120.599457 
" clip-path="url(#pb799535599)" style="fill: none; stroke: #b0b0b0; stroke-width: 0.8; stroke-linecap: square"/>
     </g>
     <g id="line2d_24">
      <g>
       <use xlink:href="#m0ab281dd28" x="57.6" y="120.599457" style="stroke: #000000; stroke-width: 0.8"/>
      </g>
     </g>
     <g id="text_13">
      <!-- $\mathdefault{10^{-2}}$ -->
      <g transform="translate(27.1 124.398676) scale(0.1 -0.1)">
       <use xlink:href="#DejaVuSans-31" transform="translate(0 0.765625)"/>
       <use xlink:href="#DejaVuSans-30" transform="translate(63.623047 0.765625)"/>
       <use xlink:href="#DejaVuSans-2212" transform="translate(128.203125 39.046875) scale(0.7)"/>
       <use xlink:href="#DejaVuSans-32" transform="translate(186.855469 39.046875) scale(0.7)"/>
      </g>
     </g>
    </g>
    <g id="ytick_7">
     <g id="line2d_25">
      <path d="M 57.6 87.87038 
L 414.72 87.87038 
" clip-path="url(#pb799535599)" style="fill: none; stroke: #b0b0b0; stroke-width: 0.8; stroke-linecap: square"/>
     </g>
     <g id="line2d_26">
      <g>
       <use xlink:href="#m0ab281dd28" x="57.6" y="87.87038" style="stroke: #000000; stroke-width: 0.8"/>
      </g>
     </g>
     <g id="text_14">
      <!-- $\mathdefault{10^{0}}$ -->
      <g transform="translate(33 91.669599) scale(0.1 -0.1)">
       <use xlink:href="#DejaVuSans-31" transform="translate(0 0.765625)"/>
       <use xlink:href="#DejaVuSans-30" transform="translate(63.623047 0.765625)"/>
       <use xlink:href="#DejaVuSans-30" transform="translate(128.203125 39.046875) scale(0.7)"/>
      </g>
     </g>
    </g>
    <g id="ytick_8">
     <g id="line2d_27">
      <path d="M 57.6 55.141303 
L 414.72 55.141303 
" clip-path="url(#pb799535599)" style="fill: none; stroke: #b0b0b0; stroke-width: 0.8; stroke-linecap: square"/>
     </g>
     <g id="line2d_28">
      <g>
       <use xlink:href="#m0ab281dd28" x="57.6" y="55.141303" style="stroke: #000000; stroke-width: 0.8"/>
      </g>
     </g>
     <g id="text_15">
      <!-- $\mathdefault{10^{2}}$ -->
      <g transform="translate(33 58.940522) scale(0.1 -0.1)">
       <use xlink:href="#DejaVuSans-31" transform="translate(0 0.765625)"/>
       <use xlink:href="#DejaVuSans-30" transform="translate(63.623047 0.765625)"/>
       <use xlink:href="#DejaVuSans-32" transform="translate(128.203125 39.046875) scale(0.7)"/>
      </g>
     </g>
    </g>
    <g id="text_16">
     <!-- ||$\delta$x||/||x|| -->
     <g transform="translate(16.3 198.678) rotate(-90) scale(0.1 -0.1)">
      <defs>
       <path id="DejaVuSans-78" d="M 3513 3500 
L 2247 1797 
L 3578 0 
L 2900 0 
L 1881 1375 
L 863 0 
L 184 0 
L 1544 1831 
L 300 3500 
L 978 3500 
L 1906 2253 
L 2834 3500 
L 3513 3500 
z
" transform="scale(0.015625)"/>
      </defs>
      <use xlink:href="#DejaVuSans-7c" transform="translate(0 0.578125)"/>
      <use xlink:href="#DejaVuSans-7c" transform="translate(33.691406 0.578125)"/>
      <use xlink:href="#DejaVuSans-Oblique-3b4" transform="translate(67.382812 0.578125)"/>
      <use xlink:href="#DejaVuSans-78" transform="translate(128.564453 0.578125)"/>
      <use xlink:href="#DejaVuSans-7c" transform="translate(187.744141 0.578125)"/>
      <use xlink:href="#DejaVuSans-7c" transform="translate(221.435547 0.578125)"/>
      <use xlink:href="#DejaVuSans-2f" transform="translate(255.126953 0.578125)"/>
      <use xlink:href="#DejaVuSans-7c" transform="translate(288.818359 0.578125)"/>
      <use xlink:href="#DejaVuSans-7c" transform="translate(322.509766 0.578125)"/>
      <use xlink:href="#DejaVuSans-78" transform="translate(356.201172 0.578125)"/>
      <use xlink:href="#DejaVuSans-7c" transform="translate(415.380859 0.578125)"/>
      <use xlink:href="#DejaVuSans-7c" transform="translate(449.072266 0.578125)"/>
     </g>
    </g>
   </g>
   <g id="line2d_29">
    <path d="M 73.832727 275.838396 
L 74.593689 271.759121 
L 75.638369 273.421342 
L 76.73456 283.449776 
L 76.746531 280.071431 
L 77.461928 287.392027 
L 78.529889 276.014523 
L 78.757355 282.339096 
L 78.985521 272.984651 
L 79.063968 275.620137 
L 79.302368 276.336647 
L 79.313155 280.697529 
L 79.495925 276.718238 
L 80.04152 286.631725 
L 80.047012 283.262786 
L 80.415342 269.410466 
L 80.929463 286.073858 
L 80.941189 276.313852 
L 81.248823 279.551458 
L 81.889161 290.154287 
L 81.929396 270.609241 
L 82.054603 283.730474 
L 82.241792 284.715852 
L 82.542288 270.354489 
L 83.224131 270.578999 
L 83.893851 277.357511 
L 83.992783 281.531484 
L 84.61003 276.093196 
L 84.693228 281.116788 
L 84.85259 271.519484 
L 85.113506 286.264839 
L 85.728402 283.81852 
L 86.096612 266.460543 
L 87.213034 268.459729 
L 87.359059 280.114477 
L 87.479135 267.544405 
L 87.666706 279.149501 
L 87.847346 267.975427 
L 87.890786 273.396701 
L 88.539919 266.773233 
L 88.809302 269.182028 
L 89.136981 295.488 
L 89.789795 277.020002 
L 90.375382 266.197982 
L 90.469211 272.785219 
L 90.82545 265.796414 
L 91.427159 274.420443 
L 91.557088 269.929406 
L 91.987575 264.280773 
L 92.691628 266.722665 
L 92.889155 271.403291 
L 93.933346 268.799002 
L 94.039596 279.184614 
L 94.04852 275.769233 
L 94.590473 263.525826 
L 95.273576 268.782444 
L 95.429904 259.220955 
L 96.038473 266.842947 
L 96.14925 261.31622 
L 96.271592 283.313341 
L 96.463645 267.623158 
L 96.593446 270.886626 
L 97.248064 265.9682 
L 97.385779 277.399578 
L 97.536302 271.846776 
L 97.748534 272.710399 
L 97.804746 280.573693 
L 98.06426 265.887283 
L 98.756707 263.784231 
L 98.981532 267.607271 
L 99.31911 263.653023 
L 100.349876 274.9498 
L 100.443496 270.105214 
L 100.54091 258.306525 
L 101.05548 272.86562 
L 101.898137 255.450609 
L 101.898437 272.211736 
L 102.474569 271.684644 
L 102.96523 266.583898 
L 102.998404 271.442068 
L 103.837624 280.187861 
L 104.355734 262.693225 
L 104.526964 261.310175 
L 105.415758 268.554741 
L 105.55126 255.711712 
L 106.043927 263.772051 
L 106.078685 253.650227 
L 106.567693 261.394127 
L 106.910447 276.479276 
L 107.10077 254.960523 
L 107.170263 258.861078 
L 107.264062 252.858565 
L 107.298746 255.631533 
L 108.010598 274.746296 
L 108.151015 257.626647 
L 108.718859 268.645971 
L 109.546723 251.622317 
L 110.030989 259.171896 
L 110.586376 259.67625 
L 110.602 256.326853 
L 111.122228 262.902016 
L 111.64308 251.352452 
L 111.643826 259.080716 
L 112.219035 262.653642 
L 112.292487 264.909088 
L 112.921445 249.785629 
L 113.291517 264.693783 
L 113.99543 260.405159 
L 114.454059 258.843587 
L 114.686276 268.589997 
L 115.171402 250.031492 
L 115.612397 266.522007 
L 115.663412 255.481095 
L 116.045675 246.874587 
L 116.455629 253.595725 
L 116.680012 264.789308 
L 117.097333 249.848373 
L 117.507051 259.699738 
L 118.540263 265.841539 
L 118.61531 247.011023 
L 119.05403 255.431939 
L 119.740623 247.782568 
L 119.798543 248.772985 
L 120.329622 267.334475 
L 120.908582 254.786467 
L 121.449269 256.841566 
L 121.541904 244.530502 
L 122.032513 258.593809 
L 122.065134 254.072851 
L 122.118691 255.37255 
L 122.972994 245.116408 
L 123.127807 256.182755 
L 123.620195 250.022012 
L 124.33869 259.710898 
L 124.833718 271.83406 
L 125.225446 241.019162 
L 125.331992 251.807702 
L 125.462635 246.766902 
L 125.643911 244.97085 
L 125.808078 253.270556 
L 126.865484 253.586055 
L 127.131454 253.532174 
L 127.520352 249.461119 
L 127.539868 254.113214 
L 127.781197 258.007131 
L 128.229009 250.709183 
L 128.253642 243.753709 
L 128.419134 247.673111 
L 128.869063 240.365156 
L 129.275139 241.593337 
L 129.590175 242.061559 
L 129.846444 247.921978 
L 130.082455 240.671319 
L 130.232928 241.510572 
L 130.371444 255.359481 
L 130.795471 239.869811 
L 131.503209 247.644078 
L 131.849918 245.424486 
L 132.185548 257.013589 
L 132.225354 247.758844 
L 132.265497 254.460479 
L 133.605892 240.171473 
L 133.691042 256.058868 
L 133.808343 242.802362 
L 134.095127 246.063487 
L 134.336038 238.43149 
L 134.595026 242.737364 
L 134.769006 241.923906 
L 134.969602 235.531131 
L 135.14251 252.972317 
L 135.273421 248.836437 
L 135.29929 239.141107 
L 135.452763 240.892176 
L 135.53461 251.660331 
L 135.74422 234.560864 
L 136.832746 259.322598 
L 137.626918 252.922279 
L 137.626994 256.200187 
L 137.996185 232.089252 
L 138.242128 239.286901 
L 138.550851 244.873551 
L 138.67715 261.900635 
L 139.816853 236.193082 
L 140.245665 248.388968 
L 140.547737 241.455984 
L 140.83764 241.424321 
L 141.028947 237.02668 
L 141.120268 231.206975 
L 141.393966 234.055735 
L 142.527797 242.824772 
L 142.850957 243.980192 
L 142.884636 232.890765 
L 142.964436 240.150606 
L 143.883662 256.83859 
L 144.109999 235.799911 
L 144.319156 255.715986 
L 144.573451 237.356361 
L 145.726429 236.607486 
L 145.797833 234.304561 
L 146.224611 230.917276 
L 146.633232 230.98892 
L 146.941658 233.859034 
L 146.969698 239.446227 
L 147.130157 229.312587 
L 147.36593 246.883763 
L 149.047246 230.11225 
L 149.473621 231.421694 
L 150.003836 236.188493 
L 150.194085 236.72648 
L 150.267043 240.383501 
L 150.374321 236.504118 
L 150.851641 230.355956 
L 150.996727 236.667886 
L 151.419517 226.256367 
L 151.605911 237.207735 
L 151.79287 226.384514 
L 151.913742 233.404312 
L 152.148445 232.34718 
L 152.461474 243.290867 
L 153.019841 237.347983 
L 153.582405 226.07213 
L 154.46039 233.193956 
L 154.769804 229.791086 
L 154.774996 226.87175 
L 155.070092 230.060348 
L 155.111623 228.469821 
L 155.2601 227.167896 
L 155.411989 236.574501 
L 155.54028 227.790234 
L 155.779816 239.860784 
L 156.119407 239.046598 
L 156.656758 229.019413 
L 156.796403 232.531609 
L 157.301316 223.68679 
L 157.757202 234.009169 
L 158.452523 220.276059 
L 159.162273 225.596605 
L 159.384464 222.890132 
L 159.670593 227.962995 
L 160.071661 221.498901 
L 160.366999 234.548892 
L 160.749095 232.968804 
L 160.804978 219.989093 
L 161.174532 219.419036 
L 161.227652 233.550451 
L 161.630791 242.435036 
L 161.768899 227.894085 
L 162.142391 238.066857 
L 162.595215 223.51861 
L 162.695241 222.17423 
L 163.478465 229.787308 
L 163.750805 239.770049 
L 163.837488 223.544395 
L 163.981839 242.935048 
L 164.113457 225.281697 
L 164.325346 229.305841 
L 165.081625 230.678128 
L 165.386577 223.258384 
L 166.548269 223.402086 
L 166.648624 240.951589 
L 167.037981 224.582021 
L 167.244178 220.756351 
L 167.990075 218.888483 
L 168.33117 227.142817 
L 168.6949 218.086132 
L 169.1541 218.358163 
L 169.289871 219.01169 
L 169.771213 218.166668 
L 170.828201 218.893809 
L 171.020045 224.479764 
L 171.411654 225.464782 
L 171.665809 223.065343 
L 171.673092 235.595976 
L 172.579782 213.712631 
L 172.590624 221.547752 
L 172.836341 214.972052 
L 173.52697 222.650613 
L 173.583301 215.454764 
L 174.870818 223.263513 
L 175.307396 218.788856 
L 175.325242 210.882446 
L 175.646178 210.182682 
L 176.242254 216.314959 
L 176.414906 213.176823 
L 176.564669 216.750615 
L 176.724683 219.910834 
L 176.890474 215.952125 
L 176.920016 221.771679 
L 177.890427 211.504358 
L 178.260806 209.314165 
L 178.374718 220.464225 
L 178.381869 225.887899 
L 179.13076 224.91544 
L 179.320532 212.497597 
L 180.152851 226.247309 
L 181.048028 213.762289 
L 181.694777 219.970858 
L 181.709701 213.701415 
L 181.834342 213.787455 
L 182.427492 210.68475 
L 182.548315 221.40802 
L 183.277732 209.092999 
L 183.574381 207.812688 
L 183.958129 218.898927 
L 184.031989 204.469983 
L 184.607879 226.010202 
L 184.843231 215.024047 
L 185.305822 208.229779 
L 185.539818 218.900012 
L 186.006623 216.073822 
L 186.090964 213.045095 
L 186.522269 211.134319 
L 186.525906 213.167297 
L 186.903228 215.708241 
L 187.247128 209.347536 
L 187.482262 223.132512 
L 188.096201 202.802372 
L 188.772232 207.892337 
L 189.092892 220.580536 
L 189.126019 208.22655 
L 189.469324 223.624292 
L 189.693383 220.360675 
L 189.733098 216.772695 
L 190.231928 209.547602 
L 191.494331 206.400693 
L 191.67339 218.938553 
L 191.745919 206.158181 
L 191.93391 204.230771 
L 192.348555 215.420445 
L 192.956444 205.583845 
L 193.066562 212.369349 
L 193.162813 206.958455 
L 193.549965 215.814042 
L 194.138576 201.199193 
L 194.666377 201.523419 
L 194.936473 217.891063 
L 195.5967 202.275628 
L 195.994707 209.755331 
L 196.684994 210.965291 
L 197.129322 207.683824 
L 197.47729 209.549121 
L 197.682085 228.163579 
L 197.69844 199.117468 
L 197.776476 206.466094 
L 197.83609 206.414286 
L 198.057583 203.867119 
L 198.198815 199.013487 
L 198.489858 198.384129 
L 198.83633 199.292515 
L 199.12595 203.045728 
L 199.838283 209.303853 
L 199.900992 199.042049 
L 200.196673 195.724101 
L 200.216129 199.162213 
L 200.536862 208.512514 
L 201.309781 203.327007 
L 201.734981 211.450544 
L 202.704897 191.997291 
L 203.253957 204.469136 
L 203.353249 194.184347 
L 204.179009 199.436295 
L 204.22502 207.946611 
L 204.414012 203.397015 
L 205.195504 205.637849 
L 205.734787 200.929992 
L 205.961978 203.355495 
L 206.306669 191.056402 
L 206.856842 200.420868 
L 207.13817 198.907221 
L 207.299808 209.510911 
L 207.397029 196.336698 
L 207.821514 198.293052 
L 208.026542 213.280047 
L 208.253896 198.111406 
L 208.476752 191.441276 
L 208.540342 196.358634 
L 208.717348 201.157275 
L 208.829206 197.566585 
L 210.773329 206.859878 
L 210.786176 198.310947 
L 210.830392 204.492693 
L 210.995427 202.552966 
L 211.139436 197.781391 
L 211.519245 194.695825 
L 212.151277 192.622287 
L 212.199069 193.05378 
L 212.673091 192.693992 
L 212.760646 196.048786 
L 212.972139 196.098807 
L 213.071733 213.031944 
L 213.153279 203.055141 
L 213.952617 207.391229 
L 214.15163 200.925004 
L 214.436156 200.35241 
L 215.98279 194.759558 
L 215.991518 196.05519 
L 216.270976 189.317659 
L 216.862242 189.380181 
L 217.070489 187.654485 
L 217.577222 186.926013 
L 217.675767 193.618399 
L 217.730662 186.225598 
L 218.087831 202.116489 
L 219.023813 205.697318 
L 219.124395 193.475912 
L 219.496564 194.889779 
L 219.681606 190.912298 
L 220.063317 190.941568 
L 220.163035 200.470116 
L 220.347822 187.331365 
L 220.906694 186.963854 
L 221.111808 191.084492 
L 221.237116 191.158183 
L 221.439799 207.223896 
L 221.930554 186.51555 
L 222.674026 189.299271 
L 223.217399 185.420544 
L 223.413846 201.136354 
L 223.545629 180.835908 
L 223.55496 186.472045 
L 223.74125 204.602713 
L 223.833 191.867793 
L 223.97712 199.753597 
L 224.173171 180.47802 
L 225.750291 186.627141 
L 225.85184 183.624949 
L 226.436294 194.622205 
L 226.533202 181.664361 
L 227.868677 197.700647 
L 227.876217 192.499155 
L 228.137735 181.209423 
L 228.758189 196.700721 
L 228.75834 192.216843 
L 229.057214 185.391968 
L 229.111641 178.283421 
L 229.47848 193.376049 
L 229.586572 182.897598 
L 229.766374 186.731475 
L 229.826513 178.418782 
L 230.056406 185.326676 
L 230.838707 184.44437 
L 230.923169 194.598687 
L 231.363492 193.300905 
L 232.213301 186.31775 
L 232.369834 195.574188 
L 232.541533 179.558636 
L 232.57467 183.283443 
L 232.917998 191.09244 
L 233.83798 178.113371 
L 234.009738 188.013728 
L 234.038053 176.106066 
L 234.249059 191.236941 
L 234.343876 186.570948 
L 234.882221 181.347521 
L 235.096364 172.615783 
L 235.322718 193.083319 
L 235.433717 190.477353 
L 236.378258 175.092157 
L 237.545272 184.68493 
L 237.746322 183.864912 
L 237.935447 179.021044 
L 238.187681 177.648549 
L 238.607371 185.40541 
L 239.620135 185.97297 
L 240.387842 185.125814 
L 240.845747 173.394851 
L 241.126099 176.036942 
L 241.262012 179.708269 
L 241.310441 170.762736 
L 241.313645 186.285521 
L 241.584324 174.482188 
L 242.520102 178.099116 
L 242.948913 167.683269 
L 242.992786 171.99058 
L 243.448597 175.791474 
L 245.059838 171.665081 
L 245.158082 168.907013 
L 245.655103 178.592138 
L 245.975253 174.450347 
L 246.572279 179.540732 
L 246.747931 167.162642 
L 247.098895 170.408521 
L 247.42308 184.333606 
L 247.475147 173.370825 
L 247.675776 170.868858 
L 247.975171 181.081757 
L 247.987385 165.83147 
L 248.129261 169.519926 
L 248.485414 171.172426 
L 248.513907 177.84901 
L 248.686244 179.484094 
L 248.981336 174.503705 
L 249.083347 167.625299 
L 249.175419 173.536046 
L 249.505265 173.811293 
L 249.62933 173.017046 
L 250.493894 168.755641 
L 250.665211 169.844497 
L 250.866326 183.781316 
L 250.90127 171.853635 
L 252.474346 170.785553 
L 252.844014 170.16407 
L 253.107554 163.116026 
L 253.738545 165.015563 
L 253.969717 166.166609 
L 253.991245 168.216467 
L 254.605366 170.193296 
L 254.789858 171.534665 
L 254.808697 173.68515 
L 255.754202 174.270586 
L 255.778739 177.738668 
L 256.20705 164.69731 
L 256.216135 171.485729 
L 256.27782 166.836132 
L 256.397867 167.959081 
L 256.844158 180.363098 
L 256.849444 173.284871 
L 257.171782 170.116891 
L 257.306337 176.756406 
L 257.737114 160.125727 
L 257.79696 171.88867 
L 258.514717 163.845418 
L 258.67737 163.698268 
L 258.82081 159.43717 
L 258.918317 167.139503 
L 259.264821 167.529532 
L 259.501306 163.358084 
L 260.156132 171.246618 
L 260.688362 160.742885 
L 260.901459 159.753593 
L 261.758913 177.97197 
L 262.520021 164.692389 
L 264.141495 167.850131 
L 264.347396 162.217715 
L 264.853172 174.162031 
L 265.520203 163.706594 
L 266.426914 170.46836 
L 266.47727 155.699237 
L 266.650571 156.661116 
L 266.784127 175.321206 
L 266.972205 154.855319 
L 267.154042 163.788167 
L 267.168292 174.24945 
L 267.350568 153.573656 
L 267.603589 160.105176 
L 267.664081 155.677601 
L 267.733748 155.875919 
L 267.882247 159.309157 
L 268.059559 175.929886 
L 268.271466 159.074072 
L 268.346641 165.769029 
L 268.375083 179.703287 
L 268.43661 158.379478 
L 269.351241 158.58783 
L 270.316018 153.935343 
L 270.40045 152.366382 
L 271.350977 164.385137 
L 271.884704 169.15128 
L 272.340981 162.275673 
L 272.36674 166.970589 
L 272.44359 151.658395 
L 272.634292 173.262502 
L 272.817966 162.848633 
L 273.133825 168.736383 
L 273.301359 159.225744 
L 273.83974 162.869405 
L 274.599819 157.264111 
L 274.935459 160.115127 
L 276.457401 152.591932 
L 276.951728 154.114291 
L 277.406208 165.744578 
L 277.635834 148.776876 
L 278.293101 164.661366 
L 279.893083 155.219615 
L 279.910158 145.98517 
L 279.96406 159.061794 
L 280.034931 148.917804 
L 280.116891 152.705038 
L 280.128963 159.954198 
L 280.467526 150.648867 
L 280.588526 158.312102 
L 280.700568 145.341406 
L 281.022437 162.111391 
L 281.274823 145.954766 
L 281.557836 154.569676 
L 282.468026 150.496622 
L 282.577852 148.026841 
L 282.93395 147.961653 
L 283.268588 159.278257 
L 283.387362 152.688332 
L 283.629045 164.09318 
L 283.802241 147.599982 
L 284.769068 142.09962 
L 286.069293 158.351879 
L 286.12109 142.552042 
L 286.479137 152.706163 
L 286.540805 163.218915 
L 286.546899 144.983881 
L 286.915758 158.123027 
L 287.142298 144.087279 
L 288.759787 157.083532 
L 289.344285 151.987339 
L 289.46569 148.023923 
L 289.780725 144.206304 
L 289.945965 155.627152 
L 290.354636 148.570278 
L 290.36707 152.079389 
L 291.046914 144.03362 
L 291.415358 146.375253 
L 291.626377 149.524641 
L 292.65177 140.553254 
L 292.736943 156.957121 
L 293.260555 143.970672 
L 293.688756 140.756571 
L 294.090238 136.692493 
L 294.268784 142.788861 
L 294.546184 147.664448 
L 294.812476 145.287625 
L 294.823803 140.196638 
L 294.979531 163.640204 
L 295.426276 162.872583 
L 295.552812 149.517273 
L 295.93802 148.688672 
L 297.350609 139.765455 
L 297.356782 143.020434 
L 297.402518 135.890358 
L 297.760022 150.111877 
L 298.065314 153.105467 
L 298.36093 151.575491 
L 298.403038 143.593846 
L 299.680046 135.207504 
L 300.050937 139.487406 
L 300.080604 138.700529 
L 300.152973 148.020959 
L 300.419153 147.181555 
L 300.650824 137.179815 
L 300.811187 139.656948 
L 301.485478 138.903922 
L 302.237765 133.894354 
L 302.313279 135.060266 
L 302.53203 144.298024 
L 302.562582 153.056062 
L 302.861333 145.182842 
L 303.021237 146.847532 
L 303.466478 135.864267 
L 304.103973 135.435737 
L 304.251844 136.642265 
L 304.88004 134.773682 
L 305.320484 148.24939 
L 305.333121 139.263234 
L 306.771575 135.586486 
L 306.972428 135.791431 
L 307.446468 142.812156 
L 307.592963 132.972028 
L 307.681733 144.157883 
L 308.370961 137.961415 
L 308.686386 133.434892 
L 308.777032 141.00537 
L 309.885648 137.237279 
L 310.078813 149.109629 
L 310.1485 133.747929 
L 310.519705 134.840053 
L 310.655225 143.934276 
L 310.946614 132.551199 
L 311.72311 154.968261 
L 312.23063 136.322196 
L 312.919822 132.857984 
L 313.299689 127.426245 
L 313.637466 133.993425 
L 313.834289 140.211595 
L 314.48188 150.256374 
L 314.56211 142.897062 
L 314.671648 143.513578 
L 314.928028 130.168769 
L 315.546948 125.488552 
L 315.587257 123.959273 
L 315.65873 126.980451 
L 315.960699 131.248347 
L 316.079606 129.103973 
L 317.165125 141.099572 
L 317.361485 125.396282 
L 317.613027 134.577358 
L 317.689338 143.610034 
L 317.748294 125.841968 
L 317.810626 130.236111 
L 317.867327 131.502038 
L 318.323469 124.308142 
L 318.737175 136.448947 
L 318.972935 136.881729 
L 319.110619 120.167377 
L 319.3393 137.060163 
L 320.152504 122.275285 
L 320.791534 121.226962 
L 321.209432 138.507403 
L 321.282384 131.92612 
L 321.750067 131.546835 
L 322.489063 122.908625 
L 322.583822 120.676196 
L 323.757328 122.106689 
L 323.856367 133.01914 
L 323.954716 123.272002 
L 324.723251 130.868621 
L 325.684721 117.206712 
L 325.810203 124.474465 
L 326.022373 143.77545 
L 326.193449 118.95816 
L 326.40906 126.28882 
L 326.916444 127.312337 
L 327.151652 125.728264 
L 327.806716 148.413903 
L 328.245882 119.508553 
L 328.507974 126.882468 
L 329.415938 119.768627 
L 329.588198 133.044454 
L 329.603942 130.897894 
L 329.661298 121.631943 
L 330.065647 114.267723 
L 330.145159 140.124953 
L 330.283541 128.626803 
L 330.422051 129.760597 
L 330.617808 114.773597 
L 331.630154 123.543369 
L 331.639195 118.97307 
L 331.910537 124.778727 
L 332.144966 125.46024 
L 332.161966 119.681039 
L 332.29551 120.827938 
L 333.262494 115.398536 
L 334.555695 118.163992 
L 335.327488 129.341995 
L 335.981453 115.871215 
L 336.668617 120.088659 
L 336.826848 114.310677 
L 336.838549 121.215272 
L 337.201721 118.25771 
L 337.381274 112.928691 
L 337.515282 120.067499 
L 337.716955 117.178727 
L 337.90798 110.775977 
L 338.699501 128.903485 
L 339.264994 123.918232 
L 339.820011 110.725652 
L 340.242727 114.917275 
L 340.687561 109.167742 
L 341.259002 112.864232 
L 341.362586 128.619217 
L 341.811334 110.29182 
L 341.889944 111.886959 
L 342.861353 113.224773 
L 343.160174 129.380747 
L 343.289471 111.616145 
L 343.807817 115.056149 
L 343.980883 121.282099 
L 344.823004 132.885052 
L 344.968511 112.392048 
L 345.070273 123.756672 
L 345.966557 115.254751 
L 346.001258 112.237068 
L 346.27116 119.82314 
L 346.411915 133.28864 
L 346.544259 116.230834 
L 347.134056 103.214365 
L 347.247645 108.1751 
L 347.584082 110.838146 
L 347.852587 122.069503 
L 348.179557 114.685645 
L 349.427719 117.301757 
L 349.442282 124.989591 
L 350.567892 112.627175 
L 350.615096 103.813457 
L 350.646112 110.327843 
L 351.007783 102.819356 
L 351.269486 105.173261 
L 351.492957 111.694531 
L 351.592329 122.532443 
L 351.780238 114.342274 
L 351.905857 101.331361 
L 352.491934 102.912738 
L 353.22871 102.174105 
L 353.34482 103.398793 
L 353.58229 110.531333 
L 354.143572 103.994258 
L 354.373449 102.726675 
L 354.40028 124.705499 
L 355.266173 104.781152 
L 355.572129 100.68934 
L 356.036331 104.427348 
L 356.053557 107.575114 
L 356.272188 109.061338 
L 356.564616 97.963172 
L 356.583241 114.900956 
L 356.611181 105.787627 
L 356.998678 112.843992 
L 358.090074 98.052963 
L 359.10178 114.689719 
L 359.470677 99.546923 
L 359.649701 114.155751 
L 359.809074 105.564636 
L 360.26049 131.214874 
L 360.428846 103.420324 
L 361.61488 99.513986 
L 362.106784 97.267024 
L 362.205223 115.936993 
L 363.120622 97.714645 
L 363.123636 112.333049 
L 363.447361 94.465991 
L 363.507913 98.258491 
L 363.590647 92.591877 
L 363.682083 106.883972 
L 364.135327 103.968878 
L 364.278455 90.875711 
L 364.486561 104.668276 
L 365.253394 106.911384 
L 365.388318 99.263308 
L 365.549929 99.681797 
L 366.111871 115.590562 
L 366.63441 104.73152 
L 366.725326 100.248275 
L 367.200845 106.699773 
L 367.583095 95.533328 
L 368.084874 102.492067 
L 368.385545 84.736488 
L 368.909631 72.620177 
L 369.206808 92.725739 
L 369.923427 93.424047 
L 370.045526 117.670131 
L 370.690857 92.000707 
L 371.026784 109.25433 
L 371.083404 94.694777 
L 371.279246 94.388797 
L 371.517414 93.737403 
L 371.593813 107.174343 
L 371.967242 119.201077 
L 371.986242 85.850819 
L 372.378905 90.422493 
L 372.89629 94.279663 
L 373.617674 92.757221 
L 373.782445 99.574262 
L 373.787631 80.143558 
L 374.072687 53.568 
L 374.104289 97.305526 
L 374.578259 95.870654 
L 374.625536 95.111126 
L 374.711989 91.383171 
L 374.936168 103.547166 
L 375.079363 90.042067 
L 375.522496 92.325462 
L 375.680969 87.851793 
L 375.77776 108.156778 
L 376.036906 84.786261 
L 376.375122 94.908099 
L 376.682884 95.35793 
L 376.911152 89.395858 
L 377.934702 75.077413 
L 378.983185 91.034691 
L 379.107056 88.451416 
L 379.36206 104.562534 
L 380.478715 97.271456 
L 380.481586 89.839124 
L 380.723384 88.654632 
L 380.915807 98.450845 
L 381.109939 80.380448 
L 381.237678 88.771036 
L 381.63562 94.859167 
L 382.129093 87.519192 
L 383.225143 101.4299 
L 383.465997 94.103678 
L 383.804427 88.966933 
L 383.937307 89.232 
L 384.984076 89.831848 
L 385.389921 70.704044 
L 385.85956 88.79599 
L 386.316927 84.942378 
L 386.614622 93.810585 
L 387.331724 86.457431 
L 387.416826 89.721397 
L 387.72451 89.530631 
L 388.009736 78.300506 
L 388.111117 89.211473 
L 388.587985 81.119327 
L 388.807316 93.442022 
L 389.614558 83.613577 
L 389.768384 89.136767 
L 390.160987 87.659648 
L 390.202021 88.679226 
L 390.555379 88.429829 
L 390.94574 85.633922 
L 391.494802 92.217987 
L 391.554017 99.443895 
L 391.886772 87.378638 
L 392.162058 102.599669 
L 392.854374 93.622395 
L 392.956599 87.854872 
L 393.421668 89.214904 
L 393.804133 89.074449 
L 394.218655 81.294896 
L 397.309973 88.939059 
L 398.487273 86.038904 
L 398.487273 86.038904 
" clip-path="url(#pb799535599)" style="fill: none; stroke: #1f77b4; stroke-width: 1.5; stroke-linecap: square"/>
   </g>
   <g id="line2d_30">
    <path d="M 73.832727 269.603446 
L 398.487273 69.147888 
L 398.487273 69.147888 
" clip-path="url(#pb799535599)" style="fill: none; stroke: #ff7f0e; stroke-width: 1.5; stroke-linecap: square"/>
   </g>
   <g id="patch_3">
    <path d="M 57.6 307.584 
L 57.6 41.472 
" style="fill: none; stroke: #000000; stroke-width: 0.8; stroke-linejoin: miter; stroke-linecap: square"/>
   </g>
   <g id="patch_4">
    <path d="M 414.72 307.584 
L 414.72 41.472 
" style="fill: none; stroke: #000000; stroke-width: 0.8; stroke-linejoin: miter; stroke-linecap: square"/>
   </g>
   <g id="patch_5">
    <path d="M 57.6 307.584 
L 414.72 307.584 
" style="fill: none; stroke: #000000; stroke-width: 0.8; stroke-linejoin: miter; stroke-linecap: square"/>
   </g>
   <g id="patch_6">
    <path d="M 57.6 41.472 
L 414.72 41.472 
" style="fill: none; stroke: #000000; stroke-width: 0.8; stroke-linejoin: miter; stroke-linecap: square"/>
   </g>
   <g id="text_17">
    <!-- Perturbation when A is disturbed (m = 2) -->
    <g transform="translate(112.648125 35.472) scale(0.12 -0.12)">
     <defs>
      <path id="DejaVuSans-50" d="M 1259 4147 
L 1259 2394 
L 2053 2394 
Q 2494 2394 2734 2622 
Q 2975 2850 2975 3272 
Q 2975 3691 2734 3919 
Q 2494 4147 2053 4147 
L 1259 4147 
z
M 628 4666 
L 2053 4666 
Q 2838 4666 3239 4311 
Q 3641 3956 3641 3272 
Q 3641 2581 3239 2228 
Q 2838 1875 2053 1875 
L 1259 1875 
L 1259 0 
L 628 0 
L 628 4666 
z
" transform="scale(0.015625)"/>
      <path id="DejaVuSans-65" d="M 3597 1894 
L 3597 1613 
L 953 1613 
Q 991 1019 1311 708 
Q 1631 397 2203 397 
Q 2534 397 2845 478 
Q 3156 559 3463 722 
L 3463 178 
Q 3153 47 2828 -22 
Q 2503 -91 2169 -91 
Q 1331 -91 842 396 
Q 353 884 353 1716 
Q 353 2575 817 3079 
Q 1281 3584 2069 3584 
Q 2775 3584 3186 3129 
Q 3597 2675 3597 1894 
z
M 3022 2063 
Q 3016 2534 2758 2815 
Q 2500 3097 2075 3097 
Q 1594 3097 1305 2825 
Q 1016 2553 972 2059 
L 3022 2063 
z
" transform="scale(0.015625)"/>
      <path id="DejaVuSans-72" d="M 2631 2963 
Q 2534 3019 2420 3045 
Q 2306 3072 2169 3072 
Q 1681 3072 1420 2755 
Q 1159 2438 1159 1844 
L 1159 0 
L 581 0 
L 581 3500 
L 1159 3500 
L 1159 2956 
Q 1341 3275 1631 3429 
Q 1922 3584 2338 3584 
Q 2397 3584 2469 3576 
Q 2541 3569 2628 3553 
L 2631 2963 
z
" transform="scale(0.015625)"/>
      <path id="DejaVuSans-74" d="M 1172 4494 
L 1172 3500 
L 2356 3500 
L 2356 3053 
L 1172 3053 
L 1172 1153 
Q 1172 725 1289 603 
Q 1406 481 1766 481 
L 2356 481 
L 2356 0 
L 1766 0 
Q 1100 0 847 248 
Q 594 497 594 1153 
L 594 3053 
L 172 3053 
L 172 3500 
L 594 3500 
L 594 4494 
L 1172 4494 
z
" transform="scale(0.015625)"/>
      <path id="DejaVuSans-75" d="M 544 1381 
L 544 3500 
L 1119 3500 
L 1119 1403 
Q 1119 906 1312 657 
Q 1506 409 1894 409 
Q 2359 409 2629 706 
Q 2900 1003 2900 1516 
L 2900 3500 
L 3475 3500 
L 3475 0 
L 2900 0 
L 2900 538 
Q 2691 219 2414 64 
Q 2138 -91 1772 -91 
Q 1169 -91 856 284 
Q 544 659 544 1381 
z
M 1991 3584 
L 1991 3584 
z
" transform="scale(0.015625)"/>
      <path id="DejaVuSans-62" d="M 3116 1747 
Q 3116 2381 2855 2742 
Q 2594 3103 2138 3103 
Q 1681 3103 1420 2742 
Q 1159 2381 1159 1747 
Q 1159 1113 1420 752 
Q 1681 391 2138 391 
Q 2594 391 2855 752 
Q 3116 1113 3116 1747 
z
M 1159 2969 
Q 1341 3281 1617 3432 
Q 1894 3584 2278 3584 
Q 2916 3584 3314 3078 
Q 3713 2572 3713 1747 
Q 3713 922 3314 415 
Q 2916 -91 2278 -91 
Q 1894 -91 1617 61 
Q 1341 213 1159 525 
L 1159 0 
L 581 0 
L 581 4863 
L 1159 4863 
L 1159 2969 
z
" transform="scale(0.015625)"/>
      <path id="DejaVuSans-61" d="M 2194 1759 
Q 1497 1759 1228 1600 
Q 959 1441 959 1056 
Q 959 750 1161 570 
Q 1363 391 1709 391 
Q 2188 391 2477 730 
Q 2766 1069 2766 1631 
L 2766 1759 
L 2194 1759 
z
M 3341 1997 
L 3341 0 
L 2766 0 
L 2766 531 
Q 2569 213 2275 61 
Q 1981 -91 1556 -91 
Q 1019 -91 701 211 
Q 384 513 384 1019 
Q 384 1609 779 1909 
Q 1175 2209 1959 2209 
L 2766 2209 
L 2766 2266 
Q 2766 2663 2505 2880 
Q 2244 3097 1772 3097 
Q 1472 3097 1187 3025 
Q 903 2953 641 2809 
L 641 3341 
Q 956 3463 1253 3523 
Q 1550 3584 1831 3584 
Q 2591 3584 2966 3190 
Q 3341 2797 3341 1997 
z
" transform="scale(0.015625)"/>
      <path id="DejaVuSans-69" d="M 603 3500 
L 1178 3500 
L 1178 0 
L 603 0 
L 603 3500 
z
M 603 4863 
L 1178 4863 
L 1178 4134 
L 603 4134 
L 603 4863 
z
" transform="scale(0.015625)"/>
      <path id="DejaVuSans-6f" d="M 1959 3097 
Q 1497 3097 1228 2736 
Q 959 2375 959 1747 
Q 959 1119 1226 758 
Q 1494 397 1959 397 
Q 2419 397 2687 759 
Q 2956 1122 2956 1747 
Q 2956 2369 2687 2733 
Q 2419 3097 1959 3097 
z
M 1959 3584 
Q 2709 3584 3137 3096 
Q 3566 2609 3566 1747 
Q 3566 888 3137 398 
Q 2709 -91 1959 -91 
Q 1206 -91 779 398 
Q 353 888 353 1747 
Q 353 2609 779 3096 
Q 1206 3584 1959 3584 
z
" transform="scale(0.015625)"/>
      <path id="DejaVuSans-6e" d="M 3513 2113 
L 3513 0 
L 2938 0 
L 2938 2094 
Q 2938 2591 2744 2837 
Q 2550 3084 2163 3084 
Q 1697 3084 1428 2787 
Q 1159 2491 1159 1978 
L 1159 0 
L 581 0 
L 581 3500 
L 1159 3500 
L 1159 2956 
Q 1366 3272 1645 3428 
Q 1925 3584 2291 3584 
Q 2894 3584 3203 3211 
Q 3513 2838 3513 2113 
z
" transform="scale(0.015625)"/>
      <path id="DejaVuSans-20" transform="scale(0.015625)"/>
      <path id="DejaVuSans-77" d="M 269 3500 
L 844 3500 
L 1563 769 
L 2278 3500 
L 2956 3500 
L 3675 769 
L 4391 3500 
L 4966 3500 
L 4050 0 
L 3372 0 
L 2619 2869 
L 1863 0 
L 1184 0 
L 269 3500 
z
" transform="scale(0.015625)"/>
      <path id="DejaVuSans-68" d="M 3513 2113 
L 3513 0 
L 2938 0 
L 2938 2094 
Q 2938 2591 2744 2837 
Q 2550 3084 2163 3084 
Q 1697 3084 1428 2787 
Q 1159 2491 1159 1978 
L 1159 0 
L 581 0 
L 581 4863 
L 1159 4863 
L 1159 2956 
Q 1366 3272 1645 3428 
Q 1925 3584 2291 3584 
Q 2894 3584 3203 3211 
Q 3513 2838 3513 2113 
z
" transform="scale(0.015625)"/>
      <path id="DejaVuSans-73" d="M 2834 3397 
L 2834 2853 
Q 2591 2978 2328 3040 
Q 2066 3103 1784 3103 
Q 1356 3103 1142 2972 
Q 928 2841 928 2578 
Q 928 2378 1081 2264 
Q 1234 2150 1697 2047 
L 1894 2003 
Q 2506 1872 2764 1633 
Q 3022 1394 3022 966 
Q 3022 478 2636 193 
Q 2250 -91 1575 -91 
Q 1294 -91 989 -36 
Q 684 19 347 128 
L 347 722 
Q 666 556 975 473 
Q 1284 391 1588 391 
Q 1994 391 2212 530 
Q 2431 669 2431 922 
Q 2431 1156 2273 1281 
Q 2116 1406 1581 1522 
L 1381 1569 
Q 847 1681 609 1914 
Q 372 2147 372 2553 
Q 372 3047 722 3315 
Q 1072 3584 1716 3584 
Q 2034 3584 2315 3537 
Q 2597 3491 2834 3397 
z
" transform="scale(0.015625)"/>
      <path id="DejaVuSans-64" d="M 2906 2969 
L 2906 4863 
L 3481 4863 
L 3481 0 
L 2906 0 
L 2906 525 
Q 2725 213 2448 61 
Q 2172 -91 1784 -91 
Q 1150 -91 751 415 
Q 353 922 353 1747 
Q 353 2572 751 3078 
Q 1150 3584 1784 3584 
Q 2172 3584 2448 3432 
Q 2725 3281 2906 2969 
z
M 947 1747 
Q 947 1113 1208 752 
Q 1469 391 1925 391 
Q 2381 391 2643 752 
Q 2906 1113 2906 1747 
Q 2906 2381 2643 2742 
Q 2381 3103 1925 3103 
Q 1469 3103 1208 2742 
Q 947 2381 947 1747 
z
" transform="scale(0.015625)"/>
      <path id="DejaVuSans-28" d="M 1984 4856 
Q 1566 4138 1362 3434 
Q 1159 2731 1159 2009 
Q 1159 1288 1364 580 
Q 1569 -128 1984 -844 
L 1484 -844 
Q 1016 -109 783 600 
Q 550 1309 550 2009 
Q 550 2706 781 3412 
Q 1013 4119 1484 4856 
L 1984 4856 
z
" transform="scale(0.015625)"/>
      <path id="DejaVuSans-6d" d="M 3328 2828 
Q 3544 3216 3844 3400 
Q 4144 3584 4550 3584 
Q 5097 3584 5394 3201 
Q 5691 2819 5691 2113 
L 5691 0 
L 5113 0 
L 5113 2094 
Q 5113 2597 4934 2840 
Q 4756 3084 4391 3084 
Q 3944 3084 3684 2787 
Q 3425 2491 3425 1978 
L 3425 0 
L 2847 0 
L 2847 2094 
Q 2847 2600 2669 2842 
Q 2491 3084 2119 3084 
Q 1678 3084 1418 2786 
Q 1159 2488 1159 1978 
L 1159 0 
L 581 0 
L 581 3500 
L 1159 3500 
L 1159 2956 
Q 1356 3278 1631 3431 
Q 1906 3584 2284 3584 
Q 2666 3584 2933 3390 
Q 3200 3197 3328 2828 
z
" transform="scale(0.015625)"/>
      <path id="DejaVuSans-3d" d="M 678 2906 
L 4684 2906 
L 4684 2381 
L 678 2381 
L 678 2906 
z
M 678 1631 
L 4684 1631 
L 4684 1100 
L 678 1100 
L 678 1631 
z
" transform="scale(0.015625)"/>
      <path id="DejaVuSans-29" d="M 513 4856 
L 1013 4856 
Q 1481 4119 1714 3412 
Q 1947 2706 1947 2009 
Q 1947 1309 1714 600 
Q 1481 -109 1013 -844 
L 513 -844 
Q 928 -128 1133 580 
Q 1338 1288 1338 2009 
Q 1338 2731 1133 3434 
Q 928 4138 513 4856 
z
" transform="scale(0.015625)"/>
     </defs>
     <use xlink:href="#DejaVuSans-50"/>
     <use xlink:href="#DejaVuSans-65" x="56.677734"/>
     <use xlink:href="#DejaVuSans-72" x="118.201172"/>
     <use xlink:href="#DejaVuSans-74" x="159.314453"/>
     <use xlink:href="#DejaVuSans-75" x="198.523438"/>
     <use xlink:href="#DejaVuSans-72" x="261.902344"/>
     <use xlink:href="#DejaVuSans-62" x="303.015625"/>
     <use xlink:href="#DejaVuSans-61" x="366.492188"/>
     <use xlink:href="#DejaVuSans-74" x="427.771484"/>
     <use xlink:href="#DejaVuSans-69" x="466.980469"/>
     <use xlink:href="#DejaVuSans-6f" x="494.763672"/>
     <use xlink:href="#DejaVuSans-6e" x="555.945312"/>
     <use xlink:href="#DejaVuSans-20" x="619.324219"/>
     <use xlink:href="#DejaVuSans-77" x="651.111328"/>
     <use xlink:href="#DejaVuSans-68" x="732.898438"/>
     <use xlink:href="#DejaVuSans-65" x="796.277344"/>
     <use xlink:href="#DejaVuSans-6e" x="857.800781"/>
     <use xlink:href="#DejaVuSans-20" x="921.179688"/>
     <use xlink:href="#DejaVuSans-41" x="952.966797"/>
     <use xlink:href="#DejaVuSans-20" x="1021.375"/>
     <use xlink:href="#DejaVuSans-69" x="1053.162109"/>
     <use xlink:href="#DejaVuSans-73" x="1080.945312"/>
     <use xlink:href="#DejaVuSans-20" x="1133.044922"/>
     <use xlink:href="#DejaVuSans-64" x="1164.832031"/>
     <use xlink:href="#DejaVuSans-69" x="1228.308594"/>
     <use xlink:href="#DejaVuSans-73" x="1256.091797"/>
     <use xlink:href="#DejaVuSans-74" x="1308.191406"/>
     <use xlink:href="#DejaVuSans-75" x="1347.400391"/>
     <use xlink:href="#DejaVuSans-72" x="1410.779297"/>
     <use xlink:href="#DejaVuSans-62" x="1451.892578"/>
     <use xlink:href="#DejaVuSans-65" x="1515.369141"/>
     <use xlink:href="#DejaVuSans-64" x="1576.892578"/>
     <use xlink:href="#DejaVuSans-20" x="1640.369141"/>
     <use xlink:href="#DejaVuSans-28" x="1672.15625"/>
     <use xlink:href="#DejaVuSans-6d" x="1711.169922"/>
     <use xlink:href="#DejaVuSans-20" x="1808.582031"/>
     <use xlink:href="#DejaVuSans-3d" x="1840.369141"/>
     <use xlink:href="#DejaVuSans-20" x="1924.158203"/>
     <use xlink:href="#DejaVuSans-32" x="1955.945312"/>
     <use xlink:href="#DejaVuSans-29" x="2019.568359"/>
    </g>
   </g>
   <g id="legend_1">
    <g id="patch_7">
     <path d="M 64.6 79.250125 
L 303.5 79.250125 
Q 305.5 79.250125 305.5 77.250125 
L 305.5 48.472 
Q 305.5 46.472 303.5 46.472 
L 64.6 46.472 
Q 62.6 46.472 62.6 48.472 
L 62.6 77.250125 
Q 62.6 79.250125 64.6 79.250125 
z
" style="fill: #ffffff; opacity: 0.8; stroke: #cccccc; stroke-linejoin: miter"/>
    </g>
    <g id="line2d_31">
     <path d="M 66.6 54.570437 
L 76.6 54.570437 
L 86.6 54.570437 
" style="fill: none; stroke: #1f77b4; stroke-width: 1.5; stroke-linecap: square"/>
    </g>
    <g id="text_18">
     <!-- relative solution perturbation -->
     <g transform="translate(94.6 58.070437) scale(0.1 -0.1)">
      <defs>
       <path id="DejaVuSans-6c" d="M 603 4863 
L 1178 4863 
L 1178 0 
L 603 0 
L 603 4863 
z
" transform="scale(0.015625)"/>
       <path id="DejaVuSans-76" d="M 191 3500 
L 800 3500 
L 1894 563 
L 2988 3500 
L 3597 3500 
L 2284 0 
L 1503 0 
L 191 3500 
z
" transform="scale(0.015625)"/>
       <path id="DejaVuSans-70" d="M 1159 525 
L 1159 -1331 
L 581 -1331 
L 581 3500 
L 1159 3500 
L 1159 2969 
Q 1341 3281 1617 3432 
Q 1894 3584 2278 3584 
Q 2916 3584 3314 3078 
Q 3713 2572 3713 1747 
Q 3713 922 3314 415 
Q 2916 -91 2278 -91 
Q 1894 -91 1617 61 
Q 1341 213 1159 525 
z
M 3116 1747 
Q 3116 2381 2855 2742 
Q 2594 3103 2138 3103 
Q 1681 3103 1420 2742 
Q 1159 2381 1159 1747 
Q 1159 1113 1420 752 
Q 1681 391 2138 391 
Q 2594 391 2855 752 
Q 3116 1113 3116 1747 
z
" transform="scale(0.015625)"/>
      </defs>
      <use xlink:href="#DejaVuSans-72"/>
      <use xlink:href="#DejaVuSans-65" x="38.863281"/>
      <use xlink:href="#DejaVuSans-6c" x="100.386719"/>
      <use xlink:href="#DejaVuSans-61" x="128.169922"/>
      <use xlink:href="#DejaVuSans-74" x="189.449219"/>
      <use xlink:href="#DejaVuSans-69" x="228.658203"/>
      <use xlink:href="#DejaVuSans-76" x="256.441406"/>
      <use xlink:href="#DejaVuSans-65" x="315.621094"/>
      <use xlink:href="#DejaVuSans-20" x="377.144531"/>
      <use xlink:href="#DejaVuSans-73" x="408.931641"/>
      <use xlink:href="#DejaVuSans-6f" x="461.03125"/>
      <use xlink:href="#DejaVuSans-6c" x="522.212891"/>
      <use xlink:href="#DejaVuSans-75" x="549.996094"/>
      <use xlink:href="#DejaVuSans-74" x="613.375"/>
      <use xlink:href="#DejaVuSans-69" x="652.583984"/>
      <use xlink:href="#DejaVuSans-6f" x="680.367188"/>
      <use xlink:href="#DejaVuSans-6e" x="741.548828"/>
      <use xlink:href="#DejaVuSans-20" x="804.927734"/>
      <use xlink:href="#DejaVuSans-70" x="836.714844"/>
      <use xlink:href="#DejaVuSans-65" x="900.191406"/>
      <use xlink:href="#DejaVuSans-72" x="961.714844"/>
      <use xlink:href="#DejaVuSans-74" x="1002.828125"/>
      <use xlink:href="#DejaVuSans-75" x="1042.037109"/>
      <use xlink:href="#DejaVuSans-72" x="1105.416016"/>
      <use xlink:href="#DejaVuSans-62" x="1146.529297"/>
      <use xlink:href="#DejaVuSans-61" x="1210.005859"/>
      <use xlink:href="#DejaVuSans-74" x="1271.285156"/>
      <use xlink:href="#DejaVuSans-69" x="1310.494141"/>
      <use xlink:href="#DejaVuSans-6f" x="1338.277344"/>
      <use xlink:href="#DejaVuSans-6e" x="1399.458984"/>
     </g>
    </g>
    <g id="line2d_32">
     <path d="M 66.6 69.350125 
L 76.6 69.350125 
L 86.6 69.350125 
" style="fill: none; stroke: #ff7f0e; stroke-width: 1.5; stroke-linecap: square"/>
    </g>
    <g id="text_19">
     <!-- perturbation upper bound ($\kappa_A$*||$\delta$A||/||A||) -->
     <g transform="translate(94.6 72.850125) scale(0.1 -0.1)">
      <defs>
       <path id="DejaVuSans-Oblique-3ba" d="M 938 3500 
L 1531 3500 
L 1247 2047 
L 3041 3500 
L 3741 3500 
L 2106 2181 
L 3275 0 
L 2572 0 
L 1628 1806 
L 1122 1403 
L 850 0 
L 256 0 
L 938 3500 
z
" transform="scale(0.015625)"/>
       <path id="DejaVuSans-Oblique-41" d="M 2356 4666 
L 3072 4666 
L 3938 0 
L 3278 0 
L 3084 1197 
L 984 1197 
L 325 0 
L -341 0 
L 2356 4666 
z
M 2584 4044 
L 1275 1722 
L 2988 1722 
L 2584 4044 
z
" transform="scale(0.015625)"/>
       <path id="DejaVuSans-2a" d="M 3009 3897 
L 1888 3291 
L 3009 2681 
L 2828 2375 
L 1778 3009 
L 1778 1831 
L 1422 1831 
L 1422 3009 
L 372 2375 
L 191 2681 
L 1313 3291 
L 191 3897 
L 372 4206 
L 1422 3572 
L 1422 4750 
L 1778 4750 
L 1778 3572 
L 2828 4206 
L 3009 3897 
z
" transform="scale(0.015625)"/>
      </defs>
      <use xlink:href="#DejaVuSans-70" transform="translate(0 0.578125)"/>
      <use xlink:href="#DejaVuSans-65" transform="translate(63.476562 0.578125)"/>
      <use xlink:href="#DejaVuSans-72" transform="translate(125 0.578125)"/>
      <use xlink:href="#DejaVuSans-74" transform="translate(166.113281 0.578125)"/>
      <use xlink:href="#DejaVuSans-75" transform="translate(205.322266 0.578125)"/>
      <use xlink:href="#DejaVuSans-72" transform="translate(268.701172 0.578125)"/>
      <use xlink:href="#DejaVuSans-62" transform="translate(309.814453 0.578125)"/>
      <use xlink:href="#DejaVuSans-61" transform="translate(373.291016 0.578125)"/>
      <use xlink:href="#DejaVuSans-74" transform="translate(434.570312 0.578125)"/>
      <use xlink:href="#DejaVuSans-69" transform="translate(473.779297 0.578125)"/>
      <use xlink:href="#DejaVuSans-6f" transform="translate(501.5625 0.578125)"/>
      <use xlink:href="#DejaVuSans-6e" transform="translate(562.744141 0.578125)"/>
      <use xlink:href="#DejaVuSans-20" transform="translate(626.123047 0.578125)"/>
      <use xlink:href="#DejaVuSans-75" transform="translate(657.910156 0.578125)"/>
      <use xlink:href="#DejaVuSans-70" transform="translate(721.289062 0.578125)"/>
      <use xlink:href="#DejaVuSans-70" transform="translate(784.765625 0.578125)"/>
      <use xlink:href="#DejaVuSans-65" transform="translate(848.242188 0.578125)"/>
      <use xlink:href="#DejaVuSans-72" transform="translate(909.765625 0.578125)"/>
      <use xlink:href="#DejaVuSans-20" transform="translate(950.878906 0.578125)"/>
      <use xlink:href="#DejaVuSans-62" transform="translate(982.666016 0.578125)"/>
      <use xlink:href="#DejaVuSans-6f" transform="translate(1046.142578 0.578125)"/>
      <use xlink:href="#DejaVuSans-75" transform="translate(1107.324219 0.578125)"/>
      <use xlink:href="#DejaVuSans-6e" transform="translate(1170.703125 0.578125)"/>
      <use xlink:href="#DejaVuSans-64" transform="translate(1234.082031 0.578125)"/>
      <use xlink:href="#DejaVuSans-20" transform="translate(1297.558594 0.578125)"/>
      <use xlink:href="#DejaVuSans-28" transform="translate(1329.345703 0.578125)"/>
      <use xlink:href="#DejaVuSans-Oblique-3ba" transform="translate(1368.359375 0.578125)"/>
      <use xlink:href="#DejaVuSans-Oblique-41" transform="translate(1427.294922 -15.828125) scale(0.7)"/>
      <use xlink:href="#DejaVuSans-2a" transform="translate(1477.915039 0.578125)"/>
      <use xlink:href="#DejaVuSans-7c" transform="translate(1527.915039 0.578125)"/>
      <use xlink:href="#DejaVuSans-7c" transform="translate(1561.606445 0.578125)"/>
      <use xlink:href="#DejaVuSans-Oblique-3b4" transform="translate(1595.297852 0.578125)"/>
      <use xlink:href="#DejaVuSans-41" transform="translate(1656.479492 0.578125)"/>
      <use xlink:href="#DejaVuSans-7c" transform="translate(1724.887695 0.578125)"/>
      <use xlink:href="#DejaVuSans-7c" transform="translate(1758.579102 0.578125)"/>
      <use xlink:href="#DejaVuSans-2f" transform="translate(1792.270508 0.578125)"/>
      <use xlink:href="#DejaVuSans-7c" transform="translate(1825.961914 0.578125)"/>
      <use xlink:href="#DejaVuSans-7c" transform="translate(1859.65332 0.578125)"/>
      <use xlink:href="#DejaVuSans-41" transform="translate(1893.344727 0.578125)"/>
      <use xlink:href="#DejaVuSans-7c" transform="translate(1961.75293 0.578125)"/>
      <use xlink:href="#DejaVuSans-7c" transform="translate(1995.444336 0.578125)"/>
      <use xlink:href="#DejaVuSans-29" transform="translate(2029.135742 0.578125)"/>
     </g>
    </g>
   </g>
  </g>
 </g>
 <defs>
  <clipPath id="pb799535599">
   <rect x="57.6" y="41.472" width="357.12" height="266.112"/>
  </clipPath>
 </defs>
</svg>
