<?xml version="1.0" encoding="utf-8" standalone="no"?>
<!DOCTYPE svg PUBLIC "-//W3C//DTD SVG 1.1//EN"
  "http://www.w3.org/Graphics/SVG/1.1/DTD/svg11.dtd">
<svg xmlns:xlink="http://www.w3.org/1999/xlink" width="460.8pt" height="345.6pt" viewBox="0 0 460.8 345.6" xmlns="http://www.w3.org/2000/svg" version="1.1">
 <metadata>
  <rdf:RDF xmlns:dc="http://purl.org/dc/elements/1.1/" xmlns:cc="http://creativecommons.org/ns#" xmlns:rdf="http://www.w3.org/1999/02/22-rdf-syntax-ns#">
   <cc:Work>
    <dc:type rdf:resource="http://purl.org/dc/dcmitype/StillImage"/>
    <dc:date>2024-03-11T11:02:55.430298</dc:date>
    <dc:format>image/svg+xml</dc:format>
    <dc:creator>
     <cc:Agent>
      <dc:title>Matplotlib v3.8.0, https://matplotlib.org/</dc:title>
     </cc:Agent>
    </dc:creator>
   </cc:Work>
  </rdf:RDF>
 </metadata>
 <defs>
  <style type="text/css">*{stroke-linejoin: round; stroke-linecap: butt}</style>
 </defs>
 <g id="figure_1">
  <g id="patch_1">
   <path d="M 0 345.6 
L 460.8 345.6 
L 460.8 0 
L 0 0 
z
" style="fill: #ffffff"/>
  </g>
  <g id="axes_1">
   <g id="patch_2">
    <path d="M 57.6 307.584 
L 414.72 307.584 
L 414.72 41.472 
L 57.6 41.472 
z
" style="fill: #ffffff"/>
   </g>
   <g id="matplotlib.axis_1">
    <g id="xtick_1">
     <g id="line2d_1">
      <path d="M 100.813834 307.584 
L 100.813834 41.472 
" clip-path="url(#p48b63b96fe)" style="fill: none; stroke: #b0b0b0; stroke-width: 0.8; stroke-linecap: square"/>
     </g>
     <g id="line2d_2">
      <defs>
       <path id="m63cd865bd5" d="M 0 0 
L 0 3.5 
" style="stroke: #000000; stroke-width: 0.8"/>
      </defs>
      <g>
       <use xlink:href="#m63cd865bd5" x="100.813834" y="307.584" style="stroke: #000000; stroke-width: 0.8"/>
      </g>
     </g>
     <g id="text_1">
      <!-- $\mathdefault{10^{-11}}$ -->
      <g transform="translate(86.863834 322.182437) scale(0.1 -0.1)">
       <defs>
        <path id="DejaVuSans-31" d="M 794 531 
L 1825 531 
L 1825 4091 
L 703 3866 
L 703 4441 
L 1819 4666 
L 2450 4666 
L 2450 531 
L 3481 531 
L 3481 0 
L 794 0 
L 794 531 
z
" transform="scale(0.015625)"/>
        <path id="DejaVuSans-30" d="M 2034 4250 
Q 1547 4250 1301 3770 
Q 1056 3291 1056 2328 
Q 1056 1369 1301 889 
Q 1547 409 2034 409 
Q 2525 409 2770 889 
Q 3016 1369 3016 2328 
Q 3016 3291 2770 3770 
Q 2525 4250 2034 4250 
z
M 2034 4750 
Q 2819 4750 3233 4129 
Q 3647 3509 3647 2328 
Q 3647 1150 3233 529 
Q 2819 -91 2034 -91 
Q 1250 -91 836 529 
Q 422 1150 422 2328 
Q 422 3509 836 4129 
Q 1250 4750 2034 4750 
z
" transform="scale(0.015625)"/>
        <path id="DejaVuSans-2212" d="M 678 2272 
L 4684 2272 
L 4684 1741 
L 678 1741 
L 678 2272 
z
" transform="scale(0.015625)"/>
       </defs>
       <use xlink:href="#DejaVuSans-31" transform="translate(0 0.684375)"/>
       <use xlink:href="#DejaVuSans-30" transform="translate(63.623047 0.684375)"/>
       <use xlink:href="#DejaVuSans-2212" transform="translate(128.203125 38.965625) scale(0.7)"/>
       <use xlink:href="#DejaVuSans-31" transform="translate(186.855469 38.965625) scale(0.7)"/>
       <use xlink:href="#DejaVuSans-31" transform="translate(231.391602 38.965625) scale(0.7)"/>
      </g>
     </g>
    </g>
    <g id="xtick_2">
     <g id="line2d_3">
      <path d="M 154.914341 307.584 
L 154.914341 41.472 
" clip-path="url(#p48b63b96fe)" style="fill: none; stroke: #b0b0b0; stroke-width: 0.8; stroke-linecap: square"/>
     </g>
     <g id="line2d_4">
      <g>
       <use xlink:href="#m63cd865bd5" x="154.914341" y="307.584" style="stroke: #000000; stroke-width: 0.8"/>
      </g>
     </g>
     <g id="text_2">
      <!-- $\mathdefault{10^{-9}}$ -->
      <g transform="translate(143.164341 322.182437) scale(0.1 -0.1)">
       <defs>
        <path id="DejaVuSans-39" d="M 703 97 
L 703 672 
Q 941 559 1184 500 
Q 1428 441 1663 441 
Q 2288 441 2617 861 
Q 2947 1281 2994 2138 
Q 2813 1869 2534 1725 
Q 2256 1581 1919 1581 
Q 1219 1581 811 2004 
Q 403 2428 403 3163 
Q 403 3881 828 4315 
Q 1253 4750 1959 4750 
Q 2769 4750 3195 4129 
Q 3622 3509 3622 2328 
Q 3622 1225 3098 567 
Q 2575 -91 1691 -91 
Q 1453 -91 1209 -44 
Q 966 3 703 97 
z
M 1959 2075 
Q 2384 2075 2632 2365 
Q 2881 2656 2881 3163 
Q 2881 3666 2632 3958 
Q 2384 4250 1959 4250 
Q 1534 4250 1286 3958 
Q 1038 3666 1038 3163 
Q 1038 2656 1286 2365 
Q 1534 2075 1959 2075 
z
" transform="scale(0.015625)"/>
       </defs>
       <use xlink:href="#DejaVuSans-31" transform="translate(0 0.765625)"/>
       <use xlink:href="#DejaVuSans-30" transform="translate(63.623047 0.765625)"/>
       <use xlink:href="#DejaVuSans-2212" transform="translate(128.203125 39.046875) scale(0.7)"/>
       <use xlink:href="#DejaVuSans-39" transform="translate(186.855469 39.046875) scale(0.7)"/>
      </g>
     </g>
    </g>
    <g id="xtick_3">
     <g id="line2d_5">
      <path d="M 209.014848 307.584 
L 209.014848 41.472 
" clip-path="url(#p48b63b96fe)" style="fill: none; stroke: #b0b0b0; stroke-width: 0.8; stroke-linecap: square"/>
     </g>
     <g id="line2d_6">
      <g>
       <use xlink:href="#m63cd865bd5" x="209.014848" y="307.584" style="stroke: #000000; stroke-width: 0.8"/>
      </g>
     </g>
     <g id="text_3">
      <!-- $\mathdefault{10^{-7}}$ -->
      <g transform="translate(197.264848 322.182437) scale(0.1 -0.1)">
       <defs>
        <path id="DejaVuSans-37" d="M 525 4666 
L 3525 4666 
L 3525 4397 
L 1831 0 
L 1172 0 
L 2766 4134 
L 525 4134 
L 525 4666 
z
" transform="scale(0.015625)"/>
       </defs>
       <use xlink:href="#DejaVuSans-31" transform="translate(0 0.684375)"/>
       <use xlink:href="#DejaVuSans-30" transform="translate(63.623047 0.684375)"/>
       <use xlink:href="#DejaVuSans-2212" transform="translate(128.203125 38.965625) scale(0.7)"/>
       <use xlink:href="#DejaVuSans-37" transform="translate(186.855469 38.965625) scale(0.7)"/>
      </g>
     </g>
    </g>
    <g id="xtick_4">
     <g id="line2d_7">
      <path d="M 263.115355 307.584 
L 263.115355 41.472 
" clip-path="url(#p48b63b96fe)" style="fill: none; stroke: #b0b0b0; stroke-width: 0.8; stroke-linecap: square"/>
     </g>
     <g id="line2d_8">
      <g>
       <use xlink:href="#m63cd865bd5" x="263.115355" y="307.584" style="stroke: #000000; stroke-width: 0.8"/>
      </g>
     </g>
     <g id="text_4">
      <!-- $\mathdefault{10^{-5}}$ -->
      <g transform="translate(251.365355 322.182437) scale(0.1 -0.1)">
       <defs>
        <path id="DejaVuSans-35" d="M 691 4666 
L 3169 4666 
L 3169 4134 
L 1269 4134 
L 1269 2991 
Q 1406 3038 1543 3061 
Q 1681 3084 1819 3084 
Q 2600 3084 3056 2656 
Q 3513 2228 3513 1497 
Q 3513 744 3044 326 
Q 2575 -91 1722 -91 
Q 1428 -91 1123 -41 
Q 819 9 494 109 
L 494 744 
Q 775 591 1075 516 
Q 1375 441 1709 441 
Q 2250 441 2565 725 
Q 2881 1009 2881 1497 
Q 2881 1984 2565 2268 
Q 2250 2553 1709 2553 
Q 1456 2553 1204 2497 
Q 953 2441 691 2322 
L 691 4666 
z
" transform="scale(0.015625)"/>
       </defs>
       <use xlink:href="#DejaVuSans-31" transform="translate(0 0.684375)"/>
       <use xlink:href="#DejaVuSans-30" transform="translate(63.623047 0.684375)"/>
       <use xlink:href="#DejaVuSans-2212" transform="translate(128.203125 38.965625) scale(0.7)"/>
       <use xlink:href="#DejaVuSans-35" transform="translate(186.855469 38.965625) scale(0.7)"/>
      </g>
     </g>
    </g>
    <g id="xtick_5">
     <g id="line2d_9">
      <path d="M 317.215863 307.584 
L 317.215863 41.472 
" clip-path="url(#p48b63b96fe)" style="fill: none; stroke: #b0b0b0; stroke-width: 0.8; stroke-linecap: square"/>
     </g>
     <g id="line2d_10">
      <g>
       <use xlink:href="#m63cd865bd5" x="317.215863" y="307.584" style="stroke: #000000; stroke-width: 0.8"/>
      </g>
     </g>
     <g id="text_5">
      <!-- $\mathdefault{10^{-3}}$ -->
      <g transform="translate(305.465863 322.182437) scale(0.1 -0.1)">
       <defs>
        <path id="DejaVuSans-33" d="M 2597 2516 
Q 3050 2419 3304 2112 
Q 3559 1806 3559 1356 
Q 3559 666 3084 287 
Q 2609 -91 1734 -91 
Q 1441 -91 1130 -33 
Q 819 25 488 141 
L 488 750 
Q 750 597 1062 519 
Q 1375 441 1716 441 
Q 2309 441 2620 675 
Q 2931 909 2931 1356 
Q 2931 1769 2642 2001 
Q 2353 2234 1838 2234 
L 1294 2234 
L 1294 2753 
L 1863 2753 
Q 2328 2753 2575 2939 
Q 2822 3125 2822 3475 
Q 2822 3834 2567 4026 
Q 2313 4219 1838 4219 
Q 1578 4219 1281 4162 
Q 984 4106 628 3988 
L 628 4550 
Q 988 4650 1302 4700 
Q 1616 4750 1894 4750 
Q 2613 4750 3031 4423 
Q 3450 4097 3450 3541 
Q 3450 3153 3228 2886 
Q 3006 2619 2597 2516 
z
" transform="scale(0.015625)"/>
       </defs>
       <use xlink:href="#DejaVuSans-31" transform="translate(0 0.765625)"/>
       <use xlink:href="#DejaVuSans-30" transform="translate(63.623047 0.765625)"/>
       <use xlink:href="#DejaVuSans-2212" transform="translate(128.203125 39.046875) scale(0.7)"/>
       <use xlink:href="#DejaVuSans-33" transform="translate(186.855469 39.046875) scale(0.7)"/>
      </g>
     </g>
    </g>
    <g id="xtick_6">
     <g id="line2d_11">
      <path d="M 371.31637 307.584 
L 371.31637 41.472 
" clip-path="url(#p48b63b96fe)" style="fill: none; stroke: #b0b0b0; stroke-width: 0.8; stroke-linecap: square"/>
     </g>
     <g id="line2d_12">
      <g>
       <use xlink:href="#m63cd865bd5" x="371.31637" y="307.584" style="stroke: #000000; stroke-width: 0.8"/>
      </g>
     </g>
     <g id="text_6">
      <!-- $\mathdefault{10^{-1}}$ -->
      <g transform="translate(359.56637 322.182437) scale(0.1 -0.1)">
       <use xlink:href="#DejaVuSans-31" transform="translate(0 0.684375)"/>
       <use xlink:href="#DejaVuSans-30" transform="translate(63.623047 0.684375)"/>
       <use xlink:href="#DejaVuSans-2212" transform="translate(128.203125 38.965625) scale(0.7)"/>
       <use xlink:href="#DejaVuSans-31" transform="translate(186.855469 38.965625) scale(0.7)"/>
      </g>
     </g>
    </g>
    <g id="text_7">
     <!-- ||$\delta$A||/||A|| -->
     <g transform="translate(211.06 335.962125) scale(0.1 -0.1)">
      <defs>
       <path id="DejaVuSans-7c" d="M 1344 4891 
L 1344 -1509 
L 813 -1509 
L 813 4891 
L 1344 4891 
z
" transform="scale(0.015625)"/>
       <path id="DejaVuSans-Oblique-3b4" d="M 3472 4053 
Q 3197 4272 2450 4272 
Q 1659 4272 1588 3906 
Q 1531 3619 2328 3469 
Q 2953 3353 3253 3003 
Q 3616 2581 3447 1716 
Q 3284 888 2763 400 
Q 2238 -91 1488 -91 
Q 741 -91 406 400 
Q 72 888 241 1747 
Q 363 2384 891 2900 
Q 1097 3100 1353 3213 
Q 913 3459 1000 3900 
Q 1166 4750 2544 4750 
Q 3234 4750 3566 4531 
L 3472 4053 
z
M 1753 3056 
Q 1525 2966 1306 2738 
Q 969 2384 847 1747 
Q 722 1113 919 756 
Q 1119 397 1584 397 
Q 2044 397 2381 759 
Q 2722 1122 2838 1716 
Q 2956 2338 2731 2638 
Q 2491 2959 2103 2994 
Q 1906 3013 1753 3056 
z
" transform="scale(0.015625)"/>
       <path id="DejaVuSans-41" d="M 2188 4044 
L 1331 1722 
L 3047 1722 
L 2188 4044 
z
M 1831 4666 
L 2547 4666 
L 4325 0 
L 3669 0 
L 3244 1197 
L 1141 1197 
L 716 0 
L 50 0 
L 1831 4666 
z
" transform="scale(0.015625)"/>
       <path id="DejaVuSans-2f" d="M 1625 4666 
L 2156 4666 
L 531 -594 
L 0 -594 
L 1625 4666 
z
" transform="scale(0.015625)"/>
      </defs>
      <use xlink:href="#DejaVuSans-7c" transform="translate(0 0.578125)"/>
      <use xlink:href="#DejaVuSans-7c" transform="translate(33.691406 0.578125)"/>
      <use xlink:href="#DejaVuSans-Oblique-3b4" transform="translate(67.382812 0.578125)"/>
      <use xlink:href="#DejaVuSans-41" transform="translate(128.564453 0.578125)"/>
      <use xlink:href="#DejaVuSans-7c" transform="translate(196.972656 0.578125)"/>
      <use xlink:href="#DejaVuSans-7c" transform="translate(230.664062 0.578125)"/>
      <use xlink:href="#DejaVuSans-2f" transform="translate(264.355469 0.578125)"/>
      <use xlink:href="#DejaVuSans-7c" transform="translate(298.046875 0.578125)"/>
      <use xlink:href="#DejaVuSans-7c" transform="translate(331.738281 0.578125)"/>
      <use xlink:href="#DejaVuSans-41" transform="translate(365.429688 0.578125)"/>
      <use xlink:href="#DejaVuSans-7c" transform="translate(433.837891 0.578125)"/>
      <use xlink:href="#DejaVuSans-7c" transform="translate(467.529297 0.578125)"/>
     </g>
    </g>
   </g>
   <g id="matplotlib.axis_2">
    <g id="ytick_1">
     <g id="line2d_13">
      <path d="M 57.6 276.469817 
L 414.72 276.469817 
" clip-path="url(#p48b63b96fe)" style="fill: none; stroke: #b0b0b0; stroke-width: 0.8; stroke-linecap: square"/>
     </g>
     <g id="line2d_14">
      <defs>
       <path id="m1076ac34a8" d="M 0 0 
L -3.5 0 
" style="stroke: #000000; stroke-width: 0.8"/>
      </defs>
      <g>
       <use xlink:href="#m1076ac34a8" x="57.6" y="276.469817" style="stroke: #000000; stroke-width: 0.8"/>
      </g>
     </g>
     <g id="text_8">
      <!-- $\mathdefault{10^{-10}}$ -->
      <g transform="translate(22.7 280.269036) scale(0.1 -0.1)">
       <use xlink:href="#DejaVuSans-31" transform="translate(0 0.765625)"/>
       <use xlink:href="#DejaVuSans-30" transform="translate(63.623047 0.765625)"/>
       <use xlink:href="#DejaVuSans-2212" transform="translate(128.203125 39.046875) scale(0.7)"/>
       <use xlink:href="#DejaVuSans-31" transform="translate(186.855469 39.046875) scale(0.7)"/>
       <use xlink:href="#DejaVuSans-30" transform="translate(231.391602 39.046875) scale(0.7)"/>
      </g>
     </g>
    </g>
    <g id="ytick_2">
     <g id="line2d_15">
      <path d="M 57.6 242.492202 
L 414.72 242.492202 
" clip-path="url(#p48b63b96fe)" style="fill: none; stroke: #b0b0b0; stroke-width: 0.8; stroke-linecap: square"/>
     </g>
     <g id="line2d_16">
      <g>
       <use xlink:href="#m1076ac34a8" x="57.6" y="242.492202" style="stroke: #000000; stroke-width: 0.8"/>
      </g>
     </g>
     <g id="text_9">
      <!-- $\mathdefault{10^{-8}}$ -->
      <g transform="translate(27.1 246.291421) scale(0.1 -0.1)">
       <defs>
        <path id="DejaVuSans-38" d="M 2034 2216 
Q 1584 2216 1326 1975 
Q 1069 1734 1069 1313 
Q 1069 891 1326 650 
Q 1584 409 2034 409 
Q 2484 409 2743 651 
Q 3003 894 3003 1313 
Q 3003 1734 2745 1975 
Q 2488 2216 2034 2216 
z
M 1403 2484 
Q 997 2584 770 2862 
Q 544 3141 544 3541 
Q 544 4100 942 4425 
Q 1341 4750 2034 4750 
Q 2731 4750 3128 4425 
Q 3525 4100 3525 3541 
Q 3525 3141 3298 2862 
Q 3072 2584 2669 2484 
Q 3125 2378 3379 2068 
Q 3634 1759 3634 1313 
Q 3634 634 3220 271 
Q 2806 -91 2034 -91 
Q 1263 -91 848 271 
Q 434 634 434 1313 
Q 434 1759 690 2068 
Q 947 2378 1403 2484 
z
M 1172 3481 
Q 1172 3119 1398 2916 
Q 1625 2713 2034 2713 
Q 2441 2713 2670 2916 
Q 2900 3119 2900 3481 
Q 2900 3844 2670 4047 
Q 2441 4250 2034 4250 
Q 1625 4250 1398 4047 
Q 1172 3844 1172 3481 
z
" transform="scale(0.015625)"/>
       </defs>
       <use xlink:href="#DejaVuSans-31" transform="translate(0 0.765625)"/>
       <use xlink:href="#DejaVuSans-30" transform="translate(63.623047 0.765625)"/>
       <use xlink:href="#DejaVuSans-2212" transform="translate(128.203125 39.046875) scale(0.7)"/>
       <use xlink:href="#DejaVuSans-38" transform="translate(186.855469 39.046875) scale(0.7)"/>
      </g>
     </g>
    </g>
    <g id="ytick_3">
     <g id="line2d_17">
      <path d="M 57.6 208.514587 
L 414.72 208.514587 
" clip-path="url(#p48b63b96fe)" style="fill: none; stroke: #b0b0b0; stroke-width: 0.8; stroke-linecap: square"/>
     </g>
     <g id="line2d_18">
      <g>
       <use xlink:href="#m1076ac34a8" x="57.6" y="208.514587" style="stroke: #000000; stroke-width: 0.8"/>
      </g>
     </g>
     <g id="text_10">
      <!-- $\mathdefault{10^{-6}}$ -->
      <g transform="translate(27.1 212.313806) scale(0.1 -0.1)">
       <defs>
        <path id="DejaVuSans-36" d="M 2113 2584 
Q 1688 2584 1439 2293 
Q 1191 2003 1191 1497 
Q 1191 994 1439 701 
Q 1688 409 2113 409 
Q 2538 409 2786 701 
Q 3034 994 3034 1497 
Q 3034 2003 2786 2293 
Q 2538 2584 2113 2584 
z
M 3366 4563 
L 3366 3988 
Q 3128 4100 2886 4159 
Q 2644 4219 2406 4219 
Q 1781 4219 1451 3797 
Q 1122 3375 1075 2522 
Q 1259 2794 1537 2939 
Q 1816 3084 2150 3084 
Q 2853 3084 3261 2657 
Q 3669 2231 3669 1497 
Q 3669 778 3244 343 
Q 2819 -91 2113 -91 
Q 1303 -91 875 529 
Q 447 1150 447 2328 
Q 447 3434 972 4092 
Q 1497 4750 2381 4750 
Q 2619 4750 2861 4703 
Q 3103 4656 3366 4563 
z
" transform="scale(0.015625)"/>
       </defs>
       <use xlink:href="#DejaVuSans-31" transform="translate(0 0.765625)"/>
       <use xlink:href="#DejaVuSans-30" transform="translate(63.623047 0.765625)"/>
       <use xlink:href="#DejaVuSans-2212" transform="translate(128.203125 39.046875) scale(0.7)"/>
       <use xlink:href="#DejaVuSans-36" transform="translate(186.855469 39.046875) scale(0.7)"/>
      </g>
     </g>
    </g>
    <g id="ytick_4">
     <g id="line2d_19">
      <path d="M 57.6 174.536972 
L 414.72 174.536972 
" clip-path="url(#p48b63b96fe)" style="fill: none; stroke: #b0b0b0; stroke-width: 0.8; stroke-linecap: square"/>
     </g>
     <g id="line2d_20">
      <g>
       <use xlink:href="#m1076ac34a8" x="57.6" y="174.536972" style="stroke: #000000; stroke-width: 0.8"/>
      </g>
     </g>
     <g id="text_11">
      <!-- $\mathdefault{10^{-4}}$ -->
      <g transform="translate(27.1 178.336191) scale(0.1 -0.1)">
       <defs>
        <path id="DejaVuSans-34" d="M 2419 4116 
L 825 1625 
L 2419 1625 
L 2419 4116 
z
M 2253 4666 
L 3047 4666 
L 3047 1625 
L 3713 1625 
L 3713 1100 
L 3047 1100 
L 3047 0 
L 2419 0 
L 2419 1100 
L 313 1100 
L 313 1709 
L 2253 4666 
z
" transform="scale(0.015625)"/>
       </defs>
       <use xlink:href="#DejaVuSans-31" transform="translate(0 0.684375)"/>
       <use xlink:href="#DejaVuSans-30" transform="translate(63.623047 0.684375)"/>
       <use xlink:href="#DejaVuSans-2212" transform="translate(128.203125 38.965625) scale(0.7)"/>
       <use xlink:href="#DejaVuSans-34" transform="translate(186.855469 38.965625) scale(0.7)"/>
      </g>
     </g>
    </g>
    <g id="ytick_5">
     <g id="line2d_21">
      <path d="M 57.6 140.559357 
L 414.72 140.559357 
" clip-path="url(#p48b63b96fe)" style="fill: none; stroke: #b0b0b0; stroke-width: 0.8; stroke-linecap: square"/>
     </g>
     <g id="line2d_22">
      <g>
       <use xlink:href="#m1076ac34a8" x="57.6" y="140.559357" style="stroke: #000000; stroke-width: 0.8"/>
      </g>
     </g>
     <g id="text_12">
      <!-- $\mathdefault{10^{-2}}$ -->
      <g transform="translate(27.1 144.358576) scale(0.1 -0.1)">
       <defs>
        <path id="DejaVuSans-32" d="M 1228 531 
L 3431 531 
L 3431 0 
L 469 0 
L 469 531 
Q 828 903 1448 1529 
Q 2069 2156 2228 2338 
Q 2531 2678 2651 2914 
Q 2772 3150 2772 3378 
Q 2772 3750 2511 3984 
Q 2250 4219 1831 4219 
Q 1534 4219 1204 4116 
Q 875 4013 500 3803 
L 500 4441 
Q 881 4594 1212 4672 
Q 1544 4750 1819 4750 
Q 2544 4750 2975 4387 
Q 3406 4025 3406 3419 
Q 3406 3131 3298 2873 
Q 3191 2616 2906 2266 
Q 2828 2175 2409 1742 
Q 1991 1309 1228 531 
z
" transform="scale(0.015625)"/>
       </defs>
       <use xlink:href="#DejaVuSans-31" transform="translate(0 0.765625)"/>
       <use xlink:href="#DejaVuSans-30" transform="translate(63.623047 0.765625)"/>
       <use xlink:href="#DejaVuSans-2212" transform="translate(128.203125 39.046875) scale(0.7)"/>
       <use xlink:href="#DejaVuSans-32" transform="translate(186.855469 39.046875) scale(0.7)"/>
      </g>
     </g>
    </g>
    <g id="ytick_6">
     <g id="line2d_23">
      <path d="M 57.6 106.581742 
L 414.72 106.581742 
" clip-path="url(#p48b63b96fe)" style="fill: none; stroke: #b0b0b0; stroke-width: 0.8; stroke-linecap: square"/>
     </g>
     <g id="line2d_24">
      <g>
       <use xlink:href="#m1076ac34a8" x="57.6" y="106.581742" style="stroke: #000000; stroke-width: 0.8"/>
      </g>
     </g>
     <g id="text_13">
      <!-- $\mathdefault{10^{0}}$ -->
      <g transform="translate(33 110.38096) scale(0.1 -0.1)">
       <use xlink:href="#DejaVuSans-31" transform="translate(0 0.765625)"/>
       <use xlink:href="#DejaVuSans-30" transform="translate(63.623047 0.765625)"/>
       <use xlink:href="#DejaVuSans-30" transform="translate(128.203125 39.046875) scale(0.7)"/>
      </g>
     </g>
    </g>
    <g id="ytick_7">
     <g id="line2d_25">
      <path d="M 57.6 72.604127 
L 414.72 72.604127 
" clip-path="url(#p48b63b96fe)" style="fill: none; stroke: #b0b0b0; stroke-width: 0.8; stroke-linecap: square"/>
     </g>
     <g id="line2d_26">
      <g>
       <use xlink:href="#m1076ac34a8" x="57.6" y="72.604127" style="stroke: #000000; stroke-width: 0.8"/>
      </g>
     </g>
     <g id="text_14">
      <!-- $\mathdefault{10^{2}}$ -->
      <g transform="translate(33 76.403345) scale(0.1 -0.1)">
       <use xlink:href="#DejaVuSans-31" transform="translate(0 0.765625)"/>
       <use xlink:href="#DejaVuSans-30" transform="translate(63.623047 0.765625)"/>
       <use xlink:href="#DejaVuSans-32" transform="translate(128.203125 39.046875) scale(0.7)"/>
      </g>
     </g>
    </g>
    <g id="text_15">
     <!-- ||$\delta$x||/||x|| -->
     <g transform="translate(16.3 198.678) rotate(-90) scale(0.1 -0.1)">
      <defs>
       <path id="DejaVuSans-78" d="M 3513 3500 
L 2247 1797 
L 3578 0 
L 2900 0 
L 1881 1375 
L 863 0 
L 184 0 
L 1544 1831 
L 300 3500 
L 978 3500 
L 1906 2253 
L 2834 3500 
L 3513 3500 
z
" transform="scale(0.015625)"/>
      </defs>
      <use xlink:href="#DejaVuSans-7c" transform="translate(0 0.578125)"/>
      <use xlink:href="#DejaVuSans-7c" transform="translate(33.691406 0.578125)"/>
      <use xlink:href="#DejaVuSans-Oblique-3b4" transform="translate(67.382812 0.578125)"/>
      <use xlink:href="#DejaVuSans-78" transform="translate(128.564453 0.578125)"/>
      <use xlink:href="#DejaVuSans-7c" transform="translate(187.744141 0.578125)"/>
      <use xlink:href="#DejaVuSans-7c" transform="translate(221.435547 0.578125)"/>
      <use xlink:href="#DejaVuSans-2f" transform="translate(255.126953 0.578125)"/>
      <use xlink:href="#DejaVuSans-7c" transform="translate(288.818359 0.578125)"/>
      <use xlink:href="#DejaVuSans-7c" transform="translate(322.509766 0.578125)"/>
      <use xlink:href="#DejaVuSans-78" transform="translate(356.201172 0.578125)"/>
      <use xlink:href="#DejaVuSans-7c" transform="translate(415.380859 0.578125)"/>
      <use xlink:href="#DejaVuSans-7c" transform="translate(449.072266 0.578125)"/>
     </g>
    </g>
   </g>
   <g id="line2d_27">
    <path d="M 73.832727 291.680481 
L 74.160765 287.146378 
L 74.509403 294.852255 
L 74.778183 291.370275 
L 75.172372 292.982134 
L 75.416131 289.464304 
L 75.845594 290.257328 
L 76.045412 293.079369 
L 76.435126 291.908377 
L 76.7209 286.060749 
L 77.083069 291.186915 
L 77.364455 284.571368 
L 77.696156 288.83463 
L 78.003946 283.595528 
L 78.330162 288.996524 
L 78.695649 284.204695 
L 79.062558 287.376042 
L 79.409952 294.144257 
L 79.943906 284.214057 
L 80.359387 286.260675 
L 80.723268 284.258138 
L 81.052974 292.752244 
L 81.314585 295.488 
L 81.620687 284.816739 
L 81.923554 288.036097 
L 82.291479 293.40182 
L 82.502747 290.533808 
L 82.967236 288.594706 
L 83.283672 284.673467 
L 83.49616 294.016708 
L 83.880205 287.783906 
L 84.479551 284.732025 
L 84.877043 284.317326 
L 85.151527 285.404331 
L 85.562756 285.923452 
L 85.816045 284.446494 
L 86.135539 286.902072 
L 86.501502 282.889516 
L 86.794444 284.642494 
L 87.11766 282.395975 
L 87.364142 284.836788 
L 87.661421 286.320626 
L 88.030663 286.031587 
L 88.482088 287.73735 
L 88.846267 281.698195 
L 89.131923 289.960311 
L 89.736845 282.630343 
L 90.141288 287.603488 
L 90.484729 281.196946 
L 90.718876 281.518893 
L 91.037364 285.953482 
L 91.372181 286.377569 
L 92.285216 278.526211 
L 92.557138 282.570737 
L 93.001022 283.621268 
L 93.320562 280.365008 
L 93.5736 284.168258 
L 93.949786 278.537707 
L 94.315045 282.026422 
L 94.665893 275.688217 
L 94.883421 276.909785 
L 95.365313 276.999675 
L 95.58584 281.024232 
L 95.91702 283.00099 
L 96.204421 281.9278 
L 96.805323 275.916277 
L 97.280417 284.179981 
L 97.600249 281.35929 
L 97.905095 276.182101 
L 98.164561 276.57478 
L 98.491818 283.240728 
L 98.884312 284.952569 
L 99.147999 274.623544 
L 99.493811 282.01815 
L 99.744373 275.712132 
L 100.137956 273.697325 
L 100.474085 280.551989 
L 100.857279 279.581479 
L 101.104938 282.360225 
L 101.435987 276.816097 
L 101.820744 274.198705 
L 101.978067 278.790503 
L 102.357185 274.261238 
L 102.677011 275.669747 
L 103.183051 270.783667 
L 103.843615 273.789261 
L 104.14337 273.028886 
L 104.417807 276.373611 
L 104.744444 276.122091 
L 104.940278 268.637653 
L 105.297568 272.614314 
L 105.686647 270.116925 
L 105.993956 274.869681 
L 106.278203 273.557045 
L 106.695833 277.929731 
L 106.924294 269.198105 
L 107.235169 274.809449 
L 107.608182 276.4343 
L 108.002105 270.053081 
L 108.147003 273.233161 
L 108.658618 275.130229 
L 108.892447 275.195938 
L 109.332828 272.066816 
L 109.548598 276.148084 
L 109.884098 269.301132 
L 110.216161 269.163808 
L 110.548198 268.336691 
L 110.865884 275.379732 
L 111.131766 273.308274 
L 111.452282 268.019354 
L 111.917323 271.710565 
L 112.242281 268.181395 
L 112.583348 274.291421 
L 112.895231 275.105154 
L 113.108129 275.23825 
L 113.380921 268.903229 
L 113.772186 264.534036 
L 114.036008 267.638026 
L 114.433918 266.322499 
L 114.776823 267.716746 
L 115.143572 266.931709 
L 115.480403 272.514826 
L 115.765067 265.8405 
L 116.120697 268.131529 
L 116.399111 264.393707 
L 116.729298 264.151796 
L 117.099484 268.763391 
L 117.317238 265.341092 
L 117.697087 269.862343 
L 117.979774 268.779044 
L 118.319489 266.425814 
L 118.659033 261.768282 
L 119.312072 267.369225 
L 119.675313 266.0694 
L 119.927873 267.202566 
L 120.330928 267.539842 
L 120.594385 270.823599 
L 120.887954 264.610708 
L 121.323494 262.317718 
L 121.612195 261.916455 
L 121.864945 266.607898 
L 122.179692 262.128463 
L 122.593947 258.908583 
L 122.795001 262.986527 
L 123.210731 261.103866 
L 123.496232 263.265904 
L 123.781669 263.871309 
L 124.158943 262.535671 
L 124.420094 263.702502 
L 124.79307 260.261719 
L 125.045216 260.71336 
L 125.520221 264.124656 
L 125.757717 261.687605 
L 126.131818 264.186619 
L 127.095476 257.685203 
L 127.412111 261.158463 
L 127.767175 262.176371 
L 128.150279 259.382215 
L 128.316045 255.105357 
L 128.80196 251.194609 
L 129.080778 251.825573 
L 129.381832 256.944673 
L 129.636229 250.596465 
L 130.02103 261.740271 
L 130.364984 265.044465 
L 130.683771 257.374448 
L 131.027651 264.470766 
L 131.267166 252.791821 
L 131.760792 258.235493 
L 132.054704 258.242524 
L 132.575788 253.40889 
L 132.993512 253.057771 
L 133.316842 261.704066 
L 133.611564 257.595828 
L 133.932266 257.776998 
L 134.630186 250.868437 
L 134.895562 254.835457 
L 135.172183 254.99858 
L 135.634033 255.88493 
L 135.868244 254.986476 
L 136.253945 249.396755 
L 137.176877 254.051687 
L 137.521405 250.846831 
L 137.872386 256.557376 
L 138.114272 255.438142 
L 138.408396 254.948375 
L 138.937076 253.481382 
L 139.076289 251.203064 
L 139.540521 252.268338 
L 139.795986 249.360144 
L 140.061292 256.153245 
L 140.419433 257.49404 
L 140.889814 248.716935 
L 141.164806 249.508862 
L 141.396997 252.81863 
L 141.689651 248.735756 
L 142.072019 253.070869 
L 142.404768 247.975139 
L 142.64076 247.868748 
L 143.031356 250.844374 
L 143.419979 252.06535 
L 143.743227 252.037422 
L 144.13293 244.585907 
L 144.260778 250.214498 
L 144.690952 248.668817 
L 145.004335 245.025955 
L 145.467085 249.413048 
L 145.620328 252.376194 
L 145.960404 244.060529 
L 146.308614 250.108539 
L 146.596722 249.190456 
L 146.830186 251.451322 
L 147.316267 247.257384 
L 147.596487 248.028718 
L 147.889353 249.647758 
L 148.336434 245.499048 
L 148.543051 248.569628 
L 148.986837 247.685 
L 149.304807 250.252719 
L 149.56862 247.55771 
L 149.932396 248.140223 
L 150.148259 247.861831 
L 150.740076 245.28871 
L 151.150176 250.75499 
L 151.512939 249.238784 
L 151.794583 244.510271 
L 152.067594 248.792816 
L 152.392957 244.67835 
L 152.685291 239.088434 
L 153.097911 250.231927 
L 153.739299 243.159555 
L 154.109877 245.868362 
L 154.484868 236.405891 
L 154.709504 247.878275 
L 155.409065 238.252795 
L 155.762687 241.412133 
L 156.013126 246.283069 
L 156.42183 243.002463 
L 156.668154 243.425376 
L 156.970962 244.788806 
L 157.43939 244.696937 
L 157.644706 245.604372 
L 158.066259 240.27657 
L 158.320201 242.366962 
L 158.532056 241.097877 
L 159.031559 240.019669 
L 159.374327 242.516889 
L 159.925329 234.106436 
L 160.22611 238.53539 
L 160.611783 240.853866 
L 160.802435 238.765538 
L 161.223855 238.810424 
L 161.617359 233.308842 
L 161.784458 238.086229 
L 162.148434 235.36446 
L 162.471483 237.802309 
L 162.965692 242.572535 
L 163.12446 234.674246 
L 163.555313 235.017579 
L 163.821095 241.151688 
L 164.178947 240.08224 
L 164.528225 233.852056 
L 164.775605 237.238215 
L 165.025861 235.345502 
L 165.564493 242.340638 
L 165.7196 234.543763 
L 166.083256 237.50658 
L 166.42609 235.529037 
L 166.795274 237.752453 
L 167.117317 234.673562 
L 167.475679 233.336675 
L 167.894758 233.990094 
L 168.00856 230.486766 
L 168.468769 235.508979 
L 168.64871 235.654316 
L 169.075357 233.282479 
L 169.326898 238.814863 
L 169.542772 232.513901 
L 170.093393 230.651004 
L 170.287968 230.447997 
L 170.674181 232.840289 
L 170.989746 236.767649 
L 171.616705 231.495497 
L 172.062883 233.070527 
L 172.255658 233.245744 
L 172.54152 233.192561 
L 172.938627 235.491963 
L 173.147034 229.496785 
L 173.922158 227.297146 
L 174.265001 232.855483 
L 174.649801 231.116029 
L 174.890148 224.781341 
L 175.213367 232.469485 
L 175.432983 231.206865 
L 175.775901 226.717596 
L 176.253602 232.400648 
L 176.507279 227.440775 
L 176.907954 231.745596 
L 177.226875 229.15435 
L 177.468961 229.491455 
L 177.877024 235.29583 
L 178.244686 225.505241 
L 178.439536 235.751541 
L 178.838085 227.44948 
L 179.179022 228.730475 
L 179.442592 226.560885 
L 179.728441 225.358942 
L 180.00583 229.200124 
L 180.413529 230.128475 
L 181.390339 225.414312 
L 181.712871 229.816622 
L 182.405611 225.054415 
L 182.594593 228.94927 
L 183.082295 227.563666 
L 183.442259 224.821939 
L 183.57655 221.883233 
L 184.35191 227.268297 
L 184.685917 227.61831 
L 184.930481 220.005591 
L 185.235948 221.994422 
L 185.6201 229.30472 
L 185.948272 224.463371 
L 186.286876 223.978789 
L 186.520607 220.247088 
L 187.2214 226.370322 
L 187.566455 219.208054 
L 187.85331 224.302657 
L 188.194851 224.340811 
L 188.518134 218.158695 
L 188.834529 219.580372 
L 189.165532 223.766797 
L 189.442191 223.919187 
L 189.780451 223.231373 
L 190.320948 221.355911 
L 190.557097 221.616388 
L 190.685341 220.43875 
L 191.129746 221.363401 
L 191.469706 220.0318 
L 191.739903 223.785235 
L 192.108511 221.573071 
L 192.404513 219.017488 
L 192.757055 218.587253 
L 193.111034 220.899147 
L 193.439084 221.270288 
L 193.683402 219.110734 
L 194.025814 221.851735 
L 194.390771 215.817856 
L 194.755418 218.954844 
L 195.132964 213.408062 
L 195.31749 213.188112 
L 195.580166 220.607927 
L 195.987169 212.33472 
L 196.260946 215.256141 
L 196.670812 221.301015 
L 197.03429 222.198407 
L 197.254116 218.420642 
L 197.698149 215.933856 
L 197.995542 219.05689 
L 198.369899 218.926709 
L 198.730229 216.716438 
L 198.863977 210.799659 
L 199.367791 216.617083 
L 199.747788 218.675585 
L 199.913487 212.322075 
L 200.203456 213.168324 
L 200.497526 212.644183 
L 200.842962 214.367369 
L 201.171606 212.5517 
L 201.643531 216.329824 
L 201.908857 206.664561 
L 202.119081 218.594133 
L 202.582262 215.940869 
L 202.830855 215.401013 
L 203.501975 210.331917 
L 203.887823 209.715914 
L 204.080323 218.660956 
L 204.447023 207.91868 
L 204.714547 212.602964 
L 205.054848 215.258574 
L 205.408064 208.498764 
L 206.44612 212.259944 
L 206.807195 217.984519 
L 207.028402 216.837541 
L 207.299388 213.218568 
L 207.626861 211.212074 
L 207.94139 211.222958 
L 208.383399 203.630324 
L 208.643596 212.16993 
L 208.86334 210.075077 
L 209.309063 208.843579 
L 209.708284 205.049907 
L 209.9445 208.373082 
L 210.31373 210.927605 
L 210.651674 209.683768 
L 210.910455 205.664849 
L 211.202053 203.35371 
L 211.651343 211.239885 
L 211.825153 207.631949 
L 212.234846 203.99435 
L 212.612451 209.56036 
L 212.90513 207.284067 
L 213.229487 213.983742 
L 213.512317 204.088063 
L 213.838475 209.069292 
L 214.149776 210.19038 
L 214.615266 204.14948 
L 214.829027 207.605789 
L 215.095724 206.652227 
L 215.405958 206.535798 
L 215.79558 208.693835 
L 216.20215 201.705218 
L 216.488773 206.404381 
L 216.740223 201.566002 
L 217.225547 201.836006 
L 217.493513 201.187667 
L 217.745081 206.484934 
L 218.062657 200.833713 
L 218.397724 202.242377 
L 218.662428 205.972686 
L 219.130982 202.187116 
L 219.452246 203.133715 
L 219.692049 200.932427 
L 220.023011 199.618379 
L 220.364287 201.030388 
L 220.614263 203.495293 
L 220.999574 200.961586 
L 221.291509 200.443739 
L 221.580496 202.14451 
L 221.982607 207.200912 
L 222.301113 206.443421 
L 222.621226 202.831197 
L 223.385873 198.109755 
L 223.619683 202.35216 
L 223.898097 195.923833 
L 224.311058 200.775938 
L 224.64353 202.852741 
L 224.933927 199.048198 
L 225.185298 202.341979 
L 225.608693 201.726543 
L 225.790979 198.620836 
L 226.313457 197.586324 
L 226.557843 199.463924 
L 226.8534 196.388207 
L 227.26882 197.814732 
L 227.457151 204.238441 
L 228.199192 196.407581 
L 228.374847 197.906214 
L 228.963907 200.255983 
L 229.018585 199.735404 
L 229.49178 197.642973 
L 229.766206 197.689891 
L 230.168194 194.691281 
L 230.294039 194.763984 
L 230.653558 193.640911 
L 231.141169 199.706391 
L 231.481501 197.763288 
L 231.700808 193.983919 
L 232.109746 195.348689 
L 232.436131 198.76237 
L 232.768313 195.296921 
L 232.990988 195.187178 
L 233.780789 195.36785 
L 234.118862 193.550938 
L 234.419377 190.536797 
L 234.602678 192.656125 
L 234.948313 189.418027 
L 235.40464 192.523321 
L 235.681521 190.52454 
L 235.886677 190.984726 
L 236.405016 191.635805 
L 236.593377 194.89801 
L 236.957018 194.322141 
L 237.58174 187.472181 
L 238.045154 189.801589 
L 238.41157 193.071554 
L 238.60752 189.526403 
L 238.910351 187.097538 
L 239.133058 193.268818 
L 239.506437 187.625556 
L 239.78702 189.813725 
L 240.150248 191.528755 
L 240.550551 189.827031 
L 240.791794 189.788686 
L 241.097557 186.908441 
L 241.442396 189.786438 
L 241.837716 179.412551 
L 242.135613 190.557851 
L 242.459067 192.573696 
L 243.078734 185.097646 
L 243.462424 188.092359 
L 243.877504 185.334642 
L 244.156595 186.878114 
L 244.477162 187.056521 
L 244.796503 188.85124 
L 245.056817 182.467019 
L 245.450736 182.265139 
L 245.707386 186.865166 
L 246.13438 186.302112 
L 246.395232 185.769298 
L 246.625507 188.731847 
L 247.014297 179.092755 
L 247.332326 188.465393 
L 247.691982 191.401497 
L 248.008123 183.504816 
L 248.627468 181.307972 
L 248.883293 178.731668 
L 249.335566 180.854276 
L 249.650545 184.270303 
L 249.951322 181.234466 
L 250.37863 184.573823 
L 250.696142 182.629138 
L 250.970266 183.930427 
L 251.178559 177.818922 
L 251.564585 182.356117 
L 251.863781 179.01556 
L 252.132315 182.431929 
L 252.655504 177.81753 
L 252.894693 177.881489 
L 253.291241 176.054757 
L 253.463063 181.961828 
L 253.86382 179.741956 
L 254.339802 179.979358 
L 254.426227 182.681211 
L 254.869411 186.423172 
L 255.206666 173.935135 
L 255.495323 179.10702 
L 255.790738 179.263719 
L 256.187633 182.225567 
L 256.386443 175.31493 
L 256.805581 179.635845 
L 257.059015 176.457902 
L 257.638446 182.889237 
L 258.023406 175.901413 
L 258.376499 175.464 
L 258.745869 180.40164 
L 259.163002 172.452178 
L 259.250333 175.333836 
L 259.568413 177.166131 
L 260.04232 177.365417 
L 260.231342 175.54808 
L 260.715043 180.390819 
L 261.019813 175.946371 
L 261.28217 180.338783 
L 261.588818 178.499812 
L 261.889647 174.312405 
L 262.228505 178.751953 
L 262.633738 180.063844 
L 263.223602 170.3428 
L 263.640809 171.746902 
L 263.897376 171.944688 
L 264.229552 173.248163 
L 264.495159 172.871907 
L 264.879112 177.710607 
L 265.128492 169.015948 
L 265.563247 169.716591 
L 265.814965 177.421244 
L 266.236984 175.706732 
L 266.608692 172.319157 
L 266.935083 174.764411 
L 267.132855 177.283607 
L 267.443676 169.917793 
L 267.808933 169.189 
L 268.033698 169.967486 
L 268.52317 172.857748 
L 268.84089 167.64921 
L 269.102383 176.815461 
L 269.452864 169.665866 
L 269.861895 169.777273 
L 270.149777 165.014527 
L 270.450564 170.133534 
L 270.736868 170.824605 
L 271.037015 167.267305 
L 271.389745 172.864447 
L 271.766205 169.933976 
L 272.007188 173.994163 
L 272.404331 168.02251 
L 272.789529 171.38231 
L 273.039772 170.458199 
L 273.343526 167.443706 
L 273.631847 168.737027 
L 273.933544 173.270943 
L 274.199915 165.260451 
L 274.750384 167.007233 
L 274.96024 162.177248 
L 275.167212 163.104084 
L 275.977466 170.988945 
L 276.298219 167.549289 
L 276.644201 168.505878 
L 277.022938 165.989204 
L 277.069937 167.150031 
L 277.599042 168.466822 
L 277.791734 166.305743 
L 278.185841 167.205866 
L 278.387431 169.243152 
L 278.779162 162.688061 
L 279.158578 166.854488 
L 279.707717 164.502345 
L 280.085302 161.336 
L 280.45418 167.970107 
L 280.736124 169.056274 
L 281.414306 158.599978 
L 281.651381 165.642872 
L 282.056443 163.698253 
L 282.352949 165.953938 
L 282.735504 166.756429 
L 282.912135 159.776468 
L 283.410876 163.539257 
L 283.795357 156.447075 
L 283.925428 166.302516 
L 284.360888 162.246793 
L 284.700288 162.794729 
L 285.329263 161.680433 
L 285.646498 157.278423 
L 286.073505 164.094797 
L 286.408563 156.528789 
L 286.64153 161.536854 
L 286.91412 158.392762 
L 287.276117 160.431912 
L 287.716017 159.32549 
L 287.883547 162.45245 
L 288.372892 162.042995 
L 288.651532 158.812209 
L 288.890603 159.660907 
L 289.293087 152.78925 
L 289.632295 153.130868 
L 289.98613 164.413926 
L 290.231284 154.456163 
L 290.584215 159.079988 
L 290.965197 158.543367 
L 291.140805 152.015258 
L 291.541299 157.573059 
L 291.823828 155.93055 
L 292.228818 160.836947 
L 292.436536 154.978297 
L 292.824631 157.599463 
L 293.314345 159.520972 
L 293.587072 152.700092 
L 294.024294 159.611719 
L 294.369185 152.775607 
L 294.651937 154.713314 
L 295.131037 155.374787 
L 295.364002 156.899662 
L 296.001437 150.970059 
L 296.401886 151.012461 
L 297.13749 156.726305 
L 297.387457 156.311047 
L 297.700397 157.584974 
L 298.079858 155.905712 
L 298.349355 147.732705 
L 298.611814 149.990824 
L 299.096833 151.394707 
L 299.384666 152.590842 
L 299.598895 149.788377 
L 299.916149 154.779306 
L 300.316784 154.216306 
L 300.711839 156.005376 
L 300.878345 151.010296 
L 301.233277 155.606646 
L 301.578031 155.908796 
L 301.911894 154.310269 
L 302.174117 151.88242 
L 302.453317 151.379387 
L 302.95887 147.570091 
L 303.174092 150.210405 
L 303.631864 147.925541 
L 303.830565 151.13656 
L 304.236797 151.446554 
L 304.47984 153.538771 
L 305.180332 147.541386 
L 305.473772 147.776272 
L 306.014426 148.69995 
L 306.256185 153.460855 
L 306.518479 151.542623 
L 306.764974 151.562811 
L 307.491974 139.348926 
L 308.113565 146.41578 
L 308.387539 148.318226 
L 308.672723 152.907188 
L 309.080331 150.378838 
L 309.503418 143.435507 
L 309.84189 149.400476 
L 310.371126 148.844371 
L 310.67233 145.417584 
L 311.037314 148.329231 
L 311.220828 141.337559 
L 311.594852 144.314361 
L 311.986861 141.835003 
L 312.49018 144.145527 
L 312.596019 145.313671 
L 313.424228 147.37711 
L 313.62444 144.761644 
L 314.007854 142.577429 
L 314.214961 144.27529 
L 314.620073 137.079156 
L 314.990969 150.54867 
L 315.308543 140.813562 
L 315.601341 143.043226 
L 315.840247 140.359596 
L 316.125749 143.588349 
L 316.573424 142.410467 
L 316.852864 140.822415 
L 317.260856 140.659483 
L 317.583995 144.632834 
L 317.748049 138.461807 
L 318.57496 143.884805 
L 319.058608 136.052427 
L 319.531598 136.544055 
L 319.813123 140.119137 
L 320.057375 140.28495 
L 320.516351 143.211276 
L 321.090719 139.57039 
L 321.429244 135.471408 
L 321.76097 139.809006 
L 322.157476 135.938689 
L 322.501481 137.001558 
L 322.731954 136.28904 
L 323.000144 134.114528 
L 323.431321 141.092059 
L 324.028442 134.479033 
L 324.800966 142.440727 
L 325.04763 142.171671 
L 325.399546 133.975082 
L 325.633592 136.048967 
L 325.901851 135.138855 
L 326.285811 138.795234 
L 326.673272 137.151335 
L 327.020015 132.478229 
L 327.225774 136.336916 
L 327.704599 136.930338 
L 327.915035 134.775781 
L 328.232098 136.620953 
L 328.619288 132.214779 
L 328.769246 129.160508 
L 329.142289 138.237953 
L 329.587794 130.696303 
L 330.000667 133.769089 
L 330.532024 129.998786 
L 330.823782 133.238306 
L 331.174032 130.431889 
L 331.428762 135.763032 
L 331.79091 131.33547 
L 332.18065 134.541172 
L 332.449682 125.564589 
L 332.663364 131.872858 
L 333.096094 130.019867 
L 333.459019 126.693606 
L 333.740871 129.393557 
L 334.043379 127.12754 
L 334.472743 135.168774 
L 334.917054 136.547175 
L 335.104593 123.308976 
L 335.486463 132.818627 
L 335.705574 133.063444 
L 335.90599 123.396894 
L 336.417903 125.432432 
L 336.758407 133.447778 
L 336.965182 127.732026 
L 337.314067 131.010557 
L 337.703985 136.206579 
L 338.019899 131.323718 
L 338.338279 123.647399 
L 338.686204 129.64819 
L 338.994981 127.081544 
L 339.371802 130.147763 
L 339.467596 124.60728 
L 339.916677 130.730784 
L 340.143103 121.735966 
L 340.671754 125.248755 
L 340.826662 125.524471 
L 341.209788 126.789189 
L 341.492933 121.665553 
L 341.91097 128.494544 
L 342.249333 128.35513 
L 342.42634 124.434505 
L 342.847374 125.186955 
L 343.233396 126.284479 
L 343.575304 131.327555 
L 343.994535 126.519093 
L 344.229066 121.595786 
L 344.319745 128.070805 
L 344.799755 127.333066 
L 345.111567 116.066643 
L 345.370154 125.274176 
L 345.83965 128.225781 
L 346.366838 119.179242 
L 346.860828 122.059313 
L 347.150641 124.492776 
L 347.406447 120.10177 
L 347.760512 116.548979 
L 348.071266 120.934232 
L 348.461442 120.555245 
L 348.889215 123.145461 
L 349.430055 119.950177 
L 349.741098 119.110165 
L 349.886871 118.18757 
L 350.349289 117.208484 
L 350.707172 122.324647 
L 351.277115 115.082035 
L 351.634564 119.152769 
L 351.969561 117.396118 
L 352.416197 123.817274 
L 352.465397 117.232904 
L 352.992432 116.423422 
L 353.185056 119.920848 
L 353.639438 116.601221 
L 353.969747 124.876007 
L 354.484547 118.885031 
L 354.871219 119.501299 
L 355.184595 116.303253 
L 355.463205 107.940123 
L 355.822216 117.007504 
L 356.096132 112.330206 
L 356.321226 117.885071 
L 356.829438 114.31099 
L 357.535624 113.3298 
L 357.881359 120.158903 
L 358.264122 116.288206 
L 358.493462 115.839973 
L 358.723702 117.415086 
L 359.147539 111.110179 
L 359.427594 99.720503 
L 359.792951 121.924287 
L 360.132408 113.375833 
L 360.394047 114.014261 
L 360.669272 113.55416 
L 361.092812 116.583838 
L 361.57147 110.926075 
L 361.768531 117.245303 
L 362.151222 113.858773 
L 362.246164 115.602487 
L 362.732296 113.74559 
L 362.965379 115.295861 
L 363.428447 109.968333 
L 363.669539 114.662743 
L 363.897941 104.348516 
L 364.284984 106.97462 
L 364.510187 109.485002 
L 364.974997 110.691829 
L 365.268941 112.06554 
L 365.571568 117.16614 
L 366.602077 106.153533 
L 366.851494 97.548155 
L 367.196056 114.3207 
L 367.426367 114.302231 
L 367.92332 97.09042 
L 368.84003 110.932705 
L 369.206895 97.411506 
L 369.561641 113.854293 
L 369.950958 108.488725 
L 370.248823 101.643395 
L 370.609729 108.777673 
L 370.672838 113.678159 
L 371.171106 111.525041 
L 371.473904 107.767514 
L 371.855315 114.698136 
L 372.032966 95.227331 
L 372.512169 111.387882 
L 372.752903 108.757138 
L 373.017018 97.717516 
L 373.466158 103.134842 
L 373.697416 110.510416 
L 374.103299 109.285214 
L 374.340103 95.263837 
L 374.608199 101.940907 
L 374.99289 103.464192 
L 375.309342 91.900754 
L 375.639942 104.005779 
L 376.02552 107.339646 
L 376.329404 105.216812 
L 376.662249 108.698886 
L 376.940691 107.331937 
L 377.210249 93.264762 
L 377.659167 81.340351 
L 378.03597 90.601714 
L 378.174392 104.211557 
L 378.640175 103.165846 
L 378.96375 105.471874 
L 379.206508 104.420072 
L 379.561456 108.634879 
L 379.954128 107.422919 
L 380.283901 105.060072 
L 380.59939 105.906146 
L 380.987651 106.460526 
L 381.569045 91.184524 
L 381.829431 98.307721 
L 382.173349 103.525563 
L 382.526194 107.165295 
L 382.863758 98.413025 
L 383.2031 104.040774 
L 383.409068 91.138473 
L 383.833798 98.01622 
L 384.100549 105.209818 
L 384.528553 106.818184 
L 384.659813 69.034923 
L 385.049788 102.5251 
L 385.465101 102.567286 
L 385.856173 106.138901 
L 386.070319 106.177873 
L 386.471881 89.612404 
L 386.742546 103.610528 
L 387.111237 105.88355 
L 387.360246 106.323054 
L 387.740541 76.556684 
L 387.930047 106.531465 
L 388.352193 103.660729 
L 388.631074 106.038861 
L 389.014722 104.293575 
L 389.369982 96.871636 
L 389.630837 103.44729 
L 389.964525 104.898766 
L 390.336992 102.918906 
L 390.710001 106.237462 
L 391.024397 105.948619 
L 391.213799 103.332145 
L 391.647275 103.927928 
L 392.024685 105.936243 
L 392.204694 105.106442 
L 392.626506 105.911414 
L 393.012912 103.454786 
L 393.195184 100.247007 
L 393.510523 105.504675 
L 394.097907 106.425876 
L 394.654976 96.880723 
L 394.80714 105.999256 
L 395.195463 101.493932 
L 395.766489 105.841923 
L 396.0964 100.809968 
L 396.523426 105.941023 
L 396.880206 106.200062 
L 397.124312 103.649134 
L 397.550594 106.245509 
L 397.769115 104.850806 
L 398.028058 105.833182 
L 398.487273 104.024333 
L 398.487273 104.024333 
" clip-path="url(#p48b63b96fe)" style="fill: none; stroke: #1f77b4; stroke-width: 1.5; stroke-linecap: square"/>
   </g>
   <g id="line2d_28">
    <path d="M 73.832727 257.466036 
L 398.487273 53.568 
L 398.487273 53.568 
" clip-path="url(#p48b63b96fe)" style="fill: none; stroke: #ff7f0e; stroke-width: 1.5; stroke-linecap: square"/>
   </g>
   <g id="patch_3">
    <path d="M 57.6 307.584 
L 57.6 41.472 
" style="fill: none; stroke: #000000; stroke-width: 0.8; stroke-linejoin: miter; stroke-linecap: square"/>
   </g>
   <g id="patch_4">
    <path d="M 414.72 307.584 
L 414.72 41.472 
" style="fill: none; stroke: #000000; stroke-width: 0.8; stroke-linejoin: miter; stroke-linecap: square"/>
   </g>
   <g id="patch_5">
    <path d="M 57.6 307.584 
L 414.72 307.584 
" style="fill: none; stroke: #000000; stroke-width: 0.8; stroke-linejoin: miter; stroke-linecap: square"/>
   </g>
   <g id="patch_6">
    <path d="M 57.6 41.472 
L 414.72 41.472 
" style="fill: none; stroke: #000000; stroke-width: 0.8; stroke-linejoin: miter; stroke-linecap: square"/>
   </g>
   <g id="text_16">
    <!-- Perturbation when A is disturbed (m = 100) -->
    <g transform="translate(105.013125 35.472) scale(0.12 -0.12)">
     <defs>
      <path id="DejaVuSans-50" d="M 1259 4147 
L 1259 2394 
L 2053 2394 
Q 2494 2394 2734 2622 
Q 2975 2850 2975 3272 
Q 2975 3691 2734 3919 
Q 2494 4147 2053 4147 
L 1259 4147 
z
M 628 4666 
L 2053 4666 
Q 2838 4666 3239 4311 
Q 3641 3956 3641 3272 
Q 3641 2581 3239 2228 
Q 2838 1875 2053 1875 
L 1259 1875 
L 1259 0 
L 628 0 
L 628 4666 
z
" transform="scale(0.015625)"/>
      <path id="DejaVuSans-65" d="M 3597 1894 
L 3597 1613 
L 953 1613 
Q 991 1019 1311 708 
Q 1631 397 2203 397 
Q 2534 397 2845 478 
Q 3156 559 3463 722 
L 3463 178 
Q 3153 47 2828 -22 
Q 2503 -91 2169 -91 
Q 1331 -91 842 396 
Q 353 884 353 1716 
Q 353 2575 817 3079 
Q 1281 3584 2069 3584 
Q 2775 3584 3186 3129 
Q 3597 2675 3597 1894 
z
M 3022 2063 
Q 3016 2534 2758 2815 
Q 2500 3097 2075 3097 
Q 1594 3097 1305 2825 
Q 1016 2553 972 2059 
L 3022 2063 
z
" transform="scale(0.015625)"/>
      <path id="DejaVuSans-72" d="M 2631 2963 
Q 2534 3019 2420 3045 
Q 2306 3072 2169 3072 
Q 1681 3072 1420 2755 
Q 1159 2438 1159 1844 
L 1159 0 
L 581 0 
L 581 3500 
L 1159 3500 
L 1159 2956 
Q 1341 3275 1631 3429 
Q 1922 3584 2338 3584 
Q 2397 3584 2469 3576 
Q 2541 3569 2628 3553 
L 2631 2963 
z
" transform="scale(0.015625)"/>
      <path id="DejaVuSans-74" d="M 1172 4494 
L 1172 3500 
L 2356 3500 
L 2356 3053 
L 1172 3053 
L 1172 1153 
Q 1172 725 1289 603 
Q 1406 481 1766 481 
L 2356 481 
L 2356 0 
L 1766 0 
Q 1100 0 847 248 
Q 594 497 594 1153 
L 594 3053 
L 172 3053 
L 172 3500 
L 594 3500 
L 594 4494 
L 1172 4494 
z
" transform="scale(0.015625)"/>
      <path id="DejaVuSans-75" d="M 544 1381 
L 544 3500 
L 1119 3500 
L 1119 1403 
Q 1119 906 1312 657 
Q 1506 409 1894 409 
Q 2359 409 2629 706 
Q 2900 1003 2900 1516 
L 2900 3500 
L 3475 3500 
L 3475 0 
L 2900 0 
L 2900 538 
Q 2691 219 2414 64 
Q 2138 -91 1772 -91 
Q 1169 -91 856 284 
Q 544 659 544 1381 
z
M 1991 3584 
L 1991 3584 
z
" transform="scale(0.015625)"/>
      <path id="DejaVuSans-62" d="M 3116 1747 
Q 3116 2381 2855 2742 
Q 2594 3103 2138 3103 
Q 1681 3103 1420 2742 
Q 1159 2381 1159 1747 
Q 1159 1113 1420 752 
Q 1681 391 2138 391 
Q 2594 391 2855 752 
Q 3116 1113 3116 1747 
z
M 1159 2969 
Q 1341 3281 1617 3432 
Q 1894 3584 2278 3584 
Q 2916 3584 3314 3078 
Q 3713 2572 3713 1747 
Q 3713 922 3314 415 
Q 2916 -91 2278 -91 
Q 1894 -91 1617 61 
Q 1341 213 1159 525 
L 1159 0 
L 581 0 
L 581 4863 
L 1159 4863 
L 1159 2969 
z
" transform="scale(0.015625)"/>
      <path id="DejaVuSans-61" d="M 2194 1759 
Q 1497 1759 1228 1600 
Q 959 1441 959 1056 
Q 959 750 1161 570 
Q 1363 391 1709 391 
Q 2188 391 2477 730 
Q 2766 1069 2766 1631 
L 2766 1759 
L 2194 1759 
z
M 3341 1997 
L 3341 0 
L 2766 0 
L 2766 531 
Q 2569 213 2275 61 
Q 1981 -91 1556 -91 
Q 1019 -91 701 211 
Q 384 513 384 1019 
Q 384 1609 779 1909 
Q 1175 2209 1959 2209 
L 2766 2209 
L 2766 2266 
Q 2766 2663 2505 2880 
Q 2244 3097 1772 3097 
Q 1472 3097 1187 3025 
Q 903 2953 641 2809 
L 641 3341 
Q 956 3463 1253 3523 
Q 1550 3584 1831 3584 
Q 2591 3584 2966 3190 
Q 3341 2797 3341 1997 
z
" transform="scale(0.015625)"/>
      <path id="DejaVuSans-69" d="M 603 3500 
L 1178 3500 
L 1178 0 
L 603 0 
L 603 3500 
z
M 603 4863 
L 1178 4863 
L 1178 4134 
L 603 4134 
L 603 4863 
z
" transform="scale(0.015625)"/>
      <path id="DejaVuSans-6f" d="M 1959 3097 
Q 1497 3097 1228 2736 
Q 959 2375 959 1747 
Q 959 1119 1226 758 
Q 1494 397 1959 397 
Q 2419 397 2687 759 
Q 2956 1122 2956 1747 
Q 2956 2369 2687 2733 
Q 2419 3097 1959 3097 
z
M 1959 3584 
Q 2709 3584 3137 3096 
Q 3566 2609 3566 1747 
Q 3566 888 3137 398 
Q 2709 -91 1959 -91 
Q 1206 -91 779 398 
Q 353 888 353 1747 
Q 353 2609 779 3096 
Q 1206 3584 1959 3584 
z
" transform="scale(0.015625)"/>
      <path id="DejaVuSans-6e" d="M 3513 2113 
L 3513 0 
L 2938 0 
L 2938 2094 
Q 2938 2591 2744 2837 
Q 2550 3084 2163 3084 
Q 1697 3084 1428 2787 
Q 1159 2491 1159 1978 
L 1159 0 
L 581 0 
L 581 3500 
L 1159 3500 
L 1159 2956 
Q 1366 3272 1645 3428 
Q 1925 3584 2291 3584 
Q 2894 3584 3203 3211 
Q 3513 2838 3513 2113 
z
" transform="scale(0.015625)"/>
      <path id="DejaVuSans-20" transform="scale(0.015625)"/>
      <path id="DejaVuSans-77" d="M 269 3500 
L 844 3500 
L 1563 769 
L 2278 3500 
L 2956 3500 
L 3675 769 
L 4391 3500 
L 4966 3500 
L 4050 0 
L 3372 0 
L 2619 2869 
L 1863 0 
L 1184 0 
L 269 3500 
z
" transform="scale(0.015625)"/>
      <path id="DejaVuSans-68" d="M 3513 2113 
L 3513 0 
L 2938 0 
L 2938 2094 
Q 2938 2591 2744 2837 
Q 2550 3084 2163 3084 
Q 1697 3084 1428 2787 
Q 1159 2491 1159 1978 
L 1159 0 
L 581 0 
L 581 4863 
L 1159 4863 
L 1159 2956 
Q 1366 3272 1645 3428 
Q 1925 3584 2291 3584 
Q 2894 3584 3203 3211 
Q 3513 2838 3513 2113 
z
" transform="scale(0.015625)"/>
      <path id="DejaVuSans-73" d="M 2834 3397 
L 2834 2853 
Q 2591 2978 2328 3040 
Q 2066 3103 1784 3103 
Q 1356 3103 1142 2972 
Q 928 2841 928 2578 
Q 928 2378 1081 2264 
Q 1234 2150 1697 2047 
L 1894 2003 
Q 2506 1872 2764 1633 
Q 3022 1394 3022 966 
Q 3022 478 2636 193 
Q 2250 -91 1575 -91 
Q 1294 -91 989 -36 
Q 684 19 347 128 
L 347 722 
Q 666 556 975 473 
Q 1284 391 1588 391 
Q 1994 391 2212 530 
Q 2431 669 2431 922 
Q 2431 1156 2273 1281 
Q 2116 1406 1581 1522 
L 1381 1569 
Q 847 1681 609 1914 
Q 372 2147 372 2553 
Q 372 3047 722 3315 
Q 1072 3584 1716 3584 
Q 2034 3584 2315 3537 
Q 2597 3491 2834 3397 
z
" transform="scale(0.015625)"/>
      <path id="DejaVuSans-64" d="M 2906 2969 
L 2906 4863 
L 3481 4863 
L 3481 0 
L 2906 0 
L 2906 525 
Q 2725 213 2448 61 
Q 2172 -91 1784 -91 
Q 1150 -91 751 415 
Q 353 922 353 1747 
Q 353 2572 751 3078 
Q 1150 3584 1784 3584 
Q 2172 3584 2448 3432 
Q 2725 3281 2906 2969 
z
M 947 1747 
Q 947 1113 1208 752 
Q 1469 391 1925 391 
Q 2381 391 2643 752 
Q 2906 1113 2906 1747 
Q 2906 2381 2643 2742 
Q 2381 3103 1925 3103 
Q 1469 3103 1208 2742 
Q 947 2381 947 1747 
z
" transform="scale(0.015625)"/>
      <path id="DejaVuSans-28" d="M 1984 4856 
Q 1566 4138 1362 3434 
Q 1159 2731 1159 2009 
Q 1159 1288 1364 580 
Q 1569 -128 1984 -844 
L 1484 -844 
Q 1016 -109 783 600 
Q 550 1309 550 2009 
Q 550 2706 781 3412 
Q 1013 4119 1484 4856 
L 1984 4856 
z
" transform="scale(0.015625)"/>
      <path id="DejaVuSans-6d" d="M 3328 2828 
Q 3544 3216 3844 3400 
Q 4144 3584 4550 3584 
Q 5097 3584 5394 3201 
Q 5691 2819 5691 2113 
L 5691 0 
L 5113 0 
L 5113 2094 
Q 5113 2597 4934 2840 
Q 4756 3084 4391 3084 
Q 3944 3084 3684 2787 
Q 3425 2491 3425 1978 
L 3425 0 
L 2847 0 
L 2847 2094 
Q 2847 2600 2669 2842 
Q 2491 3084 2119 3084 
Q 1678 3084 1418 2786 
Q 1159 2488 1159 1978 
L 1159 0 
L 581 0 
L 581 3500 
L 1159 3500 
L 1159 2956 
Q 1356 3278 1631 3431 
Q 1906 3584 2284 3584 
Q 2666 3584 2933 3390 
Q 3200 3197 3328 2828 
z
" transform="scale(0.015625)"/>
      <path id="DejaVuSans-3d" d="M 678 2906 
L 4684 2906 
L 4684 2381 
L 678 2381 
L 678 2906 
z
M 678 1631 
L 4684 1631 
L 4684 1100 
L 678 1100 
L 678 1631 
z
" transform="scale(0.015625)"/>
      <path id="DejaVuSans-29" d="M 513 4856 
L 1013 4856 
Q 1481 4119 1714 3412 
Q 1947 2706 1947 2009 
Q 1947 1309 1714 600 
Q 1481 -109 1013 -844 
L 513 -844 
Q 928 -128 1133 580 
Q 1338 1288 1338 2009 
Q 1338 2731 1133 3434 
Q 928 4138 513 4856 
z
" transform="scale(0.015625)"/>
     </defs>
     <use xlink:href="#DejaVuSans-50"/>
     <use xlink:href="#DejaVuSans-65" x="56.677734"/>
     <use xlink:href="#DejaVuSans-72" x="118.201172"/>
     <use xlink:href="#DejaVuSans-74" x="159.314453"/>
     <use xlink:href="#DejaVuSans-75" x="198.523438"/>
     <use xlink:href="#DejaVuSans-72" x="261.902344"/>
     <use xlink:href="#DejaVuSans-62" x="303.015625"/>
     <use xlink:href="#DejaVuSans-61" x="366.492188"/>
     <use xlink:href="#DejaVuSans-74" x="427.771484"/>
     <use xlink:href="#DejaVuSans-69" x="466.980469"/>
     <use xlink:href="#DejaVuSans-6f" x="494.763672"/>
     <use xlink:href="#DejaVuSans-6e" x="555.945312"/>
     <use xlink:href="#DejaVuSans-20" x="619.324219"/>
     <use xlink:href="#DejaVuSans-77" x="651.111328"/>
     <use xlink:href="#DejaVuSans-68" x="732.898438"/>
     <use xlink:href="#DejaVuSans-65" x="796.277344"/>
     <use xlink:href="#DejaVuSans-6e" x="857.800781"/>
     <use xlink:href="#DejaVuSans-20" x="921.179688"/>
     <use xlink:href="#DejaVuSans-41" x="952.966797"/>
     <use xlink:href="#DejaVuSans-20" x="1021.375"/>
     <use xlink:href="#DejaVuSans-69" x="1053.162109"/>
     <use xlink:href="#DejaVuSans-73" x="1080.945312"/>
     <use xlink:href="#DejaVuSans-20" x="1133.044922"/>
     <use xlink:href="#DejaVuSans-64" x="1164.832031"/>
     <use xlink:href="#DejaVuSans-69" x="1228.308594"/>
     <use xlink:href="#DejaVuSans-73" x="1256.091797"/>
     <use xlink:href="#DejaVuSans-74" x="1308.191406"/>
     <use xlink:href="#DejaVuSans-75" x="1347.400391"/>
     <use xlink:href="#DejaVuSans-72" x="1410.779297"/>
     <use xlink:href="#DejaVuSans-62" x="1451.892578"/>
     <use xlink:href="#DejaVuSans-65" x="1515.369141"/>
     <use xlink:href="#DejaVuSans-64" x="1576.892578"/>
     <use xlink:href="#DejaVuSans-20" x="1640.369141"/>
     <use xlink:href="#DejaVuSans-28" x="1672.15625"/>
     <use xlink:href="#DejaVuSans-6d" x="1711.169922"/>
     <use xlink:href="#DejaVuSans-20" x="1808.582031"/>
     <use xlink:href="#DejaVuSans-3d" x="1840.369141"/>
     <use xlink:href="#DejaVuSans-20" x="1924.158203"/>
     <use xlink:href="#DejaVuSans-31" x="1955.945312"/>
     <use xlink:href="#DejaVuSans-30" x="2019.568359"/>
     <use xlink:href="#DejaVuSans-30" x="2083.191406"/>
     <use xlink:href="#DejaVuSans-29" x="2146.814453"/>
    </g>
   </g>
   <g id="legend_1">
    <g id="patch_7">
     <path d="M 64.6 79.250125 
L 303.5 79.250125 
Q 305.5 79.250125 305.5 77.250125 
L 305.5 48.472 
Q 305.5 46.472 303.5 46.472 
L 64.6 46.472 
Q 62.6 46.472 62.6 48.472 
L 62.6 77.250125 
Q 62.6 79.250125 64.6 79.250125 
z
" style="fill: #ffffff; opacity: 0.8; stroke: #cccccc; stroke-linejoin: miter"/>
    </g>
    <g id="line2d_29">
     <path d="M 66.6 54.570437 
L 76.6 54.570437 
L 86.6 54.570437 
" style="fill: none; stroke: #1f77b4; stroke-width: 1.5; stroke-linecap: square"/>
    </g>
    <g id="text_17">
     <!-- relative solution perturbation -->
     <g transform="translate(94.6 58.070437) scale(0.1 -0.1)">
      <defs>
       <path id="DejaVuSans-6c" d="M 603 4863 
L 1178 4863 
L 1178 0 
L 603 0 
L 603 4863 
z
" transform="scale(0.015625)"/>
       <path id="DejaVuSans-76" d="M 191 3500 
L 800 3500 
L 1894 563 
L 2988 3500 
L 3597 3500 
L 2284 0 
L 1503 0 
L 191 3500 
z
" transform="scale(0.015625)"/>
       <path id="DejaVuSans-70" d="M 1159 525 
L 1159 -1331 
L 581 -1331 
L 581 3500 
L 1159 3500 
L 1159 2969 
Q 1341 3281 1617 3432 
Q 1894 3584 2278 3584 
Q 2916 3584 3314 3078 
Q 3713 2572 3713 1747 
Q 3713 922 3314 415 
Q 2916 -91 2278 -91 
Q 1894 -91 1617 61 
Q 1341 213 1159 525 
z
M 3116 1747 
Q 3116 2381 2855 2742 
Q 2594 3103 2138 3103 
Q 1681 3103 1420 2742 
Q 1159 2381 1159 1747 
Q 1159 1113 1420 752 
Q 1681 391 2138 391 
Q 2594 391 2855 752 
Q 3116 1113 3116 1747 
z
" transform="scale(0.015625)"/>
      </defs>
      <use xlink:href="#DejaVuSans-72"/>
      <use xlink:href="#DejaVuSans-65" x="38.863281"/>
      <use xlink:href="#DejaVuSans-6c" x="100.386719"/>
      <use xlink:href="#DejaVuSans-61" x="128.169922"/>
      <use xlink:href="#DejaVuSans-74" x="189.449219"/>
      <use xlink:href="#DejaVuSans-69" x="228.658203"/>
      <use xlink:href="#DejaVuSans-76" x="256.441406"/>
      <use xlink:href="#DejaVuSans-65" x="315.621094"/>
      <use xlink:href="#DejaVuSans-20" x="377.144531"/>
      <use xlink:href="#DejaVuSans-73" x="408.931641"/>
      <use xlink:href="#DejaVuSans-6f" x="461.03125"/>
      <use xlink:href="#DejaVuSans-6c" x="522.212891"/>
      <use xlink:href="#DejaVuSans-75" x="549.996094"/>
      <use xlink:href="#DejaVuSans-74" x="613.375"/>
      <use xlink:href="#DejaVuSans-69" x="652.583984"/>
      <use xlink:href="#DejaVuSans-6f" x="680.367188"/>
      <use xlink:href="#DejaVuSans-6e" x="741.548828"/>
      <use xlink:href="#DejaVuSans-20" x="804.927734"/>
      <use xlink:href="#DejaVuSans-70" x="836.714844"/>
      <use xlink:href="#DejaVuSans-65" x="900.191406"/>
      <use xlink:href="#DejaVuSans-72" x="961.714844"/>
      <use xlink:href="#DejaVuSans-74" x="1002.828125"/>
      <use xlink:href="#DejaVuSans-75" x="1042.037109"/>
      <use xlink:href="#DejaVuSans-72" x="1105.416016"/>
      <use xlink:href="#DejaVuSans-62" x="1146.529297"/>
      <use xlink:href="#DejaVuSans-61" x="1210.005859"/>
      <use xlink:href="#DejaVuSans-74" x="1271.285156"/>
      <use xlink:href="#DejaVuSans-69" x="1310.494141"/>
      <use xlink:href="#DejaVuSans-6f" x="1338.277344"/>
      <use xlink:href="#DejaVuSans-6e" x="1399.458984"/>
     </g>
    </g>
    <g id="line2d_30">
     <path d="M 66.6 69.350125 
L 76.6 69.350125 
L 86.6 69.350125 
" style="fill: none; stroke: #ff7f0e; stroke-width: 1.5; stroke-linecap: square"/>
    </g>
    <g id="text_18">
     <!-- perturbation upper bound ($\kappa_A$*||$\delta$A||/||A||) -->
     <g transform="translate(94.6 72.850125) scale(0.1 -0.1)">
      <defs>
       <path id="DejaVuSans-Oblique-3ba" d="M 938 3500 
L 1531 3500 
L 1247 2047 
L 3041 3500 
L 3741 3500 
L 2106 2181 
L 3275 0 
L 2572 0 
L 1628 1806 
L 1122 1403 
L 850 0 
L 256 0 
L 938 3500 
z
" transform="scale(0.015625)"/>
       <path id="DejaVuSans-Oblique-41" d="M 2356 4666 
L 3072 4666 
L 3938 0 
L 3278 0 
L 3084 1197 
L 984 1197 
L 325 0 
L -341 0 
L 2356 4666 
z
M 2584 4044 
L 1275 1722 
L 2988 1722 
L 2584 4044 
z
" transform="scale(0.015625)"/>
       <path id="DejaVuSans-2a" d="M 3009 3897 
L 1888 3291 
L 3009 2681 
L 2828 2375 
L 1778 3009 
L 1778 1831 
L 1422 1831 
L 1422 3009 
L 372 2375 
L 191 2681 
L 1313 3291 
L 191 3897 
L 372 4206 
L 1422 3572 
L 1422 4750 
L 1778 4750 
L 1778 3572 
L 2828 4206 
L 3009 3897 
z
" transform="scale(0.015625)"/>
      </defs>
      <use xlink:href="#DejaVuSans-70" transform="translate(0 0.578125)"/>
      <use xlink:href="#DejaVuSans-65" transform="translate(63.476562 0.578125)"/>
      <use xlink:href="#DejaVuSans-72" transform="translate(125 0.578125)"/>
      <use xlink:href="#DejaVuSans-74" transform="translate(166.113281 0.578125)"/>
      <use xlink:href="#DejaVuSans-75" transform="translate(205.322266 0.578125)"/>
      <use xlink:href="#DejaVuSans-72" transform="translate(268.701172 0.578125)"/>
      <use xlink:href="#DejaVuSans-62" transform="translate(309.814453 0.578125)"/>
      <use xlink:href="#DejaVuSans-61" transform="translate(373.291016 0.578125)"/>
      <use xlink:href="#DejaVuSans-74" transform="translate(434.570312 0.578125)"/>
      <use xlink:href="#DejaVuSans-69" transform="translate(473.779297 0.578125)"/>
      <use xlink:href="#DejaVuSans-6f" transform="translate(501.5625 0.578125)"/>
      <use xlink:href="#DejaVuSans-6e" transform="translate(562.744141 0.578125)"/>
      <use xlink:href="#DejaVuSans-20" transform="translate(626.123047 0.578125)"/>
      <use xlink:href="#DejaVuSans-75" transform="translate(657.910156 0.578125)"/>
      <use xlink:href="#DejaVuSans-70" transform="translate(721.289062 0.578125)"/>
      <use xlink:href="#DejaVuSans-70" transform="translate(784.765625 0.578125)"/>
      <use xlink:href="#DejaVuSans-65" transform="translate(848.242188 0.578125)"/>
      <use xlink:href="#DejaVuSans-72" transform="translate(909.765625 0.578125)"/>
      <use xlink:href="#DejaVuSans-20" transform="translate(950.878906 0.578125)"/>
      <use xlink:href="#DejaVuSans-62" transform="translate(982.666016 0.578125)"/>
      <use xlink:href="#DejaVuSans-6f" transform="translate(1046.142578 0.578125)"/>
      <use xlink:href="#DejaVuSans-75" transform="translate(1107.324219 0.578125)"/>
      <use xlink:href="#DejaVuSans-6e" transform="translate(1170.703125 0.578125)"/>
      <use xlink:href="#DejaVuSans-64" transform="translate(1234.082031 0.578125)"/>
      <use xlink:href="#DejaVuSans-20" transform="translate(1297.558594 0.578125)"/>
      <use xlink:href="#DejaVuSans-28" transform="translate(1329.345703 0.578125)"/>
      <use xlink:href="#DejaVuSans-Oblique-3ba" transform="translate(1368.359375 0.578125)"/>
      <use xlink:href="#DejaVuSans-Oblique-41" transform="translate(1427.294922 -15.828125) scale(0.7)"/>
      <use xlink:href="#DejaVuSans-2a" transform="translate(1477.915039 0.578125)"/>
      <use xlink:href="#DejaVuSans-7c" transform="translate(1527.915039 0.578125)"/>
      <use xlink:href="#DejaVuSans-7c" transform="translate(1561.606445 0.578125)"/>
      <use xlink:href="#DejaVuSans-Oblique-3b4" transform="translate(1595.297852 0.578125)"/>
      <use xlink:href="#DejaVuSans-41" transform="translate(1656.479492 0.578125)"/>
      <use xlink:href="#DejaVuSans-7c" transform="translate(1724.887695 0.578125)"/>
      <use xlink:href="#DejaVuSans-7c" transform="translate(1758.579102 0.578125)"/>
      <use xlink:href="#DejaVuSans-2f" transform="translate(1792.270508 0.578125)"/>
      <use xlink:href="#DejaVuSans-7c" transform="translate(1825.961914 0.578125)"/>
      <use xlink:href="#DejaVuSans-7c" transform="translate(1859.65332 0.578125)"/>
      <use xlink:href="#DejaVuSans-41" transform="translate(1893.344727 0.578125)"/>
      <use xlink:href="#DejaVuSans-7c" transform="translate(1961.75293 0.578125)"/>
      <use xlink:href="#DejaVuSans-7c" transform="translate(1995.444336 0.578125)"/>
      <use xlink:href="#DejaVuSans-29" transform="translate(2029.135742 0.578125)"/>
     </g>
    </g>
   </g>
  </g>
 </g>
 <defs>
  <clipPath id="p48b63b96fe">
   <rect x="57.6" y="41.472" width="357.12" height="266.112"/>
  </clipPath>
 </defs>
</svg>
