<?xml version="1.0" encoding="utf-8" standalone="no"?>
<!DOCTYPE svg PUBLIC "-//W3C//DTD SVG 1.1//EN"
  "http://www.w3.org/Graphics/SVG/1.1/DTD/svg11.dtd">
<svg xmlns:xlink="http://www.w3.org/1999/xlink" width="460.8pt" height="345.6pt" viewBox="0 0 460.8 345.6" xmlns="http://www.w3.org/2000/svg" version="1.1">
 <metadata>
  <rdf:RDF xmlns:dc="http://purl.org/dc/elements/1.1/" xmlns:cc="http://creativecommons.org/ns#" xmlns:rdf="http://www.w3.org/1999/02/22-rdf-syntax-ns#">
   <cc:Work>
    <dc:type rdf:resource="http://purl.org/dc/dcmitype/StillImage"/>
    <dc:date>2024-03-11T11:02:55.729346</dc:date>
    <dc:format>image/svg+xml</dc:format>
    <dc:creator>
     <cc:Agent>
      <dc:title>Matplotlib v3.8.0, https://matplotlib.org/</dc:title>
     </cc:Agent>
    </dc:creator>
   </cc:Work>
  </rdf:RDF>
 </metadata>
 <defs>
  <style type="text/css">*{stroke-linejoin: round; stroke-linecap: butt}</style>
 </defs>
 <g id="figure_1">
  <g id="patch_1">
   <path d="M 0 345.6 
L 460.8 345.6 
L 460.8 0 
L 0 0 
z
" style="fill: #ffffff"/>
  </g>
  <g id="axes_1">
   <g id="patch_2">
    <path d="M 57.6 307.584 
L 414.72 307.584 
L 414.72 41.472 
L 57.6 41.472 
z
" style="fill: #ffffff"/>
   </g>
   <g id="matplotlib.axis_1">
    <g id="xtick_1">
     <g id="line2d_1">
      <path d="M 101.187128 307.584 
L 101.187128 41.472 
" clip-path="url(#p15efc705d5)" style="fill: none; stroke: #b0b0b0; stroke-width: 0.8; stroke-linecap: square"/>
     </g>
     <g id="line2d_2">
      <defs>
       <path id="m68df58074b" d="M 0 0 
L 0 3.5 
" style="stroke: #000000; stroke-width: 0.8"/>
      </defs>
      <g>
       <use xlink:href="#m68df58074b" x="101.187128" y="307.584" style="stroke: #000000; stroke-width: 0.8"/>
      </g>
     </g>
     <g id="text_1">
      <!-- $\mathdefault{10^{-11}}$ -->
      <g transform="translate(87.237128 322.182437) scale(0.1 -0.1)">
       <defs>
        <path id="DejaVuSans-31" d="M 794 531 
L 1825 531 
L 1825 4091 
L 703 3866 
L 703 4441 
L 1819 4666 
L 2450 4666 
L 2450 531 
L 3481 531 
L 3481 0 
L 794 0 
L 794 531 
z
" transform="scale(0.015625)"/>
        <path id="DejaVuSans-30" d="M 2034 4250 
Q 1547 4250 1301 3770 
Q 1056 3291 1056 2328 
Q 1056 1369 1301 889 
Q 1547 409 2034 409 
Q 2525 409 2770 889 
Q 3016 1369 3016 2328 
Q 3016 3291 2770 3770 
Q 2525 4250 2034 4250 
z
M 2034 4750 
Q 2819 4750 3233 4129 
Q 3647 3509 3647 2328 
Q 3647 1150 3233 529 
Q 2819 -91 2034 -91 
Q 1250 -91 836 529 
Q 422 1150 422 2328 
Q 422 3509 836 4129 
Q 1250 4750 2034 4750 
z
" transform="scale(0.015625)"/>
        <path id="DejaVuSans-2212" d="M 678 2272 
L 4684 2272 
L 4684 1741 
L 678 1741 
L 678 2272 
z
" transform="scale(0.015625)"/>
       </defs>
       <use xlink:href="#DejaVuSans-31" transform="translate(0 0.684375)"/>
       <use xlink:href="#DejaVuSans-30" transform="translate(63.623047 0.684375)"/>
       <use xlink:href="#DejaVuSans-2212" transform="translate(128.203125 38.965625) scale(0.7)"/>
       <use xlink:href="#DejaVuSans-31" transform="translate(186.855469 38.965625) scale(0.7)"/>
       <use xlink:href="#DejaVuSans-31" transform="translate(231.391602 38.965625) scale(0.7)"/>
      </g>
     </g>
    </g>
    <g id="xtick_2">
     <g id="line2d_3">
      <path d="M 155.10083 307.584 
L 155.10083 41.472 
" clip-path="url(#p15efc705d5)" style="fill: none; stroke: #b0b0b0; stroke-width: 0.8; stroke-linecap: square"/>
     </g>
     <g id="line2d_4">
      <g>
       <use xlink:href="#m68df58074b" x="155.10083" y="307.584" style="stroke: #000000; stroke-width: 0.8"/>
      </g>
     </g>
     <g id="text_2">
      <!-- $\mathdefault{10^{-9}}$ -->
      <g transform="translate(143.35083 322.182437) scale(0.1 -0.1)">
       <defs>
        <path id="DejaVuSans-39" d="M 703 97 
L 703 672 
Q 941 559 1184 500 
Q 1428 441 1663 441 
Q 2288 441 2617 861 
Q 2947 1281 2994 2138 
Q 2813 1869 2534 1725 
Q 2256 1581 1919 1581 
Q 1219 1581 811 2004 
Q 403 2428 403 3163 
Q 403 3881 828 4315 
Q 1253 4750 1959 4750 
Q 2769 4750 3195 4129 
Q 3622 3509 3622 2328 
Q 3622 1225 3098 567 
Q 2575 -91 1691 -91 
Q 1453 -91 1209 -44 
Q 966 3 703 97 
z
M 1959 2075 
Q 2384 2075 2632 2365 
Q 2881 2656 2881 3163 
Q 2881 3666 2632 3958 
Q 2384 4250 1959 4250 
Q 1534 4250 1286 3958 
Q 1038 3666 1038 3163 
Q 1038 2656 1286 2365 
Q 1534 2075 1959 2075 
z
" transform="scale(0.015625)"/>
       </defs>
       <use xlink:href="#DejaVuSans-31" transform="translate(0 0.765625)"/>
       <use xlink:href="#DejaVuSans-30" transform="translate(63.623047 0.765625)"/>
       <use xlink:href="#DejaVuSans-2212" transform="translate(128.203125 39.046875) scale(0.7)"/>
       <use xlink:href="#DejaVuSans-39" transform="translate(186.855469 39.046875) scale(0.7)"/>
      </g>
     </g>
    </g>
    <g id="xtick_3">
     <g id="line2d_5">
      <path d="M 209.014532 307.584 
L 209.014532 41.472 
" clip-path="url(#p15efc705d5)" style="fill: none; stroke: #b0b0b0; stroke-width: 0.8; stroke-linecap: square"/>
     </g>
     <g id="line2d_6">
      <g>
       <use xlink:href="#m68df58074b" x="209.014532" y="307.584" style="stroke: #000000; stroke-width: 0.8"/>
      </g>
     </g>
     <g id="text_3">
      <!-- $\mathdefault{10^{-7}}$ -->
      <g transform="translate(197.264532 322.182437) scale(0.1 -0.1)">
       <defs>
        <path id="DejaVuSans-37" d="M 525 4666 
L 3525 4666 
L 3525 4397 
L 1831 0 
L 1172 0 
L 2766 4134 
L 525 4134 
L 525 4666 
z
" transform="scale(0.015625)"/>
       </defs>
       <use xlink:href="#DejaVuSans-31" transform="translate(0 0.684375)"/>
       <use xlink:href="#DejaVuSans-30" transform="translate(63.623047 0.684375)"/>
       <use xlink:href="#DejaVuSans-2212" transform="translate(128.203125 38.965625) scale(0.7)"/>
       <use xlink:href="#DejaVuSans-37" transform="translate(186.855469 38.965625) scale(0.7)"/>
      </g>
     </g>
    </g>
    <g id="xtick_4">
     <g id="line2d_7">
      <path d="M 262.928234 307.584 
L 262.928234 41.472 
" clip-path="url(#p15efc705d5)" style="fill: none; stroke: #b0b0b0; stroke-width: 0.8; stroke-linecap: square"/>
     </g>
     <g id="line2d_8">
      <g>
       <use xlink:href="#m68df58074b" x="262.928234" y="307.584" style="stroke: #000000; stroke-width: 0.8"/>
      </g>
     </g>
     <g id="text_4">
      <!-- $\mathdefault{10^{-5}}$ -->
      <g transform="translate(251.178234 322.182437) scale(0.1 -0.1)">
       <defs>
        <path id="DejaVuSans-35" d="M 691 4666 
L 3169 4666 
L 3169 4134 
L 1269 4134 
L 1269 2991 
Q 1406 3038 1543 3061 
Q 1681 3084 1819 3084 
Q 2600 3084 3056 2656 
Q 3513 2228 3513 1497 
Q 3513 744 3044 326 
Q 2575 -91 1722 -91 
Q 1428 -91 1123 -41 
Q 819 9 494 109 
L 494 744 
Q 775 591 1075 516 
Q 1375 441 1709 441 
Q 2250 441 2565 725 
Q 2881 1009 2881 1497 
Q 2881 1984 2565 2268 
Q 2250 2553 1709 2553 
Q 1456 2553 1204 2497 
Q 953 2441 691 2322 
L 691 4666 
z
" transform="scale(0.015625)"/>
       </defs>
       <use xlink:href="#DejaVuSans-31" transform="translate(0 0.684375)"/>
       <use xlink:href="#DejaVuSans-30" transform="translate(63.623047 0.684375)"/>
       <use xlink:href="#DejaVuSans-2212" transform="translate(128.203125 38.965625) scale(0.7)"/>
       <use xlink:href="#DejaVuSans-35" transform="translate(186.855469 38.965625) scale(0.7)"/>
      </g>
     </g>
    </g>
    <g id="xtick_5">
     <g id="line2d_9">
      <path d="M 316.841936 307.584 
L 316.841936 41.472 
" clip-path="url(#p15efc705d5)" style="fill: none; stroke: #b0b0b0; stroke-width: 0.8; stroke-linecap: square"/>
     </g>
     <g id="line2d_10">
      <g>
       <use xlink:href="#m68df58074b" x="316.841936" y="307.584" style="stroke: #000000; stroke-width: 0.8"/>
      </g>
     </g>
     <g id="text_5">
      <!-- $\mathdefault{10^{-3}}$ -->
      <g transform="translate(305.091936 322.182437) scale(0.1 -0.1)">
       <defs>
        <path id="DejaVuSans-33" d="M 2597 2516 
Q 3050 2419 3304 2112 
Q 3559 1806 3559 1356 
Q 3559 666 3084 287 
Q 2609 -91 1734 -91 
Q 1441 -91 1130 -33 
Q 819 25 488 141 
L 488 750 
Q 750 597 1062 519 
Q 1375 441 1716 441 
Q 2309 441 2620 675 
Q 2931 909 2931 1356 
Q 2931 1769 2642 2001 
Q 2353 2234 1838 2234 
L 1294 2234 
L 1294 2753 
L 1863 2753 
Q 2328 2753 2575 2939 
Q 2822 3125 2822 3475 
Q 2822 3834 2567 4026 
Q 2313 4219 1838 4219 
Q 1578 4219 1281 4162 
Q 984 4106 628 3988 
L 628 4550 
Q 988 4650 1302 4700 
Q 1616 4750 1894 4750 
Q 2613 4750 3031 4423 
Q 3450 4097 3450 3541 
Q 3450 3153 3228 2886 
Q 3006 2619 2597 2516 
z
" transform="scale(0.015625)"/>
       </defs>
       <use xlink:href="#DejaVuSans-31" transform="translate(0 0.765625)"/>
       <use xlink:href="#DejaVuSans-30" transform="translate(63.623047 0.765625)"/>
       <use xlink:href="#DejaVuSans-2212" transform="translate(128.203125 39.046875) scale(0.7)"/>
       <use xlink:href="#DejaVuSans-33" transform="translate(186.855469 39.046875) scale(0.7)"/>
      </g>
     </g>
    </g>
    <g id="xtick_6">
     <g id="line2d_11">
      <path d="M 370.755638 307.584 
L 370.755638 41.472 
" clip-path="url(#p15efc705d5)" style="fill: none; stroke: #b0b0b0; stroke-width: 0.8; stroke-linecap: square"/>
     </g>
     <g id="line2d_12">
      <g>
       <use xlink:href="#m68df58074b" x="370.755638" y="307.584" style="stroke: #000000; stroke-width: 0.8"/>
      </g>
     </g>
     <g id="text_6">
      <!-- $\mathdefault{10^{-1}}$ -->
      <g transform="translate(359.005638 322.182437) scale(0.1 -0.1)">
       <use xlink:href="#DejaVuSans-31" transform="translate(0 0.684375)"/>
       <use xlink:href="#DejaVuSans-30" transform="translate(63.623047 0.684375)"/>
       <use xlink:href="#DejaVuSans-2212" transform="translate(128.203125 38.965625) scale(0.7)"/>
       <use xlink:href="#DejaVuSans-31" transform="translate(186.855469 38.965625) scale(0.7)"/>
      </g>
     </g>
    </g>
    <g id="text_7">
     <!-- ||$\delta$b||/||b|| -->
     <g transform="translate(211.56 335.962125) scale(0.1 -0.1)">
      <defs>
       <path id="DejaVuSans-7c" d="M 1344 4891 
L 1344 -1509 
L 813 -1509 
L 813 4891 
L 1344 4891 
z
" transform="scale(0.015625)"/>
       <path id="DejaVuSans-Oblique-3b4" d="M 3472 4053 
Q 3197 4272 2450 4272 
Q 1659 4272 1588 3906 
Q 1531 3619 2328 3469 
Q 2953 3353 3253 3003 
Q 3616 2581 3447 1716 
Q 3284 888 2763 400 
Q 2238 -91 1488 -91 
Q 741 -91 406 400 
Q 72 888 241 1747 
Q 363 2384 891 2900 
Q 1097 3100 1353 3213 
Q 913 3459 1000 3900 
Q 1166 4750 2544 4750 
Q 3234 4750 3566 4531 
L 3472 4053 
z
M 1753 3056 
Q 1525 2966 1306 2738 
Q 969 2384 847 1747 
Q 722 1113 919 756 
Q 1119 397 1584 397 
Q 2044 397 2381 759 
Q 2722 1122 2838 1716 
Q 2956 2338 2731 2638 
Q 2491 2959 2103 2994 
Q 1906 3013 1753 3056 
z
" transform="scale(0.015625)"/>
       <path id="DejaVuSans-62" d="M 3116 1747 
Q 3116 2381 2855 2742 
Q 2594 3103 2138 3103 
Q 1681 3103 1420 2742 
Q 1159 2381 1159 1747 
Q 1159 1113 1420 752 
Q 1681 391 2138 391 
Q 2594 391 2855 752 
Q 3116 1113 3116 1747 
z
M 1159 2969 
Q 1341 3281 1617 3432 
Q 1894 3584 2278 3584 
Q 2916 3584 3314 3078 
Q 3713 2572 3713 1747 
Q 3713 922 3314 415 
Q 2916 -91 2278 -91 
Q 1894 -91 1617 61 
Q 1341 213 1159 525 
L 1159 0 
L 581 0 
L 581 4863 
L 1159 4863 
L 1159 2969 
z
" transform="scale(0.015625)"/>
       <path id="DejaVuSans-2f" d="M 1625 4666 
L 2156 4666 
L 531 -594 
L 0 -594 
L 1625 4666 
z
" transform="scale(0.015625)"/>
      </defs>
      <use xlink:href="#DejaVuSans-7c" transform="translate(0 0.578125)"/>
      <use xlink:href="#DejaVuSans-7c" transform="translate(33.691406 0.578125)"/>
      <use xlink:href="#DejaVuSans-Oblique-3b4" transform="translate(67.382812 0.578125)"/>
      <use xlink:href="#DejaVuSans-62" transform="translate(128.564453 0.578125)"/>
      <use xlink:href="#DejaVuSans-7c" transform="translate(192.041016 0.578125)"/>
      <use xlink:href="#DejaVuSans-7c" transform="translate(225.732422 0.578125)"/>
      <use xlink:href="#DejaVuSans-2f" transform="translate(259.423828 0.578125)"/>
      <use xlink:href="#DejaVuSans-7c" transform="translate(293.115234 0.578125)"/>
      <use xlink:href="#DejaVuSans-7c" transform="translate(326.806641 0.578125)"/>
      <use xlink:href="#DejaVuSans-62" transform="translate(360.498047 0.578125)"/>
      <use xlink:href="#DejaVuSans-7c" transform="translate(423.974609 0.578125)"/>
      <use xlink:href="#DejaVuSans-7c" transform="translate(457.666016 0.578125)"/>
     </g>
    </g>
   </g>
   <g id="matplotlib.axis_2">
    <g id="ytick_1">
     <g id="line2d_13">
      <path d="M 57.6 288.302556 
L 414.72 288.302556 
" clip-path="url(#p15efc705d5)" style="fill: none; stroke: #b0b0b0; stroke-width: 0.8; stroke-linecap: square"/>
     </g>
     <g id="line2d_14">
      <defs>
       <path id="mf213044f36" d="M 0 0 
L -3.5 0 
" style="stroke: #000000; stroke-width: 0.8"/>
      </defs>
      <g>
       <use xlink:href="#mf213044f36" x="57.6" y="288.302556" style="stroke: #000000; stroke-width: 0.8"/>
      </g>
     </g>
     <g id="text_8">
      <!-- $\mathdefault{10^{-12}}$ -->
      <g transform="translate(22.7 292.101775) scale(0.1 -0.1)">
       <defs>
        <path id="DejaVuSans-32" d="M 1228 531 
L 3431 531 
L 3431 0 
L 469 0 
L 469 531 
Q 828 903 1448 1529 
Q 2069 2156 2228 2338 
Q 2531 2678 2651 2914 
Q 2772 3150 2772 3378 
Q 2772 3750 2511 3984 
Q 2250 4219 1831 4219 
Q 1534 4219 1204 4116 
Q 875 4013 500 3803 
L 500 4441 
Q 881 4594 1212 4672 
Q 1544 4750 1819 4750 
Q 2544 4750 2975 4387 
Q 3406 4025 3406 3419 
Q 3406 3131 3298 2873 
Q 3191 2616 2906 2266 
Q 2828 2175 2409 1742 
Q 1991 1309 1228 531 
z
" transform="scale(0.015625)"/>
       </defs>
       <use xlink:href="#DejaVuSans-31" transform="translate(0 0.765625)"/>
       <use xlink:href="#DejaVuSans-30" transform="translate(63.623047 0.765625)"/>
       <use xlink:href="#DejaVuSans-2212" transform="translate(128.203125 39.046875) scale(0.7)"/>
       <use xlink:href="#DejaVuSans-31" transform="translate(186.855469 39.046875) scale(0.7)"/>
       <use xlink:href="#DejaVuSans-32" transform="translate(231.391602 39.046875) scale(0.7)"/>
      </g>
     </g>
    </g>
    <g id="ytick_2">
     <g id="line2d_15">
      <path d="M 57.6 252.369437 
L 414.72 252.369437 
" clip-path="url(#p15efc705d5)" style="fill: none; stroke: #b0b0b0; stroke-width: 0.8; stroke-linecap: square"/>
     </g>
     <g id="line2d_16">
      <g>
       <use xlink:href="#mf213044f36" x="57.6" y="252.369437" style="stroke: #000000; stroke-width: 0.8"/>
      </g>
     </g>
     <g id="text_9">
      <!-- $\mathdefault{10^{-10}}$ -->
      <g transform="translate(22.7 256.168655) scale(0.1 -0.1)">
       <use xlink:href="#DejaVuSans-31" transform="translate(0 0.765625)"/>
       <use xlink:href="#DejaVuSans-30" transform="translate(63.623047 0.765625)"/>
       <use xlink:href="#DejaVuSans-2212" transform="translate(128.203125 39.046875) scale(0.7)"/>
       <use xlink:href="#DejaVuSans-31" transform="translate(186.855469 39.046875) scale(0.7)"/>
       <use xlink:href="#DejaVuSans-30" transform="translate(231.391602 39.046875) scale(0.7)"/>
      </g>
     </g>
    </g>
    <g id="ytick_3">
     <g id="line2d_17">
      <path d="M 57.6 216.436317 
L 414.72 216.436317 
" clip-path="url(#p15efc705d5)" style="fill: none; stroke: #b0b0b0; stroke-width: 0.8; stroke-linecap: square"/>
     </g>
     <g id="line2d_18">
      <g>
       <use xlink:href="#mf213044f36" x="57.6" y="216.436317" style="stroke: #000000; stroke-width: 0.8"/>
      </g>
     </g>
     <g id="text_10">
      <!-- $\mathdefault{10^{-8}}$ -->
      <g transform="translate(27.1 220.235536) scale(0.1 -0.1)">
       <defs>
        <path id="DejaVuSans-38" d="M 2034 2216 
Q 1584 2216 1326 1975 
Q 1069 1734 1069 1313 
Q 1069 891 1326 650 
Q 1584 409 2034 409 
Q 2484 409 2743 651 
Q 3003 894 3003 1313 
Q 3003 1734 2745 1975 
Q 2488 2216 2034 2216 
z
M 1403 2484 
Q 997 2584 770 2862 
Q 544 3141 544 3541 
Q 544 4100 942 4425 
Q 1341 4750 2034 4750 
Q 2731 4750 3128 4425 
Q 3525 4100 3525 3541 
Q 3525 3141 3298 2862 
Q 3072 2584 2669 2484 
Q 3125 2378 3379 2068 
Q 3634 1759 3634 1313 
Q 3634 634 3220 271 
Q 2806 -91 2034 -91 
Q 1263 -91 848 271 
Q 434 634 434 1313 
Q 434 1759 690 2068 
Q 947 2378 1403 2484 
z
M 1172 3481 
Q 1172 3119 1398 2916 
Q 1625 2713 2034 2713 
Q 2441 2713 2670 2916 
Q 2900 3119 2900 3481 
Q 2900 3844 2670 4047 
Q 2441 4250 2034 4250 
Q 1625 4250 1398 4047 
Q 1172 3844 1172 3481 
z
" transform="scale(0.015625)"/>
       </defs>
       <use xlink:href="#DejaVuSans-31" transform="translate(0 0.765625)"/>
       <use xlink:href="#DejaVuSans-30" transform="translate(63.623047 0.765625)"/>
       <use xlink:href="#DejaVuSans-2212" transform="translate(128.203125 39.046875) scale(0.7)"/>
       <use xlink:href="#DejaVuSans-38" transform="translate(186.855469 39.046875) scale(0.7)"/>
      </g>
     </g>
    </g>
    <g id="ytick_4">
     <g id="line2d_19">
      <path d="M 57.6 180.503197 
L 414.72 180.503197 
" clip-path="url(#p15efc705d5)" style="fill: none; stroke: #b0b0b0; stroke-width: 0.8; stroke-linecap: square"/>
     </g>
     <g id="line2d_20">
      <g>
       <use xlink:href="#mf213044f36" x="57.6" y="180.503197" style="stroke: #000000; stroke-width: 0.8"/>
      </g>
     </g>
     <g id="text_11">
      <!-- $\mathdefault{10^{-6}}$ -->
      <g transform="translate(27.1 184.302416) scale(0.1 -0.1)">
       <defs>
        <path id="DejaVuSans-36" d="M 2113 2584 
Q 1688 2584 1439 2293 
Q 1191 2003 1191 1497 
Q 1191 994 1439 701 
Q 1688 409 2113 409 
Q 2538 409 2786 701 
Q 3034 994 3034 1497 
Q 3034 2003 2786 2293 
Q 2538 2584 2113 2584 
z
M 3366 4563 
L 3366 3988 
Q 3128 4100 2886 4159 
Q 2644 4219 2406 4219 
Q 1781 4219 1451 3797 
Q 1122 3375 1075 2522 
Q 1259 2794 1537 2939 
Q 1816 3084 2150 3084 
Q 2853 3084 3261 2657 
Q 3669 2231 3669 1497 
Q 3669 778 3244 343 
Q 2819 -91 2113 -91 
Q 1303 -91 875 529 
Q 447 1150 447 2328 
Q 447 3434 972 4092 
Q 1497 4750 2381 4750 
Q 2619 4750 2861 4703 
Q 3103 4656 3366 4563 
z
" transform="scale(0.015625)"/>
       </defs>
       <use xlink:href="#DejaVuSans-31" transform="translate(0 0.765625)"/>
       <use xlink:href="#DejaVuSans-30" transform="translate(63.623047 0.765625)"/>
       <use xlink:href="#DejaVuSans-2212" transform="translate(128.203125 39.046875) scale(0.7)"/>
       <use xlink:href="#DejaVuSans-36" transform="translate(186.855469 39.046875) scale(0.7)"/>
      </g>
     </g>
    </g>
    <g id="ytick_5">
     <g id="line2d_21">
      <path d="M 57.6 144.570077 
L 414.72 144.570077 
" clip-path="url(#p15efc705d5)" style="fill: none; stroke: #b0b0b0; stroke-width: 0.8; stroke-linecap: square"/>
     </g>
     <g id="line2d_22">
      <g>
       <use xlink:href="#mf213044f36" x="57.6" y="144.570077" style="stroke: #000000; stroke-width: 0.8"/>
      </g>
     </g>
     <g id="text_12">
      <!-- $\mathdefault{10^{-4}}$ -->
      <g transform="translate(27.1 148.369296) scale(0.1 -0.1)">
       <defs>
        <path id="DejaVuSans-34" d="M 2419 4116 
L 825 1625 
L 2419 1625 
L 2419 4116 
z
M 2253 4666 
L 3047 4666 
L 3047 1625 
L 3713 1625 
L 3713 1100 
L 3047 1100 
L 3047 0 
L 2419 0 
L 2419 1100 
L 313 1100 
L 313 1709 
L 2253 4666 
z
" transform="scale(0.015625)"/>
       </defs>
       <use xlink:href="#DejaVuSans-31" transform="translate(0 0.684375)"/>
       <use xlink:href="#DejaVuSans-30" transform="translate(63.623047 0.684375)"/>
       <use xlink:href="#DejaVuSans-2212" transform="translate(128.203125 38.965625) scale(0.7)"/>
       <use xlink:href="#DejaVuSans-34" transform="translate(186.855469 38.965625) scale(0.7)"/>
      </g>
     </g>
    </g>
    <g id="ytick_6">
     <g id="line2d_23">
      <path d="M 57.6 108.636958 
L 414.72 108.636958 
" clip-path="url(#p15efc705d5)" style="fill: none; stroke: #b0b0b0; stroke-width: 0.8; stroke-linecap: square"/>
     </g>
     <g id="line2d_24">
      <g>
       <use xlink:href="#mf213044f36" x="57.6" y="108.636958" style="stroke: #000000; stroke-width: 0.8"/>
      </g>
     </g>
     <g id="text_13">
      <!-- $\mathdefault{10^{-2}}$ -->
      <g transform="translate(27.1 112.436176) scale(0.1 -0.1)">
       <use xlink:href="#DejaVuSans-31" transform="translate(0 0.765625)"/>
       <use xlink:href="#DejaVuSans-30" transform="translate(63.623047 0.765625)"/>
       <use xlink:href="#DejaVuSans-2212" transform="translate(128.203125 39.046875) scale(0.7)"/>
       <use xlink:href="#DejaVuSans-32" transform="translate(186.855469 39.046875) scale(0.7)"/>
      </g>
     </g>
    </g>
    <g id="ytick_7">
     <g id="line2d_25">
      <path d="M 57.6 72.703838 
L 414.72 72.703838 
" clip-path="url(#p15efc705d5)" style="fill: none; stroke: #b0b0b0; stroke-width: 0.8; stroke-linecap: square"/>
     </g>
     <g id="line2d_26">
      <g>
       <use xlink:href="#mf213044f36" x="57.6" y="72.703838" style="stroke: #000000; stroke-width: 0.8"/>
      </g>
     </g>
     <g id="text_14">
      <!-- $\mathdefault{10^{0}}$ -->
      <g transform="translate(33 76.503057) scale(0.1 -0.1)">
       <use xlink:href="#DejaVuSans-31" transform="translate(0 0.765625)"/>
       <use xlink:href="#DejaVuSans-30" transform="translate(63.623047 0.765625)"/>
       <use xlink:href="#DejaVuSans-30" transform="translate(128.203125 39.046875) scale(0.7)"/>
      </g>
     </g>
    </g>
    <g id="text_15">
     <!-- ||$\delta$x||/||x|| -->
     <g transform="translate(16.3 198.678) rotate(-90) scale(0.1 -0.1)">
      <defs>
       <path id="DejaVuSans-78" d="M 3513 3500 
L 2247 1797 
L 3578 0 
L 2900 0 
L 1881 1375 
L 863 0 
L 184 0 
L 1544 1831 
L 300 3500 
L 978 3500 
L 1906 2253 
L 2834 3500 
L 3513 3500 
z
" transform="scale(0.015625)"/>
      </defs>
      <use xlink:href="#DejaVuSans-7c" transform="translate(0 0.578125)"/>
      <use xlink:href="#DejaVuSans-7c" transform="translate(33.691406 0.578125)"/>
      <use xlink:href="#DejaVuSans-Oblique-3b4" transform="translate(67.382812 0.578125)"/>
      <use xlink:href="#DejaVuSans-78" transform="translate(128.564453 0.578125)"/>
      <use xlink:href="#DejaVuSans-7c" transform="translate(187.744141 0.578125)"/>
      <use xlink:href="#DejaVuSans-7c" transform="translate(221.435547 0.578125)"/>
      <use xlink:href="#DejaVuSans-2f" transform="translate(255.126953 0.578125)"/>
      <use xlink:href="#DejaVuSans-7c" transform="translate(288.818359 0.578125)"/>
      <use xlink:href="#DejaVuSans-7c" transform="translate(322.509766 0.578125)"/>
      <use xlink:href="#DejaVuSans-78" transform="translate(356.201172 0.578125)"/>
      <use xlink:href="#DejaVuSans-7c" transform="translate(415.380859 0.578125)"/>
      <use xlink:href="#DejaVuSans-7c" transform="translate(449.072266 0.578125)"/>
     </g>
    </g>
   </g>
   <g id="line2d_27">
    <path d="M 73.832727 292.710789 
L 74.454026 295.488 
L 74.532835 287.165234 
L 74.87759 290.585571 
L 74.887366 292.744519 
L 75.027263 287.467109 
L 75.360635 286.111575 
L 75.605538 287.55866 
L 76.664295 285.957056 
L 76.758828 287.689402 
L 77.003444 288.219765 
L 77.102514 290.378034 
L 77.425754 292.116028 
L 78.56131 291.608851 
L 78.764926 289.747693 
L 78.856817 292.862104 
L 79.20302 291.575041 
L 79.341609 282.862482 
L 79.765247 286.474883 
L 79.99108 286.852306 
L 80.914389 284.424302 
L 80.9418 293.656214 
L 81.454467 285.884543 
L 81.822673 283.661031 
L 82.342169 278.824217 
L 82.444486 289.398368 
L 83.036522 285.051887 
L 83.150856 289.016077 
L 83.170733 282.441888 
L 83.407604 285.164347 
L 84.239544 288.343594 
L 84.277773 288.145855 
L 84.559114 289.027769 
L 85.916266 285.667691 
L 86.081483 291.706907 
L 86.328997 284.484943 
L 86.546847 284.951909 
L 86.581247 281.122623 
L 86.665522 282.602456 
L 86.738721 279.503895 
L 87.05643 281.328687 
L 87.708407 277.289051 
L 89.299406 288.11639 
L 89.643987 281.047345 
L 90.171574 280.522121 
L 90.663574 279.114267 
L 90.773797 280.997072 
L 90.859188 280.415971 
L 91.283042 275.278844 
L 92.237006 280.318026 
L 92.481531 279.620112 
L 92.530342 276.818903 
L 92.731265 281.467561 
L 92.736335 274.527992 
L 93.141157 277.82285 
L 93.346494 280.577014 
L 94.085912 276.19165 
L 94.678553 283.345352 
L 95.325898 271.727672 
L 95.342785 277.928301 
L 95.914288 278.603129 
L 95.94581 271.402348 
L 96.237097 271.282866 
L 96.263671 274.23577 
L 96.368759 273.412605 
L 96.807378 280.762865 
L 97.061764 278.668193 
L 97.700669 274.494837 
L 97.959488 282.712277 
L 98.084274 272.464182 
L 98.361518 270.71467 
L 98.470681 267.920396 
L 99.349708 272.563975 
L 99.52058 277.71119 
L 99.721374 270.984233 
L 100.703022 278.156224 
L 100.982845 274.952408 
L 101.579901 272.886376 
L 102.404846 274.305047 
L 103.008855 277.550446 
L 103.026715 271.83728 
L 103.429684 277.647189 
L 104.102741 278.618042 
L 104.102969 266.735962 
L 104.123581 272.776078 
L 104.263237 275.019378 
L 104.46218 275.619056 
L 104.951138 267.238287 
L 105.442787 270.844192 
L 105.846272 272.567142 
L 106.130075 267.328708 
L 106.417122 271.740006 
L 107.415822 263.517234 
L 107.712242 269.532059 
L 108.407436 268.150904 
L 108.560385 271.579375 
L 108.927897 266.086275 
L 109.012476 269.614149 
L 109.281566 268.871094 
L 109.605514 268.480681 
L 109.712481 268.649796 
L 110.410471 269.00109 
L 110.920844 274.733622 
L 111.13627 264.192149 
L 111.158166 268.502709 
L 111.364206 260.85379 
L 111.964779 265.733554 
L 112.267313 271.640163 
L 112.342471 267.095836 
L 112.739268 266.89171 
L 112.753351 264.481936 
L 113.712459 266.480162 
L 113.890888 262.578086 
L 114.610395 267.295362 
L 114.712724 264.209999 
L 114.965569 264.628369 
L 115.458168 263.055413 
L 115.966325 259.144452 
L 116.002345 262.259117 
L 116.38201 260.6108 
L 116.55654 267.497896 
L 116.626854 263.500199 
L 117.589622 266.116245 
L 117.720195 260.666274 
L 117.974569 266.007774 
L 117.989745 258.560902 
L 118.664845 263.728179 
L 118.946215 263.293461 
L 119.615164 264.440427 
L 119.750979 260.118306 
L 120.147333 264.446291 
L 120.664152 261.626387 
L 121.140063 257.553459 
L 121.231245 260.749672 
L 121.97502 258.690416 
L 122.130993 256.932813 
L 122.16553 259.473358 
L 122.18555 257.947031 
L 122.288677 257.748427 
L 123.059018 254.666821 
L 123.366979 260.486742 
L 123.735426 254.490567 
L 124.831003 254.657968 
L 124.841641 262.096652 
L 124.943997 254.738867 
L 125.007889 256.165349 
L 125.974994 255.090007 
L 126.145241 254.547325 
L 127.013154 260.580479 
L 127.328458 256.845362 
L 127.794976 253.151091 
L 128.040089 253.977109 
L 128.395702 252.467874 
L 128.684205 253.071064 
L 128.874535 257.332523 
L 128.896416 252.142334 
L 129.010313 253.767306 
L 129.911155 255.639314 
L 130.109951 249.414277 
L 130.363046 258.520742 
L 131.155876 254.726418 
L 131.296585 250.443468 
L 131.301839 254.486452 
L 132.358289 246.7539 
L 132.483699 254.881111 
L 132.629008 251.258769 
L 133.198945 254.172106 
L 133.437472 247.686581 
L 134.194816 254.367476 
L 134.204287 254.193932 
L 134.265818 246.336034 
L 134.529335 255.837807 
L 134.789535 255.6479 
L 135.776303 253.381995 
L 136.374746 256.237522 
L 136.569343 247.563086 
L 136.885263 248.750477 
L 136.921521 254.029887 
L 137.449839 248.417368 
L 137.556301 248.540211 
L 137.974897 247.604502 
L 138.022517 249.371212 
L 138.932732 248.02851 
L 139.002545 249.871471 
L 139.14612 250.240609 
L 139.323264 248.018898 
L 139.644255 247.356213 
L 139.948111 247.577485 
L 140.497736 256.378154 
L 140.609809 243.22855 
L 140.921058 250.439838 
L 141.17725 244.377734 
L 141.809129 245.220343 
L 141.825814 243.393312 
L 142.123723 247.406362 
L 142.347485 242.66603 
L 142.397927 246.53976 
L 143.326542 247.056501 
L 143.708586 246.194338 
L 144.429031 244.058315 
L 144.45853 240.405036 
L 144.600449 242.017299 
L 145.05744 241.671768 
L 145.133056 244.504264 
L 146.170222 242.281349 
L 146.456161 239.990811 
L 146.604681 246.448991 
L 147.673094 242.592464 
L 147.716829 240.041362 
L 147.892086 239.270636 
L 148.291455 240.888283 
L 148.718904 240.035538 
L 148.752895 239.111359 
L 149.046149 241.762719 
L 149.442431 238.152203 
L 149.486504 242.815395 
L 150.16462 239.787392 
L 150.283558 235.695999 
L 150.459373 240.732148 
L 150.60083 237.958958 
L 150.995576 239.682392 
L 151.41129 235.981402 
L 152.026295 238.053056 
L 152.175378 241.213234 
L 153.059647 236.641026 
L 153.126943 238.201901 
L 153.485632 235.928535 
L 153.685275 235.919575 
L 153.972719 246.731992 
L 154.346968 242.959531 
L 154.552362 237.48333 
L 155.587664 243.243594 
L 155.634377 235.153087 
L 156.445225 240.673096 
L 156.446018 235.260796 
L 156.574882 235.276838 
L 156.636196 239.920364 
L 156.752581 232.707926 
L 156.758997 241.093952 
L 156.867193 234.470192 
L 157.86476 239.308172 
L 157.945467 233.182909 
L 159.007055 233.612636 
L 159.028455 237.358053 
L 159.885119 234.94173 
L 160.032852 235.694077 
L 160.143723 233.220983 
L 160.900149 227.807755 
L 160.964601 234.536527 
L 161.603287 237.024271 
L 161.978664 236.81849 
L 162.333026 229.858087 
L 162.388468 228.227777 
L 162.489869 233.543989 
L 162.582173 234.877262 
L 162.870388 232.340489 
L 163.345437 234.779882 
L 163.594358 232.369094 
L 164.014888 229.506174 
L 164.659524 229.403425 
L 165.065768 232.770802 
L 165.084935 234.164039 
L 165.160363 226.54161 
L 165.81449 226.735902 
L 165.871374 232.439208 
L 167.131819 229.012336 
L 167.168678 223.017937 
L 167.178242 231.497817 
L 167.611075 228.595444 
L 167.977009 232.688339 
L 168.088068 230.605065 
L 168.966838 227.541685 
L 169.11421 225.544541 
L 169.477922 228.646827 
L 169.541479 228.191656 
L 170.188074 232.155083 
L 170.46106 222.413831 
L 170.715544 225.501974 
L 171.609714 223.927963 
L 171.926507 231.344132 
L 171.976068 226.723273 
L 172.900779 221.399472 
L 172.908879 228.486003 
L 174.338079 223.73743 
L 174.344235 224.857842 
L 174.50521 226.354295 
L 176.25552 225.309839 
L 176.346846 222.803298 
L 176.404978 228.543016 
L 176.484806 220.444538 
L 176.687907 226.897404 
L 176.805385 223.479105 
L 177.263204 220.803083 
L 177.625495 226.902405 
L 177.956988 222.975694 
L 178.721705 226.041374 
L 178.738718 227.637827 
L 179.136425 220.646771 
L 179.167426 223.110676 
L 179.450723 222.137011 
L 179.705833 223.3901 
L 179.92109 223.081282 
L 180.587219 223.798539 
L 181.072221 215.532899 
L 181.180108 222.775063 
L 181.855601 221.160759 
L 182.259312 222.508517 
L 182.535074 222.307628 
L 182.571866 218.08443 
L 182.713927 217.563106 
L 182.898616 218.25437 
L 184.088192 222.163553 
L 184.136703 220.477183 
L 184.459808 219.750662 
L 184.585382 216.547754 
L 185.357064 217.154434 
L 185.398929 216.932828 
L 185.474139 217.583773 
L 185.501923 223.303727 
L 185.620406 212.712972 
L 186.414327 214.944211 
L 187.033357 223.249144 
L 187.309733 215.739967 
L 187.466709 218.374973 
L 187.508685 217.708371 
L 188.069852 221.081585 
L 188.157645 213.237878 
L 188.256175 220.66554 
L 189.542134 216.327735 
L 189.710062 209.367553 
L 190.243625 212.926564 
L 190.709211 214.858015 
L 190.774221 216.229121 
L 190.906524 211.431046 
L 191.081835 212.769975 
L 191.841458 208.282287 
L 191.952809 210.914152 
L 192.860824 213.791368 
L 193.021541 212.907788 
L 193.063413 211.856124 
L 194.027111 208.068796 
L 194.073733 209.657009 
L 194.582361 214.299548 
L 194.780028 212.80576 
L 194.840558 213.930809 
L 195.259763 215.101827 
L 195.474711 213.381781 
L 195.489534 208.157163 
L 195.91627 214.662251 
L 196.060677 213.206135 
L 196.49409 210.11862 
L 196.646067 204.331612 
L 197.015373 210.987991 
L 197.90472 210.331475 
L 198.382208 210.779673 
L 198.404861 210.59027 
L 199.16227 201.348153 
L 199.758649 203.624332 
L 199.852956 211.000757 
L 199.877179 202.594437 
L 200.14315 208.708538 
L 200.40308 208.889794 
L 200.476327 211.764518 
L 201.113924 206.58712 
L 201.948157 203.840448 
L 202.264388 204.876798 
L 202.617858 212.232633 
L 202.750546 203.256911 
L 203.066083 208.165878 
L 203.335737 207.400735 
L 203.697575 198.961778 
L 203.765611 201.908384 
L 204.535103 204.036661 
L 204.568699 202.12371 
L 204.74437 204.841238 
L 205.161379 203.306673 
L 206.225741 204.67403 
L 206.274863 202.636404 
L 206.737759 205.622467 
L 207.405067 194.780995 
L 207.467711 202.487359 
L 207.646383 202.440539 
L 208.454085 203.479885 
L 208.690906 202.501649 
L 208.818283 196.429732 
L 208.95949 201.838042 
L 209.206293 198.738933 
L 209.642175 199.209835 
L 210.429071 201.246517 
L 210.644796 194.307992 
L 211.186146 201.127758 
L 211.720688 196.613474 
L 212.265509 203.339975 
L 212.560933 200.227232 
L 212.880267 203.688752 
L 213.532021 203.714179 
L 213.990742 196.374377 
L 214.013134 200.004361 
L 214.673383 193.328225 
L 214.735745 199.013269 
L 215.029265 193.572596 
L 215.423241 198.272804 
L 215.465602 192.91874 
L 215.891671 199.759546 
L 216.228418 200.104256 
L 216.574326 192.219139 
L 216.862486 194.615685 
L 216.916792 199.678332 
L 217.051587 194.244415 
L 217.437453 193.193291 
L 218.304489 191.769307 
L 218.835625 196.146949 
L 219.713604 199.489306 
L 219.811383 192.716615 
L 219.862711 195.422776 
L 220.227692 196.082178 
L 220.682902 192.48475 
L 221.131742 191.428677 
L 221.50946 196.729624 
L 221.641961 196.608407 
L 221.651427 194.873784 
L 222.204234 191.128135 
L 222.403712 192.580037 
L 222.668112 193.288779 
L 223.007147 189.227592 
L 223.136316 195.410425 
L 223.900332 186.111878 
L 225.343093 195.049528 
L 225.365582 187.524546 
L 225.446614 194.038719 
L 225.828877 189.117425 
L 226.389643 189.836946 
L 226.564465 193.446374 
L 226.799505 188.225658 
L 227.482534 188.997749 
L 227.912221 189.886038 
L 228.59481 189.402794 
L 228.745162 188.355035 
L 228.866714 191.428781 
L 228.952767 185.754411 
L 229.177164 192.18364 
L 229.790537 187.228167 
L 229.916255 189.628498 
L 230.098736 186.038008 
L 230.609845 192.33535 
L 230.652774 191.176529 
L 230.767028 191.137723 
L 231.806098 184.28787 
L 232.124537 187.946213 
L 232.510937 185.19044 
L 232.570209 189.611532 
L 232.884431 187.929206 
L 233.106245 191.046977 
L 233.453084 190.203409 
L 233.780708 185.477259 
L 234.885323 182.47351 
L 235.510124 185.439285 
L 235.534294 181.458905 
L 235.656485 187.026632 
L 236.242496 183.207913 
L 236.442527 187.856445 
L 237.703473 185.022766 
L 237.936014 186.109064 
L 237.989176 179.724736 
L 238.129636 179.51119 
L 239.254339 178.083249 
L 239.685534 181.923463 
L 239.826371 180.949045 
L 240.071176 182.532957 
L 240.098875 176.927651 
L 240.644578 183.111044 
L 241.046981 181.585882 
L 241.36765 175.539588 
L 241.706789 173.850531 
L 241.937397 179.030662 
L 242.346815 178.016417 
L 242.385692 180.520476 
L 242.640273 180.532334 
L 243.384453 183.147315 
L 243.477255 178.157777 
L 244.081491 173.296966 
L 244.163933 174.700141 
L 244.908954 180.262093 
L 245.222463 173.66373 
L 245.533932 175.423095 
L 245.696484 177.451494 
L 245.801257 174.885055 
L 246.078948 183.909462 
L 246.628341 178.013261 
L 247.28544 174.545059 
L 247.42562 175.742925 
L 247.544862 171.611563 
L 247.570745 172.900061 
L 248.058415 177.944707 
L 249.128514 170.219736 
L 249.275488 174.55606 
L 249.380118 173.110282 
L 249.921607 172.213883 
L 249.999047 179.447002 
L 250.060962 177.059257 
L 250.276697 175.658066 
L 250.68643 175.68478 
L 251.198161 168.820898 
L 251.409087 171.56164 
L 251.869979 172.228324 
L 252.037436 176.350651 
L 252.46207 175.48406 
L 252.671531 170.752026 
L 253.274543 176.887777 
L 253.283544 168.311126 
L 253.506382 167.90709 
L 254.138855 171.337031 
L 254.216069 166.027164 
L 254.388672 171.904259 
L 254.912237 176.13923 
L 255.43524 175.841344 
L 255.7253 171.845218 
L 256.121079 168.782139 
L 256.188821 169.58139 
L 256.28074 168.758626 
L 256.349363 174.670027 
L 256.867294 167.774247 
L 257.399272 172.631744 
L 257.733589 171.536185 
L 257.922516 166.722527 
L 258.721926 170.492633 
L 259.724303 173.979379 
L 259.863818 167.776617 
L 260.240095 168.223437 
L 260.484042 165.156824 
L 260.955827 171.404257 
L 261.56267 165.567674 
L 261.6133 163.082729 
L 261.927708 170.416479 
L 262.322776 163.830857 
L 262.431941 168.090742 
L 262.522479 165.676349 
L 262.698876 164.546947 
L 264.264138 166.677839 
L 264.534151 163.524127 
L 265.055315 163.133023 
L 265.303665 161.313936 
L 265.990718 157.920504 
L 265.995935 161.053283 
L 266.52311 162.132838 
L 266.649825 168.108933 
L 266.745898 162.052095 
L 267.725093 162.514088 
L 268.345011 164.923578 
L 269.028638 163.597172 
L 269.166308 164.314333 
L 269.181994 165.522328 
L 269.419988 161.47886 
L 270.050646 158.34363 
L 270.153464 165.569815 
L 270.212181 158.973787 
L 270.373501 157.162203 
L 270.648897 165.528119 
L 271.069088 160.439251 
L 271.658359 159.039154 
L 271.948614 159.448577 
L 272.412961 160.623305 
L 272.605491 161.541534 
L 272.720966 160.122945 
L 273.037893 159.526816 
L 273.670194 162.017635 
L 273.767305 161.598616 
L 273.964216 157.590829 
L 274.349474 156.919072 
L 274.723116 161.155701 
L 275.312872 158.401926 
L 275.527184 154.835881 
L 275.527627 155.440444 
L 276.261325 158.23472 
L 276.944492 159.043587 
L 277.711138 156.097254 
L 277.822955 154.689871 
L 278.54933 156.221403 
L 278.798877 155.783176 
L 279.791029 151.853333 
L 279.847117 153.527443 
L 280.656959 155.440441 
L 280.830983 158.194784 
L 281.272445 154.87757 
L 281.583953 147.132019 
L 281.612903 154.957396 
L 281.896748 152.353676 
L 282.108017 149.090645 
L 282.918976 149.251045 
L 283.062669 153.691222 
L 283.064223 152.233437 
L 283.179995 153.385242 
L 283.964562 148.626271 
L 284.491687 146.959918 
L 284.514583 153.444832 
L 284.666834 152.834798 
L 285.386604 149.392361 
L 286.132657 149.543558 
L 286.220205 150.530005 
L 286.352987 154.763584 
L 286.885861 146.835048 
L 287.076145 153.377604 
L 287.493345 150.144224 
L 287.987924 148.82874 
L 288.564726 150.334603 
L 288.863591 153.112945 
L 289.070375 143.681594 
L 289.128191 150.945712 
L 289.794208 147.49498 
L 289.960062 147.718983 
L 290.050602 145.842119 
L 290.217688 148.013551 
L 290.399498 147.049514 
L 290.847664 144.018096 
L 290.902706 149.769958 
L 291.897187 146.091916 
L 292.091771 146.944324 
L 292.704954 144.546154 
L 292.978567 147.043003 
L 293.635574 141.243535 
L 293.877998 141.167893 
L 294.024069 142.055591 
L 294.242376 145.034552 
L 294.271754 144.427573 
L 295.287187 147.560645 
L 295.438984 148.499032 
L 295.631357 143.986314 
L 295.701045 144.687712 
L 295.736232 148.625104 
L 296.321886 146.920436 
L 296.563645 138.901356 
L 296.951605 144.472056 
L 297.335862 137.350799 
L 297.514022 138.837367 
L 297.522604 138.414038 
L 297.906276 145.376175 
L 299.089893 139.601321 
L 299.53478 138.983473 
L 299.620945 145.530328 
L 300.139182 139.818527 
L 300.689079 142.926016 
L 300.836198 140.535138 
L 300.847731 136.829277 
L 301.839742 135.26382 
L 302.183997 135.879584 
L 302.509695 137.367563 
L 303.018725 142.826415 
L 303.349496 142.314835 
L 303.448263 139.492883 
L 303.630774 140.72756 
L 304.044192 135.777186 
L 304.406616 139.002232 
L 305.27018 133.592316 
L 305.625517 140.296132 
L 305.685116 140.186841 
L 305.954102 132.993527 
L 306.779189 133.881112 
L 306.799059 132.459662 
L 306.803953 135.425207 
L 306.899041 136.814889 
L 307.305438 138.257606 
L 307.410188 139.091642 
L 308.867641 131.974626 
L 309.07321 137.226674 
L 309.116315 133.534256 
L 309.185963 137.25045 
L 309.318042 136.587647 
L 309.547592 133.791555 
L 309.650177 134.440678 
L 310.302413 136.790689 
L 310.820742 132.35661 
L 310.963553 133.341765 
L 311.477178 129.276435 
L 312.054837 139.359504 
L 312.170927 128.493632 
L 312.431387 135.333117 
L 313.223479 129.82878 
L 313.459633 135.027363 
L 314.208284 126.061954 
L 314.665028 131.208571 
L 314.713801 133.999884 
L 314.804671 132.241539 
L 315.041397 130.911963 
L 315.695546 129.881799 
L 316.171095 136.637076 
L 316.35756 125.634914 
L 317.381002 131.018859 
L 317.650903 127.021861 
L 317.65741 129.772763 
L 317.707215 128.461646 
L 317.872412 129.597 
L 318.628877 124.604599 
L 318.68609 133.02389 
L 319.1589 127.688663 
L 319.652163 131.596027 
L 320.25364 124.843202 
L 320.724086 131.557826 
L 320.748266 129.289832 
L 321.118912 131.167521 
L 321.550539 127.21382 
L 321.617685 128.584421 
L 321.885122 123.37141 
L 322.050906 128.636282 
L 322.60089 126.880025 
L 322.932012 129.166802 
L 324.032762 123.304269 
L 324.65285 124.024074 
L 324.695667 128.578768 
L 324.784542 123.075309 
L 325.130193 124.710831 
L 325.862254 125.919669 
L 326.290093 119.423753 
L 326.670409 121.637051 
L 326.736674 119.503658 
L 326.795692 121.479543 
L 327.397853 121.672108 
L 328.014379 123.523184 
L 328.176474 120.452059 
L 328.69835 125.134294 
L 328.732908 122.309872 
L 328.760415 128.407834 
L 329.308505 122.571131 
L 329.613925 118.016318 
L 329.723708 120.833497 
L 330.900286 120.081387 
L 331.139144 122.014356 
L 331.286196 121.871497 
L 331.524838 125.91527 
L 331.675511 115.693416 
L 331.719176 116.229931 
L 331.873751 121.478877 
L 332.839609 119.12277 
L 333.034662 114.683933 
L 333.203434 119.24183 
L 333.683748 118.563121 
L 333.720128 123.587576 
L 333.918699 123.186187 
L 334.631395 114.915858 
L 335.148285 115.549186 
L 335.21956 112.697153 
L 335.372713 121.566171 
L 335.680238 117.071012 
L 335.994255 114.356358 
L 335.994328 118.500543 
L 336.38639 115.530377 
L 336.404804 113.815196 
L 337.214519 111.848292 
L 337.454099 120.546072 
L 337.751115 114.301691 
L 338.409881 112.046512 
L 338.839773 117.793322 
L 339.154413 112.093761 
L 339.426921 111.406483 
L 339.95347 110.611568 
L 340.218429 113.30658 
L 340.235376 112.774566 
L 340.763091 112.950146 
L 341.085294 111.295718 
L 341.744919 114.522341 
L 341.809537 109.38128 
L 341.957423 108.588303 
L 342.265673 110.910043 
L 342.953777 114.735089 
L 343.43355 110.235213 
L 343.522602 114.740315 
L 344.237852 113.742355 
L 345.258121 109.414866 
L 345.394296 116.751354 
L 345.599615 106.529534 
L 346.086221 109.379241 
L 346.256331 113.480211 
L 346.834855 106.425634 
L 346.987686 110.121995 
L 347.428545 115.47135 
L 347.626073 102.666254 
L 348.466423 111.868719 
L 348.771495 110.700581 
L 349.105035 107.261131 
L 349.592565 113.15567 
L 349.91056 105.794448 
L 350.036494 112.412117 
L 350.143438 106.383326 
L 350.983708 109.567367 
L 351.240967 108.817781 
L 351.323184 109.414583 
L 352.035073 103.647447 
L 352.174487 107.756514 
L 352.470883 103.839344 
L 352.861523 106.199213 
L 353.628344 101.636343 
L 354.173975 106.112342 
L 354.25567 105.119234 
L 354.725215 108.043237 
L 355.099913 108.344288 
L 355.454783 102.023641 
L 355.835333 108.131994 
L 355.935033 105.413199 
L 356.204293 104.848147 
L 356.842837 99.502524 
L 357.178728 105.914463 
L 357.362128 101.855879 
L 357.954085 100.343606 
L 358.009881 99.70668 
L 358.819585 95.573515 
L 359.428371 98.463923 
L 359.816284 103.478645 
L 359.975345 98.168752 
L 360.009966 100.898518 
L 360.662362 103.978893 
L 361.167854 104.21716 
L 361.545088 106.695691 
L 361.661937 99.704593 
L 361.882051 99.363486 
L 362.145249 95.862121 
L 362.698828 104.205587 
L 362.769362 100.54813 
L 363.043913 97.371376 
L 363.167034 100.336826 
L 363.942432 99.782918 
L 364.229786 103.011971 
L 364.553868 98.468213 
L 364.739218 94.295901 
L 365.789649 101.528264 
L 365.810091 95.970169 
L 366.406113 98.731538 
L 366.643443 102.7625 
L 367.249978 96.911643 
L 367.356057 94.184664 
L 367.480657 97.690123 
L 367.579176 94.72328 
L 367.65923 95.761761 
L 368.105604 95.2482 
L 368.309329 97.07892 
L 369.394567 96.693661 
L 369.790588 92.898861 
L 369.822849 98.264428 
L 370.157509 96.802997 
L 370.781646 91.114786 
L 370.81599 93.580436 
L 371.306299 97.761522 
L 371.590771 91.578759 
L 371.697209 95.235132 
L 372.139088 96.36932 
L 372.307279 97.205436 
L 372.483794 88.17632 
L 372.915004 94.00966 
L 373.173127 87.232956 
L 373.184038 91.075749 
L 373.508229 92.390974 
L 374.32576 89.149107 
L 375.114737 91.638481 
L 375.133129 93.321541 
L 375.53203 85.528607 
L 375.935477 89.581251 
L 376.103874 85.890024 
L 376.216649 92.146764 
L 376.768125 83.646262 
L 377.186811 88.496892 
L 377.398565 85.921175 
L 377.572355 86.386271 
L 377.946041 94.732941 
L 378.349603 85.080311 
L 378.726673 86.077906 
L 379.089883 89.125082 
L 379.442755 89.611509 
L 379.698667 90.494427 
L 379.805444 87.961596 
L 380.710071 85.25313 
L 380.768143 84.484644 
L 380.857907 84.824982 
L 381.598757 85.522521 
L 381.608403 88.688955 
L 381.993229 91.003975 
L 382.279239 87.47106 
L 382.361154 90.386579 
L 382.618835 81.795036 
L 382.964701 87.613287 
L 383.221981 80.10333 
L 384.448471 79.394201 
L 384.520253 82.481671 
L 384.565357 81.823145 
L 384.733452 82.504262 
L 385.286228 82.393774 
L 385.48697 79.034427 
L 386.594856 82.037422 
L 387.094686 77.22537 
L 387.238204 84.114117 
L 387.664506 79.862695 
L 387.788761 81.675752 
L 388.044409 83.193555 
L 388.45936 81.807815 
L 388.647322 85.532399 
L 388.742445 79.898909 
L 389.230845 80.510785 
L 389.489074 80.583773 
L 389.596912 83.867815 
L 390.177367 85.484811 
L 390.619539 80.710613 
L 390.651724 82.269677 
L 390.866787 80.097118 
L 390.993254 80.394221 
L 391.462578 82.38818 
L 391.581283 77.224577 
L 392.822338 83.200279 
L 392.967698 78.368009 
L 393.195235 79.352209 
L 393.233811 77.559128 
L 393.293948 82.110419 
L 393.416592 78.429399 
L 393.98695 80.517599 
L 394.178359 78.40096 
L 394.8519 76.34126 
L 395.095605 75.168366 
L 395.950963 72.501139 
L 395.995599 78.771634 
L 396.288901 73.376723 
L 396.477721 79.696519 
L 398.487273 77.490789 
L 398.487273 77.490789 
" clip-path="url(#p15efc705d5)" style="fill: none; stroke: #1f77b4; stroke-width: 1.5; stroke-linecap: square"/>
   </g>
   <g id="line2d_28">
    <path d="M 73.832727 269.948071 
L 398.487273 53.568 
L 398.487273 53.568 
" clip-path="url(#p15efc705d5)" style="fill: none; stroke: #ff7f0e; stroke-width: 1.5; stroke-linecap: square"/>
   </g>
   <g id="patch_3">
    <path d="M 57.6 307.584 
L 57.6 41.472 
" style="fill: none; stroke: #000000; stroke-width: 0.8; stroke-linejoin: miter; stroke-linecap: square"/>
   </g>
   <g id="patch_4">
    <path d="M 414.72 307.584 
L 414.72 41.472 
" style="fill: none; stroke: #000000; stroke-width: 0.8; stroke-linejoin: miter; stroke-linecap: square"/>
   </g>
   <g id="patch_5">
    <path d="M 57.6 307.584 
L 414.72 307.584 
" style="fill: none; stroke: #000000; stroke-width: 0.8; stroke-linejoin: miter; stroke-linecap: square"/>
   </g>
   <g id="patch_6">
    <path d="M 57.6 41.472 
L 414.72 41.472 
" style="fill: none; stroke: #000000; stroke-width: 0.8; stroke-linejoin: miter; stroke-linecap: square"/>
   </g>
   <g id="text_16">
    <!-- Perturbation when b is disturbed (m = 100) -->
    <g transform="translate(105.308437 35.472) scale(0.12 -0.12)">
     <defs>
      <path id="DejaVuSans-50" d="M 1259 4147 
L 1259 2394 
L 2053 2394 
Q 2494 2394 2734 2622 
Q 2975 2850 2975 3272 
Q 2975 3691 2734 3919 
Q 2494 4147 2053 4147 
L 1259 4147 
z
M 628 4666 
L 2053 4666 
Q 2838 4666 3239 4311 
Q 3641 3956 3641 3272 
Q 3641 2581 3239 2228 
Q 2838 1875 2053 1875 
L 1259 1875 
L 1259 0 
L 628 0 
L 628 4666 
z
" transform="scale(0.015625)"/>
      <path id="DejaVuSans-65" d="M 3597 1894 
L 3597 1613 
L 953 1613 
Q 991 1019 1311 708 
Q 1631 397 2203 397 
Q 2534 397 2845 478 
Q 3156 559 3463 722 
L 3463 178 
Q 3153 47 2828 -22 
Q 2503 -91 2169 -91 
Q 1331 -91 842 396 
Q 353 884 353 1716 
Q 353 2575 817 3079 
Q 1281 3584 2069 3584 
Q 2775 3584 3186 3129 
Q 3597 2675 3597 1894 
z
M 3022 2063 
Q 3016 2534 2758 2815 
Q 2500 3097 2075 3097 
Q 1594 3097 1305 2825 
Q 1016 2553 972 2059 
L 3022 2063 
z
" transform="scale(0.015625)"/>
      <path id="DejaVuSans-72" d="M 2631 2963 
Q 2534 3019 2420 3045 
Q 2306 3072 2169 3072 
Q 1681 3072 1420 2755 
Q 1159 2438 1159 1844 
L 1159 0 
L 581 0 
L 581 3500 
L 1159 3500 
L 1159 2956 
Q 1341 3275 1631 3429 
Q 1922 3584 2338 3584 
Q 2397 3584 2469 3576 
Q 2541 3569 2628 3553 
L 2631 2963 
z
" transform="scale(0.015625)"/>
      <path id="DejaVuSans-74" d="M 1172 4494 
L 1172 3500 
L 2356 3500 
L 2356 3053 
L 1172 3053 
L 1172 1153 
Q 1172 725 1289 603 
Q 1406 481 1766 481 
L 2356 481 
L 2356 0 
L 1766 0 
Q 1100 0 847 248 
Q 594 497 594 1153 
L 594 3053 
L 172 3053 
L 172 3500 
L 594 3500 
L 594 4494 
L 1172 4494 
z
" transform="scale(0.015625)"/>
      <path id="DejaVuSans-75" d="M 544 1381 
L 544 3500 
L 1119 3500 
L 1119 1403 
Q 1119 906 1312 657 
Q 1506 409 1894 409 
Q 2359 409 2629 706 
Q 2900 1003 2900 1516 
L 2900 3500 
L 3475 3500 
L 3475 0 
L 2900 0 
L 2900 538 
Q 2691 219 2414 64 
Q 2138 -91 1772 -91 
Q 1169 -91 856 284 
Q 544 659 544 1381 
z
M 1991 3584 
L 1991 3584 
z
" transform="scale(0.015625)"/>
      <path id="DejaVuSans-61" d="M 2194 1759 
Q 1497 1759 1228 1600 
Q 959 1441 959 1056 
Q 959 750 1161 570 
Q 1363 391 1709 391 
Q 2188 391 2477 730 
Q 2766 1069 2766 1631 
L 2766 1759 
L 2194 1759 
z
M 3341 1997 
L 3341 0 
L 2766 0 
L 2766 531 
Q 2569 213 2275 61 
Q 1981 -91 1556 -91 
Q 1019 -91 701 211 
Q 384 513 384 1019 
Q 384 1609 779 1909 
Q 1175 2209 1959 2209 
L 2766 2209 
L 2766 2266 
Q 2766 2663 2505 2880 
Q 2244 3097 1772 3097 
Q 1472 3097 1187 3025 
Q 903 2953 641 2809 
L 641 3341 
Q 956 3463 1253 3523 
Q 1550 3584 1831 3584 
Q 2591 3584 2966 3190 
Q 3341 2797 3341 1997 
z
" transform="scale(0.015625)"/>
      <path id="DejaVuSans-69" d="M 603 3500 
L 1178 3500 
L 1178 0 
L 603 0 
L 603 3500 
z
M 603 4863 
L 1178 4863 
L 1178 4134 
L 603 4134 
L 603 4863 
z
" transform="scale(0.015625)"/>
      <path id="DejaVuSans-6f" d="M 1959 3097 
Q 1497 3097 1228 2736 
Q 959 2375 959 1747 
Q 959 1119 1226 758 
Q 1494 397 1959 397 
Q 2419 397 2687 759 
Q 2956 1122 2956 1747 
Q 2956 2369 2687 2733 
Q 2419 3097 1959 3097 
z
M 1959 3584 
Q 2709 3584 3137 3096 
Q 3566 2609 3566 1747 
Q 3566 888 3137 398 
Q 2709 -91 1959 -91 
Q 1206 -91 779 398 
Q 353 888 353 1747 
Q 353 2609 779 3096 
Q 1206 3584 1959 3584 
z
" transform="scale(0.015625)"/>
      <path id="DejaVuSans-6e" d="M 3513 2113 
L 3513 0 
L 2938 0 
L 2938 2094 
Q 2938 2591 2744 2837 
Q 2550 3084 2163 3084 
Q 1697 3084 1428 2787 
Q 1159 2491 1159 1978 
L 1159 0 
L 581 0 
L 581 3500 
L 1159 3500 
L 1159 2956 
Q 1366 3272 1645 3428 
Q 1925 3584 2291 3584 
Q 2894 3584 3203 3211 
Q 3513 2838 3513 2113 
z
" transform="scale(0.015625)"/>
      <path id="DejaVuSans-20" transform="scale(0.015625)"/>
      <path id="DejaVuSans-77" d="M 269 3500 
L 844 3500 
L 1563 769 
L 2278 3500 
L 2956 3500 
L 3675 769 
L 4391 3500 
L 4966 3500 
L 4050 0 
L 3372 0 
L 2619 2869 
L 1863 0 
L 1184 0 
L 269 3500 
z
" transform="scale(0.015625)"/>
      <path id="DejaVuSans-68" d="M 3513 2113 
L 3513 0 
L 2938 0 
L 2938 2094 
Q 2938 2591 2744 2837 
Q 2550 3084 2163 3084 
Q 1697 3084 1428 2787 
Q 1159 2491 1159 1978 
L 1159 0 
L 581 0 
L 581 4863 
L 1159 4863 
L 1159 2956 
Q 1366 3272 1645 3428 
Q 1925 3584 2291 3584 
Q 2894 3584 3203 3211 
Q 3513 2838 3513 2113 
z
" transform="scale(0.015625)"/>
      <path id="DejaVuSans-73" d="M 2834 3397 
L 2834 2853 
Q 2591 2978 2328 3040 
Q 2066 3103 1784 3103 
Q 1356 3103 1142 2972 
Q 928 2841 928 2578 
Q 928 2378 1081 2264 
Q 1234 2150 1697 2047 
L 1894 2003 
Q 2506 1872 2764 1633 
Q 3022 1394 3022 966 
Q 3022 478 2636 193 
Q 2250 -91 1575 -91 
Q 1294 -91 989 -36 
Q 684 19 347 128 
L 347 722 
Q 666 556 975 473 
Q 1284 391 1588 391 
Q 1994 391 2212 530 
Q 2431 669 2431 922 
Q 2431 1156 2273 1281 
Q 2116 1406 1581 1522 
L 1381 1569 
Q 847 1681 609 1914 
Q 372 2147 372 2553 
Q 372 3047 722 3315 
Q 1072 3584 1716 3584 
Q 2034 3584 2315 3537 
Q 2597 3491 2834 3397 
z
" transform="scale(0.015625)"/>
      <path id="DejaVuSans-64" d="M 2906 2969 
L 2906 4863 
L 3481 4863 
L 3481 0 
L 2906 0 
L 2906 525 
Q 2725 213 2448 61 
Q 2172 -91 1784 -91 
Q 1150 -91 751 415 
Q 353 922 353 1747 
Q 353 2572 751 3078 
Q 1150 3584 1784 3584 
Q 2172 3584 2448 3432 
Q 2725 3281 2906 2969 
z
M 947 1747 
Q 947 1113 1208 752 
Q 1469 391 1925 391 
Q 2381 391 2643 752 
Q 2906 1113 2906 1747 
Q 2906 2381 2643 2742 
Q 2381 3103 1925 3103 
Q 1469 3103 1208 2742 
Q 947 2381 947 1747 
z
" transform="scale(0.015625)"/>
      <path id="DejaVuSans-28" d="M 1984 4856 
Q 1566 4138 1362 3434 
Q 1159 2731 1159 2009 
Q 1159 1288 1364 580 
Q 1569 -128 1984 -844 
L 1484 -844 
Q 1016 -109 783 600 
Q 550 1309 550 2009 
Q 550 2706 781 3412 
Q 1013 4119 1484 4856 
L 1984 4856 
z
" transform="scale(0.015625)"/>
      <path id="DejaVuSans-6d" d="M 3328 2828 
Q 3544 3216 3844 3400 
Q 4144 3584 4550 3584 
Q 5097 3584 5394 3201 
Q 5691 2819 5691 2113 
L 5691 0 
L 5113 0 
L 5113 2094 
Q 5113 2597 4934 2840 
Q 4756 3084 4391 3084 
Q 3944 3084 3684 2787 
Q 3425 2491 3425 1978 
L 3425 0 
L 2847 0 
L 2847 2094 
Q 2847 2600 2669 2842 
Q 2491 3084 2119 3084 
Q 1678 3084 1418 2786 
Q 1159 2488 1159 1978 
L 1159 0 
L 581 0 
L 581 3500 
L 1159 3500 
L 1159 2956 
Q 1356 3278 1631 3431 
Q 1906 3584 2284 3584 
Q 2666 3584 2933 3390 
Q 3200 3197 3328 2828 
z
" transform="scale(0.015625)"/>
      <path id="DejaVuSans-3d" d="M 678 2906 
L 4684 2906 
L 4684 2381 
L 678 2381 
L 678 2906 
z
M 678 1631 
L 4684 1631 
L 4684 1100 
L 678 1100 
L 678 1631 
z
" transform="scale(0.015625)"/>
      <path id="DejaVuSans-29" d="M 513 4856 
L 1013 4856 
Q 1481 4119 1714 3412 
Q 1947 2706 1947 2009 
Q 1947 1309 1714 600 
Q 1481 -109 1013 -844 
L 513 -844 
Q 928 -128 1133 580 
Q 1338 1288 1338 2009 
Q 1338 2731 1133 3434 
Q 928 4138 513 4856 
z
" transform="scale(0.015625)"/>
     </defs>
     <use xlink:href="#DejaVuSans-50"/>
     <use xlink:href="#DejaVuSans-65" x="56.677734"/>
     <use xlink:href="#DejaVuSans-72" x="118.201172"/>
     <use xlink:href="#DejaVuSans-74" x="159.314453"/>
     <use xlink:href="#DejaVuSans-75" x="198.523438"/>
     <use xlink:href="#DejaVuSans-72" x="261.902344"/>
     <use xlink:href="#DejaVuSans-62" x="303.015625"/>
     <use xlink:href="#DejaVuSans-61" x="366.492188"/>
     <use xlink:href="#DejaVuSans-74" x="427.771484"/>
     <use xlink:href="#DejaVuSans-69" x="466.980469"/>
     <use xlink:href="#DejaVuSans-6f" x="494.763672"/>
     <use xlink:href="#DejaVuSans-6e" x="555.945312"/>
     <use xlink:href="#DejaVuSans-20" x="619.324219"/>
     <use xlink:href="#DejaVuSans-77" x="651.111328"/>
     <use xlink:href="#DejaVuSans-68" x="732.898438"/>
     <use xlink:href="#DejaVuSans-65" x="796.277344"/>
     <use xlink:href="#DejaVuSans-6e" x="857.800781"/>
     <use xlink:href="#DejaVuSans-20" x="921.179688"/>
     <use xlink:href="#DejaVuSans-62" x="952.966797"/>
     <use xlink:href="#DejaVuSans-20" x="1016.443359"/>
     <use xlink:href="#DejaVuSans-69" x="1048.230469"/>
     <use xlink:href="#DejaVuSans-73" x="1076.013672"/>
     <use xlink:href="#DejaVuSans-20" x="1128.113281"/>
     <use xlink:href="#DejaVuSans-64" x="1159.900391"/>
     <use xlink:href="#DejaVuSans-69" x="1223.376953"/>
     <use xlink:href="#DejaVuSans-73" x="1251.160156"/>
     <use xlink:href="#DejaVuSans-74" x="1303.259766"/>
     <use xlink:href="#DejaVuSans-75" x="1342.46875"/>
     <use xlink:href="#DejaVuSans-72" x="1405.847656"/>
     <use xlink:href="#DejaVuSans-62" x="1446.960938"/>
     <use xlink:href="#DejaVuSans-65" x="1510.4375"/>
     <use xlink:href="#DejaVuSans-64" x="1571.960938"/>
     <use xlink:href="#DejaVuSans-20" x="1635.4375"/>
     <use xlink:href="#DejaVuSans-28" x="1667.224609"/>
     <use xlink:href="#DejaVuSans-6d" x="1706.238281"/>
     <use xlink:href="#DejaVuSans-20" x="1803.650391"/>
     <use xlink:href="#DejaVuSans-3d" x="1835.4375"/>
     <use xlink:href="#DejaVuSans-20" x="1919.226562"/>
     <use xlink:href="#DejaVuSans-31" x="1951.013672"/>
     <use xlink:href="#DejaVuSans-30" x="2014.636719"/>
     <use xlink:href="#DejaVuSans-30" x="2078.259766"/>
     <use xlink:href="#DejaVuSans-29" x="2141.882812"/>
    </g>
   </g>
   <g id="legend_1">
    <g id="patch_7">
     <path d="M 64.6 79.250125 
L 302.1 79.250125 
Q 304.1 79.250125 304.1 77.250125 
L 304.1 48.472 
Q 304.1 46.472 302.1 46.472 
L 64.6 46.472 
Q 62.6 46.472 62.6 48.472 
L 62.6 77.250125 
Q 62.6 79.250125 64.6 79.250125 
z
" style="fill: #ffffff; opacity: 0.8; stroke: #cccccc; stroke-linejoin: miter"/>
    </g>
    <g id="line2d_29">
     <path d="M 66.6 54.570437 
L 76.6 54.570437 
L 86.6 54.570437 
" style="fill: none; stroke: #1f77b4; stroke-width: 1.5; stroke-linecap: square"/>
    </g>
    <g id="text_17">
     <!-- relative solution perturbation -->
     <g transform="translate(94.6 58.070437) scale(0.1 -0.1)">
      <defs>
       <path id="DejaVuSans-6c" d="M 603 4863 
L 1178 4863 
L 1178 0 
L 603 0 
L 603 4863 
z
" transform="scale(0.015625)"/>
       <path id="DejaVuSans-76" d="M 191 3500 
L 800 3500 
L 1894 563 
L 2988 3500 
L 3597 3500 
L 2284 0 
L 1503 0 
L 191 3500 
z
" transform="scale(0.015625)"/>
       <path id="DejaVuSans-70" d="M 1159 525 
L 1159 -1331 
L 581 -1331 
L 581 3500 
L 1159 3500 
L 1159 2969 
Q 1341 3281 1617 3432 
Q 1894 3584 2278 3584 
Q 2916 3584 3314 3078 
Q 3713 2572 3713 1747 
Q 3713 922 3314 415 
Q 2916 -91 2278 -91 
Q 1894 -91 1617 61 
Q 1341 213 1159 525 
z
M 3116 1747 
Q 3116 2381 2855 2742 
Q 2594 3103 2138 3103 
Q 1681 3103 1420 2742 
Q 1159 2381 1159 1747 
Q 1159 1113 1420 752 
Q 1681 391 2138 391 
Q 2594 391 2855 752 
Q 3116 1113 3116 1747 
z
" transform="scale(0.015625)"/>
      </defs>
      <use xlink:href="#DejaVuSans-72"/>
      <use xlink:href="#DejaVuSans-65" x="38.863281"/>
      <use xlink:href="#DejaVuSans-6c" x="100.386719"/>
      <use xlink:href="#DejaVuSans-61" x="128.169922"/>
      <use xlink:href="#DejaVuSans-74" x="189.449219"/>
      <use xlink:href="#DejaVuSans-69" x="228.658203"/>
      <use xlink:href="#DejaVuSans-76" x="256.441406"/>
      <use xlink:href="#DejaVuSans-65" x="315.621094"/>
      <use xlink:href="#DejaVuSans-20" x="377.144531"/>
      <use xlink:href="#DejaVuSans-73" x="408.931641"/>
      <use xlink:href="#DejaVuSans-6f" x="461.03125"/>
      <use xlink:href="#DejaVuSans-6c" x="522.212891"/>
      <use xlink:href="#DejaVuSans-75" x="549.996094"/>
      <use xlink:href="#DejaVuSans-74" x="613.375"/>
      <use xlink:href="#DejaVuSans-69" x="652.583984"/>
      <use xlink:href="#DejaVuSans-6f" x="680.367188"/>
      <use xlink:href="#DejaVuSans-6e" x="741.548828"/>
      <use xlink:href="#DejaVuSans-20" x="804.927734"/>
      <use xlink:href="#DejaVuSans-70" x="836.714844"/>
      <use xlink:href="#DejaVuSans-65" x="900.191406"/>
      <use xlink:href="#DejaVuSans-72" x="961.714844"/>
      <use xlink:href="#DejaVuSans-74" x="1002.828125"/>
      <use xlink:href="#DejaVuSans-75" x="1042.037109"/>
      <use xlink:href="#DejaVuSans-72" x="1105.416016"/>
      <use xlink:href="#DejaVuSans-62" x="1146.529297"/>
      <use xlink:href="#DejaVuSans-61" x="1210.005859"/>
      <use xlink:href="#DejaVuSans-74" x="1271.285156"/>
      <use xlink:href="#DejaVuSans-69" x="1310.494141"/>
      <use xlink:href="#DejaVuSans-6f" x="1338.277344"/>
      <use xlink:href="#DejaVuSans-6e" x="1399.458984"/>
     </g>
    </g>
    <g id="line2d_30">
     <path d="M 66.6 69.350125 
L 76.6 69.350125 
L 86.6 69.350125 
" style="fill: none; stroke: #ff7f0e; stroke-width: 1.5; stroke-linecap: square"/>
    </g>
    <g id="text_18">
     <!-- perturbation upper bound ($\kappa_b$*||$\delta$b||/||b||) -->
     <g transform="translate(94.6 72.850125) scale(0.1 -0.1)">
      <defs>
       <path id="DejaVuSans-Oblique-3ba" d="M 938 3500 
L 1531 3500 
L 1247 2047 
L 3041 3500 
L 3741 3500 
L 2106 2181 
L 3275 0 
L 2572 0 
L 1628 1806 
L 1122 1403 
L 850 0 
L 256 0 
L 938 3500 
z
" transform="scale(0.015625)"/>
       <path id="DejaVuSans-Oblique-62" d="M 3169 2138 
Q 3169 2591 2961 2847 
Q 2753 3103 2388 3103 
Q 2122 3103 1889 2973 
Q 1656 2844 1484 2597 
Q 1303 2338 1198 1995 
Q 1094 1653 1094 1313 
Q 1094 881 1298 636 
Q 1503 391 1863 391 
Q 2134 391 2365 517 
Q 2597 644 2772 891 
Q 2950 1147 3059 1487 
Q 3169 1828 3169 2138 
z
M 1381 2969 
Q 1594 3256 1914 3420 
Q 2234 3584 2584 3584 
Q 3122 3584 3439 3221 
Q 3756 2859 3756 2241 
Q 3756 1734 3570 1259 
Q 3384 784 3041 416 
Q 2816 172 2522 40 
Q 2228 -91 1906 -91 
Q 1566 -91 1316 65 
Q 1066 222 909 531 
L 806 0 
L 231 0 
L 1178 4863 
L 1753 4863 
L 1381 2969 
z
" transform="scale(0.015625)"/>
       <path id="DejaVuSans-2a" d="M 3009 3897 
L 1888 3291 
L 3009 2681 
L 2828 2375 
L 1778 3009 
L 1778 1831 
L 1422 1831 
L 1422 3009 
L 372 2375 
L 191 2681 
L 1313 3291 
L 191 3897 
L 372 4206 
L 1422 3572 
L 1422 4750 
L 1778 4750 
L 1778 3572 
L 2828 4206 
L 3009 3897 
z
" transform="scale(0.015625)"/>
      </defs>
      <use xlink:href="#DejaVuSans-70" transform="translate(0 0.578125)"/>
      <use xlink:href="#DejaVuSans-65" transform="translate(63.476562 0.578125)"/>
      <use xlink:href="#DejaVuSans-72" transform="translate(125 0.578125)"/>
      <use xlink:href="#DejaVuSans-74" transform="translate(166.113281 0.578125)"/>
      <use xlink:href="#DejaVuSans-75" transform="translate(205.322266 0.578125)"/>
      <use xlink:href="#DejaVuSans-72" transform="translate(268.701172 0.578125)"/>
      <use xlink:href="#DejaVuSans-62" transform="translate(309.814453 0.578125)"/>
      <use xlink:href="#DejaVuSans-61" transform="translate(373.291016 0.578125)"/>
      <use xlink:href="#DejaVuSans-74" transform="translate(434.570312 0.578125)"/>
      <use xlink:href="#DejaVuSans-69" transform="translate(473.779297 0.578125)"/>
      <use xlink:href="#DejaVuSans-6f" transform="translate(501.5625 0.578125)"/>
      <use xlink:href="#DejaVuSans-6e" transform="translate(562.744141 0.578125)"/>
      <use xlink:href="#DejaVuSans-20" transform="translate(626.123047 0.578125)"/>
      <use xlink:href="#DejaVuSans-75" transform="translate(657.910156 0.578125)"/>
      <use xlink:href="#DejaVuSans-70" transform="translate(721.289062 0.578125)"/>
      <use xlink:href="#DejaVuSans-70" transform="translate(784.765625 0.578125)"/>
      <use xlink:href="#DejaVuSans-65" transform="translate(848.242188 0.578125)"/>
      <use xlink:href="#DejaVuSans-72" transform="translate(909.765625 0.578125)"/>
      <use xlink:href="#DejaVuSans-20" transform="translate(950.878906 0.578125)"/>
      <use xlink:href="#DejaVuSans-62" transform="translate(982.666016 0.578125)"/>
      <use xlink:href="#DejaVuSans-6f" transform="translate(1046.142578 0.578125)"/>
      <use xlink:href="#DejaVuSans-75" transform="translate(1107.324219 0.578125)"/>
      <use xlink:href="#DejaVuSans-6e" transform="translate(1170.703125 0.578125)"/>
      <use xlink:href="#DejaVuSans-64" transform="translate(1234.082031 0.578125)"/>
      <use xlink:href="#DejaVuSans-20" transform="translate(1297.558594 0.578125)"/>
      <use xlink:href="#DejaVuSans-28" transform="translate(1329.345703 0.578125)"/>
      <use xlink:href="#DejaVuSans-Oblique-3ba" transform="translate(1368.359375 0.578125)"/>
      <use xlink:href="#DejaVuSans-Oblique-62" transform="translate(1427.294922 -15.828125) scale(0.7)"/>
      <use xlink:href="#DejaVuSans-2a" transform="translate(1474.462891 0.578125)"/>
      <use xlink:href="#DejaVuSans-7c" transform="translate(1524.462891 0.578125)"/>
      <use xlink:href="#DejaVuSans-7c" transform="translate(1558.154297 0.578125)"/>
      <use xlink:href="#DejaVuSans-Oblique-3b4" transform="translate(1591.845703 0.578125)"/>
      <use xlink:href="#DejaVuSans-62" transform="translate(1653.027344 0.578125)"/>
      <use xlink:href="#DejaVuSans-7c" transform="translate(1716.503906 0.578125)"/>
      <use xlink:href="#DejaVuSans-7c" transform="translate(1750.195312 0.578125)"/>
      <use xlink:href="#DejaVuSans-2f" transform="translate(1783.886719 0.578125)"/>
      <use xlink:href="#DejaVuSans-7c" transform="translate(1817.578125 0.578125)"/>
      <use xlink:href="#DejaVuSans-7c" transform="translate(1851.269531 0.578125)"/>
      <use xlink:href="#DejaVuSans-62" transform="translate(1884.960938 0.578125)"/>
      <use xlink:href="#DejaVuSans-7c" transform="translate(1948.4375 0.578125)"/>
      <use xlink:href="#DejaVuSans-7c" transform="translate(1982.128906 0.578125)"/>
      <use xlink:href="#DejaVuSans-29" transform="translate(2015.820312 0.578125)"/>
     </g>
    </g>
   </g>
  </g>
 </g>
 <defs>
  <clipPath id="p15efc705d5">
   <rect x="57.6" y="41.472" width="357.12" height="266.112"/>
  </clipPath>
 </defs>
</svg>
