<?xml version="1.0" encoding="utf-8" standalone="no"?>
<!DOCTYPE svg PUBLIC "-//W3C//DTD SVG 1.1//EN"
  "http://www.w3.org/Graphics/SVG/1.1/DTD/svg11.dtd">
<svg xmlns:xlink="http://www.w3.org/1999/xlink" width="460.8pt" height="345.6pt" viewBox="0 0 460.8 345.6" xmlns="http://www.w3.org/2000/svg" version="1.1">
 <metadata>
  <rdf:RDF xmlns:dc="http://purl.org/dc/elements/1.1/" xmlns:cc="http://creativecommons.org/ns#" xmlns:rdf="http://www.w3.org/1999/02/22-rdf-syntax-ns#">
   <cc:Work>
    <dc:type rdf:resource="http://purl.org/dc/dcmitype/StillImage"/>
    <dc:date>2024-03-09T17:08:29.535816</dc:date>
    <dc:format>image/svg+xml</dc:format>
    <dc:creator>
     <cc:Agent>
      <dc:title>Matplotlib v3.8.0, https://matplotlib.org/</dc:title>
     </cc:Agent>
    </dc:creator>
   </cc:Work>
  </rdf:RDF>
 </metadata>
 <defs>
  <style type="text/css">*{stroke-linejoin: round; stroke-linecap: butt}</style>
 </defs>
 <g id="figure_1">
  <g id="patch_1">
   <path d="M 0 345.6 
L 460.8 345.6 
L 460.8 0 
L 0 0 
z
" style="fill: #ffffff"/>
  </g>
  <g id="axes_1">
   <g id="patch_2">
    <path d="M 57.6 307.584 
L 414.72 307.584 
L 414.72 41.472 
L 57.6 41.472 
z
" style="fill: #ffffff"/>
   </g>
   <g id="matplotlib.axis_1">
    <g id="xtick_1">
     <g id="line2d_1">
      <path d="M 86.577549 307.584 
L 86.577549 41.472 
" clip-path="url(#p222ac49522)" style="fill: none; stroke: #b0b0b0; stroke-width: 0.8; stroke-linecap: square"/>
     </g>
     <g id="line2d_2">
      <defs>
       <path id="m753357ff26" d="M 0 0 
L 0 3.5 
" style="stroke: #000000; stroke-width: 0.8"/>
      </defs>
      <g>
       <use xlink:href="#m753357ff26" x="86.577549" y="307.584" style="stroke: #000000; stroke-width: 0.8"/>
      </g>
     </g>
     <g id="text_1">
      <!-- $\mathdefault{10^{-12}}$ -->
      <g transform="translate(72.627549 322.182437) scale(0.1 -0.1)">
       <defs>
        <path id="DejaVuSans-31" d="M 794 531 
L 1825 531 
L 1825 4091 
L 703 3866 
L 703 4441 
L 1819 4666 
L 2450 4666 
L 2450 531 
L 3481 531 
L 3481 0 
L 794 0 
L 794 531 
z
" transform="scale(0.015625)"/>
        <path id="DejaVuSans-30" d="M 2034 4250 
Q 1547 4250 1301 3770 
Q 1056 3291 1056 2328 
Q 1056 1369 1301 889 
Q 1547 409 2034 409 
Q 2525 409 2770 889 
Q 3016 1369 3016 2328 
Q 3016 3291 2770 3770 
Q 2525 4250 2034 4250 
z
M 2034 4750 
Q 2819 4750 3233 4129 
Q 3647 3509 3647 2328 
Q 3647 1150 3233 529 
Q 2819 -91 2034 -91 
Q 1250 -91 836 529 
Q 422 1150 422 2328 
Q 422 3509 836 4129 
Q 1250 4750 2034 4750 
z
" transform="scale(0.015625)"/>
        <path id="DejaVuSans-2212" d="M 678 2272 
L 4684 2272 
L 4684 1741 
L 678 1741 
L 678 2272 
z
" transform="scale(0.015625)"/>
        <path id="DejaVuSans-32" d="M 1228 531 
L 3431 531 
L 3431 0 
L 469 0 
L 469 531 
Q 828 903 1448 1529 
Q 2069 2156 2228 2338 
Q 2531 2678 2651 2914 
Q 2772 3150 2772 3378 
Q 2772 3750 2511 3984 
Q 2250 4219 1831 4219 
Q 1534 4219 1204 4116 
Q 875 4013 500 3803 
L 500 4441 
Q 881 4594 1212 4672 
Q 1544 4750 1819 4750 
Q 2544 4750 2975 4387 
Q 3406 4025 3406 3419 
Q 3406 3131 3298 2873 
Q 3191 2616 2906 2266 
Q 2828 2175 2409 1742 
Q 1991 1309 1228 531 
z
" transform="scale(0.015625)"/>
       </defs>
       <use xlink:href="#DejaVuSans-31" transform="translate(0 0.765625)"/>
       <use xlink:href="#DejaVuSans-30" transform="translate(63.623047 0.765625)"/>
       <use xlink:href="#DejaVuSans-2212" transform="translate(128.203125 39.046875) scale(0.7)"/>
       <use xlink:href="#DejaVuSans-31" transform="translate(186.855469 39.046875) scale(0.7)"/>
       <use xlink:href="#DejaVuSans-32" transform="translate(231.391602 39.046875) scale(0.7)"/>
      </g>
     </g>
    </g>
    <g id="xtick_2">
     <g id="line2d_3">
      <path d="M 138.995619 307.584 
L 138.995619 41.472 
" clip-path="url(#p222ac49522)" style="fill: none; stroke: #b0b0b0; stroke-width: 0.8; stroke-linecap: square"/>
     </g>
     <g id="line2d_4">
      <g>
       <use xlink:href="#m753357ff26" x="138.995619" y="307.584" style="stroke: #000000; stroke-width: 0.8"/>
      </g>
     </g>
     <g id="text_2">
      <!-- $\mathdefault{10^{-10}}$ -->
      <g transform="translate(125.045619 322.182437) scale(0.1 -0.1)">
       <use xlink:href="#DejaVuSans-31" transform="translate(0 0.765625)"/>
       <use xlink:href="#DejaVuSans-30" transform="translate(63.623047 0.765625)"/>
       <use xlink:href="#DejaVuSans-2212" transform="translate(128.203125 39.046875) scale(0.7)"/>
       <use xlink:href="#DejaVuSans-31" transform="translate(186.855469 39.046875) scale(0.7)"/>
       <use xlink:href="#DejaVuSans-30" transform="translate(231.391602 39.046875) scale(0.7)"/>
      </g>
     </g>
    </g>
    <g id="xtick_3">
     <g id="line2d_5">
      <path d="M 191.413688 307.584 
L 191.413688 41.472 
" clip-path="url(#p222ac49522)" style="fill: none; stroke: #b0b0b0; stroke-width: 0.8; stroke-linecap: square"/>
     </g>
     <g id="line2d_6">
      <g>
       <use xlink:href="#m753357ff26" x="191.413688" y="307.584" style="stroke: #000000; stroke-width: 0.8"/>
      </g>
     </g>
     <g id="text_3">
      <!-- $\mathdefault{10^{-8}}$ -->
      <g transform="translate(179.663688 322.182437) scale(0.1 -0.1)">
       <defs>
        <path id="DejaVuSans-38" d="M 2034 2216 
Q 1584 2216 1326 1975 
Q 1069 1734 1069 1313 
Q 1069 891 1326 650 
Q 1584 409 2034 409 
Q 2484 409 2743 651 
Q 3003 894 3003 1313 
Q 3003 1734 2745 1975 
Q 2488 2216 2034 2216 
z
M 1403 2484 
Q 997 2584 770 2862 
Q 544 3141 544 3541 
Q 544 4100 942 4425 
Q 1341 4750 2034 4750 
Q 2731 4750 3128 4425 
Q 3525 4100 3525 3541 
Q 3525 3141 3298 2862 
Q 3072 2584 2669 2484 
Q 3125 2378 3379 2068 
Q 3634 1759 3634 1313 
Q 3634 634 3220 271 
Q 2806 -91 2034 -91 
Q 1263 -91 848 271 
Q 434 634 434 1313 
Q 434 1759 690 2068 
Q 947 2378 1403 2484 
z
M 1172 3481 
Q 1172 3119 1398 2916 
Q 1625 2713 2034 2713 
Q 2441 2713 2670 2916 
Q 2900 3119 2900 3481 
Q 2900 3844 2670 4047 
Q 2441 4250 2034 4250 
Q 1625 4250 1398 4047 
Q 1172 3844 1172 3481 
z
" transform="scale(0.015625)"/>
       </defs>
       <use xlink:href="#DejaVuSans-31" transform="translate(0 0.765625)"/>
       <use xlink:href="#DejaVuSans-30" transform="translate(63.623047 0.765625)"/>
       <use xlink:href="#DejaVuSans-2212" transform="translate(128.203125 39.046875) scale(0.7)"/>
       <use xlink:href="#DejaVuSans-38" transform="translate(186.855469 39.046875) scale(0.7)"/>
      </g>
     </g>
    </g>
    <g id="xtick_4">
     <g id="line2d_7">
      <path d="M 243.831758 307.584 
L 243.831758 41.472 
" clip-path="url(#p222ac49522)" style="fill: none; stroke: #b0b0b0; stroke-width: 0.8; stroke-linecap: square"/>
     </g>
     <g id="line2d_8">
      <g>
       <use xlink:href="#m753357ff26" x="243.831758" y="307.584" style="stroke: #000000; stroke-width: 0.8"/>
      </g>
     </g>
     <g id="text_4">
      <!-- $\mathdefault{10^{-6}}$ -->
      <g transform="translate(232.081758 322.182437) scale(0.1 -0.1)">
       <defs>
        <path id="DejaVuSans-36" d="M 2113 2584 
Q 1688 2584 1439 2293 
Q 1191 2003 1191 1497 
Q 1191 994 1439 701 
Q 1688 409 2113 409 
Q 2538 409 2786 701 
Q 3034 994 3034 1497 
Q 3034 2003 2786 2293 
Q 2538 2584 2113 2584 
z
M 3366 4563 
L 3366 3988 
Q 3128 4100 2886 4159 
Q 2644 4219 2406 4219 
Q 1781 4219 1451 3797 
Q 1122 3375 1075 2522 
Q 1259 2794 1537 2939 
Q 1816 3084 2150 3084 
Q 2853 3084 3261 2657 
Q 3669 2231 3669 1497 
Q 3669 778 3244 343 
Q 2819 -91 2113 -91 
Q 1303 -91 875 529 
Q 447 1150 447 2328 
Q 447 3434 972 4092 
Q 1497 4750 2381 4750 
Q 2619 4750 2861 4703 
Q 3103 4656 3366 4563 
z
" transform="scale(0.015625)"/>
       </defs>
       <use xlink:href="#DejaVuSans-31" transform="translate(0 0.765625)"/>
       <use xlink:href="#DejaVuSans-30" transform="translate(63.623047 0.765625)"/>
       <use xlink:href="#DejaVuSans-2212" transform="translate(128.203125 39.046875) scale(0.7)"/>
       <use xlink:href="#DejaVuSans-36" transform="translate(186.855469 39.046875) scale(0.7)"/>
      </g>
     </g>
    </g>
    <g id="xtick_5">
     <g id="line2d_9">
      <path d="M 296.249828 307.584 
L 296.249828 41.472 
" clip-path="url(#p222ac49522)" style="fill: none; stroke: #b0b0b0; stroke-width: 0.8; stroke-linecap: square"/>
     </g>
     <g id="line2d_10">
      <g>
       <use xlink:href="#m753357ff26" x="296.249828" y="307.584" style="stroke: #000000; stroke-width: 0.8"/>
      </g>
     </g>
     <g id="text_5">
      <!-- $\mathdefault{10^{-4}}$ -->
      <g transform="translate(284.499828 322.182437) scale(0.1 -0.1)">
       <defs>
        <path id="DejaVuSans-34" d="M 2419 4116 
L 825 1625 
L 2419 1625 
L 2419 4116 
z
M 2253 4666 
L 3047 4666 
L 3047 1625 
L 3713 1625 
L 3713 1100 
L 3047 1100 
L 3047 0 
L 2419 0 
L 2419 1100 
L 313 1100 
L 313 1709 
L 2253 4666 
z
" transform="scale(0.015625)"/>
       </defs>
       <use xlink:href="#DejaVuSans-31" transform="translate(0 0.684375)"/>
       <use xlink:href="#DejaVuSans-30" transform="translate(63.623047 0.684375)"/>
       <use xlink:href="#DejaVuSans-2212" transform="translate(128.203125 38.965625) scale(0.7)"/>
       <use xlink:href="#DejaVuSans-34" transform="translate(186.855469 38.965625) scale(0.7)"/>
      </g>
     </g>
    </g>
    <g id="xtick_6">
     <g id="line2d_11">
      <path d="M 348.667897 307.584 
L 348.667897 41.472 
" clip-path="url(#p222ac49522)" style="fill: none; stroke: #b0b0b0; stroke-width: 0.8; stroke-linecap: square"/>
     </g>
     <g id="line2d_12">
      <g>
       <use xlink:href="#m753357ff26" x="348.667897" y="307.584" style="stroke: #000000; stroke-width: 0.8"/>
      </g>
     </g>
     <g id="text_6">
      <!-- $\mathdefault{10^{-2}}$ -->
      <g transform="translate(336.917897 322.182437) scale(0.1 -0.1)">
       <use xlink:href="#DejaVuSans-31" transform="translate(0 0.765625)"/>
       <use xlink:href="#DejaVuSans-30" transform="translate(63.623047 0.765625)"/>
       <use xlink:href="#DejaVuSans-2212" transform="translate(128.203125 39.046875) scale(0.7)"/>
       <use xlink:href="#DejaVuSans-32" transform="translate(186.855469 39.046875) scale(0.7)"/>
      </g>
     </g>
    </g>
    <g id="xtick_7">
     <g id="line2d_13">
      <path d="M 401.085967 307.584 
L 401.085967 41.472 
" clip-path="url(#p222ac49522)" style="fill: none; stroke: #b0b0b0; stroke-width: 0.8; stroke-linecap: square"/>
     </g>
     <g id="line2d_14">
      <g>
       <use xlink:href="#m753357ff26" x="401.085967" y="307.584" style="stroke: #000000; stroke-width: 0.8"/>
      </g>
     </g>
     <g id="text_7">
      <!-- $\mathdefault{10^{0}}$ -->
      <g transform="translate(392.285967 322.182437) scale(0.1 -0.1)">
       <use xlink:href="#DejaVuSans-31" transform="translate(0 0.765625)"/>
       <use xlink:href="#DejaVuSans-30" transform="translate(63.623047 0.765625)"/>
       <use xlink:href="#DejaVuSans-30" transform="translate(128.203125 39.046875) scale(0.7)"/>
      </g>
     </g>
    </g>
    <g id="text_8">
     <!-- ||$\delta$b||/||b|| -->
     <g transform="translate(211.56 335.962125) scale(0.1 -0.1)">
      <defs>
       <path id="DejaVuSans-7c" d="M 1344 4891 
L 1344 -1509 
L 813 -1509 
L 813 4891 
L 1344 4891 
z
" transform="scale(0.015625)"/>
       <path id="DejaVuSans-Oblique-3b4" d="M 3472 4053 
Q 3197 4272 2450 4272 
Q 1659 4272 1588 3906 
Q 1531 3619 2328 3469 
Q 2953 3353 3253 3003 
Q 3616 2581 3447 1716 
Q 3284 888 2763 400 
Q 2238 -91 1488 -91 
Q 741 -91 406 400 
Q 72 888 241 1747 
Q 363 2384 891 2900 
Q 1097 3100 1353 3213 
Q 913 3459 1000 3900 
Q 1166 4750 2544 4750 
Q 3234 4750 3566 4531 
L 3472 4053 
z
M 1753 3056 
Q 1525 2966 1306 2738 
Q 969 2384 847 1747 
Q 722 1113 919 756 
Q 1119 397 1584 397 
Q 2044 397 2381 759 
Q 2722 1122 2838 1716 
Q 2956 2338 2731 2638 
Q 2491 2959 2103 2994 
Q 1906 3013 1753 3056 
z
" transform="scale(0.015625)"/>
       <path id="DejaVuSans-62" d="M 3116 1747 
Q 3116 2381 2855 2742 
Q 2594 3103 2138 3103 
Q 1681 3103 1420 2742 
Q 1159 2381 1159 1747 
Q 1159 1113 1420 752 
Q 1681 391 2138 391 
Q 2594 391 2855 752 
Q 3116 1113 3116 1747 
z
M 1159 2969 
Q 1341 3281 1617 3432 
Q 1894 3584 2278 3584 
Q 2916 3584 3314 3078 
Q 3713 2572 3713 1747 
Q 3713 922 3314 415 
Q 2916 -91 2278 -91 
Q 1894 -91 1617 61 
Q 1341 213 1159 525 
L 1159 0 
L 581 0 
L 581 4863 
L 1159 4863 
L 1159 2969 
z
" transform="scale(0.015625)"/>
       <path id="DejaVuSans-2f" d="M 1625 4666 
L 2156 4666 
L 531 -594 
L 0 -594 
L 1625 4666 
z
" transform="scale(0.015625)"/>
      </defs>
      <use xlink:href="#DejaVuSans-7c" transform="translate(0 0.578125)"/>
      <use xlink:href="#DejaVuSans-7c" transform="translate(33.691406 0.578125)"/>
      <use xlink:href="#DejaVuSans-Oblique-3b4" transform="translate(67.382812 0.578125)"/>
      <use xlink:href="#DejaVuSans-62" transform="translate(128.564453 0.578125)"/>
      <use xlink:href="#DejaVuSans-7c" transform="translate(192.041016 0.578125)"/>
      <use xlink:href="#DejaVuSans-7c" transform="translate(225.732422 0.578125)"/>
      <use xlink:href="#DejaVuSans-2f" transform="translate(259.423828 0.578125)"/>
      <use xlink:href="#DejaVuSans-7c" transform="translate(293.115234 0.578125)"/>
      <use xlink:href="#DejaVuSans-7c" transform="translate(326.806641 0.578125)"/>
      <use xlink:href="#DejaVuSans-62" transform="translate(360.498047 0.578125)"/>
      <use xlink:href="#DejaVuSans-7c" transform="translate(423.974609 0.578125)"/>
      <use xlink:href="#DejaVuSans-7c" transform="translate(457.666016 0.578125)"/>
     </g>
    </g>
   </g>
   <g id="matplotlib.axis_2">
    <g id="ytick_1">
     <g id="line2d_15">
      <path d="M 57.6 285.022964 
L 414.72 285.022964 
" clip-path="url(#p222ac49522)" style="fill: none; stroke: #b0b0b0; stroke-width: 0.8; stroke-linecap: square"/>
     </g>
     <g id="line2d_16">
      <defs>
       <path id="md85b61af55" d="M 0 0 
L -3.5 0 
" style="stroke: #000000; stroke-width: 0.8"/>
      </defs>
      <g>
       <use xlink:href="#md85b61af55" x="57.6" y="285.022964" style="stroke: #000000; stroke-width: 0.8"/>
      </g>
     </g>
     <g id="text_9">
      <!-- $\mathdefault{10^{-13}}$ -->
      <g transform="translate(22.7 288.822183) scale(0.1 -0.1)">
       <defs>
        <path id="DejaVuSans-33" d="M 2597 2516 
Q 3050 2419 3304 2112 
Q 3559 1806 3559 1356 
Q 3559 666 3084 287 
Q 2609 -91 1734 -91 
Q 1441 -91 1130 -33 
Q 819 25 488 141 
L 488 750 
Q 750 597 1062 519 
Q 1375 441 1716 441 
Q 2309 441 2620 675 
Q 2931 909 2931 1356 
Q 2931 1769 2642 2001 
Q 2353 2234 1838 2234 
L 1294 2234 
L 1294 2753 
L 1863 2753 
Q 2328 2753 2575 2939 
Q 2822 3125 2822 3475 
Q 2822 3834 2567 4026 
Q 2313 4219 1838 4219 
Q 1578 4219 1281 4162 
Q 984 4106 628 3988 
L 628 4550 
Q 988 4650 1302 4700 
Q 1616 4750 1894 4750 
Q 2613 4750 3031 4423 
Q 3450 4097 3450 3541 
Q 3450 3153 3228 2886 
Q 3006 2619 2597 2516 
z
" transform="scale(0.015625)"/>
       </defs>
       <use xlink:href="#DejaVuSans-31" transform="translate(0 0.765625)"/>
       <use xlink:href="#DejaVuSans-30" transform="translate(63.623047 0.765625)"/>
       <use xlink:href="#DejaVuSans-2212" transform="translate(128.203125 39.046875) scale(0.7)"/>
       <use xlink:href="#DejaVuSans-31" transform="translate(186.855469 39.046875) scale(0.7)"/>
       <use xlink:href="#DejaVuSans-33" transform="translate(231.391602 39.046875) scale(0.7)"/>
      </g>
     </g>
    </g>
    <g id="ytick_2">
     <g id="line2d_17">
      <path d="M 57.6 249.776695 
L 414.72 249.776695 
" clip-path="url(#p222ac49522)" style="fill: none; stroke: #b0b0b0; stroke-width: 0.8; stroke-linecap: square"/>
     </g>
     <g id="line2d_18">
      <g>
       <use xlink:href="#md85b61af55" x="57.6" y="249.776695" style="stroke: #000000; stroke-width: 0.8"/>
      </g>
     </g>
     <g id="text_10">
      <!-- $\mathdefault{10^{-11}}$ -->
      <g transform="translate(22.7 253.575914) scale(0.1 -0.1)">
       <use xlink:href="#DejaVuSans-31" transform="translate(0 0.684375)"/>
       <use xlink:href="#DejaVuSans-30" transform="translate(63.623047 0.684375)"/>
       <use xlink:href="#DejaVuSans-2212" transform="translate(128.203125 38.965625) scale(0.7)"/>
       <use xlink:href="#DejaVuSans-31" transform="translate(186.855469 38.965625) scale(0.7)"/>
       <use xlink:href="#DejaVuSans-31" transform="translate(231.391602 38.965625) scale(0.7)"/>
      </g>
     </g>
    </g>
    <g id="ytick_3">
     <g id="line2d_19">
      <path d="M 57.6 214.530426 
L 414.72 214.530426 
" clip-path="url(#p222ac49522)" style="fill: none; stroke: #b0b0b0; stroke-width: 0.8; stroke-linecap: square"/>
     </g>
     <g id="line2d_20">
      <g>
       <use xlink:href="#md85b61af55" x="57.6" y="214.530426" style="stroke: #000000; stroke-width: 0.8"/>
      </g>
     </g>
     <g id="text_11">
      <!-- $\mathdefault{10^{-9}}$ -->
      <g transform="translate(27.1 218.329645) scale(0.1 -0.1)">
       <defs>
        <path id="DejaVuSans-39" d="M 703 97 
L 703 672 
Q 941 559 1184 500 
Q 1428 441 1663 441 
Q 2288 441 2617 861 
Q 2947 1281 2994 2138 
Q 2813 1869 2534 1725 
Q 2256 1581 1919 1581 
Q 1219 1581 811 2004 
Q 403 2428 403 3163 
Q 403 3881 828 4315 
Q 1253 4750 1959 4750 
Q 2769 4750 3195 4129 
Q 3622 3509 3622 2328 
Q 3622 1225 3098 567 
Q 2575 -91 1691 -91 
Q 1453 -91 1209 -44 
Q 966 3 703 97 
z
M 1959 2075 
Q 2384 2075 2632 2365 
Q 2881 2656 2881 3163 
Q 2881 3666 2632 3958 
Q 2384 4250 1959 4250 
Q 1534 4250 1286 3958 
Q 1038 3666 1038 3163 
Q 1038 2656 1286 2365 
Q 1534 2075 1959 2075 
z
" transform="scale(0.015625)"/>
       </defs>
       <use xlink:href="#DejaVuSans-31" transform="translate(0 0.765625)"/>
       <use xlink:href="#DejaVuSans-30" transform="translate(63.623047 0.765625)"/>
       <use xlink:href="#DejaVuSans-2212" transform="translate(128.203125 39.046875) scale(0.7)"/>
       <use xlink:href="#DejaVuSans-39" transform="translate(186.855469 39.046875) scale(0.7)"/>
      </g>
     </g>
    </g>
    <g id="ytick_4">
     <g id="line2d_21">
      <path d="M 57.6 179.284157 
L 414.72 179.284157 
" clip-path="url(#p222ac49522)" style="fill: none; stroke: #b0b0b0; stroke-width: 0.8; stroke-linecap: square"/>
     </g>
     <g id="line2d_22">
      <g>
       <use xlink:href="#md85b61af55" x="57.6" y="179.284157" style="stroke: #000000; stroke-width: 0.8"/>
      </g>
     </g>
     <g id="text_12">
      <!-- $\mathdefault{10^{-7}}$ -->
      <g transform="translate(27.1 183.083376) scale(0.1 -0.1)">
       <defs>
        <path id="DejaVuSans-37" d="M 525 4666 
L 3525 4666 
L 3525 4397 
L 1831 0 
L 1172 0 
L 2766 4134 
L 525 4134 
L 525 4666 
z
" transform="scale(0.015625)"/>
       </defs>
       <use xlink:href="#DejaVuSans-31" transform="translate(0 0.684375)"/>
       <use xlink:href="#DejaVuSans-30" transform="translate(63.623047 0.684375)"/>
       <use xlink:href="#DejaVuSans-2212" transform="translate(128.203125 38.965625) scale(0.7)"/>
       <use xlink:href="#DejaVuSans-37" transform="translate(186.855469 38.965625) scale(0.7)"/>
      </g>
     </g>
    </g>
    <g id="ytick_5">
     <g id="line2d_23">
      <path d="M 57.6 144.037888 
L 414.72 144.037888 
" clip-path="url(#p222ac49522)" style="fill: none; stroke: #b0b0b0; stroke-width: 0.8; stroke-linecap: square"/>
     </g>
     <g id="line2d_24">
      <g>
       <use xlink:href="#md85b61af55" x="57.6" y="144.037888" style="stroke: #000000; stroke-width: 0.8"/>
      </g>
     </g>
     <g id="text_13">
      <!-- $\mathdefault{10^{-5}}$ -->
      <g transform="translate(27.1 147.837107) scale(0.1 -0.1)">
       <defs>
        <path id="DejaVuSans-35" d="M 691 4666 
L 3169 4666 
L 3169 4134 
L 1269 4134 
L 1269 2991 
Q 1406 3038 1543 3061 
Q 1681 3084 1819 3084 
Q 2600 3084 3056 2656 
Q 3513 2228 3513 1497 
Q 3513 744 3044 326 
Q 2575 -91 1722 -91 
Q 1428 -91 1123 -41 
Q 819 9 494 109 
L 494 744 
Q 775 591 1075 516 
Q 1375 441 1709 441 
Q 2250 441 2565 725 
Q 2881 1009 2881 1497 
Q 2881 1984 2565 2268 
Q 2250 2553 1709 2553 
Q 1456 2553 1204 2497 
Q 953 2441 691 2322 
L 691 4666 
z
" transform="scale(0.015625)"/>
       </defs>
       <use xlink:href="#DejaVuSans-31" transform="translate(0 0.684375)"/>
       <use xlink:href="#DejaVuSans-30" transform="translate(63.623047 0.684375)"/>
       <use xlink:href="#DejaVuSans-2212" transform="translate(128.203125 38.965625) scale(0.7)"/>
       <use xlink:href="#DejaVuSans-35" transform="translate(186.855469 38.965625) scale(0.7)"/>
      </g>
     </g>
    </g>
    <g id="ytick_6">
     <g id="line2d_25">
      <path d="M 57.6 108.791619 
L 414.72 108.791619 
" clip-path="url(#p222ac49522)" style="fill: none; stroke: #b0b0b0; stroke-width: 0.8; stroke-linecap: square"/>
     </g>
     <g id="line2d_26">
      <g>
       <use xlink:href="#md85b61af55" x="57.6" y="108.791619" style="stroke: #000000; stroke-width: 0.8"/>
      </g>
     </g>
     <g id="text_14">
      <!-- $\mathdefault{10^{-3}}$ -->
      <g transform="translate(27.1 112.590838) scale(0.1 -0.1)">
       <use xlink:href="#DejaVuSans-31" transform="translate(0 0.765625)"/>
       <use xlink:href="#DejaVuSans-30" transform="translate(63.623047 0.765625)"/>
       <use xlink:href="#DejaVuSans-2212" transform="translate(128.203125 39.046875) scale(0.7)"/>
       <use xlink:href="#DejaVuSans-33" transform="translate(186.855469 39.046875) scale(0.7)"/>
      </g>
     </g>
    </g>
    <g id="ytick_7">
     <g id="line2d_27">
      <path d="M 57.6 73.54535 
L 414.72 73.54535 
" clip-path="url(#p222ac49522)" style="fill: none; stroke: #b0b0b0; stroke-width: 0.8; stroke-linecap: square"/>
     </g>
     <g id="line2d_28">
      <g>
       <use xlink:href="#md85b61af55" x="57.6" y="73.54535" style="stroke: #000000; stroke-width: 0.8"/>
      </g>
     </g>
     <g id="text_15">
      <!-- $\mathdefault{10^{-1}}$ -->
      <g transform="translate(27.1 77.344568) scale(0.1 -0.1)">
       <use xlink:href="#DejaVuSans-31" transform="translate(0 0.684375)"/>
       <use xlink:href="#DejaVuSans-30" transform="translate(63.623047 0.684375)"/>
       <use xlink:href="#DejaVuSans-2212" transform="translate(128.203125 38.965625) scale(0.7)"/>
       <use xlink:href="#DejaVuSans-31" transform="translate(186.855469 38.965625) scale(0.7)"/>
      </g>
     </g>
    </g>
    <g id="text_16">
     <!-- ||$\delta$x||/||x|| -->
     <g transform="translate(16.3 198.678) rotate(-90) scale(0.1 -0.1)">
      <defs>
       <path id="DejaVuSans-78" d="M 3513 3500 
L 2247 1797 
L 3578 0 
L 2900 0 
L 1881 1375 
L 863 0 
L 184 0 
L 1544 1831 
L 300 3500 
L 978 3500 
L 1906 2253 
L 2834 3500 
L 3513 3500 
z
" transform="scale(0.015625)"/>
      </defs>
      <use xlink:href="#DejaVuSans-7c" transform="translate(0 0.578125)"/>
      <use xlink:href="#DejaVuSans-7c" transform="translate(33.691406 0.578125)"/>
      <use xlink:href="#DejaVuSans-Oblique-3b4" transform="translate(67.382812 0.578125)"/>
      <use xlink:href="#DejaVuSans-78" transform="translate(128.564453 0.578125)"/>
      <use xlink:href="#DejaVuSans-7c" transform="translate(187.744141 0.578125)"/>
      <use xlink:href="#DejaVuSans-7c" transform="translate(221.435547 0.578125)"/>
      <use xlink:href="#DejaVuSans-2f" transform="translate(255.126953 0.578125)"/>
      <use xlink:href="#DejaVuSans-7c" transform="translate(288.818359 0.578125)"/>
      <use xlink:href="#DejaVuSans-7c" transform="translate(322.509766 0.578125)"/>
      <use xlink:href="#DejaVuSans-78" transform="translate(356.201172 0.578125)"/>
      <use xlink:href="#DejaVuSans-7c" transform="translate(415.380859 0.578125)"/>
      <use xlink:href="#DejaVuSans-7c" transform="translate(449.072266 0.578125)"/>
     </g>
    </g>
   </g>
   <g id="line2d_29">
    <path d="M 73.832727 272.351444 
L 74.965598 289.557084 
L 77.521019 271.071453 
L 81.514055 295.488 
L 81.699636 278.154265 
L 82.403242 295.196806 
L 82.923161 266.5878 
L 84.339404 276.997081 
L 84.424627 265.740632 
L 84.707375 278.030387 
L 84.834084 264.849885 
L 85.372436 285.969634 
L 85.579579 269.31082 
L 85.694262 269.978652 
L 85.921895 270.229708 
L 86.166035 278.282166 
L 86.723609 267.027236 
L 87.461897 264.527784 
L 88.161408 271.377131 
L 88.407103 277.448271 
L 88.768644 265.983592 
L 89.097822 269.676143 
L 89.653094 271.166219 
L 89.986572 271.23301 
L 90.520538 275.692224 
L 91.366379 261.49744 
L 91.368466 264.041701 
L 92.099726 265.604045 
L 92.212042 261.748449 
L 92.466387 261.690409 
L 92.528066 269.132096 
L 92.879968 264.54028 
L 92.885124 270.9114 
L 93.756572 259.098343 
L 93.815847 267.643667 
L 94.183741 265.351651 
L 94.319657 260.272772 
L 94.624182 261.576523 
L 95.290783 284.957576 
L 95.353728 260.427952 
L 95.354551 262.17246 
L 95.59753 257.76236 
L 95.754669 262.097019 
L 95.791181 272.734897 
L 95.920913 259.86755 
L 96.199914 267.0041 
L 96.687248 268.813029 
L 96.877957 258.593028 
L 97.701368 283.283586 
L 97.783246 268.465526 
L 97.911213 271.51045 
L 97.970517 264.075653 
L 98.901169 271.8321 
L 99.055525 258.704944 
L 99.079328 260.328258 
L 99.44632 272.209868 
L 99.732871 259.298443 
L 100.097661 263.4756 
L 100.594262 257.168852 
L 100.843702 265.144559 
L 101.038384 257.777243 
L 101.210513 257.315938 
L 101.294002 270.486014 
L 101.325165 254.560584 
L 101.357051 256.27378 
L 101.802766 264.320089 
L 102.16144 255.383995 
L 102.307851 263.679146 
L 102.588575 257.212636 
L 103.143012 264.794228 
L 103.76553 252.299686 
L 103.779569 257.486879 
L 104.040481 260.515126 
L 105.378088 251.175062 
L 105.904556 268.62508 
L 106.182934 259.827929 
L 106.545782 252.810948 
L 106.93088 264.73759 
L 107.132946 252.528572 
L 107.140899 256.628642 
L 107.274301 253.258876 
L 107.56176 254.859919 
L 107.639083 273.505769 
L 107.663494 257.706972 
L 107.668091 249.940648 
L 107.683674 255.500439 
L 108.746744 249.810643 
L 108.975149 254.04437 
L 109.032245 251.030847 
L 109.325254 275.261901 
L 109.363163 257.904184 
L 110.180821 247.970131 
L 111.464065 256.459595 
L 111.61108 247.019218 
L 112.172845 249.844566 
L 112.468026 250.142817 
L 113.188136 250.686052 
L 113.780713 249.725304 
L 113.885476 271.732698 
L 113.953409 246.555723 
L 114.597415 248.348348 
L 114.866581 258.913619 
L 115.148257 250.362119 
L 115.314997 249.684129 
L 115.363128 250.81544 
L 115.680516 249.679454 
L 116.246215 252.945389 
L 116.252101 244.016201 
L 116.695115 245.071166 
L 116.920193 247.789311 
L 116.967786 245.947478 
L 117.118525 262.801383 
L 118.652915 245.911179 
L 118.714017 245.800973 
L 118.761422 243.078082 
L 119.005957 242.070436 
L 119.252075 259.865282 
L 119.323947 253.904835 
L 120.348894 253.680383 
L 120.633295 254.439802 
L 121.06941 245.598973 
L 121.640552 260.839108 
L 122.024953 245.745782 
L 122.571211 256.86635 
L 123.655002 244.063129 
L 123.669069 240.501277 
L 124.017129 242.307495 
L 124.037477 248.700485 
L 124.168312 253.788822 
L 124.178157 246.093981 
L 124.465563 238.543459 
L 124.86441 239.846044 
L 124.884058 241.906963 
L 124.937233 264.206546 
L 125.605385 243.453791 
L 125.925043 257.735529 
L 126.228448 246.407131 
L 126.375481 261.516691 
L 127.099029 243.228008 
L 127.847853 245.110715 
L 128.22625 238.30679 
L 128.72286 246.897585 
L 128.726904 235.550664 
L 129.133443 236.402798 
L 129.162838 242.345258 
L 129.833224 243.517913 
L 130.054256 234.90034 
L 130.793065 235.375749 
L 131.302147 245.527644 
L 131.818692 235.633846 
L 131.892502 242.387213 
L 132.204423 235.94968 
L 132.24967 245.17804 
L 132.312492 244.485827 
L 132.474437 241.166209 
L 132.539361 242.375241 
L 132.844613 234.466741 
L 133.063553 232.818283 
L 133.367801 252.297735 
L 135.152362 240.316303 
L 135.375985 235.87705 
L 136.537586 231.341738 
L 137.096653 251.40553 
L 137.280843 234.417571 
L 137.878063 252.119814 
L 138.041351 244.589829 
L 138.51775 229.434173 
L 138.617798 233.691741 
L 139.210584 243.697971 
L 139.632199 246.146103 
L 139.748462 233.134311 
L 140.195895 232.897235 
L 140.32401 227.885076 
L 140.693144 238.924026 
L 140.968142 237.765168 
L 142.056994 244.890402 
L 142.393485 229.548208 
L 142.659676 229.828199 
L 143.204246 235.937338 
L 144.147407 227.101603 
L 144.169478 248.217814 
L 144.240051 229.380301 
L 144.400198 229.763745 
L 144.704489 234.984687 
L 145.092552 233.637771 
L 145.719891 232.739393 
L 146.439791 225.074541 
L 146.676279 232.416326 
L 146.838648 228.775074 
L 147.041702 231.896505 
L 147.118173 228.575998 
L 147.731382 226.94564 
L 147.844597 224.263604 
L 148.104736 224.542734 
L 148.54533 225.21327 
L 149.288002 233.064537 
L 149.347969 236.288841 
L 149.677109 225.331718 
L 150.432188 237.455259 
L 150.540786 225.075029 
L 150.547752 240.627806 
L 151.082429 234.05834 
L 151.096657 238.732403 
L 152.011104 219.883076 
L 152.096212 229.021411 
L 152.478707 221.527955 
L 153.019989 243.08536 
L 153.453722 225.29227 
L 153.606003 237.678058 
L 153.643127 229.462891 
L 153.800242 236.718494 
L 154.289946 221.67116 
L 154.512266 227.347093 
L 154.949758 220.243364 
L 155.416455 224.297031 
L 155.865968 225.057218 
L 156.003964 218.834153 
L 156.524101 220.063716 
L 156.79029 219.799041 
L 156.895953 224.940049 
L 157.023981 239.231142 
L 157.029025 226.2137 
L 157.326086 228.774182 
L 157.423317 242.620362 
L 157.464421 226.870251 
L 157.672203 223.306916 
L 157.978327 220.435081 
L 158.102867 222.435468 
L 158.299029 220.148679 
L 158.405783 230.608826 
L 158.65397 218.894594 
L 159.167478 236.086253 
L 159.653062 215.13646 
L 159.736241 217.120927 
L 159.80239 225.968449 
L 160.155189 214.972004 
L 160.310494 214.828645 
L 160.68983 220.503192 
L 161.587123 216.483455 
L 161.89336 220.958183 
L 161.96337 233.089078 
L 161.989405 218.947215 
L 162.029453 218.335462 
L 163.327317 213.168466 
L 164.02923 214.131105 
L 164.281483 216.361463 
L 164.35926 224.953169 
L 165.127027 212.861241 
L 165.319949 227.002683 
L 166.177725 222.639302 
L 166.641284 212.207763 
L 166.674886 212.256763 
L 167.218817 223.163205 
L 167.519632 224.666743 
L 167.546858 214.652962 
L 168.761893 210.22052 
L 168.837159 216.373846 
L 169.634421 208.763175 
L 170.038571 211.899323 
L 170.454008 211.765424 
L 170.823938 216.74694 
L 171.350103 221.883333 
L 171.614298 209.671036 
L 171.77528 214.415912 
L 172.489812 218.024828 
L 173.140139 206.431847 
L 173.471475 216.660366 
L 173.874978 210.347607 
L 174.397714 204.877242 
L 174.563474 215.810079 
L 174.710687 212.287081 
L 174.756076 208.145012 
L 174.876289 212.001755 
L 175.078187 210.927221 
L 175.285155 214.354538 
L 175.318622 206.024782 
L 175.403537 209.927452 
L 176.15195 208.564945 
L 177.25354 203.253332 
L 177.650972 211.131798 
L 178.188438 202.404712 
L 178.231456 210.225675 
L 178.44025 206.026469 
L 179.119589 202.563161 
L 179.137175 211.649395 
L 179.360449 213.074324 
L 179.581013 211.282844 
L 179.716001 202.292947 
L 179.76874 214.115997 
L 179.861988 201.172023 
L 180.071631 205.422948 
L 181.09975 201.774084 
L 181.50141 207.902974 
L 181.820884 207.71189 
L 182.005113 200.053291 
L 182.056808 210.982381 
L 182.275579 216.453305 
L 182.798011 200.457625 
L 182.84339 204.009415 
L 183.285676 199.716697 
L 183.62374 200.766936 
L 184.388608 199.925456 
L 184.932694 199.7835 
L 185.130845 198.163233 
L 185.552304 197.598584 
L 185.691506 199.290347 
L 185.756422 198.043047 
L 185.945299 203.581276 
L 186.47984 200.742863 
L 186.995064 208.71889 
L 187.001611 196.935986 
L 187.367641 203.989006 
L 187.49852 199.98429 
L 187.848906 195.988723 
L 188.604512 206.713249 
L 188.820864 201.693408 
L 189.077611 202.947329 
L 189.108086 210.60574 
L 189.135269 198.000694 
L 189.13849 206.556965 
L 189.651179 210.788039 
L 189.92756 194.451562 
L 190.325371 205.357689 
L 190.371315 215.053677 
L 191.042157 208.487537 
L 191.165239 196.330331 
L 191.430176 195.23911 
L 192.978873 196.443996 
L 193.022963 212.207603 
L 193.527873 194.22886 
L 193.668171 202.34251 
L 194.165343 201.923415 
L 195.151621 217.167808 
L 195.353824 205.293009 
L 195.789293 192.870083 
L 195.86672 203.401264 
L 195.89386 193.920607 
L 196.303879 190.347186 
L 196.483417 208.671943 
L 197.213998 200.497899 
L 197.846702 191.801597 
L 198.728361 209.410355 
L 199.163797 189.027856 
L 199.228846 197.338432 
L 199.293644 188.546129 
L 199.941023 211.107147 
L 200.336252 192.772869 
L 200.716963 194.756181 
L 200.789663 212.057898 
L 200.804472 200.370258 
L 200.839157 189.505758 
L 201.113808 194.748601 
L 201.638123 187.326711 
L 201.862253 202.926091 
L 202.685441 206.79271 
L 202.783888 185.828111 
L 202.893011 197.578385 
L 203.711406 186.013764 
L 204.352448 186.661873 
L 204.542583 193.286912 
L 204.600749 184.72792 
L 204.871052 189.355795 
L 205.107046 206.306265 
L 205.132192 187.682051 
L 206.002503 185.414249 
L 206.327417 185.195144 
L 206.52431 184.07754 
L 206.840235 210.829317 
L 206.850319 189.830624 
L 207.086734 205.521777 
L 207.162419 204.847282 
L 207.378639 190.64902 
L 208.261316 204.126084 
L 209.015781 186.453984 
L 209.759074 181.191474 
L 210.211518 182.372995 
L 210.282344 191.212679 
L 210.488426 190.642316 
L 211.417751 201.546673 
L 212.611068 194.122837 
L 212.732267 182.634719 
L 213.454616 179.781186 
L 213.630614 178.478064 
L 214.026987 184.508463 
L 214.171247 195.063292 
L 214.505124 195.075583 
L 215.351181 183.998813 
L 215.549575 177.494466 
L 215.754925 205.833133 
L 216.151616 183.783772 
L 216.810349 195.2988 
L 216.909638 191.159877 
L 217.028037 177.422657 
L 217.078846 184.255818 
L 217.193361 184.447084 
L 217.60586 175.991341 
L 217.976246 179.457801 
L 217.997766 175.687117 
L 218.701799 176.735413 
L 219.544307 183.24305 
L 219.973493 175.52579 
L 220.098092 191.243285 
L 220.370304 174.806398 
L 220.459557 185.619671 
L 221.045004 181.415209 
L 221.12937 178.578004 
L 221.253635 195.8995 
L 221.914028 173.06947 
L 222.119289 181.850533 
L 222.499371 177.072248 
L 223.04852 180.809238 
L 223.460978 182.311306 
L 223.57869 176.791004 
L 223.63789 180.179308 
L 224.119177 175.692341 
L 224.723315 183.703365 
L 224.972221 180.402472 
L 225.554299 185.796706 
L 225.621199 179.196163 
L 225.643796 187.884819 
L 225.916011 174.012842 
L 226.269201 172.387397 
L 226.569473 177.617723 
L 226.57395 170.138244 
L 226.668667 181.233696 
L 227.086761 178.261003 
L 227.568535 177.933737 
L 227.612859 172.304216 
L 228.039513 177.889886 
L 228.166169 187.046981 
L 228.834354 168.701831 
L 229.267042 170.966319 
L 229.30206 177.100108 
L 229.494255 172.344293 
L 229.709359 196.151662 
L 229.74425 168.364665 
L 230.063306 186.620098 
L 230.255691 167.21692 
L 230.262075 173.737845 
L 230.691889 178.308541 
L 231.035273 195.465693 
L 231.105856 174.1393 
L 231.307105 175.359338 
L 231.959801 171.356263 
L 232.081636 173.982885 
L 232.31677 172.601944 
L 232.538475 169.183466 
L 232.718265 181.99619 
L 232.942516 169.049216 
L 233.655943 165.205174 
L 233.71003 170.36063 
L 234.934964 177.282923 
L 235.437965 171.14442 
L 235.712478 165.896946 
L 235.988186 170.105884 
L 236.492859 164.651777 
L 237.027462 169.955051 
L 237.118257 164.278302 
L 237.47362 167.206199 
L 237.67695 173.236857 
L 237.808364 164.741069 
L 238.384248 166.675635 
L 238.907859 172.819479 
L 239.410875 174.338796 
L 239.735776 172.419068 
L 239.949304 163.595195 
L 240.703754 168.723723 
L 240.819522 187.193037 
L 240.98788 189.249496 
L 241.388899 165.371104 
L 241.890025 159.903104 
L 241.989323 168.31356 
L 242.490977 176.504293 
L 242.598871 169.402395 
L 243.808123 167.218376 
L 244.382737 160.16962 
L 244.839592 157.607869 
L 244.919798 167.362934 
L 244.86667 157.574327 
L 244.926154 157.73122 
L 245.137646 158.95243 
L 245.52072 157.888629 
L 245.672034 160.36607 
L 246.541804 162.525456 
L 247.107858 174.787509 
L 247.125049 160.908184 
L 247.615798 180.126069 
L 247.656204 159.93992 
L 247.923187 166.717958 
L 247.954529 161.282808 
L 248.453079 162.093717 
L 248.759149 168.10318 
L 248.947408 159.97965 
L 249.138059 160.852409 
L 250.511752 161.512562 
L 250.599859 153.585249 
L 250.914955 158.576503 
L 250.938118 153.629799 
L 251.20307 153.276811 
L 251.55236 165.919638 
L 252.280768 158.922473 
L 252.712211 179.572874 
L 252.856188 157.871977 
L 253.134845 157.708418 
L 253.358757 156.26438 
L 253.380719 177.9771 
L 253.725573 158.182888 
L 254.307947 153.575339 
L 254.813177 152.413115 
L 254.966498 162.823112 
L 255.066522 150.947087 
L 255.901055 150.872422 
L 256.349075 161.375912 
L 257.071781 171.906236 
L 258.147808 152.029891 
L 258.152238 163.746663 
L 258.313913 170.326665 
L 258.676389 148.695792 
L 259.317184 176.768586 
L 260.17643 162.79482 
L 260.236055 169.162752 
L 260.470876 161.844545 
L 260.976565 152.007804 
L 261.395959 157.291276 
L 261.703515 158.050383 
L 261.837742 146.069509 
L 261.900465 146.569871 
L 262.273013 152.887783 
L 263.665252 144.905345 
L 264.086368 147.047705 
L 264.493041 145.456317 
L 264.744595 147.414827 
L 265.048445 148.883811 
L 265.24987 149.01406 
L 265.682745 152.007044 
L 265.737743 145.301779 
L 266.149141 152.798812 
L 266.258243 144.303126 
L 266.321447 157.799819 
L 266.99126 148.680952 
L 267.558614 148.87774 
L 267.637195 154.389351 
L 268.005523 149.64263 
L 268.428563 158.250989 
L 268.674054 150.662472 
L 268.726686 142.666454 
L 268.74879 147.622001 
L 269.171398 149.970169 
L 269.630064 149.759141 
L 269.643444 142.193831 
L 270.344215 142.223996 
L 271.026181 146.342188 
L 271.420203 168.776288 
L 271.70766 158.084599 
L 271.99827 141.877187 
L 272.134938 153.887487 
L 272.384008 139.042007 
L 273.407169 142.414133 
L 273.700151 148.162758 
L 273.76253 142.197914 
L 273.893002 141.347099 
L 274.106542 150.365207 
L 275.273091 140.072085 
L 275.522661 161.549699 
L 275.746628 140.907964 
L 275.866517 144.246373 
L 275.923245 136.984338 
L 276.099783 141.602641 
L 276.136014 136.799113 
L 276.26351 144.117144 
L 276.693552 152.232005 
L 277.584017 138.502786 
L 277.67175 162.411042 
L 278.678301 134.664023 
L 278.898798 149.478291 
L 279.312951 144.679101 
L 279.822034 155.979121 
L 280.23142 139.428081 
L 280.307876 159.129022 
L 280.381709 139.905801 
L 280.407505 144.633358 
L 281.746015 133.855787 
L 282.260586 145.567224 
L 282.532371 134.777584 
L 282.549059 140.6197 
L 282.741612 139.656453 
L 283.459862 140.423735 
L 283.651984 133.922517 
L 283.777571 147.270171 
L 283.875946 141.92781 
L 284.308032 131.810622 
L 284.985483 134.370006 
L 285.316819 159.428967 
L 285.378217 131.455164 
L 285.600947 143.241497 
L 285.846915 134.206055 
L 285.87023 136.659422 
L 285.965623 134.514571 
L 286.415941 136.812368 
L 287.040384 143.254839 
L 287.958058 129.665808 
L 288.4553 128.678519 
L 288.734657 138.313725 
L 288.823638 138.086691 
L 288.975321 127.858167 
L 289.762582 128.427633 
L 289.839927 138.79096 
L 290.158983 131.539033 
L 290.320687 155.086721 
L 290.839577 127.308204 
L 291.446818 129.905853 
L 292.123027 134.636047 
L 292.483538 128.55302 
L 292.766184 130.617438 
L 293.116446 129.618407 
L 293.124604 126.707285 
L 293.258946 125.356329 
L 293.303863 143.147576 
L 293.78177 140.030572 
L 294.963805 128.047023 
L 295.137628 123.584325 
L 295.39452 127.112925 
L 295.492017 131.452005 
L 295.637066 126.110109 
L 296.016995 141.25471 
L 296.295489 124.189412 
L 296.408341 151.26078 
L 296.441456 128.22961 
L 296.738414 136.110369 
L 297.504686 122.412549 
L 297.776684 129.919969 
L 298.523989 124.015265 
L 298.59931 129.669861 
L 298.734935 130.138257 
L 298.833526 129.491455 
L 298.851693 125.917641 
L 299.366814 124.659377 
L 300.3743 125.895582 
L 300.530207 120.190741 
L 300.784176 120.038268 
L 300.82826 122.029984 
L 300.996775 122.602345 
L 301.24061 122.838934 
L 301.587521 119.786253 
L 301.669695 122.980259 
L 301.93683 123.444453 
L 301.968985 136.709502 
L 302.553312 119.899843 
L 302.805788 120.113148 
L 304.174702 139.463454 
L 304.723493 129.892551 
L 306.193788 116.357719 
L 306.525244 123.770692 
L 306.865334 116.693071 
L 307.082988 118.17345 
L 307.43118 124.38243 
L 307.56051 117.232133 
L 307.803575 122.66964 
L 308.013197 121.269131 
L 308.361179 115.284162 
L 308.678084 130.220285 
L 308.693869 121.896897 
L 309.031434 126.139141 
L 309.691488 120.00913 
L 310.178159 129.682321 
L 310.224394 114.710295 
L 310.415114 121.785152 
L 310.826385 124.246536 
L 311.380388 112.788868 
L 311.448465 118.978951 
L 311.922655 117.495355 
L 312.160387 120.948181 
L 312.394652 121.248463 
L 312.883435 112.102711 
L 314.450276 120.545922 
L 314.536745 123.772701 
L 314.801973 110.493062 
L 315.072881 111.71907 
L 315.474849 110.58562 
L 315.623211 123.832007 
L 317.143044 109.147698 
L 317.442435 114.729556 
L 317.51362 112.293973 
L 317.962986 124.623685 
L 318.199861 110.181248 
L 318.397964 126.572964 
L 318.424744 117.372874 
L 318.828384 112.054969 
L 319.069028 111.334465 
L 319.06981 127.543326 
L 319.297319 116.261005 
L 320.417849 120.500073 
L 321.461271 107.366705 
L 321.484286 107.495269 
L 321.551601 118.489608 
L 321.669512 107.717267 
L 321.704904 108.573546 
L 321.922332 106.522767 
L 322.492425 107.212296 
L 322.675451 106.181151 
L 322.811478 109.993825 
L 322.930926 105.67557 
L 323.52644 108.907752 
L 323.69223 121.809699 
L 324.586052 110.737592 
L 324.693238 115.471421 
L 324.699481 132.634582 
L 324.787469 105.378161 
L 324.83585 126.567053 
L 325.146885 116.374641 
L 325.36299 114.308049 
L 325.381646 108.195549 
L 325.596007 115.490956 
L 325.606516 109.826167 
L 326.099767 111.226457 
L 326.124429 109.383916 
L 326.305347 110.330096 
L 326.490875 103.492837 
L 326.833152 110.025782 
L 327.018276 108.321999 
L 327.23374 102.232639 
L 327.285138 107.937305 
L 327.492811 107.341786 
L 327.662439 110.201974 
L 327.926997 105.082929 
L 328.360317 115.069715 
L 329.611292 108.509586 
L 329.886204 105.931933 
L 331.105581 111.556366 
L 332.100183 104.539653 
L 332.163678 99.784176 
L 333.654572 98.445875 
L 334.060531 112.296047 
L 334.116354 99.752181 
L 334.448959 104.719676 
L 335.139349 98.405988 
L 335.55855 96.742163 
L 336.227162 114.303318 
L 336.286001 104.00702 
L 336.888478 120.071841 
L 337.173625 99.920291 
L 337.413614 99.024728 
L 338.192878 98.606194 
L 338.479967 114.667526 
L 338.707753 99.928121 
L 338.86748 100.957393 
L 339.160761 99.010633 
L 339.228912 102.182943 
L 340.097379 108.921456 
L 340.23661 101.92698 
L 340.363839 106.788939 
L 340.990807 95.746924 
L 341.043327 114.923577 
L 341.053026 99.340853 
L 341.559626 94.718306 
L 341.748427 105.402821 
L 342.000647 101.088764 
L 342.033424 92.122759 
L 342.485724 95.978188 
L 342.684767 94.374301 
L 343.001428 94.168374 
L 343.264001 99.635903 
L 343.348275 95.395379 
L 344.329117 108.836456 
L 344.359764 92.74489 
L 344.708115 92.588739 
L 345.173043 95.009916 
L 345.514083 91.794254 
L 345.644387 94.323175 
L 345.664911 91.149408 
L 345.954582 92.897049 
L 346.038044 105.478447 
L 346.245321 95.968052 
L 346.926026 117.73882 
L 347.022468 89.040763 
L 347.409471 90.804733 
L 347.484824 93.76568 
L 348.01806 100.695821 
L 348.916326 91.943981 
L 349.318552 97.68393 
L 349.523568 93.929492 
L 349.85426 96.831065 
L 349.875849 88.592488 
L 350.033757 90.497013 
L 350.069239 92.432087 
L 350.496006 93.167956 
L 351.016994 88.539734 
L 351.759732 85.857465 
L 351.868237 87.490556 
L 354.072416 94.84716 
L 354.550488 112.777809 
L 354.562464 87.943327 
L 354.688411 92.060025 
L 354.732067 88.914898 
L 355.525064 84.762978 
L 355.532862 99.443809 
L 355.910142 97.04166 
L 356.157376 82.551065 
L 357.101673 86.228661 
L 357.339139 91.614945 
L 357.403678 88.78625 
L 357.496981 94.151405 
L 357.63507 83.821809 
L 357.79671 85.167238 
L 357.812681 94.542534 
L 357.896557 82.090994 
L 358.33846 81.424077 
L 358.402781 104.892337 
L 358.52538 83.179206 
L 358.825625 87.116315 
L 359.883728 85.614934 
L 360.595901 96.421058 
L 360.736147 79.761535 
L 360.77683 88.875053 
L 360.924584 81.260451 
L 361.00806 102.693555 
L 361.736522 82.201676 
L 362.126744 103.06631 
L 362.216299 82.881568 
L 362.70799 78.112383 
L 362.794215 82.097502 
L 363.189286 87.550981 
L 363.433818 85.164499 
L 363.809198 91.616697 
L 363.847199 88.863737 
L 364.291751 79.386813 
L 364.488933 82.606645 
L 365.393333 87.124364 
L 365.737891 77.44146 
L 366.131676 87.011678 
L 366.431438 89.629431 
L 366.604661 88.2568 
L 366.97422 96.528341 
L 367.304611 76.443365 
L 367.33501 91.70498 
L 367.701251 80.943174 
L 367.978578 76.281885 
L 368.679416 88.697624 
L 368.931268 83.22948 
L 369.680715 73.957639 
L 369.976798 77.521838 
L 370.310161 91.757582 
L 370.377718 79.723161 
L 370.657843 79.412763 
L 370.97538 85.959186 
L 371.575115 83.537239 
L 371.64928 72.74704 
L 371.757873 83.233955 
L 372.316446 71.762684 
L 372.556657 75.69142 
L 372.734172 76.546928 
L 373.476343 79.241193 
L 374.286669 77.83452 
L 374.47737 70.505289 
L 374.90404 77.893988 
L 375.31328 79.068907 
L 375.963134 69.667484 
L 376.2657 89.452908 
L 376.280164 81.27912 
L 376.513374 74.014082 
L 376.610666 76.518959 
L 376.698846 73.364154 
L 377.30848 68.430733 
L 377.436952 76.269261 
L 377.944091 77.244315 
L 378.046654 82.625571 
L 378.34863 79.067711 
L 378.453361 89.270783 
L 378.591028 70.046761 
L 378.845599 72.265051 
L 379.017046 70.318035 
L 379.129211 78.43142 
L 380.102422 68.4084 
L 381.207051 93.670682 
L 381.790347 66.187682 
L 382.018534 66.099136 
L 382.166216 65.051095 
L 382.748237 65.029055 
L 383.148165 68.043312 
L 383.611532 68.724266 
L 383.860143 63.886001 
L 384.647566 92.536309 
L 384.715097 75.041371 
L 384.856605 67.913508 
L 385.151528 63.153294 
L 385.171247 65.705694 
L 385.55887 67.659545 
L 386.626868 74.552425 
L 386.768775 67.839971 
L 387.309445 63.657987 
L 387.597545 73.76188 
L 387.742251 67.508297 
L 388.471296 81.23829 
L 389.500102 63.536661 
L 389.98444 61.464023 
L 391.373767 61.48666 
L 391.384675 60.169418 
L 391.516787 85.867035 
L 391.747573 87.111847 
L 392.32439 71.628956 
L 393.459856 58.190598 
L 393.836835 74.235181 
L 394.152313 56.961464 
L 394.369268 69.701778 
L 395.857183 58.887214 
L 396.597605 56.966735 
L 397.905361 59.013687 
L 398.158267 83.379259 
L 398.375602 59.412587 
L 398.487273 56.88026 
L 398.487273 56.88026 
" clip-path="url(#p222ac49522)" style="fill: none; stroke: #1f77b4; stroke-width: 1.5; stroke-linecap: square"/>
   </g>
   <g id="line2d_30">
    <path d="M 73.832727 271.86794 
L 398.487273 53.568 
L 398.487273 53.568 
" clip-path="url(#p222ac49522)" style="fill: none; stroke: #ff7f0e; stroke-width: 1.5; stroke-linecap: square"/>
   </g>
   <g id="patch_3">
    <path d="M 57.6 307.584 
L 57.6 41.472 
" style="fill: none; stroke: #000000; stroke-width: 0.8; stroke-linejoin: miter; stroke-linecap: square"/>
   </g>
   <g id="patch_4">
    <path d="M 414.72 307.584 
L 414.72 41.472 
" style="fill: none; stroke: #000000; stroke-width: 0.8; stroke-linejoin: miter; stroke-linecap: square"/>
   </g>
   <g id="patch_5">
    <path d="M 57.6 307.584 
L 414.72 307.584 
" style="fill: none; stroke: #000000; stroke-width: 0.8; stroke-linejoin: miter; stroke-linecap: square"/>
   </g>
   <g id="patch_6">
    <path d="M 57.6 41.472 
L 414.72 41.472 
" style="fill: none; stroke: #000000; stroke-width: 0.8; stroke-linejoin: miter; stroke-linecap: square"/>
   </g>
   <g id="text_17">
    <!-- Perturbation when b is disturbed (m = 2) -->
    <g transform="translate(112.943438 35.472) scale(0.12 -0.12)">
     <defs>
      <path id="DejaVuSans-50" d="M 1259 4147 
L 1259 2394 
L 2053 2394 
Q 2494 2394 2734 2622 
Q 2975 2850 2975 3272 
Q 2975 3691 2734 3919 
Q 2494 4147 2053 4147 
L 1259 4147 
z
M 628 4666 
L 2053 4666 
Q 2838 4666 3239 4311 
Q 3641 3956 3641 3272 
Q 3641 2581 3239 2228 
Q 2838 1875 2053 1875 
L 1259 1875 
L 1259 0 
L 628 0 
L 628 4666 
z
" transform="scale(0.015625)"/>
      <path id="DejaVuSans-65" d="M 3597 1894 
L 3597 1613 
L 953 1613 
Q 991 1019 1311 708 
Q 1631 397 2203 397 
Q 2534 397 2845 478 
Q 3156 559 3463 722 
L 3463 178 
Q 3153 47 2828 -22 
Q 2503 -91 2169 -91 
Q 1331 -91 842 396 
Q 353 884 353 1716 
Q 353 2575 817 3079 
Q 1281 3584 2069 3584 
Q 2775 3584 3186 3129 
Q 3597 2675 3597 1894 
z
M 3022 2063 
Q 3016 2534 2758 2815 
Q 2500 3097 2075 3097 
Q 1594 3097 1305 2825 
Q 1016 2553 972 2059 
L 3022 2063 
z
" transform="scale(0.015625)"/>
      <path id="DejaVuSans-72" d="M 2631 2963 
Q 2534 3019 2420 3045 
Q 2306 3072 2169 3072 
Q 1681 3072 1420 2755 
Q 1159 2438 1159 1844 
L 1159 0 
L 581 0 
L 581 3500 
L 1159 3500 
L 1159 2956 
Q 1341 3275 1631 3429 
Q 1922 3584 2338 3584 
Q 2397 3584 2469 3576 
Q 2541 3569 2628 3553 
L 2631 2963 
z
" transform="scale(0.015625)"/>
      <path id="DejaVuSans-74" d="M 1172 4494 
L 1172 3500 
L 2356 3500 
L 2356 3053 
L 1172 3053 
L 1172 1153 
Q 1172 725 1289 603 
Q 1406 481 1766 481 
L 2356 481 
L 2356 0 
L 1766 0 
Q 1100 0 847 248 
Q 594 497 594 1153 
L 594 3053 
L 172 3053 
L 172 3500 
L 594 3500 
L 594 4494 
L 1172 4494 
z
" transform="scale(0.015625)"/>
      <path id="DejaVuSans-75" d="M 544 1381 
L 544 3500 
L 1119 3500 
L 1119 1403 
Q 1119 906 1312 657 
Q 1506 409 1894 409 
Q 2359 409 2629 706 
Q 2900 1003 2900 1516 
L 2900 3500 
L 3475 3500 
L 3475 0 
L 2900 0 
L 2900 538 
Q 2691 219 2414 64 
Q 2138 -91 1772 -91 
Q 1169 -91 856 284 
Q 544 659 544 1381 
z
M 1991 3584 
L 1991 3584 
z
" transform="scale(0.015625)"/>
      <path id="DejaVuSans-61" d="M 2194 1759 
Q 1497 1759 1228 1600 
Q 959 1441 959 1056 
Q 959 750 1161 570 
Q 1363 391 1709 391 
Q 2188 391 2477 730 
Q 2766 1069 2766 1631 
L 2766 1759 
L 2194 1759 
z
M 3341 1997 
L 3341 0 
L 2766 0 
L 2766 531 
Q 2569 213 2275 61 
Q 1981 -91 1556 -91 
Q 1019 -91 701 211 
Q 384 513 384 1019 
Q 384 1609 779 1909 
Q 1175 2209 1959 2209 
L 2766 2209 
L 2766 2266 
Q 2766 2663 2505 2880 
Q 2244 3097 1772 3097 
Q 1472 3097 1187 3025 
Q 903 2953 641 2809 
L 641 3341 
Q 956 3463 1253 3523 
Q 1550 3584 1831 3584 
Q 2591 3584 2966 3190 
Q 3341 2797 3341 1997 
z
" transform="scale(0.015625)"/>
      <path id="DejaVuSans-69" d="M 603 3500 
L 1178 3500 
L 1178 0 
L 603 0 
L 603 3500 
z
M 603 4863 
L 1178 4863 
L 1178 4134 
L 603 4134 
L 603 4863 
z
" transform="scale(0.015625)"/>
      <path id="DejaVuSans-6f" d="M 1959 3097 
Q 1497 3097 1228 2736 
Q 959 2375 959 1747 
Q 959 1119 1226 758 
Q 1494 397 1959 397 
Q 2419 397 2687 759 
Q 2956 1122 2956 1747 
Q 2956 2369 2687 2733 
Q 2419 3097 1959 3097 
z
M 1959 3584 
Q 2709 3584 3137 3096 
Q 3566 2609 3566 1747 
Q 3566 888 3137 398 
Q 2709 -91 1959 -91 
Q 1206 -91 779 398 
Q 353 888 353 1747 
Q 353 2609 779 3096 
Q 1206 3584 1959 3584 
z
" transform="scale(0.015625)"/>
      <path id="DejaVuSans-6e" d="M 3513 2113 
L 3513 0 
L 2938 0 
L 2938 2094 
Q 2938 2591 2744 2837 
Q 2550 3084 2163 3084 
Q 1697 3084 1428 2787 
Q 1159 2491 1159 1978 
L 1159 0 
L 581 0 
L 581 3500 
L 1159 3500 
L 1159 2956 
Q 1366 3272 1645 3428 
Q 1925 3584 2291 3584 
Q 2894 3584 3203 3211 
Q 3513 2838 3513 2113 
z
" transform="scale(0.015625)"/>
      <path id="DejaVuSans-20" transform="scale(0.015625)"/>
      <path id="DejaVuSans-77" d="M 269 3500 
L 844 3500 
L 1563 769 
L 2278 3500 
L 2956 3500 
L 3675 769 
L 4391 3500 
L 4966 3500 
L 4050 0 
L 3372 0 
L 2619 2869 
L 1863 0 
L 1184 0 
L 269 3500 
z
" transform="scale(0.015625)"/>
      <path id="DejaVuSans-68" d="M 3513 2113 
L 3513 0 
L 2938 0 
L 2938 2094 
Q 2938 2591 2744 2837 
Q 2550 3084 2163 3084 
Q 1697 3084 1428 2787 
Q 1159 2491 1159 1978 
L 1159 0 
L 581 0 
L 581 4863 
L 1159 4863 
L 1159 2956 
Q 1366 3272 1645 3428 
Q 1925 3584 2291 3584 
Q 2894 3584 3203 3211 
Q 3513 2838 3513 2113 
z
" transform="scale(0.015625)"/>
      <path id="DejaVuSans-73" d="M 2834 3397 
L 2834 2853 
Q 2591 2978 2328 3040 
Q 2066 3103 1784 3103 
Q 1356 3103 1142 2972 
Q 928 2841 928 2578 
Q 928 2378 1081 2264 
Q 1234 2150 1697 2047 
L 1894 2003 
Q 2506 1872 2764 1633 
Q 3022 1394 3022 966 
Q 3022 478 2636 193 
Q 2250 -91 1575 -91 
Q 1294 -91 989 -36 
Q 684 19 347 128 
L 347 722 
Q 666 556 975 473 
Q 1284 391 1588 391 
Q 1994 391 2212 530 
Q 2431 669 2431 922 
Q 2431 1156 2273 1281 
Q 2116 1406 1581 1522 
L 1381 1569 
Q 847 1681 609 1914 
Q 372 2147 372 2553 
Q 372 3047 722 3315 
Q 1072 3584 1716 3584 
Q 2034 3584 2315 3537 
Q 2597 3491 2834 3397 
z
" transform="scale(0.015625)"/>
      <path id="DejaVuSans-64" d="M 2906 2969 
L 2906 4863 
L 3481 4863 
L 3481 0 
L 2906 0 
L 2906 525 
Q 2725 213 2448 61 
Q 2172 -91 1784 -91 
Q 1150 -91 751 415 
Q 353 922 353 1747 
Q 353 2572 751 3078 
Q 1150 3584 1784 3584 
Q 2172 3584 2448 3432 
Q 2725 3281 2906 2969 
z
M 947 1747 
Q 947 1113 1208 752 
Q 1469 391 1925 391 
Q 2381 391 2643 752 
Q 2906 1113 2906 1747 
Q 2906 2381 2643 2742 
Q 2381 3103 1925 3103 
Q 1469 3103 1208 2742 
Q 947 2381 947 1747 
z
" transform="scale(0.015625)"/>
      <path id="DejaVuSans-28" d="M 1984 4856 
Q 1566 4138 1362 3434 
Q 1159 2731 1159 2009 
Q 1159 1288 1364 580 
Q 1569 -128 1984 -844 
L 1484 -844 
Q 1016 -109 783 600 
Q 550 1309 550 2009 
Q 550 2706 781 3412 
Q 1013 4119 1484 4856 
L 1984 4856 
z
" transform="scale(0.015625)"/>
      <path id="DejaVuSans-6d" d="M 3328 2828 
Q 3544 3216 3844 3400 
Q 4144 3584 4550 3584 
Q 5097 3584 5394 3201 
Q 5691 2819 5691 2113 
L 5691 0 
L 5113 0 
L 5113 2094 
Q 5113 2597 4934 2840 
Q 4756 3084 4391 3084 
Q 3944 3084 3684 2787 
Q 3425 2491 3425 1978 
L 3425 0 
L 2847 0 
L 2847 2094 
Q 2847 2600 2669 2842 
Q 2491 3084 2119 3084 
Q 1678 3084 1418 2786 
Q 1159 2488 1159 1978 
L 1159 0 
L 581 0 
L 581 3500 
L 1159 3500 
L 1159 2956 
Q 1356 3278 1631 3431 
Q 1906 3584 2284 3584 
Q 2666 3584 2933 3390 
Q 3200 3197 3328 2828 
z
" transform="scale(0.015625)"/>
      <path id="DejaVuSans-3d" d="M 678 2906 
L 4684 2906 
L 4684 2381 
L 678 2381 
L 678 2906 
z
M 678 1631 
L 4684 1631 
L 4684 1100 
L 678 1100 
L 678 1631 
z
" transform="scale(0.015625)"/>
      <path id="DejaVuSans-29" d="M 513 4856 
L 1013 4856 
Q 1481 4119 1714 3412 
Q 1947 2706 1947 2009 
Q 1947 1309 1714 600 
Q 1481 -109 1013 -844 
L 513 -844 
Q 928 -128 1133 580 
Q 1338 1288 1338 2009 
Q 1338 2731 1133 3434 
Q 928 4138 513 4856 
z
" transform="scale(0.015625)"/>
     </defs>
     <use xlink:href="#DejaVuSans-50"/>
     <use xlink:href="#DejaVuSans-65" x="56.677734"/>
     <use xlink:href="#DejaVuSans-72" x="118.201172"/>
     <use xlink:href="#DejaVuSans-74" x="159.314453"/>
     <use xlink:href="#DejaVuSans-75" x="198.523438"/>
     <use xlink:href="#DejaVuSans-72" x="261.902344"/>
     <use xlink:href="#DejaVuSans-62" x="303.015625"/>
     <use xlink:href="#DejaVuSans-61" x="366.492188"/>
     <use xlink:href="#DejaVuSans-74" x="427.771484"/>
     <use xlink:href="#DejaVuSans-69" x="466.980469"/>
     <use xlink:href="#DejaVuSans-6f" x="494.763672"/>
     <use xlink:href="#DejaVuSans-6e" x="555.945312"/>
     <use xlink:href="#DejaVuSans-20" x="619.324219"/>
     <use xlink:href="#DejaVuSans-77" x="651.111328"/>
     <use xlink:href="#DejaVuSans-68" x="732.898438"/>
     <use xlink:href="#DejaVuSans-65" x="796.277344"/>
     <use xlink:href="#DejaVuSans-6e" x="857.800781"/>
     <use xlink:href="#DejaVuSans-20" x="921.179688"/>
     <use xlink:href="#DejaVuSans-62" x="952.966797"/>
     <use xlink:href="#DejaVuSans-20" x="1016.443359"/>
     <use xlink:href="#DejaVuSans-69" x="1048.230469"/>
     <use xlink:href="#DejaVuSans-73" x="1076.013672"/>
     <use xlink:href="#DejaVuSans-20" x="1128.113281"/>
     <use xlink:href="#DejaVuSans-64" x="1159.900391"/>
     <use xlink:href="#DejaVuSans-69" x="1223.376953"/>
     <use xlink:href="#DejaVuSans-73" x="1251.160156"/>
     <use xlink:href="#DejaVuSans-74" x="1303.259766"/>
     <use xlink:href="#DejaVuSans-75" x="1342.46875"/>
     <use xlink:href="#DejaVuSans-72" x="1405.847656"/>
     <use xlink:href="#DejaVuSans-62" x="1446.960938"/>
     <use xlink:href="#DejaVuSans-65" x="1510.4375"/>
     <use xlink:href="#DejaVuSans-64" x="1571.960938"/>
     <use xlink:href="#DejaVuSans-20" x="1635.4375"/>
     <use xlink:href="#DejaVuSans-28" x="1667.224609"/>
     <use xlink:href="#DejaVuSans-6d" x="1706.238281"/>
     <use xlink:href="#DejaVuSans-20" x="1803.650391"/>
     <use xlink:href="#DejaVuSans-3d" x="1835.4375"/>
     <use xlink:href="#DejaVuSans-20" x="1919.226562"/>
     <use xlink:href="#DejaVuSans-32" x="1951.013672"/>
     <use xlink:href="#DejaVuSans-29" x="2014.636719"/>
    </g>
   </g>
   <g id="legend_1">
    <g id="patch_7">
     <path d="M 64.6 79.250125 
L 302.1 79.250125 
Q 304.1 79.250125 304.1 77.250125 
L 304.1 48.472 
Q 304.1 46.472 302.1 46.472 
L 64.6 46.472 
Q 62.6 46.472 62.6 48.472 
L 62.6 77.250125 
Q 62.6 79.250125 64.6 79.250125 
z
" style="fill: #ffffff; opacity: 0.8; stroke: #cccccc; stroke-linejoin: miter"/>
    </g>
    <g id="line2d_31">
     <path d="M 66.6 54.570437 
L 76.6 54.570437 
L 86.6 54.570437 
" style="fill: none; stroke: #1f77b4; stroke-width: 1.5; stroke-linecap: square"/>
    </g>
    <g id="text_18">
     <!-- relative solution perturbation -->
     <g transform="translate(94.6 58.070437) scale(0.1 -0.1)">
      <defs>
       <path id="DejaVuSans-6c" d="M 603 4863 
L 1178 4863 
L 1178 0 
L 603 0 
L 603 4863 
z
" transform="scale(0.015625)"/>
       <path id="DejaVuSans-76" d="M 191 3500 
L 800 3500 
L 1894 563 
L 2988 3500 
L 3597 3500 
L 2284 0 
L 1503 0 
L 191 3500 
z
" transform="scale(0.015625)"/>
       <path id="DejaVuSans-70" d="M 1159 525 
L 1159 -1331 
L 581 -1331 
L 581 3500 
L 1159 3500 
L 1159 2969 
Q 1341 3281 1617 3432 
Q 1894 3584 2278 3584 
Q 2916 3584 3314 3078 
Q 3713 2572 3713 1747 
Q 3713 922 3314 415 
Q 2916 -91 2278 -91 
Q 1894 -91 1617 61 
Q 1341 213 1159 525 
z
M 3116 1747 
Q 3116 2381 2855 2742 
Q 2594 3103 2138 3103 
Q 1681 3103 1420 2742 
Q 1159 2381 1159 1747 
Q 1159 1113 1420 752 
Q 1681 391 2138 391 
Q 2594 391 2855 752 
Q 3116 1113 3116 1747 
z
" transform="scale(0.015625)"/>
      </defs>
      <use xlink:href="#DejaVuSans-72"/>
      <use xlink:href="#DejaVuSans-65" x="38.863281"/>
      <use xlink:href="#DejaVuSans-6c" x="100.386719"/>
      <use xlink:href="#DejaVuSans-61" x="128.169922"/>
      <use xlink:href="#DejaVuSans-74" x="189.449219"/>
      <use xlink:href="#DejaVuSans-69" x="228.658203"/>
      <use xlink:href="#DejaVuSans-76" x="256.441406"/>
      <use xlink:href="#DejaVuSans-65" x="315.621094"/>
      <use xlink:href="#DejaVuSans-20" x="377.144531"/>
      <use xlink:href="#DejaVuSans-73" x="408.931641"/>
      <use xlink:href="#DejaVuSans-6f" x="461.03125"/>
      <use xlink:href="#DejaVuSans-6c" x="522.212891"/>
      <use xlink:href="#DejaVuSans-75" x="549.996094"/>
      <use xlink:href="#DejaVuSans-74" x="613.375"/>
      <use xlink:href="#DejaVuSans-69" x="652.583984"/>
      <use xlink:href="#DejaVuSans-6f" x="680.367188"/>
      <use xlink:href="#DejaVuSans-6e" x="741.548828"/>
      <use xlink:href="#DejaVuSans-20" x="804.927734"/>
      <use xlink:href="#DejaVuSans-70" x="836.714844"/>
      <use xlink:href="#DejaVuSans-65" x="900.191406"/>
      <use xlink:href="#DejaVuSans-72" x="961.714844"/>
      <use xlink:href="#DejaVuSans-74" x="1002.828125"/>
      <use xlink:href="#DejaVuSans-75" x="1042.037109"/>
      <use xlink:href="#DejaVuSans-72" x="1105.416016"/>
      <use xlink:href="#DejaVuSans-62" x="1146.529297"/>
      <use xlink:href="#DejaVuSans-61" x="1210.005859"/>
      <use xlink:href="#DejaVuSans-74" x="1271.285156"/>
      <use xlink:href="#DejaVuSans-69" x="1310.494141"/>
      <use xlink:href="#DejaVuSans-6f" x="1338.277344"/>
      <use xlink:href="#DejaVuSans-6e" x="1399.458984"/>
     </g>
    </g>
    <g id="line2d_32">
     <path d="M 66.6 69.350125 
L 76.6 69.350125 
L 86.6 69.350125 
" style="fill: none; stroke: #ff7f0e; stroke-width: 1.5; stroke-linecap: square"/>
    </g>
    <g id="text_19">
     <!-- perturbation upper bound ($\kappa_b$*||$\delta$b||/||b||) -->
     <g transform="translate(94.6 72.850125) scale(0.1 -0.1)">
      <defs>
       <path id="DejaVuSans-Oblique-3ba" d="M 938 3500 
L 1531 3500 
L 1247 2047 
L 3041 3500 
L 3741 3500 
L 2106 2181 
L 3275 0 
L 2572 0 
L 1628 1806 
L 1122 1403 
L 850 0 
L 256 0 
L 938 3500 
z
" transform="scale(0.015625)"/>
       <path id="DejaVuSans-Oblique-62" d="M 3169 2138 
Q 3169 2591 2961 2847 
Q 2753 3103 2388 3103 
Q 2122 3103 1889 2973 
Q 1656 2844 1484 2597 
Q 1303 2338 1198 1995 
Q 1094 1653 1094 1313 
Q 1094 881 1298 636 
Q 1503 391 1863 391 
Q 2134 391 2365 517 
Q 2597 644 2772 891 
Q 2950 1147 3059 1487 
Q 3169 1828 3169 2138 
z
M 1381 2969 
Q 1594 3256 1914 3420 
Q 2234 3584 2584 3584 
Q 3122 3584 3439 3221 
Q 3756 2859 3756 2241 
Q 3756 1734 3570 1259 
Q 3384 784 3041 416 
Q 2816 172 2522 40 
Q 2228 -91 1906 -91 
Q 1566 -91 1316 65 
Q 1066 222 909 531 
L 806 0 
L 231 0 
L 1178 4863 
L 1753 4863 
L 1381 2969 
z
" transform="scale(0.015625)"/>
       <path id="DejaVuSans-2a" d="M 3009 3897 
L 1888 3291 
L 3009 2681 
L 2828 2375 
L 1778 3009 
L 1778 1831 
L 1422 1831 
L 1422 3009 
L 372 2375 
L 191 2681 
L 1313 3291 
L 191 3897 
L 372 4206 
L 1422 3572 
L 1422 4750 
L 1778 4750 
L 1778 3572 
L 2828 4206 
L 3009 3897 
z
" transform="scale(0.015625)"/>
      </defs>
      <use xlink:href="#DejaVuSans-70" transform="translate(0 0.578125)"/>
      <use xlink:href="#DejaVuSans-65" transform="translate(63.476562 0.578125)"/>
      <use xlink:href="#DejaVuSans-72" transform="translate(125 0.578125)"/>
      <use xlink:href="#DejaVuSans-74" transform="translate(166.113281 0.578125)"/>
      <use xlink:href="#DejaVuSans-75" transform="translate(205.322266 0.578125)"/>
      <use xlink:href="#DejaVuSans-72" transform="translate(268.701172 0.578125)"/>
      <use xlink:href="#DejaVuSans-62" transform="translate(309.814453 0.578125)"/>
      <use xlink:href="#DejaVuSans-61" transform="translate(373.291016 0.578125)"/>
      <use xlink:href="#DejaVuSans-74" transform="translate(434.570312 0.578125)"/>
      <use xlink:href="#DejaVuSans-69" transform="translate(473.779297 0.578125)"/>
      <use xlink:href="#DejaVuSans-6f" transform="translate(501.5625 0.578125)"/>
      <use xlink:href="#DejaVuSans-6e" transform="translate(562.744141 0.578125)"/>
      <use xlink:href="#DejaVuSans-20" transform="translate(626.123047 0.578125)"/>
      <use xlink:href="#DejaVuSans-75" transform="translate(657.910156 0.578125)"/>
      <use xlink:href="#DejaVuSans-70" transform="translate(721.289062 0.578125)"/>
      <use xlink:href="#DejaVuSans-70" transform="translate(784.765625 0.578125)"/>
      <use xlink:href="#DejaVuSans-65" transform="translate(848.242188 0.578125)"/>
      <use xlink:href="#DejaVuSans-72" transform="translate(909.765625 0.578125)"/>
      <use xlink:href="#DejaVuSans-20" transform="translate(950.878906 0.578125)"/>
      <use xlink:href="#DejaVuSans-62" transform="translate(982.666016 0.578125)"/>
      <use xlink:href="#DejaVuSans-6f" transform="translate(1046.142578 0.578125)"/>
      <use xlink:href="#DejaVuSans-75" transform="translate(1107.324219 0.578125)"/>
      <use xlink:href="#DejaVuSans-6e" transform="translate(1170.703125 0.578125)"/>
      <use xlink:href="#DejaVuSans-64" transform="translate(1234.082031 0.578125)"/>
      <use xlink:href="#DejaVuSans-20" transform="translate(1297.558594 0.578125)"/>
      <use xlink:href="#DejaVuSans-28" transform="translate(1329.345703 0.578125)"/>
      <use xlink:href="#DejaVuSans-Oblique-3ba" transform="translate(1368.359375 0.578125)"/>
      <use xlink:href="#DejaVuSans-Oblique-62" transform="translate(1427.294922 -15.828125) scale(0.7)"/>
      <use xlink:href="#DejaVuSans-2a" transform="translate(1474.462891 0.578125)"/>
      <use xlink:href="#DejaVuSans-7c" transform="translate(1524.462891 0.578125)"/>
      <use xlink:href="#DejaVuSans-7c" transform="translate(1558.154297 0.578125)"/>
      <use xlink:href="#DejaVuSans-Oblique-3b4" transform="translate(1591.845703 0.578125)"/>
      <use xlink:href="#DejaVuSans-62" transform="translate(1653.027344 0.578125)"/>
      <use xlink:href="#DejaVuSans-7c" transform="translate(1716.503906 0.578125)"/>
      <use xlink:href="#DejaVuSans-7c" transform="translate(1750.195312 0.578125)"/>
      <use xlink:href="#DejaVuSans-2f" transform="translate(1783.886719 0.578125)"/>
      <use xlink:href="#DejaVuSans-7c" transform="translate(1817.578125 0.578125)"/>
      <use xlink:href="#DejaVuSans-7c" transform="translate(1851.269531 0.578125)"/>
      <use xlink:href="#DejaVuSans-62" transform="translate(1884.960938 0.578125)"/>
      <use xlink:href="#DejaVuSans-7c" transform="translate(1948.4375 0.578125)"/>
      <use xlink:href="#DejaVuSans-7c" transform="translate(1982.128906 0.578125)"/>
      <use xlink:href="#DejaVuSans-29" transform="translate(2015.820312 0.578125)"/>
     </g>
    </g>
   </g>
  </g>
 </g>
 <defs>
  <clipPath id="p222ac49522">
   <rect x="57.6" y="41.472" width="357.12" height="266.112"/>
  </clipPath>
 </defs>
</svg>
