<?xml version="1.0" encoding="utf-8" standalone="no"?>
<!DOCTYPE svg PUBLIC "-//W3C//DTD SVG 1.1//EN"
  "http://www.w3.org/Graphics/SVG/1.1/DTD/svg11.dtd">
<svg xmlns:xlink="http://www.w3.org/1999/xlink" width="460.8pt" height="345.6pt" viewBox="0 0 460.8 345.6" xmlns="http://www.w3.org/2000/svg" version="1.1">
 <metadata>
  <rdf:RDF xmlns:dc="http://purl.org/dc/elements/1.1/" xmlns:cc="http://creativecommons.org/ns#" xmlns:rdf="http://www.w3.org/1999/02/22-rdf-syntax-ns#">
   <cc:Work>
    <dc:type rdf:resource="http://purl.org/dc/dcmitype/StillImage"/>
    <dc:date>2024-03-11T11:02:56.161759</dc:date>
    <dc:format>image/svg+xml</dc:format>
    <dc:creator>
     <cc:Agent>
      <dc:title>Matplotlib v3.8.0, https://matplotlib.org/</dc:title>
     </cc:Agent>
    </dc:creator>
   </cc:Work>
  </rdf:RDF>
 </metadata>
 <defs>
  <style type="text/css">*{stroke-linejoin: round; stroke-linecap: butt}</style>
 </defs>
 <g id="figure_1">
  <g id="patch_1">
   <path d="M 0 345.6 
L 460.8 345.6 
L 460.8 0 
L 0 0 
z
" style="fill: #ffffff"/>
  </g>
  <g id="axes_1">
   <g id="patch_2">
    <path d="M 57.6 307.584 
L 414.72 307.584 
L 414.72 41.472 
L 57.6 41.472 
z
" style="fill: #ffffff"/>
   </g>
   <g id="matplotlib.axis_1">
    <g id="xtick_1">
     <g id="line2d_1">
      <path d="M 88.057539 307.584 
L 88.057539 41.472 
" clip-path="url(#p08bb709743)" style="fill: none; stroke: #b0b0b0; stroke-width: 0.8; stroke-linecap: square"/>
     </g>
     <g id="line2d_2">
      <defs>
       <path id="m8d207eb9b2" d="M 0 0 
L 0 3.5 
" style="stroke: #000000; stroke-width: 0.8"/>
      </defs>
      <g>
       <use xlink:href="#m8d207eb9b2" x="88.057539" y="307.584" style="stroke: #000000; stroke-width: 0.8"/>
      </g>
     </g>
     <g id="text_1">
      <!-- $\mathdefault{10^{-12}}$ -->
      <g transform="translate(74.107539 322.182437) scale(0.1 -0.1)">
       <defs>
        <path id="DejaVuSans-31" d="M 794 531 
L 1825 531 
L 1825 4091 
L 703 3866 
L 703 4441 
L 1819 4666 
L 2450 4666 
L 2450 531 
L 3481 531 
L 3481 0 
L 794 0 
L 794 531 
z
" transform="scale(0.015625)"/>
        <path id="DejaVuSans-30" d="M 2034 4250 
Q 1547 4250 1301 3770 
Q 1056 3291 1056 2328 
Q 1056 1369 1301 889 
Q 1547 409 2034 409 
Q 2525 409 2770 889 
Q 3016 1369 3016 2328 
Q 3016 3291 2770 3770 
Q 2525 4250 2034 4250 
z
M 2034 4750 
Q 2819 4750 3233 4129 
Q 3647 3509 3647 2328 
Q 3647 1150 3233 529 
Q 2819 -91 2034 -91 
Q 1250 -91 836 529 
Q 422 1150 422 2328 
Q 422 3509 836 4129 
Q 1250 4750 2034 4750 
z
" transform="scale(0.015625)"/>
        <path id="DejaVuSans-2212" d="M 678 2272 
L 4684 2272 
L 4684 1741 
L 678 1741 
L 678 2272 
z
" transform="scale(0.015625)"/>
        <path id="DejaVuSans-32" d="M 1228 531 
L 3431 531 
L 3431 0 
L 469 0 
L 469 531 
Q 828 903 1448 1529 
Q 2069 2156 2228 2338 
Q 2531 2678 2651 2914 
Q 2772 3150 2772 3378 
Q 2772 3750 2511 3984 
Q 2250 4219 1831 4219 
Q 1534 4219 1204 4116 
Q 875 4013 500 3803 
L 500 4441 
Q 881 4594 1212 4672 
Q 1544 4750 1819 4750 
Q 2544 4750 2975 4387 
Q 3406 4025 3406 3419 
Q 3406 3131 3298 2873 
Q 3191 2616 2906 2266 
Q 2828 2175 2409 1742 
Q 1991 1309 1228 531 
z
" transform="scale(0.015625)"/>
       </defs>
       <use xlink:href="#DejaVuSans-31" transform="translate(0 0.765625)"/>
       <use xlink:href="#DejaVuSans-30" transform="translate(63.623047 0.765625)"/>
       <use xlink:href="#DejaVuSans-2212" transform="translate(128.203125 39.046875) scale(0.7)"/>
       <use xlink:href="#DejaVuSans-31" transform="translate(186.855469 39.046875) scale(0.7)"/>
       <use xlink:href="#DejaVuSans-32" transform="translate(231.391602 39.046875) scale(0.7)"/>
      </g>
     </g>
    </g>
    <g id="xtick_2">
     <g id="line2d_3">
      <path d="M 139.448872 307.584 
L 139.448872 41.472 
" clip-path="url(#p08bb709743)" style="fill: none; stroke: #b0b0b0; stroke-width: 0.8; stroke-linecap: square"/>
     </g>
     <g id="line2d_4">
      <g>
       <use xlink:href="#m8d207eb9b2" x="139.448872" y="307.584" style="stroke: #000000; stroke-width: 0.8"/>
      </g>
     </g>
     <g id="text_2">
      <!-- $\mathdefault{10^{-10}}$ -->
      <g transform="translate(125.498872 322.182437) scale(0.1 -0.1)">
       <use xlink:href="#DejaVuSans-31" transform="translate(0 0.765625)"/>
       <use xlink:href="#DejaVuSans-30" transform="translate(63.623047 0.765625)"/>
       <use xlink:href="#DejaVuSans-2212" transform="translate(128.203125 39.046875) scale(0.7)"/>
       <use xlink:href="#DejaVuSans-31" transform="translate(186.855469 39.046875) scale(0.7)"/>
       <use xlink:href="#DejaVuSans-30" transform="translate(231.391602 39.046875) scale(0.7)"/>
      </g>
     </g>
    </g>
    <g id="xtick_3">
     <g id="line2d_5">
      <path d="M 190.840205 307.584 
L 190.840205 41.472 
" clip-path="url(#p08bb709743)" style="fill: none; stroke: #b0b0b0; stroke-width: 0.8; stroke-linecap: square"/>
     </g>
     <g id="line2d_6">
      <g>
       <use xlink:href="#m8d207eb9b2" x="190.840205" y="307.584" style="stroke: #000000; stroke-width: 0.8"/>
      </g>
     </g>
     <g id="text_3">
      <!-- $\mathdefault{10^{-8}}$ -->
      <g transform="translate(179.090205 322.182437) scale(0.1 -0.1)">
       <defs>
        <path id="DejaVuSans-38" d="M 2034 2216 
Q 1584 2216 1326 1975 
Q 1069 1734 1069 1313 
Q 1069 891 1326 650 
Q 1584 409 2034 409 
Q 2484 409 2743 651 
Q 3003 894 3003 1313 
Q 3003 1734 2745 1975 
Q 2488 2216 2034 2216 
z
M 1403 2484 
Q 997 2584 770 2862 
Q 544 3141 544 3541 
Q 544 4100 942 4425 
Q 1341 4750 2034 4750 
Q 2731 4750 3128 4425 
Q 3525 4100 3525 3541 
Q 3525 3141 3298 2862 
Q 3072 2584 2669 2484 
Q 3125 2378 3379 2068 
Q 3634 1759 3634 1313 
Q 3634 634 3220 271 
Q 2806 -91 2034 -91 
Q 1263 -91 848 271 
Q 434 634 434 1313 
Q 434 1759 690 2068 
Q 947 2378 1403 2484 
z
M 1172 3481 
Q 1172 3119 1398 2916 
Q 1625 2713 2034 2713 
Q 2441 2713 2670 2916 
Q 2900 3119 2900 3481 
Q 2900 3844 2670 4047 
Q 2441 4250 2034 4250 
Q 1625 4250 1398 4047 
Q 1172 3844 1172 3481 
z
" transform="scale(0.015625)"/>
       </defs>
       <use xlink:href="#DejaVuSans-31" transform="translate(0 0.765625)"/>
       <use xlink:href="#DejaVuSans-30" transform="translate(63.623047 0.765625)"/>
       <use xlink:href="#DejaVuSans-2212" transform="translate(128.203125 39.046875) scale(0.7)"/>
       <use xlink:href="#DejaVuSans-38" transform="translate(186.855469 39.046875) scale(0.7)"/>
      </g>
     </g>
    </g>
    <g id="xtick_4">
     <g id="line2d_7">
      <path d="M 242.231538 307.584 
L 242.231538 41.472 
" clip-path="url(#p08bb709743)" style="fill: none; stroke: #b0b0b0; stroke-width: 0.8; stroke-linecap: square"/>
     </g>
     <g id="line2d_8">
      <g>
       <use xlink:href="#m8d207eb9b2" x="242.231538" y="307.584" style="stroke: #000000; stroke-width: 0.8"/>
      </g>
     </g>
     <g id="text_4">
      <!-- $\mathdefault{10^{-6}}$ -->
      <g transform="translate(230.481538 322.182437) scale(0.1 -0.1)">
       <defs>
        <path id="DejaVuSans-36" d="M 2113 2584 
Q 1688 2584 1439 2293 
Q 1191 2003 1191 1497 
Q 1191 994 1439 701 
Q 1688 409 2113 409 
Q 2538 409 2786 701 
Q 3034 994 3034 1497 
Q 3034 2003 2786 2293 
Q 2538 2584 2113 2584 
z
M 3366 4563 
L 3366 3988 
Q 3128 4100 2886 4159 
Q 2644 4219 2406 4219 
Q 1781 4219 1451 3797 
Q 1122 3375 1075 2522 
Q 1259 2794 1537 2939 
Q 1816 3084 2150 3084 
Q 2853 3084 3261 2657 
Q 3669 2231 3669 1497 
Q 3669 778 3244 343 
Q 2819 -91 2113 -91 
Q 1303 -91 875 529 
Q 447 1150 447 2328 
Q 447 3434 972 4092 
Q 1497 4750 2381 4750 
Q 2619 4750 2861 4703 
Q 3103 4656 3366 4563 
z
" transform="scale(0.015625)"/>
       </defs>
       <use xlink:href="#DejaVuSans-31" transform="translate(0 0.765625)"/>
       <use xlink:href="#DejaVuSans-30" transform="translate(63.623047 0.765625)"/>
       <use xlink:href="#DejaVuSans-2212" transform="translate(128.203125 39.046875) scale(0.7)"/>
       <use xlink:href="#DejaVuSans-36" transform="translate(186.855469 39.046875) scale(0.7)"/>
      </g>
     </g>
    </g>
    <g id="xtick_5">
     <g id="line2d_9">
      <path d="M 293.622871 307.584 
L 293.622871 41.472 
" clip-path="url(#p08bb709743)" style="fill: none; stroke: #b0b0b0; stroke-width: 0.8; stroke-linecap: square"/>
     </g>
     <g id="line2d_10">
      <g>
       <use xlink:href="#m8d207eb9b2" x="293.622871" y="307.584" style="stroke: #000000; stroke-width: 0.8"/>
      </g>
     </g>
     <g id="text_5">
      <!-- $\mathdefault{10^{-4}}$ -->
      <g transform="translate(281.872871 322.182437) scale(0.1 -0.1)">
       <defs>
        <path id="DejaVuSans-34" d="M 2419 4116 
L 825 1625 
L 2419 1625 
L 2419 4116 
z
M 2253 4666 
L 3047 4666 
L 3047 1625 
L 3713 1625 
L 3713 1100 
L 3047 1100 
L 3047 0 
L 2419 0 
L 2419 1100 
L 313 1100 
L 313 1709 
L 2253 4666 
z
" transform="scale(0.015625)"/>
       </defs>
       <use xlink:href="#DejaVuSans-31" transform="translate(0 0.684375)"/>
       <use xlink:href="#DejaVuSans-30" transform="translate(63.623047 0.684375)"/>
       <use xlink:href="#DejaVuSans-2212" transform="translate(128.203125 38.965625) scale(0.7)"/>
       <use xlink:href="#DejaVuSans-34" transform="translate(186.855469 38.965625) scale(0.7)"/>
      </g>
     </g>
    </g>
    <g id="xtick_6">
     <g id="line2d_11">
      <path d="M 345.014204 307.584 
L 345.014204 41.472 
" clip-path="url(#p08bb709743)" style="fill: none; stroke: #b0b0b0; stroke-width: 0.8; stroke-linecap: square"/>
     </g>
     <g id="line2d_12">
      <g>
       <use xlink:href="#m8d207eb9b2" x="345.014204" y="307.584" style="stroke: #000000; stroke-width: 0.8"/>
      </g>
     </g>
     <g id="text_6">
      <!-- $\mathdefault{10^{-2}}$ -->
      <g transform="translate(333.264204 322.182437) scale(0.1 -0.1)">
       <use xlink:href="#DejaVuSans-31" transform="translate(0 0.765625)"/>
       <use xlink:href="#DejaVuSans-30" transform="translate(63.623047 0.765625)"/>
       <use xlink:href="#DejaVuSans-2212" transform="translate(128.203125 39.046875) scale(0.7)"/>
       <use xlink:href="#DejaVuSans-32" transform="translate(186.855469 39.046875) scale(0.7)"/>
      </g>
     </g>
    </g>
    <g id="xtick_7">
     <g id="line2d_13">
      <path d="M 396.405537 307.584 
L 396.405537 41.472 
" clip-path="url(#p08bb709743)" style="fill: none; stroke: #b0b0b0; stroke-width: 0.8; stroke-linecap: square"/>
     </g>
     <g id="line2d_14">
      <g>
       <use xlink:href="#m8d207eb9b2" x="396.405537" y="307.584" style="stroke: #000000; stroke-width: 0.8"/>
      </g>
     </g>
     <g id="text_7">
      <!-- $\mathdefault{10^{0}}$ -->
      <g transform="translate(387.605537 322.182437) scale(0.1 -0.1)">
       <use xlink:href="#DejaVuSans-31" transform="translate(0 0.765625)"/>
       <use xlink:href="#DejaVuSans-30" transform="translate(63.623047 0.765625)"/>
       <use xlink:href="#DejaVuSans-30" transform="translate(128.203125 39.046875) scale(0.7)"/>
      </g>
     </g>
    </g>
    <g id="text_8">
     <!-- ||$\delta$b||/||b|| -->
     <g transform="translate(211.56 335.962125) scale(0.1 -0.1)">
      <defs>
       <path id="DejaVuSans-7c" d="M 1344 4891 
L 1344 -1509 
L 813 -1509 
L 813 4891 
L 1344 4891 
z
" transform="scale(0.015625)"/>
       <path id="DejaVuSans-Oblique-3b4" d="M 3472 4053 
Q 3197 4272 2450 4272 
Q 1659 4272 1588 3906 
Q 1531 3619 2328 3469 
Q 2953 3353 3253 3003 
Q 3616 2581 3447 1716 
Q 3284 888 2763 400 
Q 2238 -91 1488 -91 
Q 741 -91 406 400 
Q 72 888 241 1747 
Q 363 2384 891 2900 
Q 1097 3100 1353 3213 
Q 913 3459 1000 3900 
Q 1166 4750 2544 4750 
Q 3234 4750 3566 4531 
L 3472 4053 
z
M 1753 3056 
Q 1525 2966 1306 2738 
Q 969 2384 847 1747 
Q 722 1113 919 756 
Q 1119 397 1584 397 
Q 2044 397 2381 759 
Q 2722 1122 2838 1716 
Q 2956 2338 2731 2638 
Q 2491 2959 2103 2994 
Q 1906 3013 1753 3056 
z
" transform="scale(0.015625)"/>
       <path id="DejaVuSans-62" d="M 3116 1747 
Q 3116 2381 2855 2742 
Q 2594 3103 2138 3103 
Q 1681 3103 1420 2742 
Q 1159 2381 1159 1747 
Q 1159 1113 1420 752 
Q 1681 391 2138 391 
Q 2594 391 2855 752 
Q 3116 1113 3116 1747 
z
M 1159 2969 
Q 1341 3281 1617 3432 
Q 1894 3584 2278 3584 
Q 2916 3584 3314 3078 
Q 3713 2572 3713 1747 
Q 3713 922 3314 415 
Q 2916 -91 2278 -91 
Q 1894 -91 1617 61 
Q 1341 213 1159 525 
L 1159 0 
L 581 0 
L 581 4863 
L 1159 4863 
L 1159 2969 
z
" transform="scale(0.015625)"/>
       <path id="DejaVuSans-2f" d="M 1625 4666 
L 2156 4666 
L 531 -594 
L 0 -594 
L 1625 4666 
z
" transform="scale(0.015625)"/>
      </defs>
      <use xlink:href="#DejaVuSans-7c" transform="translate(0 0.578125)"/>
      <use xlink:href="#DejaVuSans-7c" transform="translate(33.691406 0.578125)"/>
      <use xlink:href="#DejaVuSans-Oblique-3b4" transform="translate(67.382812 0.578125)"/>
      <use xlink:href="#DejaVuSans-62" transform="translate(128.564453 0.578125)"/>
      <use xlink:href="#DejaVuSans-7c" transform="translate(192.041016 0.578125)"/>
      <use xlink:href="#DejaVuSans-7c" transform="translate(225.732422 0.578125)"/>
      <use xlink:href="#DejaVuSans-2f" transform="translate(259.423828 0.578125)"/>
      <use xlink:href="#DejaVuSans-7c" transform="translate(293.115234 0.578125)"/>
      <use xlink:href="#DejaVuSans-7c" transform="translate(326.806641 0.578125)"/>
      <use xlink:href="#DejaVuSans-62" transform="translate(360.498047 0.578125)"/>
      <use xlink:href="#DejaVuSans-7c" transform="translate(423.974609 0.578125)"/>
      <use xlink:href="#DejaVuSans-7c" transform="translate(457.666016 0.578125)"/>
     </g>
    </g>
   </g>
   <g id="matplotlib.axis_2">
    <g id="ytick_1">
     <g id="line2d_15">
      <path d="M 57.6 288.6897 
L 414.72 288.6897 
" clip-path="url(#p08bb709743)" style="fill: none; stroke: #b0b0b0; stroke-width: 0.8; stroke-linecap: square"/>
     </g>
     <g id="line2d_16">
      <defs>
       <path id="m3a904d3ca4" d="M 0 0 
L -3.5 0 
" style="stroke: #000000; stroke-width: 0.8"/>
      </defs>
      <g>
       <use xlink:href="#m3a904d3ca4" x="57.6" y="288.6897" style="stroke: #000000; stroke-width: 0.8"/>
      </g>
     </g>
     <g id="text_9">
      <!-- $\mathdefault{10^{-12}}$ -->
      <g transform="translate(22.7 292.488919) scale(0.1 -0.1)">
       <use xlink:href="#DejaVuSans-31" transform="translate(0 0.765625)"/>
       <use xlink:href="#DejaVuSans-30" transform="translate(63.623047 0.765625)"/>
       <use xlink:href="#DejaVuSans-2212" transform="translate(128.203125 39.046875) scale(0.7)"/>
       <use xlink:href="#DejaVuSans-31" transform="translate(186.855469 39.046875) scale(0.7)"/>
       <use xlink:href="#DejaVuSans-32" transform="translate(231.391602 39.046875) scale(0.7)"/>
      </g>
     </g>
    </g>
    <g id="ytick_2">
     <g id="line2d_17">
      <path d="M 57.6 251.597661 
L 414.72 251.597661 
" clip-path="url(#p08bb709743)" style="fill: none; stroke: #b0b0b0; stroke-width: 0.8; stroke-linecap: square"/>
     </g>
     <g id="line2d_18">
      <g>
       <use xlink:href="#m3a904d3ca4" x="57.6" y="251.597661" style="stroke: #000000; stroke-width: 0.8"/>
      </g>
     </g>
     <g id="text_10">
      <!-- $\mathdefault{10^{-10}}$ -->
      <g transform="translate(22.7 255.39688) scale(0.1 -0.1)">
       <use xlink:href="#DejaVuSans-31" transform="translate(0 0.765625)"/>
       <use xlink:href="#DejaVuSans-30" transform="translate(63.623047 0.765625)"/>
       <use xlink:href="#DejaVuSans-2212" transform="translate(128.203125 39.046875) scale(0.7)"/>
       <use xlink:href="#DejaVuSans-31" transform="translate(186.855469 39.046875) scale(0.7)"/>
       <use xlink:href="#DejaVuSans-30" transform="translate(231.391602 39.046875) scale(0.7)"/>
      </g>
     </g>
    </g>
    <g id="ytick_3">
     <g id="line2d_19">
      <path d="M 57.6 214.505623 
L 414.72 214.505623 
" clip-path="url(#p08bb709743)" style="fill: none; stroke: #b0b0b0; stroke-width: 0.8; stroke-linecap: square"/>
     </g>
     <g id="line2d_20">
      <g>
       <use xlink:href="#m3a904d3ca4" x="57.6" y="214.505623" style="stroke: #000000; stroke-width: 0.8"/>
      </g>
     </g>
     <g id="text_11">
      <!-- $\mathdefault{10^{-8}}$ -->
      <g transform="translate(27.1 218.304841) scale(0.1 -0.1)">
       <use xlink:href="#DejaVuSans-31" transform="translate(0 0.765625)"/>
       <use xlink:href="#DejaVuSans-30" transform="translate(63.623047 0.765625)"/>
       <use xlink:href="#DejaVuSans-2212" transform="translate(128.203125 39.046875) scale(0.7)"/>
       <use xlink:href="#DejaVuSans-38" transform="translate(186.855469 39.046875) scale(0.7)"/>
      </g>
     </g>
    </g>
    <g id="ytick_4">
     <g id="line2d_21">
      <path d="M 57.6 177.413584 
L 414.72 177.413584 
" clip-path="url(#p08bb709743)" style="fill: none; stroke: #b0b0b0; stroke-width: 0.8; stroke-linecap: square"/>
     </g>
     <g id="line2d_22">
      <g>
       <use xlink:href="#m3a904d3ca4" x="57.6" y="177.413584" style="stroke: #000000; stroke-width: 0.8"/>
      </g>
     </g>
     <g id="text_12">
      <!-- $\mathdefault{10^{-6}}$ -->
      <g transform="translate(27.1 181.212803) scale(0.1 -0.1)">
       <use xlink:href="#DejaVuSans-31" transform="translate(0 0.765625)"/>
       <use xlink:href="#DejaVuSans-30" transform="translate(63.623047 0.765625)"/>
       <use xlink:href="#DejaVuSans-2212" transform="translate(128.203125 39.046875) scale(0.7)"/>
       <use xlink:href="#DejaVuSans-36" transform="translate(186.855469 39.046875) scale(0.7)"/>
      </g>
     </g>
    </g>
    <g id="ytick_5">
     <g id="line2d_23">
      <path d="M 57.6 140.321545 
L 414.72 140.321545 
" clip-path="url(#p08bb709743)" style="fill: none; stroke: #b0b0b0; stroke-width: 0.8; stroke-linecap: square"/>
     </g>
     <g id="line2d_24">
      <g>
       <use xlink:href="#m3a904d3ca4" x="57.6" y="140.321545" style="stroke: #000000; stroke-width: 0.8"/>
      </g>
     </g>
     <g id="text_13">
      <!-- $\mathdefault{10^{-4}}$ -->
      <g transform="translate(27.1 144.120764) scale(0.1 -0.1)">
       <use xlink:href="#DejaVuSans-31" transform="translate(0 0.684375)"/>
       <use xlink:href="#DejaVuSans-30" transform="translate(63.623047 0.684375)"/>
       <use xlink:href="#DejaVuSans-2212" transform="translate(128.203125 38.965625) scale(0.7)"/>
       <use xlink:href="#DejaVuSans-34" transform="translate(186.855469 38.965625) scale(0.7)"/>
      </g>
     </g>
    </g>
    <g id="ytick_6">
     <g id="line2d_25">
      <path d="M 57.6 103.229507 
L 414.72 103.229507 
" clip-path="url(#p08bb709743)" style="fill: none; stroke: #b0b0b0; stroke-width: 0.8; stroke-linecap: square"/>
     </g>
     <g id="line2d_26">
      <g>
       <use xlink:href="#m3a904d3ca4" x="57.6" y="103.229507" style="stroke: #000000; stroke-width: 0.8"/>
      </g>
     </g>
     <g id="text_14">
      <!-- $\mathdefault{10^{-2}}$ -->
      <g transform="translate(27.1 107.028725) scale(0.1 -0.1)">
       <use xlink:href="#DejaVuSans-31" transform="translate(0 0.765625)"/>
       <use xlink:href="#DejaVuSans-30" transform="translate(63.623047 0.765625)"/>
       <use xlink:href="#DejaVuSans-2212" transform="translate(128.203125 39.046875) scale(0.7)"/>
       <use xlink:href="#DejaVuSans-32" transform="translate(186.855469 39.046875) scale(0.7)"/>
      </g>
     </g>
    </g>
    <g id="ytick_7">
     <g id="line2d_27">
      <path d="M 57.6 66.137468 
L 414.72 66.137468 
" clip-path="url(#p08bb709743)" style="fill: none; stroke: #b0b0b0; stroke-width: 0.8; stroke-linecap: square"/>
     </g>
     <g id="line2d_28">
      <g>
       <use xlink:href="#m3a904d3ca4" x="57.6" y="66.137468" style="stroke: #000000; stroke-width: 0.8"/>
      </g>
     </g>
     <g id="text_15">
      <!-- $\mathdefault{10^{0}}$ -->
      <g transform="translate(33 69.936687) scale(0.1 -0.1)">
       <use xlink:href="#DejaVuSans-31" transform="translate(0 0.765625)"/>
       <use xlink:href="#DejaVuSans-30" transform="translate(63.623047 0.765625)"/>
       <use xlink:href="#DejaVuSans-30" transform="translate(128.203125 39.046875) scale(0.7)"/>
      </g>
     </g>
    </g>
    <g id="text_16">
     <!-- ||$\delta$x||/||x|| -->
     <g transform="translate(16.3 198.678) rotate(-90) scale(0.1 -0.1)">
      <defs>
       <path id="DejaVuSans-78" d="M 3513 3500 
L 2247 1797 
L 3578 0 
L 2900 0 
L 1881 1375 
L 863 0 
L 184 0 
L 1544 1831 
L 300 3500 
L 978 3500 
L 1906 2253 
L 2834 3500 
L 3513 3500 
z
" transform="scale(0.015625)"/>
      </defs>
      <use xlink:href="#DejaVuSans-7c" transform="translate(0 0.578125)"/>
      <use xlink:href="#DejaVuSans-7c" transform="translate(33.691406 0.578125)"/>
      <use xlink:href="#DejaVuSans-Oblique-3b4" transform="translate(67.382812 0.578125)"/>
      <use xlink:href="#DejaVuSans-78" transform="translate(128.564453 0.578125)"/>
      <use xlink:href="#DejaVuSans-7c" transform="translate(187.744141 0.578125)"/>
      <use xlink:href="#DejaVuSans-7c" transform="translate(221.435547 0.578125)"/>
      <use xlink:href="#DejaVuSans-2f" transform="translate(255.126953 0.578125)"/>
      <use xlink:href="#DejaVuSans-7c" transform="translate(288.818359 0.578125)"/>
      <use xlink:href="#DejaVuSans-7c" transform="translate(322.509766 0.578125)"/>
      <use xlink:href="#DejaVuSans-78" transform="translate(356.201172 0.578125)"/>
      <use xlink:href="#DejaVuSans-7c" transform="translate(415.380859 0.578125)"/>
      <use xlink:href="#DejaVuSans-7c" transform="translate(449.072266 0.578125)"/>
     </g>
    </g>
   </g>
   <g id="line2d_29">
    <path d="M 73.832727 295.488 
L 82.043879 290.135321 
L 82.780703 285.058856 
L 85.306997 286.998882 
L 85.872571 281.22441 
L 86.454974 289.488134 
L 86.584553 286.950539 
L 87.211642 279.84362 
L 87.721257 286.373237 
L 88.783006 278.008525 
L 88.929254 285.239741 
L 89.02449 278.595782 
L 89.320876 288.640048 
L 89.415535 284.272749 
L 90.320939 293.024407 
L 90.456563 278.984692 
L 91.041366 291.134584 
L 91.201042 284.019025 
L 91.335162 283.392607 
L 91.342268 276.211799 
L 91.401621 277.021763 
L 92.669396 275.495853 
L 92.719578 286.202975 
L 92.954762 275.108138 
L 93.070911 274.871926 
L 93.421405 284.003424 
L 95.043897 279.637938 
L 95.110088 278.038633 
L 95.140245 288.812567 
L 95.530408 285.968396 
L 96.183848 288.578955 
L 96.431665 273.047758 
L 96.513784 277.143389 
L 96.786 274.617052 
L 97.046471 279.289039 
L 97.426812 277.910433 
L 97.446911 274.407955 
L 97.832332 277.891489 
L 98.067543 275.508175 
L 99.274522 271.336461 
L 100.602541 277.776287 
L 100.784378 283.406142 
L 100.847467 281.568644 
L 100.883504 271.389328 
L 101.183305 284.956469 
L 101.497845 273.866127 
L 101.586106 277.315437 
L 102.635542 278.172781 
L 102.775814 275.366475 
L 102.796685 271.167222 
L 102.803695 274.076231 
L 102.929046 277.017615 
L 103.332382 281.625955 
L 103.519889 275.654987 
L 103.868986 277.407024 
L 104.090137 281.95492 
L 104.345751 282.100887 
L 104.77481 280.15115 
L 105.133748 275.582688 
L 105.54747 282.045531 
L 105.665532 275.718396 
L 105.954689 266.660477 
L 106.166696 281.343873 
L 106.239402 275.116869 
L 106.678542 281.225235 
L 106.755996 270.467541 
L 107.147645 274.324714 
L 107.443779 270.525754 
L 108.809762 263.823717 
L 109.502169 267.930962 
L 109.613647 264.831672 
L 109.944014 274.923431 
L 110.100104 269.764828 
L 110.609621 262.2846 
L 110.980785 271.697516 
L 111.434255 267.649897 
L 111.769634 261.991513 
L 111.856063 265.375236 
L 111.872539 263.000311 
L 112.162543 268.106767 
L 112.246034 272.220967 
L 112.429255 268.907854 
L 112.639382 261.156966 
L 113.125504 270.664838 
L 113.155011 276.181024 
L 113.440523 273.446545 
L 114.467565 265.628191 
L 114.718123 269.525383 
L 114.755694 261.983993 
L 115.265804 260.687706 
L 115.350719 267.866264 
L 115.615751 258.843019 
L 115.649642 274.546519 
L 115.882876 258.632333 
L 116.554978 271.592756 
L 116.91395 261.242451 
L 117.385891 258.620658 
L 117.3859 273.32308 
L 117.41631 258.342725 
L 117.534705 258.262793 
L 117.749654 271.228693 
L 118.656676 267.974479 
L 119.598295 255.939486 
L 119.640537 257.250015 
L 120.502197 259.692712 
L 120.572852 268.942464 
L 121.416866 270.578119 
L 121.63619 269.739943 
L 121.722023 269.867563 
L 122.328638 264.055005 
L 123.101418 260.227448 
L 123.209471 254.12418 
L 124.009726 254.749348 
L 124.246852 261.682898 
L 124.54113 252.520874 
L 124.77247 256.736792 
L 125.16705 257.522033 
L 125.410883 267.573954 
L 126.310316 252.918328 
L 126.631896 264.227814 
L 126.690898 258.398 
L 127.281848 253.655236 
L 127.362653 264.505707 
L 127.404153 254.054933 
L 127.602521 251.209419 
L 127.898412 255.921926 
L 128.752754 251.040841 
L 129.745101 252.571449 
L 129.792479 257.748139 
L 130.219754 255.445738 
L 130.526292 259.477533 
L 130.890495 251.853622 
L 131.035262 252.179155 
L 131.292272 261.125517 
L 131.485393 247.850775 
L 131.698942 256.566724 
L 131.966802 249.799759 
L 132.184306 262.609141 
L 132.220901 246.826767 
L 132.231598 255.05525 
L 132.783592 247.348873 
L 132.836526 257.007258 
L 133.275898 247.930159 
L 133.373623 253.57041 
L 133.71502 250.934946 
L 134.077873 255.588425 
L 134.335553 261.107383 
L 134.638117 244.931398 
L 136.287775 253.099339 
L 137.590862 243.97265 
L 137.656412 252.029813 
L 137.994098 244.840353 
L 138.126057 257.973729 
L 138.22066 254.775038 
L 138.234847 246.78468 
L 138.534011 244.050539 
L 140.655833 255.808577 
L 141.306166 256.157206 
L 141.674207 251.939765 
L 141.978056 243.67571 
L 142.206589 240.78988 
L 142.255185 241.275813 
L 142.454782 248.897799 
L 142.646024 247.356168 
L 142.767103 240.328751 
L 142.792483 241.04445 
L 142.847994 252.682111 
L 143.272302 247.729339 
L 143.34095 239.0934 
L 143.438257 240.923142 
L 143.540408 240.318127 
L 144.010008 240.090425 
L 144.098271 253.664734 
L 144.490329 242.457195 
L 144.740538 251.280366 
L 144.959124 252.490095 
L 145.353415 253.243673 
L 145.354114 243.515808 
L 145.532318 245.379816 
L 146.020943 236.611327 
L 146.344174 246.670358 
L 147.205789 235.886489 
L 148.227705 239.436981 
L 148.283951 236.025189 
L 149.041568 234.705174 
L 149.112282 250.041995 
L 149.297699 240.03948 
L 149.998285 237.306045 
L 150.525541 240.040745 
L 150.723971 234.216941 
L 150.74059 234.674996 
L 151.021437 234.068411 
L 152.294384 246.527361 
L 152.68991 233.678036 
L 152.904671 234.206531 
L 153.474203 241.85941 
L 153.794343 232.151417 
L 154.570486 246.563591 
L 154.640834 236.832211 
L 154.853466 231.699213 
L 155.27326 233.794494 
L 155.495297 230.37706 
L 156.220225 243.692956 
L 156.329412 229.161033 
L 156.514717 233.554637 
L 156.650201 244.953669 
L 156.810206 230.050955 
L 157.327377 242.982481 
L 157.680289 235.970321 
L 158.31132 236.84072 
L 158.31927 233.228804 
L 158.399013 235.006401 
L 159.048964 227.738946 
L 159.189021 229.1177 
L 159.317208 228.32365 
L 159.54806 240.078929 
L 159.791747 234.827505 
L 160.450053 242.171741 
L 160.645257 232.162894 
L 160.866347 237.037103 
L 161.815954 232.850872 
L 161.880322 226.279688 
L 162.300016 233.35862 
L 162.361313 240.816058 
L 162.679234 232.852914 
L 162.854043 229.37145 
L 163.172303 230.836516 
L 163.279842 232.843753 
L 163.63221 226.21514 
L 163.915945 234.237117 
L 164.549741 223.711716 
L 165.373331 233.453669 
L 165.380155 225.185354 
L 166.051943 226.500098 
L 166.354565 233.408111 
L 167.771549 226.675025 
L 167.776039 236.293025 
L 168.270441 221.632941 
L 168.707286 230.255525 
L 168.796414 230.150953 
L 168.924135 220.773823 
L 169.215131 229.019716 
L 169.306827 220.28265 
L 169.798879 222.303845 
L 170.118769 220.41672 
L 170.364451 234.975037 
L 171.121566 224.263496 
L 171.628328 231.869862 
L 172.771872 222.950867 
L 173.11445 223.261366 
L 173.519648 232.751808 
L 173.655769 217.341364 
L 174.829651 228.191669 
L 175.135967 220.263808 
L 175.277573 228.804767 
L 175.376774 227.602715 
L 175.382539 228.856516 
L 175.384939 219.468193 
L 176.341022 219.039618 
L 177.282986 214.806891 
L 177.558413 224.563707 
L 178.022792 217.796612 
L 178.080069 225.692053 
L 178.457298 216.49293 
L 178.471007 216.768551 
L 178.741998 220.100338 
L 178.931475 227.9774 
L 179.455431 214.331082 
L 179.788094 219.91192 
L 179.969245 213.203557 
L 180.602768 224.237896 
L 180.643388 227.103989 
L 181.167447 218.938668 
L 181.733628 211.909681 
L 181.754964 213.823803 
L 182.027121 211.663962 
L 182.140093 217.572597 
L 182.152055 212.897778 
L 182.170761 211.413581 
L 182.387909 210.333063 
L 182.690253 216.446371 
L 182.920695 212.533839 
L 183.065465 213.813296 
L 183.223382 217.850993 
L 183.495585 209.84362 
L 183.92167 221.39079 
L 185.547597 211.251839 
L 185.567004 211.334273 
L 185.983168 215.867881 
L 186.051033 222.605156 
L 186.318421 209.458526 
L 186.41288 217.865782 
L 186.701668 220.589127 
L 187.047495 216.916013 
L 187.188845 210.382577 
L 187.461475 213.802464 
L 187.811867 212.676106 
L 188.718119 205.962303 
L 188.874501 206.012787 
L 189.870301 213.209525 
L 190.081228 219.00563 
L 190.17951 211.617127 
L 190.328129 220.492574 
L 190.841341 209.711493 
L 190.985055 218.239443 
L 191.213626 219.987498 
L 191.300252 205.076217 
L 191.415959 211.891144 
L 191.555571 210.585266 
L 191.661443 215.847558 
L 191.763887 207.471872 
L 192.21733 216.145705 
L 192.839805 217.919331 
L 193.142561 202.900855 
L 193.218403 207.617091 
L 193.4467 210.807756 
L 194.676925 212.629228 
L 194.986345 208.032042 
L 195.308368 206.216081 
L 195.60843 206.799845 
L 195.722914 201.2061 
L 196.052831 214.055739 
L 196.449042 209.931988 
L 196.570529 202.210249 
L 196.724809 200.961993 
L 196.974442 200.20616 
L 197.171797 212.379455 
L 197.929377 212.300293 
L 198.360817 198.932373 
L 198.363072 206.21765 
L 198.774144 207.572275 
L 199.002689 198.855426 
L 199.337245 214.060462 
L 200.260743 204.098904 
L 200.286772 198.032066 
L 200.341575 212.009337 
L 200.877983 198.419616 
L 201.234117 199.493331 
L 201.805866 209.791749 
L 202.496299 196.182431 
L 202.533889 199.896938 
L 203.081868 210.069501 
L 203.499701 195.258691 
L 203.839225 200.24251 
L 204.250302 200.38809 
L 204.792705 202.105506 
L 204.876541 203.571935 
L 204.877322 207.222576 
L 205.528233 200.492419 
L 205.781144 204.277773 
L 207.212403 199.282265 
L 207.61985 202.876208 
L 207.969077 195.395682 
L 208.215923 195.659309 
L 208.222252 202.426928 
L 208.275186 194.160465 
L 208.905404 199.766079 
L 209.307312 203.754774 
L 209.526971 192.309098 
L 209.64481 201.575745 
L 209.803876 200.217627 
L 210.335705 194.404907 
L 210.341435 197.012944 
L 210.991004 189.757171 
L 211.307929 189.809637 
L 211.780176 189.311441 
L 211.914319 193.242416 
L 212.142028 193.070008 
L 212.682822 203.773573 
L 213.313849 196.110974 
L 213.894014 194.120286 
L 213.944922 188.673841 
L 214.143613 198.896948 
L 214.236398 189.433076 
L 214.786027 194.467668 
L 215.121971 192.099667 
L 215.42117 201.04337 
L 215.679869 186.673015 
L 215.810212 191.608964 
L 216.138479 187.106133 
L 216.21458 190.70662 
L 217.014102 187.770214 
L 217.042294 191.471799 
L 217.109979 189.55879 
L 217.26799 196.276504 
L 217.712785 185.127725 
L 217.971174 185.075437 
L 218.133693 189.368689 
L 218.506462 188.740954 
L 218.755943 200.132664 
L 218.89167 199.794294 
L 218.982595 187.57902 
L 219.230425 198.954416 
L 219.452377 190.725877 
L 219.706876 187.757997 
L 220.151754 187.464371 
L 220.345312 199.177672 
L 220.903189 185.285137 
L 221.187837 191.002917 
L 221.396583 197.762045 
L 221.434938 183.014363 
L 222.548009 186.843316 
L 222.845216 184.053981 
L 223.010917 187.576522 
L 223.105431 193.912548 
L 223.787517 181.7868 
L 224.21596 191.857088 
L 224.422826 185.179819 
L 224.584584 195.625433 
L 225.135287 184.816746 
L 225.34844 185.871455 
L 225.366122 185.619873 
L 225.63771 179.27889 
L 226.819225 186.557075 
L 227.646907 193.211916 
L 227.753963 178.445868 
L 227.967725 191.624234 
L 228.054187 190.769126 
L 228.072473 185.834155 
L 228.393889 182.323275 
L 229.157657 182.416144 
L 229.19122 177.494949 
L 229.282015 185.089979 
L 229.356284 181.471691 
L 229.979299 183.679878 
L 230.30364 177.616764 
L 230.327783 190.693558 
L 230.398902 179.97798 
L 230.643192 175.575955 
L 230.937146 177.560869 
L 230.962855 185.671071 
L 231.245845 181.737261 
L 231.382764 185.293421 
L 231.478523 179.856373 
L 232.088844 185.514963 
L 232.40388 180.341557 
L 234.420132 174.957247 
L 234.426826 174.300035 
L 234.734949 185.429912 
L 235.2933 187.387382 
L 235.81613 176.849622 
L 235.971395 180.609283 
L 236.144531 176.320451 
L 236.379506 178.999412 
L 236.672247 171.496539 
L 237.437744 174.05563 
L 237.821239 173.994827 
L 238.337746 180.873595 
L 238.781343 174.299707 
L 238.95649 176.033724 
L 239.201614 169.286507 
L 239.292954 176.410796 
L 239.503074 173.883562 
L 239.506888 171.801756 
L 240.033985 182.838919 
L 240.050832 175.055541 
L 240.580506 171.928643 
L 240.713449 177.485277 
L 240.889108 174.962141 
L 241.115096 175.624932 
L 241.525076 170.049925 
L 242.232159 178.19055 
L 242.55206 167.949101 
L 243.441151 167.59131 
L 243.459337 180.642404 
L 243.515823 175.726068 
L 243.659625 172.899393 
L 243.660985 174.552621 
L 244.636071 168.3726 
L 245.213647 180.093351 
L 246.048609 169.937897 
L 246.281048 177.679344 
L 246.35266 170.515384 
L 246.749512 170.156726 
L 246.838296 166.148264 
L 246.947621 179.905978 
L 247.316867 179.716424 
L 247.918651 178.181876 
L 248.286794 169.213638 
L 248.615243 177.709563 
L 248.766577 175.71307 
L 248.87581 162.764443 
L 249.093061 174.363723 
L 249.146289 166.774113 
L 249.797667 167.80527 
L 249.943687 166.548657 
L 250.465223 166.582338 
L 250.732787 168.633277 
L 250.765513 164.409763 
L 250.793193 170.709621 
L 251.127407 176.321956 
L 252.133367 162.802213 
L 252.325577 174.128087 
L 252.95877 173.662025 
L 253.719357 165.342999 
L 253.90452 160.136361 
L 254.630185 174.441074 
L 255.127905 160.355241 
L 255.151319 166.824005 
L 255.46498 160.646523 
L 255.582056 164.74713 
L 255.587605 173.686322 
L 255.731439 158.046404 
L 256.138877 162.721907 
L 256.41059 172.863251 
L 256.834853 157.815546 
L 256.984852 172.534178 
L 257.572114 158.291762 
L 257.693039 171.026247 
L 258.033988 161.81862 
L 258.399851 156.943729 
L 258.780908 156.666964 
L 258.861514 171.212237 
L 260.108428 167.598149 
L 260.702231 161.444641 
L 261.058059 169.803626 
L 261.479133 154.69011 
L 261.482475 166.511973 
L 262.027225 166.06217 
L 262.291925 160.680678 
L 262.312 154.667846 
L 262.395237 154.866192 
L 262.430198 162.823044 
L 262.61977 156.385105 
L 262.837019 166.927595 
L 262.858085 158.859336 
L 263.025975 155.423796 
L 263.212582 166.540801 
L 263.671583 154.408625 
L 263.707303 163.972735 
L 263.745334 162.540908 
L 264.639129 155.739003 
L 265.523909 166.371055 
L 266.119664 163.994992 
L 266.318977 160.810322 
L 266.424112 155.206746 
L 266.604622 159.191198 
L 266.621341 152.70856 
L 266.802843 153.752403 
L 267.174083 156.873653 
L 267.79631 149.383964 
L 267.807482 155.711832 
L 267.896546 148.813696 
L 268.037374 149.748356 
L 268.646368 155.696272 
L 268.662982 152.815355 
L 268.974397 148.377353 
L 269.410543 149.994351 
L 269.95558 149.365386 
L 271.031498 151.05573 
L 271.578572 161.990067 
L 272.779838 159.770678 
L 272.995597 151.742269 
L 273.272619 160.869211 
L 273.531072 151.820445 
L 273.674566 147.17714 
L 274.04474 144.871301 
L 274.180969 150.263301 
L 274.214554 144.918641 
L 274.308184 157.423639 
L 275.441474 155.381334 
L 276.151966 148.880383 
L 276.230622 152.521191 
L 276.60138 145.685218 
L 277.021469 145.322229 
L 278.05365 144.104583 
L 278.249667 141.779061 
L 278.253311 147.755913 
L 279.156479 149.34586 
L 279.426634 151.022011 
L 279.475655 154.939864 
L 279.941825 144.142493 
L 280.010562 147.827711 
L 280.809951 150.686822 
L 280.836957 146.438779 
L 281.221682 152.572935 
L 282.15654 139.917445 
L 282.194027 150.014603 
L 282.64291 152.779114 
L 283.04543 138.135493 
L 283.296441 145.202468 
L 283.615692 147.361169 
L 284.095712 145.371947 
L 284.32823 144.965906 
L 284.566694 136.821734 
L 284.659644 148.847815 
L 284.691954 142.911876 
L 284.851433 143.946164 
L 284.999693 143.332128 
L 285.636185 146.2963 
L 286.232353 143.39189 
L 286.257189 137.510813 
L 286.359001 145.643057 
L 286.634784 144.379221 
L 286.68029 135.578701 
L 286.702669 140.768066 
L 286.921456 144.070271 
L 287.034549 144.040042 
L 287.238433 146.739617 
L 287.791264 136.774292 
L 289.481438 140.58775 
L 290.213158 138.816149 
L 290.285274 141.139509 
L 290.315464 135.284545 
L 290.670457 141.675529 
L 290.843369 132.16612 
L 291.019763 147.569359 
L 291.063026 133.882171 
L 291.813129 131.437002 
L 292.555924 146.76786 
L 292.593797 137.822247 
L 292.876531 142.442794 
L 293.326201 133.803278 
L 293.521071 139.419389 
L 295.069287 143.544884 
L 295.122353 140.011597 
L 295.183965 141.541776 
L 295.776309 141.472592 
L 295.885071 144.663906 
L 296.029762 143.961658 
L 296.437933 143.180426 
L 296.515555 131.338804 
L 296.700805 130.444151 
L 296.785871 131.178698 
L 297.066322 136.559026 
L 297.122847 140.021072 
L 297.304119 143.640572 
L 297.624393 142.284261 
L 297.897461 127.310869 
L 298.162915 135.124114 
L 298.521032 127.685059 
L 298.799374 133.942355 
L 299.143019 136.388934 
L 299.228716 129.322919 
L 299.626176 126.14868 
L 299.929037 133.070266 
L 300.27846 138.131936 
L 300.445001 127.806869 
L 300.893096 139.600314 
L 301.701296 140.34876 
L 301.966833 139.763475 
L 302.245747 131.262587 
L 302.412857 133.192174 
L 303.163716 138.394703 
L 304.344346 126.593587 
L 304.46912 138.049379 
L 304.867312 125.51601 
L 305.217453 130.453425 
L 305.433673 122.53871 
L 305.82339 128.441941 
L 305.831953 131.105687 
L 305.987825 128.921644 
L 306.11301 124.241837 
L 306.777319 132.11051 
L 307.78747 120.045128 
L 307.958733 121.657618 
L 308.102154 120.06549 
L 308.59813 127.236989 
L 308.610539 122.531366 
L 308.873161 119.855254 
L 309.289045 119.137251 
L 309.369243 128.835762 
L 309.422277 127.586249 
L 309.676749 123.785221 
L 309.771517 133.568338 
L 310.728064 120.918762 
L 311.16135 117.329815 
L 311.441555 127.257765 
L 312.196338 130.916431 
L 312.612806 130.578662 
L 312.789963 116.158962 
L 313.244819 116.784634 
L 314.106459 122.987931 
L 314.332695 128.709488 
L 314.488879 122.174582 
L 314.716593 130.193016 
L 315.219203 118.593044 
L 315.289568 124.014384 
L 315.420848 123.115792 
L 315.553113 114.956239 
L 315.615261 115.833899 
L 315.629337 122.404463 
L 316.931896 114.749922 
L 317.128493 127.172174 
L 317.539352 115.578553 
L 318.355841 127.226244 
L 319.425211 111.47724 
L 319.536681 123.969581 
L 319.571021 116.954239 
L 319.707263 119.78809 
L 319.748206 112.354725 
L 319.759177 120.454326 
L 320.28323 122.664278 
L 321.224685 110.909543 
L 321.728821 122.029616 
L 322.688079 124.061572 
L 323.17483 119.533878 
L 323.210042 122.145458 
L 323.44655 124.747556 
L 324.373498 123.359893 
L 324.391417 123.95143 
L 324.472186 107.786107 
L 324.619774 114.867271 
L 324.815592 117.716198 
L 325.094926 108.628302 
L 325.217094 108.65036 
L 325.548929 108.991842 
L 325.694645 107.282873 
L 325.741223 108.205786 
L 326.061154 120.121783 
L 326.460836 113.459621 
L 326.894625 120.864705 
L 327.344341 114.974254 
L 328.169496 118.290008 
L 329.12296 111.166554 
L 329.281317 120.409549 
L 329.694177 105.234336 
L 329.742716 118.058186 
L 329.805518 109.797796 
L 330.132071 104.855365 
L 330.320723 104.065714 
L 330.343683 104.602347 
L 330.521496 104.908433 
L 331.756491 111.567961 
L 331.981954 115.328496 
L 332.057322 104.904923 
L 332.913441 111.077634 
L 333.115875 109.478921 
L 333.313215 102.245195 
L 333.388691 116.730579 
L 333.609074 104.09869 
L 333.898266 114.331125 
L 333.999653 108.766787 
L 334.141995 112.849408 
L 334.254469 104.86118 
L 334.295096 106.782265 
L 334.615944 101.087483 
L 336.254009 102.39386 
L 337.063272 114.841739 
L 337.066066 100.011361 
L 337.166991 107.172564 
L 337.62985 108.283276 
L 337.70723 109.104159 
L 337.73692 110.695639 
L 338.110362 107.348968 
L 338.695311 99.960447 
L 338.976638 98.677146 
L 339.555376 110.683187 
L 339.655449 102.648398 
L 340.038073 110.772375 
L 341.09147 104.491626 
L 341.289337 96.013844 
L 341.518825 99.509904 
L 341.8417 96.117381 
L 342.070552 101.887838 
L 342.149135 106.825196 
L 342.382902 108.771954 
L 342.566264 102.763076 
L 343.136529 101.191934 
L 343.452974 95.004401 
L 343.641414 98.182532 
L 343.846892 98.411517 
L 343.983723 98.343482 
L 344.305353 99.63362 
L 344.604942 106.425179 
L 345.004216 102.786212 
L 345.092358 105.306295 
L 345.717909 92.450303 
L 346.524104 94.626982 
L 346.61677 94.32667 
L 346.703135 99.4472 
L 346.965461 92.492629 
L 347.196819 107.627269 
L 347.658688 102.572251 
L 348.239417 92.41137 
L 348.324219 97.501014 
L 348.5081 95.397048 
L 348.873085 106.392991 
L 349.716142 92.026194 
L 350.239838 102.962875 
L 350.428803 99.347659 
L 350.895429 104.526176 
L 351.010737 90.970615 
L 351.279712 102.607039 
L 351.282057 98.359552 
L 351.719985 93.932266 
L 351.795668 99.992958 
L 351.992847 93.748419 
L 352.879772 99.357629 
L 353.104126 89.735425 
L 353.419317 94.474885 
L 353.939185 94.160786 
L 354.152805 93.321251 
L 354.166246 102.129029 
L 354.326865 101.824587 
L 355.016502 94.005527 
L 355.060052 92.0082 
L 355.459892 91.78307 
L 355.640681 93.110031 
L 356.175345 85.746067 
L 356.347379 97.590437 
L 356.84999 100.631549 
L 357.106685 85.80281 
L 357.794852 93.911923 
L 357.915423 85.363661 
L 358.059588 93.00228 
L 358.071162 88.565394 
L 358.25734 93.461666 
L 358.476602 93.708247 
L 358.543171 88.358131 
L 359.058008 94.569981 
L 359.368354 89.888774 
L 360.406753 94.417196 
L 361.142786 90.443418 
L 361.342591 97.381304 
L 361.615241 96.694695 
L 362.39484 86.24103 
L 362.992169 83.078448 
L 363.072681 83.900558 
L 363.419603 84.862832 
L 363.657712 87.049826 
L 364.387246 95.187919 
L 365.318889 89.625668 
L 365.332094 78.563098 
L 365.514323 80.862995 
L 366.731887 92.526068 
L 367.02795 77.265614 
L 367.028967 78.467333 
L 367.138345 90.444131 
L 367.331381 84.45725 
L 367.470812 85.529017 
L 367.898832 92.637842 
L 369.18236 91.755856 
L 369.361503 85.984762 
L 369.578729 84.104409 
L 369.889536 76.973256 
L 369.973228 85.193791 
L 370.836564 75.706113 
L 371.701956 89.491233 
L 372.349678 77.221628 
L 372.616375 82.88871 
L 373.384339 76.383554 
L 373.501456 73.984304 
L 373.603877 76.695257 
L 373.784687 75.0277 
L 374.281859 85.048144 
L 374.307416 77.144663 
L 374.68003 75.837434 
L 375.309032 72.796758 
L 375.348345 71.168858 
L 375.379013 86.757832 
L 376.02092 76.633946 
L 376.507361 71.702742 
L 376.694639 80.036236 
L 377.193081 81.529161 
L 377.409206 77.057133 
L 379.011951 79.032482 
L 379.608408 68.270219 
L 379.7218 78.589836 
L 379.725292 76.734702 
L 379.934928 83.48577 
L 380.162625 80.82559 
L 380.691039 70.220317 
L 380.768437 78.833784 
L 380.986835 76.321379 
L 380.988633 82.926387 
L 381.093042 67.380793 
L 381.168893 77.518911 
L 381.585636 82.382545 
L 381.998046 69.427488 
L 382.044999 75.881031 
L 382.596303 68.645445 
L 382.863874 67.186317 
L 383.286084 81.295025 
L 384.138436 64.998953 
L 384.670779 71.949232 
L 385.009702 64.533385 
L 385.831447 71.520214 
L 385.901316 79.019896 
L 386.507395 68.13575 
L 386.56761 72.01977 
L 386.694852 71.362059 
L 387.519 62.970266 
L 387.597817 64.234144 
L 387.847871 73.378467 
L 387.891484 71.350254 
L 388.527268 64.002997 
L 388.696335 67.880668 
L 388.924217 66.361436 
L 389.16337 72.143444 
L 390.017302 67.953997 
L 390.257797 63.788387 
L 390.61271 67.543136 
L 391.827819 64.344191 
L 392.268827 64.034967 
L 392.384354 59.00775 
L 392.505023 74.91106 
L 392.882615 65.214065 
L 394.412667 69.351853 
L 394.448541 60.460753 
L 395.181642 71.546575 
L 397.119684 61.453821 
L 398.487273 62.252843 
L 398.487273 62.252843 
" clip-path="url(#p08bb709743)" style="fill: none; stroke: #1f77b4; stroke-width: 1.5; stroke-linecap: square"/>
   </g>
   <g id="line2d_30">
    <path d="M 73.832727 287.889592 
L 398.487273 53.568 
L 398.487273 53.568 
" clip-path="url(#p08bb709743)" style="fill: none; stroke: #ff7f0e; stroke-width: 1.5; stroke-linecap: square"/>
   </g>
   <g id="patch_3">
    <path d="M 57.6 307.584 
L 57.6 41.472 
" style="fill: none; stroke: #000000; stroke-width: 0.8; stroke-linejoin: miter; stroke-linecap: square"/>
   </g>
   <g id="patch_4">
    <path d="M 414.72 307.584 
L 414.72 41.472 
" style="fill: none; stroke: #000000; stroke-width: 0.8; stroke-linejoin: miter; stroke-linecap: square"/>
   </g>
   <g id="patch_5">
    <path d="M 57.6 307.584 
L 414.72 307.584 
" style="fill: none; stroke: #000000; stroke-width: 0.8; stroke-linejoin: miter; stroke-linecap: square"/>
   </g>
   <g id="patch_6">
    <path d="M 57.6 41.472 
L 414.72 41.472 
" style="fill: none; stroke: #000000; stroke-width: 0.8; stroke-linejoin: miter; stroke-linecap: square"/>
   </g>
   <g id="text_17">
    <!-- Perturbation when b is disturbed (m = 2) -->
    <g transform="translate(112.943438 35.472) scale(0.12 -0.12)">
     <defs>
      <path id="DejaVuSans-50" d="M 1259 4147 
L 1259 2394 
L 2053 2394 
Q 2494 2394 2734 2622 
Q 2975 2850 2975 3272 
Q 2975 3691 2734 3919 
Q 2494 4147 2053 4147 
L 1259 4147 
z
M 628 4666 
L 2053 4666 
Q 2838 4666 3239 4311 
Q 3641 3956 3641 3272 
Q 3641 2581 3239 2228 
Q 2838 1875 2053 1875 
L 1259 1875 
L 1259 0 
L 628 0 
L 628 4666 
z
" transform="scale(0.015625)"/>
      <path id="DejaVuSans-65" d="M 3597 1894 
L 3597 1613 
L 953 1613 
Q 991 1019 1311 708 
Q 1631 397 2203 397 
Q 2534 397 2845 478 
Q 3156 559 3463 722 
L 3463 178 
Q 3153 47 2828 -22 
Q 2503 -91 2169 -91 
Q 1331 -91 842 396 
Q 353 884 353 1716 
Q 353 2575 817 3079 
Q 1281 3584 2069 3584 
Q 2775 3584 3186 3129 
Q 3597 2675 3597 1894 
z
M 3022 2063 
Q 3016 2534 2758 2815 
Q 2500 3097 2075 3097 
Q 1594 3097 1305 2825 
Q 1016 2553 972 2059 
L 3022 2063 
z
" transform="scale(0.015625)"/>
      <path id="DejaVuSans-72" d="M 2631 2963 
Q 2534 3019 2420 3045 
Q 2306 3072 2169 3072 
Q 1681 3072 1420 2755 
Q 1159 2438 1159 1844 
L 1159 0 
L 581 0 
L 581 3500 
L 1159 3500 
L 1159 2956 
Q 1341 3275 1631 3429 
Q 1922 3584 2338 3584 
Q 2397 3584 2469 3576 
Q 2541 3569 2628 3553 
L 2631 2963 
z
" transform="scale(0.015625)"/>
      <path id="DejaVuSans-74" d="M 1172 4494 
L 1172 3500 
L 2356 3500 
L 2356 3053 
L 1172 3053 
L 1172 1153 
Q 1172 725 1289 603 
Q 1406 481 1766 481 
L 2356 481 
L 2356 0 
L 1766 0 
Q 1100 0 847 248 
Q 594 497 594 1153 
L 594 3053 
L 172 3053 
L 172 3500 
L 594 3500 
L 594 4494 
L 1172 4494 
z
" transform="scale(0.015625)"/>
      <path id="DejaVuSans-75" d="M 544 1381 
L 544 3500 
L 1119 3500 
L 1119 1403 
Q 1119 906 1312 657 
Q 1506 409 1894 409 
Q 2359 409 2629 706 
Q 2900 1003 2900 1516 
L 2900 3500 
L 3475 3500 
L 3475 0 
L 2900 0 
L 2900 538 
Q 2691 219 2414 64 
Q 2138 -91 1772 -91 
Q 1169 -91 856 284 
Q 544 659 544 1381 
z
M 1991 3584 
L 1991 3584 
z
" transform="scale(0.015625)"/>
      <path id="DejaVuSans-61" d="M 2194 1759 
Q 1497 1759 1228 1600 
Q 959 1441 959 1056 
Q 959 750 1161 570 
Q 1363 391 1709 391 
Q 2188 391 2477 730 
Q 2766 1069 2766 1631 
L 2766 1759 
L 2194 1759 
z
M 3341 1997 
L 3341 0 
L 2766 0 
L 2766 531 
Q 2569 213 2275 61 
Q 1981 -91 1556 -91 
Q 1019 -91 701 211 
Q 384 513 384 1019 
Q 384 1609 779 1909 
Q 1175 2209 1959 2209 
L 2766 2209 
L 2766 2266 
Q 2766 2663 2505 2880 
Q 2244 3097 1772 3097 
Q 1472 3097 1187 3025 
Q 903 2953 641 2809 
L 641 3341 
Q 956 3463 1253 3523 
Q 1550 3584 1831 3584 
Q 2591 3584 2966 3190 
Q 3341 2797 3341 1997 
z
" transform="scale(0.015625)"/>
      <path id="DejaVuSans-69" d="M 603 3500 
L 1178 3500 
L 1178 0 
L 603 0 
L 603 3500 
z
M 603 4863 
L 1178 4863 
L 1178 4134 
L 603 4134 
L 603 4863 
z
" transform="scale(0.015625)"/>
      <path id="DejaVuSans-6f" d="M 1959 3097 
Q 1497 3097 1228 2736 
Q 959 2375 959 1747 
Q 959 1119 1226 758 
Q 1494 397 1959 397 
Q 2419 397 2687 759 
Q 2956 1122 2956 1747 
Q 2956 2369 2687 2733 
Q 2419 3097 1959 3097 
z
M 1959 3584 
Q 2709 3584 3137 3096 
Q 3566 2609 3566 1747 
Q 3566 888 3137 398 
Q 2709 -91 1959 -91 
Q 1206 -91 779 398 
Q 353 888 353 1747 
Q 353 2609 779 3096 
Q 1206 3584 1959 3584 
z
" transform="scale(0.015625)"/>
      <path id="DejaVuSans-6e" d="M 3513 2113 
L 3513 0 
L 2938 0 
L 2938 2094 
Q 2938 2591 2744 2837 
Q 2550 3084 2163 3084 
Q 1697 3084 1428 2787 
Q 1159 2491 1159 1978 
L 1159 0 
L 581 0 
L 581 3500 
L 1159 3500 
L 1159 2956 
Q 1366 3272 1645 3428 
Q 1925 3584 2291 3584 
Q 2894 3584 3203 3211 
Q 3513 2838 3513 2113 
z
" transform="scale(0.015625)"/>
      <path id="DejaVuSans-20" transform="scale(0.015625)"/>
      <path id="DejaVuSans-77" d="M 269 3500 
L 844 3500 
L 1563 769 
L 2278 3500 
L 2956 3500 
L 3675 769 
L 4391 3500 
L 4966 3500 
L 4050 0 
L 3372 0 
L 2619 2869 
L 1863 0 
L 1184 0 
L 269 3500 
z
" transform="scale(0.015625)"/>
      <path id="DejaVuSans-68" d="M 3513 2113 
L 3513 0 
L 2938 0 
L 2938 2094 
Q 2938 2591 2744 2837 
Q 2550 3084 2163 3084 
Q 1697 3084 1428 2787 
Q 1159 2491 1159 1978 
L 1159 0 
L 581 0 
L 581 4863 
L 1159 4863 
L 1159 2956 
Q 1366 3272 1645 3428 
Q 1925 3584 2291 3584 
Q 2894 3584 3203 3211 
Q 3513 2838 3513 2113 
z
" transform="scale(0.015625)"/>
      <path id="DejaVuSans-73" d="M 2834 3397 
L 2834 2853 
Q 2591 2978 2328 3040 
Q 2066 3103 1784 3103 
Q 1356 3103 1142 2972 
Q 928 2841 928 2578 
Q 928 2378 1081 2264 
Q 1234 2150 1697 2047 
L 1894 2003 
Q 2506 1872 2764 1633 
Q 3022 1394 3022 966 
Q 3022 478 2636 193 
Q 2250 -91 1575 -91 
Q 1294 -91 989 -36 
Q 684 19 347 128 
L 347 722 
Q 666 556 975 473 
Q 1284 391 1588 391 
Q 1994 391 2212 530 
Q 2431 669 2431 922 
Q 2431 1156 2273 1281 
Q 2116 1406 1581 1522 
L 1381 1569 
Q 847 1681 609 1914 
Q 372 2147 372 2553 
Q 372 3047 722 3315 
Q 1072 3584 1716 3584 
Q 2034 3584 2315 3537 
Q 2597 3491 2834 3397 
z
" transform="scale(0.015625)"/>
      <path id="DejaVuSans-64" d="M 2906 2969 
L 2906 4863 
L 3481 4863 
L 3481 0 
L 2906 0 
L 2906 525 
Q 2725 213 2448 61 
Q 2172 -91 1784 -91 
Q 1150 -91 751 415 
Q 353 922 353 1747 
Q 353 2572 751 3078 
Q 1150 3584 1784 3584 
Q 2172 3584 2448 3432 
Q 2725 3281 2906 2969 
z
M 947 1747 
Q 947 1113 1208 752 
Q 1469 391 1925 391 
Q 2381 391 2643 752 
Q 2906 1113 2906 1747 
Q 2906 2381 2643 2742 
Q 2381 3103 1925 3103 
Q 1469 3103 1208 2742 
Q 947 2381 947 1747 
z
" transform="scale(0.015625)"/>
      <path id="DejaVuSans-28" d="M 1984 4856 
Q 1566 4138 1362 3434 
Q 1159 2731 1159 2009 
Q 1159 1288 1364 580 
Q 1569 -128 1984 -844 
L 1484 -844 
Q 1016 -109 783 600 
Q 550 1309 550 2009 
Q 550 2706 781 3412 
Q 1013 4119 1484 4856 
L 1984 4856 
z
" transform="scale(0.015625)"/>
      <path id="DejaVuSans-6d" d="M 3328 2828 
Q 3544 3216 3844 3400 
Q 4144 3584 4550 3584 
Q 5097 3584 5394 3201 
Q 5691 2819 5691 2113 
L 5691 0 
L 5113 0 
L 5113 2094 
Q 5113 2597 4934 2840 
Q 4756 3084 4391 3084 
Q 3944 3084 3684 2787 
Q 3425 2491 3425 1978 
L 3425 0 
L 2847 0 
L 2847 2094 
Q 2847 2600 2669 2842 
Q 2491 3084 2119 3084 
Q 1678 3084 1418 2786 
Q 1159 2488 1159 1978 
L 1159 0 
L 581 0 
L 581 3500 
L 1159 3500 
L 1159 2956 
Q 1356 3278 1631 3431 
Q 1906 3584 2284 3584 
Q 2666 3584 2933 3390 
Q 3200 3197 3328 2828 
z
" transform="scale(0.015625)"/>
      <path id="DejaVuSans-3d" d="M 678 2906 
L 4684 2906 
L 4684 2381 
L 678 2381 
L 678 2906 
z
M 678 1631 
L 4684 1631 
L 4684 1100 
L 678 1100 
L 678 1631 
z
" transform="scale(0.015625)"/>
      <path id="DejaVuSans-29" d="M 513 4856 
L 1013 4856 
Q 1481 4119 1714 3412 
Q 1947 2706 1947 2009 
Q 1947 1309 1714 600 
Q 1481 -109 1013 -844 
L 513 -844 
Q 928 -128 1133 580 
Q 1338 1288 1338 2009 
Q 1338 2731 1133 3434 
Q 928 4138 513 4856 
z
" transform="scale(0.015625)"/>
     </defs>
     <use xlink:href="#DejaVuSans-50"/>
     <use xlink:href="#DejaVuSans-65" x="56.677734"/>
     <use xlink:href="#DejaVuSans-72" x="118.201172"/>
     <use xlink:href="#DejaVuSans-74" x="159.314453"/>
     <use xlink:href="#DejaVuSans-75" x="198.523438"/>
     <use xlink:href="#DejaVuSans-72" x="261.902344"/>
     <use xlink:href="#DejaVuSans-62" x="303.015625"/>
     <use xlink:href="#DejaVuSans-61" x="366.492188"/>
     <use xlink:href="#DejaVuSans-74" x="427.771484"/>
     <use xlink:href="#DejaVuSans-69" x="466.980469"/>
     <use xlink:href="#DejaVuSans-6f" x="494.763672"/>
     <use xlink:href="#DejaVuSans-6e" x="555.945312"/>
     <use xlink:href="#DejaVuSans-20" x="619.324219"/>
     <use xlink:href="#DejaVuSans-77" x="651.111328"/>
     <use xlink:href="#DejaVuSans-68" x="732.898438"/>
     <use xlink:href="#DejaVuSans-65" x="796.277344"/>
     <use xlink:href="#DejaVuSans-6e" x="857.800781"/>
     <use xlink:href="#DejaVuSans-20" x="921.179688"/>
     <use xlink:href="#DejaVuSans-62" x="952.966797"/>
     <use xlink:href="#DejaVuSans-20" x="1016.443359"/>
     <use xlink:href="#DejaVuSans-69" x="1048.230469"/>
     <use xlink:href="#DejaVuSans-73" x="1076.013672"/>
     <use xlink:href="#DejaVuSans-20" x="1128.113281"/>
     <use xlink:href="#DejaVuSans-64" x="1159.900391"/>
     <use xlink:href="#DejaVuSans-69" x="1223.376953"/>
     <use xlink:href="#DejaVuSans-73" x="1251.160156"/>
     <use xlink:href="#DejaVuSans-74" x="1303.259766"/>
     <use xlink:href="#DejaVuSans-75" x="1342.46875"/>
     <use xlink:href="#DejaVuSans-72" x="1405.847656"/>
     <use xlink:href="#DejaVuSans-62" x="1446.960938"/>
     <use xlink:href="#DejaVuSans-65" x="1510.4375"/>
     <use xlink:href="#DejaVuSans-64" x="1571.960938"/>
     <use xlink:href="#DejaVuSans-20" x="1635.4375"/>
     <use xlink:href="#DejaVuSans-28" x="1667.224609"/>
     <use xlink:href="#DejaVuSans-6d" x="1706.238281"/>
     <use xlink:href="#DejaVuSans-20" x="1803.650391"/>
     <use xlink:href="#DejaVuSans-3d" x="1835.4375"/>
     <use xlink:href="#DejaVuSans-20" x="1919.226562"/>
     <use xlink:href="#DejaVuSans-32" x="1951.013672"/>
     <use xlink:href="#DejaVuSans-29" x="2014.636719"/>
    </g>
   </g>
   <g id="legend_1">
    <g id="patch_7">
     <path d="M 64.6 79.250125 
L 302.1 79.250125 
Q 304.1 79.250125 304.1 77.250125 
L 304.1 48.472 
Q 304.1 46.472 302.1 46.472 
L 64.6 46.472 
Q 62.6 46.472 62.6 48.472 
L 62.6 77.250125 
Q 62.6 79.250125 64.6 79.250125 
z
" style="fill: #ffffff; opacity: 0.8; stroke: #cccccc; stroke-linejoin: miter"/>
    </g>
    <g id="line2d_31">
     <path d="M 66.6 54.570437 
L 76.6 54.570437 
L 86.6 54.570437 
" style="fill: none; stroke: #1f77b4; stroke-width: 1.5; stroke-linecap: square"/>
    </g>
    <g id="text_18">
     <!-- relative solution perturbation -->
     <g transform="translate(94.6 58.070437) scale(0.1 -0.1)">
      <defs>
       <path id="DejaVuSans-6c" d="M 603 4863 
L 1178 4863 
L 1178 0 
L 603 0 
L 603 4863 
z
" transform="scale(0.015625)"/>
       <path id="DejaVuSans-76" d="M 191 3500 
L 800 3500 
L 1894 563 
L 2988 3500 
L 3597 3500 
L 2284 0 
L 1503 0 
L 191 3500 
z
" transform="scale(0.015625)"/>
       <path id="DejaVuSans-70" d="M 1159 525 
L 1159 -1331 
L 581 -1331 
L 581 3500 
L 1159 3500 
L 1159 2969 
Q 1341 3281 1617 3432 
Q 1894 3584 2278 3584 
Q 2916 3584 3314 3078 
Q 3713 2572 3713 1747 
Q 3713 922 3314 415 
Q 2916 -91 2278 -91 
Q 1894 -91 1617 61 
Q 1341 213 1159 525 
z
M 3116 1747 
Q 3116 2381 2855 2742 
Q 2594 3103 2138 3103 
Q 1681 3103 1420 2742 
Q 1159 2381 1159 1747 
Q 1159 1113 1420 752 
Q 1681 391 2138 391 
Q 2594 391 2855 752 
Q 3116 1113 3116 1747 
z
" transform="scale(0.015625)"/>
      </defs>
      <use xlink:href="#DejaVuSans-72"/>
      <use xlink:href="#DejaVuSans-65" x="38.863281"/>
      <use xlink:href="#DejaVuSans-6c" x="100.386719"/>
      <use xlink:href="#DejaVuSans-61" x="128.169922"/>
      <use xlink:href="#DejaVuSans-74" x="189.449219"/>
      <use xlink:href="#DejaVuSans-69" x="228.658203"/>
      <use xlink:href="#DejaVuSans-76" x="256.441406"/>
      <use xlink:href="#DejaVuSans-65" x="315.621094"/>
      <use xlink:href="#DejaVuSans-20" x="377.144531"/>
      <use xlink:href="#DejaVuSans-73" x="408.931641"/>
      <use xlink:href="#DejaVuSans-6f" x="461.03125"/>
      <use xlink:href="#DejaVuSans-6c" x="522.212891"/>
      <use xlink:href="#DejaVuSans-75" x="549.996094"/>
      <use xlink:href="#DejaVuSans-74" x="613.375"/>
      <use xlink:href="#DejaVuSans-69" x="652.583984"/>
      <use xlink:href="#DejaVuSans-6f" x="680.367188"/>
      <use xlink:href="#DejaVuSans-6e" x="741.548828"/>
      <use xlink:href="#DejaVuSans-20" x="804.927734"/>
      <use xlink:href="#DejaVuSans-70" x="836.714844"/>
      <use xlink:href="#DejaVuSans-65" x="900.191406"/>
      <use xlink:href="#DejaVuSans-72" x="961.714844"/>
      <use xlink:href="#DejaVuSans-74" x="1002.828125"/>
      <use xlink:href="#DejaVuSans-75" x="1042.037109"/>
      <use xlink:href="#DejaVuSans-72" x="1105.416016"/>
      <use xlink:href="#DejaVuSans-62" x="1146.529297"/>
      <use xlink:href="#DejaVuSans-61" x="1210.005859"/>
      <use xlink:href="#DejaVuSans-74" x="1271.285156"/>
      <use xlink:href="#DejaVuSans-69" x="1310.494141"/>
      <use xlink:href="#DejaVuSans-6f" x="1338.277344"/>
      <use xlink:href="#DejaVuSans-6e" x="1399.458984"/>
     </g>
    </g>
    <g id="line2d_32">
     <path d="M 66.6 69.350125 
L 76.6 69.350125 
L 86.6 69.350125 
" style="fill: none; stroke: #ff7f0e; stroke-width: 1.5; stroke-linecap: square"/>
    </g>
    <g id="text_19">
     <!-- perturbation upper bound ($\kappa_b$*||$\delta$b||/||b||) -->
     <g transform="translate(94.6 72.850125) scale(0.1 -0.1)">
      <defs>
       <path id="DejaVuSans-Oblique-3ba" d="M 938 3500 
L 1531 3500 
L 1247 2047 
L 3041 3500 
L 3741 3500 
L 2106 2181 
L 3275 0 
L 2572 0 
L 1628 1806 
L 1122 1403 
L 850 0 
L 256 0 
L 938 3500 
z
" transform="scale(0.015625)"/>
       <path id="DejaVuSans-Oblique-62" d="M 3169 2138 
Q 3169 2591 2961 2847 
Q 2753 3103 2388 3103 
Q 2122 3103 1889 2973 
Q 1656 2844 1484 2597 
Q 1303 2338 1198 1995 
Q 1094 1653 1094 1313 
Q 1094 881 1298 636 
Q 1503 391 1863 391 
Q 2134 391 2365 517 
Q 2597 644 2772 891 
Q 2950 1147 3059 1487 
Q 3169 1828 3169 2138 
z
M 1381 2969 
Q 1594 3256 1914 3420 
Q 2234 3584 2584 3584 
Q 3122 3584 3439 3221 
Q 3756 2859 3756 2241 
Q 3756 1734 3570 1259 
Q 3384 784 3041 416 
Q 2816 172 2522 40 
Q 2228 -91 1906 -91 
Q 1566 -91 1316 65 
Q 1066 222 909 531 
L 806 0 
L 231 0 
L 1178 4863 
L 1753 4863 
L 1381 2969 
z
" transform="scale(0.015625)"/>
       <path id="DejaVuSans-2a" d="M 3009 3897 
L 1888 3291 
L 3009 2681 
L 2828 2375 
L 1778 3009 
L 1778 1831 
L 1422 1831 
L 1422 3009 
L 372 2375 
L 191 2681 
L 1313 3291 
L 191 3897 
L 372 4206 
L 1422 3572 
L 1422 4750 
L 1778 4750 
L 1778 3572 
L 2828 4206 
L 3009 3897 
z
" transform="scale(0.015625)"/>
      </defs>
      <use xlink:href="#DejaVuSans-70" transform="translate(0 0.578125)"/>
      <use xlink:href="#DejaVuSans-65" transform="translate(63.476562 0.578125)"/>
      <use xlink:href="#DejaVuSans-72" transform="translate(125 0.578125)"/>
      <use xlink:href="#DejaVuSans-74" transform="translate(166.113281 0.578125)"/>
      <use xlink:href="#DejaVuSans-75" transform="translate(205.322266 0.578125)"/>
      <use xlink:href="#DejaVuSans-72" transform="translate(268.701172 0.578125)"/>
      <use xlink:href="#DejaVuSans-62" transform="translate(309.814453 0.578125)"/>
      <use xlink:href="#DejaVuSans-61" transform="translate(373.291016 0.578125)"/>
      <use xlink:href="#DejaVuSans-74" transform="translate(434.570312 0.578125)"/>
      <use xlink:href="#DejaVuSans-69" transform="translate(473.779297 0.578125)"/>
      <use xlink:href="#DejaVuSans-6f" transform="translate(501.5625 0.578125)"/>
      <use xlink:href="#DejaVuSans-6e" transform="translate(562.744141 0.578125)"/>
      <use xlink:href="#DejaVuSans-20" transform="translate(626.123047 0.578125)"/>
      <use xlink:href="#DejaVuSans-75" transform="translate(657.910156 0.578125)"/>
      <use xlink:href="#DejaVuSans-70" transform="translate(721.289062 0.578125)"/>
      <use xlink:href="#DejaVuSans-70" transform="translate(784.765625 0.578125)"/>
      <use xlink:href="#DejaVuSans-65" transform="translate(848.242188 0.578125)"/>
      <use xlink:href="#DejaVuSans-72" transform="translate(909.765625 0.578125)"/>
      <use xlink:href="#DejaVuSans-20" transform="translate(950.878906 0.578125)"/>
      <use xlink:href="#DejaVuSans-62" transform="translate(982.666016 0.578125)"/>
      <use xlink:href="#DejaVuSans-6f" transform="translate(1046.142578 0.578125)"/>
      <use xlink:href="#DejaVuSans-75" transform="translate(1107.324219 0.578125)"/>
      <use xlink:href="#DejaVuSans-6e" transform="translate(1170.703125 0.578125)"/>
      <use xlink:href="#DejaVuSans-64" transform="translate(1234.082031 0.578125)"/>
      <use xlink:href="#DejaVuSans-20" transform="translate(1297.558594 0.578125)"/>
      <use xlink:href="#DejaVuSans-28" transform="translate(1329.345703 0.578125)"/>
      <use xlink:href="#DejaVuSans-Oblique-3ba" transform="translate(1368.359375 0.578125)"/>
      <use xlink:href="#DejaVuSans-Oblique-62" transform="translate(1427.294922 -15.828125) scale(0.7)"/>
      <use xlink:href="#DejaVuSans-2a" transform="translate(1474.462891 0.578125)"/>
      <use xlink:href="#DejaVuSans-7c" transform="translate(1524.462891 0.578125)"/>
      <use xlink:href="#DejaVuSans-7c" transform="translate(1558.154297 0.578125)"/>
      <use xlink:href="#DejaVuSans-Oblique-3b4" transform="translate(1591.845703 0.578125)"/>
      <use xlink:href="#DejaVuSans-62" transform="translate(1653.027344 0.578125)"/>
      <use xlink:href="#DejaVuSans-7c" transform="translate(1716.503906 0.578125)"/>
      <use xlink:href="#DejaVuSans-7c" transform="translate(1750.195312 0.578125)"/>
      <use xlink:href="#DejaVuSans-2f" transform="translate(1783.886719 0.578125)"/>
      <use xlink:href="#DejaVuSans-7c" transform="translate(1817.578125 0.578125)"/>
      <use xlink:href="#DejaVuSans-7c" transform="translate(1851.269531 0.578125)"/>
      <use xlink:href="#DejaVuSans-62" transform="translate(1884.960938 0.578125)"/>
      <use xlink:href="#DejaVuSans-7c" transform="translate(1948.4375 0.578125)"/>
      <use xlink:href="#DejaVuSans-7c" transform="translate(1982.128906 0.578125)"/>
      <use xlink:href="#DejaVuSans-29" transform="translate(2015.820312 0.578125)"/>
     </g>
    </g>
   </g>
  </g>
 </g>
 <defs>
  <clipPath id="p08bb709743">
   <rect x="57.6" y="41.472" width="357.12" height="266.112"/>
  </clipPath>
 </defs>
</svg>
