<?xml version="1.0" encoding="utf-8" standalone="no"?>
<!DOCTYPE svg PUBLIC "-//W3C//DTD SVG 1.1//EN"
  "http://www.w3.org/Graphics/SVG/1.1/DTD/svg11.dtd">
<svg xmlns:xlink="http://www.w3.org/1999/xlink" width="460.8pt" height="345.6pt" viewBox="0 0 460.8 345.6" xmlns="http://www.w3.org/2000/svg" version="1.1">
 <metadata>
  <rdf:RDF xmlns:dc="http://purl.org/dc/elements/1.1/" xmlns:cc="http://creativecommons.org/ns#" xmlns:rdf="http://www.w3.org/1999/02/22-rdf-syntax-ns#">
   <cc:Work>
    <dc:type rdf:resource="http://purl.org/dc/dcmitype/StillImage"/>
    <dc:date>2024-03-10T10:37:19.097948</dc:date>
    <dc:format>image/svg+xml</dc:format>
    <dc:creator>
     <cc:Agent>
      <dc:title>Matplotlib v3.8.0, https://matplotlib.org/</dc:title>
     </cc:Agent>
    </dc:creator>
   </cc:Work>
  </rdf:RDF>
 </metadata>
 <defs>
  <style type="text/css">*{stroke-linejoin: round; stroke-linecap: butt}</style>
 </defs>
 <g id="figure_1">
  <g id="patch_1">
   <path d="M 0 345.6 
L 460.8 345.6 
L 460.8 0 
L 0 0 
z
" style="fill: #ffffff"/>
  </g>
  <g id="axes_1">
   <g id="patch_2">
    <path d="M 57.6 307.584 
L 414.72 307.584 
L 414.72 41.472 
L 57.6 41.472 
z
" style="fill: #ffffff"/>
   </g>
   <g id="matplotlib.axis_1">
    <g id="xtick_1">
     <g id="line2d_1">
      <path d="M 100.841649 307.584 
L 100.841649 41.472 
" clip-path="url(#pe73a69e595)" style="fill: none; stroke: #b0b0b0; stroke-width: 0.8; stroke-linecap: square"/>
     </g>
     <g id="line2d_2">
      <defs>
       <path id="m68644957cf" d="M 0 0 
L 0 3.5 
" style="stroke: #000000; stroke-width: 0.8"/>
      </defs>
      <g>
       <use xlink:href="#m68644957cf" x="100.841649" y="307.584" style="stroke: #000000; stroke-width: 0.8"/>
      </g>
     </g>
     <g id="text_1">
      <!-- $\mathdefault{10^{-11}}$ -->
      <g transform="translate(86.891649 322.182437) scale(0.1 -0.1)">
       <defs>
        <path id="DejaVuSans-31" d="M 794 531 
L 1825 531 
L 1825 4091 
L 703 3866 
L 703 4441 
L 1819 4666 
L 2450 4666 
L 2450 531 
L 3481 531 
L 3481 0 
L 794 0 
L 794 531 
z
" transform="scale(0.015625)"/>
        <path id="DejaVuSans-30" d="M 2034 4250 
Q 1547 4250 1301 3770 
Q 1056 3291 1056 2328 
Q 1056 1369 1301 889 
Q 1547 409 2034 409 
Q 2525 409 2770 889 
Q 3016 1369 3016 2328 
Q 3016 3291 2770 3770 
Q 2525 4250 2034 4250 
z
M 2034 4750 
Q 2819 4750 3233 4129 
Q 3647 3509 3647 2328 
Q 3647 1150 3233 529 
Q 2819 -91 2034 -91 
Q 1250 -91 836 529 
Q 422 1150 422 2328 
Q 422 3509 836 4129 
Q 1250 4750 2034 4750 
z
" transform="scale(0.015625)"/>
        <path id="DejaVuSans-2212" d="M 678 2272 
L 4684 2272 
L 4684 1741 
L 678 1741 
L 678 2272 
z
" transform="scale(0.015625)"/>
       </defs>
       <use xlink:href="#DejaVuSans-31" transform="translate(0 0.684375)"/>
       <use xlink:href="#DejaVuSans-30" transform="translate(63.623047 0.684375)"/>
       <use xlink:href="#DejaVuSans-2212" transform="translate(128.203125 38.965625) scale(0.7)"/>
       <use xlink:href="#DejaVuSans-31" transform="translate(186.855469 38.965625) scale(0.7)"/>
       <use xlink:href="#DejaVuSans-31" transform="translate(231.391602 38.965625) scale(0.7)"/>
      </g>
     </g>
    </g>
    <g id="xtick_2">
     <g id="line2d_3">
      <path d="M 154.96678 307.584 
L 154.96678 41.472 
" clip-path="url(#pe73a69e595)" style="fill: none; stroke: #b0b0b0; stroke-width: 0.8; stroke-linecap: square"/>
     </g>
     <g id="line2d_4">
      <g>
       <use xlink:href="#m68644957cf" x="154.96678" y="307.584" style="stroke: #000000; stroke-width: 0.8"/>
      </g>
     </g>
     <g id="text_2">
      <!-- $\mathdefault{10^{-9}}$ -->
      <g transform="translate(143.21678 322.182437) scale(0.1 -0.1)">
       <defs>
        <path id="DejaVuSans-39" d="M 703 97 
L 703 672 
Q 941 559 1184 500 
Q 1428 441 1663 441 
Q 2288 441 2617 861 
Q 2947 1281 2994 2138 
Q 2813 1869 2534 1725 
Q 2256 1581 1919 1581 
Q 1219 1581 811 2004 
Q 403 2428 403 3163 
Q 403 3881 828 4315 
Q 1253 4750 1959 4750 
Q 2769 4750 3195 4129 
Q 3622 3509 3622 2328 
Q 3622 1225 3098 567 
Q 2575 -91 1691 -91 
Q 1453 -91 1209 -44 
Q 966 3 703 97 
z
M 1959 2075 
Q 2384 2075 2632 2365 
Q 2881 2656 2881 3163 
Q 2881 3666 2632 3958 
Q 2384 4250 1959 4250 
Q 1534 4250 1286 3958 
Q 1038 3666 1038 3163 
Q 1038 2656 1286 2365 
Q 1534 2075 1959 2075 
z
" transform="scale(0.015625)"/>
       </defs>
       <use xlink:href="#DejaVuSans-31" transform="translate(0 0.765625)"/>
       <use xlink:href="#DejaVuSans-30" transform="translate(63.623047 0.765625)"/>
       <use xlink:href="#DejaVuSans-2212" transform="translate(128.203125 39.046875) scale(0.7)"/>
       <use xlink:href="#DejaVuSans-39" transform="translate(186.855469 39.046875) scale(0.7)"/>
      </g>
     </g>
    </g>
    <g id="xtick_3">
     <g id="line2d_5">
      <path d="M 209.091911 307.584 
L 209.091911 41.472 
" clip-path="url(#pe73a69e595)" style="fill: none; stroke: #b0b0b0; stroke-width: 0.8; stroke-linecap: square"/>
     </g>
     <g id="line2d_6">
      <g>
       <use xlink:href="#m68644957cf" x="209.091911" y="307.584" style="stroke: #000000; stroke-width: 0.8"/>
      </g>
     </g>
     <g id="text_3">
      <!-- $\mathdefault{10^{-7}}$ -->
      <g transform="translate(197.341911 322.182437) scale(0.1 -0.1)">
       <defs>
        <path id="DejaVuSans-37" d="M 525 4666 
L 3525 4666 
L 3525 4397 
L 1831 0 
L 1172 0 
L 2766 4134 
L 525 4134 
L 525 4666 
z
" transform="scale(0.015625)"/>
       </defs>
       <use xlink:href="#DejaVuSans-31" transform="translate(0 0.684375)"/>
       <use xlink:href="#DejaVuSans-30" transform="translate(63.623047 0.684375)"/>
       <use xlink:href="#DejaVuSans-2212" transform="translate(128.203125 38.965625) scale(0.7)"/>
       <use xlink:href="#DejaVuSans-37" transform="translate(186.855469 38.965625) scale(0.7)"/>
      </g>
     </g>
    </g>
    <g id="xtick_4">
     <g id="line2d_7">
      <path d="M 263.217041 307.584 
L 263.217041 41.472 
" clip-path="url(#pe73a69e595)" style="fill: none; stroke: #b0b0b0; stroke-width: 0.8; stroke-linecap: square"/>
     </g>
     <g id="line2d_8">
      <g>
       <use xlink:href="#m68644957cf" x="263.217041" y="307.584" style="stroke: #000000; stroke-width: 0.8"/>
      </g>
     </g>
     <g id="text_4">
      <!-- $\mathdefault{10^{-5}}$ -->
      <g transform="translate(251.467041 322.182437) scale(0.1 -0.1)">
       <defs>
        <path id="DejaVuSans-35" d="M 691 4666 
L 3169 4666 
L 3169 4134 
L 1269 4134 
L 1269 2991 
Q 1406 3038 1543 3061 
Q 1681 3084 1819 3084 
Q 2600 3084 3056 2656 
Q 3513 2228 3513 1497 
Q 3513 744 3044 326 
Q 2575 -91 1722 -91 
Q 1428 -91 1123 -41 
Q 819 9 494 109 
L 494 744 
Q 775 591 1075 516 
Q 1375 441 1709 441 
Q 2250 441 2565 725 
Q 2881 1009 2881 1497 
Q 2881 1984 2565 2268 
Q 2250 2553 1709 2553 
Q 1456 2553 1204 2497 
Q 953 2441 691 2322 
L 691 4666 
z
" transform="scale(0.015625)"/>
       </defs>
       <use xlink:href="#DejaVuSans-31" transform="translate(0 0.684375)"/>
       <use xlink:href="#DejaVuSans-30" transform="translate(63.623047 0.684375)"/>
       <use xlink:href="#DejaVuSans-2212" transform="translate(128.203125 38.965625) scale(0.7)"/>
       <use xlink:href="#DejaVuSans-35" transform="translate(186.855469 38.965625) scale(0.7)"/>
      </g>
     </g>
    </g>
    <g id="xtick_5">
     <g id="line2d_9">
      <path d="M 317.342172 307.584 
L 317.342172 41.472 
" clip-path="url(#pe73a69e595)" style="fill: none; stroke: #b0b0b0; stroke-width: 0.8; stroke-linecap: square"/>
     </g>
     <g id="line2d_10">
      <g>
       <use xlink:href="#m68644957cf" x="317.342172" y="307.584" style="stroke: #000000; stroke-width: 0.8"/>
      </g>
     </g>
     <g id="text_5">
      <!-- $\mathdefault{10^{-3}}$ -->
      <g transform="translate(305.592172 322.182437) scale(0.1 -0.1)">
       <defs>
        <path id="DejaVuSans-33" d="M 2597 2516 
Q 3050 2419 3304 2112 
Q 3559 1806 3559 1356 
Q 3559 666 3084 287 
Q 2609 -91 1734 -91 
Q 1441 -91 1130 -33 
Q 819 25 488 141 
L 488 750 
Q 750 597 1062 519 
Q 1375 441 1716 441 
Q 2309 441 2620 675 
Q 2931 909 2931 1356 
Q 2931 1769 2642 2001 
Q 2353 2234 1838 2234 
L 1294 2234 
L 1294 2753 
L 1863 2753 
Q 2328 2753 2575 2939 
Q 2822 3125 2822 3475 
Q 2822 3834 2567 4026 
Q 2313 4219 1838 4219 
Q 1578 4219 1281 4162 
Q 984 4106 628 3988 
L 628 4550 
Q 988 4650 1302 4700 
Q 1616 4750 1894 4750 
Q 2613 4750 3031 4423 
Q 3450 4097 3450 3541 
Q 3450 3153 3228 2886 
Q 3006 2619 2597 2516 
z
" transform="scale(0.015625)"/>
       </defs>
       <use xlink:href="#DejaVuSans-31" transform="translate(0 0.765625)"/>
       <use xlink:href="#DejaVuSans-30" transform="translate(63.623047 0.765625)"/>
       <use xlink:href="#DejaVuSans-2212" transform="translate(128.203125 39.046875) scale(0.7)"/>
       <use xlink:href="#DejaVuSans-33" transform="translate(186.855469 39.046875) scale(0.7)"/>
      </g>
     </g>
    </g>
    <g id="xtick_6">
     <g id="line2d_11">
      <path d="M 371.467303 307.584 
L 371.467303 41.472 
" clip-path="url(#pe73a69e595)" style="fill: none; stroke: #b0b0b0; stroke-width: 0.8; stroke-linecap: square"/>
     </g>
     <g id="line2d_12">
      <g>
       <use xlink:href="#m68644957cf" x="371.467303" y="307.584" style="stroke: #000000; stroke-width: 0.8"/>
      </g>
     </g>
     <g id="text_6">
      <!-- $\mathdefault{10^{-1}}$ -->
      <g transform="translate(359.717303 322.182437) scale(0.1 -0.1)">
       <use xlink:href="#DejaVuSans-31" transform="translate(0 0.684375)"/>
       <use xlink:href="#DejaVuSans-30" transform="translate(63.623047 0.684375)"/>
       <use xlink:href="#DejaVuSans-2212" transform="translate(128.203125 38.965625) scale(0.7)"/>
       <use xlink:href="#DejaVuSans-31" transform="translate(186.855469 38.965625) scale(0.7)"/>
      </g>
     </g>
    </g>
    <g id="text_7">
     <!-- ||$\delta$A||/||A|| -->
     <g transform="translate(211.06 335.962125) scale(0.1 -0.1)">
      <defs>
       <path id="DejaVuSans-7c" d="M 1344 4891 
L 1344 -1509 
L 813 -1509 
L 813 4891 
L 1344 4891 
z
" transform="scale(0.015625)"/>
       <path id="DejaVuSans-Oblique-3b4" d="M 3472 4053 
Q 3197 4272 2450 4272 
Q 1659 4272 1588 3906 
Q 1531 3619 2328 3469 
Q 2953 3353 3253 3003 
Q 3616 2581 3447 1716 
Q 3284 888 2763 400 
Q 2238 -91 1488 -91 
Q 741 -91 406 400 
Q 72 888 241 1747 
Q 363 2384 891 2900 
Q 1097 3100 1353 3213 
Q 913 3459 1000 3900 
Q 1166 4750 2544 4750 
Q 3234 4750 3566 4531 
L 3472 4053 
z
M 1753 3056 
Q 1525 2966 1306 2738 
Q 969 2384 847 1747 
Q 722 1113 919 756 
Q 1119 397 1584 397 
Q 2044 397 2381 759 
Q 2722 1122 2838 1716 
Q 2956 2338 2731 2638 
Q 2491 2959 2103 2994 
Q 1906 3013 1753 3056 
z
" transform="scale(0.015625)"/>
       <path id="DejaVuSans-41" d="M 2188 4044 
L 1331 1722 
L 3047 1722 
L 2188 4044 
z
M 1831 4666 
L 2547 4666 
L 4325 0 
L 3669 0 
L 3244 1197 
L 1141 1197 
L 716 0 
L 50 0 
L 1831 4666 
z
" transform="scale(0.015625)"/>
       <path id="DejaVuSans-2f" d="M 1625 4666 
L 2156 4666 
L 531 -594 
L 0 -594 
L 1625 4666 
z
" transform="scale(0.015625)"/>
      </defs>
      <use xlink:href="#DejaVuSans-7c" transform="translate(0 0.578125)"/>
      <use xlink:href="#DejaVuSans-7c" transform="translate(33.691406 0.578125)"/>
      <use xlink:href="#DejaVuSans-Oblique-3b4" transform="translate(67.382812 0.578125)"/>
      <use xlink:href="#DejaVuSans-41" transform="translate(128.564453 0.578125)"/>
      <use xlink:href="#DejaVuSans-7c" transform="translate(196.972656 0.578125)"/>
      <use xlink:href="#DejaVuSans-7c" transform="translate(230.664062 0.578125)"/>
      <use xlink:href="#DejaVuSans-2f" transform="translate(264.355469 0.578125)"/>
      <use xlink:href="#DejaVuSans-7c" transform="translate(298.046875 0.578125)"/>
      <use xlink:href="#DejaVuSans-7c" transform="translate(331.738281 0.578125)"/>
      <use xlink:href="#DejaVuSans-41" transform="translate(365.429688 0.578125)"/>
      <use xlink:href="#DejaVuSans-7c" transform="translate(433.837891 0.578125)"/>
      <use xlink:href="#DejaVuSans-7c" transform="translate(467.529297 0.578125)"/>
     </g>
    </g>
   </g>
   <g id="matplotlib.axis_2">
    <g id="ytick_1">
     <g id="line2d_13">
      <path d="M 57.6 274.661453 
L 414.72 274.661453 
" clip-path="url(#pe73a69e595)" style="fill: none; stroke: #b0b0b0; stroke-width: 0.8; stroke-linecap: square"/>
     </g>
     <g id="line2d_14">
      <defs>
       <path id="m930034c5eb" d="M 0 0 
L -3.5 0 
" style="stroke: #000000; stroke-width: 0.8"/>
      </defs>
      <g>
       <use xlink:href="#m930034c5eb" x="57.6" y="274.661453" style="stroke: #000000; stroke-width: 0.8"/>
      </g>
     </g>
     <g id="text_8">
      <!-- $\mathdefault{10^{-9}}$ -->
      <g transform="translate(27.1 278.460672) scale(0.1 -0.1)">
       <use xlink:href="#DejaVuSans-31" transform="translate(0 0.765625)"/>
       <use xlink:href="#DejaVuSans-30" transform="translate(63.623047 0.765625)"/>
       <use xlink:href="#DejaVuSans-2212" transform="translate(128.203125 39.046875) scale(0.7)"/>
       <use xlink:href="#DejaVuSans-39" transform="translate(186.855469 39.046875) scale(0.7)"/>
      </g>
     </g>
    </g>
    <g id="ytick_2">
     <g id="line2d_15">
      <path d="M 57.6 240.945724 
L 414.72 240.945724 
" clip-path="url(#pe73a69e595)" style="fill: none; stroke: #b0b0b0; stroke-width: 0.8; stroke-linecap: square"/>
     </g>
     <g id="line2d_16">
      <g>
       <use xlink:href="#m930034c5eb" x="57.6" y="240.945724" style="stroke: #000000; stroke-width: 0.8"/>
      </g>
     </g>
     <g id="text_9">
      <!-- $\mathdefault{10^{-7}}$ -->
      <g transform="translate(27.1 244.744943) scale(0.1 -0.1)">
       <use xlink:href="#DejaVuSans-31" transform="translate(0 0.684375)"/>
       <use xlink:href="#DejaVuSans-30" transform="translate(63.623047 0.684375)"/>
       <use xlink:href="#DejaVuSans-2212" transform="translate(128.203125 38.965625) scale(0.7)"/>
       <use xlink:href="#DejaVuSans-37" transform="translate(186.855469 38.965625) scale(0.7)"/>
      </g>
     </g>
    </g>
    <g id="ytick_3">
     <g id="line2d_17">
      <path d="M 57.6 207.229995 
L 414.72 207.229995 
" clip-path="url(#pe73a69e595)" style="fill: none; stroke: #b0b0b0; stroke-width: 0.8; stroke-linecap: square"/>
     </g>
     <g id="line2d_18">
      <g>
       <use xlink:href="#m930034c5eb" x="57.6" y="207.229995" style="stroke: #000000; stroke-width: 0.8"/>
      </g>
     </g>
     <g id="text_10">
      <!-- $\mathdefault{10^{-5}}$ -->
      <g transform="translate(27.1 211.029214) scale(0.1 -0.1)">
       <use xlink:href="#DejaVuSans-31" transform="translate(0 0.684375)"/>
       <use xlink:href="#DejaVuSans-30" transform="translate(63.623047 0.684375)"/>
       <use xlink:href="#DejaVuSans-2212" transform="translate(128.203125 38.965625) scale(0.7)"/>
       <use xlink:href="#DejaVuSans-35" transform="translate(186.855469 38.965625) scale(0.7)"/>
      </g>
     </g>
    </g>
    <g id="ytick_4">
     <g id="line2d_19">
      <path d="M 57.6 173.514266 
L 414.72 173.514266 
" clip-path="url(#pe73a69e595)" style="fill: none; stroke: #b0b0b0; stroke-width: 0.8; stroke-linecap: square"/>
     </g>
     <g id="line2d_20">
      <g>
       <use xlink:href="#m930034c5eb" x="57.6" y="173.514266" style="stroke: #000000; stroke-width: 0.8"/>
      </g>
     </g>
     <g id="text_11">
      <!-- $\mathdefault{10^{-3}}$ -->
      <g transform="translate(27.1 177.313484) scale(0.1 -0.1)">
       <use xlink:href="#DejaVuSans-31" transform="translate(0 0.765625)"/>
       <use xlink:href="#DejaVuSans-30" transform="translate(63.623047 0.765625)"/>
       <use xlink:href="#DejaVuSans-2212" transform="translate(128.203125 39.046875) scale(0.7)"/>
       <use xlink:href="#DejaVuSans-33" transform="translate(186.855469 39.046875) scale(0.7)"/>
      </g>
     </g>
    </g>
    <g id="ytick_5">
     <g id="line2d_21">
      <path d="M 57.6 139.798537 
L 414.72 139.798537 
" clip-path="url(#pe73a69e595)" style="fill: none; stroke: #b0b0b0; stroke-width: 0.8; stroke-linecap: square"/>
     </g>
     <g id="line2d_22">
      <g>
       <use xlink:href="#m930034c5eb" x="57.6" y="139.798537" style="stroke: #000000; stroke-width: 0.8"/>
      </g>
     </g>
     <g id="text_12">
      <!-- $\mathdefault{10^{-1}}$ -->
      <g transform="translate(27.1 143.597755) scale(0.1 -0.1)">
       <use xlink:href="#DejaVuSans-31" transform="translate(0 0.684375)"/>
       <use xlink:href="#DejaVuSans-30" transform="translate(63.623047 0.684375)"/>
       <use xlink:href="#DejaVuSans-2212" transform="translate(128.203125 38.965625) scale(0.7)"/>
       <use xlink:href="#DejaVuSans-31" transform="translate(186.855469 38.965625) scale(0.7)"/>
      </g>
     </g>
    </g>
    <g id="ytick_6">
     <g id="line2d_23">
      <path d="M 57.6 106.082807 
L 414.72 106.082807 
" clip-path="url(#pe73a69e595)" style="fill: none; stroke: #b0b0b0; stroke-width: 0.8; stroke-linecap: square"/>
     </g>
     <g id="line2d_24">
      <g>
       <use xlink:href="#m930034c5eb" x="57.6" y="106.082807" style="stroke: #000000; stroke-width: 0.8"/>
      </g>
     </g>
     <g id="text_13">
      <!-- $\mathdefault{10^{1}}$ -->
      <g transform="translate(33 109.882026) scale(0.1 -0.1)">
       <use xlink:href="#DejaVuSans-31" transform="translate(0 0.684375)"/>
       <use xlink:href="#DejaVuSans-30" transform="translate(63.623047 0.684375)"/>
       <use xlink:href="#DejaVuSans-31" transform="translate(128.203125 38.965625) scale(0.7)"/>
      </g>
     </g>
    </g>
    <g id="ytick_7">
     <g id="line2d_25">
      <path d="M 57.6 72.367078 
L 414.72 72.367078 
" clip-path="url(#pe73a69e595)" style="fill: none; stroke: #b0b0b0; stroke-width: 0.8; stroke-linecap: square"/>
     </g>
     <g id="line2d_26">
      <g>
       <use xlink:href="#m930034c5eb" x="57.6" y="72.367078" style="stroke: #000000; stroke-width: 0.8"/>
      </g>
     </g>
     <g id="text_14">
      <!-- $\mathdefault{10^{3}}$ -->
      <g transform="translate(33 76.166297) scale(0.1 -0.1)">
       <use xlink:href="#DejaVuSans-31" transform="translate(0 0.765625)"/>
       <use xlink:href="#DejaVuSans-30" transform="translate(63.623047 0.765625)"/>
       <use xlink:href="#DejaVuSans-33" transform="translate(128.203125 39.046875) scale(0.7)"/>
      </g>
     </g>
    </g>
    <g id="text_15">
     <!-- ||$\delta$x||/||x|| -->
     <g transform="translate(20.7 198.678) rotate(-90) scale(0.1 -0.1)">
      <defs>
       <path id="DejaVuSans-78" d="M 3513 3500 
L 2247 1797 
L 3578 0 
L 2900 0 
L 1881 1375 
L 863 0 
L 184 0 
L 1544 1831 
L 300 3500 
L 978 3500 
L 1906 2253 
L 2834 3500 
L 3513 3500 
z
" transform="scale(0.015625)"/>
      </defs>
      <use xlink:href="#DejaVuSans-7c" transform="translate(0 0.578125)"/>
      <use xlink:href="#DejaVuSans-7c" transform="translate(33.691406 0.578125)"/>
      <use xlink:href="#DejaVuSans-Oblique-3b4" transform="translate(67.382812 0.578125)"/>
      <use xlink:href="#DejaVuSans-78" transform="translate(128.564453 0.578125)"/>
      <use xlink:href="#DejaVuSans-7c" transform="translate(187.744141 0.578125)"/>
      <use xlink:href="#DejaVuSans-7c" transform="translate(221.435547 0.578125)"/>
      <use xlink:href="#DejaVuSans-2f" transform="translate(255.126953 0.578125)"/>
      <use xlink:href="#DejaVuSans-7c" transform="translate(288.818359 0.578125)"/>
      <use xlink:href="#DejaVuSans-7c" transform="translate(322.509766 0.578125)"/>
      <use xlink:href="#DejaVuSans-78" transform="translate(356.201172 0.578125)"/>
      <use xlink:href="#DejaVuSans-7c" transform="translate(415.380859 0.578125)"/>
      <use xlink:href="#DejaVuSans-7c" transform="translate(449.072266 0.578125)"/>
     </g>
    </g>
   </g>
   <g id="line2d_27">
    <path d="M 73.832727 274.985135 
L 74.104292 274.437557 
L 74.505089 274.248502 
L 74.94832 273.859307 
L 75.144923 276.174224 
L 75.713192 273.669093 
L 76.255306 276.83782 
L 76.420297 275.911998 
L 76.779476 275.007238 
L 77.09228 275.658672 
L 77.392385 275.834178 
L 77.733947 274.25778 
L 78.315535 276.646613 
L 78.556768 274.465131 
L 79.007581 275.739325 
L 79.468523 276.205948 
L 79.740301 274.857173 
L 80.019578 275.006283 
L 80.310198 274.174537 
L 80.640232 272.843533 
L 80.99532 274.87374 
L 81.308671 274.802828 
L 81.538154 273.816593 
L 81.887534 273.481323 
L 82.258859 273.391848 
L 82.489745 274.615162 
L 83.192169 274.48326 
L 83.534451 273.956456 
L 83.836197 276.583775 
L 84.210371 275.258837 
L 84.460638 275.748578 
L 84.945303 273.61537 
L 85.248077 273.712632 
L 85.448233 271.861437 
L 85.837953 273.711268 
L 86.155239 272.428841 
L 86.564635 275.178524 
L 86.819715 273.996706 
L 87.128056 275.14061 
L 87.423473 272.554172 
L 87.793648 272.637047 
L 88.354574 277.023794 
L 88.721619 275.058316 
L 89.101343 277.318627 
L 89.440658 276.355505 
L 89.780108 273.869284 
L 90.072622 272.745588 
L 90.367748 277.219049 
L 90.655716 274.422158 
L 91.208331 274.856346 
L 91.457788 272.990858 
L 91.656834 274.145076 
L 91.991069 273.124686 
L 92.35031 280.433333 
L 92.664276 273.360062 
L 92.982831 273.714928 
L 93.235865 270.409224 
L 93.579787 284.891878 
L 93.913936 273.383645 
L 94.29852 281.226804 
L 94.54998 273.297741 
L 94.956498 275.520084 
L 95.230909 274.820654 
L 95.574504 271.046865 
L 95.844313 275.21162 
L 96.461329 274.034349 
L 96.911096 279.893827 
L 97.242653 279.21352 
L 97.503825 272.908487 
L 97.789041 271.324883 
L 98.335928 272.46142 
L 98.450686 277.252494 
L 98.768268 269.81155 
L 99.22721 280.39585 
L 99.513974 284.325458 
L 99.855524 283.249698 
L 100.149666 279.297571 
L 100.454132 286.611742 
L 100.769214 281.466716 
L 101.094167 279.735343 
L 101.465916 295.488 
L 101.726966 284.241049 
L 102.150225 283.220963 
L 102.517931 268.251504 
L 102.57962 282.019226 
L 103.12255 273.267919 
L 103.429046 279.01912 
L 103.871459 275.269482 
L 103.977793 270.864651 
L 104.382519 277.292716 
L 104.719254 274.751022 
L 105.092845 285.42259 
L 105.455775 271.974964 
L 105.622499 275.70339 
L 106.055251 279.325696 
L 106.273611 268.578113 
L 106.662484 277.261483 
L 107.037197 273.924714 
L 107.343989 277.170781 
L 107.608688 273.541096 
L 107.865298 287.57497 
L 108.210019 263.327094 
L 108.614614 265.399386 
L 109.280965 276.139066 
L 109.549381 282.779216 
L 110.189135 275.20795 
L 110.608006 280.195376 
L 110.829846 268.972015 
L 111.22812 264.298862 
L 111.538993 271.658215 
L 111.828309 267.393114 
L 112.315132 279.069669 
L 112.55234 268.712675 
L 112.89302 281.898395 
L 113.095666 275.086559 
L 113.420712 277.852517 
L 113.855036 279.530056 
L 114.1124 275.848421 
L 114.491759 276.71752 
L 114.801146 270.609538 
L 115.181034 266.691381 
L 115.290205 270.799563 
L 115.801642 271.096049 
L 116.021096 264.520809 
L 116.457366 275.983696 
L 116.713761 279.65885 
L 117.081294 266.986063 
L 117.467801 265.873885 
L 117.609105 262.383569 
L 117.947542 260.781312 
L 118.307317 265.822215 
L 118.692008 273.352599 
L 119.002223 276.530453 
L 119.211632 261.539871 
L 119.683823 279.616143 
L 119.91533 267.151871 
L 120.244806 262.449805 
L 120.63653 271.332929 
L 120.931279 264.701347 
L 121.277747 261.447357 
L 121.632934 275.89556 
L 122.258646 261.755954 
L 122.5746 264.524729 
L 122.946709 273.464425 
L 123.231716 258.85408 
L 123.530305 264.125433 
L 123.943631 264.629366 
L 124.250365 255.847568 
L 124.506388 260.573168 
L 125.283112 265.396387 
L 125.38867 258.832442 
L 125.802553 262.66971 
L 126.19368 257.241093 
L 126.390908 269.774336 
L 126.85757 254.499136 
L 127.161926 272.433249 
L 127.493623 262.025041 
L 127.761998 271.679265 
L 128.126491 270.186114 
L 128.483729 256.769987 
L 128.725527 262.729318 
L 128.991793 264.549084 
L 129.41596 260.373465 
L 129.773695 271.742441 
L 130.151651 254.96185 
L 130.499858 261.686751 
L 130.636255 260.042842 
L 130.953813 252.869472 
L 131.320983 263.586306 
L 131.784523 262.460883 
L 132.095406 258.762242 
L 132.305176 251.840447 
L 132.692024 260.335634 
L 132.897298 267.976231 
L 133.257506 259.558386 
L 133.673674 252.797307 
L 134.02803 256.669241 
L 134.215053 256.898325 
L 134.766789 255.802229 
L 135.119222 258.857262 
L 135.728764 270.63687 
L 135.880502 263.098149 
L 136.228666 251.847624 
L 136.486616 251.063668 
L 136.927768 264.437422 
L 137.149715 259.828346 
L 137.444984 260.031858 
L 137.837077 252.032839 
L 138.239356 258.094114 
L 138.391311 244.875006 
L 138.96273 248.700756 
L 139.209855 254.232501 
L 139.368569 251.47865 
L 139.773297 257.469863 
L 140.23314 259.100995 
L 140.451541 255.227571 
L 140.776243 254.58837 
L 141.123617 248.443598 
L 141.431944 254.623918 
L 141.791459 258.152996 
L 142.119212 253.84346 
L 142.169418 260.632861 
L 142.715547 259.692979 
L 142.965984 258.899193 
L 143.338823 254.745847 
L 143.757043 253.797938 
L 144.241548 266.620513 
L 144.728989 269.519046 
L 145.021927 254.550792 
L 145.283277 255.803712 
L 145.728105 249.745444 
L 146.096714 258.525256 
L 146.289427 243.404329 
L 146.554449 252.762467 
L 146.764043 250.911154 
L 147.244717 258.115979 
L 147.576343 247.794138 
L 147.893626 251.424668 
L 148.264094 260.509696 
L 148.485145 249.683846 
L 149.142874 255.223151 
L 149.668482 243.23578 
L 149.941718 244.230769 
L 150.277703 258.482455 
L 150.534837 249.879898 
L 150.734968 248.346261 
L 151.080069 259.983642 
L 151.462036 250.558611 
L 151.825158 249.771834 
L 152.134361 237.599067 
L 152.729363 256.754392 
L 153.109946 259.034563 
L 153.555469 238.785798 
L 154.008183 250.579465 
L 154.47417 237.994502 
L 154.795591 250.320327 
L 155.147328 246.379274 
L 155.404816 245.920134 
L 155.808016 257.799788 
L 156.014447 238.094155 
L 156.521016 248.927804 
L 156.841649 248.198701 
L 157.160786 243.661904 
L 157.341771 252.593417 
L 158.017249 239.830879 
L 158.28121 250.219572 
L 158.659724 244.128999 
L 159.091666 239.46091 
L 159.290087 240.713193 
L 159.566302 237.850125 
L 160.19794 259.624502 
L 160.604605 235.258026 
L 160.923824 236.220695 
L 161.373307 234.351218 
L 161.572084 245.773127 
L 161.95643 250.703049 
L 162.241044 246.32821 
L 162.629524 253.464353 
L 162.948583 243.788332 
L 163.123534 256.396593 
L 163.521007 233.451423 
L 163.904959 235.374951 
L 164.17737 230.685564 
L 164.466424 241.066608 
L 164.871903 233.863777 
L 164.986741 240.445175 
L 165.480098 233.753511 
L 165.830558 246.366444 
L 166.198164 238.003778 
L 166.435152 241.36706 
L 166.803097 236.114431 
L 167.234962 236.579983 
L 167.303052 252.382858 
L 167.927865 249.220485 
L 168.049524 239.155641 
L 168.500895 238.933454 
L 168.713965 238.977463 
L 169.394498 229.882908 
L 169.720595 229.814002 
L 169.973875 244.33021 
L 170.303225 242.869883 
L 170.786999 243.775062 
L 171.229645 228.646717 
L 171.685856 230.950609 
L 171.998299 249.745189 
L 172.34454 230.329545 
L 172.730374 226.782529 
L 172.910207 231.467028 
L 173.260449 233.222764 
L 173.640561 241.29954 
L 174.06138 242.213136 
L 174.338597 232.920324 
L 174.610671 248.969195 
L 174.848893 230.867632 
L 175.350783 238.037504 
L 175.619642 232.673325 
L 176.037436 235.153637 
L 176.226709 232.132862 
L 176.63645 232.460373 
L 176.842949 231.490269 
L 177.306181 233.82956 
L 177.527262 247.29988 
L 178.05854 231.990644 
L 178.398048 236.773834 
L 178.905379 226.896312 
L 179.390697 236.665035 
L 179.854964 225.927813 
L 180.002056 239.768731 
L 180.467436 234.21262 
L 180.759473 236.264447 
L 181.074608 230.933454 
L 181.491155 231.695813 
L 181.798569 218.6076 
L 182.165605 224.047127 
L 182.432765 241.206718 
L 182.606669 236.381026 
L 182.957482 241.064788 
L 183.264891 223.192492 
L 183.671701 228.689531 
L 184.025126 221.022606 
L 184.441844 239.670892 
L 184.669486 220.602247 
L 185.03978 226.127189 
L 185.405021 229.526355 
L 185.575294 226.160861 
L 186.067721 230.417823 
L 186.343969 224.233783 
L 186.815517 224.418244 
L 187.312798 221.059045 
L 187.590612 229.256024 
L 187.917498 222.069478 
L 188.249663 235.040021 
L 188.423645 222.08584 
L 188.885976 223.476201 
L 189.304822 227.491027 
L 189.545955 223.219003 
L 189.890632 225.689911 
L 190.199519 220.889409 
L 190.547007 227.994932 
L 190.974344 222.808063 
L 191.165339 222.257578 
L 191.451826 233.273065 
L 191.687142 224.165441 
L 192.103792 224.14198 
L 192.446194 222.661307 
L 192.926312 216.995802 
L 193.099998 219.604896 
L 193.37017 217.090546 
L 193.724002 225.802341 
L 193.984667 224.548364 
L 194.435987 212.401222 
L 194.744834 214.290447 
L 195.049269 213.337694 
L 195.293546 220.566409 
L 195.740913 229.560268 
L 196.041546 229.080495 
L 196.2967 219.414765 
L 196.837777 216.632399 
L 196.991051 217.736066 
L 197.397613 224.488653 
L 197.662073 211.81003 
L 198.262167 226.823181 
L 199.028386 214.658104 
L 199.346806 220.115047 
L 199.508446 213.366208 
L 200.023163 213.5081 
L 200.206078 221.228567 
L 200.620551 233.907807 
L 201.001187 209.436787 
L 201.334496 210.705857 
L 201.4514 225.402045 
L 201.920973 212.642877 
L 202.192788 233.372942 
L 202.576153 209.017265 
L 202.829093 221.092792 
L 203.234178 217.350351 
L 203.49237 218.353403 
L 204.094445 207.723773 
L 204.339207 210.619201 
L 204.772938 220.392307 
L 205.187053 216.837683 
L 205.738464 205.77273 
L 206.224715 208.957883 
L 206.419257 220.308801 
L 206.751427 223.954232 
L 207.088821 206.651846 
L 207.436676 208.68838 
L 207.778738 217.34112 
L 208.165822 214.460968 
L 208.359794 211.701813 
L 208.708474 215.569784 
L 209.020479 211.749893 
L 209.483486 219.329494 
L 209.755701 208.803696 
L 210.042672 219.856406 
L 210.29387 210.354686 
L 210.711248 208.563355 
L 211.043251 225.391717 
L 211.298619 204.426138 
L 211.606306 223.266534 
L 212.030617 219.300851 
L 212.163315 206.379415 
L 212.641892 203.47649 
L 212.842519 212.702492 
L 213.282867 205.981552 
L 213.525713 220.264715 
L 213.862262 207.66687 
L 214.242154 204.117248 
L 214.667129 212.661118 
L 214.9376 210.253698 
L 215.274648 209.639226 
L 215.535122 217.322346 
L 215.95285 198.288046 
L 216.226785 214.332357 
L 216.456682 212.227313 
L 216.677337 198.739233 
L 217.066409 203.266846 
L 217.489933 210.898647 
L 217.81688 212.507913 
L 218.17025 202.279823 
L 218.716103 211.445439 
L 219.084264 199.601499 
L 219.500809 208.167556 
L 219.712829 200.736942 
L 220.384037 202.667715 
L 220.73379 210.018959 
L 221.049483 202.477081 
L 221.37435 199.834344 
L 221.809243 200.487694 
L 222.100664 200.62359 
L 222.510764 205.469246 
L 222.785841 204.695061 
L 222.978339 197.579999 
L 223.330998 205.814221 
L 223.616928 200.999666 
L 224.102662 199.337462 
L 224.291531 193.682646 
L 224.617989 204.509243 
L 225.060654 210.447834 
L 225.260151 198.72848 
L 225.701467 214.540355 
L 225.911561 214.225293 
L 226.247932 200.931301 
L 226.672208 200.063125 
L 226.835794 207.306696 
L 227.308107 202.291717 
L 227.49191 195.607931 
L 227.921115 201.525179 
L 228.304015 196.367247 
L 228.533498 215.702013 
L 228.935673 201.4923 
L 229.124347 211.007862 
L 229.542471 215.011678 
L 229.870701 199.648266 
L 230.228685 198.20994 
L 230.365017 207.475442 
L 230.866527 193.65436 
L 231.090407 194.446081 
L 231.423472 196.306525 
L 231.728821 210.250354 
L 232.286452 201.657027 
L 232.393858 194.895115 
L 232.769492 191.42591 
L 233.151105 204.395744 
L 233.483955 188.397679 
L 234.383551 203.244922 
L 234.754218 197.246724 
L 235.047828 190.186485 
L 235.314377 196.885744 
L 235.679373 200.253822 
L 235.993054 196.104041 
L 236.373898 193.305583 
L 236.759886 194.372772 
L 237.010984 189.253076 
L 237.368883 194.899961 
L 237.751409 188.880633 
L 237.926455 199.01787 
L 238.390199 196.842086 
L 238.705682 185.359268 
L 238.829506 188.392399 
L 239.898488 197.642421 
L 240.176355 185.864236 
L 240.594169 203.625959 
L 240.966105 193.037639 
L 241.280427 208.696516 
L 241.513538 194.583714 
L 241.902557 205.158472 
L 242.163271 189.210068 
L 242.474497 185.705529 
L 242.742588 192.58308 
L 243.297551 198.690371 
L 243.474528 187.211212 
L 243.935794 191.956704 
L 244.137631 195.462112 
L 244.622787 195.776811 
L 244.821747 197.383147 
L 245.242975 178.626555 
L 245.451609 186.988819 
L 245.708417 184.398536 
L 246.007133 197.854359 
L 246.423283 194.944018 
L 246.721295 199.992227 
L 247.103667 188.377312 
L 247.56836 184.03265 
L 247.775763 184.157478 
L 248.148477 181.48704 
L 248.377024 190.168037 
L 249.02586 180.9845 
L 249.303209 188.310783 
L 249.773341 192.013692 
L 250.046708 191.242085 
L 250.272132 194.862002 
L 250.692703 195.653565 
L 250.850946 183.49267 
L 251.338452 187.304161 
L 251.560392 193.409386 
L 251.941207 176.696722 
L 252.285987 176.702506 
L 252.590249 186.839764 
L 253.272193 183.343349 
L 253.485575 177.952884 
L 253.916322 179.075762 
L 254.236849 178.927789 
L 254.605049 184.112829 
L 254.961841 173.583943 
L 255.132167 179.317988 
L 255.922814 189.426523 
L 256.249239 178.162362 
L 256.432959 183.631689 
L 256.847761 177.97042 
L 257.412606 185.362379 
L 258.318837 189.727956 
L 258.684294 180.540243 
L 259.113901 195.041457 
L 259.486373 181.232794 
L 259.744118 178.382204 
L 260.033103 188.231501 
L 260.281382 173.638314 
L 261.050544 179.522216 
L 261.248577 176.980902 
L 261.794583 183.945085 
L 261.839697 186.76193 
L 262.338008 176.972836 
L 262.693812 176.240477 
L 263.094542 176.962555 
L 263.253759 174.248704 
L 263.577372 172.13222 
L 263.985165 179.941616 
L 264.286265 178.58069 
L 264.611937 182.616348 
L 264.952388 181.006984 
L 265.315535 182.115719 
L 265.574921 178.876584 
L 265.99598 179.38832 
L 266.231491 179.187884 
L 266.534368 179.625394 
L 266.986848 186.118787 
L 267.157457 174.223448 
L 267.662539 173.184536 
L 267.993404 174.565419 
L 268.239093 166.098912 
L 268.738103 191.154969 
L 269.251704 171.574399 
L 269.519283 172.006211 
L 269.846097 185.797191 
L 270.006982 176.428849 
L 270.461765 172.226172 
L 270.69195 173.305916 
L 271.053553 179.713857 
L 271.49711 167.313207 
L 271.831717 169.318472 
L 271.942914 164.357338 
L 272.478697 173.522035 
L 272.845508 166.572072 
L 273.115813 183.132628 
L 273.421987 172.843862 
L 273.778678 172.926746 
L 274.153437 171.335509 
L 274.375311 171.326068 
L 274.771368 172.304593 
L 275.033171 178.286723 
L 275.407395 173.894899 
L 275.753656 161.797729 
L 276.161893 168.690541 
L 276.318325 173.652271 
L 276.703448 180.821613 
L 276.988584 168.003849 
L 277.475526 167.995858 
L 277.537353 163.30578 
L 277.926406 164.943946 
L 278.124817 167.947852 
L 278.602186 163.535865 
L 278.952676 162.610564 
L 279.286823 164.736372 
L 280.111985 176.874311 
L 280.517741 160.498673 
L 281.022293 159.253924 
L 281.188821 163.725973 
L 281.614048 182.286319 
L 281.858693 158.605734 
L 282.256809 179.597477 
L 282.55968 166.799903 
L 282.772541 169.987292 
L 283.082717 170.926504 
L 283.446829 178.639813 
L 283.936836 165.051299 
L 284.113734 171.065507 
L 284.762077 157.813832 
L 285.142145 159.83751 
L 285.327097 161.940477 
L 285.811892 170.400282 
L 286.008335 170.492086 
L 286.384013 165.260437 
L 286.79864 162.048175 
L 287.007661 156.665302 
L 287.537385 167.105114 
L 287.701304 174.821178 
L 287.977137 158.147982 
L 288.304627 161.983737 
L 288.61388 164.125291 
L 289.056606 158.706874 
L 289.364174 165.596119 
L 289.638851 167.724436 
L 289.891898 154.376631 
L 290.297773 154.791644 
L 290.623443 161.969793 
L 291.045256 157.677219 
L 291.305172 156.66547 
L 291.575843 165.957809 
L 291.93649 157.91562 
L 292.265325 161.36977 
L 292.602418 159.933027 
L 292.970227 161.439973 
L 293.17088 153.879874 
L 293.498863 156.864174 
L 293.850152 165.389508 
L 294.272056 167.097866 
L 294.52573 166.930753 
L 295.075874 152.902928 
L 295.595546 154.312215 
L 295.750583 152.546834 
L 296.218852 168.764587 
L 296.58704 151.322349 
L 297.151968 173.601833 
L 297.592967 157.120755 
L 297.829699 162.658428 
L 298.026369 170.071464 
L 298.417349 158.510582 
L 298.779987 172.58035 
L 299.058061 148.347666 
L 299.429429 157.096803 
L 299.709211 152.155901 
L 300.029897 152.89171 
L 300.425568 163.477118 
L 300.765934 157.38925 
L 300.997499 164.002408 
L 301.377013 168.518096 
L 301.66146 161.402645 
L 301.920164 150.337501 
L 302.345735 151.321802 
L 302.644793 159.163294 
L 302.973112 157.104546 
L 303.221222 153.843899 
L 303.60456 153.03788 
L 303.968051 161.160779 
L 304.209494 153.564299 
L 304.734393 162.294947 
L 304.882014 156.111403 
L 305.218145 151.961019 
L 305.58967 151.059062 
L 305.868423 162.50145 
L 306.212909 153.745961 
L 306.825724 151.048563 
L 307.171944 157.010748 
L 307.566612 151.298268 
L 307.968297 154.958769 
L 308.550269 164.476715 
L 308.797056 142.526125 
L 309.126933 152.328047 
L 309.66689 153.035486 
L 309.851555 151.035081 
L 310.119529 144.137001 
L 310.494536 143.91952 
L 310.820003 163.691037 
L 311.004671 144.588607 
L 311.360963 153.266413 
L 311.64638 146.612339 
L 312.048131 144.240606 
L 312.565662 148.248908 
L 312.754678 146.310786 
L 312.946309 140.804969 
L 313.336226 143.190811 
L 313.702962 146.54774 
L 314.14022 158.177057 
L 314.371318 149.966679 
L 314.808088 146.898336 
L 314.970524 149.816273 
L 315.31097 147.619588 
L 315.658239 140.698187 
L 316.034344 157.11615 
L 316.438316 137.13587 
L 316.601967 135.864257 
L 317.069995 145.112995 
L 317.322084 153.602851 
L 317.572002 140.253965 
L 317.962 150.502409 
L 318.303495 144.775211 
L 318.542431 137.522903 
L 318.858345 162.025321 
L 319.401455 149.916144 
L 319.579459 143.138262 
L 319.922195 152.503445 
L 320.282437 147.74647 
L 320.597918 156.023529 
L 320.831127 146.777802 
L 321.238126 145.214169 
L 321.489349 152.187647 
L 321.810947 138.239181 
L 322.091297 142.842658 
L 322.462951 146.468316 
L 322.80323 143.802092 
L 323.137534 153.841715 
L 323.485997 140.080441 
L 324.161728 127.608639 
L 324.422157 144.074346 
L 324.731723 137.46632 
L 325.105422 139.486266 
L 325.270382 132.789619 
L 325.690719 139.947802 
L 325.990232 140.659969 
L 326.380365 135.49186 
L 326.768391 133.353437 
L 327.058752 142.616934 
L 327.345508 128.042712 
L 327.781969 137.63629 
L 328.160564 132.664744 
L 328.278147 136.158406 
L 328.628318 140.907986 
L 328.995199 134.772362 
L 329.323199 146.591816 
L 329.678704 135.410469 
L 329.954694 146.152332 
L 330.285156 131.55131 
L 330.608607 140.760351 
L 330.923186 131.925732 
L 331.15236 136.560925 
L 331.510866 133.287277 
L 331.92816 141.076567 
L 332.195505 148.365218 
L 332.509795 125.370176 
L 332.947427 133.4906 
L 333.278582 123.778327 
L 333.514043 136.281288 
L 333.863772 137.514331 
L 334.170755 132.860216 
L 334.467189 133.800333 
L 334.804244 136.025307 
L 335.148397 129.813672 
L 335.615719 114.615728 
L 335.817833 132.929488 
L 336.104488 136.610537 
L 336.444067 132.727026 
L 336.801449 131.606356 
L 337.073774 138.301012 
L 337.447426 142.095126 
L 337.818116 114.283164 
L 338.103573 139.175613 
L 338.47303 136.433246 
L 338.824921 142.765575 
L 338.988998 128.288161 
L 339.377081 127.603816 
L 339.820539 136.197402 
L 340.176364 111.190739 
L 340.344219 128.915627 
L 340.737093 139.882898 
L 341.016581 129.471069 
L 341.344661 142.513169 
L 341.698527 137.671283 
L 341.974702 131.738469 
L 342.293769 131.251282 
L 342.634473 139.375437 
L 342.89532 95.923775 
L 343.283431 140.436444 
L 343.581948 109.775555 
L 343.984733 115.868747 
L 344.251899 136.812489 
L 344.713204 110.1998 
L 344.911798 129.222234 
L 345.516489 133.61315 
L 345.826137 127.853479 
L 346.262453 134.783212 
L 346.648256 139.017646 
L 347.180166 128.407856 
L 347.399811 138.036661 
L 347.869549 126.155553 
L 348.241695 133.554156 
L 348.59777 136.208633 
L 348.785266 112.889601 
L 349.230043 126.014828 
L 349.731849 111.210443 
L 350.114963 129.023424 
L 350.45026 111.54066 
L 350.680834 126.149976 
L 351.060651 134.99085 
L 351.379434 126.017941 
L 351.790667 119.633586 
L 352.073868 119.09681 
L 352.44609 125.955033 
L 352.717367 124.734168 
L 352.978844 130.635689 
L 353.446644 132.099263 
L 354.065024 121.028984 
L 354.340724 119.446904 
L 354.711066 118.345689 
L 355.034269 109.098804 
L 355.332325 124.883221 
L 355.697476 115.481077 
L 356.059153 127.408783 
L 356.302751 126.18424 
L 356.627347 126.148571 
L 356.902283 103.94624 
L 357.391163 133.220435 
L 357.497317 120.301712 
L 357.997463 124.736086 
L 358.370695 118.670505 
L 358.806757 123.784068 
L 359.237191 135.975911 
L 359.592818 120.689408 
L 359.958748 126.856285 
L 360.242677 124.95315 
L 360.560332 125.263559 
L 360.803137 120.254801 
L 361.251466 119.809747 
L 361.443051 125.775827 
L 361.768096 125.925311 
L 362.196085 116.42504 
L 362.503888 121.71436 
L 362.79232 120.321444 
L 363.139525 125.542631 
L 363.538136 125.976087 
L 364.065601 121.632441 
L 364.33144 129.673568 
L 364.828706 122.142173 
L 365.02261 84.054678 
L 365.41143 121.876105 
L 365.714584 124.07994 
L 366.132782 122.892406 
L 366.413833 123.773999 
L 366.819073 124.648012 
L 367.0316 121.212086 
L 367.27158 123.411427 
L 367.685274 121.272352 
L 367.96001 124.173713 
L 368.246421 123.411746 
L 368.652199 127.206137 
L 368.948602 122.123452 
L 369.32543 123.653425 
L 369.664307 119.873873 
L 370.202838 123.48329 
L 370.52079 125.813082 
L 370.869719 119.488332 
L 371.207935 124.316723 
L 371.583143 123.321425 
L 371.968818 116.912194 
L 372.228078 125.802941 
L 372.625765 123.408747 
L 372.829937 120.490642 
L 373.288989 123.16384 
L 373.549456 122.637262 
L 373.835855 122.729322 
L 374.024438 114.962854 
L 374.484835 122.993446 
L 374.876764 122.324968 
L 375.164982 122.750909 
L 375.552182 122.671021 
L 375.788883 123.563256 
L 376.189104 123.266554 
L 376.595873 122.455188 
L 376.838558 124.427907 
L 377.114576 122.774146 
L 377.427483 123.199058 
L 377.881493 123.020055 
L 378.071362 123.284822 
L 378.708359 122.507002 
L 379.023468 117.466817 
L 379.339343 124.639002 
L 379.712151 123.47845 
L 380.111475 122.710492 
L 380.354089 122.857028 
L 380.69043 123.83332 
L 381.514903 122.687218 
L 381.908933 123.293588 
L 382.259148 123.541033 
L 382.598556 122.941837 
L 382.911274 122.878796 
L 383.648413 123.101142 
L 383.805703 119.583052 
L 384.371224 123.152063 
L 384.544825 122.736492 
L 384.786343 122.981186 
L 385.221574 122.804612 
L 385.958464 122.928905 
L 386.253316 122.748696 
L 386.543495 96.089433 
L 386.850539 114.034938 
L 387.301643 123.208528 
L 387.485646 122.837547 
L 387.737614 122.639845 
L 388.422391 123.057242 
L 388.93006 122.965603 
L 389.22725 123.352117 
L 389.480302 122.861287 
L 390.107173 123.062127 
L 390.517878 122.913295 
L 390.755613 117.840162 
L 391.104669 122.947156 
L 391.427218 122.117377 
L 391.75651 123.147555 
L 392.167393 122.517589 
L 392.403112 123.176215 
L 392.729226 123.240819 
L 393.016297 121.347069 
L 393.317196 122.69188 
L 394.371154 123.131946 
L 394.583883 122.752767 
L 394.90953 123.067806 
L 395.434939 122.522663 
L 395.693921 122.894534 
L 396.048754 122.995736 
L 396.317371 123.358373 
L 396.42634 119.047158 
L 396.909034 122.948052 
L 397.671658 122.72417 
L 397.852503 122.935422 
L 398.487273 122.94707 
L 398.487273 122.94707 
" clip-path="url(#pe73a69e595)" style="fill: none; stroke: #1f77b4; stroke-width: 1.5; stroke-linecap: square"/>
   </g>
   <g id="line2d_28">
    <path d="M 73.832727 255.802425 
L 398.487273 53.568 
L 398.487273 53.568 
" clip-path="url(#pe73a69e595)" style="fill: none; stroke: #ff7f0e; stroke-width: 1.5; stroke-linecap: square"/>
   </g>
   <g id="patch_3">
    <path d="M 57.6 307.584 
L 57.6 41.472 
" style="fill: none; stroke: #000000; stroke-width: 0.8; stroke-linejoin: miter; stroke-linecap: square"/>
   </g>
   <g id="patch_4">
    <path d="M 414.72 307.584 
L 414.72 41.472 
" style="fill: none; stroke: #000000; stroke-width: 0.8; stroke-linejoin: miter; stroke-linecap: square"/>
   </g>
   <g id="patch_5">
    <path d="M 57.6 307.584 
L 414.72 307.584 
" style="fill: none; stroke: #000000; stroke-width: 0.8; stroke-linejoin: miter; stroke-linecap: square"/>
   </g>
   <g id="patch_6">
    <path d="M 57.6 41.472 
L 414.72 41.472 
" style="fill: none; stroke: #000000; stroke-width: 0.8; stroke-linejoin: miter; stroke-linecap: square"/>
   </g>
   <g id="text_16">
    <!-- Perturbation when A is disturbed (m = 100) -->
    <g transform="translate(105.013125 35.472) scale(0.12 -0.12)">
     <defs>
      <path id="DejaVuSans-50" d="M 1259 4147 
L 1259 2394 
L 2053 2394 
Q 2494 2394 2734 2622 
Q 2975 2850 2975 3272 
Q 2975 3691 2734 3919 
Q 2494 4147 2053 4147 
L 1259 4147 
z
M 628 4666 
L 2053 4666 
Q 2838 4666 3239 4311 
Q 3641 3956 3641 3272 
Q 3641 2581 3239 2228 
Q 2838 1875 2053 1875 
L 1259 1875 
L 1259 0 
L 628 0 
L 628 4666 
z
" transform="scale(0.015625)"/>
      <path id="DejaVuSans-65" d="M 3597 1894 
L 3597 1613 
L 953 1613 
Q 991 1019 1311 708 
Q 1631 397 2203 397 
Q 2534 397 2845 478 
Q 3156 559 3463 722 
L 3463 178 
Q 3153 47 2828 -22 
Q 2503 -91 2169 -91 
Q 1331 -91 842 396 
Q 353 884 353 1716 
Q 353 2575 817 3079 
Q 1281 3584 2069 3584 
Q 2775 3584 3186 3129 
Q 3597 2675 3597 1894 
z
M 3022 2063 
Q 3016 2534 2758 2815 
Q 2500 3097 2075 3097 
Q 1594 3097 1305 2825 
Q 1016 2553 972 2059 
L 3022 2063 
z
" transform="scale(0.015625)"/>
      <path id="DejaVuSans-72" d="M 2631 2963 
Q 2534 3019 2420 3045 
Q 2306 3072 2169 3072 
Q 1681 3072 1420 2755 
Q 1159 2438 1159 1844 
L 1159 0 
L 581 0 
L 581 3500 
L 1159 3500 
L 1159 2956 
Q 1341 3275 1631 3429 
Q 1922 3584 2338 3584 
Q 2397 3584 2469 3576 
Q 2541 3569 2628 3553 
L 2631 2963 
z
" transform="scale(0.015625)"/>
      <path id="DejaVuSans-74" d="M 1172 4494 
L 1172 3500 
L 2356 3500 
L 2356 3053 
L 1172 3053 
L 1172 1153 
Q 1172 725 1289 603 
Q 1406 481 1766 481 
L 2356 481 
L 2356 0 
L 1766 0 
Q 1100 0 847 248 
Q 594 497 594 1153 
L 594 3053 
L 172 3053 
L 172 3500 
L 594 3500 
L 594 4494 
L 1172 4494 
z
" transform="scale(0.015625)"/>
      <path id="DejaVuSans-75" d="M 544 1381 
L 544 3500 
L 1119 3500 
L 1119 1403 
Q 1119 906 1312 657 
Q 1506 409 1894 409 
Q 2359 409 2629 706 
Q 2900 1003 2900 1516 
L 2900 3500 
L 3475 3500 
L 3475 0 
L 2900 0 
L 2900 538 
Q 2691 219 2414 64 
Q 2138 -91 1772 -91 
Q 1169 -91 856 284 
Q 544 659 544 1381 
z
M 1991 3584 
L 1991 3584 
z
" transform="scale(0.015625)"/>
      <path id="DejaVuSans-62" d="M 3116 1747 
Q 3116 2381 2855 2742 
Q 2594 3103 2138 3103 
Q 1681 3103 1420 2742 
Q 1159 2381 1159 1747 
Q 1159 1113 1420 752 
Q 1681 391 2138 391 
Q 2594 391 2855 752 
Q 3116 1113 3116 1747 
z
M 1159 2969 
Q 1341 3281 1617 3432 
Q 1894 3584 2278 3584 
Q 2916 3584 3314 3078 
Q 3713 2572 3713 1747 
Q 3713 922 3314 415 
Q 2916 -91 2278 -91 
Q 1894 -91 1617 61 
Q 1341 213 1159 525 
L 1159 0 
L 581 0 
L 581 4863 
L 1159 4863 
L 1159 2969 
z
" transform="scale(0.015625)"/>
      <path id="DejaVuSans-61" d="M 2194 1759 
Q 1497 1759 1228 1600 
Q 959 1441 959 1056 
Q 959 750 1161 570 
Q 1363 391 1709 391 
Q 2188 391 2477 730 
Q 2766 1069 2766 1631 
L 2766 1759 
L 2194 1759 
z
M 3341 1997 
L 3341 0 
L 2766 0 
L 2766 531 
Q 2569 213 2275 61 
Q 1981 -91 1556 -91 
Q 1019 -91 701 211 
Q 384 513 384 1019 
Q 384 1609 779 1909 
Q 1175 2209 1959 2209 
L 2766 2209 
L 2766 2266 
Q 2766 2663 2505 2880 
Q 2244 3097 1772 3097 
Q 1472 3097 1187 3025 
Q 903 2953 641 2809 
L 641 3341 
Q 956 3463 1253 3523 
Q 1550 3584 1831 3584 
Q 2591 3584 2966 3190 
Q 3341 2797 3341 1997 
z
" transform="scale(0.015625)"/>
      <path id="DejaVuSans-69" d="M 603 3500 
L 1178 3500 
L 1178 0 
L 603 0 
L 603 3500 
z
M 603 4863 
L 1178 4863 
L 1178 4134 
L 603 4134 
L 603 4863 
z
" transform="scale(0.015625)"/>
      <path id="DejaVuSans-6f" d="M 1959 3097 
Q 1497 3097 1228 2736 
Q 959 2375 959 1747 
Q 959 1119 1226 758 
Q 1494 397 1959 397 
Q 2419 397 2687 759 
Q 2956 1122 2956 1747 
Q 2956 2369 2687 2733 
Q 2419 3097 1959 3097 
z
M 1959 3584 
Q 2709 3584 3137 3096 
Q 3566 2609 3566 1747 
Q 3566 888 3137 398 
Q 2709 -91 1959 -91 
Q 1206 -91 779 398 
Q 353 888 353 1747 
Q 353 2609 779 3096 
Q 1206 3584 1959 3584 
z
" transform="scale(0.015625)"/>
      <path id="DejaVuSans-6e" d="M 3513 2113 
L 3513 0 
L 2938 0 
L 2938 2094 
Q 2938 2591 2744 2837 
Q 2550 3084 2163 3084 
Q 1697 3084 1428 2787 
Q 1159 2491 1159 1978 
L 1159 0 
L 581 0 
L 581 3500 
L 1159 3500 
L 1159 2956 
Q 1366 3272 1645 3428 
Q 1925 3584 2291 3584 
Q 2894 3584 3203 3211 
Q 3513 2838 3513 2113 
z
" transform="scale(0.015625)"/>
      <path id="DejaVuSans-20" transform="scale(0.015625)"/>
      <path id="DejaVuSans-77" d="M 269 3500 
L 844 3500 
L 1563 769 
L 2278 3500 
L 2956 3500 
L 3675 769 
L 4391 3500 
L 4966 3500 
L 4050 0 
L 3372 0 
L 2619 2869 
L 1863 0 
L 1184 0 
L 269 3500 
z
" transform="scale(0.015625)"/>
      <path id="DejaVuSans-68" d="M 3513 2113 
L 3513 0 
L 2938 0 
L 2938 2094 
Q 2938 2591 2744 2837 
Q 2550 3084 2163 3084 
Q 1697 3084 1428 2787 
Q 1159 2491 1159 1978 
L 1159 0 
L 581 0 
L 581 4863 
L 1159 4863 
L 1159 2956 
Q 1366 3272 1645 3428 
Q 1925 3584 2291 3584 
Q 2894 3584 3203 3211 
Q 3513 2838 3513 2113 
z
" transform="scale(0.015625)"/>
      <path id="DejaVuSans-73" d="M 2834 3397 
L 2834 2853 
Q 2591 2978 2328 3040 
Q 2066 3103 1784 3103 
Q 1356 3103 1142 2972 
Q 928 2841 928 2578 
Q 928 2378 1081 2264 
Q 1234 2150 1697 2047 
L 1894 2003 
Q 2506 1872 2764 1633 
Q 3022 1394 3022 966 
Q 3022 478 2636 193 
Q 2250 -91 1575 -91 
Q 1294 -91 989 -36 
Q 684 19 347 128 
L 347 722 
Q 666 556 975 473 
Q 1284 391 1588 391 
Q 1994 391 2212 530 
Q 2431 669 2431 922 
Q 2431 1156 2273 1281 
Q 2116 1406 1581 1522 
L 1381 1569 
Q 847 1681 609 1914 
Q 372 2147 372 2553 
Q 372 3047 722 3315 
Q 1072 3584 1716 3584 
Q 2034 3584 2315 3537 
Q 2597 3491 2834 3397 
z
" transform="scale(0.015625)"/>
      <path id="DejaVuSans-64" d="M 2906 2969 
L 2906 4863 
L 3481 4863 
L 3481 0 
L 2906 0 
L 2906 525 
Q 2725 213 2448 61 
Q 2172 -91 1784 -91 
Q 1150 -91 751 415 
Q 353 922 353 1747 
Q 353 2572 751 3078 
Q 1150 3584 1784 3584 
Q 2172 3584 2448 3432 
Q 2725 3281 2906 2969 
z
M 947 1747 
Q 947 1113 1208 752 
Q 1469 391 1925 391 
Q 2381 391 2643 752 
Q 2906 1113 2906 1747 
Q 2906 2381 2643 2742 
Q 2381 3103 1925 3103 
Q 1469 3103 1208 2742 
Q 947 2381 947 1747 
z
" transform="scale(0.015625)"/>
      <path id="DejaVuSans-28" d="M 1984 4856 
Q 1566 4138 1362 3434 
Q 1159 2731 1159 2009 
Q 1159 1288 1364 580 
Q 1569 -128 1984 -844 
L 1484 -844 
Q 1016 -109 783 600 
Q 550 1309 550 2009 
Q 550 2706 781 3412 
Q 1013 4119 1484 4856 
L 1984 4856 
z
" transform="scale(0.015625)"/>
      <path id="DejaVuSans-6d" d="M 3328 2828 
Q 3544 3216 3844 3400 
Q 4144 3584 4550 3584 
Q 5097 3584 5394 3201 
Q 5691 2819 5691 2113 
L 5691 0 
L 5113 0 
L 5113 2094 
Q 5113 2597 4934 2840 
Q 4756 3084 4391 3084 
Q 3944 3084 3684 2787 
Q 3425 2491 3425 1978 
L 3425 0 
L 2847 0 
L 2847 2094 
Q 2847 2600 2669 2842 
Q 2491 3084 2119 3084 
Q 1678 3084 1418 2786 
Q 1159 2488 1159 1978 
L 1159 0 
L 581 0 
L 581 3500 
L 1159 3500 
L 1159 2956 
Q 1356 3278 1631 3431 
Q 1906 3584 2284 3584 
Q 2666 3584 2933 3390 
Q 3200 3197 3328 2828 
z
" transform="scale(0.015625)"/>
      <path id="DejaVuSans-3d" d="M 678 2906 
L 4684 2906 
L 4684 2381 
L 678 2381 
L 678 2906 
z
M 678 1631 
L 4684 1631 
L 4684 1100 
L 678 1100 
L 678 1631 
z
" transform="scale(0.015625)"/>
      <path id="DejaVuSans-29" d="M 513 4856 
L 1013 4856 
Q 1481 4119 1714 3412 
Q 1947 2706 1947 2009 
Q 1947 1309 1714 600 
Q 1481 -109 1013 -844 
L 513 -844 
Q 928 -128 1133 580 
Q 1338 1288 1338 2009 
Q 1338 2731 1133 3434 
Q 928 4138 513 4856 
z
" transform="scale(0.015625)"/>
     </defs>
     <use xlink:href="#DejaVuSans-50"/>
     <use xlink:href="#DejaVuSans-65" x="56.677734"/>
     <use xlink:href="#DejaVuSans-72" x="118.201172"/>
     <use xlink:href="#DejaVuSans-74" x="159.314453"/>
     <use xlink:href="#DejaVuSans-75" x="198.523438"/>
     <use xlink:href="#DejaVuSans-72" x="261.902344"/>
     <use xlink:href="#DejaVuSans-62" x="303.015625"/>
     <use xlink:href="#DejaVuSans-61" x="366.492188"/>
     <use xlink:href="#DejaVuSans-74" x="427.771484"/>
     <use xlink:href="#DejaVuSans-69" x="466.980469"/>
     <use xlink:href="#DejaVuSans-6f" x="494.763672"/>
     <use xlink:href="#DejaVuSans-6e" x="555.945312"/>
     <use xlink:href="#DejaVuSans-20" x="619.324219"/>
     <use xlink:href="#DejaVuSans-77" x="651.111328"/>
     <use xlink:href="#DejaVuSans-68" x="732.898438"/>
     <use xlink:href="#DejaVuSans-65" x="796.277344"/>
     <use xlink:href="#DejaVuSans-6e" x="857.800781"/>
     <use xlink:href="#DejaVuSans-20" x="921.179688"/>
     <use xlink:href="#DejaVuSans-41" x="952.966797"/>
     <use xlink:href="#DejaVuSans-20" x="1021.375"/>
     <use xlink:href="#DejaVuSans-69" x="1053.162109"/>
     <use xlink:href="#DejaVuSans-73" x="1080.945312"/>
     <use xlink:href="#DejaVuSans-20" x="1133.044922"/>
     <use xlink:href="#DejaVuSans-64" x="1164.832031"/>
     <use xlink:href="#DejaVuSans-69" x="1228.308594"/>
     <use xlink:href="#DejaVuSans-73" x="1256.091797"/>
     <use xlink:href="#DejaVuSans-74" x="1308.191406"/>
     <use xlink:href="#DejaVuSans-75" x="1347.400391"/>
     <use xlink:href="#DejaVuSans-72" x="1410.779297"/>
     <use xlink:href="#DejaVuSans-62" x="1451.892578"/>
     <use xlink:href="#DejaVuSans-65" x="1515.369141"/>
     <use xlink:href="#DejaVuSans-64" x="1576.892578"/>
     <use xlink:href="#DejaVuSans-20" x="1640.369141"/>
     <use xlink:href="#DejaVuSans-28" x="1672.15625"/>
     <use xlink:href="#DejaVuSans-6d" x="1711.169922"/>
     <use xlink:href="#DejaVuSans-20" x="1808.582031"/>
     <use xlink:href="#DejaVuSans-3d" x="1840.369141"/>
     <use xlink:href="#DejaVuSans-20" x="1924.158203"/>
     <use xlink:href="#DejaVuSans-31" x="1955.945312"/>
     <use xlink:href="#DejaVuSans-30" x="2019.568359"/>
     <use xlink:href="#DejaVuSans-30" x="2083.191406"/>
     <use xlink:href="#DejaVuSans-29" x="2146.814453"/>
    </g>
   </g>
   <g id="legend_1">
    <g id="patch_7">
     <path d="M 64.6 79.250125 
L 303.5 79.250125 
Q 305.5 79.250125 305.5 77.250125 
L 305.5 48.472 
Q 305.5 46.472 303.5 46.472 
L 64.6 46.472 
Q 62.6 46.472 62.6 48.472 
L 62.6 77.250125 
Q 62.6 79.250125 64.6 79.250125 
z
" style="fill: #ffffff; opacity: 0.8; stroke: #cccccc; stroke-linejoin: miter"/>
    </g>
    <g id="line2d_29">
     <path d="M 66.6 54.570437 
L 76.6 54.570437 
L 86.6 54.570437 
" style="fill: none; stroke: #1f77b4; stroke-width: 1.5; stroke-linecap: square"/>
    </g>
    <g id="text_17">
     <!-- relative solution perturbation -->
     <g transform="translate(94.6 58.070437) scale(0.1 -0.1)">
      <defs>
       <path id="DejaVuSans-6c" d="M 603 4863 
L 1178 4863 
L 1178 0 
L 603 0 
L 603 4863 
z
" transform="scale(0.015625)"/>
       <path id="DejaVuSans-76" d="M 191 3500 
L 800 3500 
L 1894 563 
L 2988 3500 
L 3597 3500 
L 2284 0 
L 1503 0 
L 191 3500 
z
" transform="scale(0.015625)"/>
       <path id="DejaVuSans-70" d="M 1159 525 
L 1159 -1331 
L 581 -1331 
L 581 3500 
L 1159 3500 
L 1159 2969 
Q 1341 3281 1617 3432 
Q 1894 3584 2278 3584 
Q 2916 3584 3314 3078 
Q 3713 2572 3713 1747 
Q 3713 922 3314 415 
Q 2916 -91 2278 -91 
Q 1894 -91 1617 61 
Q 1341 213 1159 525 
z
M 3116 1747 
Q 3116 2381 2855 2742 
Q 2594 3103 2138 3103 
Q 1681 3103 1420 2742 
Q 1159 2381 1159 1747 
Q 1159 1113 1420 752 
Q 1681 391 2138 391 
Q 2594 391 2855 752 
Q 3116 1113 3116 1747 
z
" transform="scale(0.015625)"/>
      </defs>
      <use xlink:href="#DejaVuSans-72"/>
      <use xlink:href="#DejaVuSans-65" x="38.863281"/>
      <use xlink:href="#DejaVuSans-6c" x="100.386719"/>
      <use xlink:href="#DejaVuSans-61" x="128.169922"/>
      <use xlink:href="#DejaVuSans-74" x="189.449219"/>
      <use xlink:href="#DejaVuSans-69" x="228.658203"/>
      <use xlink:href="#DejaVuSans-76" x="256.441406"/>
      <use xlink:href="#DejaVuSans-65" x="315.621094"/>
      <use xlink:href="#DejaVuSans-20" x="377.144531"/>
      <use xlink:href="#DejaVuSans-73" x="408.931641"/>
      <use xlink:href="#DejaVuSans-6f" x="461.03125"/>
      <use xlink:href="#DejaVuSans-6c" x="522.212891"/>
      <use xlink:href="#DejaVuSans-75" x="549.996094"/>
      <use xlink:href="#DejaVuSans-74" x="613.375"/>
      <use xlink:href="#DejaVuSans-69" x="652.583984"/>
      <use xlink:href="#DejaVuSans-6f" x="680.367188"/>
      <use xlink:href="#DejaVuSans-6e" x="741.548828"/>
      <use xlink:href="#DejaVuSans-20" x="804.927734"/>
      <use xlink:href="#DejaVuSans-70" x="836.714844"/>
      <use xlink:href="#DejaVuSans-65" x="900.191406"/>
      <use xlink:href="#DejaVuSans-72" x="961.714844"/>
      <use xlink:href="#DejaVuSans-74" x="1002.828125"/>
      <use xlink:href="#DejaVuSans-75" x="1042.037109"/>
      <use xlink:href="#DejaVuSans-72" x="1105.416016"/>
      <use xlink:href="#DejaVuSans-62" x="1146.529297"/>
      <use xlink:href="#DejaVuSans-61" x="1210.005859"/>
      <use xlink:href="#DejaVuSans-74" x="1271.285156"/>
      <use xlink:href="#DejaVuSans-69" x="1310.494141"/>
      <use xlink:href="#DejaVuSans-6f" x="1338.277344"/>
      <use xlink:href="#DejaVuSans-6e" x="1399.458984"/>
     </g>
    </g>
    <g id="line2d_30">
     <path d="M 66.6 69.350125 
L 76.6 69.350125 
L 86.6 69.350125 
" style="fill: none; stroke: #ff7f0e; stroke-width: 1.5; stroke-linecap: square"/>
    </g>
    <g id="text_18">
     <!-- perturbation upper bound ($\kappa_A$*||$\delta$A||/||A||) -->
     <g transform="translate(94.6 72.850125) scale(0.1 -0.1)">
      <defs>
       <path id="DejaVuSans-Oblique-3ba" d="M 938 3500 
L 1531 3500 
L 1247 2047 
L 3041 3500 
L 3741 3500 
L 2106 2181 
L 3275 0 
L 2572 0 
L 1628 1806 
L 1122 1403 
L 850 0 
L 256 0 
L 938 3500 
z
" transform="scale(0.015625)"/>
       <path id="DejaVuSans-Oblique-41" d="M 2356 4666 
L 3072 4666 
L 3938 0 
L 3278 0 
L 3084 1197 
L 984 1197 
L 325 0 
L -341 0 
L 2356 4666 
z
M 2584 4044 
L 1275 1722 
L 2988 1722 
L 2584 4044 
z
" transform="scale(0.015625)"/>
       <path id="DejaVuSans-2a" d="M 3009 3897 
L 1888 3291 
L 3009 2681 
L 2828 2375 
L 1778 3009 
L 1778 1831 
L 1422 1831 
L 1422 3009 
L 372 2375 
L 191 2681 
L 1313 3291 
L 191 3897 
L 372 4206 
L 1422 3572 
L 1422 4750 
L 1778 4750 
L 1778 3572 
L 2828 4206 
L 3009 3897 
z
" transform="scale(0.015625)"/>
      </defs>
      <use xlink:href="#DejaVuSans-70" transform="translate(0 0.578125)"/>
      <use xlink:href="#DejaVuSans-65" transform="translate(63.476562 0.578125)"/>
      <use xlink:href="#DejaVuSans-72" transform="translate(125 0.578125)"/>
      <use xlink:href="#DejaVuSans-74" transform="translate(166.113281 0.578125)"/>
      <use xlink:href="#DejaVuSans-75" transform="translate(205.322266 0.578125)"/>
      <use xlink:href="#DejaVuSans-72" transform="translate(268.701172 0.578125)"/>
      <use xlink:href="#DejaVuSans-62" transform="translate(309.814453 0.578125)"/>
      <use xlink:href="#DejaVuSans-61" transform="translate(373.291016 0.578125)"/>
      <use xlink:href="#DejaVuSans-74" transform="translate(434.570312 0.578125)"/>
      <use xlink:href="#DejaVuSans-69" transform="translate(473.779297 0.578125)"/>
      <use xlink:href="#DejaVuSans-6f" transform="translate(501.5625 0.578125)"/>
      <use xlink:href="#DejaVuSans-6e" transform="translate(562.744141 0.578125)"/>
      <use xlink:href="#DejaVuSans-20" transform="translate(626.123047 0.578125)"/>
      <use xlink:href="#DejaVuSans-75" transform="translate(657.910156 0.578125)"/>
      <use xlink:href="#DejaVuSans-70" transform="translate(721.289062 0.578125)"/>
      <use xlink:href="#DejaVuSans-70" transform="translate(784.765625 0.578125)"/>
      <use xlink:href="#DejaVuSans-65" transform="translate(848.242188 0.578125)"/>
      <use xlink:href="#DejaVuSans-72" transform="translate(909.765625 0.578125)"/>
      <use xlink:href="#DejaVuSans-20" transform="translate(950.878906 0.578125)"/>
      <use xlink:href="#DejaVuSans-62" transform="translate(982.666016 0.578125)"/>
      <use xlink:href="#DejaVuSans-6f" transform="translate(1046.142578 0.578125)"/>
      <use xlink:href="#DejaVuSans-75" transform="translate(1107.324219 0.578125)"/>
      <use xlink:href="#DejaVuSans-6e" transform="translate(1170.703125 0.578125)"/>
      <use xlink:href="#DejaVuSans-64" transform="translate(1234.082031 0.578125)"/>
      <use xlink:href="#DejaVuSans-20" transform="translate(1297.558594 0.578125)"/>
      <use xlink:href="#DejaVuSans-28" transform="translate(1329.345703 0.578125)"/>
      <use xlink:href="#DejaVuSans-Oblique-3ba" transform="translate(1368.359375 0.578125)"/>
      <use xlink:href="#DejaVuSans-Oblique-41" transform="translate(1427.294922 -15.828125) scale(0.7)"/>
      <use xlink:href="#DejaVuSans-2a" transform="translate(1477.915039 0.578125)"/>
      <use xlink:href="#DejaVuSans-7c" transform="translate(1527.915039 0.578125)"/>
      <use xlink:href="#DejaVuSans-7c" transform="translate(1561.606445 0.578125)"/>
      <use xlink:href="#DejaVuSans-Oblique-3b4" transform="translate(1595.297852 0.578125)"/>
      <use xlink:href="#DejaVuSans-41" transform="translate(1656.479492 0.578125)"/>
      <use xlink:href="#DejaVuSans-7c" transform="translate(1724.887695 0.578125)"/>
      <use xlink:href="#DejaVuSans-7c" transform="translate(1758.579102 0.578125)"/>
      <use xlink:href="#DejaVuSans-2f" transform="translate(1792.270508 0.578125)"/>
      <use xlink:href="#DejaVuSans-7c" transform="translate(1825.961914 0.578125)"/>
      <use xlink:href="#DejaVuSans-7c" transform="translate(1859.65332 0.578125)"/>
      <use xlink:href="#DejaVuSans-41" transform="translate(1893.344727 0.578125)"/>
      <use xlink:href="#DejaVuSans-7c" transform="translate(1961.75293 0.578125)"/>
      <use xlink:href="#DejaVuSans-7c" transform="translate(1995.444336 0.578125)"/>
      <use xlink:href="#DejaVuSans-29" transform="translate(2029.135742 0.578125)"/>
     </g>
    </g>
   </g>
  </g>
 </g>
 <defs>
  <clipPath id="pe73a69e595">
   <rect x="57.6" y="41.472" width="357.12" height="266.112"/>
  </clipPath>
 </defs>
</svg>
