<?xml version="1.0" encoding="utf-8" standalone="no"?>
<!DOCTYPE svg PUBLIC "-//W3C//DTD SVG 1.1//EN"
  "http://www.w3.org/Graphics/SVG/1.1/DTD/svg11.dtd">
<svg xmlns:xlink="http://www.w3.org/1999/xlink" width="460.8pt" height="345.6pt" viewBox="0 0 460.8 345.6" xmlns="http://www.w3.org/2000/svg" version="1.1">
 <metadata>
  <rdf:RDF xmlns:dc="http://purl.org/dc/elements/1.1/" xmlns:cc="http://creativecommons.org/ns#" xmlns:rdf="http://www.w3.org/1999/02/22-rdf-syntax-ns#">
   <cc:Work>
    <dc:type rdf:resource="http://purl.org/dc/dcmitype/StillImage"/>
    <dc:date>2024-03-10T10:37:19.505036</dc:date>
    <dc:format>image/svg+xml</dc:format>
    <dc:creator>
     <cc:Agent>
      <dc:title>Matplotlib v3.8.0, https://matplotlib.org/</dc:title>
     </cc:Agent>
    </dc:creator>
   </cc:Work>
  </rdf:RDF>
 </metadata>
 <defs>
  <style type="text/css">*{stroke-linejoin: round; stroke-linecap: butt}</style>
 </defs>
 <g id="figure_1">
  <g id="patch_1">
   <path d="M 0 345.6 
L 460.8 345.6 
L 460.8 0 
L 0 0 
z
" style="fill: #ffffff"/>
  </g>
  <g id="axes_1">
   <g id="patch_2">
    <path d="M 57.6 307.584 
L 414.72 307.584 
L 414.72 41.472 
L 57.6 41.472 
z
" style="fill: #ffffff"/>
   </g>
   <g id="matplotlib.axis_1">
    <g id="xtick_1">
     <g id="line2d_1">
      <path d="M 104.130692 307.584 
L 104.130692 41.472 
" clip-path="url(#pc70b4d0abd)" style="fill: none; stroke: #b0b0b0; stroke-width: 0.8; stroke-linecap: square"/>
     </g>
     <g id="line2d_2">
      <defs>
       <path id="m33e55eff1d" d="M 0 0 
L 0 3.5 
" style="stroke: #000000; stroke-width: 0.8"/>
      </defs>
      <g>
       <use xlink:href="#m33e55eff1d" x="104.130692" y="307.584" style="stroke: #000000; stroke-width: 0.8"/>
      </g>
     </g>
     <g id="text_1">
      <!-- $\mathdefault{10^{-11}}$ -->
      <g transform="translate(90.180692 322.182437) scale(0.1 -0.1)">
       <defs>
        <path id="DejaVuSans-31" d="M 794 531 
L 1825 531 
L 1825 4091 
L 703 3866 
L 703 4441 
L 1819 4666 
L 2450 4666 
L 2450 531 
L 3481 531 
L 3481 0 
L 794 0 
L 794 531 
z
" transform="scale(0.015625)"/>
        <path id="DejaVuSans-30" d="M 2034 4250 
Q 1547 4250 1301 3770 
Q 1056 3291 1056 2328 
Q 1056 1369 1301 889 
Q 1547 409 2034 409 
Q 2525 409 2770 889 
Q 3016 1369 3016 2328 
Q 3016 3291 2770 3770 
Q 2525 4250 2034 4250 
z
M 2034 4750 
Q 2819 4750 3233 4129 
Q 3647 3509 3647 2328 
Q 3647 1150 3233 529 
Q 2819 -91 2034 -91 
Q 1250 -91 836 529 
Q 422 1150 422 2328 
Q 422 3509 836 4129 
Q 1250 4750 2034 4750 
z
" transform="scale(0.015625)"/>
        <path id="DejaVuSans-2212" d="M 678 2272 
L 4684 2272 
L 4684 1741 
L 678 1741 
L 678 2272 
z
" transform="scale(0.015625)"/>
       </defs>
       <use xlink:href="#DejaVuSans-31" transform="translate(0 0.684375)"/>
       <use xlink:href="#DejaVuSans-30" transform="translate(63.623047 0.684375)"/>
       <use xlink:href="#DejaVuSans-2212" transform="translate(128.203125 38.965625) scale(0.7)"/>
       <use xlink:href="#DejaVuSans-31" transform="translate(186.855469 38.965625) scale(0.7)"/>
       <use xlink:href="#DejaVuSans-31" transform="translate(231.391602 38.965625) scale(0.7)"/>
      </g>
     </g>
    </g>
    <g id="xtick_2">
     <g id="line2d_3">
      <path d="M 156.70357 307.584 
L 156.70357 41.472 
" clip-path="url(#pc70b4d0abd)" style="fill: none; stroke: #b0b0b0; stroke-width: 0.8; stroke-linecap: square"/>
     </g>
     <g id="line2d_4">
      <g>
       <use xlink:href="#m33e55eff1d" x="156.70357" y="307.584" style="stroke: #000000; stroke-width: 0.8"/>
      </g>
     </g>
     <g id="text_2">
      <!-- $\mathdefault{10^{-9}}$ -->
      <g transform="translate(144.95357 322.182437) scale(0.1 -0.1)">
       <defs>
        <path id="DejaVuSans-39" d="M 703 97 
L 703 672 
Q 941 559 1184 500 
Q 1428 441 1663 441 
Q 2288 441 2617 861 
Q 2947 1281 2994 2138 
Q 2813 1869 2534 1725 
Q 2256 1581 1919 1581 
Q 1219 1581 811 2004 
Q 403 2428 403 3163 
Q 403 3881 828 4315 
Q 1253 4750 1959 4750 
Q 2769 4750 3195 4129 
Q 3622 3509 3622 2328 
Q 3622 1225 3098 567 
Q 2575 -91 1691 -91 
Q 1453 -91 1209 -44 
Q 966 3 703 97 
z
M 1959 2075 
Q 2384 2075 2632 2365 
Q 2881 2656 2881 3163 
Q 2881 3666 2632 3958 
Q 2384 4250 1959 4250 
Q 1534 4250 1286 3958 
Q 1038 3666 1038 3163 
Q 1038 2656 1286 2365 
Q 1534 2075 1959 2075 
z
" transform="scale(0.015625)"/>
       </defs>
       <use xlink:href="#DejaVuSans-31" transform="translate(0 0.765625)"/>
       <use xlink:href="#DejaVuSans-30" transform="translate(63.623047 0.765625)"/>
       <use xlink:href="#DejaVuSans-2212" transform="translate(128.203125 39.046875) scale(0.7)"/>
       <use xlink:href="#DejaVuSans-39" transform="translate(186.855469 39.046875) scale(0.7)"/>
      </g>
     </g>
    </g>
    <g id="xtick_3">
     <g id="line2d_5">
      <path d="M 209.276448 307.584 
L 209.276448 41.472 
" clip-path="url(#pc70b4d0abd)" style="fill: none; stroke: #b0b0b0; stroke-width: 0.8; stroke-linecap: square"/>
     </g>
     <g id="line2d_6">
      <g>
       <use xlink:href="#m33e55eff1d" x="209.276448" y="307.584" style="stroke: #000000; stroke-width: 0.8"/>
      </g>
     </g>
     <g id="text_3">
      <!-- $\mathdefault{10^{-7}}$ -->
      <g transform="translate(197.526448 322.182437) scale(0.1 -0.1)">
       <defs>
        <path id="DejaVuSans-37" d="M 525 4666 
L 3525 4666 
L 3525 4397 
L 1831 0 
L 1172 0 
L 2766 4134 
L 525 4134 
L 525 4666 
z
" transform="scale(0.015625)"/>
       </defs>
       <use xlink:href="#DejaVuSans-31" transform="translate(0 0.684375)"/>
       <use xlink:href="#DejaVuSans-30" transform="translate(63.623047 0.684375)"/>
       <use xlink:href="#DejaVuSans-2212" transform="translate(128.203125 38.965625) scale(0.7)"/>
       <use xlink:href="#DejaVuSans-37" transform="translate(186.855469 38.965625) scale(0.7)"/>
      </g>
     </g>
    </g>
    <g id="xtick_4">
     <g id="line2d_7">
      <path d="M 261.849325 307.584 
L 261.849325 41.472 
" clip-path="url(#pc70b4d0abd)" style="fill: none; stroke: #b0b0b0; stroke-width: 0.8; stroke-linecap: square"/>
     </g>
     <g id="line2d_8">
      <g>
       <use xlink:href="#m33e55eff1d" x="261.849325" y="307.584" style="stroke: #000000; stroke-width: 0.8"/>
      </g>
     </g>
     <g id="text_4">
      <!-- $\mathdefault{10^{-5}}$ -->
      <g transform="translate(250.099325 322.182437) scale(0.1 -0.1)">
       <defs>
        <path id="DejaVuSans-35" d="M 691 4666 
L 3169 4666 
L 3169 4134 
L 1269 4134 
L 1269 2991 
Q 1406 3038 1543 3061 
Q 1681 3084 1819 3084 
Q 2600 3084 3056 2656 
Q 3513 2228 3513 1497 
Q 3513 744 3044 326 
Q 2575 -91 1722 -91 
Q 1428 -91 1123 -41 
Q 819 9 494 109 
L 494 744 
Q 775 591 1075 516 
Q 1375 441 1709 441 
Q 2250 441 2565 725 
Q 2881 1009 2881 1497 
Q 2881 1984 2565 2268 
Q 2250 2553 1709 2553 
Q 1456 2553 1204 2497 
Q 953 2441 691 2322 
L 691 4666 
z
" transform="scale(0.015625)"/>
       </defs>
       <use xlink:href="#DejaVuSans-31" transform="translate(0 0.684375)"/>
       <use xlink:href="#DejaVuSans-30" transform="translate(63.623047 0.684375)"/>
       <use xlink:href="#DejaVuSans-2212" transform="translate(128.203125 38.965625) scale(0.7)"/>
       <use xlink:href="#DejaVuSans-35" transform="translate(186.855469 38.965625) scale(0.7)"/>
      </g>
     </g>
    </g>
    <g id="xtick_5">
     <g id="line2d_9">
      <path d="M 314.422203 307.584 
L 314.422203 41.472 
" clip-path="url(#pc70b4d0abd)" style="fill: none; stroke: #b0b0b0; stroke-width: 0.8; stroke-linecap: square"/>
     </g>
     <g id="line2d_10">
      <g>
       <use xlink:href="#m33e55eff1d" x="314.422203" y="307.584" style="stroke: #000000; stroke-width: 0.8"/>
      </g>
     </g>
     <g id="text_5">
      <!-- $\mathdefault{10^{-3}}$ -->
      <g transform="translate(302.672203 322.182437) scale(0.1 -0.1)">
       <defs>
        <path id="DejaVuSans-33" d="M 2597 2516 
Q 3050 2419 3304 2112 
Q 3559 1806 3559 1356 
Q 3559 666 3084 287 
Q 2609 -91 1734 -91 
Q 1441 -91 1130 -33 
Q 819 25 488 141 
L 488 750 
Q 750 597 1062 519 
Q 1375 441 1716 441 
Q 2309 441 2620 675 
Q 2931 909 2931 1356 
Q 2931 1769 2642 2001 
Q 2353 2234 1838 2234 
L 1294 2234 
L 1294 2753 
L 1863 2753 
Q 2328 2753 2575 2939 
Q 2822 3125 2822 3475 
Q 2822 3834 2567 4026 
Q 2313 4219 1838 4219 
Q 1578 4219 1281 4162 
Q 984 4106 628 3988 
L 628 4550 
Q 988 4650 1302 4700 
Q 1616 4750 1894 4750 
Q 2613 4750 3031 4423 
Q 3450 4097 3450 3541 
Q 3450 3153 3228 2886 
Q 3006 2619 2597 2516 
z
" transform="scale(0.015625)"/>
       </defs>
       <use xlink:href="#DejaVuSans-31" transform="translate(0 0.765625)"/>
       <use xlink:href="#DejaVuSans-30" transform="translate(63.623047 0.765625)"/>
       <use xlink:href="#DejaVuSans-2212" transform="translate(128.203125 39.046875) scale(0.7)"/>
       <use xlink:href="#DejaVuSans-33" transform="translate(186.855469 39.046875) scale(0.7)"/>
      </g>
     </g>
    </g>
    <g id="xtick_6">
     <g id="line2d_11">
      <path d="M 366.995081 307.584 
L 366.995081 41.472 
" clip-path="url(#pc70b4d0abd)" style="fill: none; stroke: #b0b0b0; stroke-width: 0.8; stroke-linecap: square"/>
     </g>
     <g id="line2d_12">
      <g>
       <use xlink:href="#m33e55eff1d" x="366.995081" y="307.584" style="stroke: #000000; stroke-width: 0.8"/>
      </g>
     </g>
     <g id="text_6">
      <!-- $\mathdefault{10^{-1}}$ -->
      <g transform="translate(355.245081 322.182437) scale(0.1 -0.1)">
       <use xlink:href="#DejaVuSans-31" transform="translate(0 0.684375)"/>
       <use xlink:href="#DejaVuSans-30" transform="translate(63.623047 0.684375)"/>
       <use xlink:href="#DejaVuSans-2212" transform="translate(128.203125 38.965625) scale(0.7)"/>
       <use xlink:href="#DejaVuSans-31" transform="translate(186.855469 38.965625) scale(0.7)"/>
      </g>
     </g>
    </g>
    <g id="text_7">
     <!-- ||$\delta$b||/||b|| -->
     <g transform="translate(211.56 335.962125) scale(0.1 -0.1)">
      <defs>
       <path id="DejaVuSans-7c" d="M 1344 4891 
L 1344 -1509 
L 813 -1509 
L 813 4891 
L 1344 4891 
z
" transform="scale(0.015625)"/>
       <path id="DejaVuSans-Oblique-3b4" d="M 3472 4053 
Q 3197 4272 2450 4272 
Q 1659 4272 1588 3906 
Q 1531 3619 2328 3469 
Q 2953 3353 3253 3003 
Q 3616 2581 3447 1716 
Q 3284 888 2763 400 
Q 2238 -91 1488 -91 
Q 741 -91 406 400 
Q 72 888 241 1747 
Q 363 2384 891 2900 
Q 1097 3100 1353 3213 
Q 913 3459 1000 3900 
Q 1166 4750 2544 4750 
Q 3234 4750 3566 4531 
L 3472 4053 
z
M 1753 3056 
Q 1525 2966 1306 2738 
Q 969 2384 847 1747 
Q 722 1113 919 756 
Q 1119 397 1584 397 
Q 2044 397 2381 759 
Q 2722 1122 2838 1716 
Q 2956 2338 2731 2638 
Q 2491 2959 2103 2994 
Q 1906 3013 1753 3056 
z
" transform="scale(0.015625)"/>
       <path id="DejaVuSans-62" d="M 3116 1747 
Q 3116 2381 2855 2742 
Q 2594 3103 2138 3103 
Q 1681 3103 1420 2742 
Q 1159 2381 1159 1747 
Q 1159 1113 1420 752 
Q 1681 391 2138 391 
Q 2594 391 2855 752 
Q 3116 1113 3116 1747 
z
M 1159 2969 
Q 1341 3281 1617 3432 
Q 1894 3584 2278 3584 
Q 2916 3584 3314 3078 
Q 3713 2572 3713 1747 
Q 3713 922 3314 415 
Q 2916 -91 2278 -91 
Q 1894 -91 1617 61 
Q 1341 213 1159 525 
L 1159 0 
L 581 0 
L 581 4863 
L 1159 4863 
L 1159 2969 
z
" transform="scale(0.015625)"/>
       <path id="DejaVuSans-2f" d="M 1625 4666 
L 2156 4666 
L 531 -594 
L 0 -594 
L 1625 4666 
z
" transform="scale(0.015625)"/>
      </defs>
      <use xlink:href="#DejaVuSans-7c" transform="translate(0 0.578125)"/>
      <use xlink:href="#DejaVuSans-7c" transform="translate(33.691406 0.578125)"/>
      <use xlink:href="#DejaVuSans-Oblique-3b4" transform="translate(67.382812 0.578125)"/>
      <use xlink:href="#DejaVuSans-62" transform="translate(128.564453 0.578125)"/>
      <use xlink:href="#DejaVuSans-7c" transform="translate(192.041016 0.578125)"/>
      <use xlink:href="#DejaVuSans-7c" transform="translate(225.732422 0.578125)"/>
      <use xlink:href="#DejaVuSans-2f" transform="translate(259.423828 0.578125)"/>
      <use xlink:href="#DejaVuSans-7c" transform="translate(293.115234 0.578125)"/>
      <use xlink:href="#DejaVuSans-7c" transform="translate(326.806641 0.578125)"/>
      <use xlink:href="#DejaVuSans-62" transform="translate(360.498047 0.578125)"/>
      <use xlink:href="#DejaVuSans-7c" transform="translate(423.974609 0.578125)"/>
      <use xlink:href="#DejaVuSans-7c" transform="translate(457.666016 0.578125)"/>
     </g>
    </g>
   </g>
   <g id="matplotlib.axis_2">
    <g id="ytick_1">
     <g id="line2d_13">
      <path d="M 57.6 271.993267 
L 414.72 271.993267 
" clip-path="url(#pc70b4d0abd)" style="fill: none; stroke: #b0b0b0; stroke-width: 0.8; stroke-linecap: square"/>
     </g>
     <g id="line2d_14">
      <defs>
       <path id="m684767de34" d="M 0 0 
L -3.5 0 
" style="stroke: #000000; stroke-width: 0.8"/>
      </defs>
      <g>
       <use xlink:href="#m684767de34" x="57.6" y="271.993267" style="stroke: #000000; stroke-width: 0.8"/>
      </g>
     </g>
     <g id="text_8">
      <!-- $\mathdefault{10^{-11}}$ -->
      <g transform="translate(22.7 275.792486) scale(0.1 -0.1)">
       <use xlink:href="#DejaVuSans-31" transform="translate(0 0.684375)"/>
       <use xlink:href="#DejaVuSans-30" transform="translate(63.623047 0.684375)"/>
       <use xlink:href="#DejaVuSans-2212" transform="translate(128.203125 38.965625) scale(0.7)"/>
       <use xlink:href="#DejaVuSans-31" transform="translate(186.855469 38.965625) scale(0.7)"/>
       <use xlink:href="#DejaVuSans-31" transform="translate(231.391602 38.965625) scale(0.7)"/>
      </g>
     </g>
    </g>
    <g id="ytick_2">
     <g id="line2d_15">
      <path d="M 57.6 233.413087 
L 414.72 233.413087 
" clip-path="url(#pc70b4d0abd)" style="fill: none; stroke: #b0b0b0; stroke-width: 0.8; stroke-linecap: square"/>
     </g>
     <g id="line2d_16">
      <g>
       <use xlink:href="#m684767de34" x="57.6" y="233.413087" style="stroke: #000000; stroke-width: 0.8"/>
      </g>
     </g>
     <g id="text_9">
      <!-- $\mathdefault{10^{-9}}$ -->
      <g transform="translate(27.1 237.212306) scale(0.1 -0.1)">
       <use xlink:href="#DejaVuSans-31" transform="translate(0 0.765625)"/>
       <use xlink:href="#DejaVuSans-30" transform="translate(63.623047 0.765625)"/>
       <use xlink:href="#DejaVuSans-2212" transform="translate(128.203125 39.046875) scale(0.7)"/>
       <use xlink:href="#DejaVuSans-39" transform="translate(186.855469 39.046875) scale(0.7)"/>
      </g>
     </g>
    </g>
    <g id="ytick_3">
     <g id="line2d_17">
      <path d="M 57.6 194.832907 
L 414.72 194.832907 
" clip-path="url(#pc70b4d0abd)" style="fill: none; stroke: #b0b0b0; stroke-width: 0.8; stroke-linecap: square"/>
     </g>
     <g id="line2d_18">
      <g>
       <use xlink:href="#m684767de34" x="57.6" y="194.832907" style="stroke: #000000; stroke-width: 0.8"/>
      </g>
     </g>
     <g id="text_10">
      <!-- $\mathdefault{10^{-7}}$ -->
      <g transform="translate(27.1 198.632126) scale(0.1 -0.1)">
       <use xlink:href="#DejaVuSans-31" transform="translate(0 0.684375)"/>
       <use xlink:href="#DejaVuSans-30" transform="translate(63.623047 0.684375)"/>
       <use xlink:href="#DejaVuSans-2212" transform="translate(128.203125 38.965625) scale(0.7)"/>
       <use xlink:href="#DejaVuSans-37" transform="translate(186.855469 38.965625) scale(0.7)"/>
      </g>
     </g>
    </g>
    <g id="ytick_4">
     <g id="line2d_19">
      <path d="M 57.6 156.252727 
L 414.72 156.252727 
" clip-path="url(#pc70b4d0abd)" style="fill: none; stroke: #b0b0b0; stroke-width: 0.8; stroke-linecap: square"/>
     </g>
     <g id="line2d_20">
      <g>
       <use xlink:href="#m684767de34" x="57.6" y="156.252727" style="stroke: #000000; stroke-width: 0.8"/>
      </g>
     </g>
     <g id="text_11">
      <!-- $\mathdefault{10^{-5}}$ -->
      <g transform="translate(27.1 160.051945) scale(0.1 -0.1)">
       <use xlink:href="#DejaVuSans-31" transform="translate(0 0.684375)"/>
       <use xlink:href="#DejaVuSans-30" transform="translate(63.623047 0.684375)"/>
       <use xlink:href="#DejaVuSans-2212" transform="translate(128.203125 38.965625) scale(0.7)"/>
       <use xlink:href="#DejaVuSans-35" transform="translate(186.855469 38.965625) scale(0.7)"/>
      </g>
     </g>
    </g>
    <g id="ytick_5">
     <g id="line2d_21">
      <path d="M 57.6 117.672547 
L 414.72 117.672547 
" clip-path="url(#pc70b4d0abd)" style="fill: none; stroke: #b0b0b0; stroke-width: 0.8; stroke-linecap: square"/>
     </g>
     <g id="line2d_22">
      <g>
       <use xlink:href="#m684767de34" x="57.6" y="117.672547" style="stroke: #000000; stroke-width: 0.8"/>
      </g>
     </g>
     <g id="text_12">
      <!-- $\mathdefault{10^{-3}}$ -->
      <g transform="translate(27.1 121.471765) scale(0.1 -0.1)">
       <use xlink:href="#DejaVuSans-31" transform="translate(0 0.765625)"/>
       <use xlink:href="#DejaVuSans-30" transform="translate(63.623047 0.765625)"/>
       <use xlink:href="#DejaVuSans-2212" transform="translate(128.203125 39.046875) scale(0.7)"/>
       <use xlink:href="#DejaVuSans-33" transform="translate(186.855469 39.046875) scale(0.7)"/>
      </g>
     </g>
    </g>
    <g id="ytick_6">
     <g id="line2d_23">
      <path d="M 57.6 79.092366 
L 414.72 79.092366 
" clip-path="url(#pc70b4d0abd)" style="fill: none; stroke: #b0b0b0; stroke-width: 0.8; stroke-linecap: square"/>
     </g>
     <g id="line2d_24">
      <g>
       <use xlink:href="#m684767de34" x="57.6" y="79.092366" style="stroke: #000000; stroke-width: 0.8"/>
      </g>
     </g>
     <g id="text_13">
      <!-- $\mathdefault{10^{-1}}$ -->
      <g transform="translate(27.1 82.891585) scale(0.1 -0.1)">
       <use xlink:href="#DejaVuSans-31" transform="translate(0 0.684375)"/>
       <use xlink:href="#DejaVuSans-30" transform="translate(63.623047 0.684375)"/>
       <use xlink:href="#DejaVuSans-2212" transform="translate(128.203125 38.965625) scale(0.7)"/>
       <use xlink:href="#DejaVuSans-31" transform="translate(186.855469 38.965625) scale(0.7)"/>
      </g>
     </g>
    </g>
    <g id="text_14">
     <!-- ||$\delta$x||/||x|| -->
     <g transform="translate(16.3 198.678) rotate(-90) scale(0.1 -0.1)">
      <defs>
       <path id="DejaVuSans-78" d="M 3513 3500 
L 2247 1797 
L 3578 0 
L 2900 0 
L 1881 1375 
L 863 0 
L 184 0 
L 1544 1831 
L 300 3500 
L 978 3500 
L 1906 2253 
L 2834 3500 
L 3513 3500 
z
" transform="scale(0.015625)"/>
      </defs>
      <use xlink:href="#DejaVuSans-7c" transform="translate(0 0.578125)"/>
      <use xlink:href="#DejaVuSans-7c" transform="translate(33.691406 0.578125)"/>
      <use xlink:href="#DejaVuSans-Oblique-3b4" transform="translate(67.382812 0.578125)"/>
      <use xlink:href="#DejaVuSans-78" transform="translate(128.564453 0.578125)"/>
      <use xlink:href="#DejaVuSans-7c" transform="translate(187.744141 0.578125)"/>
      <use xlink:href="#DejaVuSans-7c" transform="translate(221.435547 0.578125)"/>
      <use xlink:href="#DejaVuSans-2f" transform="translate(255.126953 0.578125)"/>
      <use xlink:href="#DejaVuSans-7c" transform="translate(288.818359 0.578125)"/>
      <use xlink:href="#DejaVuSans-7c" transform="translate(322.509766 0.578125)"/>
      <use xlink:href="#DejaVuSans-78" transform="translate(356.201172 0.578125)"/>
      <use xlink:href="#DejaVuSans-7c" transform="translate(415.380859 0.578125)"/>
      <use xlink:href="#DejaVuSans-7c" transform="translate(449.072266 0.578125)"/>
     </g>
    </g>
   </g>
   <g id="line2d_25">
    <path d="M 73.832727 293.887392 
L 74.204334 295.488 
L 77.789994 292.370668 
L 78.817749 289.215465 
L 79.136228 290.343172 
L 80.321827 291.538065 
L 80.372219 289.2439 
L 80.80426 290.658087 
L 81.011873 289.892496 
L 81.292806 290.70484 
L 81.435806 287.601333 
L 81.693774 288.745642 
L 81.710847 287.38104 
L 81.869383 290.386402 
L 81.929814 287.161038 
L 82.250692 288.495186 
L 83.006765 287.158659 
L 83.663678 288.289071 
L 84.626532 287.209768 
L 84.930784 288.005033 
L 85.062479 286.438291 
L 85.139726 287.259626 
L 85.513354 285.032963 
L 85.868807 287.098499 
L 86.131297 283.790847 
L 86.370375 286.563216 
L 86.542797 285.461971 
L 87.37615 285.978171 
L 88.222597 284.879106 
L 88.422259 285.196781 
L 89.253389 284.916004 
L 89.620553 283.579494 
L 89.861515 283.425409 
L 90.207044 284.326103 
L 90.364069 283.917146 
L 90.367483 281.548034 
L 90.672572 283.723964 
L 90.673027 281.837461 
L 90.959336 283.533294 
L 90.969039 281.581775 
L 91.24595 280.276944 
L 91.619391 283.289313 
L 91.680265 283.217776 
L 92.998136 280.769749 
L 93.104874 281.014842 
L 93.151461 279.790852 
L 93.316251 278.5896 
L 93.486822 281.362163 
L 93.783353 281.62659 
L 93.97354 280.101335 
L 94.004241 278.614015 
L 94.784093 279.567877 
L 95.098939 279.630321 
L 95.171689 278.958159 
L 95.221178 279.922141 
L 95.491029 276.990269 
L 95.73154 280.270891 
L 96.541329 276.948333 
L 97.27785 277.25804 
L 97.865104 278.110114 
L 97.866797 278.673925 
L 98.074901 276.558812 
L 98.986595 276.999288 
L 99.195118 275.116632 
L 99.407876 276.473538 
L 99.744881 276.062656 
L 100.382519 276.601602 
L 100.470897 274.758521 
L 100.845402 276.510414 
L 101.346765 274.667816 
L 102.661787 275.066031 
L 103.017544 272.043446 
L 103.063986 273.446871 
L 104.052844 272.953558 
L 104.482951 273.839953 
L 104.830409 272.770245 
L 104.870778 273.520511 
L 104.912711 270.501625 
L 105.104106 271.353463 
L 105.233635 272.768655 
L 106.009707 269.711383 
L 106.238407 272.264254 
L 106.820097 271.697542 
L 108.10147 269.598292 
L 108.470193 270.387792 
L 108.55426 270.331925 
L 108.90014 269.415699 
L 109.618753 268.829678 
L 109.693252 268.548587 
L 110.002328 269.799398 
L 110.103648 269.415722 
L 110.185954 268.095297 
L 110.208115 269.517977 
L 110.756893 267.832518 
L 110.79542 268.301811 
L 110.890691 268.092586 
L 111.499889 268.700226 
L 111.604565 268.623602 
L 111.671561 265.886621 
L 112.001756 265.326649 
L 112.358576 267.796711 
L 112.455808 266.910854 
L 113.051693 267.468509 
L 113.138324 265.678142 
L 113.160966 266.622251 
L 113.269443 266.782352 
L 113.884405 266.143535 
L 113.902277 266.8342 
L 114.001738 265.4751 
L 114.458169 266.471398 
L 114.577883 266.402761 
L 114.612652 265.490439 
L 115.249689 265.920878 
L 115.325802 263.734531 
L 115.641943 265.418981 
L 115.800318 265.52984 
L 115.945418 264.352298 
L 116.415957 264.450943 
L 116.511161 264.999964 
L 117.177244 263.346178 
L 117.764016 264.099385 
L 117.961842 263.750178 
L 118.60907 263.468492 
L 118.701724 263.069939 
L 118.957375 263.195664 
L 119.0399 261.43795 
L 120.639553 261.915829 
L 120.965351 261.731034 
L 121.243882 260.076044 
L 121.957325 259.340782 
L 122.152814 259.947765 
L 122.522113 258.761927 
L 122.548199 257.112905 
L 122.591165 258.625213 
L 122.936361 259.677121 
L 123.810845 257.534769 
L 124.290491 258.719831 
L 124.874266 258.459546 
L 125.079113 258.053584 
L 125.549463 258.172888 
L 126.248887 255.983681 
L 126.564475 257.279455 
L 127.811772 254.627704 
L 128.08752 255.962188 
L 128.187256 254.0724 
L 128.461337 254.970313 
L 128.493026 256.191072 
L 128.593101 253.226599 
L 129.118852 253.930432 
L 129.560989 253.333609 
L 129.678496 254.774742 
L 129.742552 252.652086 
L 130.215606 253.129779 
L 130.469798 254.510675 
L 131.061362 251.117942 
L 131.121384 253.475658 
L 131.209045 251.21063 
L 131.352672 253.984922 
L 131.632256 252.303249 
L 131.700829 253.541216 
L 131.838329 251.095768 
L 131.848283 253.362889 
L 132.150978 250.748419 
L 132.273513 253.137327 
L 132.885768 253.006459 
L 133.833445 251.24222 
L 133.876982 252.277755 
L 133.991541 249.248106 
L 134.402821 249.193232 
L 135.594022 250.892376 
L 136.892368 249.24111 
L 137.422392 246.149008 
L 137.548777 248.933629 
L 137.714577 249.455997 
L 137.930745 246.982157 
L 138.410486 245.832894 
L 138.924044 248.523196 
L 139.176487 244.891444 
L 139.274858 248.195106 
L 139.323058 247.699493 
L 139.65094 247.814722 
L 139.690551 245.128266 
L 139.798382 246.663303 
L 140.444418 247.170289 
L 140.476732 247.412479 
L 140.661657 246.181904 
L 141.360921 245.381154 
L 141.524841 246.372855 
L 141.573763 244.419191 
L 141.959148 246.347893 
L 142.331069 243.986737 
L 143.14529 244.915614 
L 143.172273 243.045132 
L 143.679413 244.963053 
L 143.682367 243.875204 
L 143.714452 244.499068 
L 143.961749 244.831478 
L 144.136018 244.443185 
L 145.621499 241.867816 
L 146.087346 240.643412 
L 146.189191 239.976234 
L 146.586343 242.004256 
L 146.757628 242.066384 
L 146.758573 240.35777 
L 147.325944 241.201135 
L 147.342196 242.179428 
L 147.604684 239.793269 
L 147.806113 241.452197 
L 148.124402 241.722188 
L 149.183109 240.659717 
L 149.371209 240.904756 
L 149.49724 240.721829 
L 149.509871 240.470892 
L 149.711469 240.550219 
L 149.779781 238.736901 
L 149.930318 239.854702 
L 151.469045 236.820205 
L 151.483105 237.771794 
L 151.634202 236.887891 
L 152.034146 236.52425 
L 152.222871 235.533948 
L 152.225495 238.752839 
L 152.789393 237.287197 
L 152.844629 237.712797 
L 153.323811 234.873865 
L 153.615505 235.96659 
L 153.714313 235.163817 
L 154.230071 237.317403 
L 154.231903 237.305561 
L 154.554147 236.306315 
L 155.191723 233.4208 
L 155.688496 236.25096 
L 156.152276 235.561496 
L 156.172165 235.897527 
L 156.179394 235.891234 
L 156.246437 233.881969 
L 157.148712 235.144193 
L 157.376015 234.676062 
L 157.384739 231.416357 
L 157.471265 232.610504 
L 157.48909 234.944748 
L 157.606777 233.96209 
L 157.740512 234.573239 
L 157.815368 231.354836 
L 158.950532 233.007487 
L 159.566378 233.152409 
L 159.889989 232.70895 
L 161.116556 232.259301 
L 162.302828 231.192658 
L 162.44122 230.224322 
L 162.837829 230.879175 
L 163.523623 230.167761 
L 164.282364 227.930499 
L 164.305121 229.481193 
L 164.562046 228.279651 
L 166.337282 228.443278 
L 166.556173 224.739079 
L 166.677761 226.747203 
L 166.897834 227.971357 
L 166.962659 227.935092 
L 166.983257 227.189904 
L 167.159963 226.316984 
L 167.262917 227.695923 
L 167.917364 226.769126 
L 168.130958 227.06854 
L 168.276341 227.024113 
L 168.435853 226.848882 
L 168.883805 226.538999 
L 170.619619 224.302971 
L 170.946517 224.611353 
L 171.059097 221.942238 
L 171.553419 223.937795 
L 171.58577 223.667974 
L 171.734935 223.402044 
L 171.79858 221.411246 
L 172.474195 223.746844 
L 172.570164 222.274487 
L 173.268463 222.011696 
L 173.556217 220.320271 
L 173.672908 223.033358 
L 174.35134 222.576066 
L 174.386474 219.809484 
L 174.477031 221.386876 
L 174.809608 221.923654 
L 176.036683 219.966496 
L 176.229631 217.638736 
L 176.523713 220.643468 
L 176.562884 218.33828 
L 176.573535 219.382401 
L 177.477076 220.151486 
L 177.483697 219.893836 
L 177.773391 219.007742 
L 177.915696 219.285435 
L 177.988522 217.273738 
L 178.027363 219.701556 
L 178.128651 218.175226 
L 178.239508 218.391165 
L 178.29838 219.604807 
L 178.564227 218.928299 
L 179.668084 217.007842 
L 179.710199 218.521617 
L 180.004554 215.663739 
L 180.170986 218.162612 
L 180.542265 215.469708 
L 181.363922 217.412675 
L 181.626664 214.595405 
L 181.713001 217.140752 
L 182.20377 216.784525 
L 182.370539 214.175723 
L 182.770734 215.662975 
L 183.328058 213.791744 
L 184.614123 213.563024 
L 184.887989 213.861196 
L 185.046808 214.427519 
L 185.555688 211.863929 
L 185.890828 214.030587 
L 186.537291 210.204033 
L 186.618787 211.319789 
L 186.956742 212.188131 
L 187.024149 213.087131 
L 187.173336 210.145216 
L 187.173598 213.034171 
L 187.541485 212.084832 
L 188.473369 212.153844 
L 189.220476 211.174107 
L 189.594858 211.356782 
L 190.108011 210.967405 
L 190.393002 208.041348 
L 191.08766 210.198734 
L 191.263428 210.054081 
L 191.562576 208.682626 
L 191.726841 209.576929 
L 191.95148 206.292411 
L 192.023762 209.018243 
L 192.769627 208.96018 
L 193.37769 206.695289 
L 193.887672 208.223045 
L 193.93172 205.605417 
L 194.771261 204.842572 
L 194.798906 206.60511 
L 195.036616 206.658537 
L 195.094175 206.877522 
L 195.303161 205.597511 
L 195.956323 206.016885 
L 196.414554 205.646769 
L 196.81089 202.984237 
L 196.91238 205.408938 
L 197.21185 205.76575 
L 197.266665 202.463067 
L 197.390549 203.80567 
L 197.638624 205.040992 
L 198.061466 204.437175 
L 198.297143 204.999078 
L 199.00173 204.13599 
L 199.919993 201.106455 
L 201.174008 201.828868 
L 201.249149 202.838035 
L 201.299147 200.862496 
L 201.455151 202.677829 
L 201.956485 202.278485 
L 202.498348 200.23375 
L 202.687433 198.49159 
L 202.825456 201.680052 
L 203.378283 200.314088 
L 203.4779 200.983596 
L 203.747787 198.595982 
L 204.113634 200.559946 
L 205.61003 197.023189 
L 205.73052 197.291622 
L 205.801962 197.923173 
L 205.898107 197.134589 
L 206.28983 196.478757 
L 206.408905 198.768771 
L 207.260006 198.367476 
L 208.259075 197.002023 
L 209.108899 196.531294 
L 209.133336 197.051569 
L 209.215162 196.992352 
L 209.42377 195.671744 
L 209.486621 195.95444 
L 209.76239 196.509129 
L 210.192386 196.256812 
L 210.193251 194.968968 
L 210.474829 194.104218 
L 210.55058 195.853297 
L 211.201535 193.309574 
L 211.877632 194.823591 
L 212.061146 194.466817 
L 212.160519 194.825059 
L 212.339239 194.113576 
L 212.608096 191.012464 
L 213.169375 194.056919 
L 213.599971 190.62019 
L 213.633712 193.093669 
L 215.063549 191.131328 
L 215.20721 192.226185 
L 215.350062 191.818346 
L 215.529534 189.355203 
L 216.44051 190.206428 
L 216.477671 191.062798 
L 216.530918 191.037368 
L 217.084881 187.73021 
L 217.20262 190.48448 
L 218.249109 187.500012 
L 218.565896 190.052448 
L 218.584823 189.87085 
L 219.181736 189.67861 
L 219.434629 189.334387 
L 220.714343 188.489222 
L 221.63674 186.38439 
L 221.771447 187.310457 
L 221.813051 187.001577 
L 222.314821 187.158562 
L 222.794899 186.909611 
L 223.026468 185.47131 
L 223.094904 185.768215 
L 223.322554 186.119561 
L 223.352431 186.614697 
L 223.360906 184.533091 
L 223.459548 185.036325 
L 224.210782 185.454985 
L 225.717608 182.173584 
L 225.951603 184.639392 
L 226.085622 184.304507 
L 226.301167 182.999839 
L 226.45644 183.645185 
L 226.656599 182.564914 
L 226.788917 183.478421 
L 226.823248 182.549772 
L 227.393841 182.188239 
L 227.400601 183.215182 
L 227.741896 183.152786 
L 227.825381 180.955624 
L 228.294805 181.246044 
L 228.337018 182.940035 
L 228.66993 182.68915 
L 229.188869 180.165308 
L 229.834278 178.596826 
L 230.296474 180.120811 
L 230.337257 181.111518 
L 230.511395 178.347928 
L 230.599816 181.044394 
L 230.648686 178.215713 
L 231.223084 179.717678 
L 231.68033 178.876396 
L 231.96781 177.807399 
L 232.078188 180.106448 
L 232.097105 178.866679 
L 232.120573 177.318893 
L 232.762921 179.569147 
L 233.065515 176.063411 
L 233.427109 176.421393 
L 233.483143 178.797709 
L 234.036201 178.519825 
L 234.277438 177.866403 
L 234.577534 178.021883 
L 234.672975 178.276304 
L 234.685579 178.130736 
L 235.046757 176.268922 
L 235.425901 177.75245 
L 235.681408 176.89271 
L 235.805383 175.58038 
L 236.141764 175.442645 
L 236.281328 177.129721 
L 236.371893 174.844319 
L 236.449051 176.503801 
L 237.098605 176.471597 
L 237.144865 176.027488 
L 237.36177 175.747612 
L 237.548114 176.153761 
L 237.926692 175.904744 
L 238.05357 173.853463 
L 238.066036 175.745909 
L 238.07797 173.909195 
L 238.393737 175.576275 
L 238.566521 174.672661 
L 239.222502 174.787988 
L 239.450101 171.764039 
L 239.967497 174.040422 
L 240.020963 171.340605 
L 240.120278 172.854436 
L 240.146604 171.971839 
L 240.611131 172.764912 
L 241.314625 172.925352 
L 241.51344 172.111491 
L 242.703903 171.406383 
L 242.870807 168.950913 
L 244.332147 171.069159 
L 245.054844 169.681595 
L 246.518213 169.589361 
L 246.801738 167.365658 
L 246.865562 169.138056 
L 247.111128 169.168701 
L 247.209549 167.615762 
L 247.913522 167.591886 
L 247.945086 168.278214 
L 248.669256 168.028563 
L 248.81745 166.851786 
L 249.102781 167.452582 
L 249.55803 166.15692 
L 249.583851 167.011104 
L 249.686475 164.046595 
L 249.690042 167.162142 
L 249.760359 166.998361 
L 250.241735 166.561812 
L 250.469429 165.155077 
L 251.165599 164.355972 
L 252.112246 163.691212 
L 252.319641 165.360985 
L 252.43532 165.204724 
L 252.738246 163.774932 
L 252.795167 164.988746 
L 253.07922 163.227172 
L 253.307982 163.255899 
L 253.320238 162.618853 
L 253.535371 161.195443 
L 253.635249 163.994703 
L 253.88521 164.20675 
L 254.000231 163.279364 
L 254.631892 163.643701 
L 255.146194 161.616274 
L 256.360873 159.078113 
L 256.675014 161.57854 
L 257.089738 161.078179 
L 258.664991 160.396932 
L 258.684033 157.676596 
L 258.71303 160.66353 
L 258.844101 158.58331 
L 258.91008 159.173981 
L 259.150236 159.209393 
L 259.199601 159.837377 
L 259.591121 157.17528 
L 259.943579 157.906241 
L 260.831403 158.288384 
L 261.234447 157.153181 
L 261.399924 158.176587 
L 261.606466 157.312034 
L 261.846205 158.289279 
L 262.119898 156.300942 
L 262.239764 157.186983 
L 262.881022 157.309033 
L 263.063214 157.476997 
L 263.634969 157.057076 
L 264.107934 155.171459 
L 265.330262 155.098963 
L 265.88017 152.130628 
L 266.270793 154.725481 
L 266.416409 152.736239 
L 266.443753 154.080732 
L 266.687926 153.891372 
L 266.770943 154.574567 
L 266.821346 154.422386 
L 267.387904 151.353493 
L 267.420937 152.901645 
L 267.993293 152.072026 
L 268.368363 152.537606 
L 268.957405 151.638275 
L 268.995704 151.27509 
L 269.057228 152.074859 
L 269.729159 150.174158 
L 269.808068 152.210065 
L 269.845648 150.373776 
L 270.225107 151.904629 
L 270.372742 149.714994 
L 271.153916 149.980227 
L 271.315311 150.838985 
L 271.907602 150.555325 
L 272.009658 149.168872 
L 272.350961 149.114801 
L 272.618215 150.327879 
L 273.227355 147.594301 
L 274.22152 148.484112 
L 274.558299 146.649502 
L 274.980245 148.18364 
L 275.093362 147.441891 
L 275.094468 148.409016 
L 275.130412 148.197092 
L 275.737317 145.709564 
L 275.967146 145.972746 
L 276.033241 147.776161 
L 276.046348 145.609742 
L 276.111977 147.66828 
L 276.626668 146.379416 
L 277.261106 145.427111 
L 277.470206 145.98154 
L 278.496754 144.06844 
L 278.747345 144.273179 
L 279.827071 142.408635 
L 280.078704 141.542366 
L 280.612304 143.486691 
L 280.687352 144.498192 
L 280.964809 143.057867 
L 281.247125 143.180174 
L 282.372921 141.205542 
L 282.38164 140.01325 
L 282.603149 141.784258 
L 283.27774 141.402693 
L 283.840178 140.677456 
L 284.037391 141.838704 
L 284.206854 141.172711 
L 284.438644 141.778557 
L 285.82934 138.760744 
L 285.86419 138.891358 
L 286.11506 140.415849 
L 286.226875 139.624771 
L 286.762302 139.864277 
L 286.983239 139.704454 
L 287.238558 139.678697 
L 287.871746 139.270726 
L 288.116554 136.801045 
L 288.899764 137.164864 
L 289.081327 138.207647 
L 289.763347 137.818729 
L 289.903966 135.876493 
L 289.983282 136.992255 
L 290.25609 136.025793 
L 290.258749 134.298508 
L 290.525375 135.325135 
L 290.577074 133.782823 
L 291.496939 136.463979 
L 292.612148 135.790176 
L 292.661641 133.748441 
L 293.603353 133.283379 
L 293.625488 134.66384 
L 293.969336 134.210669 
L 294.091777 134.420969 
L 294.15267 131.394094 
L 294.350301 133.310501 
L 294.704183 131.783441 
L 294.878496 133.859767 
L 295.393654 130.969325 
L 295.64807 130.862446 
L 295.674887 131.33902 
L 296.160475 133.188834 
L 296.402543 132.418889 
L 296.454325 130.820346 
L 296.847122 129.233704 
L 296.937961 130.853732 
L 297.346648 131.63608 
L 297.860503 128.834463 
L 297.919637 130.757589 
L 298.13476 130.27424 
L 298.982923 130.714946 
L 298.996085 130.864934 
L 299.698177 130.577981 
L 300.648055 127.647169 
L 301.15716 127.890005 
L 301.714282 127.216533 
L 302.725065 125.405809 
L 302.940389 127.524162 
L 303.033715 125.884773 
L 304.08401 126.421304 
L 304.206839 124.072038 
L 305.107413 125.138166 
L 305.273774 126.320039 
L 305.290537 124.768255 
L 305.382136 126.094203 
L 306.068961 125.800676 
L 306.213834 122.262582 
L 306.454828 125.449947 
L 306.572355 123.29501 
L 306.909621 125.141098 
L 307.082814 123.211691 
L 307.883609 124.508928 
L 308.042894 123.410974 
L 308.992719 123.594873 
L 309.383213 123.484938 
L 309.528743 123.017808 
L 309.874232 123.066234 
L 310.337941 120.033226 
L 310.583872 121.528826 
L 311.228349 119.130991 
L 311.231309 121.787403 
L 311.590646 121.86172 
L 311.648638 121.358899 
L 312.230007 118.44825 
L 312.392076 120.687436 
L 312.555343 121.141769 
L 313.316965 119.916903 
L 313.835929 119.836165 
L 314.1259 119.329735 
L 314.203073 119.720426 
L 314.642104 118.012595 
L 314.753508 119.159556 
L 314.778811 117.943988 
L 315.395688 117.96651 
L 315.661451 117.685735 
L 316.337649 118.045179 
L 316.374671 116.270466 
L 317.501102 115.81516 
L 317.796256 117.307951 
L 317.938798 116.945259 
L 318.450835 116.343931 
L 318.672108 115.299824 
L 320.21093 115.465968 
L 321.008484 114.832463 
L 321.014861 113.793844 
L 321.315885 114.489324 
L 321.422803 114.648054 
L 321.465779 111.519956 
L 321.470786 114.573487 
L 322.032944 113.883246 
L 322.658731 113.740825 
L 322.738144 113.349017 
L 322.760054 112.278079 
L 323.116231 113.048172 
L 323.903044 112.076614 
L 324.708719 111.375737 
L 324.80647 108.73914 
L 325.543358 111.366171 
L 325.661734 108.025481 
L 325.917941 111.339201 
L 326.117083 111.044054 
L 326.405544 109.307408 
L 326.439643 108.406117 
L 327.376543 109.751152 
L 327.806192 109.855755 
L 327.897151 109.745019 
L 328.373064 109.549927 
L 328.909573 106.071048 
L 329.389067 108.76361 
L 329.760884 105.112387 
L 329.877051 106.015798 
L 330.517376 107.97319 
L 330.956438 107.228189 
L 331.205757 107.13965 
L 331.766141 103.518593 
L 332.16572 104.828963 
L 332.208773 106.562237 
L 332.41144 104.96891 
L 332.836213 106.263024 
L 333.052313 105.326061 
L 333.231211 105.984211 
L 333.234802 104.904558 
L 333.395073 105.132685 
L 333.548205 105.650902 
L 333.586331 102.499386 
L 333.710417 105.604278 
L 333.831287 105.533426 
L 334.785596 104.230803 
L 334.936686 101.148974 
L 335.242325 102.426082 
L 335.405303 104.389131 
L 335.527142 101.0295 
L 335.741715 102.861679 
L 335.845212 100.749367 
L 335.885225 103.742484 
L 336.592001 103.30541 
L 337.596316 101.439522 
L 337.889062 101.827164 
L 338.091739 99.885883 
L 338.456765 101.933565 
L 338.65209 99.583614 
L 339.53345 99.459341 
L 339.703041 100.715727 
L 339.735448 97.905566 
L 339.959501 101.011234 
L 340.272194 97.255104 
L 340.617734 100.562281 
L 341.522372 97.212226 
L 341.584922 99.253618 
L 342.256244 99.174538 
L 342.389249 97.613292 
L 342.58976 99.098713 
L 342.939397 98.366953 
L 343.438219 96.293559 
L 343.575208 96.507017 
L 343.752863 98.079644 
L 344.413386 97.743639 
L 344.927436 96.348324 
L 345.137614 96.115821 
L 345.516362 96.568441 
L 345.653294 96.35949 
L 346.363034 93.320767 
L 347.145176 92.460703 
L 347.309287 94.297019 
L 347.698559 91.995714 
L 347.9029 95.144954 
L 348.153284 93.546529 
L 348.251643 94.81779 
L 348.628817 94.403596 
L 349.698236 93.013815 
L 350.073372 91.583543 
L 350.277243 90.218181 
L 350.375608 93.298925 
L 350.494363 90.037067 
L 350.534397 92.256202 
L 351.533991 92.103699 
L 351.584268 91.611282 
L 352.725935 91.678023 
L 352.732961 89.806719 
L 353.021564 89.867613 
L 353.381609 91.196445 
L 354.406036 87.176957 
L 354.712926 88.573796 
L 354.74349 89.75356 
L 354.80857 89.684339 
L 355.136807 87.553827 
L 355.395577 89.062161 
L 355.691139 89.125848 
L 355.921755 86.118087 
L 356.658697 85.98494 
L 356.761875 87.268016 
L 357.535626 85.295418 
L 357.698867 86.881414 
L 357.819413 85.804719 
L 357.924685 87.605006 
L 359.084898 85.035344 
L 359.2936 86.249234 
L 359.548395 86.516336 
L 359.601403 83.676688 
L 359.716143 86.050813 
L 360.490855 85.973313 
L 360.721751 84.124746 
L 360.741637 84.235304 
L 360.803688 85.601238 
L 361.047813 85.535633 
L 361.140731 85.290104 
L 361.447596 82.449902 
L 362.133326 83.841535 
L 362.5781 81.300795 
L 362.956485 84.16772 
L 363.293487 83.868144 
L 363.763277 83.300571 
L 363.801117 83.518676 
L 364.055473 83.198767 
L 364.076124 81.871052 
L 364.234179 81.773597 
L 364.329815 82.020953 
L 364.521152 82.84573 
L 364.756228 82.814335 
L 364.910556 82.139655 
L 365.296289 81.536636 
L 365.360993 80.454609 
L 365.816859 82.064505 
L 365.866249 80.472623 
L 365.90392 81.398244 
L 367.022037 79.56521 
L 367.024696 80.335331 
L 367.24405 79.732533 
L 367.283301 80.016734 
L 368.03347 76.877007 
L 368.498246 79.800352 
L 369.316321 77.915282 
L 369.389823 76.219682 
L 369.832596 77.265823 
L 369.838477 76.001757 
L 370.287464 78.57464 
L 370.373165 75.628712 
L 370.594236 77.232476 
L 371.278248 78.010681 
L 371.374095 77.72628 
L 371.561017 77.775997 
L 371.724023 75.935687 
L 371.77338 76.538091 
L 372.562331 75.794348 
L 372.673699 76.028243 
L 373.733221 75.698687 
L 373.980063 75.057851 
L 374.776126 74.330641 
L 374.917973 72.05244 
L 374.970544 72.348861 
L 375.251029 74.23514 
L 376.155395 73.364278 
L 376.500252 73.436952 
L 376.541708 74.176964 
L 377.937988 70.572205 
L 378.572375 72.123334 
L 378.680045 70.921527 
L 378.960637 69.450409 
L 379.32736 71.641954 
L 379.49014 69.12427 
L 380.041893 68.29039 
L 380.148773 70.607458 
L 380.51423 71.165701 
L 380.636785 68.990875 
L 380.732115 71.095631 
L 380.945225 67.459798 
L 381.245611 70.740377 
L 381.824866 70.244735 
L 381.942108 68.769205 
L 382.096889 70.057684 
L 382.338334 69.05102 
L 382.412354 67.674249 
L 382.545832 69.795309 
L 382.776947 69.196646 
L 382.813486 66.250988 
L 382.921373 69.257385 
L 384.395857 67.504041 
L 385.105388 65.348828 
L 385.390544 67.682172 
L 385.422083 67.528785 
L 386.301848 65.853137 
L 386.46148 65.804179 
L 386.903711 65.259469 
L 387.302702 64.385077 
L 387.391996 66.061144 
L 387.57435 65.795039 
L 388.074601 64.84087 
L 388.714859 65.016353 
L 388.732656 65.168912 
L 388.825477 64.695166 
L 391.886546 61.449125 
L 392.076964 62.765975 
L 392.254365 60.016618 
L 392.350337 60.295579 
L 392.402187 62.467165 
L 392.700834 59.334472 
L 392.893628 58.68385 
L 392.921514 60.075534 
L 393.766456 59.752603 
L 393.957717 61.185774 
L 394.705269 58.560967 
L 395.15104 60.539793 
L 395.191426 60.462665 
L 398.487273 58.067199 
L 398.487273 58.067199 
" clip-path="url(#pc70b4d0abd)" style="fill: none; stroke: #1f77b4; stroke-width: 1.5; stroke-linecap: square"/>
   </g>
   <g id="line2d_26">
    <path d="M 73.832727 291.813106 
L 398.487273 53.568 
L 398.487273 53.568 
" clip-path="url(#pc70b4d0abd)" style="fill: none; stroke: #ff7f0e; stroke-width: 1.5; stroke-linecap: square"/>
   </g>
   <g id="patch_3">
    <path d="M 57.6 307.584 
L 57.6 41.472 
" style="fill: none; stroke: #000000; stroke-width: 0.8; stroke-linejoin: miter; stroke-linecap: square"/>
   </g>
   <g id="patch_4">
    <path d="M 414.72 307.584 
L 414.72 41.472 
" style="fill: none; stroke: #000000; stroke-width: 0.8; stroke-linejoin: miter; stroke-linecap: square"/>
   </g>
   <g id="patch_5">
    <path d="M 57.6 307.584 
L 414.72 307.584 
" style="fill: none; stroke: #000000; stroke-width: 0.8; stroke-linejoin: miter; stroke-linecap: square"/>
   </g>
   <g id="patch_6">
    <path d="M 57.6 41.472 
L 414.72 41.472 
" style="fill: none; stroke: #000000; stroke-width: 0.8; stroke-linejoin: miter; stroke-linecap: square"/>
   </g>
   <g id="text_15">
    <!-- Perturbation when b is disturbed (m = 2) -->
    <g transform="translate(112.943438 35.472) scale(0.12 -0.12)">
     <defs>
      <path id="DejaVuSans-50" d="M 1259 4147 
L 1259 2394 
L 2053 2394 
Q 2494 2394 2734 2622 
Q 2975 2850 2975 3272 
Q 2975 3691 2734 3919 
Q 2494 4147 2053 4147 
L 1259 4147 
z
M 628 4666 
L 2053 4666 
Q 2838 4666 3239 4311 
Q 3641 3956 3641 3272 
Q 3641 2581 3239 2228 
Q 2838 1875 2053 1875 
L 1259 1875 
L 1259 0 
L 628 0 
L 628 4666 
z
" transform="scale(0.015625)"/>
      <path id="DejaVuSans-65" d="M 3597 1894 
L 3597 1613 
L 953 1613 
Q 991 1019 1311 708 
Q 1631 397 2203 397 
Q 2534 397 2845 478 
Q 3156 559 3463 722 
L 3463 178 
Q 3153 47 2828 -22 
Q 2503 -91 2169 -91 
Q 1331 -91 842 396 
Q 353 884 353 1716 
Q 353 2575 817 3079 
Q 1281 3584 2069 3584 
Q 2775 3584 3186 3129 
Q 3597 2675 3597 1894 
z
M 3022 2063 
Q 3016 2534 2758 2815 
Q 2500 3097 2075 3097 
Q 1594 3097 1305 2825 
Q 1016 2553 972 2059 
L 3022 2063 
z
" transform="scale(0.015625)"/>
      <path id="DejaVuSans-72" d="M 2631 2963 
Q 2534 3019 2420 3045 
Q 2306 3072 2169 3072 
Q 1681 3072 1420 2755 
Q 1159 2438 1159 1844 
L 1159 0 
L 581 0 
L 581 3500 
L 1159 3500 
L 1159 2956 
Q 1341 3275 1631 3429 
Q 1922 3584 2338 3584 
Q 2397 3584 2469 3576 
Q 2541 3569 2628 3553 
L 2631 2963 
z
" transform="scale(0.015625)"/>
      <path id="DejaVuSans-74" d="M 1172 4494 
L 1172 3500 
L 2356 3500 
L 2356 3053 
L 1172 3053 
L 1172 1153 
Q 1172 725 1289 603 
Q 1406 481 1766 481 
L 2356 481 
L 2356 0 
L 1766 0 
Q 1100 0 847 248 
Q 594 497 594 1153 
L 594 3053 
L 172 3053 
L 172 3500 
L 594 3500 
L 594 4494 
L 1172 4494 
z
" transform="scale(0.015625)"/>
      <path id="DejaVuSans-75" d="M 544 1381 
L 544 3500 
L 1119 3500 
L 1119 1403 
Q 1119 906 1312 657 
Q 1506 409 1894 409 
Q 2359 409 2629 706 
Q 2900 1003 2900 1516 
L 2900 3500 
L 3475 3500 
L 3475 0 
L 2900 0 
L 2900 538 
Q 2691 219 2414 64 
Q 2138 -91 1772 -91 
Q 1169 -91 856 284 
Q 544 659 544 1381 
z
M 1991 3584 
L 1991 3584 
z
" transform="scale(0.015625)"/>
      <path id="DejaVuSans-61" d="M 2194 1759 
Q 1497 1759 1228 1600 
Q 959 1441 959 1056 
Q 959 750 1161 570 
Q 1363 391 1709 391 
Q 2188 391 2477 730 
Q 2766 1069 2766 1631 
L 2766 1759 
L 2194 1759 
z
M 3341 1997 
L 3341 0 
L 2766 0 
L 2766 531 
Q 2569 213 2275 61 
Q 1981 -91 1556 -91 
Q 1019 -91 701 211 
Q 384 513 384 1019 
Q 384 1609 779 1909 
Q 1175 2209 1959 2209 
L 2766 2209 
L 2766 2266 
Q 2766 2663 2505 2880 
Q 2244 3097 1772 3097 
Q 1472 3097 1187 3025 
Q 903 2953 641 2809 
L 641 3341 
Q 956 3463 1253 3523 
Q 1550 3584 1831 3584 
Q 2591 3584 2966 3190 
Q 3341 2797 3341 1997 
z
" transform="scale(0.015625)"/>
      <path id="DejaVuSans-69" d="M 603 3500 
L 1178 3500 
L 1178 0 
L 603 0 
L 603 3500 
z
M 603 4863 
L 1178 4863 
L 1178 4134 
L 603 4134 
L 603 4863 
z
" transform="scale(0.015625)"/>
      <path id="DejaVuSans-6f" d="M 1959 3097 
Q 1497 3097 1228 2736 
Q 959 2375 959 1747 
Q 959 1119 1226 758 
Q 1494 397 1959 397 
Q 2419 397 2687 759 
Q 2956 1122 2956 1747 
Q 2956 2369 2687 2733 
Q 2419 3097 1959 3097 
z
M 1959 3584 
Q 2709 3584 3137 3096 
Q 3566 2609 3566 1747 
Q 3566 888 3137 398 
Q 2709 -91 1959 -91 
Q 1206 -91 779 398 
Q 353 888 353 1747 
Q 353 2609 779 3096 
Q 1206 3584 1959 3584 
z
" transform="scale(0.015625)"/>
      <path id="DejaVuSans-6e" d="M 3513 2113 
L 3513 0 
L 2938 0 
L 2938 2094 
Q 2938 2591 2744 2837 
Q 2550 3084 2163 3084 
Q 1697 3084 1428 2787 
Q 1159 2491 1159 1978 
L 1159 0 
L 581 0 
L 581 3500 
L 1159 3500 
L 1159 2956 
Q 1366 3272 1645 3428 
Q 1925 3584 2291 3584 
Q 2894 3584 3203 3211 
Q 3513 2838 3513 2113 
z
" transform="scale(0.015625)"/>
      <path id="DejaVuSans-20" transform="scale(0.015625)"/>
      <path id="DejaVuSans-77" d="M 269 3500 
L 844 3500 
L 1563 769 
L 2278 3500 
L 2956 3500 
L 3675 769 
L 4391 3500 
L 4966 3500 
L 4050 0 
L 3372 0 
L 2619 2869 
L 1863 0 
L 1184 0 
L 269 3500 
z
" transform="scale(0.015625)"/>
      <path id="DejaVuSans-68" d="M 3513 2113 
L 3513 0 
L 2938 0 
L 2938 2094 
Q 2938 2591 2744 2837 
Q 2550 3084 2163 3084 
Q 1697 3084 1428 2787 
Q 1159 2491 1159 1978 
L 1159 0 
L 581 0 
L 581 4863 
L 1159 4863 
L 1159 2956 
Q 1366 3272 1645 3428 
Q 1925 3584 2291 3584 
Q 2894 3584 3203 3211 
Q 3513 2838 3513 2113 
z
" transform="scale(0.015625)"/>
      <path id="DejaVuSans-73" d="M 2834 3397 
L 2834 2853 
Q 2591 2978 2328 3040 
Q 2066 3103 1784 3103 
Q 1356 3103 1142 2972 
Q 928 2841 928 2578 
Q 928 2378 1081 2264 
Q 1234 2150 1697 2047 
L 1894 2003 
Q 2506 1872 2764 1633 
Q 3022 1394 3022 966 
Q 3022 478 2636 193 
Q 2250 -91 1575 -91 
Q 1294 -91 989 -36 
Q 684 19 347 128 
L 347 722 
Q 666 556 975 473 
Q 1284 391 1588 391 
Q 1994 391 2212 530 
Q 2431 669 2431 922 
Q 2431 1156 2273 1281 
Q 2116 1406 1581 1522 
L 1381 1569 
Q 847 1681 609 1914 
Q 372 2147 372 2553 
Q 372 3047 722 3315 
Q 1072 3584 1716 3584 
Q 2034 3584 2315 3537 
Q 2597 3491 2834 3397 
z
" transform="scale(0.015625)"/>
      <path id="DejaVuSans-64" d="M 2906 2969 
L 2906 4863 
L 3481 4863 
L 3481 0 
L 2906 0 
L 2906 525 
Q 2725 213 2448 61 
Q 2172 -91 1784 -91 
Q 1150 -91 751 415 
Q 353 922 353 1747 
Q 353 2572 751 3078 
Q 1150 3584 1784 3584 
Q 2172 3584 2448 3432 
Q 2725 3281 2906 2969 
z
M 947 1747 
Q 947 1113 1208 752 
Q 1469 391 1925 391 
Q 2381 391 2643 752 
Q 2906 1113 2906 1747 
Q 2906 2381 2643 2742 
Q 2381 3103 1925 3103 
Q 1469 3103 1208 2742 
Q 947 2381 947 1747 
z
" transform="scale(0.015625)"/>
      <path id="DejaVuSans-28" d="M 1984 4856 
Q 1566 4138 1362 3434 
Q 1159 2731 1159 2009 
Q 1159 1288 1364 580 
Q 1569 -128 1984 -844 
L 1484 -844 
Q 1016 -109 783 600 
Q 550 1309 550 2009 
Q 550 2706 781 3412 
Q 1013 4119 1484 4856 
L 1984 4856 
z
" transform="scale(0.015625)"/>
      <path id="DejaVuSans-6d" d="M 3328 2828 
Q 3544 3216 3844 3400 
Q 4144 3584 4550 3584 
Q 5097 3584 5394 3201 
Q 5691 2819 5691 2113 
L 5691 0 
L 5113 0 
L 5113 2094 
Q 5113 2597 4934 2840 
Q 4756 3084 4391 3084 
Q 3944 3084 3684 2787 
Q 3425 2491 3425 1978 
L 3425 0 
L 2847 0 
L 2847 2094 
Q 2847 2600 2669 2842 
Q 2491 3084 2119 3084 
Q 1678 3084 1418 2786 
Q 1159 2488 1159 1978 
L 1159 0 
L 581 0 
L 581 3500 
L 1159 3500 
L 1159 2956 
Q 1356 3278 1631 3431 
Q 1906 3584 2284 3584 
Q 2666 3584 2933 3390 
Q 3200 3197 3328 2828 
z
" transform="scale(0.015625)"/>
      <path id="DejaVuSans-3d" d="M 678 2906 
L 4684 2906 
L 4684 2381 
L 678 2381 
L 678 2906 
z
M 678 1631 
L 4684 1631 
L 4684 1100 
L 678 1100 
L 678 1631 
z
" transform="scale(0.015625)"/>
      <path id="DejaVuSans-32" d="M 1228 531 
L 3431 531 
L 3431 0 
L 469 0 
L 469 531 
Q 828 903 1448 1529 
Q 2069 2156 2228 2338 
Q 2531 2678 2651 2914 
Q 2772 3150 2772 3378 
Q 2772 3750 2511 3984 
Q 2250 4219 1831 4219 
Q 1534 4219 1204 4116 
Q 875 4013 500 3803 
L 500 4441 
Q 881 4594 1212 4672 
Q 1544 4750 1819 4750 
Q 2544 4750 2975 4387 
Q 3406 4025 3406 3419 
Q 3406 3131 3298 2873 
Q 3191 2616 2906 2266 
Q 2828 2175 2409 1742 
Q 1991 1309 1228 531 
z
" transform="scale(0.015625)"/>
      <path id="DejaVuSans-29" d="M 513 4856 
L 1013 4856 
Q 1481 4119 1714 3412 
Q 1947 2706 1947 2009 
Q 1947 1309 1714 600 
Q 1481 -109 1013 -844 
L 513 -844 
Q 928 -128 1133 580 
Q 1338 1288 1338 2009 
Q 1338 2731 1133 3434 
Q 928 4138 513 4856 
z
" transform="scale(0.015625)"/>
     </defs>
     <use xlink:href="#DejaVuSans-50"/>
     <use xlink:href="#DejaVuSans-65" x="56.677734"/>
     <use xlink:href="#DejaVuSans-72" x="118.201172"/>
     <use xlink:href="#DejaVuSans-74" x="159.314453"/>
     <use xlink:href="#DejaVuSans-75" x="198.523438"/>
     <use xlink:href="#DejaVuSans-72" x="261.902344"/>
     <use xlink:href="#DejaVuSans-62" x="303.015625"/>
     <use xlink:href="#DejaVuSans-61" x="366.492188"/>
     <use xlink:href="#DejaVuSans-74" x="427.771484"/>
     <use xlink:href="#DejaVuSans-69" x="466.980469"/>
     <use xlink:href="#DejaVuSans-6f" x="494.763672"/>
     <use xlink:href="#DejaVuSans-6e" x="555.945312"/>
     <use xlink:href="#DejaVuSans-20" x="619.324219"/>
     <use xlink:href="#DejaVuSans-77" x="651.111328"/>
     <use xlink:href="#DejaVuSans-68" x="732.898438"/>
     <use xlink:href="#DejaVuSans-65" x="796.277344"/>
     <use xlink:href="#DejaVuSans-6e" x="857.800781"/>
     <use xlink:href="#DejaVuSans-20" x="921.179688"/>
     <use xlink:href="#DejaVuSans-62" x="952.966797"/>
     <use xlink:href="#DejaVuSans-20" x="1016.443359"/>
     <use xlink:href="#DejaVuSans-69" x="1048.230469"/>
     <use xlink:href="#DejaVuSans-73" x="1076.013672"/>
     <use xlink:href="#DejaVuSans-20" x="1128.113281"/>
     <use xlink:href="#DejaVuSans-64" x="1159.900391"/>
     <use xlink:href="#DejaVuSans-69" x="1223.376953"/>
     <use xlink:href="#DejaVuSans-73" x="1251.160156"/>
     <use xlink:href="#DejaVuSans-74" x="1303.259766"/>
     <use xlink:href="#DejaVuSans-75" x="1342.46875"/>
     <use xlink:href="#DejaVuSans-72" x="1405.847656"/>
     <use xlink:href="#DejaVuSans-62" x="1446.960938"/>
     <use xlink:href="#DejaVuSans-65" x="1510.4375"/>
     <use xlink:href="#DejaVuSans-64" x="1571.960938"/>
     <use xlink:href="#DejaVuSans-20" x="1635.4375"/>
     <use xlink:href="#DejaVuSans-28" x="1667.224609"/>
     <use xlink:href="#DejaVuSans-6d" x="1706.238281"/>
     <use xlink:href="#DejaVuSans-20" x="1803.650391"/>
     <use xlink:href="#DejaVuSans-3d" x="1835.4375"/>
     <use xlink:href="#DejaVuSans-20" x="1919.226562"/>
     <use xlink:href="#DejaVuSans-32" x="1951.013672"/>
     <use xlink:href="#DejaVuSans-29" x="2014.636719"/>
    </g>
   </g>
   <g id="legend_1">
    <g id="patch_7">
     <path d="M 64.6 79.250125 
L 302.1 79.250125 
Q 304.1 79.250125 304.1 77.250125 
L 304.1 48.472 
Q 304.1 46.472 302.1 46.472 
L 64.6 46.472 
Q 62.6 46.472 62.6 48.472 
L 62.6 77.250125 
Q 62.6 79.250125 64.6 79.250125 
z
" style="fill: #ffffff; opacity: 0.8; stroke: #cccccc; stroke-linejoin: miter"/>
    </g>
    <g id="line2d_27">
     <path d="M 66.6 54.570437 
L 76.6 54.570437 
L 86.6 54.570437 
" style="fill: none; stroke: #1f77b4; stroke-width: 1.5; stroke-linecap: square"/>
    </g>
    <g id="text_16">
     <!-- relative solution perturbation -->
     <g transform="translate(94.6 58.070437) scale(0.1 -0.1)">
      <defs>
       <path id="DejaVuSans-6c" d="M 603 4863 
L 1178 4863 
L 1178 0 
L 603 0 
L 603 4863 
z
" transform="scale(0.015625)"/>
       <path id="DejaVuSans-76" d="M 191 3500 
L 800 3500 
L 1894 563 
L 2988 3500 
L 3597 3500 
L 2284 0 
L 1503 0 
L 191 3500 
z
" transform="scale(0.015625)"/>
       <path id="DejaVuSans-70" d="M 1159 525 
L 1159 -1331 
L 581 -1331 
L 581 3500 
L 1159 3500 
L 1159 2969 
Q 1341 3281 1617 3432 
Q 1894 3584 2278 3584 
Q 2916 3584 3314 3078 
Q 3713 2572 3713 1747 
Q 3713 922 3314 415 
Q 2916 -91 2278 -91 
Q 1894 -91 1617 61 
Q 1341 213 1159 525 
z
M 3116 1747 
Q 3116 2381 2855 2742 
Q 2594 3103 2138 3103 
Q 1681 3103 1420 2742 
Q 1159 2381 1159 1747 
Q 1159 1113 1420 752 
Q 1681 391 2138 391 
Q 2594 391 2855 752 
Q 3116 1113 3116 1747 
z
" transform="scale(0.015625)"/>
      </defs>
      <use xlink:href="#DejaVuSans-72"/>
      <use xlink:href="#DejaVuSans-65" x="38.863281"/>
      <use xlink:href="#DejaVuSans-6c" x="100.386719"/>
      <use xlink:href="#DejaVuSans-61" x="128.169922"/>
      <use xlink:href="#DejaVuSans-74" x="189.449219"/>
      <use xlink:href="#DejaVuSans-69" x="228.658203"/>
      <use xlink:href="#DejaVuSans-76" x="256.441406"/>
      <use xlink:href="#DejaVuSans-65" x="315.621094"/>
      <use xlink:href="#DejaVuSans-20" x="377.144531"/>
      <use xlink:href="#DejaVuSans-73" x="408.931641"/>
      <use xlink:href="#DejaVuSans-6f" x="461.03125"/>
      <use xlink:href="#DejaVuSans-6c" x="522.212891"/>
      <use xlink:href="#DejaVuSans-75" x="549.996094"/>
      <use xlink:href="#DejaVuSans-74" x="613.375"/>
      <use xlink:href="#DejaVuSans-69" x="652.583984"/>
      <use xlink:href="#DejaVuSans-6f" x="680.367188"/>
      <use xlink:href="#DejaVuSans-6e" x="741.548828"/>
      <use xlink:href="#DejaVuSans-20" x="804.927734"/>
      <use xlink:href="#DejaVuSans-70" x="836.714844"/>
      <use xlink:href="#DejaVuSans-65" x="900.191406"/>
      <use xlink:href="#DejaVuSans-72" x="961.714844"/>
      <use xlink:href="#DejaVuSans-74" x="1002.828125"/>
      <use xlink:href="#DejaVuSans-75" x="1042.037109"/>
      <use xlink:href="#DejaVuSans-72" x="1105.416016"/>
      <use xlink:href="#DejaVuSans-62" x="1146.529297"/>
      <use xlink:href="#DejaVuSans-61" x="1210.005859"/>
      <use xlink:href="#DejaVuSans-74" x="1271.285156"/>
      <use xlink:href="#DejaVuSans-69" x="1310.494141"/>
      <use xlink:href="#DejaVuSans-6f" x="1338.277344"/>
      <use xlink:href="#DejaVuSans-6e" x="1399.458984"/>
     </g>
    </g>
    <g id="line2d_28">
     <path d="M 66.6 69.350125 
L 76.6 69.350125 
L 86.6 69.350125 
" style="fill: none; stroke: #ff7f0e; stroke-width: 1.5; stroke-linecap: square"/>
    </g>
    <g id="text_17">
     <!-- perturbation upper bound ($\kappa_b$*||$\delta$b||/||b||) -->
     <g transform="translate(94.6 72.850125) scale(0.1 -0.1)">
      <defs>
       <path id="DejaVuSans-Oblique-3ba" d="M 938 3500 
L 1531 3500 
L 1247 2047 
L 3041 3500 
L 3741 3500 
L 2106 2181 
L 3275 0 
L 2572 0 
L 1628 1806 
L 1122 1403 
L 850 0 
L 256 0 
L 938 3500 
z
" transform="scale(0.015625)"/>
       <path id="DejaVuSans-Oblique-62" d="M 3169 2138 
Q 3169 2591 2961 2847 
Q 2753 3103 2388 3103 
Q 2122 3103 1889 2973 
Q 1656 2844 1484 2597 
Q 1303 2338 1198 1995 
Q 1094 1653 1094 1313 
Q 1094 881 1298 636 
Q 1503 391 1863 391 
Q 2134 391 2365 517 
Q 2597 644 2772 891 
Q 2950 1147 3059 1487 
Q 3169 1828 3169 2138 
z
M 1381 2969 
Q 1594 3256 1914 3420 
Q 2234 3584 2584 3584 
Q 3122 3584 3439 3221 
Q 3756 2859 3756 2241 
Q 3756 1734 3570 1259 
Q 3384 784 3041 416 
Q 2816 172 2522 40 
Q 2228 -91 1906 -91 
Q 1566 -91 1316 65 
Q 1066 222 909 531 
L 806 0 
L 231 0 
L 1178 4863 
L 1753 4863 
L 1381 2969 
z
" transform="scale(0.015625)"/>
       <path id="DejaVuSans-2a" d="M 3009 3897 
L 1888 3291 
L 3009 2681 
L 2828 2375 
L 1778 3009 
L 1778 1831 
L 1422 1831 
L 1422 3009 
L 372 2375 
L 191 2681 
L 1313 3291 
L 191 3897 
L 372 4206 
L 1422 3572 
L 1422 4750 
L 1778 4750 
L 1778 3572 
L 2828 4206 
L 3009 3897 
z
" transform="scale(0.015625)"/>
      </defs>
      <use xlink:href="#DejaVuSans-70" transform="translate(0 0.578125)"/>
      <use xlink:href="#DejaVuSans-65" transform="translate(63.476562 0.578125)"/>
      <use xlink:href="#DejaVuSans-72" transform="translate(125 0.578125)"/>
      <use xlink:href="#DejaVuSans-74" transform="translate(166.113281 0.578125)"/>
      <use xlink:href="#DejaVuSans-75" transform="translate(205.322266 0.578125)"/>
      <use xlink:href="#DejaVuSans-72" transform="translate(268.701172 0.578125)"/>
      <use xlink:href="#DejaVuSans-62" transform="translate(309.814453 0.578125)"/>
      <use xlink:href="#DejaVuSans-61" transform="translate(373.291016 0.578125)"/>
      <use xlink:href="#DejaVuSans-74" transform="translate(434.570312 0.578125)"/>
      <use xlink:href="#DejaVuSans-69" transform="translate(473.779297 0.578125)"/>
      <use xlink:href="#DejaVuSans-6f" transform="translate(501.5625 0.578125)"/>
      <use xlink:href="#DejaVuSans-6e" transform="translate(562.744141 0.578125)"/>
      <use xlink:href="#DejaVuSans-20" transform="translate(626.123047 0.578125)"/>
      <use xlink:href="#DejaVuSans-75" transform="translate(657.910156 0.578125)"/>
      <use xlink:href="#DejaVuSans-70" transform="translate(721.289062 0.578125)"/>
      <use xlink:href="#DejaVuSans-70" transform="translate(784.765625 0.578125)"/>
      <use xlink:href="#DejaVuSans-65" transform="translate(848.242188 0.578125)"/>
      <use xlink:href="#DejaVuSans-72" transform="translate(909.765625 0.578125)"/>
      <use xlink:href="#DejaVuSans-20" transform="translate(950.878906 0.578125)"/>
      <use xlink:href="#DejaVuSans-62" transform="translate(982.666016 0.578125)"/>
      <use xlink:href="#DejaVuSans-6f" transform="translate(1046.142578 0.578125)"/>
      <use xlink:href="#DejaVuSans-75" transform="translate(1107.324219 0.578125)"/>
      <use xlink:href="#DejaVuSans-6e" transform="translate(1170.703125 0.578125)"/>
      <use xlink:href="#DejaVuSans-64" transform="translate(1234.082031 0.578125)"/>
      <use xlink:href="#DejaVuSans-20" transform="translate(1297.558594 0.578125)"/>
      <use xlink:href="#DejaVuSans-28" transform="translate(1329.345703 0.578125)"/>
      <use xlink:href="#DejaVuSans-Oblique-3ba" transform="translate(1368.359375 0.578125)"/>
      <use xlink:href="#DejaVuSans-Oblique-62" transform="translate(1427.294922 -15.828125) scale(0.7)"/>
      <use xlink:href="#DejaVuSans-2a" transform="translate(1474.462891 0.578125)"/>
      <use xlink:href="#DejaVuSans-7c" transform="translate(1524.462891 0.578125)"/>
      <use xlink:href="#DejaVuSans-7c" transform="translate(1558.154297 0.578125)"/>
      <use xlink:href="#DejaVuSans-Oblique-3b4" transform="translate(1591.845703 0.578125)"/>
      <use xlink:href="#DejaVuSans-62" transform="translate(1653.027344 0.578125)"/>
      <use xlink:href="#DejaVuSans-7c" transform="translate(1716.503906 0.578125)"/>
      <use xlink:href="#DejaVuSans-7c" transform="translate(1750.195312 0.578125)"/>
      <use xlink:href="#DejaVuSans-2f" transform="translate(1783.886719 0.578125)"/>
      <use xlink:href="#DejaVuSans-7c" transform="translate(1817.578125 0.578125)"/>
      <use xlink:href="#DejaVuSans-7c" transform="translate(1851.269531 0.578125)"/>
      <use xlink:href="#DejaVuSans-62" transform="translate(1884.960938 0.578125)"/>
      <use xlink:href="#DejaVuSans-7c" transform="translate(1948.4375 0.578125)"/>
      <use xlink:href="#DejaVuSans-7c" transform="translate(1982.128906 0.578125)"/>
      <use xlink:href="#DejaVuSans-29" transform="translate(2015.820312 0.578125)"/>
     </g>
    </g>
   </g>
  </g>
 </g>
 <defs>
  <clipPath id="pc70b4d0abd">
   <rect x="57.6" y="41.472" width="357.12" height="266.112"/>
  </clipPath>
 </defs>
</svg>
