<?xml version="1.0" encoding="utf-8" standalone="no"?>
<!DOCTYPE svg PUBLIC "-//W3C//DTD SVG 1.1//EN"
  "http://www.w3.org/Graphics/SVG/1.1/DTD/svg11.dtd">
<svg xmlns:xlink="http://www.w3.org/1999/xlink" width="460.8pt" height="345.6pt" viewBox="0 0 460.8 345.6" xmlns="http://www.w3.org/2000/svg" version="1.1">
 <metadata>
  <rdf:RDF xmlns:dc="http://purl.org/dc/elements/1.1/" xmlns:cc="http://creativecommons.org/ns#" xmlns:rdf="http://www.w3.org/1999/02/22-rdf-syntax-ns#">
   <cc:Work>
    <dc:type rdf:resource="http://purl.org/dc/dcmitype/StillImage"/>
    <dc:date>2024-03-10T10:37:19.221023</dc:date>
    <dc:format>image/svg+xml</dc:format>
    <dc:creator>
     <cc:Agent>
      <dc:title>Matplotlib v3.8.0, https://matplotlib.org/</dc:title>
     </cc:Agent>
    </dc:creator>
   </cc:Work>
  </rdf:RDF>
 </metadata>
 <defs>
  <style type="text/css">*{stroke-linejoin: round; stroke-linecap: butt}</style>
 </defs>
 <g id="figure_1">
  <g id="patch_1">
   <path d="M 0 345.6 
L 460.8 345.6 
L 460.8 0 
L 0 0 
z
" style="fill: #ffffff"/>
  </g>
  <g id="axes_1">
   <g id="patch_2">
    <path d="M 57.6 307.584 
L 414.72 307.584 
L 414.72 41.472 
L 57.6 41.472 
z
" style="fill: #ffffff"/>
   </g>
   <g id="matplotlib.axis_1">
    <g id="xtick_1">
     <g id="line2d_1">
      <path d="M 100.015522 307.584 
L 100.015522 41.472 
" clip-path="url(#pe35813da49)" style="fill: none; stroke: #b0b0b0; stroke-width: 0.8; stroke-linecap: square"/>
     </g>
     <g id="line2d_2">
      <defs>
       <path id="ma13b46e3bb" d="M 0 0 
L 0 3.5 
" style="stroke: #000000; stroke-width: 0.8"/>
      </defs>
      <g>
       <use xlink:href="#ma13b46e3bb" x="100.015522" y="307.584" style="stroke: #000000; stroke-width: 0.8"/>
      </g>
     </g>
     <g id="text_1">
      <!-- $\mathdefault{10^{-11}}$ -->
      <g transform="translate(86.065522 322.182437) scale(0.1 -0.1)">
       <defs>
        <path id="DejaVuSans-31" d="M 794 531 
L 1825 531 
L 1825 4091 
L 703 3866 
L 703 4441 
L 1819 4666 
L 2450 4666 
L 2450 531 
L 3481 531 
L 3481 0 
L 794 0 
L 794 531 
z
" transform="scale(0.015625)"/>
        <path id="DejaVuSans-30" d="M 2034 4250 
Q 1547 4250 1301 3770 
Q 1056 3291 1056 2328 
Q 1056 1369 1301 889 
Q 1547 409 2034 409 
Q 2525 409 2770 889 
Q 3016 1369 3016 2328 
Q 3016 3291 2770 3770 
Q 2525 4250 2034 4250 
z
M 2034 4750 
Q 2819 4750 3233 4129 
Q 3647 3509 3647 2328 
Q 3647 1150 3233 529 
Q 2819 -91 2034 -91 
Q 1250 -91 836 529 
Q 422 1150 422 2328 
Q 422 3509 836 4129 
Q 1250 4750 2034 4750 
z
" transform="scale(0.015625)"/>
        <path id="DejaVuSans-2212" d="M 678 2272 
L 4684 2272 
L 4684 1741 
L 678 1741 
L 678 2272 
z
" transform="scale(0.015625)"/>
       </defs>
       <use xlink:href="#DejaVuSans-31" transform="translate(0 0.684375)"/>
       <use xlink:href="#DejaVuSans-30" transform="translate(63.623047 0.684375)"/>
       <use xlink:href="#DejaVuSans-2212" transform="translate(128.203125 38.965625) scale(0.7)"/>
       <use xlink:href="#DejaVuSans-31" transform="translate(186.855469 38.965625) scale(0.7)"/>
       <use xlink:href="#DejaVuSans-31" transform="translate(231.391602 38.965625) scale(0.7)"/>
      </g>
     </g>
    </g>
    <g id="xtick_2">
     <g id="line2d_3">
      <path d="M 154.106567 307.584 
L 154.106567 41.472 
" clip-path="url(#pe35813da49)" style="fill: none; stroke: #b0b0b0; stroke-width: 0.8; stroke-linecap: square"/>
     </g>
     <g id="line2d_4">
      <g>
       <use xlink:href="#ma13b46e3bb" x="154.106567" y="307.584" style="stroke: #000000; stroke-width: 0.8"/>
      </g>
     </g>
     <g id="text_2">
      <!-- $\mathdefault{10^{-9}}$ -->
      <g transform="translate(142.356567 322.182437) scale(0.1 -0.1)">
       <defs>
        <path id="DejaVuSans-39" d="M 703 97 
L 703 672 
Q 941 559 1184 500 
Q 1428 441 1663 441 
Q 2288 441 2617 861 
Q 2947 1281 2994 2138 
Q 2813 1869 2534 1725 
Q 2256 1581 1919 1581 
Q 1219 1581 811 2004 
Q 403 2428 403 3163 
Q 403 3881 828 4315 
Q 1253 4750 1959 4750 
Q 2769 4750 3195 4129 
Q 3622 3509 3622 2328 
Q 3622 1225 3098 567 
Q 2575 -91 1691 -91 
Q 1453 -91 1209 -44 
Q 966 3 703 97 
z
M 1959 2075 
Q 2384 2075 2632 2365 
Q 2881 2656 2881 3163 
Q 2881 3666 2632 3958 
Q 2384 4250 1959 4250 
Q 1534 4250 1286 3958 
Q 1038 3666 1038 3163 
Q 1038 2656 1286 2365 
Q 1534 2075 1959 2075 
z
" transform="scale(0.015625)"/>
       </defs>
       <use xlink:href="#DejaVuSans-31" transform="translate(0 0.765625)"/>
       <use xlink:href="#DejaVuSans-30" transform="translate(63.623047 0.765625)"/>
       <use xlink:href="#DejaVuSans-2212" transform="translate(128.203125 39.046875) scale(0.7)"/>
       <use xlink:href="#DejaVuSans-39" transform="translate(186.855469 39.046875) scale(0.7)"/>
      </g>
     </g>
    </g>
    <g id="xtick_3">
     <g id="line2d_5">
      <path d="M 208.197613 307.584 
L 208.197613 41.472 
" clip-path="url(#pe35813da49)" style="fill: none; stroke: #b0b0b0; stroke-width: 0.8; stroke-linecap: square"/>
     </g>
     <g id="line2d_6">
      <g>
       <use xlink:href="#ma13b46e3bb" x="208.197613" y="307.584" style="stroke: #000000; stroke-width: 0.8"/>
      </g>
     </g>
     <g id="text_3">
      <!-- $\mathdefault{10^{-7}}$ -->
      <g transform="translate(196.447613 322.182437) scale(0.1 -0.1)">
       <defs>
        <path id="DejaVuSans-37" d="M 525 4666 
L 3525 4666 
L 3525 4397 
L 1831 0 
L 1172 0 
L 2766 4134 
L 525 4134 
L 525 4666 
z
" transform="scale(0.015625)"/>
       </defs>
       <use xlink:href="#DejaVuSans-31" transform="translate(0 0.684375)"/>
       <use xlink:href="#DejaVuSans-30" transform="translate(63.623047 0.684375)"/>
       <use xlink:href="#DejaVuSans-2212" transform="translate(128.203125 38.965625) scale(0.7)"/>
       <use xlink:href="#DejaVuSans-37" transform="translate(186.855469 38.965625) scale(0.7)"/>
      </g>
     </g>
    </g>
    <g id="xtick_4">
     <g id="line2d_7">
      <path d="M 262.288658 307.584 
L 262.288658 41.472 
" clip-path="url(#pe35813da49)" style="fill: none; stroke: #b0b0b0; stroke-width: 0.8; stroke-linecap: square"/>
     </g>
     <g id="line2d_8">
      <g>
       <use xlink:href="#ma13b46e3bb" x="262.288658" y="307.584" style="stroke: #000000; stroke-width: 0.8"/>
      </g>
     </g>
     <g id="text_4">
      <!-- $\mathdefault{10^{-5}}$ -->
      <g transform="translate(250.538658 322.182437) scale(0.1 -0.1)">
       <defs>
        <path id="DejaVuSans-35" d="M 691 4666 
L 3169 4666 
L 3169 4134 
L 1269 4134 
L 1269 2991 
Q 1406 3038 1543 3061 
Q 1681 3084 1819 3084 
Q 2600 3084 3056 2656 
Q 3513 2228 3513 1497 
Q 3513 744 3044 326 
Q 2575 -91 1722 -91 
Q 1428 -91 1123 -41 
Q 819 9 494 109 
L 494 744 
Q 775 591 1075 516 
Q 1375 441 1709 441 
Q 2250 441 2565 725 
Q 2881 1009 2881 1497 
Q 2881 1984 2565 2268 
Q 2250 2553 1709 2553 
Q 1456 2553 1204 2497 
Q 953 2441 691 2322 
L 691 4666 
z
" transform="scale(0.015625)"/>
       </defs>
       <use xlink:href="#DejaVuSans-31" transform="translate(0 0.684375)"/>
       <use xlink:href="#DejaVuSans-30" transform="translate(63.623047 0.684375)"/>
       <use xlink:href="#DejaVuSans-2212" transform="translate(128.203125 38.965625) scale(0.7)"/>
       <use xlink:href="#DejaVuSans-35" transform="translate(186.855469 38.965625) scale(0.7)"/>
      </g>
     </g>
    </g>
    <g id="xtick_5">
     <g id="line2d_9">
      <path d="M 316.379704 307.584 
L 316.379704 41.472 
" clip-path="url(#pe35813da49)" style="fill: none; stroke: #b0b0b0; stroke-width: 0.8; stroke-linecap: square"/>
     </g>
     <g id="line2d_10">
      <g>
       <use xlink:href="#ma13b46e3bb" x="316.379704" y="307.584" style="stroke: #000000; stroke-width: 0.8"/>
      </g>
     </g>
     <g id="text_5">
      <!-- $\mathdefault{10^{-3}}$ -->
      <g transform="translate(304.629704 322.182437) scale(0.1 -0.1)">
       <defs>
        <path id="DejaVuSans-33" d="M 2597 2516 
Q 3050 2419 3304 2112 
Q 3559 1806 3559 1356 
Q 3559 666 3084 287 
Q 2609 -91 1734 -91 
Q 1441 -91 1130 -33 
Q 819 25 488 141 
L 488 750 
Q 750 597 1062 519 
Q 1375 441 1716 441 
Q 2309 441 2620 675 
Q 2931 909 2931 1356 
Q 2931 1769 2642 2001 
Q 2353 2234 1838 2234 
L 1294 2234 
L 1294 2753 
L 1863 2753 
Q 2328 2753 2575 2939 
Q 2822 3125 2822 3475 
Q 2822 3834 2567 4026 
Q 2313 4219 1838 4219 
Q 1578 4219 1281 4162 
Q 984 4106 628 3988 
L 628 4550 
Q 988 4650 1302 4700 
Q 1616 4750 1894 4750 
Q 2613 4750 3031 4423 
Q 3450 4097 3450 3541 
Q 3450 3153 3228 2886 
Q 3006 2619 2597 2516 
z
" transform="scale(0.015625)"/>
       </defs>
       <use xlink:href="#DejaVuSans-31" transform="translate(0 0.765625)"/>
       <use xlink:href="#DejaVuSans-30" transform="translate(63.623047 0.765625)"/>
       <use xlink:href="#DejaVuSans-2212" transform="translate(128.203125 39.046875) scale(0.7)"/>
       <use xlink:href="#DejaVuSans-33" transform="translate(186.855469 39.046875) scale(0.7)"/>
      </g>
     </g>
    </g>
    <g id="xtick_6">
     <g id="line2d_11">
      <path d="M 370.47075 307.584 
L 370.47075 41.472 
" clip-path="url(#pe35813da49)" style="fill: none; stroke: #b0b0b0; stroke-width: 0.8; stroke-linecap: square"/>
     </g>
     <g id="line2d_12">
      <g>
       <use xlink:href="#ma13b46e3bb" x="370.47075" y="307.584" style="stroke: #000000; stroke-width: 0.8"/>
      </g>
     </g>
     <g id="text_6">
      <!-- $\mathdefault{10^{-1}}$ -->
      <g transform="translate(358.72075 322.182437) scale(0.1 -0.1)">
       <use xlink:href="#DejaVuSans-31" transform="translate(0 0.684375)"/>
       <use xlink:href="#DejaVuSans-30" transform="translate(63.623047 0.684375)"/>
       <use xlink:href="#DejaVuSans-2212" transform="translate(128.203125 38.965625) scale(0.7)"/>
       <use xlink:href="#DejaVuSans-31" transform="translate(186.855469 38.965625) scale(0.7)"/>
      </g>
     </g>
    </g>
    <g id="text_7">
     <!-- ||$\delta$b||/||b|| -->
     <g transform="translate(211.56 335.962125) scale(0.1 -0.1)">
      <defs>
       <path id="DejaVuSans-7c" d="M 1344 4891 
L 1344 -1509 
L 813 -1509 
L 813 4891 
L 1344 4891 
z
" transform="scale(0.015625)"/>
       <path id="DejaVuSans-Oblique-3b4" d="M 3472 4053 
Q 3197 4272 2450 4272 
Q 1659 4272 1588 3906 
Q 1531 3619 2328 3469 
Q 2953 3353 3253 3003 
Q 3616 2581 3447 1716 
Q 3284 888 2763 400 
Q 2238 -91 1488 -91 
Q 741 -91 406 400 
Q 72 888 241 1747 
Q 363 2384 891 2900 
Q 1097 3100 1353 3213 
Q 913 3459 1000 3900 
Q 1166 4750 2544 4750 
Q 3234 4750 3566 4531 
L 3472 4053 
z
M 1753 3056 
Q 1525 2966 1306 2738 
Q 969 2384 847 1747 
Q 722 1113 919 756 
Q 1119 397 1584 397 
Q 2044 397 2381 759 
Q 2722 1122 2838 1716 
Q 2956 2338 2731 2638 
Q 2491 2959 2103 2994 
Q 1906 3013 1753 3056 
z
" transform="scale(0.015625)"/>
       <path id="DejaVuSans-62" d="M 3116 1747 
Q 3116 2381 2855 2742 
Q 2594 3103 2138 3103 
Q 1681 3103 1420 2742 
Q 1159 2381 1159 1747 
Q 1159 1113 1420 752 
Q 1681 391 2138 391 
Q 2594 391 2855 752 
Q 3116 1113 3116 1747 
z
M 1159 2969 
Q 1341 3281 1617 3432 
Q 1894 3584 2278 3584 
Q 2916 3584 3314 3078 
Q 3713 2572 3713 1747 
Q 3713 922 3314 415 
Q 2916 -91 2278 -91 
Q 1894 -91 1617 61 
Q 1341 213 1159 525 
L 1159 0 
L 581 0 
L 581 4863 
L 1159 4863 
L 1159 2969 
z
" transform="scale(0.015625)"/>
       <path id="DejaVuSans-2f" d="M 1625 4666 
L 2156 4666 
L 531 -594 
L 0 -594 
L 1625 4666 
z
" transform="scale(0.015625)"/>
      </defs>
      <use xlink:href="#DejaVuSans-7c" transform="translate(0 0.578125)"/>
      <use xlink:href="#DejaVuSans-7c" transform="translate(33.691406 0.578125)"/>
      <use xlink:href="#DejaVuSans-Oblique-3b4" transform="translate(67.382812 0.578125)"/>
      <use xlink:href="#DejaVuSans-62" transform="translate(128.564453 0.578125)"/>
      <use xlink:href="#DejaVuSans-7c" transform="translate(192.041016 0.578125)"/>
      <use xlink:href="#DejaVuSans-7c" transform="translate(225.732422 0.578125)"/>
      <use xlink:href="#DejaVuSans-2f" transform="translate(259.423828 0.578125)"/>
      <use xlink:href="#DejaVuSans-7c" transform="translate(293.115234 0.578125)"/>
      <use xlink:href="#DejaVuSans-7c" transform="translate(326.806641 0.578125)"/>
      <use xlink:href="#DejaVuSans-62" transform="translate(360.498047 0.578125)"/>
      <use xlink:href="#DejaVuSans-7c" transform="translate(423.974609 0.578125)"/>
      <use xlink:href="#DejaVuSans-7c" transform="translate(457.666016 0.578125)"/>
     </g>
    </g>
   </g>
   <g id="matplotlib.axis_2">
    <g id="ytick_1">
     <g id="line2d_13">
      <path d="M 57.6 276.167846 
L 414.72 276.167846 
" clip-path="url(#pe35813da49)" style="fill: none; stroke: #b0b0b0; stroke-width: 0.8; stroke-linecap: square"/>
     </g>
     <g id="line2d_14">
      <defs>
       <path id="me3bca33a25" d="M 0 0 
L -3.5 0 
" style="stroke: #000000; stroke-width: 0.8"/>
      </defs>
      <g>
       <use xlink:href="#me3bca33a25" x="57.6" y="276.167846" style="stroke: #000000; stroke-width: 0.8"/>
      </g>
     </g>
     <g id="text_8">
      <!-- $\mathdefault{10^{-10}}$ -->
      <g transform="translate(22.7 279.967065) scale(0.1 -0.1)">
       <use xlink:href="#DejaVuSans-31" transform="translate(0 0.765625)"/>
       <use xlink:href="#DejaVuSans-30" transform="translate(63.623047 0.765625)"/>
       <use xlink:href="#DejaVuSans-2212" transform="translate(128.203125 39.046875) scale(0.7)"/>
       <use xlink:href="#DejaVuSans-31" transform="translate(186.855469 39.046875) scale(0.7)"/>
       <use xlink:href="#DejaVuSans-30" transform="translate(231.391602 39.046875) scale(0.7)"/>
      </g>
     </g>
    </g>
    <g id="ytick_2">
     <g id="line2d_15">
      <path d="M 57.6 235.861292 
L 414.72 235.861292 
" clip-path="url(#pe35813da49)" style="fill: none; stroke: #b0b0b0; stroke-width: 0.8; stroke-linecap: square"/>
     </g>
     <g id="line2d_16">
      <g>
       <use xlink:href="#me3bca33a25" x="57.6" y="235.861292" style="stroke: #000000; stroke-width: 0.8"/>
      </g>
     </g>
     <g id="text_9">
      <!-- $\mathdefault{10^{-8}}$ -->
      <g transform="translate(27.1 239.660511) scale(0.1 -0.1)">
       <defs>
        <path id="DejaVuSans-38" d="M 2034 2216 
Q 1584 2216 1326 1975 
Q 1069 1734 1069 1313 
Q 1069 891 1326 650 
Q 1584 409 2034 409 
Q 2484 409 2743 651 
Q 3003 894 3003 1313 
Q 3003 1734 2745 1975 
Q 2488 2216 2034 2216 
z
M 1403 2484 
Q 997 2584 770 2862 
Q 544 3141 544 3541 
Q 544 4100 942 4425 
Q 1341 4750 2034 4750 
Q 2731 4750 3128 4425 
Q 3525 4100 3525 3541 
Q 3525 3141 3298 2862 
Q 3072 2584 2669 2484 
Q 3125 2378 3379 2068 
Q 3634 1759 3634 1313 
Q 3634 634 3220 271 
Q 2806 -91 2034 -91 
Q 1263 -91 848 271 
Q 434 634 434 1313 
Q 434 1759 690 2068 
Q 947 2378 1403 2484 
z
M 1172 3481 
Q 1172 3119 1398 2916 
Q 1625 2713 2034 2713 
Q 2441 2713 2670 2916 
Q 2900 3119 2900 3481 
Q 2900 3844 2670 4047 
Q 2441 4250 2034 4250 
Q 1625 4250 1398 4047 
Q 1172 3844 1172 3481 
z
" transform="scale(0.015625)"/>
       </defs>
       <use xlink:href="#DejaVuSans-31" transform="translate(0 0.765625)"/>
       <use xlink:href="#DejaVuSans-30" transform="translate(63.623047 0.765625)"/>
       <use xlink:href="#DejaVuSans-2212" transform="translate(128.203125 39.046875) scale(0.7)"/>
       <use xlink:href="#DejaVuSans-38" transform="translate(186.855469 39.046875) scale(0.7)"/>
      </g>
     </g>
    </g>
    <g id="ytick_3">
     <g id="line2d_17">
      <path d="M 57.6 195.554739 
L 414.72 195.554739 
" clip-path="url(#pe35813da49)" style="fill: none; stroke: #b0b0b0; stroke-width: 0.8; stroke-linecap: square"/>
     </g>
     <g id="line2d_18">
      <g>
       <use xlink:href="#me3bca33a25" x="57.6" y="195.554739" style="stroke: #000000; stroke-width: 0.8"/>
      </g>
     </g>
     <g id="text_10">
      <!-- $\mathdefault{10^{-6}}$ -->
      <g transform="translate(27.1 199.353958) scale(0.1 -0.1)">
       <defs>
        <path id="DejaVuSans-36" d="M 2113 2584 
Q 1688 2584 1439 2293 
Q 1191 2003 1191 1497 
Q 1191 994 1439 701 
Q 1688 409 2113 409 
Q 2538 409 2786 701 
Q 3034 994 3034 1497 
Q 3034 2003 2786 2293 
Q 2538 2584 2113 2584 
z
M 3366 4563 
L 3366 3988 
Q 3128 4100 2886 4159 
Q 2644 4219 2406 4219 
Q 1781 4219 1451 3797 
Q 1122 3375 1075 2522 
Q 1259 2794 1537 2939 
Q 1816 3084 2150 3084 
Q 2853 3084 3261 2657 
Q 3669 2231 3669 1497 
Q 3669 778 3244 343 
Q 2819 -91 2113 -91 
Q 1303 -91 875 529 
Q 447 1150 447 2328 
Q 447 3434 972 4092 
Q 1497 4750 2381 4750 
Q 2619 4750 2861 4703 
Q 3103 4656 3366 4563 
z
" transform="scale(0.015625)"/>
       </defs>
       <use xlink:href="#DejaVuSans-31" transform="translate(0 0.765625)"/>
       <use xlink:href="#DejaVuSans-30" transform="translate(63.623047 0.765625)"/>
       <use xlink:href="#DejaVuSans-2212" transform="translate(128.203125 39.046875) scale(0.7)"/>
       <use xlink:href="#DejaVuSans-36" transform="translate(186.855469 39.046875) scale(0.7)"/>
      </g>
     </g>
    </g>
    <g id="ytick_4">
     <g id="line2d_19">
      <path d="M 57.6 155.248186 
L 414.72 155.248186 
" clip-path="url(#pe35813da49)" style="fill: none; stroke: #b0b0b0; stroke-width: 0.8; stroke-linecap: square"/>
     </g>
     <g id="line2d_20">
      <g>
       <use xlink:href="#me3bca33a25" x="57.6" y="155.248186" style="stroke: #000000; stroke-width: 0.8"/>
      </g>
     </g>
     <g id="text_11">
      <!-- $\mathdefault{10^{-4}}$ -->
      <g transform="translate(27.1 159.047405) scale(0.1 -0.1)">
       <defs>
        <path id="DejaVuSans-34" d="M 2419 4116 
L 825 1625 
L 2419 1625 
L 2419 4116 
z
M 2253 4666 
L 3047 4666 
L 3047 1625 
L 3713 1625 
L 3713 1100 
L 3047 1100 
L 3047 0 
L 2419 0 
L 2419 1100 
L 313 1100 
L 313 1709 
L 2253 4666 
z
" transform="scale(0.015625)"/>
       </defs>
       <use xlink:href="#DejaVuSans-31" transform="translate(0 0.684375)"/>
       <use xlink:href="#DejaVuSans-30" transform="translate(63.623047 0.684375)"/>
       <use xlink:href="#DejaVuSans-2212" transform="translate(128.203125 38.965625) scale(0.7)"/>
       <use xlink:href="#DejaVuSans-34" transform="translate(186.855469 38.965625) scale(0.7)"/>
      </g>
     </g>
    </g>
    <g id="ytick_5">
     <g id="line2d_21">
      <path d="M 57.6 114.941633 
L 414.72 114.941633 
" clip-path="url(#pe35813da49)" style="fill: none; stroke: #b0b0b0; stroke-width: 0.8; stroke-linecap: square"/>
     </g>
     <g id="line2d_22">
      <g>
       <use xlink:href="#me3bca33a25" x="57.6" y="114.941633" style="stroke: #000000; stroke-width: 0.8"/>
      </g>
     </g>
     <g id="text_12">
      <!-- $\mathdefault{10^{-2}}$ -->
      <g transform="translate(27.1 118.740851) scale(0.1 -0.1)">
       <defs>
        <path id="DejaVuSans-32" d="M 1228 531 
L 3431 531 
L 3431 0 
L 469 0 
L 469 531 
Q 828 903 1448 1529 
Q 2069 2156 2228 2338 
Q 2531 2678 2651 2914 
Q 2772 3150 2772 3378 
Q 2772 3750 2511 3984 
Q 2250 4219 1831 4219 
Q 1534 4219 1204 4116 
Q 875 4013 500 3803 
L 500 4441 
Q 881 4594 1212 4672 
Q 1544 4750 1819 4750 
Q 2544 4750 2975 4387 
Q 3406 4025 3406 3419 
Q 3406 3131 3298 2873 
Q 3191 2616 2906 2266 
Q 2828 2175 2409 1742 
Q 1991 1309 1228 531 
z
" transform="scale(0.015625)"/>
       </defs>
       <use xlink:href="#DejaVuSans-31" transform="translate(0 0.765625)"/>
       <use xlink:href="#DejaVuSans-30" transform="translate(63.623047 0.765625)"/>
       <use xlink:href="#DejaVuSans-2212" transform="translate(128.203125 39.046875) scale(0.7)"/>
       <use xlink:href="#DejaVuSans-32" transform="translate(186.855469 39.046875) scale(0.7)"/>
      </g>
     </g>
    </g>
    <g id="ytick_6">
     <g id="line2d_23">
      <path d="M 57.6 74.635079 
L 414.72 74.635079 
" clip-path="url(#pe35813da49)" style="fill: none; stroke: #b0b0b0; stroke-width: 0.8; stroke-linecap: square"/>
     </g>
     <g id="line2d_24">
      <g>
       <use xlink:href="#me3bca33a25" x="57.6" y="74.635079" style="stroke: #000000; stroke-width: 0.8"/>
      </g>
     </g>
     <g id="text_13">
      <!-- $\mathdefault{10^{0}}$ -->
      <g transform="translate(33 78.434298) scale(0.1 -0.1)">
       <use xlink:href="#DejaVuSans-31" transform="translate(0 0.765625)"/>
       <use xlink:href="#DejaVuSans-30" transform="translate(63.623047 0.765625)"/>
       <use xlink:href="#DejaVuSans-30" transform="translate(128.203125 39.046875) scale(0.7)"/>
      </g>
     </g>
    </g>
    <g id="text_14">
     <!-- ||$\delta$x||/||x|| -->
     <g transform="translate(16.3 198.678) rotate(-90) scale(0.1 -0.1)">
      <defs>
       <path id="DejaVuSans-78" d="M 3513 3500 
L 2247 1797 
L 3578 0 
L 2900 0 
L 1881 1375 
L 863 0 
L 184 0 
L 1544 1831 
L 300 3500 
L 978 3500 
L 1906 2253 
L 2834 3500 
L 3513 3500 
z
" transform="scale(0.015625)"/>
      </defs>
      <use xlink:href="#DejaVuSans-7c" transform="translate(0 0.578125)"/>
      <use xlink:href="#DejaVuSans-7c" transform="translate(33.691406 0.578125)"/>
      <use xlink:href="#DejaVuSans-Oblique-3b4" transform="translate(67.382812 0.578125)"/>
      <use xlink:href="#DejaVuSans-78" transform="translate(128.564453 0.578125)"/>
      <use xlink:href="#DejaVuSans-7c" transform="translate(187.744141 0.578125)"/>
      <use xlink:href="#DejaVuSans-7c" transform="translate(221.435547 0.578125)"/>
      <use xlink:href="#DejaVuSans-2f" transform="translate(255.126953 0.578125)"/>
      <use xlink:href="#DejaVuSans-7c" transform="translate(288.818359 0.578125)"/>
      <use xlink:href="#DejaVuSans-7c" transform="translate(322.509766 0.578125)"/>
      <use xlink:href="#DejaVuSans-78" transform="translate(356.201172 0.578125)"/>
      <use xlink:href="#DejaVuSans-7c" transform="translate(415.380859 0.578125)"/>
      <use xlink:href="#DejaVuSans-7c" transform="translate(449.072266 0.578125)"/>
     </g>
    </g>
   </g>
   <g id="line2d_25">
    <path d="M 73.832727 256.164355 
L 87.502423 256.16746 
L 90.957018 256.130284 
L 90.972778 256.190471 
L 91.066224 256.15766 
L 92.459918 256.15859 
L 98.690742 256.134957 
L 98.806104 256.23513 
L 98.981534 256.100159 
L 100.174259 256.203288 
L 102.389324 256.101637 
L 103.136292 256.133032 
L 104.785727 256.206244 
L 104.887766 256.290816 
L 105.401511 256.084851 
L 106.304475 256.202191 
L 106.73904 256.088073 
L 107.041228 256.156061 
L 107.654984 256.091944 
L 107.745861 256.237667 
L 107.811287 256.115363 
L 108.042601 256.143198 
L 108.083428 256.363002 
L 108.744142 256.260341 
L 109.165994 256.323211 
L 109.437468 256.131004 
L 109.483266 256.221255 
L 109.689591 256.245669 
L 110.507474 256.252922 
L 111.797029 255.995203 
L 112.220796 256.24501 
L 113.027126 255.984763 
L 113.11922 256.067095 
L 113.177841 256.360014 
L 113.456317 256.141584 
L 115.000646 256.138749 
L 115.529707 255.923552 
L 116.153801 255.896151 
L 116.561022 256.431666 
L 117.139814 255.629187 
L 117.172256 256.430022 
L 117.286664 255.894852 
L 117.408443 256.283488 
L 117.56736 256.349847 
L 118.420702 256.194436 
L 118.818411 256.272708 
L 119.44703 256.173906 
L 119.870277 256.028817 
L 119.973802 256.423166 
L 120.235467 256.475768 
L 121.089778 256.127423 
L 121.258206 256.176201 
L 121.723461 256.501194 
L 121.724796 256.296826 
L 122.255231 255.655312 
L 122.853638 256.158875 
L 122.962806 257.056591 
L 123.26561 256.141319 
L 123.869192 256.58293 
L 123.906478 256.19452 
L 124.224615 255.661025 
L 124.238001 255.927734 
L 124.829713 255.999115 
L 124.905422 256.48398 
L 124.962357 256.076064 
L 125.237539 255.72599 
L 125.454149 256.351021 
L 125.678031 256.58303 
L 126.343799 256.009605 
L 127.220509 256.264745 
L 128.011094 257.418374 
L 128.664578 256.258836 
L 128.959514 256.369512 
L 129.38897 256.120268 
L 129.911546 255.967471 
L 130.180197 256.081023 
L 130.350418 255.50826 
L 130.871333 255.727551 
L 131.691024 256.34684 
L 131.791408 256.77109 
L 131.847026 255.998321 
L 132.084993 256.27006 
L 132.378226 256.291429 
L 132.711341 256.081913 
L 133.142091 256.297722 
L 133.296994 255.586802 
L 134.102256 255.201086 
L 134.213684 257.666157 
L 134.446052 256.59831 
L 135.403221 256.465429 
L 135.506643 255.705857 
L 135.889479 255.297218 
L 136.178683 255.747109 
L 136.443001 257.396451 
L 136.69635 255.705784 
L 136.82734 256.710124 
L 137.364901 256.451945 
L 137.820862 254.372361 
L 138.057055 257.034342 
L 138.186118 255.770682 
L 138.607742 256.640972 
L 139.063907 255.417254 
L 139.259637 257.69946 
L 139.636017 254.394945 
L 139.835993 256.694017 
L 140.220086 259.266103 
L 140.440081 258.56188 
L 141.371473 255.030272 
L 141.890466 256.052681 
L 142.018719 257.073248 
L 142.113248 254.791553 
L 142.772495 253.976433 
L 143.061436 260.2015 
L 143.677867 255.508202 
L 143.941322 257.041422 
L 144.255612 254.723594 
L 144.400587 256.112015 
L 145.004873 254.67973 
L 145.186993 255.477344 
L 145.553766 256.539356 
L 146.089191 250.668212 
L 146.095455 260.386172 
L 146.189288 253.656697 
L 146.324459 258.33898 
L 147.089277 253.788871 
L 147.144288 255.866587 
L 147.992025 258.488186 
L 148.77208 254.967149 
L 149.064262 254.242791 
L 149.279448 260.037987 
L 149.398261 252.184799 
L 149.908164 257.088736 
L 150.174498 252.660922 
L 151.082184 251.742398 
L 151.299269 272.592705 
L 151.401741 255.480342 
L 151.627536 250.950181 
L 152.350052 272.720019 
L 152.65858 255.495788 
L 152.97219 254.585779 
L 153.152612 254.951019 
L 153.324206 253.730208 
L 153.419809 254.171147 
L 153.583034 251.769079 
L 154.191687 278.218878 
L 154.607901 252.750478 
L 154.730844 260.726767 
L 155.025581 249.78724 
L 155.303023 257.650699 
L 155.763632 251.839558 
L 156.54875 257.526361 
L 156.71583 249.723622 
L 157.071102 266.102111 
L 157.509477 259.285186 
L 157.772293 250.211331 
L 158.518924 254.094775 
L 158.521224 248.143738 
L 158.717155 258.122161 
L 159.548784 255.552774 
L 159.870528 258.967301 
L 160.186696 253.700748 
L 160.225263 246.75872 
L 160.257527 263.424827 
L 160.41006 253.074798 
L 160.802549 254.830857 
L 160.847111 255.934524 
L 161.070812 251.301412 
L 161.350951 259.686668 
L 161.47594 258.522166 
L 162.415418 252.423851 
L 163.249735 262.080673 
L 163.694703 253.060835 
L 164.552602 271.238187 
L 164.584774 247.37219 
L 164.935527 261.231814 
L 165.009257 253.3386 
L 165.590199 266.248596 
L 166.270914 251.10138 
L 166.481096 253.049596 
L 167.427931 246.446707 
L 167.579032 259.256975 
L 167.757443 243.091237 
L 168.138869 249.867712 
L 168.487635 253.317716 
L 168.663923 259.503323 
L 168.958275 242.068757 
L 169.125655 244.159854 
L 169.63495 246.985111 
L 169.818343 259.283392 
L 170.082115 255.59 
L 170.175863 250.261753 
L 171.300552 267.756068 
L 171.470716 250.989992 
L 172.134644 263.270877 
L 172.84143 245.395591 
L 172.88434 257.179468 
L 173.104638 249.539901 
L 173.142681 258.462067 
L 173.307851 241.95522 
L 173.409171 250.641051 
L 174.578583 255.248583 
L 174.998322 239.700806 
L 175.801617 238.881964 
L 175.963728 243.280434 
L 176.105546 242.98818 
L 176.112527 234.162942 
L 176.171223 248.46476 
L 176.889631 236.533175 
L 177.41116 238.636882 
L 177.939146 252.708353 
L 178.606371 239.016253 
L 178.997898 259.454903 
L 179.39338 254.605103 
L 179.868321 238.956548 
L 179.914333 242.157126 
L 180.05106 262.740374 
L 180.417386 248.059273 
L 180.598691 260.229576 
L 180.838026 238.226836 
L 181.448599 254.413994 
L 181.475027 254.120822 
L 181.703217 243.849889 
L 182.678586 245.611702 
L 182.827222 239.650544 
L 183.035481 251.039362 
L 183.425313 236.744232 
L 183.706062 244.185114 
L 183.821333 240.120709 
L 184.007291 241.522647 
L 184.101632 247.550405 
L 184.462821 232.330938 
L 184.774465 245.833803 
L 185.503164 241.511 
L 186.402135 231.577561 
L 186.435698 241.61166 
L 186.48659 236.4904 
L 187.453774 260.260496 
L 187.453793 234.248104 
L 187.591267 257.359461 
L 188.035939 239.909438 
L 188.289622 257.090932 
L 188.865286 243.28273 
L 189.580851 235.490023 
L 189.786473 241.89339 
L 189.96977 240.880801 
L 190.120077 238.242401 
L 190.183034 238.938588 
L 190.30323 241.241324 
L 190.352141 236.27426 
L 191.354222 257.659485 
L 191.750977 231.31732 
L 192.161826 235.187312 
L 192.306576 228.314945 
L 192.573734 229.607862 
L 192.828662 248.342875 
L 193.331252 237.223289 
L 193.583958 234.28004 
L 193.983601 239.774934 
L 194.400905 233.020249 
L 194.426445 251.686019 
L 194.774318 226.415055 
L 194.877204 239.432098 
L 195.474939 240.233439 
L 195.502992 239.986093 
L 195.522051 229.682245 
L 196.260674 239.588098 
L 196.71307 232.185995 
L 197.017352 231.376968 
L 197.101356 251.117617 
L 197.328926 235.797892 
L 198.042468 239.889611 
L 198.147851 235.129088 
L 198.196001 240.921907 
L 199.775149 226.187211 
L 199.823381 241.426931 
L 199.96643 248.228179 
L 200.128807 242.19412 
L 200.475342 236.301839 
L 200.531808 223.0634 
L 200.666877 248.189999 
L 200.822924 224.971891 
L 201.340094 234.066129 
L 201.754236 219.871166 
L 201.947572 242.123131 
L 202.02903 222.260086 
L 202.764995 227.751981 
L 203.389536 221.009538 
L 203.536277 231.911238 
L 203.908723 228.418634 
L 204.294635 217.612282 
L 204.380009 241.745087 
L 204.489018 236.996415 
L 205.087574 227.062582 
L 205.380487 217.455274 
L 206.02446 219.690719 
L 206.263949 232.547195 
L 206.888405 216.439493 
L 207.079332 219.10043 
L 207.26907 225.317399 
L 207.63332 232.306681 
L 207.905307 226.763548 
L 208.574013 226.349028 
L 208.634196 235.666725 
L 209.225066 220.48616 
L 209.294983 227.941265 
L 209.506213 223.671261 
L 209.882068 224.491823 
L 209.887528 214.021578 
L 210.573247 224.331179 
L 211.687074 216.029837 
L 211.80818 216.715447 
L 211.982046 239.956954 
L 212.510068 219.198097 
L 212.974415 219.869186 
L 213.881432 223.180098 
L 213.977747 216.759807 
L 214.126488 222.655174 
L 214.5042 227.825644 
L 215.009142 232.106284 
L 215.246733 217.456553 
L 215.312024 219.478712 
L 215.976146 230.592038 
L 216.555559 214.984732 
L 216.570976 236.61018 
L 216.947265 221.926921 
L 217.407371 226.06927 
L 217.620956 216.309745 
L 217.884712 234.624325 
L 218.322511 218.529039 
L 218.481255 225.806318 
L 218.875565 228.878121 
L 219.691145 229.727534 
L 219.825397 209.233838 
L 219.868397 204.356701 
L 219.990915 211.802806 
L 221.264022 205.58592 
L 221.26848 214.373979 
L 221.909235 217.327883 
L 222.158329 225.409864 
L 222.387218 225.684726 
L 222.864003 199.82554 
L 223.682922 214.339257 
L 223.726662 209.142078 
L 223.894872 228.893702 
L 224.418644 212.568054 
L 225.130579 203.440412 
L 225.591105 227.112201 
L 226.435289 210.014433 
L 226.66442 220.86174 
L 226.941965 196.904535 
L 227.009013 225.351335 
L 227.010806 217.225372 
L 227.175621 207.136987 
L 227.579664 223.344788 
L 227.655454 208.62063 
L 227.715501 212.242345 
L 229.014441 205.801309 
L 229.229513 208.287339 
L 229.699774 206.994187 
L 229.727146 201.669084 
L 230.439206 202.017205 
L 230.475185 210.211445 
L 230.496036 207.797953 
L 231.181549 200.508399 
L 231.399462 215.134015 
L 231.440617 213.654707 
L 231.5069 203.992966 
L 232.559559 217.486162 
L 233.062596 201.48371 
L 233.55386 204.690517 
L 233.76045 216.793047 
L 233.833067 202.356114 
L 234.271722 202.343076 
L 234.719499 221.65715 
L 234.952086 212.66873 
L 234.990661 204.498419 
L 235.671741 202.189642 
L 235.900432 197.164395 
L 236.520528 210.569812 
L 236.976492 207.509804 
L 237.055632 200.171663 
L 237.787975 204.578724 
L 238.129847 200.564251 
L 238.629318 212.690009 
L 238.941744 216.672506 
L 239.140755 195.82654 
L 239.469439 216.708436 
L 239.831988 203.048282 
L 240.605523 209.258351 
L 240.625956 211.356249 
L 241.401902 200.475582 
L 241.739361 198.994211 
L 242.496313 207.201191 
L 242.712962 191.145179 
L 243.29787 220.631317 
L 243.469948 197.572082 
L 243.64912 195.763364 
L 244.656534 188.972124 
L 244.669512 213.351191 
L 244.754058 194.913842 
L 245.267933 194.414236 
L 245.756076 202.813966 
L 245.788401 195.963518 
L 246.166087 208.467278 
L 246.650279 187.003357 
L 246.981018 200.971411 
L 247.04739 190.246678 
L 247.298724 185.894702 
L 247.450371 199.538137 
L 248.448327 199.780403 
L 248.469966 205.576515 
L 248.728999 183.420172 
L 249.276643 192.223812 
L 249.352412 187.125189 
L 249.852977 195.022169 
L 250.867975 179.454641 
L 251.193561 212.331555 
L 251.749897 187.124045 
L 251.751115 189.537614 
L 252.33068 202.419021 
L 252.52134 183.134162 
L 252.576728 209.701207 
L 253.001535 182.851588 
L 253.019663 200.111254 
L 253.30406 191.514547 
L 253.638686 204.783207 
L 254.053422 186.773623 
L 254.454337 194.034152 
L 255.10865 191.890393 
L 255.141128 199.614171 
L 256.515455 181.80833 
L 257.263048 180.447771 
L 257.362329 186.905679 
L 257.64454 191.097245 
L 257.782989 202.711886 
L 258.101254 184.111084 
L 258.450228 181.945921 
L 258.519067 206.457514 
L 258.936558 186.234041 
L 258.955365 191.148422 
L 259.758382 187.585992 
L 260.228935 202.549368 
L 260.388799 181.437261 
L 260.594955 184.220902 
L 261.012579 178.011216 
L 262.086532 199.80338 
L 262.20693 174.363333 
L 262.329111 185.485286 
L 262.329119 198.056047 
L 262.723437 190.753684 
L 263.609345 193.430056 
L 263.833792 188.915768 
L 264.39493 181.443632 
L 264.534139 194.139805 
L 264.549812 181.215384 
L 265.134943 179.954837 
L 265.728426 178.148613 
L 266.014911 187.963136 
L 266.468475 169.291643 
L 266.496487 177.424151 
L 266.807323 174.425826 
L 266.842779 191.528631 
L 267.484118 192.6996 
L 267.535667 187.771234 
L 268.54637 175.983794 
L 268.681209 179.953562 
L 268.938464 171.446393 
L 269.460796 188.806198 
L 270.017223 177.141644 
L 270.44269 187.737463 
L 270.538384 172.968775 
L 271.050606 175.35684 
L 271.723037 181.616717 
L 271.99969 170.705848 
L 272.000379 171.066581 
L 272.22442 188.386755 
L 272.29548 175.357367 
L 273.532117 173.38316 
L 273.932718 169.289432 
L 274.029655 176.06021 
L 274.254746 174.936584 
L 274.299887 178.870178 
L 274.689455 173.687842 
L 274.938726 180.91367 
L 275.074028 165.383166 
L 275.716353 182.421625 
L 275.966463 183.483793 
L 277.112369 180.280765 
L 277.138342 181.475591 
L 277.197623 167.417963 
L 278.133934 164.912107 
L 278.187323 170.530274 
L 278.597881 175.164138 
L 278.627566 161.60413 
L 278.675644 163.316811 
L 278.938198 174.186961 
L 279.085038 190.643097 
L 279.712392 185.037335 
L 280.228674 167.493786 
L 281.133478 165.819954 
L 281.160846 180.068772 
L 281.169745 162.707072 
L 281.881007 166.772928 
L 282.036178 184.36264 
L 282.282056 172.661247 
L 282.553386 166.549555 
L 283.3653 174.557585 
L 283.888419 174.135963 
L 283.933045 167.28957 
L 284.136674 163.93772 
L 284.215743 179.393539 
L 284.843771 159.479311 
L 284.858988 159.891533 
L 284.894616 167.31747 
L 285.427202 160.673543 
L 286.050545 166.516868 
L 286.128082 182.777861 
L 286.643201 189.646053 
L 287.17137 163.802288 
L 287.692108 164.899587 
L 287.929036 184.508513 
L 288.080633 162.562296 
L 288.349096 158.880903 
L 288.892963 165.47563 
L 289.826059 159.036339 
L 289.984909 170.74316 
L 290.013395 155.163657 
L 290.016661 166.307409 
L 290.347376 166.473987 
L 290.652365 162.363152 
L 291.748141 169.958793 
L 291.964502 165.212335 
L 292.650165 169.815831 
L 292.659895 162.162457 
L 292.795061 152.187516 
L 292.831876 171.469852 
L 293.585322 156.341563 
L 293.791958 160.99624 
L 293.912887 156.591213 
L 294.064341 178.949566 
L 294.873064 175.640247 
L 295.295981 157.884715 
L 295.334719 163.655816 
L 296.178071 160.011576 
L 296.231647 175.947276 
L 296.286612 157.032313 
L 296.667946 155.937208 
L 296.974865 159.042882 
L 297.424234 166.00661 
L 298.488043 159.09486 
L 298.594467 163.899929 
L 298.759715 149.232626 
L 299.234973 161.582695 
L 299.259596 153.276603 
L 299.769551 172.346623 
L 300.433471 166.783294 
L 300.45032 153.960936 
L 300.669815 152.146407 
L 300.857928 153.71683 
L 302.011412 157.037832 
L 302.159887 147.054665 
L 302.321324 145.559941 
L 302.740778 158.165719 
L 303.373713 158.048397 
L 303.5877 148.42834 
L 303.616231 156.815956 
L 304.583892 150.384968 
L 304.713298 152.287704 
L 304.728058 160.099804 
L 305.168488 155.323925 
L 305.277762 145.63383 
L 305.358375 152.905624 
L 305.756739 143.664501 
L 305.84656 149.323814 
L 306.016712 147.087671 
L 306.583028 148.275698 
L 306.825781 143.029125 
L 307.40927 143.63799 
L 307.917505 164.434905 
L 308.748759 144.261678 
L 308.779142 149.853506 
L 309.515448 145.37852 
L 309.51794 168.1614 
L 309.606415 158.956627 
L 310.067397 158.386851 
L 310.258825 144.807111 
L 310.817674 160.354248 
L 310.953689 153.85446 
L 311.846722 159.366339 
L 311.95253 144.647257 
L 312.106582 142.181945 
L 312.753888 151.313087 
L 312.799693 138.260628 
L 313.345853 154.272448 
L 313.458898 142.628973 
L 313.546936 156.296049 
L 314.072029 147.970291 
L 314.598793 134.628935 
L 315.16416 147.241855 
L 315.658663 165.388037 
L 316.448938 139.604836 
L 316.767803 154.000416 
L 317.113469 136.539498 
L 317.193633 144.316375 
L 317.708542 133.737384 
L 318.233734 147.198815 
L 318.23399 141.399107 
L 318.703153 137.482695 
L 319.174827 135.689536 
L 319.274164 139.601472 
L 319.630348 143.560705 
L 320.230595 130.890337 
L 320.323739 147.919567 
L 321.256863 136.376059 
L 321.345313 142.263243 
L 321.361814 151.276667 
L 322.03615 145.319172 
L 322.054683 137.074887 
L 322.315476 148.571848 
L 322.616341 143.744684 
L 322.694691 139.254519 
L 323.672774 139.978214 
L 324.141405 139.047774 
L 324.383322 140.897107 
L 324.944393 143.438927 
L 325.056766 127.016583 
L 325.163473 139.281602 
L 325.494395 131.142176 
L 325.943821 143.037142 
L 325.953084 141.268159 
L 326.519471 142.535072 
L 326.52516 141.608475 
L 327.035362 134.194073 
L 327.32913 157.388635 
L 327.872283 142.504846 
L 327.903104 149.820566 
L 328.535488 133.327696 
L 328.835147 139.138631 
L 329.008528 146.58154 
L 329.248766 137.681087 
L 329.422213 147.513741 
L 330.032929 131.38659 
L 330.261622 130.993294 
L 331.139192 122.583841 
L 331.197039 136.93248 
L 331.431101 140.788761 
L 331.662663 125.629269 
L 332.31912 139.228011 
L 332.866532 131.500802 
L 333.349254 133.019807 
L 333.389806 135.238582 
L 333.436501 127.032371 
L 333.536377 144.327005 
L 333.907055 133.997839 
L 334.467152 143.563522 
L 334.554209 131.899817 
L 334.860512 137.975717 
L 335.207061 127.561151 
L 335.606786 120.309864 
L 336.47102 122.765961 
L 336.640129 133.634996 
L 336.704111 125.802978 
L 336.806377 128.681624 
L 337.281253 146.048274 
L 337.965259 123.347036 
L 338.396485 131.470076 
L 338.498646 119.568646 
L 338.558199 120.397721 
L 338.585071 129.929208 
L 339.11772 117.657198 
L 339.277019 122.76013 
L 339.949573 133.597429 
L 340.17325 128.716736 
L 340.241424 128.826746 
L 341.233524 128.155035 
L 341.302182 126.702084 
L 341.441252 133.545665 
L 342.100601 130.844428 
L 342.172186 118.546696 
L 342.18761 131.614732 
L 342.592389 120.069458 
L 342.690718 121.040314 
L 344.092533 136.832464 
L 344.179035 125.678612 
L 344.327056 124.185759 
L 344.748778 122.014559 
L 344.878619 133.110865 
L 345.284768 133.169545 
L 345.381131 119.52189 
L 345.819129 142.82906 
L 346.294891 112.496341 
L 346.500991 132.544998 
L 346.743531 115.302747 
L 347.203271 117.972018 
L 347.698217 109.674723 
L 347.840709 130.716484 
L 348.182955 130.86885 
L 348.212497 114.604763 
L 348.541962 140.900717 
L 349.110507 128.37332 
L 349.171008 114.033569 
L 349.230576 124.049479 
L 349.945561 129.320607 
L 350.566913 104.953255 
L 350.781548 119.245787 
L 351.040581 124.741125 
L 351.156864 114.71669 
L 351.213692 134.107519 
L 352.049687 108.9878 
L 352.469941 111.592804 
L 352.489834 119.360366 
L 353.055418 105.529446 
L 353.063115 133.742777 
L 354.058063 128.034548 
L 354.262357 121.600015 
L 354.362336 131.328997 
L 355.150705 119.40037 
L 355.417716 109.647422 
L 355.564296 118.56609 
L 355.654472 107.741964 
L 357.407735 105.801275 
L 357.568565 125.863138 
L 357.581628 106.23951 
L 357.696389 121.537399 
L 357.784972 113.300376 
L 358.682717 104.809269 
L 358.84161 114.634245 
L 359.535755 111.652168 
L 359.797946 116.758972 
L 359.831978 105.513046 
L 360.285697 119.163919 
L 360.504004 115.577623 
L 360.630879 110.425433 
L 360.962582 109.477067 
L 361.764304 118.170067 
L 361.855768 108.61218 
L 362.763597 111.729032 
L 363.294222 104.778545 
L 363.325631 106.495015 
L 363.341367 103.670059 
L 363.343656 105.608403 
L 364.366682 120.199929 
L 364.926423 102.266663 
L 365.046557 125.411756 
L 365.081322 116.396144 
L 365.413967 112.870637 
L 366.113631 115.920239 
L 366.156055 122.66944 
L 366.381881 109.639752 
L 366.845341 96.439005 
L 366.993462 99.573642 
L 367.409895 123.65573 
L 367.462072 115.060611 
L 368.562247 97.899325 
L 368.790297 97.136181 
L 369.211174 116.149724 
L 369.362841 100.842749 
L 369.566633 111.364178 
L 369.735553 99.108432 
L 370.552001 101.470368 
L 370.638227 109.311123 
L 370.806058 107.81116 
L 371.341719 95.719242 
L 372.001338 123.365335 
L 372.254888 118.38054 
L 372.555254 115.213928 
L 372.851338 103.206914 
L 373.315891 102.698394 
L 373.344217 94.390724 
L 373.413651 95.31929 
L 373.465777 101.700528 
L 373.686679 102.554899 
L 373.889527 107.387123 
L 374.948812 93.515747 
L 375.088082 110.652175 
L 375.133014 96.005045 
L 376.037464 103.091502 
L 376.090258 91.926065 
L 376.53748 89.111508 
L 376.559311 119.753958 
L 376.902493 90.279448 
L 377.414908 98.648069 
L 377.672354 88.358297 
L 377.920071 91.79072 
L 378.138583 89.993149 
L 378.668035 102.77257 
L 378.917307 84.640503 
L 379.041093 105.409967 
L 379.702299 98.120905 
L 379.984891 89.161708 
L 380.338554 103.177069 
L 381.058046 87.790158 
L 381.291117 101.038895 
L 381.640886 95.000328 
L 382.250489 98.456336 
L 382.943636 90.987352 
L 383.149758 92.600544 
L 383.304961 95.472288 
L 383.359742 100.055809 
L 383.832421 93.393841 
L 383.947304 86.947518 
L 384.000916 92.722709 
L 384.917026 90.207327 
L 385.197761 95.081502 
L 385.437741 92.093625 
L 386.048014 94.231011 
L 386.411295 92.139343 
L 386.663157 84.246048 
L 386.753464 93.090109 
L 386.95115 85.320125 
L 387.30842 97.13436 
L 387.46203 100.937293 
L 388.317747 88.776452 
L 389.3624 82.622016 
L 389.58375 97.768734 
L 389.619007 85.765372 
L 389.804846 90.348111 
L 390.022348 84.950215 
L 390.217155 93.171752 
L 390.23052 88.014198 
L 391.077378 84.408178 
L 391.729415 84.614004 
L 392.022902 98.873071 
L 392.180876 81.182076 
L 392.425351 82.207106 
L 392.811414 90.891507 
L 392.96221 103.521114 
L 393.100557 83.911248 
L 393.649481 78.855024 
L 394.25864 83.880595 
L 394.815988 81.027368 
L 395.201044 90.041489 
L 395.722532 89.584305 
L 395.788366 88.82743 
L 396.045683 88.578445 
L 396.48512 94.716358 
L 396.540868 87.513745 
L 397.050597 78.733082 
L 397.06846 91.857459 
L 398.009017 80.020054 
L 398.240246 101.082873 
L 398.25967 76.64835 
L 398.487273 75.855264 
L 398.487273 75.855264 
" clip-path="url(#pe35813da49)" style="fill: none; stroke: #1f77b4; stroke-width: 1.5; stroke-linecap: square"/>
   </g>
   <g id="line2d_26">
    <path d="M 73.832727 295.488 
L 398.487273 53.568 
L 398.487273 53.568 
" clip-path="url(#pe35813da49)" style="fill: none; stroke: #ff7f0e; stroke-width: 1.5; stroke-linecap: square"/>
   </g>
   <g id="patch_3">
    <path d="M 57.6 307.584 
L 57.6 41.472 
" style="fill: none; stroke: #000000; stroke-width: 0.8; stroke-linejoin: miter; stroke-linecap: square"/>
   </g>
   <g id="patch_4">
    <path d="M 414.72 307.584 
L 414.72 41.472 
" style="fill: none; stroke: #000000; stroke-width: 0.8; stroke-linejoin: miter; stroke-linecap: square"/>
   </g>
   <g id="patch_5">
    <path d="M 57.6 307.584 
L 414.72 307.584 
" style="fill: none; stroke: #000000; stroke-width: 0.8; stroke-linejoin: miter; stroke-linecap: square"/>
   </g>
   <g id="patch_6">
    <path d="M 57.6 41.472 
L 414.72 41.472 
" style="fill: none; stroke: #000000; stroke-width: 0.8; stroke-linejoin: miter; stroke-linecap: square"/>
   </g>
   <g id="text_15">
    <!-- Perturbation when b is disturbed (m = 100) -->
    <g transform="translate(105.308437 35.472) scale(0.12 -0.12)">
     <defs>
      <path id="DejaVuSans-50" d="M 1259 4147 
L 1259 2394 
L 2053 2394 
Q 2494 2394 2734 2622 
Q 2975 2850 2975 3272 
Q 2975 3691 2734 3919 
Q 2494 4147 2053 4147 
L 1259 4147 
z
M 628 4666 
L 2053 4666 
Q 2838 4666 3239 4311 
Q 3641 3956 3641 3272 
Q 3641 2581 3239 2228 
Q 2838 1875 2053 1875 
L 1259 1875 
L 1259 0 
L 628 0 
L 628 4666 
z
" transform="scale(0.015625)"/>
      <path id="DejaVuSans-65" d="M 3597 1894 
L 3597 1613 
L 953 1613 
Q 991 1019 1311 708 
Q 1631 397 2203 397 
Q 2534 397 2845 478 
Q 3156 559 3463 722 
L 3463 178 
Q 3153 47 2828 -22 
Q 2503 -91 2169 -91 
Q 1331 -91 842 396 
Q 353 884 353 1716 
Q 353 2575 817 3079 
Q 1281 3584 2069 3584 
Q 2775 3584 3186 3129 
Q 3597 2675 3597 1894 
z
M 3022 2063 
Q 3016 2534 2758 2815 
Q 2500 3097 2075 3097 
Q 1594 3097 1305 2825 
Q 1016 2553 972 2059 
L 3022 2063 
z
" transform="scale(0.015625)"/>
      <path id="DejaVuSans-72" d="M 2631 2963 
Q 2534 3019 2420 3045 
Q 2306 3072 2169 3072 
Q 1681 3072 1420 2755 
Q 1159 2438 1159 1844 
L 1159 0 
L 581 0 
L 581 3500 
L 1159 3500 
L 1159 2956 
Q 1341 3275 1631 3429 
Q 1922 3584 2338 3584 
Q 2397 3584 2469 3576 
Q 2541 3569 2628 3553 
L 2631 2963 
z
" transform="scale(0.015625)"/>
      <path id="DejaVuSans-74" d="M 1172 4494 
L 1172 3500 
L 2356 3500 
L 2356 3053 
L 1172 3053 
L 1172 1153 
Q 1172 725 1289 603 
Q 1406 481 1766 481 
L 2356 481 
L 2356 0 
L 1766 0 
Q 1100 0 847 248 
Q 594 497 594 1153 
L 594 3053 
L 172 3053 
L 172 3500 
L 594 3500 
L 594 4494 
L 1172 4494 
z
" transform="scale(0.015625)"/>
      <path id="DejaVuSans-75" d="M 544 1381 
L 544 3500 
L 1119 3500 
L 1119 1403 
Q 1119 906 1312 657 
Q 1506 409 1894 409 
Q 2359 409 2629 706 
Q 2900 1003 2900 1516 
L 2900 3500 
L 3475 3500 
L 3475 0 
L 2900 0 
L 2900 538 
Q 2691 219 2414 64 
Q 2138 -91 1772 -91 
Q 1169 -91 856 284 
Q 544 659 544 1381 
z
M 1991 3584 
L 1991 3584 
z
" transform="scale(0.015625)"/>
      <path id="DejaVuSans-61" d="M 2194 1759 
Q 1497 1759 1228 1600 
Q 959 1441 959 1056 
Q 959 750 1161 570 
Q 1363 391 1709 391 
Q 2188 391 2477 730 
Q 2766 1069 2766 1631 
L 2766 1759 
L 2194 1759 
z
M 3341 1997 
L 3341 0 
L 2766 0 
L 2766 531 
Q 2569 213 2275 61 
Q 1981 -91 1556 -91 
Q 1019 -91 701 211 
Q 384 513 384 1019 
Q 384 1609 779 1909 
Q 1175 2209 1959 2209 
L 2766 2209 
L 2766 2266 
Q 2766 2663 2505 2880 
Q 2244 3097 1772 3097 
Q 1472 3097 1187 3025 
Q 903 2953 641 2809 
L 641 3341 
Q 956 3463 1253 3523 
Q 1550 3584 1831 3584 
Q 2591 3584 2966 3190 
Q 3341 2797 3341 1997 
z
" transform="scale(0.015625)"/>
      <path id="DejaVuSans-69" d="M 603 3500 
L 1178 3500 
L 1178 0 
L 603 0 
L 603 3500 
z
M 603 4863 
L 1178 4863 
L 1178 4134 
L 603 4134 
L 603 4863 
z
" transform="scale(0.015625)"/>
      <path id="DejaVuSans-6f" d="M 1959 3097 
Q 1497 3097 1228 2736 
Q 959 2375 959 1747 
Q 959 1119 1226 758 
Q 1494 397 1959 397 
Q 2419 397 2687 759 
Q 2956 1122 2956 1747 
Q 2956 2369 2687 2733 
Q 2419 3097 1959 3097 
z
M 1959 3584 
Q 2709 3584 3137 3096 
Q 3566 2609 3566 1747 
Q 3566 888 3137 398 
Q 2709 -91 1959 -91 
Q 1206 -91 779 398 
Q 353 888 353 1747 
Q 353 2609 779 3096 
Q 1206 3584 1959 3584 
z
" transform="scale(0.015625)"/>
      <path id="DejaVuSans-6e" d="M 3513 2113 
L 3513 0 
L 2938 0 
L 2938 2094 
Q 2938 2591 2744 2837 
Q 2550 3084 2163 3084 
Q 1697 3084 1428 2787 
Q 1159 2491 1159 1978 
L 1159 0 
L 581 0 
L 581 3500 
L 1159 3500 
L 1159 2956 
Q 1366 3272 1645 3428 
Q 1925 3584 2291 3584 
Q 2894 3584 3203 3211 
Q 3513 2838 3513 2113 
z
" transform="scale(0.015625)"/>
      <path id="DejaVuSans-20" transform="scale(0.015625)"/>
      <path id="DejaVuSans-77" d="M 269 3500 
L 844 3500 
L 1563 769 
L 2278 3500 
L 2956 3500 
L 3675 769 
L 4391 3500 
L 4966 3500 
L 4050 0 
L 3372 0 
L 2619 2869 
L 1863 0 
L 1184 0 
L 269 3500 
z
" transform="scale(0.015625)"/>
      <path id="DejaVuSans-68" d="M 3513 2113 
L 3513 0 
L 2938 0 
L 2938 2094 
Q 2938 2591 2744 2837 
Q 2550 3084 2163 3084 
Q 1697 3084 1428 2787 
Q 1159 2491 1159 1978 
L 1159 0 
L 581 0 
L 581 4863 
L 1159 4863 
L 1159 2956 
Q 1366 3272 1645 3428 
Q 1925 3584 2291 3584 
Q 2894 3584 3203 3211 
Q 3513 2838 3513 2113 
z
" transform="scale(0.015625)"/>
      <path id="DejaVuSans-73" d="M 2834 3397 
L 2834 2853 
Q 2591 2978 2328 3040 
Q 2066 3103 1784 3103 
Q 1356 3103 1142 2972 
Q 928 2841 928 2578 
Q 928 2378 1081 2264 
Q 1234 2150 1697 2047 
L 1894 2003 
Q 2506 1872 2764 1633 
Q 3022 1394 3022 966 
Q 3022 478 2636 193 
Q 2250 -91 1575 -91 
Q 1294 -91 989 -36 
Q 684 19 347 128 
L 347 722 
Q 666 556 975 473 
Q 1284 391 1588 391 
Q 1994 391 2212 530 
Q 2431 669 2431 922 
Q 2431 1156 2273 1281 
Q 2116 1406 1581 1522 
L 1381 1569 
Q 847 1681 609 1914 
Q 372 2147 372 2553 
Q 372 3047 722 3315 
Q 1072 3584 1716 3584 
Q 2034 3584 2315 3537 
Q 2597 3491 2834 3397 
z
" transform="scale(0.015625)"/>
      <path id="DejaVuSans-64" d="M 2906 2969 
L 2906 4863 
L 3481 4863 
L 3481 0 
L 2906 0 
L 2906 525 
Q 2725 213 2448 61 
Q 2172 -91 1784 -91 
Q 1150 -91 751 415 
Q 353 922 353 1747 
Q 353 2572 751 3078 
Q 1150 3584 1784 3584 
Q 2172 3584 2448 3432 
Q 2725 3281 2906 2969 
z
M 947 1747 
Q 947 1113 1208 752 
Q 1469 391 1925 391 
Q 2381 391 2643 752 
Q 2906 1113 2906 1747 
Q 2906 2381 2643 2742 
Q 2381 3103 1925 3103 
Q 1469 3103 1208 2742 
Q 947 2381 947 1747 
z
" transform="scale(0.015625)"/>
      <path id="DejaVuSans-28" d="M 1984 4856 
Q 1566 4138 1362 3434 
Q 1159 2731 1159 2009 
Q 1159 1288 1364 580 
Q 1569 -128 1984 -844 
L 1484 -844 
Q 1016 -109 783 600 
Q 550 1309 550 2009 
Q 550 2706 781 3412 
Q 1013 4119 1484 4856 
L 1984 4856 
z
" transform="scale(0.015625)"/>
      <path id="DejaVuSans-6d" d="M 3328 2828 
Q 3544 3216 3844 3400 
Q 4144 3584 4550 3584 
Q 5097 3584 5394 3201 
Q 5691 2819 5691 2113 
L 5691 0 
L 5113 0 
L 5113 2094 
Q 5113 2597 4934 2840 
Q 4756 3084 4391 3084 
Q 3944 3084 3684 2787 
Q 3425 2491 3425 1978 
L 3425 0 
L 2847 0 
L 2847 2094 
Q 2847 2600 2669 2842 
Q 2491 3084 2119 3084 
Q 1678 3084 1418 2786 
Q 1159 2488 1159 1978 
L 1159 0 
L 581 0 
L 581 3500 
L 1159 3500 
L 1159 2956 
Q 1356 3278 1631 3431 
Q 1906 3584 2284 3584 
Q 2666 3584 2933 3390 
Q 3200 3197 3328 2828 
z
" transform="scale(0.015625)"/>
      <path id="DejaVuSans-3d" d="M 678 2906 
L 4684 2906 
L 4684 2381 
L 678 2381 
L 678 2906 
z
M 678 1631 
L 4684 1631 
L 4684 1100 
L 678 1100 
L 678 1631 
z
" transform="scale(0.015625)"/>
      <path id="DejaVuSans-29" d="M 513 4856 
L 1013 4856 
Q 1481 4119 1714 3412 
Q 1947 2706 1947 2009 
Q 1947 1309 1714 600 
Q 1481 -109 1013 -844 
L 513 -844 
Q 928 -128 1133 580 
Q 1338 1288 1338 2009 
Q 1338 2731 1133 3434 
Q 928 4138 513 4856 
z
" transform="scale(0.015625)"/>
     </defs>
     <use xlink:href="#DejaVuSans-50"/>
     <use xlink:href="#DejaVuSans-65" x="56.677734"/>
     <use xlink:href="#DejaVuSans-72" x="118.201172"/>
     <use xlink:href="#DejaVuSans-74" x="159.314453"/>
     <use xlink:href="#DejaVuSans-75" x="198.523438"/>
     <use xlink:href="#DejaVuSans-72" x="261.902344"/>
     <use xlink:href="#DejaVuSans-62" x="303.015625"/>
     <use xlink:href="#DejaVuSans-61" x="366.492188"/>
     <use xlink:href="#DejaVuSans-74" x="427.771484"/>
     <use xlink:href="#DejaVuSans-69" x="466.980469"/>
     <use xlink:href="#DejaVuSans-6f" x="494.763672"/>
     <use xlink:href="#DejaVuSans-6e" x="555.945312"/>
     <use xlink:href="#DejaVuSans-20" x="619.324219"/>
     <use xlink:href="#DejaVuSans-77" x="651.111328"/>
     <use xlink:href="#DejaVuSans-68" x="732.898438"/>
     <use xlink:href="#DejaVuSans-65" x="796.277344"/>
     <use xlink:href="#DejaVuSans-6e" x="857.800781"/>
     <use xlink:href="#DejaVuSans-20" x="921.179688"/>
     <use xlink:href="#DejaVuSans-62" x="952.966797"/>
     <use xlink:href="#DejaVuSans-20" x="1016.443359"/>
     <use xlink:href="#DejaVuSans-69" x="1048.230469"/>
     <use xlink:href="#DejaVuSans-73" x="1076.013672"/>
     <use xlink:href="#DejaVuSans-20" x="1128.113281"/>
     <use xlink:href="#DejaVuSans-64" x="1159.900391"/>
     <use xlink:href="#DejaVuSans-69" x="1223.376953"/>
     <use xlink:href="#DejaVuSans-73" x="1251.160156"/>
     <use xlink:href="#DejaVuSans-74" x="1303.259766"/>
     <use xlink:href="#DejaVuSans-75" x="1342.46875"/>
     <use xlink:href="#DejaVuSans-72" x="1405.847656"/>
     <use xlink:href="#DejaVuSans-62" x="1446.960938"/>
     <use xlink:href="#DejaVuSans-65" x="1510.4375"/>
     <use xlink:href="#DejaVuSans-64" x="1571.960938"/>
     <use xlink:href="#DejaVuSans-20" x="1635.4375"/>
     <use xlink:href="#DejaVuSans-28" x="1667.224609"/>
     <use xlink:href="#DejaVuSans-6d" x="1706.238281"/>
     <use xlink:href="#DejaVuSans-20" x="1803.650391"/>
     <use xlink:href="#DejaVuSans-3d" x="1835.4375"/>
     <use xlink:href="#DejaVuSans-20" x="1919.226562"/>
     <use xlink:href="#DejaVuSans-31" x="1951.013672"/>
     <use xlink:href="#DejaVuSans-30" x="2014.636719"/>
     <use xlink:href="#DejaVuSans-30" x="2078.259766"/>
     <use xlink:href="#DejaVuSans-29" x="2141.882812"/>
    </g>
   </g>
   <g id="legend_1">
    <g id="patch_7">
     <path d="M 64.6 79.250125 
L 302.1 79.250125 
Q 304.1 79.250125 304.1 77.250125 
L 304.1 48.472 
Q 304.1 46.472 302.1 46.472 
L 64.6 46.472 
Q 62.6 46.472 62.6 48.472 
L 62.6 77.250125 
Q 62.6 79.250125 64.6 79.250125 
z
" style="fill: #ffffff; opacity: 0.8; stroke: #cccccc; stroke-linejoin: miter"/>
    </g>
    <g id="line2d_27">
     <path d="M 66.6 54.570437 
L 76.6 54.570437 
L 86.6 54.570437 
" style="fill: none; stroke: #1f77b4; stroke-width: 1.5; stroke-linecap: square"/>
    </g>
    <g id="text_16">
     <!-- relative solution perturbation -->
     <g transform="translate(94.6 58.070437) scale(0.1 -0.1)">
      <defs>
       <path id="DejaVuSans-6c" d="M 603 4863 
L 1178 4863 
L 1178 0 
L 603 0 
L 603 4863 
z
" transform="scale(0.015625)"/>
       <path id="DejaVuSans-76" d="M 191 3500 
L 800 3500 
L 1894 563 
L 2988 3500 
L 3597 3500 
L 2284 0 
L 1503 0 
L 191 3500 
z
" transform="scale(0.015625)"/>
       <path id="DejaVuSans-70" d="M 1159 525 
L 1159 -1331 
L 581 -1331 
L 581 3500 
L 1159 3500 
L 1159 2969 
Q 1341 3281 1617 3432 
Q 1894 3584 2278 3584 
Q 2916 3584 3314 3078 
Q 3713 2572 3713 1747 
Q 3713 922 3314 415 
Q 2916 -91 2278 -91 
Q 1894 -91 1617 61 
Q 1341 213 1159 525 
z
M 3116 1747 
Q 3116 2381 2855 2742 
Q 2594 3103 2138 3103 
Q 1681 3103 1420 2742 
Q 1159 2381 1159 1747 
Q 1159 1113 1420 752 
Q 1681 391 2138 391 
Q 2594 391 2855 752 
Q 3116 1113 3116 1747 
z
" transform="scale(0.015625)"/>
      </defs>
      <use xlink:href="#DejaVuSans-72"/>
      <use xlink:href="#DejaVuSans-65" x="38.863281"/>
      <use xlink:href="#DejaVuSans-6c" x="100.386719"/>
      <use xlink:href="#DejaVuSans-61" x="128.169922"/>
      <use xlink:href="#DejaVuSans-74" x="189.449219"/>
      <use xlink:href="#DejaVuSans-69" x="228.658203"/>
      <use xlink:href="#DejaVuSans-76" x="256.441406"/>
      <use xlink:href="#DejaVuSans-65" x="315.621094"/>
      <use xlink:href="#DejaVuSans-20" x="377.144531"/>
      <use xlink:href="#DejaVuSans-73" x="408.931641"/>
      <use xlink:href="#DejaVuSans-6f" x="461.03125"/>
      <use xlink:href="#DejaVuSans-6c" x="522.212891"/>
      <use xlink:href="#DejaVuSans-75" x="549.996094"/>
      <use xlink:href="#DejaVuSans-74" x="613.375"/>
      <use xlink:href="#DejaVuSans-69" x="652.583984"/>
      <use xlink:href="#DejaVuSans-6f" x="680.367188"/>
      <use xlink:href="#DejaVuSans-6e" x="741.548828"/>
      <use xlink:href="#DejaVuSans-20" x="804.927734"/>
      <use xlink:href="#DejaVuSans-70" x="836.714844"/>
      <use xlink:href="#DejaVuSans-65" x="900.191406"/>
      <use xlink:href="#DejaVuSans-72" x="961.714844"/>
      <use xlink:href="#DejaVuSans-74" x="1002.828125"/>
      <use xlink:href="#DejaVuSans-75" x="1042.037109"/>
      <use xlink:href="#DejaVuSans-72" x="1105.416016"/>
      <use xlink:href="#DejaVuSans-62" x="1146.529297"/>
      <use xlink:href="#DejaVuSans-61" x="1210.005859"/>
      <use xlink:href="#DejaVuSans-74" x="1271.285156"/>
      <use xlink:href="#DejaVuSans-69" x="1310.494141"/>
      <use xlink:href="#DejaVuSans-6f" x="1338.277344"/>
      <use xlink:href="#DejaVuSans-6e" x="1399.458984"/>
     </g>
    </g>
    <g id="line2d_28">
     <path d="M 66.6 69.350125 
L 76.6 69.350125 
L 86.6 69.350125 
" style="fill: none; stroke: #ff7f0e; stroke-width: 1.5; stroke-linecap: square"/>
    </g>
    <g id="text_17">
     <!-- perturbation upper bound ($\kappa_b$*||$\delta$b||/||b||) -->
     <g transform="translate(94.6 72.850125) scale(0.1 -0.1)">
      <defs>
       <path id="DejaVuSans-Oblique-3ba" d="M 938 3500 
L 1531 3500 
L 1247 2047 
L 3041 3500 
L 3741 3500 
L 2106 2181 
L 3275 0 
L 2572 0 
L 1628 1806 
L 1122 1403 
L 850 0 
L 256 0 
L 938 3500 
z
" transform="scale(0.015625)"/>
       <path id="DejaVuSans-Oblique-62" d="M 3169 2138 
Q 3169 2591 2961 2847 
Q 2753 3103 2388 3103 
Q 2122 3103 1889 2973 
Q 1656 2844 1484 2597 
Q 1303 2338 1198 1995 
Q 1094 1653 1094 1313 
Q 1094 881 1298 636 
Q 1503 391 1863 391 
Q 2134 391 2365 517 
Q 2597 644 2772 891 
Q 2950 1147 3059 1487 
Q 3169 1828 3169 2138 
z
M 1381 2969 
Q 1594 3256 1914 3420 
Q 2234 3584 2584 3584 
Q 3122 3584 3439 3221 
Q 3756 2859 3756 2241 
Q 3756 1734 3570 1259 
Q 3384 784 3041 416 
Q 2816 172 2522 40 
Q 2228 -91 1906 -91 
Q 1566 -91 1316 65 
Q 1066 222 909 531 
L 806 0 
L 231 0 
L 1178 4863 
L 1753 4863 
L 1381 2969 
z
" transform="scale(0.015625)"/>
       <path id="DejaVuSans-2a" d="M 3009 3897 
L 1888 3291 
L 3009 2681 
L 2828 2375 
L 1778 3009 
L 1778 1831 
L 1422 1831 
L 1422 3009 
L 372 2375 
L 191 2681 
L 1313 3291 
L 191 3897 
L 372 4206 
L 1422 3572 
L 1422 4750 
L 1778 4750 
L 1778 3572 
L 2828 4206 
L 3009 3897 
z
" transform="scale(0.015625)"/>
      </defs>
      <use xlink:href="#DejaVuSans-70" transform="translate(0 0.578125)"/>
      <use xlink:href="#DejaVuSans-65" transform="translate(63.476562 0.578125)"/>
      <use xlink:href="#DejaVuSans-72" transform="translate(125 0.578125)"/>
      <use xlink:href="#DejaVuSans-74" transform="translate(166.113281 0.578125)"/>
      <use xlink:href="#DejaVuSans-75" transform="translate(205.322266 0.578125)"/>
      <use xlink:href="#DejaVuSans-72" transform="translate(268.701172 0.578125)"/>
      <use xlink:href="#DejaVuSans-62" transform="translate(309.814453 0.578125)"/>
      <use xlink:href="#DejaVuSans-61" transform="translate(373.291016 0.578125)"/>
      <use xlink:href="#DejaVuSans-74" transform="translate(434.570312 0.578125)"/>
      <use xlink:href="#DejaVuSans-69" transform="translate(473.779297 0.578125)"/>
      <use xlink:href="#DejaVuSans-6f" transform="translate(501.5625 0.578125)"/>
      <use xlink:href="#DejaVuSans-6e" transform="translate(562.744141 0.578125)"/>
      <use xlink:href="#DejaVuSans-20" transform="translate(626.123047 0.578125)"/>
      <use xlink:href="#DejaVuSans-75" transform="translate(657.910156 0.578125)"/>
      <use xlink:href="#DejaVuSans-70" transform="translate(721.289062 0.578125)"/>
      <use xlink:href="#DejaVuSans-70" transform="translate(784.765625 0.578125)"/>
      <use xlink:href="#DejaVuSans-65" transform="translate(848.242188 0.578125)"/>
      <use xlink:href="#DejaVuSans-72" transform="translate(909.765625 0.578125)"/>
      <use xlink:href="#DejaVuSans-20" transform="translate(950.878906 0.578125)"/>
      <use xlink:href="#DejaVuSans-62" transform="translate(982.666016 0.578125)"/>
      <use xlink:href="#DejaVuSans-6f" transform="translate(1046.142578 0.578125)"/>
      <use xlink:href="#DejaVuSans-75" transform="translate(1107.324219 0.578125)"/>
      <use xlink:href="#DejaVuSans-6e" transform="translate(1170.703125 0.578125)"/>
      <use xlink:href="#DejaVuSans-64" transform="translate(1234.082031 0.578125)"/>
      <use xlink:href="#DejaVuSans-20" transform="translate(1297.558594 0.578125)"/>
      <use xlink:href="#DejaVuSans-28" transform="translate(1329.345703 0.578125)"/>
      <use xlink:href="#DejaVuSans-Oblique-3ba" transform="translate(1368.359375 0.578125)"/>
      <use xlink:href="#DejaVuSans-Oblique-62" transform="translate(1427.294922 -15.828125) scale(0.7)"/>
      <use xlink:href="#DejaVuSans-2a" transform="translate(1474.462891 0.578125)"/>
      <use xlink:href="#DejaVuSans-7c" transform="translate(1524.462891 0.578125)"/>
      <use xlink:href="#DejaVuSans-7c" transform="translate(1558.154297 0.578125)"/>
      <use xlink:href="#DejaVuSans-Oblique-3b4" transform="translate(1591.845703 0.578125)"/>
      <use xlink:href="#DejaVuSans-62" transform="translate(1653.027344 0.578125)"/>
      <use xlink:href="#DejaVuSans-7c" transform="translate(1716.503906 0.578125)"/>
      <use xlink:href="#DejaVuSans-7c" transform="translate(1750.195312 0.578125)"/>
      <use xlink:href="#DejaVuSans-2f" transform="translate(1783.886719 0.578125)"/>
      <use xlink:href="#DejaVuSans-7c" transform="translate(1817.578125 0.578125)"/>
      <use xlink:href="#DejaVuSans-7c" transform="translate(1851.269531 0.578125)"/>
      <use xlink:href="#DejaVuSans-62" transform="translate(1884.960938 0.578125)"/>
      <use xlink:href="#DejaVuSans-7c" transform="translate(1948.4375 0.578125)"/>
      <use xlink:href="#DejaVuSans-7c" transform="translate(1982.128906 0.578125)"/>
      <use xlink:href="#DejaVuSans-29" transform="translate(2015.820312 0.578125)"/>
     </g>
    </g>
   </g>
  </g>
 </g>
 <defs>
  <clipPath id="pe35813da49">
   <rect x="57.6" y="41.472" width="357.12" height="266.112"/>
  </clipPath>
 </defs>
</svg>
