<?xml version="1.0" encoding="utf-8" standalone="no"?>
<!DOCTYPE svg PUBLIC "-//W3C//DTD SVG 1.1//EN"
  "http://www.w3.org/Graphics/SVG/1.1/DTD/svg11.dtd">
<svg xmlns:xlink="http://www.w3.org/1999/xlink" width="460.8pt" height="345.6pt" viewBox="0 0 460.8 345.6" xmlns="http://www.w3.org/2000/svg" version="1.1">
 <metadata>
  <rdf:RDF xmlns:dc="http://purl.org/dc/elements/1.1/" xmlns:cc="http://creativecommons.org/ns#" xmlns:rdf="http://www.w3.org/1999/02/22-rdf-syntax-ns#">
   <cc:Work>
    <dc:type rdf:resource="http://purl.org/dc/dcmitype/StillImage"/>
    <dc:date>2024-03-09T17:08:29.244779</dc:date>
    <dc:format>image/svg+xml</dc:format>
    <dc:creator>
     <cc:Agent>
      <dc:title>Matplotlib v3.8.0, https://matplotlib.org/</dc:title>
     </cc:Agent>
    </dc:creator>
   </cc:Work>
  </rdf:RDF>
 </metadata>
 <defs>
  <style type="text/css">*{stroke-linejoin: round; stroke-linecap: butt}</style>
 </defs>
 <g id="figure_1">
  <g id="patch_1">
   <path d="M 0 345.6 
L 460.8 345.6 
L 460.8 0 
L 0 0 
z
" style="fill: #ffffff"/>
  </g>
  <g id="axes_1">
   <g id="patch_2">
    <path d="M 57.6 307.584 
L 414.72 307.584 
L 414.72 41.472 
L 57.6 41.472 
z
" style="fill: #ffffff"/>
   </g>
   <g id="matplotlib.axis_1">
    <g id="xtick_1">
     <g id="line2d_1">
      <path d="M 106.076706 307.584 
L 106.076706 41.472 
" clip-path="url(#pc8a5f450b9)" style="fill: none; stroke: #b0b0b0; stroke-width: 0.8; stroke-linecap: square"/>
     </g>
     <g id="line2d_2">
      <defs>
       <path id="mc3e0b5d0c2" d="M 0 0 
L 0 3.5 
" style="stroke: #000000; stroke-width: 0.8"/>
      </defs>
      <g>
       <use xlink:href="#mc3e0b5d0c2" x="106.076706" y="307.584" style="stroke: #000000; stroke-width: 0.8"/>
      </g>
     </g>
     <g id="text_1">
      <!-- $\mathdefault{10^{-11}}$ -->
      <g transform="translate(92.126706 322.182437) scale(0.1 -0.1)">
       <defs>
        <path id="DejaVuSans-31" d="M 794 531 
L 1825 531 
L 1825 4091 
L 703 3866 
L 703 4441 
L 1819 4666 
L 2450 4666 
L 2450 531 
L 3481 531 
L 3481 0 
L 794 0 
L 794 531 
z
" transform="scale(0.015625)"/>
        <path id="DejaVuSans-30" d="M 2034 4250 
Q 1547 4250 1301 3770 
Q 1056 3291 1056 2328 
Q 1056 1369 1301 889 
Q 1547 409 2034 409 
Q 2525 409 2770 889 
Q 3016 1369 3016 2328 
Q 3016 3291 2770 3770 
Q 2525 4250 2034 4250 
z
M 2034 4750 
Q 2819 4750 3233 4129 
Q 3647 3509 3647 2328 
Q 3647 1150 3233 529 
Q 2819 -91 2034 -91 
Q 1250 -91 836 529 
Q 422 1150 422 2328 
Q 422 3509 836 4129 
Q 1250 4750 2034 4750 
z
" transform="scale(0.015625)"/>
        <path id="DejaVuSans-2212" d="M 678 2272 
L 4684 2272 
L 4684 1741 
L 678 1741 
L 678 2272 
z
" transform="scale(0.015625)"/>
       </defs>
       <use xlink:href="#DejaVuSans-31" transform="translate(0 0.684375)"/>
       <use xlink:href="#DejaVuSans-30" transform="translate(63.623047 0.684375)"/>
       <use xlink:href="#DejaVuSans-2212" transform="translate(128.203125 38.965625) scale(0.7)"/>
       <use xlink:href="#DejaVuSans-31" transform="translate(186.855469 38.965625) scale(0.7)"/>
       <use xlink:href="#DejaVuSans-31" transform="translate(231.391602 38.965625) scale(0.7)"/>
      </g>
     </g>
    </g>
    <g id="xtick_2">
     <g id="line2d_3">
      <path d="M 158.680677 307.584 
L 158.680677 41.472 
" clip-path="url(#pc8a5f450b9)" style="fill: none; stroke: #b0b0b0; stroke-width: 0.8; stroke-linecap: square"/>
     </g>
     <g id="line2d_4">
      <g>
       <use xlink:href="#mc3e0b5d0c2" x="158.680677" y="307.584" style="stroke: #000000; stroke-width: 0.8"/>
      </g>
     </g>
     <g id="text_2">
      <!-- $\mathdefault{10^{-9}}$ -->
      <g transform="translate(146.930677 322.182437) scale(0.1 -0.1)">
       <defs>
        <path id="DejaVuSans-39" d="M 703 97 
L 703 672 
Q 941 559 1184 500 
Q 1428 441 1663 441 
Q 2288 441 2617 861 
Q 2947 1281 2994 2138 
Q 2813 1869 2534 1725 
Q 2256 1581 1919 1581 
Q 1219 1581 811 2004 
Q 403 2428 403 3163 
Q 403 3881 828 4315 
Q 1253 4750 1959 4750 
Q 2769 4750 3195 4129 
Q 3622 3509 3622 2328 
Q 3622 1225 3098 567 
Q 2575 -91 1691 -91 
Q 1453 -91 1209 -44 
Q 966 3 703 97 
z
M 1959 2075 
Q 2384 2075 2632 2365 
Q 2881 2656 2881 3163 
Q 2881 3666 2632 3958 
Q 2384 4250 1959 4250 
Q 1534 4250 1286 3958 
Q 1038 3666 1038 3163 
Q 1038 2656 1286 2365 
Q 1534 2075 1959 2075 
z
" transform="scale(0.015625)"/>
       </defs>
       <use xlink:href="#DejaVuSans-31" transform="translate(0 0.765625)"/>
       <use xlink:href="#DejaVuSans-30" transform="translate(63.623047 0.765625)"/>
       <use xlink:href="#DejaVuSans-2212" transform="translate(128.203125 39.046875) scale(0.7)"/>
       <use xlink:href="#DejaVuSans-39" transform="translate(186.855469 39.046875) scale(0.7)"/>
      </g>
     </g>
    </g>
    <g id="xtick_3">
     <g id="line2d_5">
      <path d="M 211.284648 307.584 
L 211.284648 41.472 
" clip-path="url(#pc8a5f450b9)" style="fill: none; stroke: #b0b0b0; stroke-width: 0.8; stroke-linecap: square"/>
     </g>
     <g id="line2d_6">
      <g>
       <use xlink:href="#mc3e0b5d0c2" x="211.284648" y="307.584" style="stroke: #000000; stroke-width: 0.8"/>
      </g>
     </g>
     <g id="text_3">
      <!-- $\mathdefault{10^{-7}}$ -->
      <g transform="translate(199.534648 322.182437) scale(0.1 -0.1)">
       <defs>
        <path id="DejaVuSans-37" d="M 525 4666 
L 3525 4666 
L 3525 4397 
L 1831 0 
L 1172 0 
L 2766 4134 
L 525 4134 
L 525 4666 
z
" transform="scale(0.015625)"/>
       </defs>
       <use xlink:href="#DejaVuSans-31" transform="translate(0 0.684375)"/>
       <use xlink:href="#DejaVuSans-30" transform="translate(63.623047 0.684375)"/>
       <use xlink:href="#DejaVuSans-2212" transform="translate(128.203125 38.965625) scale(0.7)"/>
       <use xlink:href="#DejaVuSans-37" transform="translate(186.855469 38.965625) scale(0.7)"/>
      </g>
     </g>
    </g>
    <g id="xtick_4">
     <g id="line2d_7">
      <path d="M 263.888619 307.584 
L 263.888619 41.472 
" clip-path="url(#pc8a5f450b9)" style="fill: none; stroke: #b0b0b0; stroke-width: 0.8; stroke-linecap: square"/>
     </g>
     <g id="line2d_8">
      <g>
       <use xlink:href="#mc3e0b5d0c2" x="263.888619" y="307.584" style="stroke: #000000; stroke-width: 0.8"/>
      </g>
     </g>
     <g id="text_4">
      <!-- $\mathdefault{10^{-5}}$ -->
      <g transform="translate(252.138619 322.182437) scale(0.1 -0.1)">
       <defs>
        <path id="DejaVuSans-35" d="M 691 4666 
L 3169 4666 
L 3169 4134 
L 1269 4134 
L 1269 2991 
Q 1406 3038 1543 3061 
Q 1681 3084 1819 3084 
Q 2600 3084 3056 2656 
Q 3513 2228 3513 1497 
Q 3513 744 3044 326 
Q 2575 -91 1722 -91 
Q 1428 -91 1123 -41 
Q 819 9 494 109 
L 494 744 
Q 775 591 1075 516 
Q 1375 441 1709 441 
Q 2250 441 2565 725 
Q 2881 1009 2881 1497 
Q 2881 1984 2565 2268 
Q 2250 2553 1709 2553 
Q 1456 2553 1204 2497 
Q 953 2441 691 2322 
L 691 4666 
z
" transform="scale(0.015625)"/>
       </defs>
       <use xlink:href="#DejaVuSans-31" transform="translate(0 0.684375)"/>
       <use xlink:href="#DejaVuSans-30" transform="translate(63.623047 0.684375)"/>
       <use xlink:href="#DejaVuSans-2212" transform="translate(128.203125 38.965625) scale(0.7)"/>
       <use xlink:href="#DejaVuSans-35" transform="translate(186.855469 38.965625) scale(0.7)"/>
      </g>
     </g>
    </g>
    <g id="xtick_5">
     <g id="line2d_9">
      <path d="M 316.49259 307.584 
L 316.49259 41.472 
" clip-path="url(#pc8a5f450b9)" style="fill: none; stroke: #b0b0b0; stroke-width: 0.8; stroke-linecap: square"/>
     </g>
     <g id="line2d_10">
      <g>
       <use xlink:href="#mc3e0b5d0c2" x="316.49259" y="307.584" style="stroke: #000000; stroke-width: 0.8"/>
      </g>
     </g>
     <g id="text_5">
      <!-- $\mathdefault{10^{-3}}$ -->
      <g transform="translate(304.74259 322.182437) scale(0.1 -0.1)">
       <defs>
        <path id="DejaVuSans-33" d="M 2597 2516 
Q 3050 2419 3304 2112 
Q 3559 1806 3559 1356 
Q 3559 666 3084 287 
Q 2609 -91 1734 -91 
Q 1441 -91 1130 -33 
Q 819 25 488 141 
L 488 750 
Q 750 597 1062 519 
Q 1375 441 1716 441 
Q 2309 441 2620 675 
Q 2931 909 2931 1356 
Q 2931 1769 2642 2001 
Q 2353 2234 1838 2234 
L 1294 2234 
L 1294 2753 
L 1863 2753 
Q 2328 2753 2575 2939 
Q 2822 3125 2822 3475 
Q 2822 3834 2567 4026 
Q 2313 4219 1838 4219 
Q 1578 4219 1281 4162 
Q 984 4106 628 3988 
L 628 4550 
Q 988 4650 1302 4700 
Q 1616 4750 1894 4750 
Q 2613 4750 3031 4423 
Q 3450 4097 3450 3541 
Q 3450 3153 3228 2886 
Q 3006 2619 2597 2516 
z
" transform="scale(0.015625)"/>
       </defs>
       <use xlink:href="#DejaVuSans-31" transform="translate(0 0.765625)"/>
       <use xlink:href="#DejaVuSans-30" transform="translate(63.623047 0.765625)"/>
       <use xlink:href="#DejaVuSans-2212" transform="translate(128.203125 39.046875) scale(0.7)"/>
       <use xlink:href="#DejaVuSans-33" transform="translate(186.855469 39.046875) scale(0.7)"/>
      </g>
     </g>
    </g>
    <g id="xtick_6">
     <g id="line2d_11">
      <path d="M 369.096561 307.584 
L 369.096561 41.472 
" clip-path="url(#pc8a5f450b9)" style="fill: none; stroke: #b0b0b0; stroke-width: 0.8; stroke-linecap: square"/>
     </g>
     <g id="line2d_12">
      <g>
       <use xlink:href="#mc3e0b5d0c2" x="369.096561" y="307.584" style="stroke: #000000; stroke-width: 0.8"/>
      </g>
     </g>
     <g id="text_6">
      <!-- $\mathdefault{10^{-1}}$ -->
      <g transform="translate(357.346561 322.182437) scale(0.1 -0.1)">
       <use xlink:href="#DejaVuSans-31" transform="translate(0 0.684375)"/>
       <use xlink:href="#DejaVuSans-30" transform="translate(63.623047 0.684375)"/>
       <use xlink:href="#DejaVuSans-2212" transform="translate(128.203125 38.965625) scale(0.7)"/>
       <use xlink:href="#DejaVuSans-31" transform="translate(186.855469 38.965625) scale(0.7)"/>
      </g>
     </g>
    </g>
    <g id="text_7">
     <!-- ||$\delta$A||/||A|| -->
     <g transform="translate(211.06 335.962125) scale(0.1 -0.1)">
      <defs>
       <path id="DejaVuSans-7c" d="M 1344 4891 
L 1344 -1509 
L 813 -1509 
L 813 4891 
L 1344 4891 
z
" transform="scale(0.015625)"/>
       <path id="DejaVuSans-Oblique-3b4" d="M 3472 4053 
Q 3197 4272 2450 4272 
Q 1659 4272 1588 3906 
Q 1531 3619 2328 3469 
Q 2953 3353 3253 3003 
Q 3616 2581 3447 1716 
Q 3284 888 2763 400 
Q 2238 -91 1488 -91 
Q 741 -91 406 400 
Q 72 888 241 1747 
Q 363 2384 891 2900 
Q 1097 3100 1353 3213 
Q 913 3459 1000 3900 
Q 1166 4750 2544 4750 
Q 3234 4750 3566 4531 
L 3472 4053 
z
M 1753 3056 
Q 1525 2966 1306 2738 
Q 969 2384 847 1747 
Q 722 1113 919 756 
Q 1119 397 1584 397 
Q 2044 397 2381 759 
Q 2722 1122 2838 1716 
Q 2956 2338 2731 2638 
Q 2491 2959 2103 2994 
Q 1906 3013 1753 3056 
z
" transform="scale(0.015625)"/>
       <path id="DejaVuSans-41" d="M 2188 4044 
L 1331 1722 
L 3047 1722 
L 2188 4044 
z
M 1831 4666 
L 2547 4666 
L 4325 0 
L 3669 0 
L 3244 1197 
L 1141 1197 
L 716 0 
L 50 0 
L 1831 4666 
z
" transform="scale(0.015625)"/>
       <path id="DejaVuSans-2f" d="M 1625 4666 
L 2156 4666 
L 531 -594 
L 0 -594 
L 1625 4666 
z
" transform="scale(0.015625)"/>
      </defs>
      <use xlink:href="#DejaVuSans-7c" transform="translate(0 0.578125)"/>
      <use xlink:href="#DejaVuSans-7c" transform="translate(33.691406 0.578125)"/>
      <use xlink:href="#DejaVuSans-Oblique-3b4" transform="translate(67.382812 0.578125)"/>
      <use xlink:href="#DejaVuSans-41" transform="translate(128.564453 0.578125)"/>
      <use xlink:href="#DejaVuSans-7c" transform="translate(196.972656 0.578125)"/>
      <use xlink:href="#DejaVuSans-7c" transform="translate(230.664062 0.578125)"/>
      <use xlink:href="#DejaVuSans-2f" transform="translate(264.355469 0.578125)"/>
      <use xlink:href="#DejaVuSans-7c" transform="translate(298.046875 0.578125)"/>
      <use xlink:href="#DejaVuSans-7c" transform="translate(331.738281 0.578125)"/>
      <use xlink:href="#DejaVuSans-41" transform="translate(365.429688 0.578125)"/>
      <use xlink:href="#DejaVuSans-7c" transform="translate(433.837891 0.578125)"/>
      <use xlink:href="#DejaVuSans-7c" transform="translate(467.529297 0.578125)"/>
     </g>
    </g>
   </g>
   <g id="matplotlib.axis_2">
    <g id="ytick_1">
     <g id="line2d_13">
      <path d="M 57.6 277.038667 
L 414.72 277.038667 
" clip-path="url(#pc8a5f450b9)" style="fill: none; stroke: #b0b0b0; stroke-width: 0.8; stroke-linecap: square"/>
     </g>
     <g id="line2d_14">
      <defs>
       <path id="ma0080b4523" d="M 0 0 
L -3.5 0 
" style="stroke: #000000; stroke-width: 0.8"/>
      </defs>
      <g>
       <use xlink:href="#ma0080b4523" x="57.6" y="277.038667" style="stroke: #000000; stroke-width: 0.8"/>
      </g>
     </g>
     <g id="text_8">
      <!-- $\mathdefault{10^{-11}}$ -->
      <g transform="translate(22.7 280.837886) scale(0.1 -0.1)">
       <use xlink:href="#DejaVuSans-31" transform="translate(0 0.684375)"/>
       <use xlink:href="#DejaVuSans-30" transform="translate(63.623047 0.684375)"/>
       <use xlink:href="#DejaVuSans-2212" transform="translate(128.203125 38.965625) scale(0.7)"/>
       <use xlink:href="#DejaVuSans-31" transform="translate(186.855469 38.965625) scale(0.7)"/>
       <use xlink:href="#DejaVuSans-31" transform="translate(231.391602 38.965625) scale(0.7)"/>
      </g>
     </g>
    </g>
    <g id="ytick_2">
     <g id="line2d_15">
      <path d="M 57.6 242.140869 
L 414.72 242.140869 
" clip-path="url(#pc8a5f450b9)" style="fill: none; stroke: #b0b0b0; stroke-width: 0.8; stroke-linecap: square"/>
     </g>
     <g id="line2d_16">
      <g>
       <use xlink:href="#ma0080b4523" x="57.6" y="242.140869" style="stroke: #000000; stroke-width: 0.8"/>
      </g>
     </g>
     <g id="text_9">
      <!-- $\mathdefault{10^{-9}}$ -->
      <g transform="translate(27.1 245.940087) scale(0.1 -0.1)">
       <use xlink:href="#DejaVuSans-31" transform="translate(0 0.765625)"/>
       <use xlink:href="#DejaVuSans-30" transform="translate(63.623047 0.765625)"/>
       <use xlink:href="#DejaVuSans-2212" transform="translate(128.203125 39.046875) scale(0.7)"/>
       <use xlink:href="#DejaVuSans-39" transform="translate(186.855469 39.046875) scale(0.7)"/>
      </g>
     </g>
    </g>
    <g id="ytick_3">
     <g id="line2d_17">
      <path d="M 57.6 207.24307 
L 414.72 207.24307 
" clip-path="url(#pc8a5f450b9)" style="fill: none; stroke: #b0b0b0; stroke-width: 0.8; stroke-linecap: square"/>
     </g>
     <g id="line2d_18">
      <g>
       <use xlink:href="#ma0080b4523" x="57.6" y="207.24307" style="stroke: #000000; stroke-width: 0.8"/>
      </g>
     </g>
     <g id="text_10">
      <!-- $\mathdefault{10^{-7}}$ -->
      <g transform="translate(27.1 211.042289) scale(0.1 -0.1)">
       <use xlink:href="#DejaVuSans-31" transform="translate(0 0.684375)"/>
       <use xlink:href="#DejaVuSans-30" transform="translate(63.623047 0.684375)"/>
       <use xlink:href="#DejaVuSans-2212" transform="translate(128.203125 38.965625) scale(0.7)"/>
       <use xlink:href="#DejaVuSans-37" transform="translate(186.855469 38.965625) scale(0.7)"/>
      </g>
     </g>
    </g>
    <g id="ytick_4">
     <g id="line2d_19">
      <path d="M 57.6 172.345272 
L 414.72 172.345272 
" clip-path="url(#pc8a5f450b9)" style="fill: none; stroke: #b0b0b0; stroke-width: 0.8; stroke-linecap: square"/>
     </g>
     <g id="line2d_20">
      <g>
       <use xlink:href="#ma0080b4523" x="57.6" y="172.345272" style="stroke: #000000; stroke-width: 0.8"/>
      </g>
     </g>
     <g id="text_11">
      <!-- $\mathdefault{10^{-5}}$ -->
      <g transform="translate(27.1 176.144491) scale(0.1 -0.1)">
       <use xlink:href="#DejaVuSans-31" transform="translate(0 0.684375)"/>
       <use xlink:href="#DejaVuSans-30" transform="translate(63.623047 0.684375)"/>
       <use xlink:href="#DejaVuSans-2212" transform="translate(128.203125 38.965625) scale(0.7)"/>
       <use xlink:href="#DejaVuSans-35" transform="translate(186.855469 38.965625) scale(0.7)"/>
      </g>
     </g>
    </g>
    <g id="ytick_5">
     <g id="line2d_21">
      <path d="M 57.6 137.447474 
L 414.72 137.447474 
" clip-path="url(#pc8a5f450b9)" style="fill: none; stroke: #b0b0b0; stroke-width: 0.8; stroke-linecap: square"/>
     </g>
     <g id="line2d_22">
      <g>
       <use xlink:href="#ma0080b4523" x="57.6" y="137.447474" style="stroke: #000000; stroke-width: 0.8"/>
      </g>
     </g>
     <g id="text_12">
      <!-- $\mathdefault{10^{-3}}$ -->
      <g transform="translate(27.1 141.246692) scale(0.1 -0.1)">
       <use xlink:href="#DejaVuSans-31" transform="translate(0 0.765625)"/>
       <use xlink:href="#DejaVuSans-30" transform="translate(63.623047 0.765625)"/>
       <use xlink:href="#DejaVuSans-2212" transform="translate(128.203125 39.046875) scale(0.7)"/>
       <use xlink:href="#DejaVuSans-33" transform="translate(186.855469 39.046875) scale(0.7)"/>
      </g>
     </g>
    </g>
    <g id="ytick_6">
     <g id="line2d_23">
      <path d="M 57.6 102.549675 
L 414.72 102.549675 
" clip-path="url(#pc8a5f450b9)" style="fill: none; stroke: #b0b0b0; stroke-width: 0.8; stroke-linecap: square"/>
     </g>
     <g id="line2d_24">
      <g>
       <use xlink:href="#ma0080b4523" x="57.6" y="102.549675" style="stroke: #000000; stroke-width: 0.8"/>
      </g>
     </g>
     <g id="text_13">
      <!-- $\mathdefault{10^{-1}}$ -->
      <g transform="translate(27.1 106.348894) scale(0.1 -0.1)">
       <use xlink:href="#DejaVuSans-31" transform="translate(0 0.684375)"/>
       <use xlink:href="#DejaVuSans-30" transform="translate(63.623047 0.684375)"/>
       <use xlink:href="#DejaVuSans-2212" transform="translate(128.203125 38.965625) scale(0.7)"/>
       <use xlink:href="#DejaVuSans-31" transform="translate(186.855469 38.965625) scale(0.7)"/>
      </g>
     </g>
    </g>
    <g id="ytick_7">
     <g id="line2d_25">
      <path d="M 57.6 67.651877 
L 414.72 67.651877 
" clip-path="url(#pc8a5f450b9)" style="fill: none; stroke: #b0b0b0; stroke-width: 0.8; stroke-linecap: square"/>
     </g>
     <g id="line2d_26">
      <g>
       <use xlink:href="#ma0080b4523" x="57.6" y="67.651877" style="stroke: #000000; stroke-width: 0.8"/>
      </g>
     </g>
     <g id="text_14">
      <!-- $\mathdefault{10^{1}}$ -->
      <g transform="translate(33 71.451096) scale(0.1 -0.1)">
       <use xlink:href="#DejaVuSans-31" transform="translate(0 0.684375)"/>
       <use xlink:href="#DejaVuSans-30" transform="translate(63.623047 0.684375)"/>
       <use xlink:href="#DejaVuSans-31" transform="translate(128.203125 38.965625) scale(0.7)"/>
      </g>
     </g>
    </g>
    <g id="text_15">
     <!-- ||$\delta$x||/||x|| -->
     <g transform="translate(16.3 198.678) rotate(-90) scale(0.1 -0.1)">
      <defs>
       <path id="DejaVuSans-78" d="M 3513 3500 
L 2247 1797 
L 3578 0 
L 2900 0 
L 1881 1375 
L 863 0 
L 184 0 
L 1544 1831 
L 300 3500 
L 978 3500 
L 1906 2253 
L 2834 3500 
L 3513 3500 
z
" transform="scale(0.015625)"/>
      </defs>
      <use xlink:href="#DejaVuSans-7c" transform="translate(0 0.578125)"/>
      <use xlink:href="#DejaVuSans-7c" transform="translate(33.691406 0.578125)"/>
      <use xlink:href="#DejaVuSans-Oblique-3b4" transform="translate(67.382812 0.578125)"/>
      <use xlink:href="#DejaVuSans-78" transform="translate(128.564453 0.578125)"/>
      <use xlink:href="#DejaVuSans-7c" transform="translate(187.744141 0.578125)"/>
      <use xlink:href="#DejaVuSans-7c" transform="translate(221.435547 0.578125)"/>
      <use xlink:href="#DejaVuSans-2f" transform="translate(255.126953 0.578125)"/>
      <use xlink:href="#DejaVuSans-7c" transform="translate(288.818359 0.578125)"/>
      <use xlink:href="#DejaVuSans-7c" transform="translate(322.509766 0.578125)"/>
      <use xlink:href="#DejaVuSans-78" transform="translate(356.201172 0.578125)"/>
      <use xlink:href="#DejaVuSans-7c" transform="translate(415.380859 0.578125)"/>
      <use xlink:href="#DejaVuSans-7c" transform="translate(449.072266 0.578125)"/>
     </g>
    </g>
   </g>
   <g id="line2d_27">
    <path d="M 73.832727 282.373378 
L 77.926062 295.488 
L 77.943135 270.252543 
L 78.833501 274.62482 
L 79.591785 274.186033 
L 80.397757 292.275591 
L 80.783484 270.3938 
L 81.204506 270.732718 
L 81.471295 276.648487 
L 81.794742 278.580347 
L 81.882509 279.845564 
L 81.982313 271.932062 
L 82.604825 279.37781 
L 82.618575 286.632574 
L 82.67095 274.918227 
L 83.082283 271.397607 
L 83.291863 272.862213 
L 83.869345 270.864582 
L 84.192166 288.267345 
L 84.429725 265.243519 
L 85.054689 276.526538 
L 85.08857 266.034226 
L 85.190198 270.293346 
L 86.897452 267.659286 
L 87.462419 278.771746 
L 87.933146 278.290433 
L 87.933801 271.391221 
L 88.539838 267.018006 
L 89.003974 269.796703 
L 89.436306 260.369026 
L 89.485389 273.672831 
L 89.91294 263.677803 
L 89.982034 275.158172 
L 90.784936 264.672188 
L 91.715834 265.84396 
L 91.823923 263.093045 
L 92.031708 281.875255 
L 92.117569 258.820476 
L 92.494932 275.513869 
L 93.179312 274.203381 
L 94.106719 262.535903 
L 94.241235 265.141048 
L 94.281587 269.218606 
L 94.745604 257.123297 
L 95.071847 263.629566 
L 95.188007 258.707397 
L 95.383214 278.037041 
L 95.772561 268.53958 
L 95.987284 257.087366 
L 96.264298 275.404081 
L 97.444716 264.513539 
L 97.923212 258.122909 
L 98.592562 275.152648 
L 98.67371 262.455009 
L 98.879312 291.221583 
L 99.524523 256.33541 
L 99.787803 255.011373 
L 99.808228 260.747707 
L 100.874334 280.043024 
L 101.520721 264.249671 
L 101.798365 260.899704 
L 101.824321 256.423137 
L 101.849749 257.028931 
L 101.959989 270.707457 
L 102.129788 252.353437 
L 102.402438 266.360976 
L 102.407373 260.986458 
L 102.975786 262.221416 
L 103.125466 264.636116 
L 103.16779 258.964781 
L 103.231962 286.945961 
L 103.555621 254.196807 
L 105.456091 255.499932 
L 106.410142 259.655193 
L 106.418354 259.205258 
L 106.545371 253.883864 
L 106.96567 258.315901 
L 107.489818 259.426558 
L 107.777489 253.664089 
L 107.905161 267.074959 
L 107.996162 255.5446 
L 108.405669 254.195333 
L 108.74447 263.821826 
L 109.030279 252.848744 
L 109.434215 255.712152 
L 110.142288 252.17945 
L 110.301987 252.643087 
L 110.610051 261.420402 
L 111.236722 254.782014 
L 111.731944 246.603953 
L 111.959356 245.70584 
L 111.965088 251.910235 
L 112.073862 249.834951 
L 113.182373 268.507497 
L 113.278742 248.975031 
L 113.358116 274.701652 
L 113.374912 250.394217 
L 113.468959 249.521266 
L 113.718628 256.732369 
L 113.866875 257.487141 
L 114.092731 248.998095 
L 114.498347 250.367307 
L 114.684965 252.427053 
L 114.810081 248.027634 
L 114.869895 251.33483 
L 114.958792 248.591001 
L 114.96976 251.538499 
L 115.663794 257.30808 
L 116.117439 258.212583 
L 116.351724 266.380064 
L 116.462484 242.879903 
L 117.213211 258.739115 
L 117.273047 246.58382 
L 117.302786 253.78442 
L 117.764688 250.508575 
L 117.867876 255.006862 
L 117.89554 265.532073 
L 118.590554 248.865586 
L 118.70578 241.126798 
L 119.177208 263.890195 
L 120.428683 255.877286 
L 121.072102 244.444575 
L 121.323619 243.421893 
L 121.715175 240.11991 
L 122.309964 250.176569 
L 122.345815 247.240028 
L 122.497806 252.322971 
L 123.187753 239.436173 
L 123.191546 248.059584 
L 123.36902 246.917162 
L 123.455911 239.437911 
L 123.877507 240.117895 
L 124.142504 251.175544 
L 124.175238 248.823073 
L 124.193888 243.815582 
L 124.234734 250.814244 
L 124.698228 240.905333 
L 125.428614 244.444599 
L 126.357847 259.558629 
L 126.651749 256.998227 
L 128.170364 251.449035 
L 128.525903 240.377226 
L 128.768333 240.461996 
L 129.344054 237.052693 
L 129.400246 240.302937 
L 129.442222 249.292089 
L 129.69953 241.58586 
L 129.852872 253.347642 
L 130.740113 237.69089 
L 131.686665 237.6756 
L 132.064308 240.514895 
L 132.543036 237.133786 
L 132.675443 240.719607 
L 132.676481 258.583082 
L 132.719868 247.432427 
L 133.021555 242.152204 
L 133.158196 248.497714 
L 133.655716 242.331613 
L 133.716157 239.308983 
L 133.72416 259.189029 
L 134.317305 248.463726 
L 134.508573 256.783206 
L 134.970867 238.940024 
L 136.001812 247.882769 
L 136.085692 237.401618 
L 137.002045 236.092936 
L 137.215881 237.004411 
L 137.226588 240.981952 
L 137.417224 239.125538 
L 137.518037 239.378725 
L 137.85269 238.606484 
L 137.918446 232.158525 
L 137.962273 238.789708 
L 138.24797 236.644309 
L 138.269072 257.335071 
L 139.885647 238.459974 
L 140.226454 248.646167 
L 140.242755 226.777709 
L 140.302276 240.632263 
L 140.421112 243.046024 
L 140.845722 239.36125 
L 140.860857 234.106018 
L 141.38287 229.707583 
L 142.089351 248.972678 
L 142.139457 236.134014 
L 142.353156 237.10766 
L 142.536028 255.179903 
L 143.292507 240.809005 
L 143.309422 228.240207 
L 143.309839 229.987836 
L 143.668368 238.423825 
L 143.894991 224.385793 
L 144.002868 235.361861 
L 144.581129 235.26893 
L 144.65049 242.088307 
L 145.12955 241.948165 
L 145.278396 245.424993 
L 145.714511 240.789133 
L 145.73433 236.48354 
L 146.787626 229.073325 
L 147.042927 228.66505 
L 147.464679 239.172906 
L 147.534193 236.107527 
L 147.861293 237.970177 
L 147.906946 232.31017 
L 148.192309 227.001831 
L 148.470573 230.82407 
L 148.543942 233.865353 
L 148.618016 248.876678 
L 149.312749 231.712358 
L 149.705905 231.484069 
L 149.836901 228.771578 
L 149.995247 245.707839 
L 150.710484 219.479837 
L 151.346037 235.510232 
L 151.484241 223.53821 
L 152.047568 231.471754 
L 152.301979 230.401118 
L 152.409642 248.546096 
L 152.642832 238.995311 
L 153.232632 232.416096 
L 156.025801 222.170565 
L 156.964797 220.632859 
L 157.060566 221.670569 
L 157.192148 230.428129 
L 157.592523 228.780397 
L 157.617166 220.291034 
L 157.655299 231.948565 
L 158.638531 228.332724 
L 158.962818 230.482755 
L 159.005955 214.218254 
L 159.398327 216.461711 
L 159.398378 226.604693 
L 159.538184 244.630417 
L 159.976405 224.657356 
L 159.988847 231.396462 
L 160.322109 236.162095 
L 160.381649 215.431847 
L 161.039708 224.882151 
L 161.367294 231.396146 
L 162.26885 225.637772 
L 162.502672 231.275381 
L 163.166307 213.895512 
L 163.386816 229.080008 
L 163.676554 218.402232 
L 164.75364 226.591327 
L 164.858531 220.244195 
L 164.870042 228.558081 
L 165.197917 225.461753 
L 166.167039 225.327296 
L 166.420305 225.559126 
L 166.581686 222.763838 
L 166.628174 216.253547 
L 166.672453 219.357293 
L 166.834403 208.920522 
L 166.930804 212.053662 
L 167.295051 215.460312 
L 167.38855 224.337742 
L 167.544933 224.826128 
L 168.36718 215.193882 
L 168.682096 215.474547 
L 168.735038 229.067252 
L 169.170808 217.058733 
L 169.421412 218.165175 
L 169.47378 212.363322 
L 169.499066 232.993738 
L 169.996503 213.391159 
L 171.803568 211.4973 
L 171.918855 212.588423 
L 171.95476 215.608966 
L 172.462126 213.321464 
L 172.786143 205.061813 
L 173.530387 203.992112 
L 173.881806 215.100603 
L 174.127111 213.743731 
L 174.168081 209.774902 
L 174.369937 218.951846 
L 174.442528 207.569877 
L 174.486374 211.248954 
L 174.721597 231.610533 
L 175.166802 211.749245 
L 175.749124 212.750743 
L 176.068766 208.606988 
L 176.435254 229.065428 
L 177.190581 221.413155 
L 177.248966 212.235197 
L 177.449224 215.814903 
L 177.730204 212.944909 
L 178.012472 211.355188 
L 178.368612 203.335056 
L 178.486366 209.83492 
L 178.772256 203.929294 
L 179.494922 202.299602 
L 179.672817 208.568788 
L 179.87864 204.872753 
L 179.965493 200.690345 
L 180.012503 215.762716 
L 180.191149 206.935642 
L 180.748199 208.923662 
L 181.797058 210.753894 
L 181.923782 211.987983 
L 182.860104 209.251399 
L 183.197438 205.45635 
L 183.886349 207.05159 
L 183.975162 209.829818 
L 184.079191 203.748216 
L 184.446915 230.587003 
L 184.52243 221.424788 
L 184.800199 225.49639 
L 185.081901 208.935537 
L 185.402377 223.070481 
L 186.017363 211.919936 
L 186.961788 203.489297 
L 187.593191 199.843383 
L 188.041615 207.336489 
L 188.10678 196.270199 
L 188.478829 203.901376 
L 188.875643 214.341369 
L 190.147276 200.355238 
L 190.173375 209.379025 
L 190.286778 198.711018 
L 190.444194 202.145275 
L 190.584065 202.088543 
L 191.136927 203.357086 
L 191.206521 196.369687 
L 191.452626 199.9568 
L 192.345734 214.882528 
L 192.350963 201.999638 
L 192.586746 204.02296 
L 192.653817 212.360526 
L 193.3342 190.85233 
L 193.47929 197.90931 
L 193.561707 197.458669 
L 194.016447 196.485786 
L 194.419601 221.830435 
L 194.718847 211.253229 
L 195.320336 200.337511 
L 195.447573 202.788361 
L 195.682562 229.618463 
L 196.547968 210.588859 
L 197.36214 200.931496 
L 197.53611 197.434129 
L 198.146075 195.725307 
L 198.333102 205.893658 
L 198.424626 195.195144 
L 198.458116 195.397649 
L 198.91552 192.744979 
L 199.135246 192.861391 
L 199.356363 203.821036 
L 199.36876 188.216406 
L 199.71847 198.574628 
L 199.97109 185.964007 
L 199.99979 211.414545 
L 200.349562 194.813009 
L 201.043699 213.557103 
L 201.533733 201.096244 
L 201.784308 191.4106 
L 202.078663 214.418261 
L 202.110874 187.964952 
L 202.147357 192.673234 
L 203.075759 197.113114 
L 203.116482 189.545962 
L 203.291135 193.919219 
L 203.590415 195.856297 
L 203.891714 184.949595 
L 204.067878 200.470201 
L 204.161073 198.024217 
L 204.263127 190.584142 
L 205.406352 187.332974 
L 206.120332 198.650389 
L 206.469168 197.209738 
L 206.695454 187.886983 
L 206.849117 200.699001 
L 207.247946 186.952146 
L 207.729772 194.419121 
L 207.732348 210.877905 
L 207.764553 201.257821 
L 207.954378 199.64381 
L 208.091487 196.860927 
L 209.374217 202.348379 
L 209.412653 191.510966 
L 209.477483 207.971921 
L 210.632529 182.586979 
L 210.846068 188.615709 
L 211.148268 189.251756 
L 211.310662 185.067612 
L 211.779131 182.960542 
L 212.145999 186.788266 
L 212.550861 183.733384 
L 212.974579 183.221986 
L 213.186537 185.668956 
L 213.232936 184.450531 
L 213.451531 194.999037 
L 213.547432 184.270631 
L 214.056846 180.063861 
L 215.045534 207.024563 
L 215.231172 181.495104 
L 215.543733 187.382275 
L 216.332266 186.463795 
L 216.728556 197.363284 
L 216.94448 195.729198 
L 217.769396 186.821569 
L 217.784022 182.037104 
L 217.821101 194.803253 
L 218.034248 191.073306 
L 219.390598 173.755247 
L 219.435737 180.088878 
L 219.823166 177.983511 
L 219.916894 186.895402 
L 220.167207 188.371822 
L 220.424475 184.197825 
L 221.371524 200.297782 
L 221.628455 193.156661 
L 221.973714 175.69773 
L 222.13849 198.1705 
L 222.193231 174.345412 
L 222.53522 193.652726 
L 222.689968 184.135929 
L 222.846772 185.725148 
L 223.20712 196.483626 
L 223.245749 184.463239 
L 223.649339 173.715372 
L 223.694824 195.682188 
L 224.064176 174.287143 
L 224.210651 175.530496 
L 224.685243 188.522891 
L 225.120634 173.769719 
L 225.135863 180.698242 
L 225.156397 177.325295 
L 225.453973 178.561979 
L 225.941887 174.525105 
L 226.057898 192.386429 
L 226.414589 193.773403 
L 226.458934 177.122305 
L 226.800813 171.683075 
L 226.8718 180.898636 
L 227.78235 173.194891 
L 229.009662 175.060137 
L 229.482614 171.419942 
L 230.034969 183.548077 
L 230.853889 174.462295 
L 230.929633 192.224285 
L 231.07197 180.20864 
L 231.818804 190.377691 
L 231.858538 178.523015 
L 231.996308 201.948371 
L 232.55913 177.100333 
L 232.594005 167.942348 
L 232.780709 172.604521 
L 233.159397 184.864741 
L 233.495349 175.568028 
L 234.038633 169.606189 
L 234.142712 171.887826 
L 235.391591 185.005883 
L 235.473955 194.583221 
L 236.18257 192.35941 
L 236.358257 176.270837 
L 236.376709 177.004022 
L 236.573072 168.867654 
L 237.937667 193.412268 
L 238.039276 181.257223 
L 238.210174 174.331934 
L 238.378009 172.90071 
L 238.54616 174.632675 
L 239.048829 166.394653 
L 239.348988 176.206994 
L 239.740657 168.839275 
L 239.931075 179.019224 
L 240.415193 167.813416 
L 240.830454 166.590423 
L 241.063382 158.377013 
L 241.074624 173.208482 
L 242.085377 168.470653 
L 242.417596 162.27028 
L 242.643263 165.923975 
L 243.10031 165.277964 
L 243.464934 176.842376 
L 243.97774 170.23728 
L 244.213337 159.381245 
L 244.305772 166.348593 
L 244.572102 157.752154 
L 244.693826 190.242353 
L 246.406368 183.272177 
L 246.600548 155.674459 
L 246.942946 164.341833 
L 247.108228 173.240319 
L 247.43302 164.123129 
L 247.565042 165.158303 
L 247.767722 169.922648 
L 247.781247 159.910681 
L 247.974667 165.45851 
L 248.567523 171.281892 
L 248.817092 176.146018 
L 249.135881 163.494498 
L 249.39186 165.305804 
L 249.684975 158.061134 
L 249.719454 168.565222 
L 249.81533 158.399291 
L 250.084316 161.256407 
L 250.489321 159.505166 
L 251.640304 157.709695 
L 252.194638 183.021135 
L 252.256216 161.781635 
L 252.785252 160.412466 
L 253.741236 178.239003 
L 253.747312 180.87007 
L 254.178491 155.851834 
L 254.65613 168.340959 
L 254.665474 165.408213 
L 255.374069 156.690864 
L 255.804073 158.08506 
L 256.337098 170.22454 
L 256.886957 153.52713 
L 256.924875 163.268423 
L 257.713381 150.006758 
L 257.778058 154.126669 
L 258.502811 153.676301 
L 258.825815 158.004524 
L 258.89432 155.686535 
L 259.119121 162.375608 
L 259.734542 160.506271 
L 259.786253 152.933872 
L 259.883266 164.913689 
L 260.100973 152.544228 
L 260.834094 152.250741 
L 261.342042 155.424776 
L 261.491235 145.383976 
L 262.645448 154.005452 
L 263.424462 168.507136 
L 263.625266 151.539961 
L 264.039904 153.391983 
L 264.719583 167.392759 
L 264.858321 162.873107 
L 265.393918 155.272205 
L 265.398078 155.566122 
L 265.697999 169.471039 
L 265.810162 151.187465 
L 266.497258 148.50603 
L 266.522764 176.171591 
L 266.685536 148.958397 
L 266.715387 155.594116 
L 267.324624 150.961076 
L 267.394747 152.251008 
L 267.516083 170.112835 
L 267.697438 148.946636 
L 268.172929 156.660885 
L 268.303284 177.351266 
L 268.649151 151.77006 
L 268.730708 156.593676 
L 269.165397 144.99066 
L 269.27573 156.266181 
L 269.419549 152.921215 
L 270.082879 159.87375 
L 270.552267 147.622243 
L 270.807401 162.078241 
L 271.886772 146.585957 
L 271.930859 147.136532 
L 272.031915 147.356749 
L 272.530556 154.860838 
L 272.66804 144.178688 
L 272.735965 147.517215 
L 273.88636 144.854642 
L 274.011068 143.112641 
L 274.603738 152.029088 
L 275.319163 147.277421 
L 275.549045 148.152872 
L 276.103776 145.660341 
L 276.218569 136.046459 
L 276.352839 141.641936 
L 276.3613 139.525002 
L 276.63992 146.522197 
L 276.937324 144.158812 
L 277.366572 152.225632 
L 278.060575 139.253551 
L 278.244913 146.457422 
L 278.660078 147.933455 
L 278.838154 149.205563 
L 279.360549 150.208902 
L 279.905935 142.060603 
L 279.931531 143.774043 
L 280.344725 140.178492 
L 280.715968 143.236631 
L 280.91826 142.125717 
L 281.195746 150.29863 
L 281.593345 144.534916 
L 283.087093 150.317698 
L 283.095485 138.20684 
L 283.337389 142.283723 
L 283.424405 138.420609 
L 283.89975 158.531821 
L 284.095111 140.753491 
L 284.103037 141.015561 
L 285.13448 138.09154 
L 285.765287 133.757589 
L 285.798926 135.549102 
L 286.334873 149.852063 
L 286.443426 137.869102 
L 286.798091 131.798801 
L 287.084481 146.709698 
L 287.496509 131.96564 
L 287.673851 159.305296 
L 289.040724 130.695335 
L 289.144798 143.399704 
L 289.360105 141.791144 
L 289.562829 129.526797 
L 290.39012 147.198373 
L 290.904192 146.478084 
L 291.264686 131.618214 
L 291.825753 136.731235 
L 292.365906 132.439589 
L 292.399218 133.381623 
L 292.575397 156.000463 
L 292.868753 132.780372 
L 293.169762 134.22814 
L 293.494967 139.838382 
L 293.55666 136.624315 
L 293.65667 149.227988 
L 293.824405 131.401533 
L 294.373764 131.208744 
L 294.401235 130.011819 
L 294.479556 140.895576 
L 294.847149 129.593717 
L 295.23018 146.193405 
L 295.871096 135.631265 
L 296.362818 134.194082 
L 296.459418 134.531284 
L 296.614745 129.046719 
L 296.76179 140.975021 
L 296.912447 138.361767 
L 297.266258 137.213793 
L 297.620922 142.761244 
L 298.133726 136.923114 
L 298.396757 172.578185 
L 298.412253 126.398822 
L 298.688035 138.132768 
L 299.021623 128.717977 
L 299.710666 126.684463 
L 299.830727 124.453351 
L 299.83806 135.221031 
L 300.226497 123.229832 
L 300.498225 128.327401 
L 300.910215 132.493176 
L 300.950827 145.877002 
L 301.793727 135.323552 
L 302.198414 128.511764 
L 302.447547 128.212454 
L 302.834485 137.553881 
L 303.059271 151.922284 
L 303.063844 128.613473 
L 303.470022 122.9006 
L 304.23296 122.349492 
L 304.689118 117.363077 
L 304.77909 148.851084 
L 305.056882 131.234882 
L 305.236437 131.70553 
L 305.616448 119.481058 
L 306.041715 123.958531 
L 306.378225 118.299262 
L 307.167087 121.169546 
L 307.435335 127.270007 
L 308.177407 123.615162 
L 308.489906 137.151958 
L 308.559466 126.213662 
L 308.674446 136.435111 
L 308.71434 129.369054 
L 309.122609 124.517083 
L 309.23483 134.896067 
L 310.138479 138.07103 
L 310.422539 118.270157 
L 310.473746 122.246544 
L 310.819469 128.928017 
L 310.894733 137.517185 
L 310.901103 133.179168 
L 311.186472 134.658362 
L 311.972702 115.927237 
L 312.465864 116.141334 
L 313.204026 120.876989 
L 313.28161 111.870465 
L 313.567625 125.305617 
L 313.660654 115.838331 
L 314.202196 116.539117 
L 314.257512 117.502064 
L 314.260807 114.461972 
L 315.684002 143.324575 
L 315.831521 117.551698 
L 315.961187 114.61123 
L 316.400478 118.699899 
L 316.82 117.699261 
L 316.927485 127.846676 
L 317.033047 112.339311 
L 317.700716 143.935422 
L 317.736042 114.646218 
L 318.769409 108.059742 
L 319.351515 110.802924 
L 319.931288 114.184407 
L 320.138983 125.040175 
L 320.302789 115.35021 
L 320.633588 119.234947 
L 320.820817 118.442714 
L 321.121701 113.577256 
L 322.060693 111.837292 
L 322.614977 119.18385 
L 323.220902 108.520744 
L 323.38252 119.339589 
L 324.073369 110.36513 
L 324.198546 110.746354 
L 324.200332 114.447549 
L 324.483041 132.475494 
L 324.691576 115.302309 
L 325.438856 111.003053 
L 325.610686 132.861524 
L 325.849744 105.241286 
L 326.263755 103.466319 
L 326.380355 116.969466 
L 326.562409 112.880994 
L 326.644469 105.276201 
L 326.645381 117.728845 
L 327.074557 108.59587 
L 327.274973 115.039314 
L 327.365978 111.277893 
L 328.031757 107.613737 
L 328.342679 124.234388 
L 328.937284 125.859014 
L 329.393635 104.554831 
L 329.700028 131.184913 
L 329.883595 105.248969 
L 330.696007 115.608689 
L 330.82057 102.330014 
L 330.838271 111.946227 
L 331.372146 112.748069 
L 331.603826 112.837983 
L 331.651708 104.442205 
L 332.135146 106.788053 
L 332.814168 108.023968 
L 333.449204 111.537669 
L 333.741806 124.872096 
L 334.075242 105.958085 
L 334.383172 111.992825 
L 334.47061 109.758484 
L 334.748444 99.185645 
L 335.124974 107.693379 
L 335.249604 106.995949 
L 335.952393 125.905032 
L 336.374492 114.669711 
L 336.403704 102.105072 
L 337.080677 97.455738 
L 337.389409 104.536431 
L 337.427305 109.932657 
L 337.613208 102.963385 
L 337.880272 110.402699 
L 337.88525 102.374805 
L 338.670431 103.290115 
L 339.473147 106.303712 
L 339.656342 108.930567 
L 340.187539 104.3512 
L 340.405841 105.126725 
L 340.509978 99.838445 
L 340.56049 122.439569 
L 340.579062 98.355915 
L 341.073807 98.50888 
L 341.125636 99.545763 
L 342.218387 114.001673 
L 342.319353 100.456483 
L 342.49893 98.805381 
L 342.709509 124.699148 
L 343.046786 94.676092 
L 343.942333 100.601122 
L 345.977957 105.22177 
L 346.094994 104.556579 
L 346.325767 110.862004 
L 346.538228 97.541108 
L 346.608233 105.602754 
L 347.039609 100.889196 
L 347.187304 100.607674 
L 347.544423 96.324772 
L 347.558222 108.178966 
L 347.615997 93.473276 
L 349.187625 95.785806 
L 349.398333 104.373001 
L 350.317492 94.198416 
L 350.347977 94.352234 
L 350.724966 110.912914 
L 351.149196 86.902422 
L 351.208775 97.390584 
L 351.327597 97.955933 
L 351.510226 108.447669 
L 351.692963 92.666948 
L 351.766557 99.292192 
L 351.819991 97.665699 
L 352.15252 112.113405 
L 352.288194 96.869234 
L 352.543965 101.931284 
L 353.011905 96.219148 
L 353.259273 98.977497 
L 353.326281 92.108613 
L 353.454981 100.190063 
L 354.055626 119.21676 
L 354.203828 109.339997 
L 356.551789 95.973135 
L 357.002691 99.410046 
L 357.272943 96.227149 
L 357.284889 89.463041 
L 357.467619 113.105468 
L 357.771695 97.394645 
L 358.266139 95.861315 
L 358.521964 99.068065 
L 358.608104 82.169151 
L 358.736846 80.57204 
L 358.897712 94.558756 
L 359.25087 90.669366 
L 359.337253 91.330698 
L 359.693928 100.589058 
L 359.8487 61.657128 
L 359.897946 103.566004 
L 360.444943 97.289421 
L 360.481407 106.89386 
L 360.572684 88.836773 
L 360.7885 93.507245 
L 361.104536 90.216138 
L 361.412369 83.495084 
L 361.878952 91.726652 
L 363.151396 99.872279 
L 363.201464 89.977841 
L 363.768434 89.90589 
L 363.786745 94.474889 
L 363.839208 87.835965 
L 364.190127 87.550975 
L 364.623373 88.665418 
L 365.522533 64.208585 
L 365.72684 76.092119 
L 366.351935 89.141779 
L 366.793708 104.076514 
L 367.005643 89.855411 
L 367.326403 112.615742 
L 368.50423 91.182025 
L 368.529088 88.200536 
L 368.627764 58.730346 
L 368.684211 87.611744 
L 368.937217 89.010648 
L 369.342402 89.293723 
L 369.363484 73.38942 
L 369.454286 92.018821 
L 369.521244 88.137006 
L 369.788376 89.026045 
L 369.855225 90.576376 
L 370.032905 89.939001 
L 370.166801 87.947122 
L 370.304966 90.172295 
L 370.532989 90.013026 
L 371.177449 73.682741 
L 371.374785 102.975873 
L 372.402226 58.920405 
L 372.488879 82.595325 
L 372.717686 90.042783 
L 373.131011 79.107333 
L 373.773171 90.413544 
L 374.058136 86.480661 
L 374.652309 87.517912 
L 374.800447 87.524567 
L 376.121238 86.308463 
L 376.574524 91.223419 
L 377.095663 86.593151 
L 377.242014 86.92651 
L 377.2969 80.362396 
L 377.357748 83.308631 
L 377.460648 88.239887 
L 377.769612 86.270164 
L 378.141729 86.835176 
L 378.399805 86.793265 
L 378.543573 87.378214 
L 378.651022 86.230812 
L 378.722299 91.322166 
L 378.905159 92.853199 
L 379.364954 85.833731 
L 379.401301 86.93644 
L 379.712551 84.964637 
L 381.131515 88.129733 
L 381.336124 85.883096 
L 382.135997 87.818449 
L 382.822723 85.667804 
L 383.422859 88.405175 
L 384.260607 86.569905 
L 384.913209 88.714309 
L 384.961294 86.513663 
L 385.06623 88.108773 
L 385.308845 85.560146 
L 385.674565 85.696824 
L 385.743067 83.101574 
L 385.879833 86.593316 
L 386.375323 85.64148 
L 386.583229 84.72301 
L 386.945082 85.992447 
L 387.174833 87.293403 
L 387.190383 85.553625 
L 387.285984 86.05972 
L 387.521031 85.615542 
L 388.543891 100.063841 
L 388.56903 85.443077 
L 388.75365 89.95523 
L 389.118383 84.362072 
L 389.183791 90.371166 
L 390.27681 84.900464 
L 390.78177 88.841018 
L 390.927348 85.66741 
L 390.991649 85.857797 
L 391.087692 86.000311 
L 391.554911 85.276579 
L 391.765344 84.743045 
L 392.746913 85.409838 
L 393.017031 85.860177 
L 393.202216 85.425755 
L 394.381035 83.752731 
L 395.303593 85.629185 
L 396.292008 85.277697 
L 398.487273 85.604047 
L 398.487273 85.604047 
" clip-path="url(#pc8a5f450b9)" style="fill: none; stroke: #1f77b4; stroke-width: 1.5; stroke-linecap: square"/>
   </g>
   <g id="line2d_28">
    <path d="M 73.832727 268.945825 
L 398.487273 53.568 
L 398.487273 53.568 
" clip-path="url(#pc8a5f450b9)" style="fill: none; stroke: #ff7f0e; stroke-width: 1.5; stroke-linecap: square"/>
   </g>
   <g id="patch_3">
    <path d="M 57.6 307.584 
L 57.6 41.472 
" style="fill: none; stroke: #000000; stroke-width: 0.8; stroke-linejoin: miter; stroke-linecap: square"/>
   </g>
   <g id="patch_4">
    <path d="M 414.72 307.584 
L 414.72 41.472 
" style="fill: none; stroke: #000000; stroke-width: 0.8; stroke-linejoin: miter; stroke-linecap: square"/>
   </g>
   <g id="patch_5">
    <path d="M 57.6 307.584 
L 414.72 307.584 
" style="fill: none; stroke: #000000; stroke-width: 0.8; stroke-linejoin: miter; stroke-linecap: square"/>
   </g>
   <g id="patch_6">
    <path d="M 57.6 41.472 
L 414.72 41.472 
" style="fill: none; stroke: #000000; stroke-width: 0.8; stroke-linejoin: miter; stroke-linecap: square"/>
   </g>
   <g id="text_16">
    <!-- Perturbation when A is disturbed (m = 2) -->
    <g transform="translate(112.648125 35.472) scale(0.12 -0.12)">
     <defs>
      <path id="DejaVuSans-50" d="M 1259 4147 
L 1259 2394 
L 2053 2394 
Q 2494 2394 2734 2622 
Q 2975 2850 2975 3272 
Q 2975 3691 2734 3919 
Q 2494 4147 2053 4147 
L 1259 4147 
z
M 628 4666 
L 2053 4666 
Q 2838 4666 3239 4311 
Q 3641 3956 3641 3272 
Q 3641 2581 3239 2228 
Q 2838 1875 2053 1875 
L 1259 1875 
L 1259 0 
L 628 0 
L 628 4666 
z
" transform="scale(0.015625)"/>
      <path id="DejaVuSans-65" d="M 3597 1894 
L 3597 1613 
L 953 1613 
Q 991 1019 1311 708 
Q 1631 397 2203 397 
Q 2534 397 2845 478 
Q 3156 559 3463 722 
L 3463 178 
Q 3153 47 2828 -22 
Q 2503 -91 2169 -91 
Q 1331 -91 842 396 
Q 353 884 353 1716 
Q 353 2575 817 3079 
Q 1281 3584 2069 3584 
Q 2775 3584 3186 3129 
Q 3597 2675 3597 1894 
z
M 3022 2063 
Q 3016 2534 2758 2815 
Q 2500 3097 2075 3097 
Q 1594 3097 1305 2825 
Q 1016 2553 972 2059 
L 3022 2063 
z
" transform="scale(0.015625)"/>
      <path id="DejaVuSans-72" d="M 2631 2963 
Q 2534 3019 2420 3045 
Q 2306 3072 2169 3072 
Q 1681 3072 1420 2755 
Q 1159 2438 1159 1844 
L 1159 0 
L 581 0 
L 581 3500 
L 1159 3500 
L 1159 2956 
Q 1341 3275 1631 3429 
Q 1922 3584 2338 3584 
Q 2397 3584 2469 3576 
Q 2541 3569 2628 3553 
L 2631 2963 
z
" transform="scale(0.015625)"/>
      <path id="DejaVuSans-74" d="M 1172 4494 
L 1172 3500 
L 2356 3500 
L 2356 3053 
L 1172 3053 
L 1172 1153 
Q 1172 725 1289 603 
Q 1406 481 1766 481 
L 2356 481 
L 2356 0 
L 1766 0 
Q 1100 0 847 248 
Q 594 497 594 1153 
L 594 3053 
L 172 3053 
L 172 3500 
L 594 3500 
L 594 4494 
L 1172 4494 
z
" transform="scale(0.015625)"/>
      <path id="DejaVuSans-75" d="M 544 1381 
L 544 3500 
L 1119 3500 
L 1119 1403 
Q 1119 906 1312 657 
Q 1506 409 1894 409 
Q 2359 409 2629 706 
Q 2900 1003 2900 1516 
L 2900 3500 
L 3475 3500 
L 3475 0 
L 2900 0 
L 2900 538 
Q 2691 219 2414 64 
Q 2138 -91 1772 -91 
Q 1169 -91 856 284 
Q 544 659 544 1381 
z
M 1991 3584 
L 1991 3584 
z
" transform="scale(0.015625)"/>
      <path id="DejaVuSans-62" d="M 3116 1747 
Q 3116 2381 2855 2742 
Q 2594 3103 2138 3103 
Q 1681 3103 1420 2742 
Q 1159 2381 1159 1747 
Q 1159 1113 1420 752 
Q 1681 391 2138 391 
Q 2594 391 2855 752 
Q 3116 1113 3116 1747 
z
M 1159 2969 
Q 1341 3281 1617 3432 
Q 1894 3584 2278 3584 
Q 2916 3584 3314 3078 
Q 3713 2572 3713 1747 
Q 3713 922 3314 415 
Q 2916 -91 2278 -91 
Q 1894 -91 1617 61 
Q 1341 213 1159 525 
L 1159 0 
L 581 0 
L 581 4863 
L 1159 4863 
L 1159 2969 
z
" transform="scale(0.015625)"/>
      <path id="DejaVuSans-61" d="M 2194 1759 
Q 1497 1759 1228 1600 
Q 959 1441 959 1056 
Q 959 750 1161 570 
Q 1363 391 1709 391 
Q 2188 391 2477 730 
Q 2766 1069 2766 1631 
L 2766 1759 
L 2194 1759 
z
M 3341 1997 
L 3341 0 
L 2766 0 
L 2766 531 
Q 2569 213 2275 61 
Q 1981 -91 1556 -91 
Q 1019 -91 701 211 
Q 384 513 384 1019 
Q 384 1609 779 1909 
Q 1175 2209 1959 2209 
L 2766 2209 
L 2766 2266 
Q 2766 2663 2505 2880 
Q 2244 3097 1772 3097 
Q 1472 3097 1187 3025 
Q 903 2953 641 2809 
L 641 3341 
Q 956 3463 1253 3523 
Q 1550 3584 1831 3584 
Q 2591 3584 2966 3190 
Q 3341 2797 3341 1997 
z
" transform="scale(0.015625)"/>
      <path id="DejaVuSans-69" d="M 603 3500 
L 1178 3500 
L 1178 0 
L 603 0 
L 603 3500 
z
M 603 4863 
L 1178 4863 
L 1178 4134 
L 603 4134 
L 603 4863 
z
" transform="scale(0.015625)"/>
      <path id="DejaVuSans-6f" d="M 1959 3097 
Q 1497 3097 1228 2736 
Q 959 2375 959 1747 
Q 959 1119 1226 758 
Q 1494 397 1959 397 
Q 2419 397 2687 759 
Q 2956 1122 2956 1747 
Q 2956 2369 2687 2733 
Q 2419 3097 1959 3097 
z
M 1959 3584 
Q 2709 3584 3137 3096 
Q 3566 2609 3566 1747 
Q 3566 888 3137 398 
Q 2709 -91 1959 -91 
Q 1206 -91 779 398 
Q 353 888 353 1747 
Q 353 2609 779 3096 
Q 1206 3584 1959 3584 
z
" transform="scale(0.015625)"/>
      <path id="DejaVuSans-6e" d="M 3513 2113 
L 3513 0 
L 2938 0 
L 2938 2094 
Q 2938 2591 2744 2837 
Q 2550 3084 2163 3084 
Q 1697 3084 1428 2787 
Q 1159 2491 1159 1978 
L 1159 0 
L 581 0 
L 581 3500 
L 1159 3500 
L 1159 2956 
Q 1366 3272 1645 3428 
Q 1925 3584 2291 3584 
Q 2894 3584 3203 3211 
Q 3513 2838 3513 2113 
z
" transform="scale(0.015625)"/>
      <path id="DejaVuSans-20" transform="scale(0.015625)"/>
      <path id="DejaVuSans-77" d="M 269 3500 
L 844 3500 
L 1563 769 
L 2278 3500 
L 2956 3500 
L 3675 769 
L 4391 3500 
L 4966 3500 
L 4050 0 
L 3372 0 
L 2619 2869 
L 1863 0 
L 1184 0 
L 269 3500 
z
" transform="scale(0.015625)"/>
      <path id="DejaVuSans-68" d="M 3513 2113 
L 3513 0 
L 2938 0 
L 2938 2094 
Q 2938 2591 2744 2837 
Q 2550 3084 2163 3084 
Q 1697 3084 1428 2787 
Q 1159 2491 1159 1978 
L 1159 0 
L 581 0 
L 581 4863 
L 1159 4863 
L 1159 2956 
Q 1366 3272 1645 3428 
Q 1925 3584 2291 3584 
Q 2894 3584 3203 3211 
Q 3513 2838 3513 2113 
z
" transform="scale(0.015625)"/>
      <path id="DejaVuSans-73" d="M 2834 3397 
L 2834 2853 
Q 2591 2978 2328 3040 
Q 2066 3103 1784 3103 
Q 1356 3103 1142 2972 
Q 928 2841 928 2578 
Q 928 2378 1081 2264 
Q 1234 2150 1697 2047 
L 1894 2003 
Q 2506 1872 2764 1633 
Q 3022 1394 3022 966 
Q 3022 478 2636 193 
Q 2250 -91 1575 -91 
Q 1294 -91 989 -36 
Q 684 19 347 128 
L 347 722 
Q 666 556 975 473 
Q 1284 391 1588 391 
Q 1994 391 2212 530 
Q 2431 669 2431 922 
Q 2431 1156 2273 1281 
Q 2116 1406 1581 1522 
L 1381 1569 
Q 847 1681 609 1914 
Q 372 2147 372 2553 
Q 372 3047 722 3315 
Q 1072 3584 1716 3584 
Q 2034 3584 2315 3537 
Q 2597 3491 2834 3397 
z
" transform="scale(0.015625)"/>
      <path id="DejaVuSans-64" d="M 2906 2969 
L 2906 4863 
L 3481 4863 
L 3481 0 
L 2906 0 
L 2906 525 
Q 2725 213 2448 61 
Q 2172 -91 1784 -91 
Q 1150 -91 751 415 
Q 353 922 353 1747 
Q 353 2572 751 3078 
Q 1150 3584 1784 3584 
Q 2172 3584 2448 3432 
Q 2725 3281 2906 2969 
z
M 947 1747 
Q 947 1113 1208 752 
Q 1469 391 1925 391 
Q 2381 391 2643 752 
Q 2906 1113 2906 1747 
Q 2906 2381 2643 2742 
Q 2381 3103 1925 3103 
Q 1469 3103 1208 2742 
Q 947 2381 947 1747 
z
" transform="scale(0.015625)"/>
      <path id="DejaVuSans-28" d="M 1984 4856 
Q 1566 4138 1362 3434 
Q 1159 2731 1159 2009 
Q 1159 1288 1364 580 
Q 1569 -128 1984 -844 
L 1484 -844 
Q 1016 -109 783 600 
Q 550 1309 550 2009 
Q 550 2706 781 3412 
Q 1013 4119 1484 4856 
L 1984 4856 
z
" transform="scale(0.015625)"/>
      <path id="DejaVuSans-6d" d="M 3328 2828 
Q 3544 3216 3844 3400 
Q 4144 3584 4550 3584 
Q 5097 3584 5394 3201 
Q 5691 2819 5691 2113 
L 5691 0 
L 5113 0 
L 5113 2094 
Q 5113 2597 4934 2840 
Q 4756 3084 4391 3084 
Q 3944 3084 3684 2787 
Q 3425 2491 3425 1978 
L 3425 0 
L 2847 0 
L 2847 2094 
Q 2847 2600 2669 2842 
Q 2491 3084 2119 3084 
Q 1678 3084 1418 2786 
Q 1159 2488 1159 1978 
L 1159 0 
L 581 0 
L 581 3500 
L 1159 3500 
L 1159 2956 
Q 1356 3278 1631 3431 
Q 1906 3584 2284 3584 
Q 2666 3584 2933 3390 
Q 3200 3197 3328 2828 
z
" transform="scale(0.015625)"/>
      <path id="DejaVuSans-3d" d="M 678 2906 
L 4684 2906 
L 4684 2381 
L 678 2381 
L 678 2906 
z
M 678 1631 
L 4684 1631 
L 4684 1100 
L 678 1100 
L 678 1631 
z
" transform="scale(0.015625)"/>
      <path id="DejaVuSans-32" d="M 1228 531 
L 3431 531 
L 3431 0 
L 469 0 
L 469 531 
Q 828 903 1448 1529 
Q 2069 2156 2228 2338 
Q 2531 2678 2651 2914 
Q 2772 3150 2772 3378 
Q 2772 3750 2511 3984 
Q 2250 4219 1831 4219 
Q 1534 4219 1204 4116 
Q 875 4013 500 3803 
L 500 4441 
Q 881 4594 1212 4672 
Q 1544 4750 1819 4750 
Q 2544 4750 2975 4387 
Q 3406 4025 3406 3419 
Q 3406 3131 3298 2873 
Q 3191 2616 2906 2266 
Q 2828 2175 2409 1742 
Q 1991 1309 1228 531 
z
" transform="scale(0.015625)"/>
      <path id="DejaVuSans-29" d="M 513 4856 
L 1013 4856 
Q 1481 4119 1714 3412 
Q 1947 2706 1947 2009 
Q 1947 1309 1714 600 
Q 1481 -109 1013 -844 
L 513 -844 
Q 928 -128 1133 580 
Q 1338 1288 1338 2009 
Q 1338 2731 1133 3434 
Q 928 4138 513 4856 
z
" transform="scale(0.015625)"/>
     </defs>
     <use xlink:href="#DejaVuSans-50"/>
     <use xlink:href="#DejaVuSans-65" x="56.677734"/>
     <use xlink:href="#DejaVuSans-72" x="118.201172"/>
     <use xlink:href="#DejaVuSans-74" x="159.314453"/>
     <use xlink:href="#DejaVuSans-75" x="198.523438"/>
     <use xlink:href="#DejaVuSans-72" x="261.902344"/>
     <use xlink:href="#DejaVuSans-62" x="303.015625"/>
     <use xlink:href="#DejaVuSans-61" x="366.492188"/>
     <use xlink:href="#DejaVuSans-74" x="427.771484"/>
     <use xlink:href="#DejaVuSans-69" x="466.980469"/>
     <use xlink:href="#DejaVuSans-6f" x="494.763672"/>
     <use xlink:href="#DejaVuSans-6e" x="555.945312"/>
     <use xlink:href="#DejaVuSans-20" x="619.324219"/>
     <use xlink:href="#DejaVuSans-77" x="651.111328"/>
     <use xlink:href="#DejaVuSans-68" x="732.898438"/>
     <use xlink:href="#DejaVuSans-65" x="796.277344"/>
     <use xlink:href="#DejaVuSans-6e" x="857.800781"/>
     <use xlink:href="#DejaVuSans-20" x="921.179688"/>
     <use xlink:href="#DejaVuSans-41" x="952.966797"/>
     <use xlink:href="#DejaVuSans-20" x="1021.375"/>
     <use xlink:href="#DejaVuSans-69" x="1053.162109"/>
     <use xlink:href="#DejaVuSans-73" x="1080.945312"/>
     <use xlink:href="#DejaVuSans-20" x="1133.044922"/>
     <use xlink:href="#DejaVuSans-64" x="1164.832031"/>
     <use xlink:href="#DejaVuSans-69" x="1228.308594"/>
     <use xlink:href="#DejaVuSans-73" x="1256.091797"/>
     <use xlink:href="#DejaVuSans-74" x="1308.191406"/>
     <use xlink:href="#DejaVuSans-75" x="1347.400391"/>
     <use xlink:href="#DejaVuSans-72" x="1410.779297"/>
     <use xlink:href="#DejaVuSans-62" x="1451.892578"/>
     <use xlink:href="#DejaVuSans-65" x="1515.369141"/>
     <use xlink:href="#DejaVuSans-64" x="1576.892578"/>
     <use xlink:href="#DejaVuSans-20" x="1640.369141"/>
     <use xlink:href="#DejaVuSans-28" x="1672.15625"/>
     <use xlink:href="#DejaVuSans-6d" x="1711.169922"/>
     <use xlink:href="#DejaVuSans-20" x="1808.582031"/>
     <use xlink:href="#DejaVuSans-3d" x="1840.369141"/>
     <use xlink:href="#DejaVuSans-20" x="1924.158203"/>
     <use xlink:href="#DejaVuSans-32" x="1955.945312"/>
     <use xlink:href="#DejaVuSans-29" x="2019.568359"/>
    </g>
   </g>
   <g id="legend_1">
    <g id="patch_7">
     <path d="M 64.6 79.250125 
L 303.5 79.250125 
Q 305.5 79.250125 305.5 77.250125 
L 305.5 48.472 
Q 305.5 46.472 303.5 46.472 
L 64.6 46.472 
Q 62.6 46.472 62.6 48.472 
L 62.6 77.250125 
Q 62.6 79.250125 64.6 79.250125 
z
" style="fill: #ffffff; opacity: 0.8; stroke: #cccccc; stroke-linejoin: miter"/>
    </g>
    <g id="line2d_29">
     <path d="M 66.6 54.570437 
L 76.6 54.570437 
L 86.6 54.570437 
" style="fill: none; stroke: #1f77b4; stroke-width: 1.5; stroke-linecap: square"/>
    </g>
    <g id="text_17">
     <!-- relative solution perturbation -->
     <g transform="translate(94.6 58.070437) scale(0.1 -0.1)">
      <defs>
       <path id="DejaVuSans-6c" d="M 603 4863 
L 1178 4863 
L 1178 0 
L 603 0 
L 603 4863 
z
" transform="scale(0.015625)"/>
       <path id="DejaVuSans-76" d="M 191 3500 
L 800 3500 
L 1894 563 
L 2988 3500 
L 3597 3500 
L 2284 0 
L 1503 0 
L 191 3500 
z
" transform="scale(0.015625)"/>
       <path id="DejaVuSans-70" d="M 1159 525 
L 1159 -1331 
L 581 -1331 
L 581 3500 
L 1159 3500 
L 1159 2969 
Q 1341 3281 1617 3432 
Q 1894 3584 2278 3584 
Q 2916 3584 3314 3078 
Q 3713 2572 3713 1747 
Q 3713 922 3314 415 
Q 2916 -91 2278 -91 
Q 1894 -91 1617 61 
Q 1341 213 1159 525 
z
M 3116 1747 
Q 3116 2381 2855 2742 
Q 2594 3103 2138 3103 
Q 1681 3103 1420 2742 
Q 1159 2381 1159 1747 
Q 1159 1113 1420 752 
Q 1681 391 2138 391 
Q 2594 391 2855 752 
Q 3116 1113 3116 1747 
z
" transform="scale(0.015625)"/>
      </defs>
      <use xlink:href="#DejaVuSans-72"/>
      <use xlink:href="#DejaVuSans-65" x="38.863281"/>
      <use xlink:href="#DejaVuSans-6c" x="100.386719"/>
      <use xlink:href="#DejaVuSans-61" x="128.169922"/>
      <use xlink:href="#DejaVuSans-74" x="189.449219"/>
      <use xlink:href="#DejaVuSans-69" x="228.658203"/>
      <use xlink:href="#DejaVuSans-76" x="256.441406"/>
      <use xlink:href="#DejaVuSans-65" x="315.621094"/>
      <use xlink:href="#DejaVuSans-20" x="377.144531"/>
      <use xlink:href="#DejaVuSans-73" x="408.931641"/>
      <use xlink:href="#DejaVuSans-6f" x="461.03125"/>
      <use xlink:href="#DejaVuSans-6c" x="522.212891"/>
      <use xlink:href="#DejaVuSans-75" x="549.996094"/>
      <use xlink:href="#DejaVuSans-74" x="613.375"/>
      <use xlink:href="#DejaVuSans-69" x="652.583984"/>
      <use xlink:href="#DejaVuSans-6f" x="680.367188"/>
      <use xlink:href="#DejaVuSans-6e" x="741.548828"/>
      <use xlink:href="#DejaVuSans-20" x="804.927734"/>
      <use xlink:href="#DejaVuSans-70" x="836.714844"/>
      <use xlink:href="#DejaVuSans-65" x="900.191406"/>
      <use xlink:href="#DejaVuSans-72" x="961.714844"/>
      <use xlink:href="#DejaVuSans-74" x="1002.828125"/>
      <use xlink:href="#DejaVuSans-75" x="1042.037109"/>
      <use xlink:href="#DejaVuSans-72" x="1105.416016"/>
      <use xlink:href="#DejaVuSans-62" x="1146.529297"/>
      <use xlink:href="#DejaVuSans-61" x="1210.005859"/>
      <use xlink:href="#DejaVuSans-74" x="1271.285156"/>
      <use xlink:href="#DejaVuSans-69" x="1310.494141"/>
      <use xlink:href="#DejaVuSans-6f" x="1338.277344"/>
      <use xlink:href="#DejaVuSans-6e" x="1399.458984"/>
     </g>
    </g>
    <g id="line2d_30">
     <path d="M 66.6 69.350125 
L 76.6 69.350125 
L 86.6 69.350125 
" style="fill: none; stroke: #ff7f0e; stroke-width: 1.5; stroke-linecap: square"/>
    </g>
    <g id="text_18">
     <!-- perturbation upper bound ($\kappa_A$*||$\delta$A||/||A||) -->
     <g transform="translate(94.6 72.850125) scale(0.1 -0.1)">
      <defs>
       <path id="DejaVuSans-Oblique-3ba" d="M 938 3500 
L 1531 3500 
L 1247 2047 
L 3041 3500 
L 3741 3500 
L 2106 2181 
L 3275 0 
L 2572 0 
L 1628 1806 
L 1122 1403 
L 850 0 
L 256 0 
L 938 3500 
z
" transform="scale(0.015625)"/>
       <path id="DejaVuSans-Oblique-41" d="M 2356 4666 
L 3072 4666 
L 3938 0 
L 3278 0 
L 3084 1197 
L 984 1197 
L 325 0 
L -341 0 
L 2356 4666 
z
M 2584 4044 
L 1275 1722 
L 2988 1722 
L 2584 4044 
z
" transform="scale(0.015625)"/>
       <path id="DejaVuSans-2a" d="M 3009 3897 
L 1888 3291 
L 3009 2681 
L 2828 2375 
L 1778 3009 
L 1778 1831 
L 1422 1831 
L 1422 3009 
L 372 2375 
L 191 2681 
L 1313 3291 
L 191 3897 
L 372 4206 
L 1422 3572 
L 1422 4750 
L 1778 4750 
L 1778 3572 
L 2828 4206 
L 3009 3897 
z
" transform="scale(0.015625)"/>
      </defs>
      <use xlink:href="#DejaVuSans-70" transform="translate(0 0.578125)"/>
      <use xlink:href="#DejaVuSans-65" transform="translate(63.476562 0.578125)"/>
      <use xlink:href="#DejaVuSans-72" transform="translate(125 0.578125)"/>
      <use xlink:href="#DejaVuSans-74" transform="translate(166.113281 0.578125)"/>
      <use xlink:href="#DejaVuSans-75" transform="translate(205.322266 0.578125)"/>
      <use xlink:href="#DejaVuSans-72" transform="translate(268.701172 0.578125)"/>
      <use xlink:href="#DejaVuSans-62" transform="translate(309.814453 0.578125)"/>
      <use xlink:href="#DejaVuSans-61" transform="translate(373.291016 0.578125)"/>
      <use xlink:href="#DejaVuSans-74" transform="translate(434.570312 0.578125)"/>
      <use xlink:href="#DejaVuSans-69" transform="translate(473.779297 0.578125)"/>
      <use xlink:href="#DejaVuSans-6f" transform="translate(501.5625 0.578125)"/>
      <use xlink:href="#DejaVuSans-6e" transform="translate(562.744141 0.578125)"/>
      <use xlink:href="#DejaVuSans-20" transform="translate(626.123047 0.578125)"/>
      <use xlink:href="#DejaVuSans-75" transform="translate(657.910156 0.578125)"/>
      <use xlink:href="#DejaVuSans-70" transform="translate(721.289062 0.578125)"/>
      <use xlink:href="#DejaVuSans-70" transform="translate(784.765625 0.578125)"/>
      <use xlink:href="#DejaVuSans-65" transform="translate(848.242188 0.578125)"/>
      <use xlink:href="#DejaVuSans-72" transform="translate(909.765625 0.578125)"/>
      <use xlink:href="#DejaVuSans-20" transform="translate(950.878906 0.578125)"/>
      <use xlink:href="#DejaVuSans-62" transform="translate(982.666016 0.578125)"/>
      <use xlink:href="#DejaVuSans-6f" transform="translate(1046.142578 0.578125)"/>
      <use xlink:href="#DejaVuSans-75" transform="translate(1107.324219 0.578125)"/>
      <use xlink:href="#DejaVuSans-6e" transform="translate(1170.703125 0.578125)"/>
      <use xlink:href="#DejaVuSans-64" transform="translate(1234.082031 0.578125)"/>
      <use xlink:href="#DejaVuSans-20" transform="translate(1297.558594 0.578125)"/>
      <use xlink:href="#DejaVuSans-28" transform="translate(1329.345703 0.578125)"/>
      <use xlink:href="#DejaVuSans-Oblique-3ba" transform="translate(1368.359375 0.578125)"/>
      <use xlink:href="#DejaVuSans-Oblique-41" transform="translate(1427.294922 -15.828125) scale(0.7)"/>
      <use xlink:href="#DejaVuSans-2a" transform="translate(1477.915039 0.578125)"/>
      <use xlink:href="#DejaVuSans-7c" transform="translate(1527.915039 0.578125)"/>
      <use xlink:href="#DejaVuSans-7c" transform="translate(1561.606445 0.578125)"/>
      <use xlink:href="#DejaVuSans-Oblique-3b4" transform="translate(1595.297852 0.578125)"/>
      <use xlink:href="#DejaVuSans-41" transform="translate(1656.479492 0.578125)"/>
      <use xlink:href="#DejaVuSans-7c" transform="translate(1724.887695 0.578125)"/>
      <use xlink:href="#DejaVuSans-7c" transform="translate(1758.579102 0.578125)"/>
      <use xlink:href="#DejaVuSans-2f" transform="translate(1792.270508 0.578125)"/>
      <use xlink:href="#DejaVuSans-7c" transform="translate(1825.961914 0.578125)"/>
      <use xlink:href="#DejaVuSans-7c" transform="translate(1859.65332 0.578125)"/>
      <use xlink:href="#DejaVuSans-41" transform="translate(1893.344727 0.578125)"/>
      <use xlink:href="#DejaVuSans-7c" transform="translate(1961.75293 0.578125)"/>
      <use xlink:href="#DejaVuSans-7c" transform="translate(1995.444336 0.578125)"/>
      <use xlink:href="#DejaVuSans-29" transform="translate(2029.135742 0.578125)"/>
     </g>
    </g>
   </g>
  </g>
 </g>
 <defs>
  <clipPath id="pc8a5f450b9">
   <rect x="57.6" y="41.472" width="357.12" height="266.112"/>
  </clipPath>
 </defs>
</svg>
