<svg width="440" height="340" xmlns="http://www.w3.org/2000/svg">
<path stroke-width="1" stroke="black" d="M 310 320 383 55"/>
<path stroke-width="1" stroke="black" d="M 382 73 418 52"/>
<path stroke-width="1" stroke="black" d="M 382 74 408 74"/>
<path stroke-width="1" stroke="black" d="M 382 74 382 73"/>
<path stroke-width="1" stroke="black" d="M 382 74 418 52"/>
<path stroke-width="1" stroke="black" d="M 407 76 406 75"/>
<path stroke-width="1" stroke="black" d="M 407 76 20 20"/>
<path stroke-width="1" stroke="black" d="M 411 79 374 42"/>
<path stroke-width="1" stroke="black" d="M 411 79 408 74"/>
<path stroke-width="1" stroke="black" d="M 411 79 382 73"/>
<path stroke-width="1" stroke="black" d="M 411 79 20 20"/>
<path stroke-width="1" stroke="black" d="M 408 80 374 42"/>
<path stroke-width="1" stroke="black" d="M 408 80 418 52"/>
<path stroke-width="1" stroke="black" d="M 408 80 20 20"/>
<path stroke-width="1" stroke="black" d="M 406 75 408 74"/>
<path stroke-width="1" stroke="black" d="M 406 75 407 76"/>
<path stroke-width="1" stroke="black" d="M 382 73 411 79"/>
<path stroke-width="1" stroke="black" d="M 382 73 382 74"/>
<path stroke-width="1" stroke="black" d="M 408 74 20 20"/>
<path stroke-width="1" stroke="black" d="M 408 74 408 92"/>
<path stroke-width="1" stroke="black" d="M 390 57 310 320"/>
<path stroke-width="1" stroke="black" d="M 390 57 383 55"/>
<path stroke-width="1" stroke="black" d="M 406 75 408 92"/>
<path stroke-width="1" stroke="black" d="M 406 75 20 20"/>
<path stroke-width="1" stroke="black" d="M 414 60 310 320"/>
<path stroke-width="1" stroke="black" d="M 414 60 383 55"/>
<path stroke-width="1" stroke="black" d="M 414 60 20 20"/>
<path stroke-width="1" stroke="black" d="M 406 75 408 92"/>
<path stroke-width="1" stroke="black" d="M 406 75 408 92"/>
<path stroke-width="1" stroke="black" d="M 390 57 310 320"/>
<path stroke-width="1" stroke="black" d="M 390 57 383 55"/>
<path stroke-width="1" stroke="black" d="M 406 75 408 92"/>
<path stroke-width="1" stroke="black" d="M 406 75 20 20"/>
<path stroke-width="1" stroke="black" d="M 408 74 382 74"/>
<path stroke-width="1" stroke="black" d="M 408 74 411 79"/>
<path stroke-width="1" stroke="black" d="M 408 74 406 75"/>
<path stroke-width="1" stroke="black" d="M 406 75 20 20"/>
<path stroke-width="1" stroke="black" d="M 385 75 390 56"/>
<path stroke-width="1" stroke="black" d="M 406 75 20 20"/>
<path stroke-width="1" stroke="black" d="M 407 78 416 57"/>
<path stroke-width="1" stroke="black" d="M 20 20 416 57"/>
<path stroke-width="1" stroke="black" d="M 20 20 409 78"/>
<path stroke-width="1" stroke="black" d="M 20 20 420 62"/>
<path stroke-width="1" stroke="black" d="M 20 20 406 75"/>
<path stroke-width="1" stroke="black" d="M 20 20 406 75"/>
<path stroke-width="1" stroke="black" d="M 20 20 406 75"/>
<path stroke-width="1" stroke="black" d="M 20 20 414 60"/>
<path stroke-width="1" stroke="black" d="M 20 20 406 75"/>
<path stroke-width="1" stroke="black" d="M 20 20 406 75"/>
<path stroke-width="1" stroke="black" d="M 20 20 408 74"/>
<path stroke-width="1" stroke="black" d="M 20 20 407 76"/>
<path stroke-width="1" stroke="black" d="M 20 20 411 79"/>
<path stroke-width="1" stroke="black" d="M 20 20 408 80"/>
<path stroke-width="1" stroke="black" d="M 20 20 406 75"/>
<path stroke-width="1" stroke="black" d="M 20 20 407 78"/>
<path stroke-width="1" stroke="black" d="M 408 92 20 20"/>
<path stroke-width="1" stroke="black" d="M 408 92 418 52"/>
<path stroke-width="1" stroke="black" d="M 408 92 407 78"/>
<path stroke-width="1" stroke="black" d="M 408 92 406 75"/>
<path stroke-width="1" stroke="black" d="M 407 78 408 92"/>
<path stroke-width="1" stroke="black" d="M 407 78 20 20"/>
<path stroke-width="1" stroke="black" d="M 418 52 310 320"/>
<path stroke-width="1" stroke="black" d="M 418 52 382 73"/>
<path stroke-width="1" stroke="black" d="M 418 52 382 74"/>
<path stroke-width="1" stroke="black" d="M 418 52 408 80"/>
<path stroke-width="1" stroke="black" d="M 418 52 408 92"/>
<path stroke-width="1" stroke="black" d="M 407 78 383 55"/>
<path stroke-width="1" stroke="black" d="M 418 52 20 20"/>
<path stroke-width="1" stroke="black" d="M 408 92 416 57"/>
<path stroke-width="1" stroke="black" d="M 408 92 406 75"/>
<path stroke-width="1" stroke="black" d="M 408 92 406 75"/>
<path stroke-width="1" stroke="black" d="M 408 92 406 75"/>
<path stroke-width="1" stroke="black" d="M 408 92 406 75"/>
<path stroke-width="1" stroke="black" d="M 408 92 406 75"/>
<path stroke-width="1" stroke="black" d="M 408 92 408 74"/>
<path stroke-width="1" stroke="black" d="M 408 92 374 42"/>
<path stroke-width="1" stroke="black" d="M 385 75 390 56"/>
<path stroke-width="1" stroke="black" d="M 406 75 20 20"/>
<path stroke-width="1" stroke="black" d="M 406 75 408 92"/>
<path stroke-width="1" stroke="black" d="M 383 55 390 57"/>
<path stroke-width="1" stroke="black" d="M 383 55 414 60"/>
<path stroke-width="1" stroke="black" d="M 383 55 390 57"/>
<path stroke-width="1" stroke="black" d="M 383 55 407 78"/>
<path stroke-width="1" stroke="black" d="M 374 42 310 320"/>
<path stroke-width="1" stroke="black" d="M 374 42 383 55"/>
<path stroke-width="1" stroke="black" d="M 374 42 389 58"/>
<path stroke-width="1" stroke="black" d="M 374 42 391 58"/>
<path stroke-width="1" stroke="black" d="M 374 42 416 57"/>
<path stroke-width="1" stroke="black" d="M 374 42 409 78"/>
<path stroke-width="1" stroke="black" d="M 374 42 420 62"/>
<path stroke-width="1" stroke="black" d="M 374 42 411 79"/>
<path stroke-width="1" stroke="black" d="M 374 42 408 80"/>
<path stroke-width="1" stroke="black" d="M 374 42 408 92"/>
<path stroke-width="1" stroke="black" d="M 389 58 310 320"/>
<path stroke-width="1" stroke="black" d="M 383 55 420 62"/>
<path stroke-width="1" stroke="black" d="M 383 55 391 58"/>
<path stroke-width="1" stroke="black" d="M 383 55 389 58"/>
<path stroke-width="1" stroke="black" d="M 383 55 374 42"/>
<path stroke-width="1" stroke="black" d="M 310 320 374 42"/>
<path stroke-width="1" stroke="black" d="M 310 320 389 58"/>
<path stroke-width="1" stroke="black" d="M 310 320 390 57"/>
<path stroke-width="1" stroke="black" d="M 310 320 390 56"/>
<path stroke-width="1" stroke="black" d="M 310 320 390 56"/>
<path stroke-width="1" stroke="black" d="M 310 320 391 58"/>
<path stroke-width="1" stroke="black" d="M 310 320 416 57"/>
<path stroke-width="1" stroke="black" d="M 389 58 383 55"/>
<path stroke-width="1" stroke="black" d="M 310 320 390 57"/>
<path stroke-width="1" stroke="black" d="M 310 320 390 57"/>
<path stroke-width="1" stroke="black" d="M 310 320 420 62"/>
<path stroke-width="1" stroke="black" d="M 310 320 390 57"/>
<path stroke-width="1" stroke="black" d="M 310 320 414 60"/>
<path stroke-width="1" stroke="black" d="M 310 320 390 57"/>
<path stroke-width="1" stroke="black" d="M 310 320 418 52"/>
<path stroke-width="1" stroke="black" d="M 383 55 310 320"/>
<path stroke-width="1" stroke="black" d="M 310 320 390 57"/>
<path stroke-width="1" stroke="black" d="M 389 58 374 42"/>
<path stroke-width="1" stroke="black" d="M 389 58 391 58"/>
<path stroke-width="1" stroke="black" d="M 389 58 390 57"/>
<path stroke-width="1" stroke="black" d="M 416 57 20 20"/>
<path stroke-width="1" stroke="black" d="M 409 78 374 42"/>
<path stroke-width="1" stroke="black" d="M 409 78 20 20"/>
<path stroke-width="1" stroke="black" d="M 390 57 310 320"/>
<path stroke-width="1" stroke="black" d="M 390 57 390 57"/>
<path stroke-width="1" stroke="black" d="M 390 57 390 56"/>
<path stroke-width="1" stroke="black" d="M 390 57 310 320"/>
<path stroke-width="1" stroke="black" d="M 416 57 408 92"/>
<path stroke-width="1" stroke="black" d="M 390 57 310 320"/>
<path stroke-width="1" stroke="black" d="M 420 62 310 320"/>
<path stroke-width="1" stroke="black" d="M 420 62 383 55"/>
<path stroke-width="1" stroke="black" d="M 420 62 374 42"/>
<path stroke-width="1" stroke="black" d="M 420 62 389 58"/>
<path stroke-width="1" stroke="black" d="M 420 62 20 20"/>
<path stroke-width="1" stroke="black" d="M 406 75 408 92"/>
<path stroke-width="1" stroke="black" d="M 406 75 20 20"/>
<path stroke-width="1" stroke="black" d="M 390 57 389 58"/>
<path stroke-width="1" stroke="black" d="M 20 20 418 52"/>
<path stroke-width="1" stroke="black" d="M 416 57 407 78"/>
<path stroke-width="1" stroke="black" d="M 416 57 310 320"/>
<path stroke-width="1" stroke="black" d="M 389 58 420 62"/>
<path stroke-width="1" stroke="black" d="M 390 57 310 320"/>
<path stroke-width="1" stroke="black" d="M 390 57 390 56"/>
<path stroke-width="1" stroke="black" d="M 390 57 390 57"/>
<path stroke-width="1" stroke="black" d="M 390 56 310 320"/>
<path stroke-width="1" stroke="black" d="M 390 56 390 56"/>
<path stroke-width="1" stroke="black" d="M 390 56 390 57"/>
<path stroke-width="1" stroke="black" d="M 416 57 374 42"/>
<path stroke-width="1" stroke="black" d="M 390 56 385 75"/>
<path stroke-width="1" stroke="black" d="M 390 56 390 57"/>
<path stroke-width="1" stroke="black" d="M 390 56 390 56"/>
<path stroke-width="1" stroke="black" d="M 390 56 385 75"/>
<path stroke-width="1" stroke="black" d="M 391 58 310 320"/>
<path stroke-width="1" stroke="black" d="M 391 58 383 55"/>
<path stroke-width="1" stroke="black" d="M 391 58 374 42"/>
<path stroke-width="1" stroke="black" d="M 391 58 389 58"/>
<path stroke-width="1" stroke="black" d="M 390 56 310 320"/>
<path stroke-width="1" stroke="black" d="M 20 20 408 92"/>
<circle cx="310" cy="320" r="7.0" style="fill:red;stroke:black;stroke-width:1.0"/>
<circle cx="383" cy="55" r="7.0" style="fill:red;stroke:black;stroke-width:1.0"/>
<circle cx="374" cy="42" r="7.0" style="fill:red;stroke:black;stroke-width:1.0"/>
<circle cx="389" cy="58" r="7.0" style="fill:red;stroke:black;stroke-width:1.0"/>
<circle cx="390" cy="57" r="7.0" style="fill:red;stroke:black;stroke-width:1.0"/>
<circle cx="390" cy="56" r="7.0" style="fill:red;stroke:black;stroke-width:1.0"/>
<circle cx="390" cy="56" r="7.0" style="fill:red;stroke:black;stroke-width:1.0"/>
<circle cx="391" cy="58" r="7.0" style="fill:red;stroke:black;stroke-width:1.0"/>
<circle cx="416" cy="57" r="7.0" style="fill:red;stroke:black;stroke-width:1.0"/>
<circle cx="409" cy="78" r="7.0" style="fill:blue;stroke:black;stroke-width:1.0"/>
<circle cx="390" cy="57" r="7.0" style="fill:red;stroke:black;stroke-width:1.0"/>
<circle cx="390" cy="57" r="7.0" style="fill:red;stroke:black;stroke-width:1.0"/>
<circle cx="390" cy="57" r="7.0" style="fill:red;stroke:black;stroke-width:1.0"/>
<circle cx="420" cy="62" r="7.0" style="fill:red;stroke:black;stroke-width:1.0"/>
<circle cx="406" cy="75" r="7.0" style="fill:blue;stroke:black;stroke-width:1.0"/>
<circle cx="406" cy="75" r="7.0" style="fill:blue;stroke:black;stroke-width:1.0"/>
<circle cx="385" cy="75" r="7.0" style="fill:red;stroke:black;stroke-width:1.0"/>
<circle cx="390" cy="57" r="7.0" style="fill:red;stroke:black;stroke-width:1.0"/>
<circle cx="406" cy="75" r="7.0" style="fill:blue;stroke:black;stroke-width:1.0"/>
<circle cx="414" cy="60" r="7.0" style="fill:red;stroke:black;stroke-width:1.0"/>
<circle cx="406" cy="75" r="7.0" style="fill:blue;stroke:black;stroke-width:1.0"/>
<circle cx="390" cy="57" r="7.0" style="fill:red;stroke:black;stroke-width:1.0"/>
<circle cx="406" cy="75" r="7.0" style="fill:blue;stroke:black;stroke-width:1.0"/>
<circle cx="408" cy="74" r="7.0" style="fill:blue;stroke:black;stroke-width:1.0"/>
<circle cx="382" cy="73" r="7.0" style="fill:blue;stroke:black;stroke-width:1.0"/>
<circle cx="382" cy="74" r="7.0" style="fill:blue;stroke:black;stroke-width:1.0"/>
<circle cx="407" cy="76" r="7.0" style="fill:blue;stroke:black;stroke-width:1.0"/>
<circle cx="411" cy="79" r="7.0" style="fill:blue;stroke:black;stroke-width:1.0"/>
<circle cx="408" cy="80" r="7.0" style="fill:blue;stroke:black;stroke-width:1.0"/>
<circle cx="406" cy="75" r="7.0" style="fill:blue;stroke:black;stroke-width:1.0"/>
<circle cx="407" cy="78" r="7.0" style="fill:blue;stroke:black;stroke-width:1.0"/>
<circle cx="418" cy="52" r="7.0" style="fill:blue;stroke:black;stroke-width:1.0"/>
<circle cx="408" cy="92" r="7.0" style="fill:blue;stroke:black;stroke-width:1.0"/>
<circle cx="20" cy="20" r="7.0" style="fill:blue;stroke:black;stroke-width:1.0"/>
</svg>
