<svg width="440" height="340" xmlns="http://www.w3.org/2000/svg">
<path stroke-width="1" stroke="black" d="M 40 320 142 273"/>
<path stroke-width="1" stroke="black" d="M 381 144 228 126"/>
<path stroke-width="1" stroke="black" d="M 379 136 275 80"/>
<path stroke-width="1" stroke="black" d="M 379 136 381 144"/>
<path stroke-width="1" stroke="black" d="M 379 136 228 126"/>
<path stroke-width="1" stroke="black" d="M 360 120 292 84"/>
<path stroke-width="1" stroke="black" d="M 360 120 20 20"/>
<path stroke-width="1" stroke="black" d="M 294 125 84 218"/>
<path stroke-width="1" stroke="black" d="M 294 125 275 80"/>
<path stroke-width="1" stroke="black" d="M 294 125 381 144"/>
<path stroke-width="1" stroke="black" d="M 294 125 20 20"/>
<path stroke-width="1" stroke="black" d="M 297 139 84 218"/>
<path stroke-width="1" stroke="black" d="M 297 139 228 126"/>
<path stroke-width="1" stroke="black" d="M 297 139 20 20"/>
<path stroke-width="1" stroke="black" d="M 292 84 275 80"/>
<path stroke-width="1" stroke="black" d="M 292 84 360 120"/>
<path stroke-width="1" stroke="black" d="M 381 144 294 125"/>
<path stroke-width="1" stroke="black" d="M 381 144 379 136"/>
<path stroke-width="1" stroke="black" d="M 275 80 20 20"/>
<path stroke-width="1" stroke="black" d="M 275 80 94 38"/>
<path stroke-width="1" stroke="black" d="M 341 218 40 320"/>
<path stroke-width="1" stroke="black" d="M 341 218 142 273"/>
<path stroke-width="1" stroke="black" d="M 331 111 94 38"/>
<path stroke-width="1" stroke="black" d="M 331 111 20 20"/>
<path stroke-width="1" stroke="black" d="M 277 189 40 320"/>
<path stroke-width="1" stroke="black" d="M 277 189 142 273"/>
<path stroke-width="1" stroke="black" d="M 277 189 20 20"/>
<path stroke-width="1" stroke="black" d="M 292 84 94 38"/>
<path stroke-width="1" stroke="black" d="M 331 111 94 38"/>
<path stroke-width="1" stroke="black" d="M 341 218 40 320"/>
<path stroke-width="1" stroke="black" d="M 341 218 142 273"/>
<path stroke-width="1" stroke="black" d="M 331 111 94 38"/>
<path stroke-width="1" stroke="black" d="M 331 111 20 20"/>
<path stroke-width="1" stroke="black" d="M 275 80 379 136"/>
<path stroke-width="1" stroke="black" d="M 275 80 294 125"/>
<path stroke-width="1" stroke="black" d="M 275 80 292 84"/>
<path stroke-width="1" stroke="black" d="M 331 111 20 20"/>
<path stroke-width="1" stroke="black" d="M 420 189 356 224"/>
<path stroke-width="1" stroke="black" d="M 292 84 20 20"/>
<path stroke-width="1" stroke="black" d="M 247 128 186 144"/>
<path stroke-width="1" stroke="black" d="M 20 20 186 144"/>
<path stroke-width="1" stroke="black" d="M 20 20 329 147"/>
<path stroke-width="1" stroke="black" d="M 20 20 188 220"/>
<path stroke-width="1" stroke="black" d="M 20 20 331 111"/>
<path stroke-width="1" stroke="black" d="M 20 20 331 111"/>
<path stroke-width="1" stroke="black" d="M 20 20 331 111"/>
<path stroke-width="1" stroke="black" d="M 20 20 277 189"/>
<path stroke-width="1" stroke="black" d="M 20 20 331 111"/>
<path stroke-width="1" stroke="black" d="M 20 20 331 111"/>
<path stroke-width="1" stroke="black" d="M 20 20 275 80"/>
<path stroke-width="1" stroke="black" d="M 20 20 360 120"/>
<path stroke-width="1" stroke="black" d="M 20 20 294 125"/>
<path stroke-width="1" stroke="black" d="M 20 20 297 139"/>
<path stroke-width="1" stroke="black" d="M 20 20 292 84"/>
<path stroke-width="1" stroke="black" d="M 20 20 247 128"/>
<path stroke-width="1" stroke="black" d="M 94 38 20 20"/>
<path stroke-width="1" stroke="black" d="M 94 38 228 126"/>
<path stroke-width="1" stroke="black" d="M 94 38 247 128"/>
<path stroke-width="1" stroke="black" d="M 94 38 292 84"/>
<path stroke-width="1" stroke="black" d="M 247 128 94 38"/>
<path stroke-width="1" stroke="black" d="M 247 128 20 20"/>
<path stroke-width="1" stroke="black" d="M 228 126 40 320"/>
<path stroke-width="1" stroke="black" d="M 228 126 381 144"/>
<path stroke-width="1" stroke="black" d="M 228 126 379 136"/>
<path stroke-width="1" stroke="black" d="M 228 126 297 139"/>
<path stroke-width="1" stroke="black" d="M 228 126 94 38"/>
<path stroke-width="1" stroke="black" d="M 247 128 142 273"/>
<path stroke-width="1" stroke="black" d="M 228 126 20 20"/>
<path stroke-width="1" stroke="black" d="M 94 38 186 144"/>
<path stroke-width="1" stroke="black" d="M 94 38 331 111"/>
<path stroke-width="1" stroke="black" d="M 94 38 331 111"/>
<path stroke-width="1" stroke="black" d="M 94 38 331 111"/>
<path stroke-width="1" stroke="black" d="M 94 38 331 111"/>
<path stroke-width="1" stroke="black" d="M 94 38 331 111"/>
<path stroke-width="1" stroke="black" d="M 94 38 275 80"/>
<path stroke-width="1" stroke="black" d="M 94 38 84 218"/>
<path stroke-width="1" stroke="black" d="M 420 189 356 224"/>
<path stroke-width="1" stroke="black" d="M 331 111 20 20"/>
<path stroke-width="1" stroke="black" d="M 331 111 94 38"/>
<path stroke-width="1" stroke="black" d="M 142 273 341 218"/>
<path stroke-width="1" stroke="black" d="M 142 273 277 189"/>
<path stroke-width="1" stroke="black" d="M 142 273 341 218"/>
<path stroke-width="1" stroke="black" d="M 142 273 247 128"/>
<path stroke-width="1" stroke="black" d="M 84 218 40 320"/>
<path stroke-width="1" stroke="black" d="M 84 218 142 273"/>
<path stroke-width="1" stroke="black" d="M 84 218 205 266"/>
<path stroke-width="1" stroke="black" d="M 84 218 251 249"/>
<path stroke-width="1" stroke="black" d="M 84 218 186 144"/>
<path stroke-width="1" stroke="black" d="M 84 218 329 147"/>
<path stroke-width="1" stroke="black" d="M 84 218 188 220"/>
<path stroke-width="1" stroke="black" d="M 84 218 294 125"/>
<path stroke-width="1" stroke="black" d="M 84 218 297 139"/>
<path stroke-width="1" stroke="black" d="M 84 218 94 38"/>
<path stroke-width="1" stroke="black" d="M 205 266 40 320"/>
<path stroke-width="1" stroke="black" d="M 142 273 188 220"/>
<path stroke-width="1" stroke="black" d="M 142 273 251 249"/>
<path stroke-width="1" stroke="black" d="M 142 273 205 266"/>
<path stroke-width="1" stroke="black" d="M 142 273 84 218"/>
<path stroke-width="1" stroke="black" d="M 40 320 84 218"/>
<path stroke-width="1" stroke="black" d="M 40 320 205 266"/>
<path stroke-width="1" stroke="black" d="M 40 320 360 219"/>
<path stroke-width="1" stroke="black" d="M 40 320 356 224"/>
<path stroke-width="1" stroke="black" d="M 40 320 356 224"/>
<path stroke-width="1" stroke="black" d="M 40 320 251 249"/>
<path stroke-width="1" stroke="black" d="M 40 320 186 144"/>
<path stroke-width="1" stroke="black" d="M 205 266 142 273"/>
<path stroke-width="1" stroke="black" d="M 40 320 360 219"/>
<path stroke-width="1" stroke="black" d="M 40 320 350 217"/>
<path stroke-width="1" stroke="black" d="M 40 320 188 220"/>
<path stroke-width="1" stroke="black" d="M 40 320 341 218"/>
<path stroke-width="1" stroke="black" d="M 40 320 277 189"/>
<path stroke-width="1" stroke="black" d="M 40 320 341 218"/>
<path stroke-width="1" stroke="black" d="M 40 320 228 126"/>
<path stroke-width="1" stroke="black" d="M 142 273 40 320"/>
<path stroke-width="1" stroke="black" d="M 40 320 386 197"/>
<path stroke-width="1" stroke="black" d="M 205 266 84 218"/>
<path stroke-width="1" stroke="black" d="M 205 266 251 249"/>
<path stroke-width="1" stroke="black" d="M 205 266 350 217"/>
<path stroke-width="1" stroke="black" d="M 186 144 20 20"/>
<path stroke-width="1" stroke="black" d="M 329 147 84 218"/>
<path stroke-width="1" stroke="black" d="M 329 147 20 20"/>
<path stroke-width="1" stroke="black" d="M 360 219 40 320"/>
<path stroke-width="1" stroke="black" d="M 360 219 360 219"/>
<path stroke-width="1" stroke="black" d="M 360 219 356 224"/>
<path stroke-width="1" stroke="black" d="M 386 197 40 320"/>
<path stroke-width="1" stroke="black" d="M 186 144 94 38"/>
<path stroke-width="1" stroke="black" d="M 350 217 40 320"/>
<path stroke-width="1" stroke="black" d="M 188 220 40 320"/>
<path stroke-width="1" stroke="black" d="M 188 220 142 273"/>
<path stroke-width="1" stroke="black" d="M 188 220 84 218"/>
<path stroke-width="1" stroke="black" d="M 188 220 205 266"/>
<path stroke-width="1" stroke="black" d="M 188 220 20 20"/>
<path stroke-width="1" stroke="black" d="M 331 111 94 38"/>
<path stroke-width="1" stroke="black" d="M 331 111 20 20"/>
<path stroke-width="1" stroke="black" d="M 350 217 205 266"/>
<path stroke-width="1" stroke="black" d="M 20 20 228 126"/>
<path stroke-width="1" stroke="black" d="M 186 144 247 128"/>
<path stroke-width="1" stroke="black" d="M 186 144 40 320"/>
<path stroke-width="1" stroke="black" d="M 205 266 188 220"/>
<path stroke-width="1" stroke="black" d="M 360 219 40 320"/>
<path stroke-width="1" stroke="black" d="M 360 219 356 224"/>
<path stroke-width="1" stroke="black" d="M 360 219 360 219"/>
<path stroke-width="1" stroke="black" d="M 356 224 40 320"/>
<path stroke-width="1" stroke="black" d="M 356 224 356 224"/>
<path stroke-width="1" stroke="black" d="M 356 224 360 219"/>
<path stroke-width="1" stroke="black" d="M 186 144 84 218"/>
<path stroke-width="1" stroke="black" d="M 356 224 420 189"/>
<path stroke-width="1" stroke="black" d="M 356 224 360 219"/>
<path stroke-width="1" stroke="black" d="M 356 224 356 224"/>
<path stroke-width="1" stroke="black" d="M 356 224 420 189"/>
<path stroke-width="1" stroke="black" d="M 251 249 40 320"/>
<path stroke-width="1" stroke="black" d="M 251 249 142 273"/>
<path stroke-width="1" stroke="black" d="M 251 249 84 218"/>
<path stroke-width="1" stroke="black" d="M 251 249 205 266"/>
<path stroke-width="1" stroke="black" d="M 356 224 40 320"/>
<path stroke-width="1" stroke="black" d="M 20 20 94 38"/>
<circle cx="40" cy="320" r="7.0" style="fill:red;stroke:black;stroke-width:1.0"/>
<circle cx="142" cy="273" r="7.0" style="fill:red;stroke:black;stroke-width:1.0"/>
<circle cx="84" cy="218" r="7.0" style="fill:red;stroke:black;stroke-width:1.0"/>
<circle cx="205" cy="266" r="7.0" style="fill:red;stroke:black;stroke-width:1.0"/>
<circle cx="360" cy="219" r="7.0" style="fill:red;stroke:black;stroke-width:1.0"/>
<circle cx="356" cy="224" r="7.0" style="fill:red;stroke:black;stroke-width:1.0"/>
<circle cx="356" cy="224" r="7.0" style="fill:red;stroke:black;stroke-width:1.0"/>
<circle cx="251" cy="249" r="7.0" style="fill:red;stroke:black;stroke-width:1.0"/>
<circle cx="186" cy="144" r="7.0" style="fill:red;stroke:black;stroke-width:1.0"/>
<circle cx="329" cy="147" r="7.0" style="fill:blue;stroke:black;stroke-width:1.0"/>
<circle cx="360" cy="219" r="7.0" style="fill:red;stroke:black;stroke-width:1.0"/>
<circle cx="386" cy="197" r="7.0" style="fill:red;stroke:black;stroke-width:1.0"/>
<circle cx="350" cy="217" r="7.0" style="fill:red;stroke:black;stroke-width:1.0"/>
<circle cx="188" cy="220" r="7.0" style="fill:red;stroke:black;stroke-width:1.0"/>
<circle cx="331" cy="111" r="7.0" style="fill:blue;stroke:black;stroke-width:1.0"/>
<circle cx="331" cy="111" r="7.0" style="fill:blue;stroke:black;stroke-width:1.0"/>
<circle cx="420" cy="189" r="7.0" style="fill:red;stroke:black;stroke-width:1.0"/>
<circle cx="341" cy="218" r="7.0" style="fill:red;stroke:black;stroke-width:1.0"/>
<circle cx="331" cy="111" r="7.0" style="fill:blue;stroke:black;stroke-width:1.0"/>
<circle cx="277" cy="189" r="7.0" style="fill:red;stroke:black;stroke-width:1.0"/>
<circle cx="331" cy="111" r="7.0" style="fill:blue;stroke:black;stroke-width:1.0"/>
<circle cx="341" cy="218" r="7.0" style="fill:red;stroke:black;stroke-width:1.0"/>
<circle cx="331" cy="111" r="7.0" style="fill:blue;stroke:black;stroke-width:1.0"/>
<circle cx="275" cy="80" r="7.0" style="fill:blue;stroke:black;stroke-width:1.0"/>
<circle cx="381" cy="144" r="7.0" style="fill:blue;stroke:black;stroke-width:1.0"/>
<circle cx="379" cy="136" r="7.0" style="fill:blue;stroke:black;stroke-width:1.0"/>
<circle cx="360" cy="120" r="7.0" style="fill:blue;stroke:black;stroke-width:1.0"/>
<circle cx="294" cy="125" r="7.0" style="fill:blue;stroke:black;stroke-width:1.0"/>
<circle cx="297" cy="139" r="7.0" style="fill:blue;stroke:black;stroke-width:1.0"/>
<circle cx="292" cy="84" r="7.0" style="fill:blue;stroke:black;stroke-width:1.0"/>
<circle cx="247" cy="128" r="7.0" style="fill:blue;stroke:black;stroke-width:1.0"/>
<circle cx="228" cy="126" r="7.0" style="fill:blue;stroke:black;stroke-width:1.0"/>
<circle cx="94" cy="38" r="7.0" style="fill:blue;stroke:black;stroke-width:1.0"/>
<circle cx="20" cy="20" r="7.0" style="fill:blue;stroke:black;stroke-width:1.0"/>
</svg>
