<svg width="611.5114826000332" height="340" xmlns="http://www.w3.org/2000/svg">
<path stroke-width="0.5" stroke="gray" d="M 381 185 419 164"/>
<path stroke-width="9.6" stroke="gray" d="M 151 34 211 31"/>
<path stroke-width="0.5" stroke="gray" d="M 151 34 383 140"/>
<path stroke-width="4.4" stroke="gray" d="M 151 34 52 211"/>
<path stroke-width="4.4" stroke="gray" d="M 151 34 276 88"/>
<path stroke-width="3.75" stroke="gray" d="M 151 34 261 219"/>
<path stroke-width="2.45" stroke="gray" d="M 151 34 20 320"/>
<path stroke-width="1.8" stroke="gray" d="M 383 140 418 162"/>
<path stroke-width="0.5" stroke="gray" d="M 383 140 305 82"/>
<path stroke-width="0.5" stroke="gray" d="M 383 140 225 45"/>
<path stroke-width="1.15" stroke="gray" d="M 383 140 318 88"/>
<path stroke-width="1.15" stroke="gray" d="M 383 140 172 20"/>
<path stroke-width="0.5" stroke="gray" d="M 383 140 312 84"/>
<path stroke-width="1.15" stroke="gray" d="M 383 140 211 31"/>
<path stroke-width="0.5" stroke="gray" d="M 383 140 151 34"/>
<path stroke-width="0.5" stroke="gray" d="M 383 140 52 211"/>
<path stroke-width="0.5" stroke="gray" d="M 383 140 276 88"/>
<path stroke-width="0.5" stroke="gray" d="M 383 140 376 173"/>
<path stroke-width="0.5" stroke="gray" d="M 412 165 52 211"/>
<path stroke-width="0.5" stroke="gray" d="M 412 165 314 194"/>
<path stroke-width="1.15" stroke="gray" d="M 52 211 305 82"/>
<path stroke-width="3.1" stroke="gray" d="M 52 211 225 45"/>
<path stroke-width="0.5" stroke="gray" d="M 52 211 318 88"/>
<path stroke-width="5.7" stroke="gray" d="M 52 211 172 20"/>
<path stroke-width="0.5" stroke="gray" d="M 52 211 312 84"/>
<path stroke-width="3.1" stroke="gray" d="M 52 211 211 31"/>
<path stroke-width="4.4" stroke="gray" d="M 52 211 151 34"/>
<path stroke-width="0.5" stroke="gray" d="M 52 211 383 140"/>
<path stroke-width="2.45" stroke="gray" d="M 151 34 366 122"/>
<path stroke-width="3.75" stroke="gray" d="M 151 34 312 84"/>
<path stroke-width="10.9" stroke="gray" d="M 151 34 172 20"/>
<path stroke-width="2.45" stroke="gray" d="M 151 34 318 88"/>
<path stroke-width="0.5" stroke="gray" d="M 312 84 383 140"/>
<path stroke-width="0.5" stroke="gray" d="M 312 84 52 211"/>
<path stroke-width="1.15" stroke="gray" d="M 312 84 276 88"/>
<path stroke-width="0.5" stroke="gray" d="M 366 122 377 130"/>
<path stroke-width="1.15" stroke="gray" d="M 366 122 305 82"/>
<path stroke-width="1.15" stroke="gray" d="M 366 122 225 45"/>
<path stroke-width="1.15" stroke="gray" d="M 366 122 318 88"/>
<path stroke-width="1.8" stroke="gray" d="M 366 122 172 20"/>
<path stroke-width="1.15" stroke="gray" d="M 366 122 312 84"/>
<path stroke-width="1.15" stroke="gray" d="M 366 122 211 31"/>
<path stroke-width="2.45" stroke="gray" d="M 366 122 151 34"/>
<path stroke-width="0.5" stroke="gray" d="M 366 122 276 88"/>
<path stroke-width="0.5" stroke="gray" d="M 211 31 377 130"/>
<path stroke-width="0.5" stroke="gray" d="M 52 211 412 165"/>
<path stroke-width="3.1" stroke="gray" d="M 211 31 305 82"/>
<path stroke-width="3.1" stroke="gray" d="M 211 31 318 88"/>
<path stroke-width="8.3" stroke="gray" d="M 211 31 172 20"/>
<path stroke-width="3.1" stroke="gray" d="M 211 31 312 84"/>
<path stroke-width="1.15" stroke="gray" d="M 211 31 366 122"/>
<path stroke-width="9.6" stroke="gray" d="M 211 31 151 34"/>
<path stroke-width="1.15" stroke="gray" d="M 211 31 383 140"/>
<path stroke-width="3.1" stroke="gray" d="M 211 31 52 211"/>
<path stroke-width="3.75" stroke="gray" d="M 211 31 276 88"/>
<path stroke-width="0.5" stroke="gray" d="M 151 34 402 150"/>
<path stroke-width="0.5" stroke="gray" d="M 151 34 392 175"/>
<path stroke-width="1.8" stroke="gray" d="M 151 34 377 130"/>
<path stroke-width="3.1" stroke="gray" d="M 151 34 305 82"/>
<path stroke-width="6.35" stroke="gray" d="M 151 34 225 45"/>
<path stroke-width="5.7" stroke="gray" d="M 211 31 225 45"/>
<path stroke-width="0.5" stroke="gray" d="M 52 211 405 169"/>
<path stroke-width="3.75" stroke="gray" d="M 52 211 348 187"/>
<path stroke-width="7.65" stroke="gray" d="M 52 211 314 194"/>
<path stroke-width="1.15" stroke="gray" d="M 276 88 415 160"/>
<path stroke-width="1.15" stroke="gray" d="M 276 88 415 160"/>
<path stroke-width="0.5" stroke="gray" d="M 276 88 403 170"/>
<path stroke-width="0.5" stroke="gray" d="M 276 88 386 180"/>
<path stroke-width="0.5" stroke="gray" d="M 276 88 390 178"/>
<path stroke-width="0.5" stroke="gray" d="M 276 88 377 130"/>
<path stroke-width="1.8" stroke="gray" d="M 276 88 305 82"/>
<path stroke-width="3.1" stroke="gray" d="M 276 88 225 45"/>
<path stroke-width="3.1" stroke="gray" d="M 276 88 318 88"/>
<path stroke-width="4.4" stroke="gray" d="M 276 88 172 20"/>
<path stroke-width="1.15" stroke="gray" d="M 276 88 312 84"/>
<path stroke-width="0.5" stroke="gray" d="M 276 88 366 122"/>
<path stroke-width="3.75" stroke="gray" d="M 276 88 211 31"/>
<path stroke-width="0.5" stroke="gray" d="M 276 88 407 169"/>
<path stroke-width="4.4" stroke="gray" d="M 276 88 151 34"/>
<path stroke-width="2.45" stroke="gray" d="M 276 88 52 211"/>
<path stroke-width="1.15" stroke="gray" d="M 276 88 415 160"/>
<path stroke-width="0.5" stroke="gray" d="M 276 88 261 219"/>
<path stroke-width="0.5" stroke="gray" d="M 276 88 284 232"/>
<path stroke-width="0.5" stroke="gray" d="M 276 88 20 320"/>
<path stroke-width="1.15" stroke="gray" d="M 415 160 276 88"/>
<path stroke-width="0.5" stroke="gray" d="M 415 160 420 163"/>
<path stroke-width="0.5" stroke="gray" d="M 420 163 415 160"/>
<path stroke-width="1.15" stroke="gray" d="M 418 165 367 191"/>
<path stroke-width="1.8" stroke="gray" d="M 411 168 367 191"/>
<path stroke-width="0.5" stroke="gray" d="M 411 168 20 320"/>
<path stroke-width="0.5" stroke="gray" d="M 394 177 261 219"/>
<path stroke-width="0.5" stroke="gray" d="M 394 177 91 294"/>
<path stroke-width="0.5" stroke="gray" d="M 276 88 383 140"/>
<path stroke-width="3.75" stroke="gray" d="M 312 84 151 34"/>
<path stroke-width="0.5" stroke="gray" d="M 276 88 402 150"/>
<path stroke-width="1.8" stroke="gray" d="M 314 194 91 294"/>
<path stroke-width="2.45" stroke="gray" d="M 52 211 276 88"/>
<path stroke-width="3.1" stroke="gray" d="M 52 211 376 173"/>
<path stroke-width="0.5" stroke="gray" d="M 52 211 412 166"/>
<path stroke-width="13.5" stroke="gray" d="M 52 211 91 294"/>
<path stroke-width="1.15" stroke="gray" d="M 52 211 284 232"/>
<path stroke-width="0.5" stroke="gray" d="M 52 211 403 172"/>
<path stroke-width="12.2" stroke="gray" d="M 52 211 20 320"/>
<path stroke-width="0.5" stroke="gray" d="M 405 169 52 211"/>
<path stroke-width="1.15" stroke="gray" d="M 405 169 348 187"/>
<path stroke-width="0.5" stroke="gray" d="M 405 169 314 194"/>
<path stroke-width="0.5" stroke="gray" d="M 405 169 91 294"/>
<path stroke-width="0.5" stroke="gray" d="M 418 164 348 187"/>
<path stroke-width="0.5" stroke="gray" d="M 418 164 348 187"/>
<path stroke-width="1.15" stroke="gray" d="M 314 194 20 320"/>
<path stroke-width="0.5" stroke="gray" d="M 418 164 412 166"/>
<path stroke-width="1.15" stroke="gray" d="M 348 187 405 169"/>
<path stroke-width="0.5" stroke="gray" d="M 348 187 418 164"/>
<path stroke-width="0.5" stroke="gray" d="M 348 187 418 164"/>
<path stroke-width="5.7" stroke="gray" d="M 348 187 314 194"/>
<path stroke-width="1.15" stroke="gray" d="M 348 187 91 294"/>
<path stroke-width="1.15" stroke="gray" d="M 348 187 20 320"/>
<path stroke-width="0.5" stroke="gray" d="M 416 165 314 194"/>
<path stroke-width="0.5" stroke="gray" d="M 416 165 321 219"/>
<path stroke-width="0.5" stroke="gray" d="M 314 194 412 165"/>
<path stroke-width="7.65" stroke="gray" d="M 314 194 52 211"/>
<path stroke-width="0.5" stroke="gray" d="M 314 194 405 169"/>
<path stroke-width="5.7" stroke="gray" d="M 314 194 348 187"/>
<path stroke-width="0.5" stroke="gray" d="M 314 194 416 165"/>
<path stroke-width="3.75" stroke="gray" d="M 348 187 52 211"/>
<path stroke-width="1.8" stroke="gray" d="M 394 177 20 320"/>
<path stroke-width="3.1" stroke="gray" d="M 312 84 211 31"/>
<path stroke-width="3.75" stroke="gray" d="M 312 84 172 20"/>
<path stroke-width="0.5" stroke="gray" d="M 392 175 151 34"/>
<path stroke-width="0.5" stroke="gray" d="M 392 175 376 173"/>
<path stroke-width="0.5" stroke="gray" d="M 392 175 261 219"/>
<path stroke-width="2.45" stroke="gray" d="M 392 175 284 232"/>
<path stroke-width="0.5" stroke="gray" d="M 392 175 321 219"/>
<path stroke-width="0.5" stroke="gray" d="M 392 175 20 320"/>
<path stroke-width="1.8" stroke="gray" d="M 386 180 407 169"/>
<path stroke-width="1.15" stroke="gray" d="M 386 180 403 170"/>
<path stroke-width="2.45" stroke="gray" d="M 386 180 392 175"/>
<path stroke-width="3.75" stroke="gray" d="M 386 180 390 178"/>
<path stroke-width="0.5" stroke="gray" d="M 386 180 276 88"/>
<path stroke-width="0.5" stroke="gray" d="M 386 180 376 173"/>
<path stroke-width="1.15" stroke="gray" d="M 386 180 261 219"/>
<path stroke-width="3.75" stroke="gray" d="M 386 180 284 232"/>
<path stroke-width="0.5" stroke="gray" d="M 386 180 321 219"/>
<path stroke-width="0.5" stroke="gray" d="M 386 180 20 320"/>
<path stroke-width="1.8" stroke="gray" d="M 390 178 407 169"/>
<path stroke-width="1.15" stroke="gray" d="M 390 178 403 170"/>
<path stroke-width="2.45" stroke="gray" d="M 390 178 392 175"/>
<path stroke-width="3.75" stroke="gray" d="M 390 178 386 180"/>
<path stroke-width="0.5" stroke="gray" d="M 390 178 276 88"/>
<path stroke-width="0.5" stroke="gray" d="M 390 178 376 173"/>
<path stroke-width="0.5" stroke="gray" d="M 390 178 261 219"/>
<path stroke-width="3.1" stroke="gray" d="M 390 178 284 232"/>
<path stroke-width="0.5" stroke="gray" d="M 390 178 321 219"/>
<path stroke-width="0.5" stroke="gray" d="M 390 178 20 320"/>
<path stroke-width="1.8" stroke="gray" d="M 418 162 383 140"/>
<path stroke-width="2.45" stroke="gray" d="M 392 175 390 178"/>
<path stroke-width="2.45" stroke="gray" d="M 392 175 386 180"/>
<path stroke-width="1.15" stroke="gray" d="M 392 175 403 170"/>
<path stroke-width="0.5" stroke="gray" d="M 392 175 407 169"/>
<path stroke-width="0.5" stroke="gray" d="M 402 150 225 45"/>
<path stroke-width="0.5" stroke="gray" d="M 402 150 318 88"/>
<path stroke-width="0.5" stroke="gray" d="M 402 150 172 20"/>
<path stroke-width="0.5" stroke="gray" d="M 402 150 151 34"/>
<path stroke-width="0.5" stroke="gray" d="M 402 150 276 88"/>
<path stroke-width="0.5" stroke="gray" d="M 407 169 403 170"/>
<path stroke-width="0.5" stroke="gray" d="M 407 169 392 175"/>
<path stroke-width="1.8" stroke="gray" d="M 407 169 386 180"/>
<path stroke-width="1.8" stroke="gray" d="M 407 169 390 178"/>
<path stroke-width="0.5" stroke="gray" d="M 407 169 276 88"/>
<path stroke-width="0.5" stroke="gray" d="M 407 169 376 173"/>
<path stroke-width="1.8" stroke="gray" d="M 407 169 284 232"/>
<path stroke-width="1.8" stroke="gray" d="M 415 160 415 160"/>
<path stroke-width="0.5" stroke="gray" d="M 377 130 402 150"/>
<path stroke-width="1.15" stroke="gray" d="M 415 160 276 88"/>
<path stroke-width="1.15" stroke="gray" d="M 415 160 276 88"/>
<path stroke-width="0.5" stroke="gray" d="M 401 173 261 219"/>
<path stroke-width="1.15" stroke="gray" d="M 401 173 91 294"/>
<path stroke-width="0.5" stroke="gray" d="M 401 173 20 320"/>
<path stroke-width="0.5" stroke="gray" d="M 403 170 407 169"/>
<path stroke-width="1.15" stroke="gray" d="M 403 170 392 175"/>
<path stroke-width="1.15" stroke="gray" d="M 403 170 386 180"/>
<path stroke-width="1.15" stroke="gray" d="M 403 170 390 178"/>
<path stroke-width="0.5" stroke="gray" d="M 403 170 276 88"/>
<path stroke-width="0.5" stroke="gray" d="M 403 170 376 173"/>
<path stroke-width="0.5" stroke="gray" d="M 403 170 261 219"/>
<path stroke-width="0.5" stroke="gray" d="M 403 170 284 232"/>
<path stroke-width="0.5" stroke="gray" d="M 403 170 20 320"/>
<path stroke-width="1.8" stroke="gray" d="M 415 160 415 160"/>
<path stroke-width="1.15" stroke="gray" d="M 377 130 305 82"/>
<path stroke-width="1.8" stroke="gray" d="M 377 130 225 45"/>
<path stroke-width="0.5" stroke="gray" d="M 377 130 318 88"/>
<path stroke-width="0.5" stroke="gray" d="M 318 88 377 130"/>
<path stroke-width="3.1" stroke="gray" d="M 318 88 305 82"/>
<path stroke-width="2.45" stroke="gray" d="M 318 88 225 45"/>
<path stroke-width="3.75" stroke="gray" d="M 318 88 172 20"/>
<path stroke-width="1.8" stroke="gray" d="M 318 88 312 84"/>
<path stroke-width="1.15" stroke="gray" d="M 318 88 366 122"/>
<path stroke-width="3.1" stroke="gray" d="M 318 88 211 31"/>
<path stroke-width="2.45" stroke="gray" d="M 318 88 151 34"/>
<path stroke-width="1.15" stroke="gray" d="M 318 88 383 140"/>
<path stroke-width="0.5" stroke="gray" d="M 318 88 52 211"/>
<path stroke-width="3.1" stroke="gray" d="M 318 88 276 88"/>
<path stroke-width="0.5" stroke="gray" d="M 172 20 402 150"/>
<path stroke-width="1.15" stroke="gray" d="M 172 20 377 130"/>
<path stroke-width="0.5" stroke="gray" d="M 318 88 402 150"/>
<path stroke-width="3.1" stroke="gray" d="M 172 20 305 82"/>
<path stroke-width="3.75" stroke="gray" d="M 172 20 318 88"/>
<path stroke-width="3.75" stroke="gray" d="M 172 20 312 84"/>
<path stroke-width="1.8" stroke="gray" d="M 172 20 366 122"/>
<path stroke-width="8.3" stroke="gray" d="M 172 20 211 31"/>
<path stroke-width="10.9" stroke="gray" d="M 172 20 151 34"/>
<path stroke-width="1.15" stroke="gray" d="M 172 20 383 140"/>
<path stroke-width="5.7" stroke="gray" d="M 172 20 52 211"/>
<path stroke-width="4.4" stroke="gray" d="M 172 20 276 88"/>
<path stroke-width="0.5" stroke="gray" d="M 172 20 376 173"/>
<path stroke-width="0.5" stroke="gray" d="M 312 84 377 130"/>
<path stroke-width="3.1" stroke="gray" d="M 312 84 305 82"/>
<path stroke-width="3.75" stroke="gray" d="M 312 84 225 45"/>
<path stroke-width="1.8" stroke="gray" d="M 312 84 318 88"/>
<path stroke-width="7.65" stroke="gray" d="M 172 20 225 45"/>
<path stroke-width="1.15" stroke="gray" d="M 312 84 366 122"/>
<path stroke-width="0.5" stroke="gray" d="M 225 45 20 320"/>
<path stroke-width="3.1" stroke="gray" d="M 225 45 52 211"/>
<path stroke-width="1.15" stroke="gray" d="M 377 130 172 20"/>
<path stroke-width="0.5" stroke="gray" d="M 377 130 312 84"/>
<path stroke-width="0.5" stroke="gray" d="M 377 130 366 122"/>
<path stroke-width="0.5" stroke="gray" d="M 377 130 211 31"/>
<path stroke-width="1.8" stroke="gray" d="M 377 130 151 34"/>
<path stroke-width="0.5" stroke="gray" d="M 377 130 276 88"/>
<path stroke-width="0.5" stroke="gray" d="M 305 82 402 150"/>
<path stroke-width="1.15" stroke="gray" d="M 305 82 377 130"/>
<path stroke-width="4.4" stroke="gray" d="M 305 82 225 45"/>
<path stroke-width="3.1" stroke="gray" d="M 305 82 318 88"/>
<path stroke-width="3.1" stroke="gray" d="M 305 82 172 20"/>
<path stroke-width="3.1" stroke="gray" d="M 305 82 312 84"/>
<path stroke-width="1.15" stroke="gray" d="M 305 82 366 122"/>
<path stroke-width="3.1" stroke="gray" d="M 225 45 276 88"/>
<path stroke-width="3.1" stroke="gray" d="M 305 82 211 31"/>
<path stroke-width="0.5" stroke="gray" d="M 305 82 383 140"/>
<path stroke-width="1.15" stroke="gray" d="M 305 82 52 211"/>
<path stroke-width="1.8" stroke="gray" d="M 305 82 276 88"/>
<path stroke-width="0.5" stroke="gray" d="M 225 45 402 150"/>
<path stroke-width="1.8" stroke="gray" d="M 225 45 377 130"/>
<path stroke-width="4.4" stroke="gray" d="M 225 45 305 82"/>
<path stroke-width="2.45" stroke="gray" d="M 225 45 318 88"/>
<path stroke-width="7.65" stroke="gray" d="M 225 45 172 20"/>
<path stroke-width="3.75" stroke="gray" d="M 225 45 312 84"/>
<path stroke-width="1.15" stroke="gray" d="M 225 45 366 122"/>
<path stroke-width="5.7" stroke="gray" d="M 225 45 211 31"/>
<path stroke-width="6.35" stroke="gray" d="M 225 45 151 34"/>
<path stroke-width="0.5" stroke="gray" d="M 225 45 383 140"/>
<path stroke-width="3.1" stroke="gray" d="M 305 82 151 34"/>
<path stroke-width="1.15" stroke="gray" d="M 413 168 376 173"/>
<path stroke-width="1.15" stroke="gray" d="M 413 168 284 232"/>
<path stroke-width="0.5" stroke="gray" d="M 413 168 321 219"/>
<path stroke-width="2.45" stroke="gray" d="M 413 169 412 170"/>
<path stroke-width="2.45" stroke="gray" d="M 413 169 413 169"/>
<path stroke-width="2.45" stroke="gray" d="M 413 169 413 169"/>
<path stroke-width="2.45" stroke="gray" d="M 413 169 403 172"/>
<path stroke-width="1.8" stroke="gray" d="M 413 169 343 206"/>
<path stroke-width="1.8" stroke="gray" d="M 413 169 412 169"/>
<path stroke-width="1.8" stroke="gray" d="M 413 169 412 170"/>
<path stroke-width="1.8" stroke="gray" d="M 413 169 412 170"/>
<path stroke-width="2.45" stroke="gray" d="M 413 169 413 169"/>
<path stroke-width="2.45" stroke="gray" d="M 413 169 413 169"/>
<path stroke-width="2.45" stroke="gray" d="M 413 169 403 172"/>
<path stroke-width="1.8" stroke="gray" d="M 413 169 343 206"/>
<path stroke-width="1.8" stroke="gray" d="M 413 169 412 169"/>
<path stroke-width="1.8" stroke="gray" d="M 413 169 412 170"/>
<path stroke-width="1.8" stroke="gray" d="M 413 169 412 170"/>
<path stroke-width="2.45" stroke="gray" d="M 413 169 413 169"/>
<path stroke-width="2.45" stroke="gray" d="M 413 169 413 169"/>
<path stroke-width="2.45" stroke="gray" d="M 413 169 403 172"/>
<path stroke-width="0.5" stroke="gray" d="M 403 172 52 211"/>
<path stroke-width="0.5" stroke="gray" d="M 403 172 91 294"/>
<path stroke-width="1.8" stroke="gray" d="M 403 172 343 206"/>
<path stroke-width="1.8" stroke="gray" d="M 403 172 412 169"/>
<path stroke-width="1.8" stroke="gray" d="M 403 172 412 170"/>
<path stroke-width="1.8" stroke="gray" d="M 403 172 412 170"/>
<path stroke-width="2.45" stroke="gray" d="M 403 172 413 169"/>
<path stroke-width="2.45" stroke="gray" d="M 403 172 413 169"/>
<path stroke-width="2.45" stroke="gray" d="M 403 172 413 169"/>
<path stroke-width="1.8" stroke="gray" d="M 413 169 412 170"/>
<path stroke-width="1.8" stroke="gray" d="M 413 169 412 169"/>
<path stroke-width="1.8" stroke="gray" d="M 413 169 343 206"/>
<path stroke-width="1.8" stroke="gray" d="M 412 170 403 172"/>
<path stroke-width="2.45" stroke="gray" d="M 343 206 412 170"/>
<path stroke-width="2.45" stroke="gray" d="M 343 206 412 170"/>
<path stroke-width="1.8" stroke="gray" d="M 343 206 413 169"/>
<path stroke-width="1.8" stroke="gray" d="M 343 206 413 169"/>
<path stroke-width="1.8" stroke="gray" d="M 343 206 413 169"/>
<path stroke-width="1.8" stroke="gray" d="M 343 206 403 172"/>
<path stroke-width="1.15" stroke="gray" d="M 343 206 411 168"/>
<path stroke-width="5.7" stroke="gray" d="M 343 206 20 320"/>
<path stroke-width="2.45" stroke="gray" d="M 412 169 343 206"/>
<path stroke-width="2.45" stroke="gray" d="M 412 169 412 170"/>
<path stroke-width="2.45" stroke="gray" d="M 412 169 412 170"/>
<path stroke-width="1.8" stroke="gray" d="M 412 169 413 169"/>
<path stroke-width="1.8" stroke="gray" d="M 412 169 413 169"/>
<path stroke-width="0.5" stroke="gray" d="M 413 167 20 320"/>
<path stroke-width="1.8" stroke="gray" d="M 412 169 413 169"/>
<path stroke-width="2.45" stroke="gray" d="M 412 170 343 206"/>
<path stroke-width="2.45" stroke="gray" d="M 412 170 412 169"/>
<path stroke-width="3.1" stroke="gray" d="M 412 170 412 170"/>
<path stroke-width="1.8" stroke="gray" d="M 412 170 413 169"/>
<path stroke-width="1.8" stroke="gray" d="M 412 170 413 169"/>
<path stroke-width="1.8" stroke="gray" d="M 412 170 413 169"/>
<path stroke-width="1.8" stroke="gray" d="M 412 170 403 172"/>
<path stroke-width="2.45" stroke="gray" d="M 412 170 343 206"/>
<path stroke-width="2.45" stroke="gray" d="M 412 170 412 169"/>
<path stroke-width="3.1" stroke="gray" d="M 412 170 412 170"/>
<path stroke-width="2.45" stroke="gray" d="M 412 170 413 169"/>
<path stroke-width="1.8" stroke="gray" d="M 412 170 413 169"/>
<path stroke-width="1.8" stroke="gray" d="M 412 170 413 169"/>
<path stroke-width="1.8" stroke="gray" d="M 412 169 403 172"/>
<path stroke-width="0.5" stroke="gray" d="M 413 167 20 320"/>
<path stroke-width="0.5" stroke="gray" d="M 413 167 20 320"/>
<path stroke-width="1.15" stroke="gray" d="M 411 168 343 206"/>
<path stroke-width="0.5" stroke="gray" d="M 20 320 411 168"/>
<path stroke-width="0.5" stroke="gray" d="M 20 320 413 167"/>
<path stroke-width="1.8" stroke="gray" d="M 20 320 393 179"/>
<path stroke-width="1.8" stroke="gray" d="M 20 320 394 179"/>
<path stroke-width="3.1" stroke="gray" d="M 20 320 381 185"/>
<path stroke-width="0.5" stroke="gray" d="M 413 167 20 320"/>
<path stroke-width="0.5" stroke="gray" d="M 419 164 381 185"/>
<path stroke-width="1.15" stroke="gray" d="M 418 164 381 185"/>
<path stroke-width="0.5" stroke="gray" d="M 419 164 381 185"/>
<path stroke-width="0.5" stroke="gray" d="M 419 164 381 185"/>
<path stroke-width="0.5" stroke="gray" d="M 419 164 381 185"/>
<path stroke-width="0.5" stroke="gray" d="M 419 164 381 185"/>
<path stroke-width="1.8" stroke="gray" d="M 393 179 20 320"/>
<path stroke-width="0.5" stroke="gray" d="M 20 320 413 167"/>
<path stroke-width="3.75" stroke="gray" d="M 393 179 394 179"/>
<path stroke-width="1.8" stroke="gray" d="M 394 179 20 320"/>
<path stroke-width="3.75" stroke="gray" d="M 394 179 393 179"/>
<path stroke-width="5.05" stroke="gray" d="M 394 179 381 185"/>
<path stroke-width="0.5" stroke="gray" d="M 419 164 381 185"/>
<path stroke-width="3.1" stroke="gray" d="M 381 185 20 320"/>
<path stroke-width="0.5" stroke="gray" d="M 381 185 419 164"/>
<path stroke-width="1.15" stroke="gray" d="M 381 185 418 164"/>
<path stroke-width="0.5" stroke="gray" d="M 381 185 419 164"/>
<path stroke-width="0.5" stroke="gray" d="M 381 185 419 164"/>
<path stroke-width="0.5" stroke="gray" d="M 381 185 419 164"/>
<path stroke-width="0.5" stroke="gray" d="M 381 185 419 164"/>
<path stroke-width="6.35" stroke="gray" d="M 381 185 393 179"/>
<path stroke-width="5.05" stroke="gray" d="M 381 185 394 179"/>
<path stroke-width="6.35" stroke="gray" d="M 393 179 381 185"/>
<path stroke-width="2.45" stroke="gray" d="M 343 206 412 169"/>
<path stroke-width="0.5" stroke="gray" d="M 20 320 413 167"/>
<path stroke-width="5.7" stroke="gray" d="M 20 320 343 206"/>
<path stroke-width="0.5" stroke="gray" d="M 411 168 20 320"/>
<path stroke-width="0.5" stroke="gray" d="M 20 320 401 173"/>
<path stroke-width="0.5" stroke="gray" d="M 20 320 403 170"/>
<path stroke-width="0.5" stroke="gray" d="M 20 320 392 175"/>
<path stroke-width="0.5" stroke="gray" d="M 20 320 386 180"/>
<path stroke-width="0.5" stroke="gray" d="M 20 320 390 178"/>
<path stroke-width="0.5" stroke="gray" d="M 20 320 225 45"/>
<path stroke-width="2.45" stroke="gray" d="M 20 320 151 34"/>
<path stroke-width="12.2" stroke="gray" d="M 20 320 52 211"/>
<path stroke-width="1.15" stroke="gray" d="M 20 320 348 187"/>
<path stroke-width="1.15" stroke="gray" d="M 20 320 314 194"/>
<path stroke-width="0.5" stroke="gray" d="M 20 320 276 88"/>
<path stroke-width="0.5" stroke="gray" d="M 20 320 411 168"/>
<path stroke-width="0.5" stroke="gray" d="M 20 320 413 167"/>
<path stroke-width="1.8" stroke="gray" d="M 20 320 394 177"/>
<path stroke-width="1.15" stroke="gray" d="M 20 320 405 172"/>
<path stroke-width="1.15" stroke="gray" d="M 20 320 405 172"/>
<path stroke-width="1.8" stroke="gray" d="M 20 320 398 175"/>
<path stroke-width="1.8" stroke="gray" d="M 20 320 398 175"/>
<path stroke-width="1.15" stroke="gray" d="M 20 320 405 171"/>
<path stroke-width="0.5" stroke="gray" d="M 20 320 413 167"/>
<path stroke-width="1.8" stroke="gray" d="M 20 320 396 176"/>
<path stroke-width="1.15" stroke="gray" d="M 20 320 402 173"/>
<path stroke-width="5.05" stroke="gray" d="M 20 320 367 191"/>
<path stroke-width="10.9" stroke="gray" d="M 20 320 261 219"/>
<path stroke-width="20.0" stroke="gray" d="M 20 320 91 294"/>
<path stroke-width="7.65" stroke="gray" d="M 20 320 284 232"/>
<path stroke-width="4.4" stroke="gray" d="M 20 320 321 219"/>
<path stroke-width="1.15" stroke="gray" d="M 20 320 405 172"/>
<path stroke-width="1.15" stroke="gray" d="M 343 206 321 219"/>
<path stroke-width="0.5" stroke="gray" d="M 343 206 284 232"/>
<path stroke-width="3.1" stroke="gray" d="M 343 206 261 219"/>
<path stroke-width="1.15" stroke="gray" d="M 405 172 20 320"/>
<path stroke-width="1.15" stroke="gray" d="M 398 175 405 172"/>
<path stroke-width="1.15" stroke="gray" d="M 398 175 405 172"/>
<path stroke-width="1.15" stroke="gray" d="M 398 175 405 172"/>
<path stroke-width="1.8" stroke="gray" d="M 398 175 398 175"/>
<path stroke-width="1.15" stroke="gray" d="M 398 175 402 173"/>
<path stroke-width="1.8" stroke="gray" d="M 398 175 20 320"/>
<path stroke-width="1.15" stroke="gray" d="M 398 175 405 172"/>
<path stroke-width="1.15" stroke="gray" d="M 398 175 405 172"/>
<path stroke-width="1.15" stroke="gray" d="M 398 175 405 172"/>
<path stroke-width="1.8" stroke="gray" d="M 398 175 398 175"/>
<path stroke-width="1.15" stroke="gray" d="M 398 175 402 173"/>
<path stroke-width="1.8" stroke="gray" d="M 398 175 20 320"/>
<path stroke-width="0.5" stroke="gray" d="M 405 172 402 173"/>
<path stroke-width="0.5" stroke="gray" d="M 405 171 261 219"/>
<path stroke-width="0.5" stroke="gray" d="M 413 167 20 320"/>
<path stroke-width="1.15" stroke="gray" d="M 396 176 418 165"/>
<path stroke-width="0.5" stroke="gray" d="M 396 176 261 219"/>
<path stroke-width="1.15" stroke="gray" d="M 396 176 343 206"/>
<path stroke-width="1.8" stroke="gray" d="M 396 176 20 320"/>
<path stroke-width="1.15" stroke="gray" d="M 418 165 396 176"/>
<path stroke-width="0.5" stroke="gray" d="M 418 165 343 206"/>
<path stroke-width="0.5" stroke="gray" d="M 402 173 405 172"/>
<path stroke-width="0.5" stroke="gray" d="M 402 173 405 172"/>
<path stroke-width="0.5" stroke="gray" d="M 402 173 405 172"/>
<path stroke-width="1.15" stroke="gray" d="M 402 173 398 175"/>
<path stroke-width="1.15" stroke="gray" d="M 402 173 398 175"/>
<path stroke-width="0.5" stroke="gray" d="M 402 173 261 219"/>
<path stroke-width="1.15" stroke="gray" d="M 405 171 20 320"/>
<path stroke-width="0.5" stroke="gray" d="M 402 173 343 206"/>
<path stroke-width="1.15" stroke="gray" d="M 405 172 398 175"/>
<path stroke-width="1.15" stroke="gray" d="M 405 172 405 172"/>
<path stroke-width="0.5" stroke="gray" d="M 376 173 407 169"/>
<path stroke-width="0.5" stroke="gray" d="M 376 173 403 170"/>
<path stroke-width="0.5" stroke="gray" d="M 376 173 392 175"/>
<path stroke-width="0.5" stroke="gray" d="M 376 173 386 180"/>
<path stroke-width="0.5" stroke="gray" d="M 376 173 390 178"/>
<path stroke-width="0.5" stroke="gray" d="M 376 173 172 20"/>
<path stroke-width="0.5" stroke="gray" d="M 376 173 383 140"/>
<path stroke-width="3.1" stroke="gray" d="M 376 173 52 211"/>
<path stroke-width="1.15" stroke="gray" d="M 376 173 413 168"/>
<path stroke-width="1.8" stroke="gray" d="M 376 173 284 232"/>
<path stroke-width="1.15" stroke="gray" d="M 376 173 321 219"/>
<path stroke-width="0.5" stroke="gray" d="M 417 165 284 232"/>
<path stroke-width="0.5" stroke="gray" d="M 412 166 52 211"/>
<path stroke-width="1.15" stroke="gray" d="M 405 172 398 175"/>
<path stroke-width="0.5" stroke="gray" d="M 412 166 418 164"/>
<path stroke-width="1.15" stroke="gray" d="M 405 172 405 172"/>
<path stroke-width="1.15" stroke="gray" d="M 405 172 405 172"/>
<path stroke-width="1.15" stroke="gray" d="M 405 172 398 175"/>
<path stroke-width="1.15" stroke="gray" d="M 405 172 398 175"/>
<path stroke-width="0.5" stroke="gray" d="M 405 172 402 173"/>
<path stroke-width="1.15" stroke="gray" d="M 405 172 20 320"/>
<path stroke-width="1.15" stroke="gray" d="M 405 172 405 172"/>
<path stroke-width="1.15" stroke="gray" d="M 405 172 405 172"/>
<path stroke-width="1.15" stroke="gray" d="M 405 172 398 175"/>
<path stroke-width="1.15" stroke="gray" d="M 405 172 398 175"/>
<path stroke-width="0.5" stroke="gray" d="M 405 172 402 173"/>
<path stroke-width="1.15" stroke="gray" d="M 405 172 20 320"/>
<path stroke-width="1.15" stroke="gray" d="M 405 172 405 172"/>
<path stroke-width="0.5" stroke="gray" d="M 412 166 284 232"/>
<path stroke-width="0.5" stroke="gray" d="M 402 150 305 82"/>
<path stroke-width="1.15" stroke="gray" d="M 402 173 20 320"/>
<path stroke-width="1.8" stroke="gray" d="M 367 191 411 168"/>
<path stroke-width="2.45" stroke="gray" d="M 284 232 392 175"/>
<path stroke-width="3.75" stroke="gray" d="M 284 232 386 180"/>
<path stroke-width="3.1" stroke="gray" d="M 284 232 390 178"/>
<path stroke-width="1.15" stroke="gray" d="M 284 232 52 211"/>
<path stroke-width="0.5" stroke="gray" d="M 284 232 276 88"/>
<path stroke-width="1.15" stroke="gray" d="M 284 232 413 168"/>
<path stroke-width="1.8" stroke="gray" d="M 284 232 376 173"/>
<path stroke-width="0.5" stroke="gray" d="M 284 232 417 165"/>
<path stroke-width="0.5" stroke="gray" d="M 284 232 412 166"/>
<path stroke-width="3.1" stroke="gray" d="M 284 232 261 219"/>
<path stroke-width="0.5" stroke="gray" d="M 284 232 91 294"/>
<path stroke-width="8.3" stroke="gray" d="M 284 232 321 219"/>
<path stroke-width="0.5" stroke="gray" d="M 284 232 343 206"/>
<path stroke-width="0.5" stroke="gray" d="M 284 232 403 170"/>
<path stroke-width="7.65" stroke="gray" d="M 284 232 20 320"/>
<path stroke-width="0.5" stroke="gray" d="M 321 219 386 180"/>
<path stroke-width="0.5" stroke="gray" d="M 321 219 390 178"/>
<path stroke-width="0.5" stroke="gray" d="M 321 219 416 165"/>
<path stroke-width="0.5" stroke="gray" d="M 321 219 413 168"/>
<path stroke-width="1.15" stroke="gray" d="M 321 219 376 173"/>
<path stroke-width="0.5" stroke="gray" d="M 321 219 261 219"/>
<path stroke-width="2.45" stroke="gray" d="M 321 219 91 294"/>
<path stroke-width="8.3" stroke="gray" d="M 321 219 284 232"/>
<path stroke-width="1.15" stroke="gray" d="M 321 219 343 206"/>
<path stroke-width="4.4" stroke="gray" d="M 321 219 20 320"/>
<path stroke-width="1.15" stroke="gray" d="M 343 206 396 176"/>
<path stroke-width="0.5" stroke="gray" d="M 343 206 418 165"/>
<path stroke-width="0.5" stroke="gray" d="M 343 206 402 173"/>
<path stroke-width="0.5" stroke="gray" d="M 321 219 392 175"/>
<path stroke-width="1.15" stroke="gray" d="M 367 191 418 165"/>
<path stroke-width="1.8" stroke="gray" d="M 284 232 407 169"/>
<path stroke-width="0.5" stroke="gray" d="M 91 294 403 172"/>
<path stroke-width="0.5" stroke="gray" d="M 367 191 261 219"/>
<path stroke-width="5.05" stroke="gray" d="M 367 191 20 320"/>
<path stroke-width="0.5" stroke="gray" d="M 261 219 401 173"/>
<path stroke-width="0.5" stroke="gray" d="M 261 219 403 170"/>
<path stroke-width="0.5" stroke="gray" d="M 261 219 392 175"/>
<path stroke-width="1.15" stroke="gray" d="M 261 219 386 180"/>
<path stroke-width="0.5" stroke="gray" d="M 261 219 390 178"/>
<path stroke-width="3.75" stroke="gray" d="M 261 219 151 34"/>
<path stroke-width="0.5" stroke="gray" d="M 261 219 276 88"/>
<path stroke-width="0.5" stroke="gray" d="M 261 219 394 177"/>
<path stroke-width="0.5" stroke="gray" d="M 261 219 405 171"/>
<path stroke-width="0.5" stroke="gray" d="M 261 219 396 176"/>
<path stroke-width="0.5" stroke="gray" d="M 261 219 402 173"/>
<path stroke-width="20.0" stroke="gray" d="M 91 294 20 320"/>
<path stroke-width="0.5" stroke="gray" d="M 261 219 367 191"/>
<path stroke-width="3.1" stroke="gray" d="M 261 219 284 232"/>
<path stroke-width="0.5" stroke="gray" d="M 261 219 321 219"/>
<path stroke-width="3.1" stroke="gray" d="M 261 219 343 206"/>
<path stroke-width="10.9" stroke="gray" d="M 261 219 20 320"/>
<path stroke-width="1.15" stroke="gray" d="M 91 294 401 173"/>
<path stroke-width="13.5" stroke="gray" d="M 91 294 52 211"/>
<path stroke-width="0.5" stroke="gray" d="M 91 294 405 169"/>
<path stroke-width="1.15" stroke="gray" d="M 91 294 348 187"/>
<path stroke-width="1.8" stroke="gray" d="M 91 294 314 194"/>
<path stroke-width="0.5" stroke="gray" d="M 91 294 394 177"/>
<path stroke-width="0.5" stroke="gray" d="M 91 294 261 219"/>
<path stroke-width="0.5" stroke="gray" d="M 91 294 284 232"/>
<path stroke-width="2.45" stroke="gray" d="M 91 294 321 219"/>
<path stroke-width="0.5" stroke="gray" d="M 261 219 91 294"/>
<path stroke-width="0.5" stroke="gray" d="M 402 150 377 130"/>
<circle cx="381" cy="185" r="7.0" style="fill:gray;stroke:black;stroke-width:1.0"/>
<circle cx="419" cy="164" r="7.0" style="fill:gray;stroke:black;stroke-width:1.0"/>
<circle cx="394" cy="179" r="7.0" style="fill:gray;stroke:black;stroke-width:1.0"/>
<circle cx="393" cy="179" r="7.0" style="fill:gray;stroke:black;stroke-width:1.0"/>
<circle cx="419" cy="164" r="7.0" style="fill:gray;stroke:black;stroke-width:1.0"/>
<circle cx="419" cy="164" r="7.0" style="fill:gray;stroke:black;stroke-width:1.0"/>
<circle cx="419" cy="164" r="7.0" style="fill:gray;stroke:black;stroke-width:1.0"/>
<circle cx="419" cy="164" r="7.0" style="fill:gray;stroke:black;stroke-width:1.0"/>
<circle cx="418" cy="164" r="7.0" style="fill:gray;stroke:black;stroke-width:1.0"/>
<circle cx="419" cy="164" r="7.0" style="fill:gray;stroke:black;stroke-width:1.0"/>
<circle cx="413" cy="167" r="7.0" style="fill:gray;stroke:black;stroke-width:1.0"/>
<circle cx="20" cy="320" r="7.0" style="fill:gray;stroke:black;stroke-width:1.0"/>
<circle cx="411" cy="168" r="7.0" style="fill:gray;stroke:black;stroke-width:1.0"/>
<circle cx="413" cy="167" r="7.0" style="fill:gray;stroke:black;stroke-width:1.0"/>
<circle cx="413" cy="167" r="7.0" style="fill:gray;stroke:black;stroke-width:1.0"/>
<circle cx="413" cy="167" r="7.0" style="fill:gray;stroke:black;stroke-width:1.0"/>
<circle cx="403" cy="172" r="7.0" style="fill:gray;stroke:black;stroke-width:1.0"/>
<circle cx="413" cy="169" r="7.0" style="fill:gray;stroke:black;stroke-width:1.0"/>
<circle cx="413" cy="169" r="7.0" style="fill:gray;stroke:black;stroke-width:1.0"/>
<circle cx="413" cy="169" r="7.0" style="fill:gray;stroke:black;stroke-width:1.0"/>
<circle cx="412" cy="170" r="7.0" style="fill:gray;stroke:black;stroke-width:1.0"/>
<circle cx="412" cy="170" r="7.0" style="fill:gray;stroke:black;stroke-width:1.0"/>
<circle cx="412" cy="169" r="7.0" style="fill:gray;stroke:black;stroke-width:1.0"/>
<circle cx="343" cy="206" r="7.0" style="fill:gray;stroke:black;stroke-width:1.0"/>
<circle cx="321" cy="219" r="7.0" style="fill:gray;stroke:black;stroke-width:1.0"/>
<circle cx="284" cy="232" r="7.0" style="fill:gray;stroke:black;stroke-width:1.0"/>
<circle cx="91" cy="294" r="7.0" style="fill:gray;stroke:black;stroke-width:1.0"/>
<circle cx="261" cy="219" r="7.0" style="fill:gray;stroke:black;stroke-width:1.0"/>
<circle cx="367" cy="191" r="7.0" style="fill:gray;stroke:black;stroke-width:1.0"/>
<circle cx="402" cy="173" r="7.0" style="fill:gray;stroke:black;stroke-width:1.0"/>
<circle cx="418" cy="165" r="7.0" style="fill:gray;stroke:black;stroke-width:1.0"/>
<circle cx="396" cy="176" r="7.0" style="fill:gray;stroke:black;stroke-width:1.0"/>
<circle cx="413" cy="167" r="7.0" style="fill:gray;stroke:black;stroke-width:1.0"/>
<circle cx="405" cy="171" r="7.0" style="fill:gray;stroke:black;stroke-width:1.0"/>
<circle cx="398" cy="175" r="7.0" style="fill:gray;stroke:black;stroke-width:1.0"/>
<circle cx="398" cy="175" r="7.0" style="fill:gray;stroke:black;stroke-width:1.0"/>
<circle cx="405" cy="172" r="7.0" style="fill:gray;stroke:black;stroke-width:1.0"/>
<circle cx="405" cy="172" r="7.0" style="fill:gray;stroke:black;stroke-width:1.0"/>
<circle cx="405" cy="172" r="7.0" style="fill:gray;stroke:black;stroke-width:1.0"/>
<circle cx="412" cy="166" r="7.0" style="fill:gray;stroke:black;stroke-width:1.0"/>
<circle cx="417" cy="165" r="7.0" style="fill:gray;stroke:black;stroke-width:1.0"/>
<circle cx="376" cy="173" r="7.0" style="fill:gray;stroke:black;stroke-width:1.0"/>
<circle cx="413" cy="168" r="7.0" style="fill:gray;stroke:black;stroke-width:1.0"/>
<circle cx="394" cy="177" r="7.0" style="fill:gray;stroke:black;stroke-width:1.0"/>
<circle cx="411" cy="168" r="7.0" style="fill:gray;stroke:black;stroke-width:1.0"/>
<circle cx="418" cy="165" r="7.0" style="fill:gray;stroke:black;stroke-width:1.0"/>
<circle cx="420" cy="163" r="7.0" style="fill:gray;stroke:black;stroke-width:1.0"/>
<circle cx="415" cy="160" r="7.0" style="fill:gray;stroke:black;stroke-width:1.0"/>
<circle cx="276" cy="88" r="7.0" style="fill:gray;stroke:black;stroke-width:1.0"/>
<circle cx="314" cy="194" r="7.0" style="fill:gray;stroke:black;stroke-width:1.0"/>
<circle cx="416" cy="165" r="7.0" style="fill:gray;stroke:black;stroke-width:1.0"/>
<circle cx="348" cy="187" r="7.0" style="fill:gray;stroke:black;stroke-width:1.0"/>
<circle cx="418" cy="164" r="7.0" style="fill:gray;stroke:black;stroke-width:1.0"/>
<circle cx="418" cy="164" r="7.0" style="fill:gray;stroke:black;stroke-width:1.0"/>
<circle cx="405" cy="169" r="7.0" style="fill:gray;stroke:black;stroke-width:1.0"/>
<circle cx="52" cy="211" r="7.0" style="fill:gray;stroke:black;stroke-width:1.0"/>
<circle cx="412" cy="165" r="7.0" style="fill:gray;stroke:black;stroke-width:1.0"/>
<circle cx="383" cy="140" r="7.0" style="fill:gray;stroke:black;stroke-width:1.0"/>
<circle cx="151" cy="34" r="7.0" style="fill:gray;stroke:black;stroke-width:1.0"/>
<circle cx="211" cy="31" r="7.0" style="fill:gray;stroke:black;stroke-width:1.0"/>
<circle cx="366" cy="122" r="7.0" style="fill:gray;stroke:black;stroke-width:1.0"/>
<circle cx="312" cy="84" r="7.0" style="fill:gray;stroke:black;stroke-width:1.0"/>
<circle cx="172" cy="20" r="7.0" style="fill:gray;stroke:black;stroke-width:1.0"/>
<circle cx="318" cy="88" r="7.0" style="fill:gray;stroke:black;stroke-width:1.0"/>
<circle cx="225" cy="45" r="7.0" style="fill:gray;stroke:black;stroke-width:1.0"/>
<circle cx="305" cy="82" r="7.0" style="fill:gray;stroke:black;stroke-width:1.0"/>
<circle cx="377" cy="130" r="7.0" style="fill:gray;stroke:black;stroke-width:1.0"/>
<circle cx="418" cy="162" r="7.0" style="fill:gray;stroke:black;stroke-width:1.0"/>
<circle cx="390" cy="178" r="7.0" style="fill:gray;stroke:black;stroke-width:1.0"/>
<circle cx="386" cy="180" r="7.0" style="fill:gray;stroke:black;stroke-width:1.0"/>
<circle cx="392" cy="175" r="7.0" style="fill:gray;stroke:black;stroke-width:1.0"/>
<circle cx="403" cy="170" r="7.0" style="fill:gray;stroke:black;stroke-width:1.0"/>
<circle cx="401" cy="173" r="7.0" style="fill:gray;stroke:black;stroke-width:1.0"/>
<circle cx="415" cy="160" r="7.0" style="fill:gray;stroke:black;stroke-width:1.0"/>
<circle cx="415" cy="160" r="7.0" style="fill:gray;stroke:black;stroke-width:1.0"/>
<circle cx="407" cy="169" r="7.0" style="fill:gray;stroke:black;stroke-width:1.0"/>
<circle cx="402" cy="150" r="7.0" style="fill:gray;stroke:black;stroke-width:1.0"/>
<text text-anchor="start" x="391" y="185" font-size="12">Myriel</text><text text-anchor="start" x="429" y="164" font-size="12">Napoleon</text><text text-anchor="start" x="404" y="179" font-size="12">Mlle Baptistine</text><text text-anchor="start" x="403" y="179" font-size="12">Mme Magloire</text><text text-anchor="start" x="429" y="164" font-size="12">Countess de Lo</text><text text-anchor="start" x="429" y="164" font-size="12">Geborand</text><text text-anchor="start" x="429" y="164" font-size="12">Champtercier</text><text text-anchor="start" x="429" y="164" font-size="12">Cravatte</text><text text-anchor="start" x="428" y="164" font-size="12">Count</text><text text-anchor="start" x="429" y="164" font-size="12">Old man</text><text text-anchor="start" x="423" y="167" font-size="12">Labarre</text><text text-anchor="start" x="30" y="320" font-size="12">Valjean</text><text text-anchor="start" x="421" y="168" font-size="12">Marguerite</text><text text-anchor="start" x="423" y="167" font-size="12">Mme Der</text><text text-anchor="start" x="423" y="167" font-size="12">Isabeau</text><text text-anchor="start" x="423" y="167" font-size="12">Gervais</text><text text-anchor="start" x="413" y="172" font-size="12">Tholomyes</text><text text-anchor="start" x="423" y="169" font-size="12">Listolier</text><text text-anchor="start" x="423" y="169" font-size="12">Fameuil</text><text text-anchor="start" x="423" y="169" font-size="12">Blacheville</text><text text-anchor="start" x="422" y="170" font-size="12">Favourite</text><text text-anchor="start" x="422" y="170" font-size="12">Dahlia</text><text text-anchor="start" x="422" y="169" font-size="12">Zephine</text><text text-anchor="start" x="353" y="206" font-size="12">Fantine</text><text text-anchor="start" x="331" y="219" font-size="12">Mme Thenardier</text><text text-anchor="start" x="294" y="232" font-size="12">Thenardier</text><text text-anchor="start" x="101" y="294" font-size="12">Cosette</text><text text-anchor="start" x="271" y="219" font-size="12">Javert</text><text text-anchor="start" x="377" y="191" font-size="12">Fauchelevent</text><text text-anchor="start" x="412" y="173" font-size="12">Bamatabois</text><text text-anchor="start" x="428" y="165" font-size="12">Perpetue</text><text text-anchor="start" x="406" y="176" font-size="12">Simplice</text><text text-anchor="start" x="423" y="167" font-size="12">Scaufflaire</text><text text-anchor="start" x="415" y="171" font-size="12">Woman1</text><text text-anchor="start" x="408" y="175" font-size="12">Judge</text><text text-anchor="start" x="408" y="175" font-size="12">Champmathieu</text><text text-anchor="start" x="415" y="172" font-size="12">Brevet</text><text text-anchor="start" x="415" y="172" font-size="12">Chenildieu</text><text text-anchor="start" x="415" y="172" font-size="12">Cochepaille</text><text text-anchor="start" x="422" y="166" font-size="12">Pontmercy</text><text text-anchor="start" x="427" y="165" font-size="12">Boulatruelle</text><text text-anchor="start" x="386" y="173" font-size="12">Eponine</text><text text-anchor="start" x="423" y="168" font-size="12">Anzelma</text><text text-anchor="start" x="404" y="177" font-size="12">Woman2</text><text text-anchor="start" x="421" y="168" font-size="12">Mother Innocent</text><text text-anchor="start" x="428" y="165" font-size="12">Gribier</text><text text-anchor="start" x="430" y="163" font-size="12">Jondrette</text><text text-anchor="start" x="425" y="160" font-size="12">Mme Burgon</text><text text-anchor="start" x="286" y="88" font-size="12">Gavroche</text><text text-anchor="start" x="324" y="194" font-size="12">Gillenormand</text><text text-anchor="start" x="426" y="165" font-size="12">Magnon</text><text text-anchor="start" x="358" y="187" font-size="12">Mlle Gillenormand</text><text text-anchor="start" x="428" y="164" font-size="12">Mme Pontmercy</text><text text-anchor="start" x="428" y="164" font-size="12">Mlle Vaubois</text><text text-anchor="start" x="415" y="169" font-size="12">Lt Gillenormand</text><text text-anchor="start" x="62" y="211" font-size="12">Marius</text><text text-anchor="start" x="422" y="165" font-size="12">Baroness</text><text text-anchor="start" x="393" y="140" font-size="12">Mabeuf</text><text text-anchor="start" x="161" y="34" font-size="12">Enjolras</text><text text-anchor="start" x="221" y="31" font-size="12">Combeferre</text><text text-anchor="start" x="376" y="122" font-size="12">Prouvaire</text><text text-anchor="start" x="322" y="84" font-size="12">Feuilly</text><text text-anchor="start" x="182" y="20" font-size="12">Courfeyrac</text><text text-anchor="start" x="328" y="88" font-size="12">Bahorel</text><text text-anchor="start" x="235" y="45" font-size="12">Bossuet</text><text text-anchor="start" x="315" y="82" font-size="12">Joly</text><text text-anchor="start" x="387" y="130" font-size="12">Grantaire</text><text text-anchor="start" x="428" y="162" font-size="12">MotherPlutarch</text><text text-anchor="start" x="400" y="178" font-size="12">Gueulemer</text><text text-anchor="start" x="396" y="180" font-size="12">Babet</text><text text-anchor="start" x="402" y="175" font-size="12">Claquesous</text><text text-anchor="start" x="413" y="170" font-size="12">Montparnasse</text><text text-anchor="start" x="411" y="173" font-size="12">Toussaint</text><text text-anchor="start" x="425" y="160" font-size="12">Child1</text><text text-anchor="start" x="425" y="160" font-size="12">Child2</text><text text-anchor="start" x="417" y="169" font-size="12">Brujon</text><text text-anchor="start" x="412" y="150" font-size="12">Mme Hucheloup</text></svg>
