<svg width="1092.0" height="510.0"  xmlns="http://www.w3.org/2000/svg">
<path stroke-width="1" stroke="black" d="M 731 325 839 352"/>
<path stroke-width="1" stroke="black" d="M 282 480 782 379"/>
<path stroke-width="1" stroke="black" d="M 282 480 782 379"/>
<path stroke-width="1" stroke="black" d="M 282 480 790 371"/>
<path stroke-width="1" stroke="black" d="M 612 410 839 352"/>
<path stroke-width="1" stroke="black" d="M 612 410 782 379"/>
<path stroke-width="1" stroke="black" d="M 612 410 782 379"/>
<path stroke-width="1" stroke="black" d="M 543 407 719 377"/>
<path stroke-width="1" stroke="black" d="M 543 407 790 373"/>
<path stroke-width="1" stroke="black" d="M 543 407 824 356"/>
<path stroke-width="1" stroke="black" d="M 595 342 843 308"/>
<path stroke-width="1" stroke="black" d="M 595 342 719 377"/>
<path stroke-width="1" stroke="black" d="M 595 342 824 356"/>
<path stroke-width="1" stroke="black" d="M 540 387 822 338"/>
<path stroke-width="1" stroke="black" d="M 540 387 719 377"/>
<path stroke-width="1" stroke="black" d="M 540 387 790 371"/>
<path stroke-width="1" stroke="black" d="M 751 388 782 379"/>
<path stroke-width="1" stroke="black" d="M 751 388 864 359"/>
<path stroke-width="1" stroke="black" d="M 282 480 790 373"/>
<path stroke-width="1" stroke="black" d="M 282 480 719 377"/>
<path stroke-width="1" stroke="black" d="M 808 181 855 255"/>
<path stroke-width="1" stroke="black" d="M 808 181 849 275"/>
<path stroke-width="1" stroke="black" d="M 731 325 822 338"/>
<path stroke-width="1" stroke="black" d="M 731 325 861 334"/>
<path stroke-width="1" stroke="black" d="M 741 247 822 338"/>
<path stroke-width="1" stroke="black" d="M 741 247 861 334"/>
<path stroke-width="1" stroke="black" d="M 741 247 849 275"/>
<path stroke-width="1" stroke="black" d="M 711 30 849 275"/>
<path stroke-width="1" stroke="black" d="M 711 30 851 240"/>
<path stroke-width="1" stroke="black" d="M 711 30 843 308"/>
<path stroke-width="1" stroke="black" d="M 751 388 782 379"/>
<path stroke-width="1" stroke="black" d="M 711 30 855 255"/>
<path stroke-width="1" stroke="black" d="M 837 222 882 332"/>
<path stroke-width="1" stroke="black" d="M 825 334 839 352"/>
<path stroke-width="1" stroke="black" d="M 825 334 882 332"/>
<path stroke-width="1" stroke="black" d="M 833 187 851 240"/>
<path stroke-width="1" stroke="black" d="M 833 187 877 297"/>
<path stroke-width="1" stroke="black" d="M 792 93 851 240"/>
<path stroke-width="1" stroke="black" d="M 792 93 877 297"/>
<path stroke-width="1" stroke="black" d="M 792 93 855 255"/>
<path stroke-width="1" stroke="black" d="M 837 222 851 240"/>
<path stroke-width="1" stroke="black" d="M 751 388 864 359"/>
<circle cx="731" cy="325" r="7.0" style="fill:blue;stroke:black;stroke-width:1.0"/>
<circle cx="741" cy="247" r="7.0" style="fill:blue;stroke:black;stroke-width:1.0"/>
<circle cx="711" cy="30" r="7.0" style="fill:blue;stroke:black;stroke-width:1.0"/>
<circle cx="837" cy="222" r="7.0" style="fill:blue;stroke:black;stroke-width:1.0"/>
<circle cx="825" cy="334" r="7.0" style="fill:blue;stroke:black;stroke-width:1.0"/>
<circle cx="833" cy="187" r="7.0" style="fill:blue;stroke:black;stroke-width:1.0"/>
<circle cx="792" cy="93" r="7.0" style="fill:blue;stroke:black;stroke-width:1.0"/>
<circle cx="808" cy="181" r="7.0" style="fill:blue;stroke:black;stroke-width:1.0"/>
<circle cx="282" cy="480" r="7.0" style="fill:blue;stroke:black;stroke-width:1.0"/>
<circle cx="612" cy="410" r="7.0" style="fill:blue;stroke:black;stroke-width:1.0"/>
<circle cx="543" cy="407" r="7.0" style="fill:blue;stroke:black;stroke-width:1.0"/>
<circle cx="595" cy="342" r="7.0" style="fill:blue;stroke:black;stroke-width:1.0"/>
<circle cx="540" cy="387" r="7.0" style="fill:blue;stroke:black;stroke-width:1.0"/>
<circle cx="751" cy="388" r="7.0" style="fill:blue;stroke:black;stroke-width:1.0"/>
<circle cx="751" cy="388" r="7.0" style="fill:blue;stroke:black;stroke-width:1.0"/>
<circle cx="839" cy="352" r="7.0" style="fill:red;stroke:black;stroke-width:1.0"/>
<circle cx="822" cy="338" r="7.0" style="fill:red;stroke:black;stroke-width:1.0"/>
<circle cx="861" cy="334" r="7.0" style="fill:red;stroke:black;stroke-width:1.0"/>
<circle cx="849" cy="275" r="7.0" style="fill:red;stroke:black;stroke-width:1.0"/>
<circle cx="851" cy="240" r="7.0" style="fill:red;stroke:black;stroke-width:1.0"/>
<circle cx="843" cy="308" r="7.0" style="fill:red;stroke:black;stroke-width:1.0"/>
<circle cx="882" cy="332" r="7.0" style="fill:red;stroke:black;stroke-width:1.0"/>
<circle cx="877" cy="297" r="7.0" style="fill:red;stroke:black;stroke-width:1.0"/>
<circle cx="855" cy="255" r="7.0" style="fill:red;stroke:black;stroke-width:1.0"/>
<circle cx="719" cy="377" r="7.0" style="fill:red;stroke:black;stroke-width:1.0"/>
<circle cx="790" cy="373" r="7.0" style="fill:red;stroke:black;stroke-width:1.0"/>
<circle cx="782" cy="379" r="7.0" style="fill:red;stroke:black;stroke-width:1.0"/>
<circle cx="782" cy="379" r="7.0" style="fill:red;stroke:black;stroke-width:1.0"/>
<circle cx="824" cy="356" r="7.0" style="fill:red;stroke:black;stroke-width:1.0"/>
<circle cx="864" cy="359" r="7.0" style="fill:red;stroke:black;stroke-width:1.0"/>
<circle cx="790" cy="371" r="7.0" style="fill:red;stroke:black;stroke-width:1.0"/>
<text text-anchor="end" x="721" y="325" font-size="12">Inception</text><text text-anchor="end" x="731" y="247" font-size="12">The Dark Knight Rises</text><text text-anchor="end" x="701" y="30" font-size="12">The Big Short</text><text text-anchor="end" x="827" y="222" font-size="12">Drive</text><text text-anchor="end" x="815" y="334" font-size="12">The Great Gatsby</text><text text-anchor="end" x="823" y="187" font-size="12">La La Land</text><text text-anchor="end" x="782" y="93" font-size="12">Crazy Stupid Love</text><text text-anchor="end" x="798" y="181" font-size="12">Vice</text><text text-anchor="end" x="272" y="480" font-size="12">The Grand Budapest Hotel</text><text text-anchor="end" x="602" y="410" font-size="12">Aviator</text><text text-anchor="end" x="533" y="407" font-size="12">007 Spectre</text><text text-anchor="end" x="585" y="342" font-size="12">Inglourious Basterds</text><text text-anchor="end" x="530" y="387" font-size="12">Midnight In Paris</text><text text-anchor="end" x="741" y="388" font-size="12">Murder on the Orient Express</text><text text-anchor="end" x="741" y="388" font-size="12">Fantastic Beasts 2</text><text text-anchor="start" x="849" y="352" font-size="12">Leonardo DiCaprio</text><text text-anchor="start" x="832" y="338" font-size="12">Marion Cotillard</text><text text-anchor="start" x="871" y="334" font-size="12">Joseph Gordon Lewitt</text><text text-anchor="start" x="859" y="275" font-size="12">Christian Bale</text><text text-anchor="start" x="861" y="240" font-size="12">Ryan Gosling</text><text text-anchor="start" x="853" y="308" font-size="12">Brad Pitt</text><text text-anchor="start" x="892" y="332" font-size="12">Carey Mulligan</text><text text-anchor="start" x="887" y="297" font-size="12">Emma Stone</text><text text-anchor="start" x="865" y="255" font-size="12">Steve Carell</text><text text-anchor="start" x="729" y="377" font-size="12">Lea Seydoux</text><text text-anchor="start" x="800" y="373" font-size="12">Ralph Fiennes</text><text text-anchor="start" x="792" y="379" font-size="12">Jude Law</text><text text-anchor="start" x="792" y="379" font-size="12">Willem Dafoe</text><text text-anchor="start" x="834" y="356" font-size="12">Christophe Waltz</text><text text-anchor="start" x="874" y="359" font-size="12">Johnny Depp</text><text text-anchor="start" x="800" y="371" font-size="12">Owen Wilson</text></svg>
