<svg width="536.0" height="340" xmlns="http://www.w3.org/2000/svg">
<path stroke-width="1" stroke="gray" d="M 86 118 20 20"/>
<path stroke-width="1" stroke="gray" d="M 420 215 395 320"/>
<path stroke-width="1" stroke="gray" d="M 420 215 321 215"/>
<path stroke-width="1" stroke="gray" d="M 321 215 395 320"/>
<path stroke-width="1" stroke="gray" d="M 321 215 420 215"/>
<path stroke-width="1" stroke="gray" d="M 321 215 191 127"/>
<path stroke-width="1" stroke="gray" d="M 191 127 321 215"/>
<path stroke-width="1" stroke="gray" d="M 191 127 109 23"/>
<path stroke-width="1" stroke="gray" d="M 191 127 86 118"/>
<path stroke-width="1" stroke="gray" d="M 109 23 191 127"/>
<path stroke-width="1" stroke="gray" d="M 109 23 20 20"/>
<path stroke-width="1" stroke="gray" d="M 109 23 86 118"/>
<path stroke-width="1" stroke="gray" d="M 20 20 109 23"/>
<path stroke-width="1" stroke="gray" d="M 20 20 86 118"/>
<path stroke-width="1" stroke="gray" d="M 86 118 191 127"/>
<path stroke-width="1" stroke="gray" d="M 86 118 109 23"/>
<path stroke-width="1" stroke="gray" d="M 395 320 321 215"/>
<path stroke-width="1" stroke="gray" d="M 395 320 420 215"/>
<circle cx="86" cy="118" r="7.0" style="fill:gray;stroke:black;stroke-width:1.0"/>
<circle cx="20" cy="20" r="7.0" style="fill:gray;stroke:black;stroke-width:1.0"/>
<circle cx="109" cy="23" r="7.0" style="fill:gray;stroke:black;stroke-width:1.0"/>
<circle cx="191" cy="127" r="7.0" style="fill:gray;stroke:black;stroke-width:1.0"/>
<circle cx="321" cy="215" r="7.0" style="fill:gray;stroke:black;stroke-width:1.0"/>
<circle cx="420" cy="215" r="7.0" style="fill:gray;stroke:black;stroke-width:1.0"/>
<circle cx="395" cy="320" r="7.0" style="fill:gray;stroke:black;stroke-width:1.0"/>
<text text-anchor="start" x="96" y="118" font-size="12">Alice</text><text text-anchor="start" x="30" y="20" font-size="12">Bob</text><text text-anchor="start" x="119" y="23" font-size="12">Cecilia</text><text text-anchor="start" x="201" y="127" font-size="12">David</text><text text-anchor="start" x="331" y="215" font-size="12">Estelle</text><text text-anchor="start" x="430" y="215" font-size="12">Floriane</text><text text-anchor="start" x="405" y="320" font-size="12">Giobane</text></svg>
