<svg width="536.0" height="340" xmlns="http://www.w3.org/2000/svg">
<path stroke-width="1" stroke="gray" d="M 20 320 185 319"/>
<path stroke-width="1" stroke="gray" d="M 420 20 420 20"/>
<path stroke-width="1" stroke="gray" d="M 420 20 254 20"/>
<path stroke-width="1" stroke="gray" d="M 254 20 420 20"/>
<path stroke-width="1" stroke="gray" d="M 254 20 420 20"/>
<path stroke-width="1" stroke="gray" d="M 254 20 38 219"/>
<path stroke-width="1" stroke="gray" d="M 38 219 254 20"/>
<path stroke-width="1" stroke="gray" d="M 38 219 20 319"/>
<path stroke-width="1" stroke="gray" d="M 38 219 20 320"/>
<path stroke-width="1" stroke="gray" d="M 20 319 38 219"/>
<path stroke-width="1" stroke="gray" d="M 20 319 185 319"/>
<path stroke-width="1" stroke="gray" d="M 20 319 20 320"/>
<path stroke-width="1" stroke="gray" d="M 185 319 20 319"/>
<path stroke-width="1" stroke="gray" d="M 185 319 20 320"/>
<path stroke-width="1" stroke="gray" d="M 20 320 38 219"/>
<path stroke-width="1" stroke="gray" d="M 20 320 20 319"/>
<path stroke-width="1" stroke="gray" d="M 420 20 254 20"/>
<path stroke-width="1" stroke="gray" d="M 420 20 420 20"/>
<circle cx="20" cy="320" r="7.0" style="fill:gray;stroke:black;stroke-width:1.0"/>
<circle cx="185" cy="319" r="7.0" style="fill:gray;stroke:black;stroke-width:1.0"/>
<circle cx="20" cy="319" r="7.0" style="fill:gray;stroke:black;stroke-width:1.0"/>
<circle cx="38" cy="219" r="7.0" style="fill:gray;stroke:black;stroke-width:1.0"/>
<circle cx="254" cy="20" r="7.0" style="fill:gray;stroke:black;stroke-width:1.0"/>
<circle cx="420" cy="20" r="7.0" style="fill:gray;stroke:black;stroke-width:1.0"/>
<circle cx="420" cy="20" r="7.0" style="fill:gray;stroke:black;stroke-width:1.0"/>
<text text-anchor="start" x="30" y="320" font-size="12">Alice</text><text text-anchor="start" x="195" y="319" font-size="12">Bob</text><text text-anchor="start" x="30" y="319" font-size="12">Cecilia</text><text text-anchor="start" x="48" y="219" font-size="12">David</text><text text-anchor="start" x="264" y="20" font-size="12">Estelle</text><text text-anchor="start" x="430" y="20" font-size="12">Floriane</text><text text-anchor="start" x="430" y="20" font-size="12">Giobane</text></svg>
