<svg width="921.0" height="510.0"  xmlns="http://www.w3.org/2000/svg">
<path stroke-width="1" stroke="black" d="M 307 407 629 480"/>
<path stroke-width="1" stroke="black" d="M 307 407 585 193"/>
<path stroke-width="1" stroke="black" d="M 629 480 629 480"/>
<path stroke-width="1" stroke="black" d="M 84 244 629 480"/>
<path stroke-width="1" stroke="black" d="M 84 244 684 102"/>
<path stroke-width="1" stroke="black" d="M 84 244 585 193"/>
<path stroke-width="1" stroke="black" d="M 362 30 684 102"/>
<path stroke-width="1" stroke="black" d="M 362 30 585 193"/>
<circle cx="307" cy="407" r="7.0" style="fill:blue;stroke:black;stroke-width:1.0"/>
<circle cx="629" cy="480" r="7.0" style="fill:blue;stroke:black;stroke-width:1.0"/>
<circle cx="84" cy="244" r="7.0" style="fill:blue;stroke:black;stroke-width:1.0"/>
<circle cx="362" cy="30" r="7.0" style="fill:blue;stroke:black;stroke-width:1.0"/>
<circle cx="629" cy="480" r="7.0" style="fill:red;stroke:black;stroke-width:1.0"/>
<circle cx="684" cy="102" r="7.0" style="fill:red;stroke:black;stroke-width:1.0"/>
<circle cx="585" cy="193" r="7.0" style="fill:red;stroke:black;stroke-width:1.0"/>
<text text-anchor="end" x="297" y="407" font-size="12">Jabba</text><text text-anchor="end" x="619" y="480" font-size="12">Greedo</text><text text-anchor="end" x="74" y="244" font-size="12">Vader</text><text text-anchor="end" x="352" y="30" font-size="12">Boba</text><text text-anchor="start" x="639" y="480" font-size="12">A New Hope</text><text text-anchor="start" x="694" y="102" font-size="12">The Empire Strikes Back</text><text text-anchor="start" x="595" y="193" font-size="12">Return Of The Jedi</text></svg>
